<svg id="Layer_1" data-name="Layer 1" xmlns="http://www.w3.org/2000/svg" viewBox="0 0 757 402"><defs><style>.cls-1{font-size:13px;font-family:Helvetica-Bold, Helvetica;font-weight:700;}.cls-2{letter-spacing:-0.04em;}.cls-3{letter-spacing:-0.07em;}.cls-4{opacity:0.3;}.cls-12,.cls-5,.cls-6,.cls-7{fill:none;}.cls-5,.cls-6{stroke:#000;stroke-width:0.5px;}.cls-12,.cls-13,.cls-5,.cls-6,.cls-7{stroke-miterlimit:10;}.cls-6{stroke-dasharray:2.99 2.99;}.cls-13,.cls-7{stroke:#e9e9ea;}.cls-8{font-size:10.33px;}.cls-14,.cls-8{font-family:Helvetica, Helvetica;}.cls-9{letter-spacing:-0.07em;}.cls-10{letter-spacing:-0.07em;}.cls-11{letter-spacing:-0.05em;}.cls-12{stroke:#9899cb;stroke-width:1.5px;}.cls-13{fill:#e9e9ea;}.cls-14{font-size:6.88px;}</style></defs><title>accidents_total_final_05_15</title><text class="cls-1" transform="translate(269.28 22.35)">ACCIDENTS<tspan class="cls-2" x="75.84" y="0"> </tspan><tspan class="cls-3" x="78.97" y="0">A</tspan><tspan x="87.4" y="0">T WORK: 2005 - 2015</tspan></text><g class="cls-4"><line class="cls-5" x1="89.34" y1="95.34" x2="90.84" y2="95.34"/><line class="cls-6" x1="93.83" y1="95.34" x2="726.59" y2="95.34"/><line class="cls-5" x1="728.09" y1="95.34" x2="729.59" y2="95.34"/></g><line class="cls-7" x1="281.41" y1="131.63" x2="281.41" y2="84.18"/><g class="cls-4"><line class="cls-5" x1="89.34" y1="136.64" x2="90.84" y2="136.64"/><line class="cls-6" x1="93.83" y1="136.64" x2="726.59" y2="136.64"/><line class="cls-5" x1="728.09" y1="136.64" x2="729.59" y2="136.64"/></g><g class="cls-4"><line class="cls-5" x1="89.34" y1="177.18" x2="90.84" y2="177.18"/><line class="cls-6" x1="93.83" y1="177.18" x2="726.59" y2="177.18"/><line class="cls-5" x1="728.09" y1="177.18" x2="729.59" y2="177.18"/></g><g class="cls-4"><line class="cls-5" x1="89.34" y1="218.49" x2="90.84" y2="218.49"/><line class="cls-6" x1="93.83" y1="218.49" x2="726.59" y2="218.49"/><line class="cls-5" x1="728.09" y1="218.49" x2="729.59" y2="218.49"/></g><g class="cls-4"><line class="cls-5" x1="89.34" y1="259.8" x2="90.84" y2="259.8"/><line class="cls-6" x1="93.83" y1="259.8" x2="726.59" y2="259.8"/><line class="cls-5" x1="728.09" y1="259.8" x2="729.59" y2="259.8"/></g><g class="cls-4"><line class="cls-5" x1="89.34" y1="300.34" x2="90.84" y2="300.34"/><line class="cls-6" x1="93.83" y1="300.34" x2="726.59" y2="300.34"/><line class="cls-5" x1="728.09" y1="300.34" x2="729.59" y2="300.34"/></g><g class="cls-4"><line class="cls-5" x1="89.34" y1="340.88" x2="90.84" y2="340.88"/><line class="cls-6" x1="93.83" y1="340.88" x2="726.59" y2="340.88"/><line class="cls-5" x1="728.09" y1="340.88" x2="729.59" y2="340.88"/></g><line class="cls-7" x1="473.49" y1="289.4" x2="473.49" y2="251.38"/><line class="cls-7" x1="537.51" y1="330.65" x2="537.51" y2="251.38"/><line class="cls-7" x1="409.46" y1="262.21" x2="409.46" y2="209.04"/><g class="cls-4"><line class="cls-5" x1="89.34" y1="53.11" x2="90.84" y2="53.11"/><line class="cls-6" x1="93.83" y1="53.11" x2="726.59" y2="53.11"/><line class="cls-5" x1="728.09" y1="53.11" x2="729.59" y2="53.11"/></g><line class="cls-5" x1="89.34" y1="364.98" x2="729.59" y2="364.98"/><text class="cls-8" transform="translate(89.34 382.95)">2005</text><text class="cls-8" transform="translate(49.94 55.06)"><tspan class="cls-9">1</tspan><tspan x="4.98" y="0">1,000</tspan></text><text class="cls-8" transform="translate(49.17 97.29)">10,000</text><text class="cls-8" transform="translate(54.92 138.59)">9,000</text><text class="cls-8" transform="translate(54.92 179.13)">8,000</text><text class="cls-8" transform="translate(54.92 220.44)">7,000</text><text class="cls-8" transform="translate(54.92 261.75)">6,000</text><text class="cls-8" transform="translate(54.92 302.29)">5,000</text><text class="cls-8" transform="translate(54.92 342.83)">4,000</text><text class="cls-8" transform="translate(139.06 382.95)">2006</text><text class="cls-8" transform="translate(201.79 382.95)">2007</text><text class="cls-8" transform="translate(267.57 382.95)">2008</text><text class="cls-8" transform="translate(334.12 382.95)">2009</text><text class="cls-8" transform="translate(396.08 382.95)">2010</text><text class="cls-8" transform="translate(460.33 382.95)">20<tspan class="cls-10" x="11.49" y="0">1</tspan><tspan x="16.47" y="0">1</tspan></text><text class="cls-8" transform="translate(523.82 382.95)">2012</text><text class="cls-8" transform="translate(591.14 382.73) scale(1.12 1)">2013</text><text class="cls-8" transform="translate(653.86 382.73) scale(1.12 1)">2014</text><text class="cls-8" transform="translate(708.17 382.73) scale(1.12 1)">2015</text><text class="cls-8" transform="translate(30.87 168.01) rotate(-90)">NUMBER OF<tspan class="cls-11" x="61.96" y="0"> </tspan><tspan x="64.26" y="0">ACCIDENTS</tspan></text><polyline class="cls-12" points="89.34 67.29 153.36 75.27 217.39 99.4 281.41 131.63 409.46 262.21 473.49 289.4 537.51 330.65 601.54 350.8 665.57 331.18 729.59 322.25"/><rect class="cls-13" x="409.46" y="191.68" width="113.58" height="19.12"/><rect class="cls-13" x="281.41" y="72.45" width="105.98" height="15.11"/><text class="cls-14" transform="translate(414.03 199.56)">Greece signs its 1st Memorandum <tspan x="0" y="8.26">with the EU and the IMF</tspan></text><text class="cls-14" transform="translate(284.85 81.3)">The global financial crisis begins</text><rect class="cls-13" x="469.69" y="233.02" width="71.63" height="19.12"/><text class="cls-14" transform="translate(471.26 239.76)">Less building activity<tspan x="0" y="8.26">as a result of the crisis</tspan></text></svg>