<svg id="Layer_1" data-name="Layer 1" xmlns="http://www.w3.org/2000/svg" viewBox="0 0 757 402"><defs><style>.cls-1{opacity:0.3;}.cls-10,.cls-11,.cls-12,.cls-13,.cls-14,.cls-15,.cls-16,.cls-17,.cls-18,.cls-2,.cls-3,.cls-4,.cls-5,.cls-6,.cls-7,.cls-8,.cls-9{fill:none;stroke:#000;stroke-miterlimit:10;stroke-width:0.5px;}.cls-3{stroke-dasharray:2.9 2.9;}.cls-4{stroke-dasharray:2.99 2.99;}.cls-5{stroke-dasharray:2.99 2.99;}.cls-6{stroke-dasharray:3 3;}.cls-7{stroke-dasharray:3 3;}.cls-8{stroke-dasharray:3 3;}.cls-9{stroke-dasharray:2.99 2.99;}.cls-10{stroke-dasharray:2.99 2.99;}.cls-11{stroke-dasharray:3 3;}.cls-12{stroke-dasharray:3 3;}.cls-13{stroke-dasharray:2.99 2.99;}.cls-14{stroke-dasharray:2.99 2.99;}.cls-15{stroke-dasharray:2.98 2.98;}.cls-16{stroke-dasharray:2.98 2.98;}.cls-17{stroke-dasharray:2.99 2.99;}.cls-18{stroke-dasharray:3 3;}.cls-19{fill:#9899cb;}.cls-20{font-size:11.82px;}.cls-20,.cls-27{font-family:Helvetica, Helvetica;}.cls-21,.cls-27{font-size:10.5px;}.cls-21{font-family:MyriadPro-Regular, Myriad Pro;}.cls-22{letter-spacing:-0.02em;}.cls-23{letter-spacing:0em;}.cls-24{letter-spacing:0em;}.cls-25{letter-spacing:0em;}.cls-26{letter-spacing:-0.03em;}.cls-28{letter-spacing:0em;}.cls-29{letter-spacing:-0.03em;}.cls-30{letter-spacing:-0.04em;}.cls-31{letter-spacing:-0.01em;}.cls-32{letter-spacing:0.01em;}.cls-33{letter-spacing:-0.01em;}.cls-34{letter-spacing:0em;}.cls-35{letter-spacing:-0.02em;}.cls-36{letter-spacing:-0.01em;}.cls-37{letter-spacing:-0.01em;}.cls-38{letter-spacing:-0.01em;}.cls-39{letter-spacing:-0.03em;}.cls-40{letter-spacing:0.02em;}.cls-41{letter-spacing:-0.01em;}.cls-42{letter-spacing:-0.01em;}.cls-43{letter-spacing:-0.04em;}.cls-44{letter-spacing:-0.02em;}.cls-45{letter-spacing:0em;}.cls-46{letter-spacing:-0.04em;}.cls-47{letter-spacing:0em;}.cls-48{font-size:13px;font-family:Helvetica-Bold, Helvetica;font-weight:700;}.cls-49{letter-spacing:-0.02em;}.cls-50{letter-spacing:-0.07em;}.cls-51{letter-spacing:-0.05em;}.cls-52{letter-spacing:0em;}</style></defs><title>bodyparts_total_final_05_15</title><g class="cls-1"><path class="cls-2" d="M595.24,72.88l1.5,0"/><path class="cls-3" d="M599.64,72.83c26.89-.31,53.37-.3,79.81,0"/><path class="cls-2" d="M680.91,72.86l1.5,0"/></g><g class="cls-1"><path class="cls-2" d="M319.26,102.93h1.5"/><path class="cls-4" d="M323.75,102.92c119.09-.21,238.68-.21,357.82,0"/><path class="cls-2" d="M683.07,102.93h1.5"/></g><g class="cls-1"><path class="cls-2" d="M287.33,118h1.5"/><path class="cls-5" d="M291.83,118c128.72.48,258.79.48,387.66,0"/><path class="cls-2" d="M681,118h1.5"/></g><g class="cls-1"><path class="cls-2" d="M280.2,133h1.5"/><path class="cls-6" d="M284.71,133q197.79-.11,394.75,0"/><path class="cls-2" d="M681,133h1.5"/></g><g class="cls-1"><path class="cls-2" d="M262.52,148H264"/><path class="cls-7" d="M267,148c137.72.63,274.43.62,412.07,0"/><path class="cls-2" d="M680.58,148h1.5"/></g><g class="cls-1"><path class="cls-2" d="M250.45,163H252"/><path class="cls-8" d="M255,163c141.9.07,282.55.07,424.5,0"/><path class="cls-2" d="M681,163h1.5"/></g><g class="cls-1"><path class="cls-2" d="M264.07,178.06h1.5"/><path class="cls-9" d="M268.56,178c136.23-.49,274.17-.49,410.51,0"/><path class="cls-2" d="M680.56,178.05h1.5"/></g><g class="cls-1"><path class="cls-2" d="M263.29,193.09h1.5"/><path class="cls-10" d="M267.78,193.09c137,.21,274.93.21,411.43,0"/><path class="cls-2" d="M680.71,193.09h1.5"/></g><g class="cls-1"><path class="cls-2" d="M250.45,209.06H252"/><path class="cls-11" d="M255,209.06H679.31"/><path class="cls-2" d="M680.8,209.06h1.5"/></g><g class="cls-1"><path class="cls-2" d="M250.45,223.14H252"/><path class="cls-11" d="M255,223.15c141.9.35,282.55.35,424.35,0"/><path class="cls-2" d="M680.8,223.14h1.5"/></g><g class="cls-1"><path class="cls-2" d="M250.45,238.16H252"/><path class="cls-12" d="M254.95,238.16c141.9-.21,282.55-.21,424.12,0"/><path class="cls-2" d="M680.57,238.16h1.5"/></g><g class="cls-1"><path class="cls-2" d="M250.45,253.19H252"/><path class="cls-13" d="M254.95,253.21c140.65.49,282.54.49,423.75,0"/><path class="cls-2" d="M680.19,253.2h1.5"/></g><g class="cls-1"><path class="cls-2" d="M250.45,268.22H252"/><path class="cls-13" d="M254.95,268.21c140.65-.07,282.54-.07,423.75,0"/><path class="cls-2" d="M680.19,268.22h1.5"/></g><g class="cls-1"><path class="cls-2" d="M250.45,283.24H252"/><path class="cls-14" d="M254.94,283.26c140.65.63,282.54.63,423.33,0"/><path class="cls-2" d="M679.77,283.25h1.5"/></g><g class="cls-1"><path class="cls-2" d="M250.45,298.27H252"/><path class="cls-15" d="M254.93,298.27q210.93.1,422.13,0"/><path class="cls-2" d="M678.56,298.27h1.5"/></g><g class="cls-1"><path class="cls-2" d="M250.45,313.29H252"/><path class="cls-16" d="M254.93,313.28q210.93-.74,421.94,0"/><path class="cls-2" d="M678.37,313.28h1.5"/></g><g class="cls-1"><path class="cls-2" d="M250.45,328.32h1.5"/><path class="cls-17" d="M254.94,328.33c140.64.21,282.53.21,422.94,0"/><path class="cls-2" d="M679.38,328.32h1.5"/></g><g class="cls-1"><path class="cls-2" d="M250.45,343.35h1.5"/><path class="cls-17" d="M254.94,343.33c140.64-.35,282.53-.35,422.94,0"/><path class="cls-2" d="M679.38,343.34h1.5"/></g><g class="cls-1"><path class="cls-2" d="M298.34,87.9h1.5"/><path class="cls-18" d="M302.85,87.92c125.53.34,250.43.34,376.56,0"/><path class="cls-2" d="M680.91,87.91h1.5"/></g><rect class="cls-19" x="250.45" y="69.12" width="418.65" height="7.51"/><rect class="cls-19" x="250.45" y="84.15" width="158.38" height="7.51"/><rect class="cls-19" x="250.45" y="99.17" width="137.61" height="7.51"/><rect class="cls-19" x="250.45" y="114.2" width="100.04" height="7.51"/><rect class="cls-19" x="250.45" y="129.23" width="95.79" height="7.51"/><rect class="cls-19" x="250.45" y="144.25" width="73.76" height="7.51"/><rect class="cls-19" x="250.45" y="159.28" width="66.92" height="7.51"/><rect class="cls-19" x="250.45" y="174.3" width="58.73" height="7.51"/><rect class="cls-19" x="250.45" y="189.33" width="56.41" height="7.51"/><rect class="cls-19" x="250.45" y="204.36" width="53.32" height="7.51"/><rect class="cls-19" x="250.45" y="219.38" width="52.37" height="7.51"/><rect class="cls-19" x="250.45" y="234.41" width="43.78" height="7.51"/><rect class="cls-19" x="250.45" y="249.43" width="32.82" height="7.51"/><rect class="cls-19" x="250.45" y="264.46" width="29.75" height="7.51"/><rect class="cls-19" x="250.45" y="279.49" width="27.24" height="7.51"/><rect class="cls-19" x="250.45" y="294.51" width="24.13" height="7.51"/><rect class="cls-19" x="250.45" y="309.54" width="11.44" height="7.51"/><rect class="cls-19" x="250.45" y="324.56" width="10.16" height="7.51"/><rect class="cls-19" x="250.45" y="339.59" width="9.52" height="7.51"/><line class="cls-2" x1="247.17" y1="357.42" x2="692.53" y2="357.42"/><text class="cls-20" transform="translate(247.17 372.49)">0</text><text class="cls-20" transform="translate(333.91 372.49)">5,000</text><text class="cls-20" transform="translate(427.22 372.49)">10,000</text><text class="cls-20" transform="translate(523.81 372.5)">15,000</text><text class="cls-20" transform="translate(620.41 372.49)">20,000</text><text class="cls-21" transform="translate(177.39 75.82)"><tspan class="cls-22">W</tspan><tspan class="cls-23" x="8.72" y="0">r</tspan><tspan class="cls-24" x="12.2" y="0">is</tspan><tspan class="cls-25" x="18.81" y="0">t</tspan><tspan x="22.26" y="0">, </tspan><tspan class="cls-26" x="26.66" y="0">F</tspan><tspan class="cls-24" x="31.5" y="0">ingers</tspan></text><text class="cls-27" transform="translate(214.89 90.02)">Foot</text><text class="cls-21" transform="translate(139.56 105.93)">Joi<tspan class="cls-28" x="12.11" y="0">n</tspan><tspan x="17.9" y="0">t of </tspan><tspan class="cls-29" x="34.66" y="0">F</tspan><tspan x="39.45" y="0">oot and</tspan><tspan class="cls-30" x="73.5" y="0"> </tspan><tspan class="cls-31" x="75.3" y="0">T</tspan><tspan x="80.39" y="0">ibia</tspan></text><text class="cls-21" transform="translate(190.15 121.23)"><tspan class="cls-32">K</tspan><tspan x="5.8" y="0">nee Joi</tspan><tspan class="cls-28" x="36.49" y="0">n</tspan><tspan x="42.28" y="0">t</tspan></text><text class="cls-21" transform="translate(118.48 136.04)"><tspan class="cls-33">T</tspan><tspan class="cls-34" x="5.15" y="0">he Head (</tspan><tspan class="cls-25" x="46.77" y="0">e</tspan><tspan class="cls-35" x="52" y="0">x</tspan><tspan class="cls-36" x="56.71" y="0">c</tspan><tspan x="61.35" y="0">ept the </tspan><tspan class="cls-37" x="95.09" y="0">E</tspan><tspan class="cls-38" x="100.18" y="0">y</tspan><tspan class="cls-24" x="105.03" y="0">es)</tspan></text><text class="cls-21" transform="translate(159.04 151.34)"><tspan class="cls-39">V</tspan><tspan x="5.51" y="0">e</tspan><tspan class="cls-40" x="10.78" y="0">r</tspan><tspan class="cls-36" x="14.46" y="0">t</tspan><tspan x="17.88" y="0">eb</tspan><tspan class="cls-41" x="29.12" y="0">r</tspan><tspan class="cls-34" x="32.5" y="0">al </tspan><tspan class="cls-42" x="42.27" y="0">C</tspan><tspan x="48.24" y="0">olumn</tspan></text><text class="cls-27" transform="translate(213.52 165.04)"><tspan class="cls-43">T</tspan><tspan x="6.03" y="0">ibia</tspan></text><text class="cls-27" transform="translate(63.47 179.85)">Thorax and Mixed <tspan class="cls-44" x="86.99" y="0">W</tspan><tspan x="96.72" y="0">ounds of</tspan><tspan class="cls-44" x="137.02" y="0"> </tspan><tspan x="139.75" y="0">Thorax</tspan></text><text class="cls-27" transform="translate(193.86 195.15)">Shoulder</text><text class="cls-21" transform="translate(119.39 212.14)">Joi<tspan class="cls-28" x="12.11" y="0">n</tspan><tspan x="17.9" y="0">t of </tspan><tspan class="cls-29" x="34.66" y="0">F</tspan><tspan x="39.45" y="0">o</tspan><tspan class="cls-38" x="45.22" y="0">r</tspan><tspan x="48.55" y="0">ea</tspan><tspan class="cls-45" x="58.87" y="0">r</tspan><tspan x="62.35" y="0">m and </tspan><tspan class="cls-46" x="92.38" y="0"> </tspan><tspan class="cls-22" x="94.23" y="0">W</tspan><tspan class="cls-45" x="102.95" y="0">r</tspan><tspan x="106.42" y="0">ist</tspan></text><text class="cls-21" transform="translate(185.83 226.36)">E<tspan class="cls-47" x="5.17" y="0">n</tspan><tspan x="10.96" y="0">ti</tspan><tspan class="cls-38" x="16.89" y="0">r</tspan><tspan class="cls-24" x="20.22" y="0">e </tspan><tspan class="cls-45" x="27.71" y="0">B</tspan><tspan x="33.44" y="0">ody</tspan></text><text class="cls-27" transform="translate(216.65 240.06)">Arm</text><text class="cls-27" transform="translate(207.3 255.36)">Elbow</text><text class="cls-27" transform="translate(212.55 270.17)">Eyes</text><text class="cls-27" transform="translate(196.22 285.47)">Forearm</text><text class="cls-27" transform="translate(209.63 300.28)">Thigh</text><text class="cls-27" transform="translate(195.04 315.09)">Hip Joint</text><text class="cls-27" transform="translate(165.25 330.39)">Bones of Basin</text><text class="cls-27" transform="translate(89.96 345.19)">Gut and Genito-Urinary Organs</text><text class="cls-48" transform="translate(145.15 34)">ACCIDENTS B<tspan class="cls-49" x="88.84" y="0">Y</tspan><tspan x="97.28" y="0" xml:space="preserve"> THE </tspan><tspan class="cls-50" x="130.5" y="0">P</tspan><tspan x="138.21" y="0">ART OF THE BOD</tspan><tspan class="cls-49" x="248.71" y="0">Y</tspan><tspan x="257.15" y="0" xml:space="preserve"> TH</tspan><tspan class="cls-50" x="278.09" y="0">A</tspan><tspan x="286.52" y="0">T </tspan><tspan class="cls-51" x="298.07" y="0">W</tspan><tspan class="cls-52" x="309.63" y="0">AS INJURED: 2005 - 2015</tspan></text></svg>