<svg id="Layer_1" data-name="Layer 1" xmlns="http://www.w3.org/2000/svg" viewBox="0 0 757 402"><defs><style>.cls-1{opacity:0.3;}.cls-10,.cls-11,.cls-12,.cls-13,.cls-14,.cls-15,.cls-16,.cls-17,.cls-18,.cls-2,.cls-3,.cls-4,.cls-5,.cls-6,.cls-7,.cls-8,.cls-9{fill:none;stroke:#000;stroke-miterlimit:10;stroke-width:0.5px;}.cls-3{stroke-dasharray:2.9 2.9;}.cls-4{stroke-dasharray:2.99 2.99;}.cls-5{stroke-dasharray:2.99 2.99;}.cls-6{stroke-dasharray:3 3;}.cls-7{stroke-dasharray:3 3;}.cls-8{stroke-dasharray:3 3;}.cls-9{stroke-dasharray:2.99 2.99;}.cls-10{stroke-dasharray:2.99 2.99;}.cls-11{stroke-dasharray:3 3;}.cls-12{stroke-dasharray:3 3;}.cls-13{stroke-dasharray:2.99 2.99;}.cls-14{stroke-dasharray:2.99 2.99;}.cls-15{stroke-dasharray:2.98 2.98;}.cls-16{stroke-dasharray:2.98 2.98;}.cls-17{stroke-dasharray:2.99 2.99;}.cls-18{stroke-dasharray:3 3;}.cls-19{fill:#9899cb;}.cls-20{font-size:11.82px;}.cls-20,.cls-21,.cls-24,.cls-26{font-family:Helvetica, Helvetica;}.cls-21,.cls-24,.cls-26{font-size:10.61px;}.cls-22{letter-spacing:-0.02em;}.cls-23{letter-spacing:-0.04em;}.cls-24{letter-spacing:-0.05em;}.cls-25{letter-spacing:0em;}.cls-26{letter-spacing:-0.04em;}.cls-27{letter-spacing:0em;}.cls-28{letter-spacing:-0.02em;}.cls-29{font-size:13px;font-family:Helvetica-Bold, Helvetica;font-weight:700;}.cls-30{letter-spacing:-0.02em;}.cls-31{letter-spacing:-0.07em;}.cls-32{letter-spacing:-0.05em;}.cls-33{letter-spacing:0em;}</style></defs><title>body_parts_update_05_15</title><g class="cls-1"><path class="cls-2" d="M595.24,72.88l1.5,0"/><path class="cls-3" d="M599.64,72.83c26.89-.31,53.37-.3,79.81,0"/><path class="cls-2" d="M680.91,72.86l1.5,0"/></g><g class="cls-1"><path class="cls-2" d="M319.26,102.93h1.5"/><path class="cls-4" d="M323.75,102.92c119.09-.21,238.68-.21,357.82,0"/><path class="cls-2" d="M683.07,102.93h1.5"/></g><g class="cls-1"><path class="cls-2" d="M287.33,118h1.5"/><path class="cls-5" d="M291.83,118c128.72.48,258.79.48,387.66,0"/><path class="cls-2" d="M681,118h1.5"/></g><g class="cls-1"><path class="cls-2" d="M280.2,133h1.5"/><path class="cls-6" d="M284.71,133q197.79-.11,394.75,0"/><path class="cls-2" d="M681,133h1.5"/></g><g class="cls-1"><path class="cls-2" d="M262.52,148H264"/><path class="cls-7" d="M267,148c137.72.63,274.43.62,412.07,0"/><path class="cls-2" d="M680.58,148h1.5"/></g><g class="cls-1"><path class="cls-2" d="M250.45,163H252"/><path class="cls-8" d="M255,163c141.9.07,282.55.07,424.5,0"/><path class="cls-2" d="M681,163h1.5"/></g><g class="cls-1"><path class="cls-2" d="M264.07,178.06h1.5"/><path class="cls-9" d="M268.56,178c136.23-.49,274.17-.49,410.51,0"/><path class="cls-2" d="M680.56,178.05h1.5"/></g><g class="cls-1"><path class="cls-2" d="M263.29,193.09h1.5"/><path class="cls-10" d="M267.78,193.09c137,.21,274.93.21,411.43,0"/><path class="cls-2" d="M680.71,193.09h1.5"/></g><g class="cls-1"><path class="cls-2" d="M250.45,209.06H252"/><path class="cls-11" d="M255,209.06H679.31"/><path class="cls-2" d="M680.8,209.06h1.5"/></g><g class="cls-1"><path class="cls-2" d="M250.45,223.14H252"/><path class="cls-11" d="M255,223.15c141.9.35,282.55.35,424.35,0"/><path class="cls-2" d="M680.8,223.14h1.5"/></g><g class="cls-1"><path class="cls-2" d="M250.45,238.16H252"/><path class="cls-12" d="M254.95,238.16c141.9-.21,282.55-.21,424.12,0"/><path class="cls-2" d="M680.57,238.16h1.5"/></g><g class="cls-1"><path class="cls-2" d="M250.45,253.19H252"/><path class="cls-13" d="M254.95,253.21c140.65.49,282.54.49,423.75,0"/><path class="cls-2" d="M680.19,253.2h1.5"/></g><g class="cls-1"><path class="cls-2" d="M250.45,268.22H252"/><path class="cls-13" d="M254.95,268.21c140.65-.07,282.54-.07,423.75,0"/><path class="cls-2" d="M680.19,268.22h1.5"/></g><g class="cls-1"><path class="cls-2" d="M250.45,283.24H252"/><path class="cls-14" d="M254.94,283.26c140.65.63,282.54.63,423.33,0"/><path class="cls-2" d="M679.77,283.25h1.5"/></g><g class="cls-1"><path class="cls-2" d="M250.45,298.27H252"/><path class="cls-15" d="M254.93,298.27q210.93.1,422.13,0"/><path class="cls-2" d="M678.56,298.27h1.5"/></g><g class="cls-1"><path class="cls-2" d="M250.45,313.29H252"/><path class="cls-16" d="M254.93,313.28q210.93-.74,421.94,0"/><path class="cls-2" d="M678.37,313.28h1.5"/></g><g class="cls-1"><path class="cls-2" d="M250.45,328.32h1.5"/><path class="cls-17" d="M254.94,328.33c140.64.21,282.53.21,422.94,0"/><path class="cls-2" d="M679.38,328.32h1.5"/></g><g class="cls-1"><path class="cls-2" d="M250.45,343.35h1.5"/><path class="cls-17" d="M254.94,343.33c140.64-.35,282.53-.35,422.94,0"/><path class="cls-2" d="M679.38,343.34h1.5"/></g><g class="cls-1"><path class="cls-2" d="M298.34,87.9h1.5"/><path class="cls-18" d="M302.85,87.92c125.53.34,250.43.34,376.56,0"/><path class="cls-2" d="M680.91,87.91h1.5"/></g><rect class="cls-19" x="250.45" y="69.12" width="418.65" height="7.51"/><rect class="cls-19" x="250.45" y="84.15" width="158.38" height="7.51"/><rect class="cls-19" x="250.45" y="99.17" width="137.61" height="7.51"/><rect class="cls-19" x="250.45" y="114.2" width="100.04" height="7.51"/><rect class="cls-19" x="250.45" y="129.23" width="95.79" height="7.51"/><rect class="cls-19" x="250.45" y="144.25" width="73.76" height="7.51"/><rect class="cls-19" x="250.45" y="159.28" width="66.92" height="7.51"/><rect class="cls-19" x="250.45" y="174.3" width="58.73" height="7.51"/><rect class="cls-19" x="250.45" y="189.33" width="56.41" height="7.51"/><rect class="cls-19" x="250.45" y="204.36" width="53.32" height="7.51"/><rect class="cls-19" x="250.45" y="219.38" width="52.37" height="7.51"/><rect class="cls-19" x="250.45" y="234.41" width="43.78" height="7.51"/><rect class="cls-19" x="250.45" y="249.43" width="32.82" height="7.51"/><rect class="cls-19" x="250.45" y="264.46" width="29.75" height="7.51"/><rect class="cls-19" x="250.45" y="279.49" width="27.24" height="7.51"/><rect class="cls-19" x="250.45" y="294.51" width="24.13" height="7.51"/><rect class="cls-19" x="250.45" y="309.54" width="11.44" height="7.51"/><rect class="cls-19" x="250.45" y="324.56" width="10.16" height="7.51"/><rect class="cls-19" x="250.45" y="339.59" width="9.52" height="7.51"/><line class="cls-2" x1="247.17" y1="357.42" x2="692.53" y2="357.42"/><text class="cls-20" transform="translate(247.17 372.49)">0</text><text class="cls-20" transform="translate(333.91 372.49)">5,000</text><text class="cls-20" transform="translate(427.22 372.49)">10,000</text><text class="cls-20" transform="translate(523.81 372.5)">15,000</text><text class="cls-20" transform="translate(620.41 372.49)">20,000</text><text class="cls-21" transform="translate(172.39 75.82)"><tspan class="cls-22">W</tspan><tspan x="9.83" y="0">rist, Fingers</tspan></text><text class="cls-21" transform="translate(216.41 90.02)">Foot</text><text class="cls-21" transform="translate(133.23 105.93)">Joint of Foot and<tspan class="cls-22" x="79.04" y="0"> </tspan><tspan class="cls-23" x="81.8" y="0">T</tspan><tspan x="87.89" y="0">ibia</tspan></text><text class="cls-21" transform="translate(187.5 121.23)">Knee Joint</text><text class="cls-21" transform="translate(105.53 136.04)">The Head (except the Eyes)</text><text class="cls-24" transform="translate(155.66 151.34)">V<tspan class="cls-25" x="6.5" y="0">ertebral Column</tspan></text><text class="cls-26" transform="translate(215.03 165.04)">T<tspan class="cls-27" x="6.09" y="0">ibia</tspan></text><text class="cls-21" transform="translate(63.45 179.85)">Thorax and Mixed <tspan class="cls-22" x="87.87" y="0">W</tspan><tspan x="97.7" y="0">ounds of</tspan><tspan class="cls-28" x="138.4" y="0"> </tspan><tspan x="141.16" y="0">Thorax</tspan></text><text class="cls-21" transform="translate(195.17 195.15)">Shoulder</text><text class="cls-21" transform="translate(109.88 212.14)"><tspan xml:space="preserve">Joint of Forearm and  </tspan><tspan class="cls-22" x="103.79" y="0">W</tspan><tspan x="113.62" y="0">rist</tspan></text><text class="cls-21" transform="translate(182.79 226.36)">Entire Body</text><text class="cls-21" transform="translate(218.19 240.06)">Arm</text><text class="cls-21" transform="translate(208.74 255.36)">Elbow</text><text class="cls-21" transform="translate(214.05 270.17)">Eyes</text><text class="cls-21" transform="translate(197.55 285.47)">Forearm</text><text class="cls-21" transform="translate(211.1 300.28)">Thigh</text><text class="cls-21" transform="translate(196.36 315.09)">Hip Joint</text><text class="cls-21" transform="translate(166.27 330.39)">Bones of Basin</text><text class="cls-21" transform="translate(90.21 345.19)">Gut and Genito-Urinary Organs</text><text class="cls-29" transform="translate(145.15 34)">ACCIDENTS B<tspan class="cls-30" x="88.84" y="0">Y</tspan><tspan x="97.28" y="0" xml:space="preserve"> THE </tspan><tspan class="cls-31" x="130.5" y="0">P</tspan><tspan x="138.21" y="0">ART OF THE BOD</tspan><tspan class="cls-30" x="248.71" y="0">Y</tspan><tspan x="257.15" y="0" xml:space="preserve"> TH</tspan><tspan class="cls-31" x="278.09" y="0">A</tspan><tspan x="286.52" y="0">T </tspan><tspan class="cls-32" x="298.07" y="0">W</tspan><tspan class="cls-33" x="309.63" y="0">AS INJURED: 2005 - 2015</tspan></text></svg>