<svg id="Layer_1" data-name="Layer 1" xmlns="http://www.w3.org/2000/svg" viewBox="0 0 757 402"><defs><style>.cls-1{opacity:0.3;}.cls-2,.cls-3,.cls-4,.cls-5{fill:none;stroke:#000;stroke-miterlimit:10;stroke-width:0.5px;}.cls-3{stroke-dasharray:3.01 3.01;}.cls-4{stroke-dasharray:2.99 2.99;}.cls-5{stroke-dasharray:3 3;}.cls-17,.cls-6{fill:#9899cb;}.cls-18,.cls-7{fill:#8e7a7b;}.cls-8{font-size:9px;}.cls-8,.cls-9{font-family:Helvetica, Helvetica;}.cls-9{font-size:8px;}.cls-10{letter-spacing:-0.05em;}.cls-11{letter-spacing:-0.02em;}.cls-12{letter-spacing:-0.11em;}.cls-13{letter-spacing:-0.04em;}.cls-14{letter-spacing:-0.07em;}.cls-15{font-size:13px;font-family:Helvetica-Bold, Helvetica;font-weight:700;}.cls-16{letter-spacing:-0.07em;}.cls-17,.cls-18{letter-spacing:0em;}</style></defs><title>branch_total_final_14_15</title><g class="cls-1"><line class="cls-2" x1="204.92" y1="101.19" x2="206.42" y2="101.19"/><line class="cls-3" x1="209.43" y1="101.19" x2="749.85" y2="101.19"/><line class="cls-2" x1="751.36" y1="101.19" x2="752.86" y2="101.19"/></g><g class="cls-1"><line class="cls-2" x1="195.92" y1="88.25" x2="197.42" y2="88.25"/><line class="cls-4" x1="200.42" y1="88.26" x2="749.86" y2="89.86"/><line class="cls-2" x1="751.36" y1="89.86" x2="752.86" y2="89.87"/></g><g class="cls-1"><line class="cls-2" x1="204.92" y1="114.13" x2="206.42" y2="114.13"/><line class="cls-3" x1="209.43" y1="114.13" x2="749.85" y2="114.13"/><line class="cls-2" x1="751.36" y1="114.13" x2="752.86" y2="114.13"/></g><g class="cls-1"><line class="cls-2" x1="204.92" y1="127.08" x2="206.42" y2="127.08"/><line class="cls-3" x1="209.43" y1="127.08" x2="749.85" y2="127.08"/><line class="cls-2" x1="751.36" y1="127.08" x2="752.86" y2="127.08"/></g><g class="cls-1"><line class="cls-2" x1="204.92" y1="140.02" x2="206.42" y2="140.02"/><line class="cls-3" x1="209.43" y1="140.02" x2="749.85" y2="140.02"/><line class="cls-2" x1="751.36" y1="140.02" x2="752.86" y2="140.02"/></g><g class="cls-1"><line class="cls-2" x1="204.92" y1="152.96" x2="206.42" y2="152.96"/><line class="cls-3" x1="209.43" y1="152.96" x2="749.85" y2="152.96"/><line class="cls-2" x1="751.36" y1="152.96" x2="752.86" y2="152.96"/></g><g class="cls-1"><line class="cls-2" x1="204.92" y1="165.91" x2="206.42" y2="165.91"/><line class="cls-3" x1="209.43" y1="165.91" x2="749.85" y2="165.91"/><line class="cls-2" x1="751.36" y1="165.91" x2="752.86" y2="165.91"/></g><g class="cls-1"><line class="cls-2" x1="204.92" y1="178.85" x2="206.42" y2="178.85"/><line class="cls-3" x1="209.43" y1="178.85" x2="749.85" y2="178.85"/><line class="cls-2" x1="751.36" y1="178.85" x2="752.86" y2="178.85"/></g><g class="cls-1"><line class="cls-2" x1="200.73" y1="191.79" x2="202.23" y2="191.79"/><line class="cls-5" x1="205.23" y1="191.79" x2="749.86" y2="191.79"/><line class="cls-2" x1="751.36" y1="191.79" x2="752.86" y2="191.79"/></g><g class="cls-1"><line class="cls-2" x1="200.73" y1="204.73" x2="202.23" y2="204.73"/><line class="cls-5" x1="205.23" y1="204.73" x2="749.86" y2="204.73"/><line class="cls-2" x1="751.36" y1="204.73" x2="752.86" y2="204.73"/></g><g class="cls-1"><line class="cls-2" x1="200.73" y1="217.68" x2="202.23" y2="217.68"/><line class="cls-5" x1="205.23" y1="217.68" x2="749.86" y2="217.68"/><line class="cls-2" x1="751.36" y1="217.68" x2="752.86" y2="217.68"/></g><g class="cls-1"><line class="cls-2" x1="200.73" y1="230.62" x2="202.23" y2="230.62"/><line class="cls-5" x1="205.23" y1="230.62" x2="749.86" y2="230.62"/><line class="cls-2" x1="751.36" y1="230.62" x2="752.86" y2="230.62"/></g><g class="cls-1"><line class="cls-2" x1="200.73" y1="243.56" x2="202.23" y2="243.56"/><line class="cls-5" x1="205.23" y1="243.56" x2="749.86" y2="243.56"/><line class="cls-2" x1="751.36" y1="243.56" x2="752.86" y2="243.56"/></g><g class="cls-1"><line class="cls-2" x1="200.73" y1="269.45" x2="202.23" y2="269.45"/><line class="cls-5" x1="205.23" y1="269.45" x2="749.86" y2="269.45"/><line class="cls-2" x1="751.36" y1="269.45" x2="752.86" y2="269.45"/></g><g class="cls-1"><line class="cls-2" x1="200.4" y1="282.39" x2="201.9" y2="282.39"/><line class="cls-5" x1="204.9" y1="282.39" x2="749.52" y2="282.39"/><line class="cls-2" x1="751.02" y1="282.39" x2="752.52" y2="282.39"/></g><g class="cls-1"><line class="cls-2" x1="200.73" y1="295.33" x2="202.23" y2="295.33"/><line class="cls-5" x1="205.23" y1="295.33" x2="749.86" y2="295.33"/><line class="cls-2" x1="751.36" y1="295.33" x2="752.86" y2="295.33"/></g><g class="cls-1"><line class="cls-2" x1="200.73" y1="308.28" x2="202.23" y2="308.28"/><line class="cls-5" x1="205.23" y1="308.28" x2="749.86" y2="308.28"/><line class="cls-2" x1="751.36" y1="308.28" x2="752.86" y2="308.28"/></g><g class="cls-1"><line class="cls-2" x1="200.4" y1="321.22" x2="201.9" y2="321.22"/><line class="cls-5" x1="204.9" y1="321.22" x2="749.52" y2="321.22"/><line class="cls-2" x1="751.02" y1="321.22" x2="752.52" y2="321.22"/></g><g class="cls-1"><line class="cls-2" x1="200.4" y1="334.16" x2="201.9" y2="334.16"/><line class="cls-5" x1="204.9" y1="334.16" x2="749.52" y2="334.16"/><line class="cls-2" x1="751.02" y1="334.16" x2="752.52" y2="334.16"/></g><g class="cls-1"><line class="cls-2" x1="200.4" y1="256.51" x2="201.9" y2="256.51"/><line class="cls-5" x1="204.9" y1="256.51" x2="749.52" y2="256.51"/><line class="cls-2" x1="751.02" y1="256.51" x2="752.52" y2="256.51"/></g><rect class="cls-6" x="194.86" y="85.01" width="1.22" height="3.32"/><rect class="cls-6" x="194.86" y="97.96" width="13.5" height="3.32"/><rect class="cls-6" x="194.86" y="110.9" width="31.66" height="3.32"/><rect class="cls-6" x="194.86" y="123.84" width="58.37" height="3.32"/><rect class="cls-6" x="194.86" y="136.78" width="21.52" height="3.32"/><rect class="cls-6" x="194.86" y="149.73" width="24.19" height="3.32"/><rect class="cls-6" x="194.86" y="162.67" width="80.8" height="3.32"/><rect class="cls-6" x="194.86" y="175.61" width="38.07" height="3.32"/><rect class="cls-6" x="194.86" y="188.56" width="5.49" height="3.32"/><rect class="cls-6" x="194.86" y="201.5" width="14.04" height="3.32"/><rect class="cls-6" x="194.86" y="214.44" width="37" height="3.32"/><rect class="cls-6" x="194.86" y="227.38" width="257.51" height="4.1"/><rect class="cls-6" x="194.86" y="240.33" width="214.71" height="3.32"/><rect class="cls-6" x="194.86" y="253.27" width="531.43" height="3.32"/><rect class="cls-6" x="194.86" y="266.21" width="241.95" height="3.32"/><rect class="cls-6" x="194.86" y="279.16" width="87.59" height="3.32"/><rect class="cls-6" x="194.86" y="292.1" width="37.92" height="3.32"/><rect class="cls-6" x="194.86" y="305.04" width="471.61" height="3.32"/><rect class="cls-6" x="194.86" y="317.98" width="42.19" height="3.32"/><rect class="cls-6" x="194.86" y="330.93" width="50.21" height="3.32"/><rect class="cls-7" x="194.86" y="88.33" width="0.69" height="3.24"/><rect class="cls-7" x="194.86" y="101.27" width="12.97" height="3.24"/><rect class="cls-7" x="194.86" y="114.22" width="32.73" height="3.24"/><rect class="cls-7" x="194.86" y="127.16" width="72.25" height="3.24"/><rect class="cls-7" x="194.86" y="140.1" width="21.52" height="3.24"/><rect class="cls-7" x="194.86" y="153.04" width="53.56" height="3.24"/><rect class="cls-7" x="194.86" y="165.99" width="85.61" height="3.24"/><rect class="cls-7" x="194.86" y="178.93" width="42.35" height="3.24"/><rect class="cls-7" x="194.86" y="191.87" width="7.63" height="3.24"/><rect class="cls-7" x="194.86" y="204.82" width="14.57" height="3.24"/><rect class="cls-7" x="194.86" y="217.76" width="55.16" height="3.24"/><rect class="cls-7" x="194.86" y="230.51" width="293.75" height="3.24"/><rect class="cls-7" x="194.86" y="243.64" width="218.45" height="3.24"/><rect class="cls-7" x="194.86" y="256.59" width="517.01" height="3.24"/><rect class="cls-7" x="194.86" y="269.53" width="220.05" height="3.24"/><rect class="cls-7" x="194.86" y="282.47" width="91.87" height="3.24"/><rect class="cls-7" x="194.86" y="295.42" width="51.96" height="3.24"/><rect class="cls-7" x="194.86" y="308.36" width="486.56" height="3.24"/><rect class="cls-7" x="194.86" y="321.3" width="46.47" height="3.24"/><rect class="cls-7" x="194.86" y="334.24" width="51.27" height="3.24"/><line class="cls-2" x1="194.52" y1="341.96" x2="752.52" y2="341.96"/><text class="cls-8" transform="translate(192.01 356.81)">0</text><text class="cls-8" transform="translate(294.17 356.81)">200</text><text class="cls-8" transform="translate(400.99 356.81)">400</text><text class="cls-8" transform="translate(507.81 356.81)">600</text><text class="cls-8" transform="translate(614.63 356.81)">800</text><text class="cls-8" transform="translate(717.69 356.81)">1,000</text><text class="cls-9" transform="translate(52.37 90.57)">Activities of Households for Own Use</text><text class="cls-9" transform="translate(101.73 102.7)">Other Service<tspan class="cls-10" x="48.91" y="0"> </tspan><tspan x="50.69" y="0">Activities</tspan></text><text class="cls-9" transform="translate(59.03 115.65)">Arts, Entertainment and Recreation</text><text class="cls-9" transform="translate(39.17 128.59)">Human Health and Social <tspan class="cls-11" x="92.94" y="0">W</tspan><tspan x="100.35" y="0">ork</tspan><tspan class="cls-10" x="111.46" y="0"> </tspan><tspan x="113.25" y="0">Activities</tspan></text><text class="cls-9" transform="translate(148.4 141.53)">Education</text><text class="cls-9" transform="translate(62.13 154.47)">Public<tspan class="cls-10" x="21.79" y="0"> </tspan><tspan x="23.57" y="0">Administration and Defence</tspan></text><text class="cls-9" transform="translate(25.68 167.42)">Administrative and Support Service<tspan class="cls-10" x="124.95" y="0"> </tspan><tspan x="126.73" y="0">Activities</tspan></text><text class="cls-9" transform="translate(19.15 180.36)">Professional, Scientific and<tspan class="cls-11" x="96.05" y="0"> </tspan><tspan class="cls-12" x="98.13" y="0">T</tspan><tspan x="102.13" y="0">echnical</tspan><tspan class="cls-10" x="131.48" y="0"> </tspan><tspan x="133.27" y="0">Activities</tspan></text><text class="cls-9" transform="translate(109.28 193.3)">Real Estate<tspan class="cls-10" x="41.36" y="0"> </tspan><tspan x="43.14" y="0">Activities</tspan></text><text class="cls-9" transform="translate(65.69 206.25)">Financial and Insurance<tspan class="cls-10" x="84.94" y="0"> </tspan><tspan x="86.73" y="0">Activities</tspan></text><text class="cls-9" transform="translate(70.59 219.19)">Information and Communication</text><text class="cls-9" transform="translate(28.35 232.13)">Accommodation and Food Service<tspan class="cls-10" x="122.29" y="0"> </tspan><tspan x="124.07" y="0">Activities</tspan></text><text class="cls-9" transform="translate(86.88 245.07)"><tspan class="cls-13">T</tspan><tspan x="4.59" y="0">ransportation and Storage</tspan></text><text class="cls-9" transform="translate(36.36 258.02)">Repair of Motor <tspan class="cls-10" x="57.36" y="0">V</tspan><tspan x="62.25" y="0">ehicles and Motorcycles</tspan></text><text class="cls-9" transform="translate(139.07 270.96)">Construction</text><text class="cls-9" transform="translate(136.25 283.9)"><tspan class="cls-13">W</tspan><tspan x="7.26" y="0">ater Supply</tspan></text><text class="cls-9" transform="translate(3.14 296.85)">Electricit<tspan class="cls-14" x="30.23" y="0">y</tspan><tspan x="33.64" y="0">, Gas, Steam and</tspan><tspan class="cls-10" x="95.89" y="0"> </tspan><tspan x="97.68" y="0">Air Conditioning Supply</tspan></text><text class="cls-9" transform="translate(133.29 309.79)">Manufacturing</text><text class="cls-9" transform="translate(107.5 322.73)">Mining and Quarrying</text><text class="cls-9" transform="translate(68.38 335.67)">Agriculture, Forestry and Fishing</text><text class="cls-15" transform="translate(181.64 51.04)">ACCIDENTS B<tspan class="cls-11" x="88.84" y="0">Y</tspan><tspan x="97.28" y="0" xml:space="preserve"> BRANCH OF ECONOMIC</tspan><tspan class="cls-13" x="254" y="0"> </tspan><tspan x="257.13" y="0">ACTIVIT</tspan><tspan class="cls-16" x="307.68" y="0">Y</tspan><tspan x="315.4" y="0">: </tspan><tspan class="cls-17" x="323.34" y="0">2014</tspan><tspan x="352.26" y="0" xml:space="preserve"> - </tspan><tspan class="cls-18" x="363.81" y="0">2015</tspan></text></svg>