<svg id="Layer_1" data-name="Layer 1" xmlns="http://www.w3.org/2000/svg" viewBox="0 0 757 402"><defs><style>.cls-1,.cls-3,.cls-5{fill:none;}.cls-1,.cls-2{stroke:#e9e9ea;}.cls-1,.cls-2,.cls-3,.cls-5{stroke-miterlimit:10;}.cls-2{fill:#e9e9ea;}.cls-3,.cls-5{stroke:#000;}.cls-3{stroke-width:0.5px;}.cls-4{font-size:17.76px;}.cls-10,.cls-4,.cls-8{font-family:Helvetica, Helvetica;}.cls-5{stroke-width:0.75px;stroke-dasharray:2 2;opacity:0.3;}.cls-6{fill:#9899cb;}.cls-7{fill:#8e7a7b;}.cls-8{font-size:8.88px;}.cls-9{letter-spacing:-0.07em;}.cls-10{font-size:13.32px;}.cls-11{font-size:13px;font-family:Helvetica-Bold, Helvetica;font-weight:700;}.cls-12{letter-spacing:-0.07em;}.cls-13{letter-spacing:-0.04em;}</style></defs><title>gender_total_final_05_15</title><line class="cls-1" x1="599.35" y1="193.34" x2="599.35" y2="169.73"/><line class="cls-1" x1="592.3" y1="289.56" x2="592.3" y2="265.96"/><line class="cls-1" x1="165.83" y1="193.34" x2="165.83" y2="169.73"/><line class="cls-1" x1="158.77" y1="289.56" x2="158.77" y2="265.96"/><rect class="cls-2" x="97.49" y="150.24" width="136.94" height="19.49"/><rect class="cls-2" x="531.02" y="150.24" width="136.66" height="19.49"/><line class="cls-3" x1="281.68" y1="156.51" x2="281.68" y2="333.09"/><text class="cls-4" transform="translate(276.74 131.43)">0</text><line class="cls-5" x1="281.93" y1="200.39" x2="592.3" y2="200.39"/><line class="cls-5" x1="281.93" y1="200.39" x2="172.88" y2="200.39"/><line class="cls-5" x1="281.43" y1="258.9" x2="166.09" y2="258.9"/><circle class="cls-6" cx="165.83" cy="200.39" r="7.05"/><circle class="cls-6" cx="158.77" cy="258.9" r="7.05"/><circle class="cls-7" cx="599.35" cy="200.39" r="7.05"/><circle class="cls-7" cx="592.3" cy="258.9" r="7.05"/><text class="cls-8" transform="translate(535.2 161.66)">3,127 male workers were injured</text><rect class="cls-2" x="523.97" y="289.56" width="136.66" height="19.49"/><text class="cls-8" transform="translate(528.15 300.98)">3,237 male workers were injured</text><text class="cls-8" transform="translate(98.44 161.66)">1,<tspan class="cls-9" x="7.4" y="0">1</tspan><tspan x="11.69" y="0">14 female workers were injured</tspan></text><rect class="cls-2" x="88.32" y="289.56" width="140.91" height="19.49"/><text class="cls-8" transform="translate(91.25 300.98)">1,222 female workers were injured</text><text class="cls-8" transform="translate(290.7 213.79)">2014</text><text class="cls-8" transform="translate(290.7 272.36)">2015</text><line class="cls-5" x1="281.68" y1="258.9" x2="585.76" y2="258.9"/><text class="cls-10" transform="translate(576.81 232.16)">MEN</text><text class="cls-10" transform="translate(151.72 232.16)">WOMEN</text><text class="cls-11" transform="translate(162.02 79.09)">COM<tspan class="cls-12" x="30.33" y="0">P</tspan><tspan x="38.04" y="0">ARING THE BALANCE OF GENDERED</tspan><tspan class="cls-13" x="275.66" y="0"> </tspan><tspan x="278.8" y="0">ACCIDENTS: 2014 - 2015</tspan></text></svg>