<svg id="Layer_1" data-name="Layer 1" xmlns="http://www.w3.org/2000/svg" viewBox="0 0 757 402"><defs><style>.cls-1{opacity:0.3;}.cls-10,.cls-2,.cls-3,.cls-4,.cls-5,.cls-6,.cls-7,.cls-8,.cls-9{fill:none;stroke:#000;stroke-miterlimit:10;stroke-width:0.5px;}.cls-3{stroke-dasharray:3.02 3.02;}.cls-4{stroke-dasharray:3 3;}.cls-5{stroke-dasharray:2.99 2.99;}.cls-6{stroke-dasharray:3.02 3.02;}.cls-7{stroke-dasharray:2.99 2.99;}.cls-8{stroke-dasharray:2.99 2.99;}.cls-9{stroke-dasharray:3 3;}.cls-10{stroke-dasharray:2.99 2.99;}.cls-11{font-size:11.93px;}.cls-11,.cls-13{font-family:Helvetica, Helvetica;}.cls-12{fill:#9899cb;}.cls-13{font-size:10.61px;}.cls-14{letter-spacing:-0.02em;}.cls-15{letter-spacing:-0.02em;}.cls-16{letter-spacing:-0.05em;}.cls-17{letter-spacing:-0.02em;}.cls-18{letter-spacing:0em;}.cls-19{font-size:13px;font-family:Helvetica-Bold, Helvetica;font-weight:700;}.cls-20{letter-spacing:-0.02em;}.cls-21{letter-spacing:-0.04em;}.cls-22{letter-spacing:-0.07em;}</style></defs><title>injury_types_total_final_05_15</title><g class="cls-1"><path class="cls-2" d="M317.85,69.61h1.5"/><path class="cls-3" d="M322.37,69.61c126.43.18,252.22.18,379.26,0"/><path class="cls-2" d="M703.14,69.61h1.5"/></g><g class="cls-1"><path class="cls-2" d="M315.12,88.82h1.5"/><path class="cls-4" d="M319.62,88.83c127.35.18,254.06.18,382,0"/><path class="cls-2" d="M703.14,88.83h1.5"/></g><g class="cls-1"><path class="cls-2" d="M322.39,108h1.5"/><path class="cls-5" d="M326.87,108c124.94.18,249.24.18,374.77,0"/><path class="cls-2" d="M703.14,108h1.5"/></g><g class="cls-1"><path class="cls-2" d="M322.39,127.26h1.5"/><path class="cls-5" d="M326.87,127.27c124.94.18,249.24.18,374.77,0"/><path class="cls-2" d="M703.14,127.26h1.5"/></g><g class="cls-1"><path class="cls-2" d="M294,146.48h1.5"/><path class="cls-6" d="M298.54,146.49c134.38.18,268.07.18,403.09,0"/><path class="cls-2" d="M703.14,146.48h1.5"/></g><g class="cls-1"><path class="cls-2" d="M294,164.66h1.5"/><path class="cls-6" d="M298.54,164.67c134.38.18,268.07.18,403.09,0"/><path class="cls-2" d="M703.14,164.66h1.5"/></g><g class="cls-1"><path class="cls-2" d="M292.19,204.14h1.5"/><path class="cls-7" d="M296.68,204.14c135,.18,269.31.18,405,0"/><path class="cls-2" d="M703.14,204.14h1.5"/></g><g class="cls-1"><path class="cls-2" d="M280.37,223.36h1.5"/><path class="cls-8" d="M284.86,223.36c138.94.18,277.18.18,416.78,0"/><path class="cls-2" d="M703.14,223.36h1.5"/></g><g class="cls-1"><path class="cls-2" d="M260.76,242.57h1.5"/><path class="cls-9" d="M265.26,242.58c145.48.18,290.21.18,436.38,0"/><path class="cls-2" d="M703.14,242.58h1.5"/></g><g class="cls-1"><path class="cls-2" d="M260.76,261.79h1.5"/><path class="cls-9" d="M265.26,261.8c145.48.18,290.21.18,436.38,0"/><path class="cls-2" d="M703.14,261.8h1.5"/></g><g class="cls-1"><path class="cls-2" d="M260.76,281h1.5"/><path class="cls-10" d="M265.25,281c145.19.18,289.64.18,435.52,0"/><path class="cls-2" d="M702.27,281h1.5"/></g><g class="cls-1"><path class="cls-2" d="M260.76,300.49h1.5"/><path class="cls-10" d="M265.25,300.49c145.19.18,289.64.18,435.52,0"/><path class="cls-2" d="M702.27,300.49h1.5"/></g><g class="cls-1"><path class="cls-2" d="M260.76,320h1.5"/><path class="cls-10" d="M265.25,320c145.19.18,289.64.18,435.52,0"/><path class="cls-2" d="M702.27,320h1.5"/></g><g class="cls-1"><path class="cls-2" d="M260.76,338.6h1.5"/><path class="cls-10" d="M265.25,338.6c145.19.18,289.64.18,435.52,0"/><path class="cls-2" d="M702.27,338.6h1.5"/></g><g class="cls-1"><path class="cls-2" d="M292.19,184.92h1.5"/><path class="cls-7" d="M296.68,184.92c135,.18,269.31.18,405,0"/><path class="cls-2" d="M703.14,184.92h1.5"/></g><line class="cls-2" x1="261.23" y1="349.53" x2="710.95" y2="349.53"/><text class="cls-11" transform="translate(331.59 373.7)">5,000</text><text class="cls-11" transform="translate(416.3 373.7)">10,000</text><text class="cls-11" transform="translate(505.1 373.7)">15,000</text><text class="cls-11" transform="translate(593.89 373.7)">20,000</text><text class="cls-11" transform="translate(682.59 373.7)">25,000</text><text class="cls-11" transform="translate(257.15 373.7)">0</text><rect class="cls-12" x="260.76" y="64.87" width="422.74" height="9.61"/><rect class="cls-12" x="260.76" y="84.09" width="328.62" height="9.61"/><rect class="cls-12" x="260.76" y="103.31" width="303.75" height="9.61"/><rect class="cls-12" x="260.76" y="122.53" width="114.17" height="9.61"/><rect class="cls-12" x="260.76" y="141.75" width="39.23" height="9.61"/><rect class="cls-12" x="260.76" y="160.97" width="36.76" height="9.61"/><rect class="cls-12" x="260.76" y="180.18" width="36.5" height="9.61"/><rect class="cls-12" x="260.76" y="199.4" width="31.43" height="9.61"/><rect class="cls-12" x="260.76" y="218.62" width="16.96" height="9.61"/><rect class="cls-12" x="260.76" y="237.84" width="6.78" height="9.61"/><rect class="cls-12" x="260.76" y="257.06" width="3.55" height="9.61"/><rect class="cls-12" x="260.76" y="276.28" width="1.74" height="9.61"/><text class="cls-13" transform="translate(205.35 71.68)">Fracture</text><text class="cls-13" transform="translate(162.48 90.9)">Rupturing <tspan class="cls-14" x="48.94" y="0">W</tspan><tspan x="58.76" y="0">ound</tspan></text><text class="cls-13" transform="translate(207.1 110.12)">Rupture</text><text class="cls-13" transform="translate(217.13 129.33)">Strain</text><text class="cls-13" transform="translate(217.13 148.55)">Burns</text><text class="cls-13" transform="translate(191.18 166.74)">Amputation</text><text class="cls-13" transform="translate(148.76 186.99)">Skull-Cerebral Injury</text><text class="cls-13" transform="translate(192.96 206.21)">Dislocation</text><text class="cls-13" transform="translate(150.51 225.43)">Compound Fracture</text><text class="cls-13" transform="translate(190.6 244.65)">Other Case</text><text class="cls-13" transform="translate(177.64 263.87)">Electric Shock</text><text class="cls-13" transform="translate(36.92 283.09)">Su<tspan class="cls-15" x="12.97" y="0">f</tspan><tspan x="15.73" y="0">focation, Poisoning from Gases, Drowing</tspan></text><text class="cls-13" transform="translate(123.39 302.56)">Poisoning (except Gases)</text><text class="cls-13" transform="translate(133.59 322.04)">Not<tspan class="cls-16" x="16.5" y="0"> </tspan><tspan x="18.87" y="0">Ascertained </tspan><tspan class="cls-17" x="77.83" y="0">W</tspan><tspan x="87.65" y="0">ound</tspan></text><text class="cls-13" transform="translate(153.05 340.67)">E<tspan class="cls-14" x="7.07" y="0">f</tspan><tspan class="cls-18" x="9.83" y="0">fects of Radiation</tspan></text><text class="cls-19" transform="translate(236.15 32.74)">ACCIDENTS B<tspan class="cls-20" x="88.84" y="0">Y</tspan><tspan x="97.28" y="0" xml:space="preserve"> TYPE OF INJU</tspan><tspan class="cls-21" x="189.74" y="0">R</tspan><tspan class="cls-22" x="198.65" y="0">Y</tspan><tspan x="206.36" y="0">: 2005 - 2015</tspan></text></svg>