<svg id="Layer_1" data-name="Layer 1" xmlns="http://www.w3.org/2000/svg" viewBox="0 0 757 402"><defs><style>.cls-1,.cls-19,.cls-4{fill:none;}.cls-1{stroke:#666161;stroke-dasharray:2 2;opacity:0.3;}.cls-1,.cls-4{stroke-miterlimit:10;stroke-width:0.5px;}.cls-16,.cls-2{fill:#9899cb;}.cls-18,.cls-3{fill:#8e7a7b;}.cls-4{stroke:#000;}.cls-5{font-size:11.71px;}.cls-5,.cls-6{font-family:Helvetica, Helvetica;}.cls-6{font-size:10.41px;}.cls-7{letter-spacing:-0.02em;}.cls-8{letter-spacing:-0.04em;}.cls-9{letter-spacing:0em;}.cls-10{letter-spacing:-0.02em;}.cls-11{letter-spacing:-0.11em;}.cls-12{letter-spacing:-0.05em;}.cls-13{font-size:13px;font-family:Helvetica-Bold, Helvetica;font-weight:700;}.cls-14{letter-spacing:-0.02em;}.cls-15{letter-spacing:-0.07em;}.cls-16,.cls-18{letter-spacing:0em;}.cls-17{letter-spacing:0em;}</style></defs><title>occupation_total_final_14_15</title><line class="cls-1" x1="678.26" y1="82.49" x2="699" y2="82.49"/><line class="cls-1" x1="599.36" y1="113.91" x2="699" y2="113.91"/><line class="cls-1" x1="486.4" y1="145.33" x2="699" y2="145.33"/><line class="cls-1" x1="289.28" y1="176.67" x2="699" y2="176.67"/><line class="cls-1" x1="352.09" y1="208.14" x2="699" y2="208.14"/><line class="cls-1" x1="272.77" y1="239.61" x2="699" y2="239.61"/><line class="cls-1" x1="314.5" y1="271.03" x2="699" y2="271.03"/><line class="cls-1" x1="306.47" y1="302.46" x2="699" y2="302.46"/><line class="cls-1" x1="263.54" y1="333.88" x2="697.3" y2="333.88"/><rect class="cls-2" x="263.54" y="74.63" width="333.28" height="7.86"/><rect class="cls-3" x="263.54" y="82.49" width="414.73" height="7.86"/><rect class="cls-2" x="263.54" y="106.05" width="344.53" height="7.86"/><rect class="cls-3" x="263.54" y="113.91" width="322.72" height="7.86"/><rect class="cls-2" x="263.54" y="137.48" width="222.87" height="7.86"/><rect class="cls-3" x="263.54" y="145.33" width="225.53" height="7.86"/><rect class="cls-2" x="263.54" y="200.3" width="293.41" height="7.86"/><rect class="cls-3" x="263.54" y="208.18" width="277.74" height="7.86"/><rect class="cls-2" x="263.54" y="231.74" width="130.86" height="7.86"/><rect class="cls-3" x="263.54" y="239.61" width="163.57" height="7.86"/><rect class="cls-2" x="263.54" y="263.17" width="50.44" height="7.86"/><rect class="cls-3" x="263.54" y="271.03" width="50.44" height="7.86"/><rect class="cls-2" x="263.54" y="294.6" width="42.94" height="7.86"/><rect class="cls-3" x="263.54" y="302.46" width="39.19" height="7.86"/><rect class="cls-2" x="263.54" y="326.02" width="1.22" height="7.86"/><rect class="cls-3" x="263.54" y="176.67" width="26.27" height="7.77"/><rect class="cls-2" x="263.54" y="168.86" width="25.22" height="7.86"/><rect class="cls-3" x="263.54" y="333.88" width="0.2" height="7.86"/><line class="cls-4" x1="263.54" y1="349.59" x2="699" y2="349.59"/><text class="cls-5" transform="translate(259.53 365.2)">0</text><text class="cls-5" transform="translate(321.93 365.2)">200</text><text class="cls-5" transform="translate(390.08 365.2)">400</text><text class="cls-5" transform="translate(458.24 365.2)">600</text><text class="cls-5" transform="translate(526.39 365.2)">800</text><text class="cls-5" transform="translate(591.29 365.2)">1,000</text><text class="cls-5" transform="translate(659.45 365.2)">1,200</text><text class="cls-6" transform="translate(139.32 84.45)">Elementary Occupations</text><text class="cls-6" transform="translate(117.33 115.88)">Plant and Machine Operators</text><text class="cls-6" transform="translate(94.97 147.3)">Craft and Related<tspan class="cls-7" x="81.56" y="0"> </tspan><tspan class="cls-8" x="84.26" y="0">T</tspan><tspan x="90.24" y="0">rades </tspan><tspan class="cls-7" x="119.16" y="0">W</tspan><tspan x="128.8" y="0">orkers</tspan></text><text class="cls-6" transform="translate(58 178.63)">Agricultural, Forestry and Fishery <tspan class="cls-7" x="156.13" y="0">W</tspan><tspan class="cls-9" x="165.77" y="0">orkers</tspan></text><text class="cls-6" transform="translate(127.37 210.1)">Service and Sales <tspan class="cls-10" x="86.76" y="0">W</tspan><tspan x="96.4" y="0">orkers</tspan></text><text class="cls-6" transform="translate(137.21 241.57)">Clerical Support <tspan class="cls-7" x="76.92" y="0">W</tspan><tspan x="86.56" y="0">orkers</tspan></text><text class="cls-6" transform="translate(65.27 273)"><tspan class="cls-11">T</tspan><tspan class="cls-9" x="5.2" y="0">echnicians and</tspan><tspan class="cls-12" x="74.62" y="0"> </tspan><tspan x="76.94" y="0">Associate Professionals</tspan></text><text class="cls-6" transform="translate(190.22 304.42)">Professionals</text><text class="cls-6" transform="translate(206.41 335.84)">Managers</text><text class="cls-13" transform="translate(197.18 46.58)">ACCIDENTS B<tspan class="cls-14" x="88.84" y="0">Y</tspan><tspan x="97.28" y="0" xml:space="preserve"> OCCU</tspan><tspan class="cls-15" x="139.17" y="0">PA</tspan><tspan x="155.31" y="0">TION OF THE VICTIM: </tspan><tspan class="cls-16" x="293.24" y="0">2014</tspan><tspan class="cls-17" x="322.16" y="0" xml:space="preserve"> - </tspan><tspan class="cls-18" x="333.72" y="0">2015</tspan></text><rect class="cls-19" width="757" height="402"/></svg>