<svg id="Layer_2" data-name="Layer 2" xmlns="http://www.w3.org/2000/svg" viewBox="0 0 1036.62 1062.97"><defs><style>.cls-1{fill:#e5e023;opacity:0.2;}.cls-2{fill:#fff;stroke-width:0.5px;}.cls-2,.cls-44,.cls-45{stroke:#000;stroke-miterlimit:10;}.cls-12,.cls-3{opacity:0.7;}.cls-3{font-size:20.85px;}.cls-12,.cls-24,.cls-26,.cls-28,.cls-3,.cls-30,.cls-31,.cls-46{font-family:Futura-CondensedMedium, Futura;}.cls-4{letter-spacing:0em;}.cls-5{letter-spacing:0em;}.cls-6{letter-spacing:0.03em;}.cls-7{letter-spacing:0em;}.cls-8{letter-spacing:0em;}.cls-9{letter-spacing:0.01em;}.cls-10{letter-spacing:0em;}.cls-11{letter-spacing:0em;}.cls-12{font-size:17.72px;}.cls-13{letter-spacing:0em;}.cls-14{letter-spacing:-0.03em;}.cls-15{letter-spacing:0.01em;}.cls-16{letter-spacing:0em;}.cls-17{letter-spacing:0em;}.cls-18{letter-spacing:0.02em;}.cls-19{letter-spacing:-0.01em;}.cls-20{letter-spacing:-0.01em;}.cls-21{letter-spacing:0em;}.cls-22{letter-spacing:-0.02em;}.cls-23{letter-spacing:0.01em;}.cls-24,.cls-26,.cls-28,.cls-30,.cls-31{font-size:20.96px;}.cls-25{letter-spacing:0.01em;}.cls-26{letter-spacing:-0.06em;}.cls-27{letter-spacing:0em;}.cls-28{letter-spacing:-0.06em;}.cls-29{letter-spacing:-0.06em;}.cls-30{letter-spacing:-0.06em;}.cls-31{letter-spacing:-0.06em;}.cls-32{letter-spacing:0em;}.cls-33{letter-spacing:0em;}.cls-34{letter-spacing:0em;}.cls-35{letter-spacing:0em;}.cls-36{letter-spacing:0em;}.cls-37{letter-spacing:0.01em;}.cls-38{letter-spacing:-0.02em;}.cls-39{letter-spacing:0em;}.cls-40{letter-spacing:-0.01em;}.cls-41{letter-spacing:0em;}.cls-42{letter-spacing:-0.03em;}.cls-43{opacity:0.3;}.cls-44,.cls-45{fill:none;}.cls-45{stroke-dasharray:2.99 2.99;}.cls-46{font-size:16.12px;}.cls-47{fill:#bdedb7;}.cls-48{fill:#daddd9;}.cls-49{letter-spacing:-0.06em;}.cls-50{letter-spacing:-0.06em;}.cls-51{letter-spacing:-0.05em;}.cls-52{letter-spacing:-0.06em;}.cls-53{letter-spacing:-0.01em;}.cls-54{letter-spacing:-0.07em;}</style></defs><title>medium_of_exchange</title><rect class="cls-1" x="111.72" y="933.85" width="813.17" height="76.76"/><line class="cls-2" x1="111.72" y1="249.01" x2="239.05" y2="249.01"/><line class="cls-2" x1="111.72" y1="172.95" x2="239.05" y2="172.95"/><line class="cls-2" x1="111.72" y1="325.26" x2="239.05" y2="325.26"/><line class="cls-2" x1="111.72" y1="401.51" x2="239.05" y2="401.51"/><line class="cls-2" x1="111.72" y1="477.23" x2="239.05" y2="477.23"/><line class="cls-2" x1="111.72" y1="553.36" x2="239.05" y2="553.36"/><line class="cls-2" x1="259.68" y1="172.95" x2="337.88" y2="172.95"/><line class="cls-2" x1="259.68" y1="249.01" x2="337.88" y2="249.01"/><line class="cls-2" x1="259.68" y1="325.26" x2="337.88" y2="325.26"/><line class="cls-2" x1="259.68" y1="401.51" x2="337.88" y2="401.51"/><line class="cls-2" x1="259.68" y1="477.23" x2="337.88" y2="477.23"/><line class="cls-2" x1="259.68" y1="553.36" x2="337.88" y2="553.36"/><line class="cls-2" x1="111.72" y1="933.85" x2="239.05" y2="933.85"/><line class="cls-2" x1="111.72" y1="857.72" x2="239.05" y2="857.72"/><line class="cls-2" x1="111.72" y1="782" x2="239.05" y2="782"/><line class="cls-2" x1="111.72" y1="706.28" x2="239.05" y2="706.28"/><line class="cls-2" x1="111.72" y1="629.5" x2="239.05" y2="629.5"/><line class="cls-2" x1="259.68" y1="933.85" x2="337.88" y2="933.85"/><line class="cls-2" x1="259.68" y1="857.72" x2="337.88" y2="857.72"/><line class="cls-2" x1="259.68" y1="782" x2="337.88" y2="782"/><line class="cls-2" x1="259.68" y1="706.28" x2="337.88" y2="706.28"/><line class="cls-2" x1="259.68" y1="630.56" x2="337.88" y2="630.56"/><text class="cls-3" transform="translate(244.48 105.17)">Co<tspan class="cls-4" x="15.98" y="0">m</tspan><tspan x="28.68" y="0">plemen</tspan><tspan class="cls-5" x="77.61" y="0">t</tspan><tspan x="82.26" y="0">a</tspan><tspan class="cls-6" x="90.49" y="0">r</tspan><tspan x="96.6" y="0">y </tspan><tspan x="25.58" y="25.02">Cu</tspan><tspan class="cls-7" x="42.01" y="25.02">r</tspan><tspan class="cls-8" x="47.62" y="25.02">r</tspan><tspan x="53.25" y="25.02">ency</tspan><tspan x="27.81" y="50.04">S</tspan><tspan class="cls-9" x="35.59" y="50.04">y</tspan><tspan class="cls-10" x="43.4" y="50.04">s</tspan><tspan class="cls-11" x="49.63" y="50.04">t</tspan><tspan x="54.24" y="50.04">ems</tspan></text><text class="cls-12" transform="translate(435.94 162.85) rotate(-45) scale(1.18 1)">Elect<tspan class="cls-13" x="25.49" y="0">r</tspan><tspan x="30.28" y="0">onic </tspan><tspan class="cls-14" x="56.52" y="0">T</tspan><tspan class="cls-15" x="61.83" y="0">r</tspan><tspan x="66.67" y="0">ansaction</tspan></text><text class="cls-3" transform="translate(545.84 162.23) rotate(-45)"><tspan class="cls-16">N</tspan><tspan class="cls-17" x="9.77" y="0">ot</tspan><tspan x="22.4" y="0">es / Bills</tspan></text><text class="cls-3" transform="translate(658.74 162.23) rotate(-45)">Ba<tspan class="cls-18" x="16.81" y="0">r</tspan><tspan class="cls-17" x="22.82" y="0">t</tspan><tspan x="27.43" y="0">er E</tspan><tspan class="cls-19" x="52.57" y="0">x</tspan><tspan class="cls-20" x="60.12" y="0">c</tspan><tspan x="65.95" y="0">hange</tspan></text><text class="cls-3" transform="translate(766.69 162.23) rotate(-45)"><tspan class="cls-21">A</tspan><tspan x="8.56" y="0">ccounts</tspan></text><text class="cls-3" transform="translate(875.3 162.2) rotate(-45)"><tspan class="cls-22">V</tspan><tspan x="7.31" y="0">ou</tspan><tspan class="cls-20" x="23.81" y="0">c</tspan><tspan x="29.65" y="0">he</tspan><tspan class="cls-23" x="45.77" y="0">r</tspan><tspan x="51.64" y="0">s</tspan></text><text class="cls-24" transform="translate(162.24 217.24)">U<tspan class="cls-25" x="9.7" y="0">S</tspan><tspan x="17.76" y="0">A</tspan></text><text class="cls-24" transform="translate(290.1 217.24)">49</text><text class="cls-24" transform="translate(290.1 293.3)">28</text><text class="cls-24" transform="translate(290.1 369.36)">25</text><text class="cls-24" transform="translate(290.1 445.43)">23</text><text class="cls-26" transform="translate(290.77 521.56)">1<tspan class="cls-27" x="7.36" y="0">9</tspan></text><text class="cls-28" transform="translate(290.75 597.69)">1<tspan class="cls-27" x="7.38" y="0">5</tspan></text><text class="cls-24" transform="translate(290.68 673.88)"><tspan class="cls-29">1</tspan><tspan x="7.52" y="0">4</tspan></text><text class="cls-30" transform="translate(290.74 750.13)">1<tspan class="cls-27" x="7.4" y="0">3</tspan></text><text class="cls-31" transform="translate(290.73 826.12)">1<tspan class="cls-27" x="7.42" y="0">2</tspan></text><text class="cls-31" transform="translate(290.73 902.04)">1<tspan class="cls-27" x="7.42" y="0">2</tspan></text><text class="cls-24" transform="translate(285.77 978.49)">296</text><text class="cls-24" transform="translate(145.23 293.3)">Ge<tspan class="cls-32" x="17.5" y="0">r</tspan><tspan x="23.14" y="0">ma</tspan><tspan class="cls-33" x="44.21" y="0">n</tspan><tspan class="cls-34" x="52.59" y="0">y</tspan></text><text class="cls-24" transform="translate(146.11 369.36)"><tspan class="cls-35">A</tspan><tspan x="8.52" y="0">u</tspan><tspan class="cls-36" x="17.04" y="0">s</tspan><tspan class="cls-27" x="23.3" y="0">t</tspan><tspan class="cls-37" x="27.96" y="0">r</tspan><tspan class="cls-34" x="33.68" y="0">alia</tspan></text><text class="cls-24" transform="translate(150.61 445.42)">Canada</text><text class="cls-24" transform="translate(148.24 521.56)">Belgium</text><text class="cls-24" transform="translate(166.13 597.69)">UK</text><text class="cls-24" transform="translate(156.88 673.88)">Spain</text><text class="cls-24" transform="translate(141.89 750.19)"><tspan class="cls-38">V</tspan><tspan x="7.35" y="0">enezuela</tspan></text><text class="cls-24" transform="translate(135.68 826.12)"><tspan class="cls-39">N</tspan><tspan x="9.82" y="0">ethe</tspan><tspan class="cls-32" x="38.42" y="0">r</tspan><tspan class="cls-34" x="44.06" y="0">lands</tspan></text><text class="cls-24" transform="translate(132.64 902.04)"><tspan class="cls-39">N</tspan><tspan class="cls-40" x="9.82" y="0">e</tspan><tspan x="17.43" y="0">w Zealand</tspan></text><text class="cls-24" transform="translate(132.75 978.49)">Da<tspan class="cls-41" x="18.02" y="0">t</tspan><tspan x="22.7" y="0">aset </tspan><tspan class="cls-42" x="53.85" y="0">T</tspan><tspan class="cls-35" x="60.09" y="0">o</tspan><tspan class="cls-41" x="68.15" y="0">t</tspan><tspan x="72.83" y="0">al</tspan></text><g class="cls-43"><line class="cls-44" x1="489.87" y1="142.71" x2="489.87" y2="144.21"/><line class="cls-45" x1="489.87" y1="147.2" x2="489.87" y2="1007.62"/><line class="cls-44" x1="489.87" y1="1009.11" x2="489.87" y2="1010.61"/></g><g class="cls-43"><line class="cls-44" x1="598.57" y1="142.71" x2="598.57" y2="144.21"/><line class="cls-45" x1="598.57" y1="147.2" x2="598.57" y2="1007.62"/><line class="cls-44" x1="598.57" y1="1009.11" x2="598.57" y2="1010.61"/></g><g class="cls-43"><line class="cls-44" x1="707.27" y1="142.71" x2="707.27" y2="144.21"/><line class="cls-45" x1="707.27" y1="147.2" x2="707.27" y2="1007.62"/><line class="cls-44" x1="707.27" y1="1009.11" x2="707.27" y2="1010.61"/></g><g class="cls-43"><line class="cls-44" x1="815.97" y1="142.71" x2="815.97" y2="144.21"/><line class="cls-45" x1="815.97" y1="147.2" x2="815.97" y2="1007.62"/><line class="cls-44" x1="815.97" y1="1009.11" x2="815.97" y2="1010.61"/></g><g class="cls-43"><line class="cls-44" x1="815.97" y1="142.71" x2="815.97" y2="144.21"/><line class="cls-45" x1="815.97" y1="147.2" x2="815.97" y2="1007.62"/><line class="cls-44" x1="815.97" y1="1009.11" x2="815.97" y2="1010.61"/></g><text class="cls-46" transform="translate(424.93 362.78)">48%</text><text class="cls-46" transform="translate(424.93 451.9)">30%</text><text class="cls-46" transform="translate(862.31 551.72)">0%</text><text class="cls-46" transform="translate(862.31 627.78)">0%</text><text class="cls-46" transform="translate(862.31 474.5)">0%</text><text class="cls-46" transform="translate(753.72 779.58)">0%</text><text class="cls-46" transform="translate(645.78 855.61)">0%</text><text class="cls-46" transform="translate(862.31 855.61)">0%</text><text class="cls-46" transform="translate(428.26 779.57)">0%</text><text class="cls-46" transform="translate(536.21 779.58)">0%</text><text class="cls-46" transform="translate(536.21 703.49)">0%</text><text class="cls-46" transform="translate(645.78 551.71)">0%</text><text class="cls-46" transform="translate(536.21 855.61)">0%</text><text class="cls-46" transform="translate(645.78 703.49)">0%</text><text class="cls-46" transform="translate(862.31 703.49)">0%</text><text class="cls-46" transform="translate(862.31 779.58)">0%</text><text class="cls-46" transform="translate(862.31 247.13)">0%</text><text class="cls-46" transform="translate(862.31 322.65)">0%</text><text class="cls-46" transform="translate(862.31 399.26)">0%</text><text class="cls-46" transform="translate(424.93 899.39)">42%</text><rect class="cls-47" x="404.12" y="364.78" width="64.31" height="36.74"/><text class="cls-46" transform="translate(645.78 318.8)">4%</text><rect class="cls-48" x="621.63" y="322.02" width="64.31" height="3.11"/><text class="cls-46" transform="translate(645.78 242.47)">4%</text><rect class="cls-48" x="621.63" y="245.69" width="64.31" height="3.11"/><text class="cls-46" transform="translate(645.78 470.73)">4%</text><rect class="cls-48" x="621.63" y="473.95" width="64.31" height="3.11"/><text class="cls-46" transform="translate(645.78 395.21)">4%</text><rect class="cls-48" x="621.63" y="398.43" width="64.31" height="3.11"/><text class="cls-46" transform="translate(536.21 547.44)">5%</text><rect class="cls-48" x="512.06" y="549.66" width="64.31" height="3.85"/><text class="cls-46" transform="translate(424.93 303.79)">25%</text><rect class="cls-48" x="404.12" y="306.33" width="64.31" height="19.2"/><text class="cls-46" transform="translate(645.78 622.17)">7%</text><rect class="cls-48" x="621.63" y="624.39" width="64.31" height="5.1"/><text class="cls-46" transform="translate(753.72 698.22)">7%</text><rect class="cls-48" x="729.58" y="700.44" width="64.31" height="5.1"/><rect class="cls-47" x="621.63" y="705.75" width="64.31" height="76.25"/><text class="cls-46" transform="translate(532.87 456.9)">22%</text><rect class="cls-48" x="512.06" y="460.45" width="64.31" height="17.01"/><text class="cls-46" transform="translate(424.93 979.07)">38%</text><rect class="cls-47" x="404.12" y="981.28" width="64.31" height="29.08"/><rect class="cls-47" x="404.12" y="454.38" width="64.31" height="22.96"/><rect class="cls-48" x="838.27" y="1008.06" width="64.31" height="2.27"/><text class="cls-46" transform="translate(862.31 1005.76)">3%</text><text class="cls-46" transform="translate(532.87 231.39)">20%</text><rect class="cls-48" x="512.06" y="233.7" width="64.31" height="15.31"/><text class="cls-46" transform="translate(533.32 997.91)"><tspan class="cls-49">1</tspan><tspan x="5.79" y="0">4%</tspan></text><rect class="cls-48" x="512.06" y="999.82" width="64.31" height="10.51"/><text class="cls-46" transform="translate(533.36 617.18)"><tspan class="cls-50">1</tspan><tspan x="5.69" y="0">3%</tspan></text><rect class="cls-48" x="512.06" y="619.34" width="64.31" height="9.92"/><rect class="cls-47" x="404.12" y="639.82" width="64.31" height="65.82"/><rect class="cls-47" x="404.12" y="901.59" width="64.31" height="32.03"/><text class="cls-46" transform="translate(750.38 811.33)">58%</text><rect class="cls-47" x="729.58" y="813.33" width="64.31" height="44.39"/><text class="cls-46" transform="translate(424.93 519.01)">42%</text><rect class="cls-47" x="404.12" y="521.21" width="64.31" height="32.03"/><text class="cls-46" transform="translate(424.93 215.77)">42%</text><rect class="cls-47" x="404.12" y="217.78" width="64.31" height="31.23"/><text class="cls-46" transform="translate(532.87 289.32)">43%</text><rect class="cls-47" x="512.06" y="291.64" width="64.31" height="33.35"/><text class="cls-46" transform="translate(424.93 586.93)">53%</text><rect class="cls-47" x="404.12" y="588.93" width="64.31" height="40.56"/><text class="cls-46" transform="translate(536.21 924.14)">8%</text><rect class="cls-48" x="512.06" y="927.74" width="64.31" height="5.94"/><text class="cls-46" transform="translate(645.78 924.31)">8%</text><rect class="cls-48" x="621.63" y="927.91" width="64.31" height="5.94"/><text class="cls-46" transform="translate(862.31 924.14)">8%</text><rect class="cls-48" x="838.27" y="927.74" width="64.31" height="5.94"/><text class="cls-46" transform="translate(536.21 392.8)">8%</text><rect class="cls-48" x="512.06" y="395.4" width="64.31" height="5.94"/><text class="cls-46" transform="translate(645.78 1001.99)">8%</text><rect class="cls-48" x="621.63" y="1004.59" width="64.31" height="5.94"/><text class="cls-46" transform="translate(753.72 1000.99)">8%</text><rect class="cls-48" x="729.58" y="1004.59" width="64.31" height="5.94"/><line class="cls-2" x1="111.72" y1="1010.61" x2="239.05" y2="1010.61"/><line class="cls-2" x1="259.68" y1="1010.61" x2="337.88" y2="1010.61"/><text class="cls-46" transform="translate(639.51 748.53)"><tspan class="cls-51">1</tspan><tspan x="5.86" y="0">00%</tspan></text><text class="cls-46" transform="translate(424.93 829.63)">33%</text><rect class="cls-48" x="404.12" y="832.08" width="64.31" height="25.51"/><text class="cls-46" transform="translate(424.93 677.55)">86%</text><text class="cls-46" transform="translate(750.88 386.03)"><tspan class="cls-52">1</tspan><tspan x="5.68" y="0">6%</tspan></text><rect class="cls-48" x="729.58" y="388.76" width="64.31" height="12.34"/><text class="cls-46" transform="translate(750.83 309.91)"><tspan class="cls-49">1</tspan><tspan x="5.79" y="0">8%</tspan></text><rect class="cls-48" x="729.58" y="312.03" width="64.31" height="13.1"/><text class="cls-46" transform="translate(750.47 606.5)"><tspan class="cls-53">2</tspan><tspan x="6.49" y="0">7%</tspan></text><rect class="cls-48" x="729.58" y="608.83" width="64.31" height="20.41"/><text class="cls-46" transform="translate(750.38 529.5)">26%</text><rect class="cls-48" x="729.58" y="533.14" width="64.31" height="20.11"/><text class="cls-46" transform="translate(750.38 453.98)">26%</text><rect class="cls-48" x="729.58" y="457.62" width="64.31" height="20.11"/><rect class="cls-48" x="729.58" y="921.06" width="64.31" height="12.8"/><text class="cls-46" transform="translate(750.92 918.74)"><tspan class="cls-54">1</tspan><tspan x="5.61" y="0">7%</tspan></text><text class="cls-46" transform="translate(753.72 239.46)">8%</text><rect class="cls-48" x="729.58" y="243.07" width="64.31" height="5.94"/><line class="cls-2" x1="382.68" y1="172.95" x2="924.89" y2="172.95"/><line class="cls-2" x1="382.68" y1="401.51" x2="924.89" y2="401.51"/><line class="cls-2" x1="381.17" y1="705.75" x2="924.89" y2="705.75"/><line class="cls-2" x1="381.17" y1="629.5" x2="924.89" y2="629.5"/><line class="cls-2" x1="381.17" y1="1010.61" x2="924.89" y2="1010.61"/><line class="cls-2" x1="381.17" y1="782" x2="924.89" y2="782"/><line class="cls-2" x1="382.68" y1="477.23" x2="924.89" y2="477.23"/><line class="cls-2" x1="381.17" y1="553.36" x2="924.89" y2="553.36"/><line class="cls-2" x1="382.68" y1="325.26" x2="924.89" y2="325.26"/><line class="cls-2" x1="381.17" y1="857.72" x2="924.89" y2="857.72"/><line class="cls-2" x1="381.17" y1="933.85" x2="924.89" y2="933.85"/><line class="cls-2" x1="382.68" y1="249.01" x2="924.89" y2="249.01"/></svg>