<svg id="Layer_2" data-name="Layer 2" xmlns="http://www.w3.org/2000/svg" viewBox="0 0 541.55 58.3"><defs><style>.cls-1,.cls-5{isolation:isolate;}.cls-2{fill:none;stroke:#000;stroke-miterlimit:10;}.cls-3{fill:#bdedb7;}.cls-4{fill:#daddd9;}.cls-5{opacity:0.9;}</style></defs><title>medium_of_exchange_TITLE</title><g class="cls-1"><g class="cls-1"><path d="M32.73,28.22h3.13l2.39,11.07q.44,2.07.8,4.16t.66,4.37l.05-.47a2,2,0,0,1,0-.24L40.31,44l.46-3,.4-2L43.3,28.22h3.16L49,55.36h-3.5l-.62-9.21-.06-1.21q0-.51,0-.84l-.16-3.64-.09-3.34s0-.07,0-.15l0-.31-.09.54q-.14,1-.25,1.69t-.2,1.21l-.46,2.48-.18.93L41,55.36H38.55L36.41,45.13q-.44-2-.78-4.1T35,36.66l-1.05,18.7H30.5Z" transform="translate(-30.5 -16.82)"/><path d="M58.82,49.23h3.13q-.37,6.42-5.27,6.42a5.36,5.36,0,0,1-2.5-.54,4.38,4.38,0,0,1-1.73-1.69,8.71,8.71,0,0,1-1-2.9,23.33,23.33,0,0,1-.33-4.18q0-4.82,1.34-7.14a4.48,4.48,0,0,1,4.16-2.32q5.47,0,5.47,9.63v.42H54.39q0,5.84,2.32,5.84Q58.82,52.76,58.82,49.23Zm-.18-4.73A12.27,12.27,0,0,0,58,40.73a1.53,1.53,0,0,0-1.48-1,1.51,1.51,0,0,0-1.48,1,12.27,12.27,0,0,0-.65,3.76Z" transform="translate(-30.5 -16.82)"/><path d="M75.45,25.49V55.36H72.09V53a5.83,5.83,0,0,1-1.44,2.06,3,3,0,0,1-1.92.56,3.47,3.47,0,0,1-3.3-2.31,18.6,18.6,0,0,1-1.05-7.27,28,28,0,0,1,.26-4.13,10.32,10.32,0,0,1,.8-2.87,3.87,3.87,0,0,1,1.38-1.66,3.66,3.66,0,0,1,2-.54,3,3,0,0,1,1.83.53,3.65,3.65,0,0,1,.72.7,6.93,6.93,0,0,1,.72,1.13V25.49ZM67.86,46.18a18,18,0,0,0,.47,5,1.78,1.78,0,0,0,1.72,1.42q1.13,0,1.63-1.48a17.11,17.11,0,0,0,.51-4.87,17.19,17.19,0,0,0-.51-4.89q-.51-1.48-1.63-1.48a1.79,1.79,0,0,0-1.71,1.41A15.94,15.94,0,0,0,67.86,46.18Z" transform="translate(-30.5 -16.82)"/><path d="M80.85,29.43A2.28,2.28,0,0,1,83.1,31.7a2.28,2.28,0,1,1-4.55,0,2.16,2.16,0,0,1,.67-1.58A2.34,2.34,0,0,1,80.85,29.43Zm-1.58,7.73h3.38V55.36H79.26Z" transform="translate(-30.5 -16.82)"/><path d="M86.42,37.17h3.36V49.33a4.82,4.82,0,0,0,.5,2.41,1.71,1.71,0,0,0,1.56.72,1.84,1.84,0,0,0,1.6-.63,4.31,4.31,0,0,0,.46-2.32V37.17h3.36V48a14.93,14.93,0,0,1-.56,5.1q-1.18,2.5-4.89,2.5-2.92,0-4.15-1.48t-1.23-5Z" transform="translate(-30.5 -16.82)"/><path d="M101,37.17h3.36v2.25a4.15,4.15,0,0,1,3.69-2.55,3.39,3.39,0,0,1,3.41,2.55,4.15,4.15,0,0,1,3.8-2.55,4,4,0,0,1,2.93,1,4,4,0,0,1,1,3v14.5h-3.37v-12a6.52,6.52,0,0,0-.39-2.76,1.46,1.46,0,0,0-1.44-.72,1.76,1.76,0,0,0-1.65.74,6,6,0,0,0-.42,2.74v12h-3.48v-12a11.67,11.67,0,0,0-.1-1.63,3.09,3.09,0,0,0-.33-1.07,1.41,1.41,0,0,0-.6-.59,2,2,0,0,0-.91-.18,1.79,1.79,0,0,0-1.65.79,5.38,5.38,0,0,0-.49,2.69v12H101Z" transform="translate(-30.5 -16.82)"/><path d="M141.23,46.41q0,9.23-5.71,9.23t-5.71-9.37q0-9.4,5.7-9.4a5.47,5.47,0,0,1,2.56.56,4.49,4.49,0,0,1,1.78,1.74,9.13,9.13,0,0,1,1,3A23.07,23.07,0,0,1,141.23,46.41Zm-3.48-.09a17.79,17.79,0,0,0-.47-5,1.75,1.75,0,0,0-1.69-1.42,1.79,1.79,0,0,0-1.71,1.41,17.34,17.34,0,0,0-.47,4.9,17.14,17.14,0,0,0,.47,4.89,1.79,1.79,0,0,0,1.71,1.41,1.73,1.73,0,0,0,1.67-1.39A15.6,15.6,0,0,0,137.75,46.32Z" transform="translate(-30.5 -16.82)"/><path d="M143.07,37.17h1.69V30.82a7.86,7.86,0,0,1,.91-4.39,3.64,3.64,0,0,1,3.18-1.28,6.8,6.8,0,0,1,2.29.47v3.55a3.07,3.07,0,0,0-1.42-.44,1.39,1.39,0,0,0-1.22.51,3.09,3.09,0,0,0-.36,1.72l0,1.37v4.83H151v2.67h-2.85V55.36h-3.36V39.84h-1.69Z" transform="translate(-30.5 -16.82)"/></g><g class="cls-1"><path d="M167.67,49.23h3.13q-.37,6.42-5.27,6.42a5.36,5.36,0,0,1-2.5-.54,4.38,4.38,0,0,1-1.73-1.69,8.71,8.71,0,0,1-1-2.9,23.33,23.33,0,0,1-.33-4.18q0-4.82,1.34-7.14a4.48,4.48,0,0,1,4.16-2.32q5.47,0,5.47,9.63v.42h-7.68q0,5.84,2.32,5.84Q167.67,52.76,167.67,49.23Zm-.18-4.73a12.27,12.27,0,0,0-.65-3.76,1.53,1.53,0,0,0-1.48-1,1.51,1.51,0,0,0-1.48,1,12.27,12.27,0,0,0-.65,3.76Z" transform="translate(-30.5 -16.82)"/></g><g class="cls-1"><path d="M171.9,37.17h4l1.6,3.52q.28.62.53,1.29t.44,1.43q.14-.67.33-1.28t.44-1.21l.23-.53,1.32-3.22h3.53l-4.11,8.6,5,9.6h-4l-1.6-3.48a14.51,14.51,0,0,1-1.39-3.9A12.93,12.93,0,0,1,177,51.56l-1.62,3.8H171.9l4.55-9.6Z" transform="translate(-30.5 -16.82)"/></g><g class="cls-1"><path d="M194.12,37.52v3.43a2.11,2.11,0,0,0-1.69-.86q-2.78,0-2.78,6,0,6.38,2.76,6.38a3,3,0,0,0,1.71-.69v3.15a5.76,5.76,0,0,1-2.71.7q-5.41,0-5.41-9.21,0-4.9,1.34-7.23a4.45,4.45,0,0,1,4.15-2.33A5.77,5.77,0,0,1,194.12,37.52Z" transform="translate(-30.5 -16.82)"/></g><g class="cls-1"><path d="M196.76,25.49h3.36V39.26a4.27,4.27,0,0,1,3.73-2.39A3.32,3.32,0,0,1,207,38.61a9.17,9.17,0,0,1,.53,3.81V55.36h-3.36l0-12.16a5.66,5.66,0,0,0-.44-2.62,1.59,1.59,0,0,0-1.51-.77,2.13,2.13,0,0,0-1,.2,1.53,1.53,0,0,0-.64.65,3.62,3.62,0,0,0-.36,1.17,11.6,11.6,0,0,0-.11,1.78V55.36h-3.36Z" transform="translate(-30.5 -16.82)"/><path d="M221.72,37.17V55.36h-3.36V53a5.83,5.83,0,0,1-1.44,2.06,3,3,0,0,1-1.9.56,3.48,3.48,0,0,1-3.32-2.32A18.67,18.67,0,0,1,210.65,46a17.14,17.14,0,0,1,1.05-7A3.48,3.48,0,0,1,215,36.87a3.77,3.77,0,0,1,3.34,2.36V37.17Zm-7.59,9a18,18,0,0,0,.47,5,1.78,1.78,0,0,0,1.72,1.42q1.13,0,1.63-1.48a17.11,17.11,0,0,0,.51-4.87,17.19,17.19,0,0,0-.51-4.89q-.51-1.48-1.63-1.48a1.79,1.79,0,0,0-1.71,1.41A15.94,15.94,0,0,0,214.13,46.18Z" transform="translate(-30.5 -16.82)"/><path d="M225.53,37.17h3.36v2.09a4.27,4.27,0,0,1,3.73-2.39,3.32,3.32,0,0,1,3.16,1.74,9.17,9.17,0,0,1,.53,3.81V55.36H233l0-12.16a5.66,5.66,0,0,0-.44-2.62A1.59,1.59,0,0,0,231,39.8a2.13,2.13,0,0,0-1,.2,1.53,1.53,0,0,0-.64.65,3.62,3.62,0,0,0-.36,1.17,11.6,11.6,0,0,0-.11,1.78V55.36h-3.36Z" transform="translate(-30.5 -16.82)"/><path d="M247.15,37.17h3.38V55.94a11.31,11.31,0,0,1-.67,4.68Q248.63,63,244.92,63a5.18,5.18,0,0,1-3.83-1.39,5.11,5.11,0,0,1-1.41-3.78l0-.56H243q0,2.9,2.16,2.9a1.68,1.68,0,0,0,1.6-.74,5.92,5.92,0,0,0,.44-2.79v-3.5a3.5,3.5,0,0,1-3.29,2.5,3.54,3.54,0,0,1-3.37-2.21,16.65,16.65,0,0,1-1.08-6.93,19.51,19.51,0,0,1,1-7.37,3.49,3.49,0,0,1,3.39-2.27,2.9,2.9,0,0,1,1.83.54,6.41,6.41,0,0,1,1.48,1.93Zm.05,9.26q0-6.52-2.25-6.52-1.07,0-1.56,1.47a16.15,16.15,0,0,0-.49,4.7,18.19,18.19,0,0,0,.51,5q.53,1.49,1.76,1.49a1.64,1.64,0,0,0,1.6-1.34A17.32,17.32,0,0,0,247.21,46.43Z" transform="translate(-30.5 -16.82)"/><path d="M261.36,49.23h3.13q-.37,6.42-5.27,6.42a5.36,5.36,0,0,1-2.5-.54A4.38,4.38,0,0,1,255,53.41a8.71,8.71,0,0,1-1-2.9,23.33,23.33,0,0,1-.33-4.18q0-4.82,1.34-7.14a4.48,4.48,0,0,1,4.16-2.32q5.47,0,5.47,9.63v.42h-7.68q0,5.84,2.32,5.84Q261.36,52.76,261.36,49.23Zm-.18-4.73a12.27,12.27,0,0,0-.65-3.76,1.53,1.53,0,0,0-1.48-1,1.51,1.51,0,0,0-1.48,1,12.27,12.27,0,0,0-.65,3.76Z" transform="translate(-30.5 -16.82)"/><path d="M275.05,25.49h3.36V39.22a6.93,6.93,0,0,1,.72-1.12,3.65,3.65,0,0,1,.72-.7,3,3,0,0,1,1.83-.53,3.66,3.66,0,0,1,2,.54,3.87,3.87,0,0,1,1.38,1.66,10.32,10.32,0,0,1,.8,2.87,28,28,0,0,1,.26,4.13,18.6,18.6,0,0,1-1.05,7.27,3.47,3.47,0,0,1-3.3,2.31,3,3,0,0,1-1.92-.56A5.83,5.83,0,0,1,278.41,53v2.34h-3.36Zm7.59,20.87a16.81,16.81,0,0,0-.49-5,1.75,1.75,0,0,0-1.71-1.42q-1.16,0-1.63,1.44a17.54,17.54,0,0,0-.47,4.92,17.65,17.65,0,0,0,.47,4.92q.47,1.42,1.63,1.42a1.79,1.79,0,0,0,1.71-1.41A15.85,15.85,0,0,0,282.65,46.36Z" transform="translate(-30.5 -16.82)"/></g><g class="cls-1"><path d="M289.25,37.17h3.36v2.27a6.42,6.42,0,0,1,1.71-2,4.38,4.38,0,0,1,2.23-.67v3.52a4.13,4.13,0,0,0-.6-.05,3.19,3.19,0,0,0-2.58.93,5.12,5.12,0,0,0-.76,3.2v11h-3.36Z" transform="translate(-30.5 -16.82)"/></g><g class="cls-1"><path d="M306,49.23h3.13q-.37,6.42-5.27,6.42a5.36,5.36,0,0,1-2.51-.54,4.38,4.38,0,0,1-1.73-1.69,8.71,8.71,0,0,1-1-2.9,23.33,23.33,0,0,1-.33-4.18q0-4.82,1.34-7.14a4.48,4.48,0,0,1,4.16-2.32q5.47,0,5.47,9.63v.42h-7.68q0,5.84,2.32,5.84Q306,52.76,306,49.23Zm-.18-4.73a12.27,12.27,0,0,0-.65-3.76,1.53,1.53,0,0,0-1.48-1,1.51,1.51,0,0,0-1.48,1,12.25,12.25,0,0,0-.65,3.76Z" transform="translate(-30.5 -16.82)"/><path d="M322.63,37.17V55.36h-3.36V53a5.83,5.83,0,0,1-1.44,2.06,3,3,0,0,1-1.9.56,3.48,3.48,0,0,1-3.32-2.32A18.67,18.67,0,0,1,311.55,46a17.14,17.14,0,0,1,1.05-7,3.48,3.48,0,0,1,3.32-2.22,3.77,3.77,0,0,1,3.34,2.36V37.17Zm-7.59,9a18,18,0,0,0,.47,5,1.78,1.78,0,0,0,1.72,1.42q1.13,0,1.63-1.48a17.11,17.11,0,0,0,.51-4.87,17.19,17.19,0,0,0-.51-4.89q-.51-1.48-1.63-1.48a1.79,1.79,0,0,0-1.71,1.41A15.94,15.94,0,0,0,315,46.18Z" transform="translate(-30.5 -16.82)"/><path d="M326.44,25.49h3.36V45.27l4.27-8.1h3.8l-4.64,8.1,5.26,10.09h-3.94l-4.75-9.67v9.67h-3.36Z" transform="translate(-30.5 -16.82)"/><path d="M350.91,25.49V55.36h-3.36V53a5.83,5.83,0,0,1-1.44,2.06,3,3,0,0,1-1.92.56,3.47,3.47,0,0,1-3.3-2.31,18.6,18.6,0,0,1-1.05-7.27,28,28,0,0,1,.26-4.13,10.32,10.32,0,0,1,.8-2.87,3.87,3.87,0,0,1,1.38-1.66,3.66,3.66,0,0,1,2-.54,3,3,0,0,1,1.83.53,3.65,3.65,0,0,1,.72.7,6.93,6.93,0,0,1,.72,1.13V25.49Zm-7.59,20.69a18,18,0,0,0,.47,5,1.78,1.78,0,0,0,1.72,1.42q1.13,0,1.63-1.48a17.11,17.11,0,0,0,.51-4.87,17.19,17.19,0,0,0-.51-4.89q-.51-1.48-1.63-1.48a1.79,1.79,0,0,0-1.71,1.41A15.94,15.94,0,0,0,343.32,46.18Z" transform="translate(-30.5 -16.82)"/></g><g class="cls-1"><path d="M365.47,46.41q0,9.23-5.71,9.23T354,46.27q0-9.4,5.7-9.4a5.47,5.47,0,0,1,2.56.56,4.49,4.49,0,0,1,1.78,1.74,9.13,9.13,0,0,1,1,3A23.07,23.07,0,0,1,365.47,46.41ZM362,46.32a17.79,17.79,0,0,0-.47-5,1.75,1.75,0,0,0-1.69-1.42,1.79,1.79,0,0,0-1.71,1.41,17.34,17.34,0,0,0-.47,4.9,17.14,17.14,0,0,0,.47,4.89,1.79,1.79,0,0,0,1.71,1.41,1.73,1.73,0,0,0,1.67-1.39A15.6,15.6,0,0,0,362,46.32Z" transform="translate(-30.5 -16.82)"/></g><g class="cls-1"><path d="M366.72,37.17h3.55l1,5.85q.3,1.76.54,3.39t.38,3.18l.05.63.07-.67q.14-1.27.29-2.33t.33-2l.28-1.39,1.25-6.71h2.44l1.18,6.71.39,2.11q.12.6.23,1.49t.21,2.1l.07.65q.32-3.27.9-6.35l1.25-6.71h3.3l-4.27,18.19h-2.32l-1.39-6.94q-.25-1.27-.42-2.59t-.3-2.82q0-.18,0-.42t-.05-.58q-.11,1.6-.3,3.1t-.47,3l-1.41,7.26h-2.32Z" transform="translate(-30.5 -16.82)"/><path d="M386.62,37.17H390v2.09a4.27,4.27,0,0,1,3.73-2.39,3.32,3.32,0,0,1,3.16,1.74,9.17,9.17,0,0,1,.53,3.81V55.36H394l0-12.16a5.66,5.66,0,0,0-.44-2.62,1.59,1.59,0,0,0-1.51-.77,2.13,2.13,0,0,0-1,.2,1.53,1.53,0,0,0-.64.65,3.62,3.62,0,0,0-.36,1.17A11.6,11.6,0,0,0,390,43.6V55.36h-3.36Z" transform="translate(-30.5 -16.82)"/></g></g><line class="cls-2" x1="384.39" x2="384.39" y2="58.3"/><rect class="cls-3" x="401.95" y="12.78" width="10.14" height="10.14"/><rect class="cls-4" x="401.95" y="35.39" width="10.14" height="10.14"/><g class="cls-1"><g class="cls-5"><path d="M459.77,26.47h2.41a3.25,3.25,0,0,1,2.53.88,4.16,4.16,0,0,1,.79,2.81q0,2.71-1.59,3.5a5.82,5.82,0,0,1-2.31.36v6h-1.83Zm1.83,6a2.11,2.11,0,0,0,1.56-.46,2.41,2.41,0,0,0,.44-1.65,3,3,0,0,0-.42-1.78,1.55,1.55,0,0,0-1.33-.56h-.25Z" transform="translate(-30.5 -16.82)"/></g><g class="cls-1"><path d="M466.81,30.94h1.68v1.13a3.21,3.21,0,0,1,.85-1,2.19,2.19,0,0,1,1.12-.33v1.76l-.3,0a1.59,1.59,0,0,0-1.29.47,2.56,2.56,0,0,0-.38,1.6V40h-1.68Z" transform="translate(-30.5 -16.82)"/></g><g class="cls-1"><path d="M472.44,27.08a1.14,1.14,0,0,1,1.13,1.13,1.14,1.14,0,1,1-2.28,0,1.08,1.08,0,0,1,.33-.79A1.17,1.17,0,0,1,472.44,27.08Zm-.79,3.87h1.69V40h-1.69Z" transform="translate(-30.5 -16.82)"/><path d="M475.23,30.94h1.68v1.12a2.08,2.08,0,0,1,1.85-1.27,1.69,1.69,0,0,1,1.71,1.27,2.07,2.07,0,0,1,1.9-1.27,2,2,0,0,1,1.46.51,2,2,0,0,1,.51,1.49V40h-1.69v-6a3.26,3.26,0,0,0-.19-1.38.73.73,0,0,0-.72-.36.88.88,0,0,0-.83.37,3,3,0,0,0-.21,1.37v6h-1.74v-6a5.83,5.83,0,0,0,0-.82,1.55,1.55,0,0,0-.16-.54.7.7,0,0,0-.3-.29,1,1,0,0,0-.46-.09.9.9,0,0,0-.83.4,2.69,2.69,0,0,0-.25,1.34v6h-1.68Z" transform="translate(-30.5 -16.82)"/><path d="M491.42,30.94V40h-1.68V38.87a2.92,2.92,0,0,1-.72,1,1.5,1.5,0,0,1-.95.28A1.74,1.74,0,0,1,486.41,39a9.33,9.33,0,0,1-.53-3.64,8.58,8.58,0,0,1,.53-3.48,1.74,1.74,0,0,1,1.66-1.11A1.89,1.89,0,0,1,489.74,32v-1Zm-3.8,4.51a9,9,0,0,0,.24,2.5.89.89,0,0,0,.86.71q.56,0,.82-.74a8.55,8.55,0,0,0,.25-2.43,8.59,8.59,0,0,0-.25-2.44q-.25-.74-.82-.74a.89.89,0,0,0-.85.7A8,8,0,0,0,487.62,35.45Z" transform="translate(-30.5 -16.82)"/></g><g class="cls-1"><path d="M493.32,30.94H495v1.13a3.21,3.21,0,0,1,.85-1,2.19,2.19,0,0,1,1.12-.33v1.76l-.3,0a1.59,1.59,0,0,0-1.29.47,2.56,2.56,0,0,0-.38,1.6V40h-1.68Z" transform="translate(-30.5 -16.82)"/></g><g class="cls-1"><path d="M497.72,30.94h1.9L501,37.29l1.56-6.35h1.71l-3.72,12.82h-1.77l1.4-4.46Z" transform="translate(-30.5 -16.82)"/><path d="M509.7,26.47h1.56l1.2,5.54q.22,1,.4,2.08t.33,2.18l0-.23a1,1,0,0,1,0-.12l.25-1.56.23-1.48.2-1L515,26.47h1.58L517.81,40h-1.75l-.31-4.61,0-.61c0-.17,0-.31,0-.42l-.08-1.82,0-1.67s0,0,0-.07v-.15l0,.27q-.07.48-.13.84t-.1.61l-.23,1.24-.09.47L513.84,40h-1.23l-1.07-5.12q-.22-1-.39-2.05t-.31-2.18L510.31,40h-1.72Z" transform="translate(-30.5 -16.82)"/><path d="M522.74,37h1.56q-.18,3.21-2.64,3.21a2.68,2.68,0,0,1-1.25-.27,2.19,2.19,0,0,1-.87-.84,4.35,4.35,0,0,1-.51-1.45,11.67,11.67,0,0,1-.16-2.09,7.34,7.34,0,0,1,.67-3.57,2.24,2.24,0,0,1,2.08-1.16q2.73,0,2.73,4.82v.21h-3.84q0,2.92,1.16,2.92T522.74,37Zm-.09-2.36a6.14,6.14,0,0,0-.33-1.88.77.77,0,0,0-.74-.5.76.76,0,0,0-.74.5,6.14,6.14,0,0,0-.33,1.88Z" transform="translate(-30.5 -16.82)"/><path d="M531.06,25.11V40h-1.68V38.87a2.92,2.92,0,0,1-.72,1,1.51,1.51,0,0,1-1,.28A1.73,1.73,0,0,1,526,39a9.29,9.29,0,0,1-.53-3.63,14,14,0,0,1,.13-2.07,5.16,5.16,0,0,1,.4-1.43,1.94,1.94,0,0,1,.69-.83,1.84,1.84,0,0,1,1-.27,1.51,1.51,0,0,1,.91.26,1.82,1.82,0,0,1,.36.35,3.46,3.46,0,0,1,.36.56V25.11Zm-3.8,10.34a9,9,0,0,0,.24,2.5.89.89,0,0,0,.86.71q.56,0,.82-.74a8.55,8.55,0,0,0,.25-2.43,8.59,8.59,0,0,0-.25-2.44q-.25-.74-.82-.74a.89.89,0,0,0-.85.7A8,8,0,0,0,527.26,35.45Z" transform="translate(-30.5 -16.82)"/><path d="M533.76,27.08a1.14,1.14,0,0,1,1.13,1.13,1.14,1.14,0,1,1-2.28,0,1.08,1.08,0,0,1,.33-.79A1.17,1.17,0,0,1,533.76,27.08ZM533,30.94h1.69V40H533Z" transform="translate(-30.5 -16.82)"/><path d="M536.54,30.94h1.68V37a2.41,2.41,0,0,0,.25,1.2.86.86,0,0,0,.78.36.92.92,0,0,0,.8-.32,2.16,2.16,0,0,0,.23-1.16V30.94H542v5.44a7.47,7.47,0,0,1-.28,2.55,2.42,2.42,0,0,1-2.44,1.25,2.56,2.56,0,0,1-2.07-.74,3.94,3.94,0,0,1-.62-2.49Z" transform="translate(-30.5 -16.82)"/><path d="M543.85,30.94h1.68v1.12a2.08,2.08,0,0,1,1.85-1.27,1.69,1.69,0,0,1,1.71,1.27,2.07,2.07,0,0,1,1.9-1.27,2,2,0,0,1,1.46.51,2,2,0,0,1,.51,1.49V40h-1.69v-6a3.26,3.26,0,0,0-.19-1.38.73.73,0,0,0-.72-.36.88.88,0,0,0-.83.37,3,3,0,0,0-.21,1.37v6h-1.74v-6a5.83,5.83,0,0,0,0-.82,1.55,1.55,0,0,0-.16-.54.7.7,0,0,0-.3-.29,1,1,0,0,0-.46-.09.9.9,0,0,0-.83.4,2.69,2.69,0,0,0-.25,1.34v6h-1.68Z" transform="translate(-30.5 -16.82)"/></g></g><g class="cls-1"><g class="cls-5"><path d="M464.29,49.37v1.78a2.68,2.68,0,0,0-1.5-.6,1.51,1.51,0,0,0-1.18.51,1.8,1.8,0,0,0-.46,1.29,2.22,2.22,0,0,0,.33,1.22,5.41,5.41,0,0,0,.55.7q.38.43,1,1a8.12,8.12,0,0,1,1.52,2,4.31,4.31,0,0,1,.4,2,3.81,3.81,0,0,1-.89,2.59,2.92,2.92,0,0,1-2.28,1,3.15,3.15,0,0,1-2-.64V60.38a3.11,3.11,0,0,0,1.78.71,1.45,1.45,0,0,0,1.17-.5,2,2,0,0,0,.42-1.35,2.7,2.7,0,0,0-.33-1.33,5.5,5.5,0,0,0-.47-.65q-.3-.36-.75-.81-.69-.69-1.15-1.21a5.72,5.72,0,0,1-.68-.92,4,4,0,0,1-.42-2,3.66,3.66,0,0,1,.83-2.52,2.85,2.85,0,0,1,2.24-.94A4,4,0,0,1,464.29,49.37Z" transform="translate(-30.5 -16.82)"/><path d="M469.9,59.59h1.56q-.18,3.21-2.64,3.21a2.68,2.68,0,0,1-1.25-.27,2.19,2.19,0,0,1-.87-.84,4.36,4.36,0,0,1-.5-1.45,11.66,11.66,0,0,1-.16-2.09,7.34,7.34,0,0,1,.67-3.57,2.24,2.24,0,0,1,2.08-1.16q2.73,0,2.73,4.82v.21h-3.84q0,2.92,1.16,2.92T469.9,59.59Zm-.09-2.36a6.14,6.14,0,0,0-.33-1.88.77.77,0,0,0-.74-.5.76.76,0,0,0-.74.5,6.14,6.14,0,0,0-.33,1.88Z" transform="translate(-30.5 -16.82)"/><path d="M476.74,53.74v1.71a1.06,1.06,0,0,0-.84-.43q-1.39,0-1.39,3,0,3.19,1.38,3.19a1.48,1.48,0,0,0,.85-.34v1.57a2.88,2.88,0,0,1-1.35.35q-2.71,0-2.71-4.61a7.53,7.53,0,0,1,.67-3.62,2.23,2.23,0,0,1,2.07-1.16A2.88,2.88,0,0,1,476.74,53.74Z" transform="translate(-30.5 -16.82)"/><path d="M483.53,58.19q0,4.61-2.86,4.61t-2.86-4.68q0-4.7,2.85-4.7a2.74,2.74,0,0,1,1.28.28,2.25,2.25,0,0,1,.89.87,4.57,4.57,0,0,1,.52,1.49A11.54,11.54,0,0,1,483.53,58.19Zm-1.74,0a8.89,8.89,0,0,0-.24-2.5.87.87,0,0,0-.84-.71.89.89,0,0,0-.85.7,8.67,8.67,0,0,0-.24,2.45,8.57,8.57,0,0,0,.24,2.44.89.89,0,0,0,.85.7.86.86,0,0,0,.83-.69A7.8,7.8,0,0,0,481.79,58.14Z" transform="translate(-30.5 -16.82)"/><path d="M485.1,53.56h1.68v1a2.13,2.13,0,0,1,1.86-1.2,1.66,1.66,0,0,1,1.58.87,4.59,4.59,0,0,1,.26,1.91v6.47H488.8V56.58a2.83,2.83,0,0,0-.22-1.31.8.8,0,0,0-.76-.39,1.07,1.07,0,0,0-.49.1.77.77,0,0,0-.32.33,1.8,1.8,0,0,0-.18.58,5.79,5.79,0,0,0-.06.89v5.88H485.1Z" transform="translate(-30.5 -16.82)"/><path d="M497.58,47.73V62.66H495.9V61.49a2.92,2.92,0,0,1-.72,1,1.51,1.51,0,0,1-1,.28,1.73,1.73,0,0,1-1.65-1.16A9.29,9.29,0,0,1,492,58a14,14,0,0,1,.13-2.07,5.16,5.16,0,0,1,.4-1.43,1.94,1.94,0,0,1,.69-.83,1.84,1.84,0,0,1,1-.27,1.51,1.51,0,0,1,.91.26,1.82,1.82,0,0,1,.36.35,3.46,3.46,0,0,1,.36.56V47.73Zm-3.8,10.34a9,9,0,0,0,.24,2.5.89.89,0,0,0,.86.71q.56,0,.82-.74a8.55,8.55,0,0,0,.25-2.43,8.59,8.59,0,0,0-.25-2.44q-.25-.74-.82-.74a.89.89,0,0,0-.85.7A8,8,0,0,0,493.78,58.07Z" transform="translate(-30.5 -16.82)"/><path d="M504.68,53.56v9.1H503V61.49a2.92,2.92,0,0,1-.72,1,1.5,1.5,0,0,1-.95.28,1.74,1.74,0,0,1-1.66-1.16,9.33,9.33,0,0,1-.53-3.64,8.58,8.58,0,0,1,.53-3.48,1.74,1.74,0,0,1,1.66-1.11A1.89,1.89,0,0,1,503,54.59v-1Zm-3.8,4.51a9,9,0,0,0,.24,2.5.89.89,0,0,0,.86.71q.56,0,.82-.74a8.55,8.55,0,0,0,.25-2.43,8.59,8.59,0,0,0-.25-2.44q-.25-.74-.82-.74a.89.89,0,0,0-.85.7A8,8,0,0,0,500.88,58.07Z" transform="translate(-30.5 -16.82)"/></g><g class="cls-1"><path d="M506.59,53.56h1.68V54.7a3.21,3.21,0,0,1,.85-1,2.19,2.19,0,0,1,1.12-.33v1.76l-.3,0a1.59,1.59,0,0,0-1.29.47,2.56,2.56,0,0,0-.38,1.6v5.51h-1.68Z" transform="translate(-30.5 -16.82)"/></g><g class="cls-1"><path d="M511,53.56h1.9l1.34,6.35,1.56-6.35h1.71l-3.72,12.82H512l1.4-4.46Z" transform="translate(-30.5 -16.82)"/><path d="M523,49.09h1.56l1.2,5.54q.22,1,.4,2.08t.33,2.18l0-.23a1,1,0,0,1,0-.12l.25-1.56.23-1.48.2-1,1.06-5.44h1.58l1.25,13.57h-1.75L529,58.05l0-.61c0-.17,0-.31,0-.42l-.08-1.82,0-1.67s0,0,0-.07v-.15l0,.27q-.07.48-.13.84t-.1.61l-.23,1.24-.09.47-1.14,5.92h-1.23l-1.07-5.12q-.22-1-.39-2.05t-.31-2.18l-.53,9.35h-1.72Z" transform="translate(-30.5 -16.82)"/><path d="M536,59.59h1.56q-.18,3.21-2.64,3.21a2.68,2.68,0,0,1-1.25-.27,2.19,2.19,0,0,1-.87-.84,4.35,4.35,0,0,1-.51-1.45,11.67,11.67,0,0,1-.16-2.09,7.34,7.34,0,0,1,.67-3.57,2.24,2.24,0,0,1,2.08-1.16q2.73,0,2.73,4.82v.21h-3.84q0,2.92,1.16,2.92T536,59.59Zm-.09-2.36a6.14,6.14,0,0,0-.33-1.88.77.77,0,0,0-.74-.5.76.76,0,0,0-.74.5,6.14,6.14,0,0,0-.33,1.88Z" transform="translate(-30.5 -16.82)"/><path d="M544.32,47.73V62.66h-1.68V61.49a2.92,2.92,0,0,1-.72,1,1.51,1.51,0,0,1-1,.28,1.73,1.73,0,0,1-1.65-1.16,9.29,9.29,0,0,1-.53-3.63,14,14,0,0,1,.13-2.07,5.16,5.16,0,0,1,.4-1.43,1.94,1.94,0,0,1,.69-.83,1.84,1.84,0,0,1,1-.27,1.51,1.51,0,0,1,.91.26,1.82,1.82,0,0,1,.36.35,3.46,3.46,0,0,1,.36.56V47.73Zm-3.8,10.34a9,9,0,0,0,.24,2.5.89.89,0,0,0,.86.71q.56,0,.82-.74a8.55,8.55,0,0,0,.25-2.43,8.59,8.59,0,0,0-.25-2.44q-.25-.74-.82-.74a.89.89,0,0,0-.85.7A8,8,0,0,0,540.52,58.07Z" transform="translate(-30.5 -16.82)"/><path d="M547,49.7a1.14,1.14,0,0,1,1.13,1.13,1.14,1.14,0,1,1-2.28,0,1.08,1.08,0,0,1,.33-.79A1.17,1.17,0,0,1,547,49.7Zm-.79,3.87h1.69v9.1h-1.69Z" transform="translate(-30.5 -16.82)"/><path d="M549.8,53.56h1.68v6.08a2.41,2.41,0,0,0,.25,1.2.86.86,0,0,0,.78.36.92.92,0,0,0,.8-.32,2.16,2.16,0,0,0,.23-1.16V53.56h1.68V59a7.47,7.47,0,0,1-.28,2.55,2.42,2.42,0,0,1-2.44,1.25,2.56,2.56,0,0,1-2.07-.74,3.94,3.94,0,0,1-.62-2.49Z" transform="translate(-30.5 -16.82)"/><path d="M557.11,53.56h1.68v1.13a2.08,2.08,0,0,1,1.85-1.27,1.69,1.69,0,0,1,1.71,1.27,2.07,2.07,0,0,1,1.9-1.27,2,2,0,0,1,1.46.51,2,2,0,0,1,.51,1.49v7.25h-1.69v-6a3.26,3.26,0,0,0-.19-1.38.73.73,0,0,0-.72-.36.88.88,0,0,0-.83.37,3,3,0,0,0-.21,1.37v6h-1.74v-6a5.83,5.83,0,0,0,0-.82,1.55,1.55,0,0,0-.16-.54.7.7,0,0,0-.3-.29,1,1,0,0,0-.46-.09.9.9,0,0,0-.83.4,2.69,2.69,0,0,0-.25,1.34v6h-1.68Z" transform="translate(-30.5 -16.82)"/><path d="M571.63,53.75v1.57a2.13,2.13,0,0,0-1.29-.46,1.1,1.1,0,0,0-.76.29,1,1,0,0,0-.23.33,1,1,0,0,0-.08.4q0,.65,1.18,1.55a8.55,8.55,0,0,1,.79.69,3.13,3.13,0,0,1,.48.6,2.61,2.61,0,0,1,.34,1.4,2.7,2.7,0,0,1-.71,2,2.5,2.5,0,0,1-1.89.73,2.94,2.94,0,0,1-1.48-.43V60.74a2.34,2.34,0,0,0,1.38.54,1,1,0,0,0,1.15-1.13,1.26,1.26,0,0,0-.21-.73,2,2,0,0,0-.31-.35c-.14-.13-.31-.28-.52-.44A6.85,6.85,0,0,1,568,57.25a2.55,2.55,0,0,1-.37-1.4,2.49,2.49,0,0,1,.68-1.8,2.4,2.4,0,0,1,1.78-.69A3.12,3.12,0,0,1,571.63,53.75Z" transform="translate(-30.5 -16.82)"/></g></g></svg>