<svg id="Layer_2" data-name="Layer 2" xmlns="http://www.w3.org/2000/svg" viewBox="0 0 1036.92 1062.47"><defs><style>.cls-1{fill:#e5e023;opacity:0.2;}.cls-2{fill:#fff;stroke-width:0.5px;}.cls-2,.cls-43,.cls-44{stroke:#000;stroke-miterlimit:10;}.cls-3{opacity:0.7;font-size:20.85px;}.cls-23,.cls-25,.cls-27,.cls-29,.cls-3,.cls-30,.cls-45{font-family:Futura-CondensedMedium, Futura;}.cls-4{letter-spacing:0em;}.cls-5{letter-spacing:0em;}.cls-6{letter-spacing:0.03em;}.cls-7{letter-spacing:0em;}.cls-8{letter-spacing:0em;}.cls-9{letter-spacing:0.01em;}.cls-10{letter-spacing:0em;}.cls-11{letter-spacing:0em;}.cls-12{letter-spacing:0.02em;}.cls-13{letter-spacing:0em;}.cls-14{letter-spacing:0em;}.cls-15{letter-spacing:0em;}.cls-16{letter-spacing:-0.01em;}.cls-17{letter-spacing:0em;}.cls-18{letter-spacing:0em;}.cls-19{letter-spacing:0em;}.cls-20{letter-spacing:0.01em;}.cls-21{letter-spacing:0em;}.cls-22{letter-spacing:-0.01em;}.cls-23,.cls-25,.cls-27,.cls-29,.cls-30{font-size:20.96px;}.cls-24{letter-spacing:0.01em;}.cls-25{letter-spacing:-0.06em;}.cls-26{letter-spacing:0em;}.cls-27{letter-spacing:-0.06em;}.cls-28{letter-spacing:-0.06em;}.cls-29{letter-spacing:-0.06em;}.cls-30{letter-spacing:-0.06em;}.cls-31{letter-spacing:0em;}.cls-32{letter-spacing:0em;}.cls-33{letter-spacing:0em;}.cls-34{letter-spacing:0em;}.cls-35{letter-spacing:0em;}.cls-36{letter-spacing:0.01em;}.cls-37{letter-spacing:-0.02em;}.cls-38{letter-spacing:0em;}.cls-39{letter-spacing:-0.01em;}.cls-40{letter-spacing:0em;}.cls-41{letter-spacing:-0.03em;}.cls-42{opacity:0.3;}.cls-43,.cls-44{fill:none;}.cls-44{stroke-dasharray:2.99 2.99;}.cls-45{font-size:16.12px;}.cls-46{letter-spacing:-0.06em;}.cls-47{letter-spacing:-0.03em;}.cls-48{letter-spacing:-0.02em;}.cls-49{letter-spacing:-0.06em;}.cls-50{fill:#bdedb7;}.cls-51{fill:#daddd9;}.cls-52{letter-spacing:-0.07em;}.cls-53{letter-spacing:-0.09em;}.cls-54{letter-spacing:-0.01em;}.cls-55{letter-spacing:0em;}.cls-56{letter-spacing:-0.07em;}.cls-57{letter-spacing:-0.06em;}.cls-58{letter-spacing:-0.05em;}</style></defs><title>organization_type</title><rect class="cls-1" x="161.64" y="967.1" width="704.24" height="76.76"/><line class="cls-2" x1="161.64" y1="282.26" x2="288.97" y2="282.26"/><line class="cls-2" x1="161.64" y1="206.2" x2="288.97" y2="206.2"/><line class="cls-2" x1="161.64" y1="358.51" x2="288.97" y2="358.51"/><line class="cls-2" x1="161.64" y1="434.76" x2="288.97" y2="434.76"/><line class="cls-2" x1="161.64" y1="510.48" x2="288.97" y2="510.48"/><line class="cls-2" x1="161.64" y1="586.61" x2="288.97" y2="586.61"/><line class="cls-2" x1="309.6" y1="206.2" x2="387.8" y2="206.2"/><line class="cls-2" x1="309.6" y1="282.26" x2="387.8" y2="282.26"/><line class="cls-2" x1="309.6" y1="358.51" x2="387.8" y2="358.51"/><line class="cls-2" x1="309.6" y1="434.76" x2="387.8" y2="434.76"/><line class="cls-2" x1="309.6" y1="510.48" x2="387.8" y2="510.48"/><line class="cls-2" x1="309.6" y1="586.61" x2="387.8" y2="586.61"/><line class="cls-2" x1="432.59" y1="206.2" x2="865.88" y2="206.2"/><line class="cls-2" x1="161.64" y1="967.1" x2="288.97" y2="967.1"/><line class="cls-2" x1="161.64" y1="890.97" x2="288.97" y2="890.97"/><line class="cls-2" x1="161.64" y1="815.25" x2="288.97" y2="815.25"/><line class="cls-2" x1="161.64" y1="739.53" x2="288.97" y2="739.53"/><line class="cls-2" x1="161.64" y1="662.75" x2="288.97" y2="662.75"/><line class="cls-2" x1="309.6" y1="967.1" x2="387.8" y2="967.1"/><line class="cls-2" x1="309.6" y1="890.97" x2="387.8" y2="890.97"/><line class="cls-2" x1="309.6" y1="815.25" x2="387.8" y2="815.25"/><line class="cls-2" x1="309.6" y1="739.53" x2="387.8" y2="739.53"/><line class="cls-2" x1="309.6" y1="663.81" x2="387.8" y2="663.81"/><text class="cls-3" transform="translate(294.4 138.42)">Co<tspan class="cls-4" x="15.98" y="0">m</tspan><tspan x="28.68" y="0">plemen</tspan><tspan class="cls-5" x="77.61" y="0">t</tspan><tspan x="82.26" y="0">a</tspan><tspan class="cls-6" x="90.49" y="0">r</tspan><tspan x="96.6" y="0">y </tspan><tspan x="25.58" y="25.02">Cu</tspan><tspan class="cls-7" x="42.01" y="25.02">r</tspan><tspan class="cls-8" x="47.62" y="25.02">r</tspan><tspan x="53.25" y="25.02">ency</tspan><tspan x="27.81" y="50.04">S</tspan><tspan class="cls-9" x="35.59" y="50.04">y</tspan><tspan class="cls-10" x="43.4" y="50.04">s</tspan><tspan class="cls-11" x="49.63" y="50.04">t</tspan><tspan x="54.24" y="50.04">ems</tspan></text><text class="cls-3" transform="translate(488.72 185.82) rotate(-45)">Communit<tspan class="cls-12" x="67.14" y="0">y</tspan><tspan x="75.19" y="0">-Based (</tspan><tspan class="cls-13" x="128.18" y="0">U</tspan><tspan x="137.81" y="0">n</tspan><tspan class="cls-14" x="146.25" y="0">r</tspan><tspan x="151.88" y="0">egi</tspan><tspan class="cls-15" x="171.94" y="0">s</tspan><tspan class="cls-13" x="178.17" y="0">t</tspan><tspan x="182.79" y="0">e</tspan><tspan class="cls-14" x="190.47" y="0">r</tspan><tspan x="196.1" y="0">ed)</tspan></text><text class="cls-3" transform="translate(595.76 185.82) rotate(-45)">NGO (<tspan class="cls-16" x="39.88" y="0">R</tspan><tspan x="48.37" y="0">egi</tspan><tspan class="cls-15" x="68.44" y="0">s</tspan><tspan class="cls-13" x="74.67" y="0">t</tspan><tspan x="79.28" y="0">e</tspan><tspan class="cls-14" x="86.96" y="0">r</tspan><tspan x="92.59" y="0">ed)</tspan></text><text class="cls-3" transform="translate(704.55 185.82) rotate(-45)">P<tspan class="cls-17" x="8.27" y="0">r</tspan><tspan x="13.88" y="0">i</tspan><tspan class="cls-18" x="18.02" y="0">v</tspan><tspan x="25.03" y="0">a</tspan><tspan class="cls-13" x="33.26" y="0">t</tspan><tspan x="37.87" y="0">e En</tspan><tspan class="cls-13" x="65.89" y="0">t</tspan><tspan x="70.5" y="0">e</tspan><tspan class="cls-17" x="78.19" y="0">r</tspan><tspan x="83.8" y="0">p</tspan><tspan class="cls-19" x="92.02" y="0">r</tspan><tspan x="97.63" y="0">ise</tspan></text><text class="cls-3" transform="translate(816.49 185.82) rotate(-45)">Coope<tspan class="cls-20" x="39.93" y="0">r</tspan><tspan class="cls-21" x="45.62" y="0">ati</tspan><tspan class="cls-22" x="62.62" y="0">v</tspan><tspan x="69.58" y="0">e</tspan></text><text class="cls-23" transform="translate(212.15 250.49)">U<tspan class="cls-24" x="9.7" y="0">S</tspan><tspan x="17.76" y="0">A</tspan></text><text class="cls-23" transform="translate(340.02 250.49)">49</text><text class="cls-23" transform="translate(340.02 326.55)">28</text><text class="cls-23" transform="translate(340.02 402.61)">25</text><text class="cls-23" transform="translate(340.02 478.67)">23</text><text class="cls-25" transform="translate(340.68 554.81)">1<tspan class="cls-26" x="7.36" y="0">9</tspan></text><text class="cls-27" transform="translate(340.67 630.94)">1<tspan class="cls-26" x="7.38" y="0">5</tspan></text><text class="cls-23" transform="translate(340.6 707.13)"><tspan class="cls-28">1</tspan><tspan x="7.52" y="0">4</tspan></text><text class="cls-29" transform="translate(340.66 783.38)">1<tspan class="cls-26" x="7.4" y="0">3</tspan></text><text class="cls-30" transform="translate(340.65 859.37)">1<tspan class="cls-26" x="7.42" y="0">2</tspan></text><text class="cls-30" transform="translate(340.65 935.29)">1<tspan class="cls-26" x="7.42" y="0">2</tspan></text><text class="cls-23" transform="translate(335.68 1011.74)">296</text><text class="cls-23" transform="translate(195.15 326.55)">Ge<tspan class="cls-31" x="17.5" y="0">r</tspan><tspan x="23.14" y="0">ma</tspan><tspan class="cls-32" x="44.21" y="0">n</tspan><tspan class="cls-33" x="52.59" y="0">y</tspan></text><text class="cls-23" transform="translate(196.03 402.61)"><tspan class="cls-34">A</tspan><tspan x="8.52" y="0">u</tspan><tspan class="cls-35" x="17.04" y="0">s</tspan><tspan class="cls-26" x="23.3" y="0">t</tspan><tspan class="cls-36" x="27.96" y="0">r</tspan><tspan class="cls-33" x="33.68" y="0">alia</tspan></text><text class="cls-23" transform="translate(200.53 478.67)">Canada</text><text class="cls-23" transform="translate(198.16 554.81)">Belgium</text><text class="cls-23" transform="translate(216.04 630.94)">UK</text><text class="cls-23" transform="translate(206.8 707.13)">Spain</text><text class="cls-23" transform="translate(191.8 783.38)"><tspan class="cls-37">V</tspan><tspan x="7.35" y="0">enezuela</tspan></text><text class="cls-23" transform="translate(185.6 859.37)"><tspan class="cls-38">N</tspan><tspan x="9.82" y="0">ethe</tspan><tspan class="cls-31" x="38.42" y="0">r</tspan><tspan class="cls-33" x="44.06" y="0">lands</tspan></text><text class="cls-23" transform="translate(182.55 935.29)"><tspan class="cls-38">N</tspan><tspan class="cls-39" x="9.82" y="0">e</tspan><tspan x="17.43" y="0">w Zealand</tspan></text><text class="cls-23" transform="translate(182.67 1011.74)">Da<tspan class="cls-40" x="18.02" y="0">t</tspan><tspan x="22.7" y="0">aset </tspan><tspan class="cls-41" x="53.85" y="0">T</tspan><tspan class="cls-34" x="60.09" y="0">o</tspan><tspan class="cls-40" x="68.15" y="0">t</tspan><tspan x="72.83" y="0">al</tspan></text><g class="cls-42"><line class="cls-43" x1="539.79" y1="175.96" x2="539.79" y2="177.46"/><line class="cls-44" x1="539.79" y1="180.45" x2="539.79" y2="1040.87"/><line class="cls-43" x1="539.79" y1="1042.36" x2="539.79" y2="1043.86"/></g><g class="cls-42"><line class="cls-43" x1="648.49" y1="175.96" x2="648.49" y2="177.46"/><line class="cls-44" x1="648.49" y1="180.45" x2="648.49" y2="1040.87"/><line class="cls-43" x1="648.49" y1="1042.36" x2="648.49" y2="1043.86"/></g><g class="cls-42"><line class="cls-43" x1="757.19" y1="175.96" x2="757.19" y2="177.46"/><line class="cls-44" x1="757.19" y1="180.45" x2="757.19" y2="1040.87"/><line class="cls-43" x1="757.19" y1="1042.36" x2="757.19" y2="1043.86"/></g><text class="cls-45" transform="translate(475.75 378.84)">72%</text><text class="cls-45" transform="translate(582.79 317.97)">50%</text><text class="cls-45" transform="translate(691.49 334.36)">29%</text><text class="cls-45" transform="translate(800.68 419.53)"><tspan class="cls-46">1</tspan><tspan x="5.68" y="0">6%</tspan></text><text class="cls-45" transform="translate(803.52 273.87)">8%</text><text class="cls-45" transform="translate(582.79 485.36)">30%</text><text class="cls-45" transform="translate(476.25 528.19)"><tspan class="cls-46">7</tspan><tspan x="5.68" y="0">4%</tspan></text><text class="cls-45" transform="translate(476 625.03)"><tspan class="cls-47">4</tspan><tspan x="6.18" y="0">7%</tspan></text><text class="cls-45" transform="translate(475.88 694.55)"><tspan class="cls-48">5</tspan><tspan x="6.43" y="0">7%</tspan></text><text class="cls-45" transform="translate(586.13 813.33)">0%</text><text class="cls-45" transform="translate(694.83 813.33)">0%</text><text class="cls-45" transform="translate(694.83 964.96)">0%</text><text class="cls-45" transform="translate(803.52 964.96)">0%</text><text class="cls-45" transform="translate(803.52 813.33)">0%</text><text class="cls-45" transform="translate(803.52 508.4)">0%</text><text class="cls-45" transform="translate(694.83 432.71)">0%</text><text class="cls-45" transform="translate(583.28 650.43)"><tspan class="cls-49">1</tspan><tspan x="5.69" y="0">3%</tspan></text><rect class="cls-50" x="454.95" y="380.9" width="64.31" height="53.86"/><text class="cls-45" transform="translate(475.75 250.49)">39%</text><rect class="cls-50" x="454.95" y="252.49" width="64.31" height="29.76"/><rect class="cls-51" x="779.38" y="422.26" width="64.31" height="12.34"/><text class="cls-45" transform="translate(586.13 428.49)">4%</text><rect class="cls-51" x="561.98" y="431.71" width="64.31" height="3.11"/><text class="cls-45" transform="translate(479.09 352.18)">4%</text><rect class="cls-51" x="454.95" y="355.4" width="64.31" height="3.11"/><rect class="cls-51" x="779.38" y="878.17" width="64.31" height="12.8"/><text class="cls-45" transform="translate(583.32 874.95)"><tspan class="cls-52">1</tspan><tspan x="5.61" y="0">7%</tspan></text><rect class="cls-51" x="561.98" y="877.94" width="64.31" height="12.8"/><text class="cls-45" transform="translate(692.02 874.95)"><tspan class="cls-52">1</tspan><tspan x="5.61" y="0">7%</tspan></text><rect class="cls-51" x="670.68" y="877.94" width="64.31" height="12.8"/><text class="cls-45" transform="translate(583.32 951.31)"><tspan class="cls-52">1</tspan><tspan x="5.61" y="0">7%</tspan></text><rect class="cls-51" x="561.98" y="954.31" width="64.31" height="12.8"/><rect class="cls-51" x="670.68" y="336.12" width="64.31" height="22.11"/><text class="cls-45" transform="translate(800.88 576.5)"><tspan class="cls-53">1</tspan><tspan x="5.29" y="0">1%</tspan></text><rect class="cls-51" x="779.38" y="578.63" width="64.31" height="8.23"/><rect class="cls-51" x="779.38" y="276.14" width="64.31" height="6.12"/><rect class="cls-50" x="561.98" y="319.96" width="64.31" height="38.27"/><text class="cls-45" transform="translate(582.79 261.75)">22%</text><text class="cls-45" transform="translate(691.58 259.32)"><tspan class="cls-54">2</tspan><tspan x="6.49" y="0">7%</tspan></text><rect class="cls-51" x="561.98" y="265.35" width="64.31" height="16.91"/><text class="cls-45" transform="translate(691.49 489.7)">22%</text><rect class="cls-51" x="670.68" y="493.3" width="64.31" height="16.91"/><rect class="cls-51" x="670.68" y="261.75" width="64.31" height="20.57"/><text class="cls-45" transform="translate(582.88 1019.76)"><tspan class="cls-54">2</tspan><tspan x="6.49" y="0">7%</tspan></text><rect class="cls-51" x="561.98" y="1023.19" width="64.31" height="20.57"/><text class="cls-45" transform="translate(475.73 1008.41)"><tspan class="cls-55">4</tspan><tspan x="6.72" y="0">4%</tspan></text><rect class="cls-50" x="454.95" y="1010.41" width="64.31" height="33.45"/><rect class="cls-51" x="779.38" y="1040.81" width="64.31" height="2.83"/><text class="cls-45" transform="translate(692.02 1027.99)"><tspan class="cls-56">1</tspan><tspan x="5.61" y="0">7%</tspan></text><text class="cls-45" transform="translate(803.52 1038.79)">6%</text><rect class="cls-51" x="670.68" y="1030.15" width="64.31" height="13.71"/><text class="cls-45" transform="translate(800.63 725.68)"><tspan class="cls-57">1</tspan><tspan x="5.79" y="0">4%</tspan></text><rect class="cls-51" x="779.38" y="728.59" width="64.31" height="10.51"/><rect class="cls-51" x="561.98" y="652.79" width="64.31" height="10.05"/><text class="cls-45" transform="translate(586.13 580.4)">5%</text><rect class="cls-51" x="561.98" y="582.59" width="64.31" height="3.83"/><text class="cls-45" transform="translate(694.83 580.65)">5%</text><rect class="cls-51" x="670.68" y="582.84" width="64.31" height="3.83"/><rect class="cls-51" x="561.98" y="487.8" width="64.31" height="22.68"/><text class="cls-45" transform="translate(475.75 472.06)">48%</text><rect class="cls-50" x="454.95" y="473.63" width="64.31" height="36.85"/><rect class="cls-50" x="454.95" y="529.8" width="64.31" height="56.69"/><rect class="cls-50" x="454.95" y="627.03" width="64.31" height="35.72"/><rect class="cls-50" x="454.95" y="697.87" width="64.31" height="41.13"/><rect class="cls-50" x="454.95" y="739.53" width="64.31" height="75.72"/><rect class="cls-50" x="454.95" y="903.55" width="64.31" height="63.5"/><text class="cls-45" transform="translate(800.72 875.85)"><tspan class="cls-56">1</tspan><tspan x="5.61" y="0">7%</tspan></text><text class="cls-45" transform="translate(691.49 633.06)">33%</text><rect class="cls-51" x="670.68" y="637.15" width="64.31" height="25.59"/><text class="cls-45" transform="translate(475.75 869.03)">25%</text><rect class="cls-50" x="454.95" y="872.46" width="64.31" height="18.28"/><line class="cls-2" x1="432.59" y1="434.76" x2="865.88" y2="434.76"/><line class="cls-2" x1="431.09" y1="586.61" x2="865.88" y2="586.61"/><line class="cls-2" x1="432.59" y1="510.48" x2="865.88" y2="510.48"/><line class="cls-2" x1="432.59" y1="282.26" x2="865.88" y2="282.26"/><line class="cls-2" x1="431.09" y1="890.97" x2="865.88" y2="890.97"/><line class="cls-2" x1="431.09" y1="967.1" x2="865.88" y2="967.1"/><line class="cls-2" x1="161.64" y1="1043.86" x2="288.97" y2="1043.86"/><line class="cls-2" x1="309.6" y1="1043.86" x2="387.8" y2="1043.86"/><line class="cls-2" x1="431.09" y1="1043.86" x2="865.88" y2="1043.86"/><text class="cls-45" transform="translate(475.75 940.11)">83%</text><text class="cls-45" transform="translate(472.82 782.21)"><tspan class="cls-58">1</tspan><tspan x="5.86" y="0">00%</tspan></text><text class="cls-45" transform="translate(586.13 731.3)">7%</text><rect class="cls-51" x="561.98" y="733.52" width="64.31" height="5.1"/><text class="cls-45" transform="translate(694.83 731.48)">7%</text><rect class="cls-51" x="670.68" y="733.71" width="64.31" height="5.1"/><text class="cls-45" transform="translate(803.52 655.27)">7%</text><rect class="cls-51" x="779.38" y="657.49" width="64.31" height="5.1"/><text class="cls-45" transform="translate(803.52 351.13)">7%</text><rect class="cls-51" x="779.38" y="353.35" width="64.31" height="5.1"/><line class="cls-2" x1="431.09" y1="739" x2="865.88" y2="739"/><line class="cls-2" x1="431.09" y1="815.25" x2="865.88" y2="815.25"/><line class="cls-2" x1="432.59" y1="358.51" x2="865.88" y2="358.51"/><line class="cls-2" x1="431.09" y1="662.75" x2="865.88" y2="662.75"/></svg>