<svg id="Layer_2" data-name="Layer 2" xmlns="http://www.w3.org/2000/svg" viewBox="0 0 487.63 58.3"><defs><style>.cls-1,.cls-5{isolation:isolate;}.cls-2{fill:none;stroke:#000;stroke-miterlimit:10;}.cls-3{fill:#bdedb7;}.cls-4{fill:#daddd9;}.cls-5{opacity:0.9;}</style></defs><title>organization_type_TITLE</title><g class="cls-1"><g class="cls-1"><path d="M71.8,43.82Q71.8,51,70.2,54a5.58,5.58,0,0,1-5.36,3,5.71,5.71,0,0,1-5.57-3.25q-1.6-3.18-1.6-11.3,0-7.24,1.58-10.25a5.63,5.63,0,0,1,5.41-3,5.78,5.78,0,0,1,5.06,2.34A11.08,11.08,0,0,1,71.31,36,46.27,46.27,0,0,1,71.8,43.82ZM68,44.2q0-7-.63-9.35t-2.58-2.32a2.59,2.59,0,0,0-2.6,2.13q-.63,2.14-.63,8.61a34.22,34.22,0,0,0,.67,8.26,2.62,2.62,0,0,0,2.57,2.18,2.56,2.56,0,0,0,2.53-2A27,27,0,0,0,68,44.2Z" transform="translate(-57.67 -16.82)"/></g><g class="cls-1"><path d="M75.23,38.53h3.36v2.27a6.42,6.42,0,0,1,1.71-2,4.38,4.38,0,0,1,2.23-.67v3.52a4.13,4.13,0,0,0-.6-.05,3.19,3.19,0,0,0-2.58.93,5.12,5.12,0,0,0-.76,3.2v11H75.23Z" transform="translate(-57.67 -16.82)"/></g><g class="cls-1"><path d="M92.11,38.53h3.38V57.3A11.31,11.31,0,0,1,94.81,62q-1.23,2.39-4.94,2.39A5.18,5.18,0,0,1,86,63a5.11,5.11,0,0,1-1.41-3.78l0-.56h3.25q0,2.9,2.16,2.9a1.68,1.68,0,0,0,1.6-.74A5.92,5.92,0,0,0,92.11,58V54.5A3.5,3.5,0,0,1,88.82,57a3.54,3.54,0,0,1-3.37-2.21,16.64,16.64,0,0,1-1.08-6.93,19.51,19.51,0,0,1,1-7.37,3.49,3.49,0,0,1,3.39-2.27,2.9,2.9,0,0,1,1.83.54,6.41,6.41,0,0,1,1.48,1.93Zm.05,9.26q0-6.52-2.25-6.52-1.07,0-1.56,1.47a16.15,16.15,0,0,0-.49,4.7,18.19,18.19,0,0,0,.51,5Q88.89,54,90.12,54a1.64,1.64,0,0,0,1.6-1.34A17.32,17.32,0,0,0,92.16,47.79Z" transform="translate(-57.67 -16.82)"/></g><g class="cls-1"><path d="M109.7,38.53V56.72h-3.36V54.38a5.83,5.83,0,0,1-1.44,2.06A3,3,0,0,1,103,57a3.48,3.48,0,0,1-3.32-2.32,18.67,18.67,0,0,1-1.05-7.28,17.14,17.14,0,0,1,1.05-7A3.48,3.48,0,0,1,103,38.23a3.77,3.77,0,0,1,3.34,2.36V38.53Zm-7.59,9a18,18,0,0,0,.47,5A1.78,1.78,0,0,0,104.3,54q1.13,0,1.63-1.48a17.1,17.1,0,0,0,.51-4.87,17.19,17.19,0,0,0-.51-4.89q-.51-1.48-1.63-1.48a1.79,1.79,0,0,0-1.71,1.41A15.94,15.94,0,0,0,102.1,47.54Z" transform="translate(-57.67 -16.82)"/><path d="M113.51,38.53h3.36v2.09a4.27,4.27,0,0,1,3.73-2.39A3.32,3.32,0,0,1,123.76,40a9.17,9.17,0,0,1,.53,3.81V56.72h-3.36l0-12.16a5.66,5.66,0,0,0-.44-2.62,1.59,1.59,0,0,0-1.51-.77,2.13,2.13,0,0,0-1,.2,1.53,1.53,0,0,0-.64.65,3.62,3.62,0,0,0-.36,1.17,11.6,11.6,0,0,0-.11,1.78V56.72h-3.36Z" transform="translate(-57.67 -16.82)"/><path d="M129.67,30.79a2.28,2.28,0,0,1,2.25,2.27,2.28,2.28,0,1,1-4.55,0,2.16,2.16,0,0,1,.67-1.58A2.34,2.34,0,0,1,129.67,30.79Zm-1.58,7.73h3.38V56.72h-3.37Z" transform="translate(-57.67 -16.82)"/><path d="M134.38,38.53h10.56l-6.08,15.15h5.77v3H133.88l6.29-15.22h-5.8Z" transform="translate(-57.67 -16.82)"/><path d="M157.77,38.53V56.72h-3.36V54.38A5.83,5.83,0,0,1,153,56.44a3,3,0,0,1-1.9.56,3.48,3.48,0,0,1-3.32-2.32,18.67,18.67,0,0,1-1.05-7.28,17.14,17.14,0,0,1,1.05-7,3.48,3.48,0,0,1,3.32-2.22,3.77,3.77,0,0,1,3.34,2.36V38.53Zm-7.59,9a18,18,0,0,0,.47,5A1.78,1.78,0,0,0,152.38,54q1.13,0,1.63-1.48a17.1,17.1,0,0,0,.51-4.87,17.19,17.19,0,0,0-.51-4.89q-.51-1.48-1.63-1.48a1.79,1.79,0,0,0-1.71,1.41A15.94,15.94,0,0,0,150.18,47.54Z" transform="translate(-57.67 -16.82)"/><path d="M162,33.43h3.36v5.1h1.83V41.2h-1.83V56.72H162V41.2h-1.85V38.53H162Z" transform="translate(-57.67 -16.82)"/><path d="M171.17,30.79a2.28,2.28,0,0,1,2.25,2.27,2.28,2.28,0,1,1-4.55,0,2.16,2.16,0,0,1,.67-1.58A2.34,2.34,0,0,1,171.17,30.79Zm-1.58,7.73H173V56.72h-3.37Z" transform="translate(-57.67 -16.82)"/><path d="M187.48,47.77q0,9.23-5.71,9.23t-5.71-9.37q0-9.4,5.7-9.4a5.47,5.47,0,0,1,2.56.56,4.49,4.49,0,0,1,1.78,1.74,9.13,9.13,0,0,1,1,3A23.07,23.07,0,0,1,187.48,47.77ZM184,47.68a17.79,17.79,0,0,0-.47-5,1.75,1.75,0,0,0-1.69-1.42,1.79,1.79,0,0,0-1.71,1.41,17.34,17.34,0,0,0-.47,4.9,17.13,17.13,0,0,0,.47,4.89,1.79,1.79,0,0,0,1.71,1.41,1.73,1.73,0,0,0,1.67-1.39A15.6,15.6,0,0,0,184,47.68Z" transform="translate(-57.67 -16.82)"/><path d="M190.61,38.53H194v2.09a4.27,4.27,0,0,1,3.73-2.39A3.32,3.32,0,0,1,200.86,40a9.17,9.17,0,0,1,.53,3.81V56.72H198l0-12.16a5.66,5.66,0,0,0-.44-2.62,1.59,1.59,0,0,0-1.51-.77,2.13,2.13,0,0,0-1,.2,1.53,1.53,0,0,0-.64.65,3.62,3.62,0,0,0-.36,1.17A11.6,11.6,0,0,0,194,45V56.72h-3.36Z" transform="translate(-57.67 -16.82)"/><path d="M213,33.43h3.36v5.1h1.83V41.2H216.4V56.72H213V41.2h-1.85V38.53H213Z" transform="translate(-57.67 -16.82)"/><path d="M218.88,38.53h3.8l2.67,12.69,3.13-12.69h3.41l-7.44,25.65h-3.53l2.79-8.91Z" transform="translate(-57.67 -16.82)"/><path d="M233.9,64.17V38.53h3.36v2.36a5.75,5.75,0,0,1,1.44-2.07,3,3,0,0,1,1.93-.58,3.46,3.46,0,0,1,3.3,2.33,18.88,18.88,0,0,1,1,7.29q0,4.85-1.07,7A3.53,3.53,0,0,1,240.51,57a3.12,3.12,0,0,1-1.85-.51,3.31,3.31,0,0,1-.7-.7,8.28,8.28,0,0,1-.7-1.11v9.49Zm7.59-16.45a16.81,16.81,0,0,0-.49-5,1.75,1.75,0,0,0-1.71-1.42q-1.16,0-1.65,1.48a16.44,16.44,0,0,0-.49,4.89,16.44,16.44,0,0,0,.49,4.89Q238.16,54,239.3,54A1.79,1.79,0,0,0,241,52.57,15.85,15.85,0,0,0,241.5,47.72Z" transform="translate(-57.67 -16.82)"/><path d="M255.14,50.58h3.13Q257.9,57,253,57a5.36,5.36,0,0,1-2.5-.54,4.38,4.38,0,0,1-1.73-1.69,8.71,8.71,0,0,1-1-2.9,23.33,23.33,0,0,1-.33-4.18q0-4.82,1.34-7.14a4.48,4.48,0,0,1,4.16-2.32q5.47,0,5.47,9.63v.42h-7.68q0,5.84,2.32,5.84Q255.14,54.12,255.14,50.58ZM255,45.86a12.27,12.27,0,0,0-.65-3.76,1.53,1.53,0,0,0-1.48-1,1.51,1.51,0,0,0-1.48,1,12.27,12.27,0,0,0-.65,3.76Z" transform="translate(-57.67 -16.82)"/><path d="M268.83,26.85h3.36V40.58a6.93,6.93,0,0,1,.72-1.12,3.65,3.65,0,0,1,.72-.7,3,3,0,0,1,1.83-.53,3.66,3.66,0,0,1,2,.54,3.87,3.87,0,0,1,1.38,1.66,10.32,10.32,0,0,1,.8,2.87,28,28,0,0,1,.26,4.13,18.6,18.6,0,0,1-1.05,7.27,3.47,3.47,0,0,1-3.3,2.31,3,3,0,0,1-1.92-.56,5.83,5.83,0,0,1-1.44-2.06v2.34h-3.36Zm7.59,20.87a16.81,16.81,0,0,0-.49-5,1.75,1.75,0,0,0-1.71-1.42q-1.16,0-1.63,1.44a17.54,17.54,0,0,0-.47,4.92,17.65,17.65,0,0,0,.47,4.92q.47,1.42,1.63,1.42a1.79,1.79,0,0,0,1.71-1.41A15.85,15.85,0,0,0,276.43,47.72Z" transform="translate(-57.67 -16.82)"/></g><g class="cls-1"><path d="M283,38.53h3.36v2.27a6.42,6.42,0,0,1,1.71-2,4.38,4.38,0,0,1,2.23-.67v3.52a4.13,4.13,0,0,0-.6-.05,3.19,3.19,0,0,0-2.58.93,5.12,5.12,0,0,0-.76,3.2v11H283Z" transform="translate(-57.67 -16.82)"/></g><g class="cls-1"><path d="M299.79,50.58h3.13Q302.55,57,297.65,57a5.36,5.36,0,0,1-2.5-.54,4.38,4.38,0,0,1-1.73-1.69,8.71,8.71,0,0,1-1-2.9,23.33,23.33,0,0,1-.33-4.18q0-4.82,1.34-7.14a4.48,4.48,0,0,1,4.16-2.32q5.47,0,5.47,9.63v.42h-7.68q0,5.84,2.32,5.84Q299.79,54.12,299.79,50.58Zm-.18-4.73a12.27,12.27,0,0,0-.65-3.76,1.53,1.53,0,0,0-1.48-1,1.51,1.51,0,0,0-1.48,1,12.27,12.27,0,0,0-.65,3.76Z" transform="translate(-57.67 -16.82)"/><path d="M316.42,38.53V56.72h-3.36V54.38a5.83,5.83,0,0,1-1.44,2.06,3,3,0,0,1-1.9.56,3.48,3.48,0,0,1-3.32-2.32,18.67,18.67,0,0,1-1.05-7.28,17.14,17.14,0,0,1,1.05-7,3.48,3.48,0,0,1,3.32-2.22,3.77,3.77,0,0,1,3.34,2.36V38.53Zm-7.59,9a18,18,0,0,0,.47,5A1.78,1.78,0,0,0,311,54q1.13,0,1.63-1.48a17.1,17.1,0,0,0,.51-4.87,17.19,17.19,0,0,0-.51-4.89q-.51-1.48-1.63-1.48a1.79,1.79,0,0,0-1.71,1.41A15.94,15.94,0,0,0,308.83,47.54Z" transform="translate(-57.67 -16.82)"/><path d="M320.23,26.85h3.36V46.63l4.27-8.1h3.8L327,46.63l5.26,10.09h-3.94l-4.75-9.67v9.67h-3.36Z" transform="translate(-57.67 -16.82)"/><path d="M344.7,26.85V56.72h-3.36V54.38a5.83,5.83,0,0,1-1.44,2.06A3,3,0,0,1,338,57a3.47,3.47,0,0,1-3.3-2.31,18.6,18.6,0,0,1-1.05-7.27,28,28,0,0,1,.26-4.13,10.32,10.32,0,0,1,.8-2.87,3.87,3.87,0,0,1,1.38-1.66,3.66,3.66,0,0,1,2-.54,3,3,0,0,1,1.83.53,3.65,3.65,0,0,1,.72.7,6.93,6.93,0,0,1,.72,1.13V26.85Zm-7.59,20.69a18,18,0,0,0,.47,5A1.78,1.78,0,0,0,339.31,54q1.13,0,1.63-1.48a17.1,17.1,0,0,0,.51-4.87,17.19,17.19,0,0,0-.51-4.89q-.51-1.48-1.63-1.48a1.79,1.79,0,0,0-1.71,1.41A15.94,15.94,0,0,0,337.11,47.54Z" transform="translate(-57.67 -16.82)"/></g><g class="cls-1"><path d="M359.26,47.77q0,9.23-5.71,9.23t-5.71-9.37q0-9.4,5.7-9.4a5.47,5.47,0,0,1,2.56.56,4.49,4.49,0,0,1,1.78,1.74,9.13,9.13,0,0,1,1,3A23.07,23.07,0,0,1,359.26,47.77Zm-3.48-.09a17.79,17.79,0,0,0-.47-5,1.75,1.75,0,0,0-1.69-1.42,1.79,1.79,0,0,0-1.71,1.41,17.34,17.34,0,0,0-.47,4.9,17.13,17.13,0,0,0,.47,4.89,1.79,1.79,0,0,0,1.71,1.41,1.73,1.73,0,0,0,1.67-1.39A15.6,15.6,0,0,0,355.78,47.68Z" transform="translate(-57.67 -16.82)"/></g><g class="cls-1"><path d="M360.5,38.53h3.55l1,5.85q.3,1.76.54,3.39T366,51l.05.63.07-.67q.14-1.27.29-2.33t.33-2l.28-1.39,1.25-6.71h2.44l1.18,6.71.39,2.11q.12.6.23,1.49t.21,2.1l.07.65q.32-3.27.9-6.35l1.25-6.71h3.3L374,56.72h-2.32l-1.39-6.94q-.25-1.27-.42-2.59t-.3-2.82q0-.18,0-.42t-.05-.58q-.11,1.6-.3,3.1t-.47,3l-1.41,7.26h-2.32Z" transform="translate(-57.67 -16.82)"/><path d="M380.4,38.53h3.36v2.09a4.27,4.27,0,0,1,3.73-2.39A3.32,3.32,0,0,1,390.65,40a9.17,9.17,0,0,1,.53,3.81V56.72h-3.36l0-12.16a5.66,5.66,0,0,0-.44-2.62,1.59,1.59,0,0,0-1.51-.77,2.13,2.13,0,0,0-1,.2,1.53,1.53,0,0,0-.64.65,3.62,3.62,0,0,0-.36,1.17,11.6,11.6,0,0,0-.11,1.78V56.72H380.4Z" transform="translate(-57.67 -16.82)"/></g></g><line class="cls-2" x1="350.88" x2="350.88" y2="58.3"/><rect class="cls-3" x="368.43" y="12.77" width="10.14" height="10.14"/><rect class="cls-4" x="368.43" y="35.39" width="10.14" height="10.14"/><g class="cls-1"><g class="cls-5"><path d="M453,26.47h2.41a3.25,3.25,0,0,1,2.53.88,4.16,4.16,0,0,1,.79,2.81q0,2.71-1.59,3.5a5.82,5.82,0,0,1-2.31.36v6H453Zm1.83,6a2.11,2.11,0,0,0,1.56-.46,2.41,2.41,0,0,0,.44-1.65,3,3,0,0,0-.42-1.78,1.55,1.55,0,0,0-1.33-.56h-.25Z" transform="translate(-57.67 -16.82)"/></g><g class="cls-1"><path d="M460,30.94h1.68v1.13a3.21,3.21,0,0,1,.85-1,2.19,2.19,0,0,1,1.12-.33v1.76l-.3,0a1.59,1.59,0,0,0-1.29.47,2.56,2.56,0,0,0-.38,1.6V40H460Z" transform="translate(-57.67 -16.82)"/></g><g class="cls-1"><path d="M465.66,27.08a1.14,1.14,0,0,1,1.13,1.13,1.14,1.14,0,1,1-2.28,0,1.08,1.08,0,0,1,.33-.79A1.17,1.17,0,0,1,465.66,27.08Zm-.79,3.87h1.69V40h-1.69Z" transform="translate(-57.67 -16.82)"/><path d="M468.45,30.94h1.68v1.12A2.08,2.08,0,0,1,472,30.79a1.69,1.69,0,0,1,1.71,1.27,2.07,2.07,0,0,1,1.9-1.27,2,2,0,0,1,1.46.51,2,2,0,0,1,.5,1.49V40h-1.69v-6a3.26,3.26,0,0,0-.19-1.38.73.73,0,0,0-.72-.36.88.88,0,0,0-.83.37,3,3,0,0,0-.21,1.37v6h-1.74v-6a5.84,5.84,0,0,0,0-.82,1.55,1.55,0,0,0-.16-.54.7.7,0,0,0-.3-.29,1,1,0,0,0-.46-.09.9.9,0,0,0-.83.4,2.69,2.69,0,0,0-.25,1.34v6h-1.68Z" transform="translate(-57.67 -16.82)"/><path d="M484.64,30.94V40H483V38.87a2.92,2.92,0,0,1-.72,1,1.5,1.5,0,0,1-.95.28A1.74,1.74,0,0,1,479.63,39a9.33,9.33,0,0,1-.53-3.64,8.58,8.58,0,0,1,.53-3.48,1.74,1.74,0,0,1,1.66-1.11A1.89,1.89,0,0,1,483,32v-1Zm-3.8,4.51a9,9,0,0,0,.24,2.5.89.89,0,0,0,.86.71q.56,0,.82-.74A8.55,8.55,0,0,0,483,35.5a8.59,8.59,0,0,0-.25-2.44q-.25-.74-.82-.74a.89.89,0,0,0-.85.7A8,8,0,0,0,480.84,35.45Z" transform="translate(-57.67 -16.82)"/></g><g class="cls-1"><path d="M486.54,30.94h1.68v1.13a3.21,3.21,0,0,1,.85-1,2.19,2.19,0,0,1,1.12-.33v1.76l-.3,0a1.59,1.59,0,0,0-1.29.47,2.56,2.56,0,0,0-.38,1.6V40h-1.68Z" transform="translate(-57.67 -16.82)"/></g><g class="cls-1"><path d="M490.94,30.94h1.9l1.34,6.35,1.56-6.35h1.71l-3.72,12.82H492l1.4-4.46Z" transform="translate(-57.67 -16.82)"/></g><g class="cls-1"><path d="M501.2,26.47h6v1.6h-2V40H503.3v-12H501.2Z" transform="translate(-57.67 -16.82)"/></g><g class="cls-1"><path d="M506.84,30.94h1.9l1.34,6.35,1.56-6.35h1.71l-3.72,12.82h-1.77l1.4-4.46Z" transform="translate(-57.67 -16.82)"/><path d="M514.36,43.77V30.94H516v1.18a2.87,2.87,0,0,1,.72-1,1.52,1.52,0,0,1,1-.29A1.73,1.73,0,0,1,519.37,32a9.45,9.45,0,0,1,.52,3.64,8.28,8.28,0,0,1-.54,3.49,1.76,1.76,0,0,1-1.7,1.09,1.56,1.56,0,0,1-.92-.25,1.66,1.66,0,0,1-.35-.35A4.14,4.14,0,0,1,516,39v4.75Zm3.8-8.23a8.41,8.41,0,0,0-.25-2.51.88.88,0,0,0-.85-.71q-.58,0-.83.74A8.22,8.22,0,0,0,516,35.5a8.22,8.22,0,0,0,.25,2.44q.25.73.83.73a.89.89,0,0,0,.85-.7A7.93,7.93,0,0,0,518.15,35.54Z" transform="translate(-57.67 -16.82)"/><path d="M525,37h1.56q-.18,3.21-2.64,3.21a2.68,2.68,0,0,1-1.25-.27,2.19,2.19,0,0,1-.87-.84,4.36,4.36,0,0,1-.5-1.45,11.66,11.66,0,0,1-.16-2.09,7.34,7.34,0,0,1,.67-3.57,2.24,2.24,0,0,1,2.08-1.16q2.73,0,2.73,4.82v.21h-3.84q0,2.92,1.16,2.92T525,37Zm-.09-2.36a6.13,6.13,0,0,0-.33-1.88.77.77,0,0,0-.74-.5.76.76,0,0,0-.74.5,6.15,6.15,0,0,0-.32,1.88Z" transform="translate(-57.67 -16.82)"/></g></g><g class="cls-1"><g class="cls-5"><path d="M457.51,49.36v1.78a2.68,2.68,0,0,0-1.5-.6,1.51,1.51,0,0,0-1.18.51,1.8,1.8,0,0,0-.46,1.29,2.22,2.22,0,0,0,.33,1.22,5.39,5.39,0,0,0,.55.7q.38.43,1,1a8.12,8.12,0,0,1,1.52,2,4.31,4.31,0,0,1,.4,2,3.81,3.81,0,0,1-.89,2.59,2.92,2.92,0,0,1-2.28,1,3.15,3.15,0,0,1-2-.64V60.37a3.11,3.11,0,0,0,1.78.71,1.45,1.45,0,0,0,1.17-.5,2,2,0,0,0,.42-1.35A2.7,2.7,0,0,0,456,57.9a5.5,5.5,0,0,0-.47-.65q-.3-.36-.75-.81-.69-.69-1.15-1.21a5.72,5.72,0,0,1-.68-.92,4,4,0,0,1-.42-2,3.66,3.66,0,0,1,.83-2.52,2.85,2.85,0,0,1,2.24-.94A4,4,0,0,1,457.51,49.36Z" transform="translate(-57.67 -16.82)"/><path d="M463.12,59.58h1.56q-.18,3.21-2.64,3.21a2.68,2.68,0,0,1-1.25-.27,2.19,2.19,0,0,1-.87-.84,4.35,4.35,0,0,1-.51-1.45,11.67,11.67,0,0,1-.16-2.09,7.34,7.34,0,0,1,.67-3.57A2.24,2.24,0,0,1,462,53.4q2.73,0,2.73,4.82v.21h-3.84q0,2.92,1.16,2.92T463.12,59.58ZM463,57.22a6.14,6.14,0,0,0-.33-1.88.77.77,0,0,0-.74-.5.76.76,0,0,0-.74.5,6.14,6.14,0,0,0-.33,1.88Z" transform="translate(-57.67 -16.82)"/><path d="M470,53.73v1.71a1.06,1.06,0,0,0-.84-.43q-1.39,0-1.39,3,0,3.19,1.38,3.19a1.48,1.48,0,0,0,.85-.34v1.57a2.88,2.88,0,0,1-1.35.35q-2.71,0-2.71-4.61a7.53,7.53,0,0,1,.67-3.62,2.23,2.23,0,0,1,2.07-1.16A2.88,2.88,0,0,1,470,53.73Z" transform="translate(-57.67 -16.82)"/><path d="M476.75,58.18q0,4.61-2.86,4.61T471,58.11q0-4.7,2.85-4.7a2.73,2.73,0,0,1,1.28.28,2.25,2.25,0,0,1,.89.87,4.57,4.57,0,0,1,.52,1.49A11.53,11.53,0,0,1,476.75,58.18Zm-1.74,0a8.89,8.89,0,0,0-.24-2.5.87.87,0,0,0-.84-.71.89.89,0,0,0-.85.7,8.67,8.67,0,0,0-.24,2.45,8.57,8.57,0,0,0,.24,2.44.89.89,0,0,0,.85.7.86.86,0,0,0,.83-.69A7.8,7.8,0,0,0,475,58.13Z" transform="translate(-57.67 -16.82)"/><path d="M478.32,53.55H480v1a2.13,2.13,0,0,1,1.86-1.2,1.66,1.66,0,0,1,1.58.87,4.59,4.59,0,0,1,.26,1.91v6.47H482V56.57a2.83,2.83,0,0,0-.22-1.31.8.8,0,0,0-.76-.39,1.08,1.08,0,0,0-.49.1.77.77,0,0,0-.32.33,1.8,1.8,0,0,0-.18.58,5.81,5.81,0,0,0-.06.89v5.88h-1.68Z" transform="translate(-57.67 -16.82)"/><path d="M490.8,47.72V62.65h-1.68V61.48a2.92,2.92,0,0,1-.72,1,1.51,1.51,0,0,1-1,.28,1.73,1.73,0,0,1-1.65-1.16,9.29,9.29,0,0,1-.53-3.63,14,14,0,0,1,.13-2.07,5.16,5.16,0,0,1,.4-1.43,1.94,1.94,0,0,1,.69-.83,1.84,1.84,0,0,1,1-.27,1.51,1.51,0,0,1,.91.26,1.82,1.82,0,0,1,.36.35,3.46,3.46,0,0,1,.36.56V47.72ZM487,58.06a9,9,0,0,0,.24,2.5.89.89,0,0,0,.86.71q.56,0,.82-.74a8.55,8.55,0,0,0,.25-2.43,8.59,8.59,0,0,0-.25-2.44q-.25-.74-.82-.74a.89.89,0,0,0-.85.7A8,8,0,0,0,487,58.06Z" transform="translate(-57.67 -16.82)"/><path d="M497.9,53.55v9.1h-1.68V61.48a2.92,2.92,0,0,1-.72,1,1.5,1.5,0,0,1-.95.28,1.74,1.74,0,0,1-1.66-1.16,9.33,9.33,0,0,1-.53-3.64,8.58,8.58,0,0,1,.53-3.48,1.74,1.74,0,0,1,1.66-1.11,1.89,1.89,0,0,1,1.67,1.18v-1Zm-3.8,4.51a9,9,0,0,0,.24,2.5.89.89,0,0,0,.86.71q.56,0,.82-.74a8.55,8.55,0,0,0,.25-2.43,8.59,8.59,0,0,0-.25-2.44q-.25-.74-.82-.74a.89.89,0,0,0-.85.7A8,8,0,0,0,494.1,58.06Z" transform="translate(-57.67 -16.82)"/></g><g class="cls-1"><path d="M499.81,53.55h1.68v1.13a3.21,3.21,0,0,1,.85-1,2.19,2.19,0,0,1,1.12-.33V55.1l-.3,0a1.59,1.59,0,0,0-1.29.47,2.56,2.56,0,0,0-.38,1.6v5.51h-1.68Z" transform="translate(-57.67 -16.82)"/></g><g class="cls-1"><path d="M504.2,53.55h1.9l1.34,6.35L509,53.55h1.71L507,66.38h-1.77l1.4-4.46Z" transform="translate(-57.67 -16.82)"/></g><g class="cls-1"><path d="M514.46,49.08h6v1.6h-2v12h-1.79v-12h-2.11Z" transform="translate(-57.67 -16.82)"/></g><g class="cls-1"><path d="M520.1,53.55H522l1.34,6.35,1.56-6.35h1.71l-3.72,12.82h-1.77l1.4-4.46Z" transform="translate(-57.67 -16.82)"/><path d="M527.62,66.38V53.55h1.68v1.18a2.87,2.87,0,0,1,.72-1,1.52,1.52,0,0,1,1-.29,1.73,1.73,0,0,1,1.65,1.16,9.45,9.45,0,0,1,.52,3.64,8.28,8.28,0,0,1-.54,3.49,1.77,1.77,0,0,1-1.7,1.09,1.56,1.56,0,0,1-.92-.25,1.66,1.66,0,0,1-.35-.35,4.14,4.14,0,0,1-.35-.55v4.75Zm3.8-8.23a8.41,8.41,0,0,0-.25-2.51.88.88,0,0,0-.85-.71q-.58,0-.83.74a8.22,8.22,0,0,0-.25,2.44,8.22,8.22,0,0,0,.25,2.44q.25.73.83.73a.89.89,0,0,0,.85-.7A7.93,7.93,0,0,0,531.41,58.15Z" transform="translate(-57.67 -16.82)"/><path d="M538.23,59.58h1.56q-.18,3.21-2.64,3.21a2.68,2.68,0,0,1-1.25-.27,2.19,2.19,0,0,1-.87-.84,4.35,4.35,0,0,1-.51-1.45,11.67,11.67,0,0,1-.16-2.09,7.34,7.34,0,0,1,.67-3.57,2.24,2.24,0,0,1,2.08-1.16q2.73,0,2.73,4.82v.21H536q0,2.92,1.16,2.92T538.23,59.58Zm-.09-2.36a6.14,6.14,0,0,0-.33-1.88.77.77,0,0,0-.74-.5.76.76,0,0,0-.74.5,6.14,6.14,0,0,0-.33,1.88Z" transform="translate(-57.67 -16.82)"/><path d="M544.87,53.74v1.57a2.13,2.13,0,0,0-1.29-.46,1.1,1.1,0,0,0-.76.29,1,1,0,0,0-.23.33,1,1,0,0,0-.08.4q0,.65,1.18,1.55a8.55,8.55,0,0,1,.79.69,3.13,3.13,0,0,1,.48.6,2.61,2.61,0,0,1,.34,1.4,2.7,2.7,0,0,1-.71,2,2.5,2.5,0,0,1-1.89.73,2.94,2.94,0,0,1-1.48-.43V60.73a2.34,2.34,0,0,0,1.38.54,1,1,0,0,0,1.15-1.13,1.26,1.26,0,0,0-.21-.73,2,2,0,0,0-.31-.35c-.14-.13-.31-.28-.52-.44a6.85,6.85,0,0,1-1.44-1.39,2.55,2.55,0,0,1-.37-1.4,2.49,2.49,0,0,1,.68-1.8,2.4,2.4,0,0,1,1.78-.69A3.12,3.12,0,0,1,544.87,53.74Z" transform="translate(-57.67 -16.82)"/></g></g></svg>