<svg id="Layer_2" data-name="Layer 2" xmlns="http://www.w3.org/2000/svg" viewBox="0 0 1036.92 1058.79"><defs><style>.cls-1{fill:#e5e023;opacity:0.2;}.cls-2{fill:#edccd8;opacity:0.5;}.cls-3{fill:#fff;stroke-width:0.5px;}.cls-3,.cls-45,.cls-46{stroke:#000;stroke-miterlimit:10;}.cls-4{opacity:0.7;font-size:20.85px;}.cls-25,.cls-27,.cls-29,.cls-31,.cls-32,.cls-4,.cls-47{font-family:Futura-CondensedMedium, Futura;}.cls-5{letter-spacing:0em;}.cls-6{letter-spacing:0em;}.cls-7{letter-spacing:0.03em;}.cls-8{letter-spacing:0em;}.cls-9{letter-spacing:0em;}.cls-10{letter-spacing:0.01em;}.cls-11{letter-spacing:0em;}.cls-12{letter-spacing:0em;}.cls-13{letter-spacing:0em;}.cls-14{letter-spacing:-0.01em;}.cls-15{letter-spacing:0em;}.cls-16{letter-spacing:0em;}.cls-17{letter-spacing:0em;}.cls-18{letter-spacing:0em;}.cls-19{letter-spacing:0em;}.cls-20{letter-spacing:0em;}.cls-21{letter-spacing:0em;}.cls-22{letter-spacing:0em;}.cls-23{letter-spacing:0em;}.cls-24{letter-spacing:0.01em;}.cls-25,.cls-27,.cls-29,.cls-31,.cls-32{font-size:20.96px;}.cls-26{letter-spacing:0.01em;}.cls-27{letter-spacing:-0.06em;}.cls-28{letter-spacing:0em;}.cls-29{letter-spacing:-0.06em;}.cls-30{letter-spacing:-0.06em;}.cls-31{letter-spacing:-0.06em;}.cls-32{letter-spacing:-0.06em;}.cls-33{letter-spacing:0em;}.cls-34{letter-spacing:0em;}.cls-35{letter-spacing:0em;}.cls-36{letter-spacing:0em;}.cls-37{letter-spacing:0em;}.cls-38{letter-spacing:0.01em;}.cls-39{letter-spacing:-0.02em;}.cls-40{letter-spacing:0em;}.cls-41{letter-spacing:0em;}.cls-42{letter-spacing:-0.01em;}.cls-43{letter-spacing:-0.03em;}.cls-44{opacity:0.3;}.cls-45,.cls-46{fill:none;}.cls-46{stroke-dasharray:2.99 2.99;}.cls-47{font-size:16.12px;}.cls-48{letter-spacing:-0.06em;}.cls-49{letter-spacing:-0.03em;}.cls-50{letter-spacing:-0.09em;}.cls-51{letter-spacing:-0.06em;}.cls-52{letter-spacing:-0.06em;}.cls-53{letter-spacing:-0.06em;}.cls-54{letter-spacing:-0.06em;}.cls-55{letter-spacing:-0.07em;}.cls-56{letter-spacing:-0.02em;}.cls-57{letter-spacing:-0.06em;}.cls-58{fill:#bdedb7;}.cls-59{fill:#daddd9;}.cls-60{letter-spacing:-0.01em;}.cls-61{letter-spacing:-0.07em;}</style></defs><title>source_of_funding</title><rect class="cls-1" x="73.58" y="948.2" width="812.94" height="76.76"/><rect class="cls-2" x="73.58" y="720.24" width="812.94" height="76.76"/><line class="cls-3" x1="73.58" y1="263.35" x2="200.9" y2="263.35"/><line class="cls-3" x1="73.58" y1="187.29" x2="200.9" y2="187.29"/><line class="cls-3" x1="73.58" y1="339.61" x2="200.9" y2="339.61"/><line class="cls-3" x1="73.58" y1="415.86" x2="200.9" y2="415.86"/><line class="cls-3" x1="73.58" y1="491.58" x2="200.9" y2="491.58"/><line class="cls-3" x1="73.58" y1="567.71" x2="200.9" y2="567.71"/><line class="cls-3" x1="221.53" y1="187.29" x2="299.74" y2="187.29"/><line class="cls-3" x1="221.53" y1="263.35" x2="299.74" y2="263.35"/><line class="cls-3" x1="221.53" y1="339.61" x2="299.74" y2="339.61"/><line class="cls-3" x1="221.53" y1="415.86" x2="299.74" y2="415.86"/><line class="cls-3" x1="221.53" y1="491.58" x2="299.74" y2="491.58"/><line class="cls-3" x1="221.53" y1="567.71" x2="299.74" y2="567.71"/><line class="cls-3" x1="344.53" y1="187.29" x2="886.75" y2="187.29"/><line class="cls-3" x1="73.58" y1="948.2" x2="200.9" y2="948.2"/><line class="cls-3" x1="73.58" y1="872.06" x2="200.9" y2="872.06"/><line class="cls-3" x1="73.58" y1="796.35" x2="200.9" y2="796.35"/><line class="cls-3" x1="73.58" y1="720.63" x2="200.9" y2="720.63"/><line class="cls-3" x1="73.58" y1="643.84" x2="200.9" y2="643.84"/><line class="cls-3" x1="221.53" y1="948.2" x2="299.74" y2="948.2"/><line class="cls-3" x1="221.53" y1="872.06" x2="299.74" y2="872.06"/><line class="cls-3" x1="221.53" y1="796.35" x2="299.74" y2="796.35"/><line class="cls-3" x1="221.53" y1="720.63" x2="299.74" y2="720.63"/><line class="cls-3" x1="221.53" y1="644.91" x2="299.74" y2="644.91"/><line class="cls-3" x1="343.03" y1="796.35" x2="886.75" y2="796.35"/><text class="cls-4" transform="translate(206.34 119.51)">Co<tspan class="cls-5" x="15.98" y="0">m</tspan><tspan x="28.68" y="0">plemen</tspan><tspan class="cls-6" x="77.61" y="0">t</tspan><tspan x="82.26" y="0">a</tspan><tspan class="cls-7" x="90.49" y="0">r</tspan><tspan x="96.6" y="0">y </tspan><tspan x="25.58" y="25.02">Cu</tspan><tspan class="cls-8" x="42.01" y="25.02">r</tspan><tspan class="cls-9" x="47.62" y="25.02">r</tspan><tspan x="53.25" y="25.02">ency</tspan><tspan x="27.81" y="50.04">S</tspan><tspan class="cls-10" x="35.59" y="50.04">y</tspan><tspan class="cls-11" x="43.4" y="50.04">s</tspan><tspan class="cls-12" x="49.63" y="50.04">t</tspan><tspan x="54.24" y="50.04">ems</tspan></text><text class="cls-4" transform="translate(401.29 166.92) rotate(-45)"><tspan class="cls-13">N</tspan><tspan x="9.77" y="0">o </tspan><tspan class="cls-14" x="22.12" y="0">F</tspan><tspan x="29.27" y="0">unding</tspan></text><text class="cls-4" transform="translate(507.73 166.92) rotate(-45)">P<tspan class="cls-15" x="8.27" y="0">r</tspan><tspan x="13.88" y="0">i</tspan><tspan class="cls-16" x="18.02" y="0">v</tspan><tspan x="25.03" y="0">a</tspan><tspan class="cls-17" x="33.26" y="0">t</tspan><tspan class="cls-18" x="37.87" y="0">e Donations</tspan></text><text class="cls-4" transform="translate(616.52 166.92) rotate(-45)">Ex<tspan class="cls-17" x="15.41" y="0">t</tspan><tspan x="20.03" y="0">e</tspan><tspan class="cls-15" x="27.71" y="0">r</tspan><tspan x="33.32" y="0">nal </tspan><tspan class="cls-14" x="58.46" y="0">F</tspan><tspan x="65.61" y="0">unding</tspan></text><text class="cls-4" transform="translate(725.61 166.92) rotate(-45)">In<tspan class="cls-19" x="12.98" y="0">t</tspan><tspan class="cls-20" x="17.59" y="0">e</tspan><tspan class="cls-21" x="25.28" y="0">r</tspan><tspan class="cls-22" x="30.89" y="0">nal Cu</tspan><tspan class="cls-15" x="72.45" y="0">r</tspan><tspan class="cls-23" x="78.06" y="0">r</tspan><tspan class="cls-20" x="83.69" y="0">ency Cha</tspan><tspan class="cls-24" x="142.39" y="0">r</tspan><tspan x="148.08" y="0">ges</tspan></text><text class="cls-4" transform="translate(837.16 166.92) rotate(-45)">Ex<tspan class="cls-19" x="15.41" y="0">t</tspan><tspan class="cls-20" x="20.03" y="0">e</tspan><tspan class="cls-21" x="27.71" y="0">r</tspan><tspan class="cls-22" x="33.32" y="0">nal Cu</tspan><tspan class="cls-15" x="74.88" y="0">r</tspan><tspan class="cls-23" x="80.49" y="0">r</tspan><tspan class="cls-20" x="86.12" y="0">ency Cha</tspan><tspan class="cls-24" x="144.82" y="0">r</tspan><tspan x="150.51" y="0">ges</tspan></text><text class="cls-25" transform="translate(124.09 231.58)">U<tspan class="cls-26" x="9.7" y="0">S</tspan><tspan x="17.76" y="0">A</tspan></text><text class="cls-25" transform="translate(251.96 231.58)">49</text><text class="cls-25" transform="translate(251.96 307.64)">28</text><text class="cls-25" transform="translate(251.96 383.71)">25</text><text class="cls-25" transform="translate(251.96 459.77)">23</text><text class="cls-27" transform="translate(252.62 535.9)">1<tspan class="cls-28" x="7.36" y="0">9</tspan></text><text class="cls-29" transform="translate(252.61 612.04)">1<tspan class="cls-28" x="7.38" y="0">5</tspan></text><text class="cls-25" transform="translate(252.54 688.23)"><tspan class="cls-30">1</tspan><tspan x="7.52" y="0">4</tspan></text><text class="cls-31" transform="translate(252.6 764.48)">1<tspan class="cls-28" x="7.4" y="0">3</tspan></text><text class="cls-32" transform="translate(252.59 840.46)">1<tspan class="cls-28" x="7.42" y="0">2</tspan></text><text class="cls-32" transform="translate(252.59 916.39)">1<tspan class="cls-28" x="7.42" y="0">2</tspan></text><text class="cls-25" transform="translate(247.62 992.84)">296</text><text class="cls-25" transform="translate(107.08 307.64)">Ge<tspan class="cls-33" x="17.5" y="0">r</tspan><tspan x="23.14" y="0">ma</tspan><tspan class="cls-34" x="44.21" y="0">n</tspan><tspan class="cls-35" x="52.59" y="0">y</tspan></text><text class="cls-25" transform="translate(107.96 383.71)"><tspan class="cls-36">A</tspan><tspan x="8.52" y="0">u</tspan><tspan class="cls-37" x="17.04" y="0">s</tspan><tspan class="cls-28" x="23.3" y="0">t</tspan><tspan class="cls-38" x="27.96" y="0">r</tspan><tspan class="cls-35" x="33.68" y="0">alia</tspan></text><text class="cls-25" transform="translate(112.46 459.77)">Canada</text><text class="cls-25" transform="translate(110.09 535.9)">Belgium</text><text class="cls-25" transform="translate(127.98 612.04)">UK</text><text class="cls-25" transform="translate(118.74 688.23)">Spain</text><text class="cls-25" transform="translate(103.74 752.02)"><tspan class="cls-39">V</tspan><tspan x="7.35" y="0">enezuela</tspan><tspan x="0.77" y="25.15">(</tspan><tspan class="cls-40" x="6.92" y="25.15">N</tspan><tspan x="16.74" y="25.15">o Da</tspan><tspan class="cls-41" x="47.18" y="25.15">t</tspan><tspan x="51.86" y="25.15">a)</tspan></text><text class="cls-25" transform="translate(97.53 840.46)"><tspan class="cls-40">N</tspan><tspan x="9.82" y="0">ethe</tspan><tspan class="cls-33" x="38.42" y="0">r</tspan><tspan class="cls-35" x="44.06" y="0">lands</tspan></text><text class="cls-25" transform="translate(94.49 916.39)"><tspan class="cls-40">N</tspan><tspan class="cls-42" x="9.82" y="0">e</tspan><tspan x="17.43" y="0">w Zealand</tspan></text><text class="cls-25" transform="translate(94.6 992.84)">Da<tspan class="cls-41" x="18.02" y="0">t</tspan><tspan x="22.7" y="0">aset </tspan><tspan class="cls-43" x="53.85" y="0">T</tspan><tspan class="cls-36" x="60.09" y="0">o</tspan><tspan class="cls-41" x="68.15" y="0">t</tspan><tspan x="72.83" y="0">al</tspan></text><g class="cls-44"><line class="cls-45" x1="451.73" y1="157.06" x2="451.73" y2="158.56"/><line class="cls-46" x1="451.73" y1="161.55" x2="451.73" y2="1021.96"/><line class="cls-45" x1="451.73" y1="1023.46" x2="451.73" y2="1024.96"/></g><g class="cls-44"><line class="cls-45" x1="560.42" y1="157.06" x2="560.42" y2="158.56"/><line class="cls-46" x1="560.42" y1="161.55" x2="560.42" y2="1021.96"/><line class="cls-45" x1="560.42" y1="1023.46" x2="560.42" y2="1024.96"/></g><g class="cls-44"><line class="cls-45" x1="669.12" y1="157.06" x2="669.12" y2="158.56"/><line class="cls-46" x1="669.12" y1="161.55" x2="669.12" y2="1021.96"/><line class="cls-45" x1="669.12" y1="1023.46" x2="669.12" y2="1024.96"/></g><g class="cls-44"><line class="cls-45" x1="777.82" y1="157.06" x2="777.82" y2="158.56"/><line class="cls-46" x1="777.82" y1="161.55" x2="777.82" y2="1021.96"/><line class="cls-45" x1="777.82" y1="1023.46" x2="777.82" y2="1024.96"/></g><text class="cls-47" transform="translate(388.29 387.94)">32%</text><text class="cls-47" transform="translate(495.21 403.52)"><tspan class="cls-48">1</tspan><tspan x="5.71" y="0">2%</tspan></text><text class="cls-47" transform="translate(606.76 409.53)">4%</text><text class="cls-47" transform="translate(494.99 320.92)"><tspan class="cls-49">2</tspan><tspan x="6.16" y="0">1%</tspan></text><text class="cls-47" transform="translate(604.12 328.98)"><tspan class="cls-50">1</tspan><tspan x="5.29" y="0">1%</tspan></text><text class="cls-47" transform="translate(712.62 400.63)"><tspan class="cls-51">1</tspan><tspan x="5.68" y="0">6%</tspan></text><text class="cls-47" transform="translate(712.57 322.53)"><tspan class="cls-52">1</tspan><tspan x="5.79" y="0">8%</tspan></text><text class="cls-47" transform="translate(712.61 251.52)"><tspan class="cls-53">1</tspan><tspan x="5.71" y="0">2%</tspan></text><text class="cls-47" transform="translate(712.61 478.56)"><tspan class="cls-54">1</tspan><tspan x="5.69" y="0">3%</tspan></text><text class="cls-47" transform="translate(388.82 475.33)"><tspan class="cls-55">1</tspan><tspan x="5.61" y="0">7%</tspan></text><text class="cls-47" transform="translate(494.73 455.33)">43%</text><text class="cls-47" transform="translate(603.42 543.96)">26%</text><text class="cls-47" transform="translate(603.95 475.33)"><tspan class="cls-55">1</tspan><tspan x="5.61" y="0">7%</tspan></text><text class="cls-47" transform="translate(498.06 564.76)">0%</text><text class="cls-47" transform="translate(715.46 564.76)">0%</text><text class="cls-47" transform="translate(388.29 532.53)">42%</text><text class="cls-47" transform="translate(388.29 624.95)">20%</text><text class="cls-47" transform="translate(388.41 675.65)"><tspan class="cls-56">5</tspan><tspan x="6.43" y="0">7%</tspan></text><text class="cls-47" transform="translate(606.76 715.26)">0%</text><text class="cls-47" transform="translate(824.16 715.26)">0%</text><text class="cls-47" transform="translate(824.16 641.06)">0%</text><text class="cls-47" transform="translate(824.16 260.48)">0%</text><text class="cls-47" transform="translate(498.06 945.39)">0%</text><text class="cls-47" transform="translate(391.63 862.52)">8%</text><text class="cls-47" transform="translate(388.29 926.49)">25%</text><text class="cls-47" transform="translate(495.17 707.21)"><tspan class="cls-52">1</tspan><tspan x="5.79" y="0">4%</tspan></text><text class="cls-47" transform="translate(495.22 631.53)"><tspan class="cls-57">1</tspan><tspan x="5.69" y="0">3%</tspan></text><rect class="cls-58" x="367.48" y="391.1" width="64.31" height="24.86"/><rect class="cls-59" x="473.92" y="406.3" width="64.31" height="9.14"/><text class="cls-47" transform="translate(821.31 403.57)"><tspan class="cls-53">1</tspan><tspan x="5.71" y="0">2%</tspan></text><rect class="cls-59" x="800.01" y="406.35" width="64.31" height="9.14"/><rect class="cls-59" x="691.31" y="403.36" width="64.31" height="12.34"/><rect class="cls-59" x="582.62" y="412.75" width="64.31" height="3.11"/><text class="cls-47" transform="translate(824.16 333.66)">4%</text><rect class="cls-59" x="800.01" y="336.88" width="64.31" height="3.11"/><text class="cls-47" transform="translate(824.16 484.72)">4%</text><rect class="cls-59" x="800.01" y="487.94" width="64.31" height="3.11"/><rect class="cls-59" x="582.62" y="547.6" width="64.31" height="20.11"/><rect class="cls-59" x="691.31" y="859.27" width="64.31" height="12.8"/><rect class="cls-59" x="582.62" y="478.32" width="64.31" height="12.8"/><rect class="cls-59" x="691.31" y="481.52" width="64.31" height="10.05"/><rect class="cls-59" x="582.62" y="331.1" width="64.31" height="8.23"/><text class="cls-47" transform="translate(821.51 557.66)"><tspan class="cls-50">1</tspan><tspan x="5.29" y="0">1%</tspan></text><rect class="cls-59" x="800.01" y="559.78" width="64.31" height="8.23"/><rect class="cls-59" x="691.31" y="325.62" width="64.31" height="13.71"/><text class="cls-47" transform="translate(495.17 1007.82)"><tspan class="cls-52">1</tspan><tspan x="5.79" y="0">8%</tspan></text><rect class="cls-59" x="473.92" y="1010.91" width="64.31" height="13.71"/><rect class="cls-59" x="691.31" y="254.27" width="64.31" height="9.14"/><rect class="cls-59" x="473.92" y="323.1" width="64.31" height="16"/><text class="cls-47" transform="translate(388.29 311.08)">32%</text><text class="cls-47" transform="translate(388.29 242.85)">22%</text><rect class="cls-58" x="367.48" y="314.24" width="64.31" height="24.86"/><rect class="cls-59" x="367.48" y="246.45" width="64.31" height="16.91"/><text class="cls-47" transform="translate(494.73 242.85)">22%</text><text class="cls-47" transform="translate(603.51 239.42)"><tspan class="cls-60">2</tspan><tspan x="6.49" y="0">7%</tspan></text><rect class="cls-59" x="473.92" y="246.44" width="64.31" height="16.91"/><rect class="cls-58" x="582.62" y="242.85" width="64.31" height="20.57"/><text class="cls-47" transform="translate(388.38 1000.97)"><tspan class="cls-60">2</tspan><tspan x="6.49" y="0">7%</tspan></text><rect class="cls-58" x="367.48" y="1004.39" width="64.31" height="20.57"/><rect class="cls-59" x="367.48" y="477.87" width="64.31" height="13.71"/><text class="cls-47" transform="translate(821.35 931.95)"><tspan class="cls-61">1</tspan><tspan x="5.61" y="0">7%</tspan></text><rect class="cls-59" x="800.01" y="934.49" width="64.31" height="13.71"/><rect class="cls-59" x="800.01" y="1022.12" width="64.31" height="2.83"/><text class="cls-47" transform="translate(603.95 1009.09)"><tspan class="cls-61">1</tspan><tspan x="5.61" y="0">7%</tspan></text><text class="cls-47" transform="translate(712.62 1015.9)"><tspan class="cls-51">1</tspan><tspan x="5.68" y="0">5%</tspan></text><text class="cls-47" transform="translate(824.16 1020.1)">6%</text><rect class="cls-59" x="582.62" y="1011.25" width="64.31" height="13.71"/><rect class="cls-59" x="473.92" y="710.12" width="64.31" height="10.51"/><text class="cls-47" transform="translate(712.57 706.78)"><tspan class="cls-52">1</tspan><tspan x="5.79" y="0">4%</tspan></text><rect class="cls-59" x="691.31" y="709.69" width="64.31" height="10.51"/><rect class="cls-59" x="473.92" y="633.89" width="64.31" height="10.05"/><rect class="cls-58" x="473.92" y="458.65" width="64.31" height="33.36"/><rect class="cls-58" x="367.48" y="535.02" width="64.31" height="31.99"/><rect class="cls-59" x="367.48" y="628.3" width="64.31" height="15.54"/><text class="cls-47" transform="translate(603.43 624.44)">20%</text><rect class="cls-59" x="582.62" y="627.79" width="64.31" height="15.54"/><rect class="cls-58" x="367.48" y="678.96" width="64.31" height="41.13"/><text class="cls-47" transform="translate(494.73 850.5)">25%</text><rect class="cls-58" x="473.92" y="852.92" width="64.31" height="19.19"/><text class="cls-47" transform="translate(603.42 850.5)">25%</text><text class="cls-47" transform="translate(712.65 856.95)"><tspan class="cls-61">1</tspan><tspan x="5.61" y="0">7%</tspan></text><text class="cls-47" transform="translate(712.12 919.61)">33%</text><text class="cls-47" transform="translate(712.12 613.65)">33%</text><rect class="cls-58" x="582.62" y="852.92" width="64.31" height="19.19"/><rect class="cls-58" x="691.31" y="922.6" width="64.31" height="25.59"/><rect class="cls-58" x="691.31" y="617.74" width="64.31" height="25.59"/><rect class="cls-59" x="367.48" y="929.92" width="64.31" height="18.28"/><text class="cls-47" transform="translate(603.42 926.49)">25%</text><rect class="cls-59" x="582.62" y="929.92" width="64.31" height="18.28"/><rect class="cls-59" x="691.31" y="1017.76" width="64.31" height="7.09"/><rect class="cls-59" x="367.48" y="866.12" width="64.31" height="5.94"/><text class="cls-47" transform="translate(824.16 862.51)">8%</text><rect class="cls-59" x="800.01" y="866.11" width="64.31" height="5.94"/><line class="cls-3" x1="344.53" y1="415.86" x2="886.75" y2="415.86"/><line class="cls-3" x1="343.03" y1="567.71" x2="886.75" y2="567.71"/><line class="cls-3" x1="344.53" y1="491.58" x2="886.75" y2="491.58"/><line class="cls-3" x1="344.53" y1="263.35" x2="885.24" y2="263.35"/><line class="cls-3" x1="344.53" y1="339.61" x2="886.75" y2="339.61"/><line class="cls-3" x1="343.03" y1="872.06" x2="886.75" y2="872.06"/><line class="cls-3" x1="343.03" y1="948.2" x2="886.52" y2="948.2"/><line class="cls-3" x1="343.03" y1="720.09" x2="886.75" y2="720.09"/><line class="cls-3" x1="343.03" y1="643.84" x2="886.75" y2="643.84"/><line class="cls-3" x1="73.58" y1="1024.96" x2="200.9" y2="1024.96"/><line class="cls-3" x1="221.53" y1="1024.96" x2="299.74" y2="1024.96"/><line class="cls-3" x1="343.03" y1="1024.96" x2="886.52" y2="1024.96"/></svg>