<svg id="Layer_2" data-name="Layer 2" xmlns="http://www.w3.org/2000/svg" viewBox="0 0 1036.92 1206.29"><defs><style>.cls-1{fill:#e5e023;opacity:0.2;}.cls-2{fill:#edccd8;opacity:0.5;}.cls-3{fill:#fff;stroke-width:0.5px;}.cls-3,.cls-45,.cls-46,.cls-65{stroke:#000;stroke-miterlimit:10;}.cls-4{opacity:0.7;font-size:20.85px;}.cls-25,.cls-27,.cls-29,.cls-31,.cls-32,.cls-4,.cls-47,.cls-62,.cls-66{font-family:Futura-CondensedMedium, Futura;}.cls-5{letter-spacing:0em;}.cls-6{letter-spacing:0em;}.cls-7{letter-spacing:0.03em;}.cls-8{letter-spacing:0em;}.cls-9{letter-spacing:0em;}.cls-10{letter-spacing:0.01em;}.cls-11{letter-spacing:0em;}.cls-12{letter-spacing:0em;}.cls-13{letter-spacing:0em;}.cls-14{letter-spacing:-0.01em;}.cls-15{letter-spacing:0em;}.cls-16{letter-spacing:0em;}.cls-17{letter-spacing:0em;}.cls-18{letter-spacing:0em;}.cls-19{letter-spacing:0em;}.cls-20{letter-spacing:0em;}.cls-21{letter-spacing:0em;}.cls-22{letter-spacing:0em;}.cls-23{letter-spacing:0em;}.cls-24{letter-spacing:0.01em;}.cls-25,.cls-27,.cls-29,.cls-31,.cls-32{font-size:20.96px;}.cls-26{letter-spacing:0.01em;}.cls-27{letter-spacing:-0.06em;}.cls-28{letter-spacing:0em;}.cls-29{letter-spacing:-0.06em;}.cls-30{letter-spacing:-0.06em;}.cls-31{letter-spacing:-0.06em;}.cls-32{letter-spacing:-0.06em;}.cls-33{letter-spacing:0em;}.cls-34{letter-spacing:0em;}.cls-35{letter-spacing:0em;}.cls-36{letter-spacing:0em;}.cls-37{letter-spacing:0em;}.cls-38{letter-spacing:0.01em;}.cls-39{letter-spacing:-0.02em;}.cls-40{letter-spacing:0em;}.cls-41{letter-spacing:0em;}.cls-42{letter-spacing:-0.01em;}.cls-43{letter-spacing:-0.03em;}.cls-44{opacity:0.3;}.cls-45,.cls-46{fill:none;}.cls-46{stroke-dasharray:2.99 2.99;}.cls-47{font-size:16.12px;}.cls-48{letter-spacing:-0.06em;}.cls-49{letter-spacing:-0.03em;}.cls-50{letter-spacing:-0.09em;}.cls-51{letter-spacing:-0.06em;}.cls-52{letter-spacing:-0.06em;}.cls-53{letter-spacing:-0.06em;}.cls-54{letter-spacing:-0.06em;}.cls-55{letter-spacing:-0.07em;}.cls-56{letter-spacing:-0.02em;}.cls-57{letter-spacing:-0.06em;}.cls-58{fill:#bdedb7;}.cls-59{fill:#daddd9;}.cls-60{letter-spacing:-0.01em;}.cls-61{letter-spacing:-0.07em;}.cls-62{font-size:36px;}.cls-63{letter-spacing:0em;}.cls-64{letter-spacing:-0.01em;}.cls-66{opacity:0.9;font-size:18px;}.cls-67{letter-spacing:0em;}.cls-68{letter-spacing:0.03em;}</style></defs><title>source_of_funding</title><rect class="cls-1" x="73.6" y="1074.45" width="812.94" height="76.76"/><rect class="cls-2" x="73.6" y="846.5" width="812.94" height="76.76"/><line class="cls-3" x1="73.6" y1="389.61" x2="200.92" y2="389.61"/><line class="cls-3" x1="73.6" y1="313.55" x2="200.92" y2="313.55"/><line class="cls-3" x1="73.6" y1="465.86" x2="200.92" y2="465.86"/><line class="cls-3" x1="73.6" y1="542.12" x2="200.92" y2="542.12"/><line class="cls-3" x1="73.6" y1="617.83" x2="200.92" y2="617.83"/><line class="cls-3" x1="73.6" y1="693.97" x2="200.92" y2="693.97"/><line class="cls-3" x1="221.55" y1="313.55" x2="299.75" y2="313.55"/><line class="cls-3" x1="221.55" y1="389.61" x2="299.75" y2="389.61"/><line class="cls-3" x1="221.55" y1="465.86" x2="299.75" y2="465.86"/><line class="cls-3" x1="221.55" y1="542.12" x2="299.75" y2="542.12"/><line class="cls-3" x1="221.55" y1="617.83" x2="299.75" y2="617.83"/><line class="cls-3" x1="221.55" y1="693.97" x2="299.75" y2="693.97"/><line class="cls-3" x1="344.55" y1="313.55" x2="886.77" y2="313.55"/><line class="cls-3" x1="73.6" y1="1074.45" x2="200.92" y2="1074.45"/><line class="cls-3" x1="73.6" y1="998.32" x2="200.92" y2="998.32"/><line class="cls-3" x1="73.6" y1="922.6" x2="200.92" y2="922.6"/><line class="cls-3" x1="73.6" y1="846.88" x2="200.92" y2="846.88"/><line class="cls-3" x1="73.6" y1="770.1" x2="200.92" y2="770.1"/><line class="cls-3" x1="221.55" y1="1074.45" x2="299.75" y2="1074.45"/><line class="cls-3" x1="221.55" y1="998.32" x2="299.75" y2="998.32"/><line class="cls-3" x1="221.55" y1="922.6" x2="299.75" y2="922.6"/><line class="cls-3" x1="221.55" y1="846.88" x2="299.75" y2="846.88"/><line class="cls-3" x1="221.55" y1="771.17" x2="299.75" y2="771.17"/><line class="cls-3" x1="343.05" y1="922.6" x2="886.77" y2="922.6"/><text class="cls-4" transform="translate(206.35 245.77)">Co<tspan class="cls-5" x="15.98" y="0">m</tspan><tspan x="28.68" y="0">plemen</tspan><tspan class="cls-6" x="77.61" y="0">t</tspan><tspan x="82.26" y="0">a</tspan><tspan class="cls-7" x="90.49" y="0">r</tspan><tspan x="96.6" y="0">y </tspan><tspan x="25.58" y="25.02">Cu</tspan><tspan class="cls-8" x="42.01" y="25.02">r</tspan><tspan class="cls-9" x="47.62" y="25.02">r</tspan><tspan x="53.25" y="25.02">ency</tspan><tspan x="27.81" y="50.04">S</tspan><tspan class="cls-10" x="35.59" y="50.04">y</tspan><tspan class="cls-11" x="43.4" y="50.04">s</tspan><tspan class="cls-12" x="49.63" y="50.04">t</tspan><tspan x="54.24" y="50.04">ems</tspan></text><text class="cls-4" transform="translate(401.31 293.17) rotate(-45)"><tspan class="cls-13">N</tspan><tspan x="9.77" y="0">o </tspan><tspan class="cls-14" x="22.12" y="0">F</tspan><tspan x="29.27" y="0">unding</tspan></text><text class="cls-4" transform="translate(507.75 293.17) rotate(-45)">P<tspan class="cls-15" x="8.27" y="0">r</tspan><tspan x="13.88" y="0">i</tspan><tspan class="cls-16" x="18.02" y="0">v</tspan><tspan x="25.03" y="0">a</tspan><tspan class="cls-17" x="33.26" y="0">t</tspan><tspan class="cls-18" x="37.87" y="0">e Donations</tspan></text><text class="cls-4" transform="translate(616.54 293.17) rotate(-45)">Ex<tspan class="cls-17" x="15.41" y="0">t</tspan><tspan x="20.03" y="0">e</tspan><tspan class="cls-15" x="27.71" y="0">r</tspan><tspan x="33.32" y="0">nal </tspan><tspan class="cls-14" x="58.46" y="0">F</tspan><tspan x="65.61" y="0">unding</tspan></text><text class="cls-4" transform="translate(725.63 293.17) rotate(-45)">In<tspan class="cls-19" x="12.98" y="0">t</tspan><tspan class="cls-20" x="17.59" y="0">e</tspan><tspan class="cls-21" x="25.28" y="0">r</tspan><tspan class="cls-22" x="30.89" y="0">nal Cu</tspan><tspan class="cls-15" x="72.45" y="0">r</tspan><tspan class="cls-23" x="78.06" y="0">r</tspan><tspan class="cls-20" x="83.69" y="0">ency Cha</tspan><tspan class="cls-24" x="142.39" y="0">r</tspan><tspan x="148.08" y="0">ges</tspan></text><text class="cls-4" transform="translate(837.18 293.17) rotate(-45)">Ex<tspan class="cls-19" x="15.41" y="0">t</tspan><tspan class="cls-20" x="20.03" y="0">e</tspan><tspan class="cls-21" x="27.71" y="0">r</tspan><tspan class="cls-22" x="33.32" y="0">nal Cu</tspan><tspan class="cls-15" x="74.88" y="0">r</tspan><tspan class="cls-23" x="80.49" y="0">r</tspan><tspan class="cls-20" x="86.12" y="0">ency Cha</tspan><tspan class="cls-24" x="144.82" y="0">r</tspan><tspan x="150.51" y="0">ges</tspan></text><text class="cls-25" transform="translate(124.11 357.84)">U<tspan class="cls-26" x="9.7" y="0">S</tspan><tspan x="17.76" y="0">A</tspan></text><text class="cls-25" transform="translate(251.98 357.84)">49</text><text class="cls-25" transform="translate(251.98 433.9)">28</text><text class="cls-25" transform="translate(251.98 509.96)">25</text><text class="cls-25" transform="translate(251.98 586.03)">23</text><text class="cls-27" transform="translate(252.64 662.16)">1<tspan class="cls-28" x="7.36" y="0">9</tspan></text><text class="cls-29" transform="translate(252.63 738.29)">1<tspan class="cls-28" x="7.38" y="0">5</tspan></text><text class="cls-25" transform="translate(252.56 814.48)"><tspan class="cls-30">1</tspan><tspan x="7.52" y="0">4</tspan></text><text class="cls-31" transform="translate(252.62 890.74)">1<tspan class="cls-28" x="7.4" y="0">3</tspan></text><text class="cls-32" transform="translate(252.61 966.72)">1<tspan class="cls-28" x="7.42" y="0">2</tspan></text><text class="cls-32" transform="translate(252.61 1042.65)">1<tspan class="cls-28" x="7.42" y="0">2</tspan></text><text class="cls-25" transform="translate(247.64 1119.09)">296</text><text class="cls-25" transform="translate(107.1 433.9)">Ge<tspan class="cls-33" x="17.5" y="0">r</tspan><tspan x="23.14" y="0">ma</tspan><tspan class="cls-34" x="44.21" y="0">n</tspan><tspan class="cls-35" x="52.59" y="0">y</tspan></text><text class="cls-25" transform="translate(107.98 509.96)"><tspan class="cls-36">A</tspan><tspan x="8.52" y="0">u</tspan><tspan class="cls-37" x="17.04" y="0">s</tspan><tspan class="cls-28" x="23.3" y="0">t</tspan><tspan class="cls-38" x="27.96" y="0">r</tspan><tspan class="cls-35" x="33.68" y="0">alia</tspan></text><text class="cls-25" transform="translate(112.48 586.03)">Canada</text><text class="cls-25" transform="translate(110.11 662.16)">Belgium</text><text class="cls-25" transform="translate(128 738.29)">UK</text><text class="cls-25" transform="translate(118.76 814.48)">Spain</text><text class="cls-25" transform="translate(103.76 878.28)"><tspan class="cls-39">V</tspan><tspan x="7.35" y="0">enezuela</tspan><tspan x="0.77" y="25.15">(</tspan><tspan class="cls-40" x="6.92" y="25.15">N</tspan><tspan x="16.74" y="25.15">o Da</tspan><tspan class="cls-41" x="47.18" y="25.15">t</tspan><tspan x="51.86" y="25.15">a)</tspan></text><text class="cls-25" transform="translate(97.55 966.72)"><tspan class="cls-40">N</tspan><tspan x="9.82" y="0">ethe</tspan><tspan class="cls-33" x="38.42" y="0">r</tspan><tspan class="cls-35" x="44.06" y="0">lands</tspan></text><text class="cls-25" transform="translate(94.51 1042.65)"><tspan class="cls-40">N</tspan><tspan class="cls-42" x="9.82" y="0">e</tspan><tspan x="17.43" y="0">w Zealand</tspan></text><text class="cls-25" transform="translate(94.62 1119.09)">Da<tspan class="cls-41" x="18.02" y="0">t</tspan><tspan x="22.7" y="0">aset </tspan><tspan class="cls-43" x="53.85" y="0">T</tspan><tspan class="cls-36" x="60.09" y="0">o</tspan><tspan class="cls-41" x="68.15" y="0">t</tspan><tspan x="72.83" y="0">al</tspan></text><g class="cls-44"><line class="cls-45" x1="451.74" y1="283.31" x2="451.74" y2="284.81"/><line class="cls-46" x1="451.74" y1="287.81" x2="451.74" y2="1148.22"/><line class="cls-45" x1="451.74" y1="1149.72" x2="451.74" y2="1151.22"/></g><g class="cls-44"><line class="cls-45" x1="560.44" y1="283.31" x2="560.44" y2="284.81"/><line class="cls-46" x1="560.44" y1="287.81" x2="560.44" y2="1148.22"/><line class="cls-45" x1="560.44" y1="1149.72" x2="560.44" y2="1151.22"/></g><g class="cls-44"><line class="cls-45" x1="669.14" y1="283.31" x2="669.14" y2="284.81"/><line class="cls-46" x1="669.14" y1="287.81" x2="669.14" y2="1148.22"/><line class="cls-45" x1="669.14" y1="1149.72" x2="669.14" y2="1151.22"/></g><g class="cls-44"><line class="cls-45" x1="777.84" y1="283.31" x2="777.84" y2="284.81"/><line class="cls-46" x1="777.84" y1="287.81" x2="777.84" y2="1148.22"/><line class="cls-45" x1="777.84" y1="1149.72" x2="777.84" y2="1151.22"/></g><text class="cls-47" transform="translate(388.31 514.19)">32%</text><text class="cls-47" transform="translate(495.23 529.78)"><tspan class="cls-48">1</tspan><tspan x="5.71" y="0">2%</tspan></text><text class="cls-47" transform="translate(606.78 535.79)">4%</text><text class="cls-47" transform="translate(495.01 447.18)"><tspan class="cls-49">2</tspan><tspan x="6.16" y="0">1%</tspan></text><text class="cls-47" transform="translate(604.14 455.24)"><tspan class="cls-50">1</tspan><tspan x="5.29" y="0">1%</tspan></text><text class="cls-47" transform="translate(712.64 526.88)"><tspan class="cls-51">1</tspan><tspan x="5.68" y="0">6%</tspan></text><text class="cls-47" transform="translate(712.59 448.79)"><tspan class="cls-52">1</tspan><tspan x="5.79" y="0">8%</tspan></text><text class="cls-47" transform="translate(712.63 377.77)"><tspan class="cls-53">1</tspan><tspan x="5.71" y="0">2%</tspan></text><text class="cls-47" transform="translate(712.63 604.81)"><tspan class="cls-54">1</tspan><tspan x="5.69" y="0">3%</tspan></text><text class="cls-47" transform="translate(388.84 601.59)"><tspan class="cls-55">1</tspan><tspan x="5.61" y="0">7%</tspan></text><text class="cls-47" transform="translate(494.75 581.59)">43%</text><text class="cls-47" transform="translate(603.44 670.22)">26%</text><text class="cls-47" transform="translate(603.97 601.59)"><tspan class="cls-55">1</tspan><tspan x="5.61" y="0">7%</tspan></text><text class="cls-47" transform="translate(498.08 691.01)">0%</text><text class="cls-47" transform="translate(715.48 691.01)">0%</text><text class="cls-47" transform="translate(388.31 658.79)">42%</text><text class="cls-47" transform="translate(388.31 751.21)">20%</text><text class="cls-47" transform="translate(388.43 801.9)"><tspan class="cls-56">5</tspan><tspan x="6.43" y="0">7%</tspan></text><text class="cls-47" transform="translate(606.78 841.51)">0%</text><text class="cls-47" transform="translate(824.18 841.52)">0%</text><text class="cls-47" transform="translate(824.18 767.31)">0%</text><text class="cls-47" transform="translate(824.18 386.73)">0%</text><text class="cls-47" transform="translate(498.08 1071.65)">0%</text><text class="cls-47" transform="translate(391.65 988.78)">8%</text><text class="cls-47" transform="translate(388.31 1052.75)">25%</text><text class="cls-47" transform="translate(495.19 833.46)"><tspan class="cls-52">1</tspan><tspan x="5.79" y="0">4%</tspan></text><text class="cls-47" transform="translate(495.24 757.79)"><tspan class="cls-57">1</tspan><tspan x="5.69" y="0">3%</tspan></text><rect class="cls-58" x="367.5" y="517.35" width="64.31" height="24.86"/><rect class="cls-59" x="473.94" y="532.56" width="64.31" height="9.14"/><text class="cls-47" transform="translate(821.33 529.82)"><tspan class="cls-53">1</tspan><tspan x="5.71" y="0">2%</tspan></text><rect class="cls-59" x="800.03" y="532.61" width="64.31" height="9.14"/><rect class="cls-59" x="691.33" y="529.62" width="64.31" height="12.34"/><rect class="cls-59" x="582.64" y="539.01" width="64.31" height="3.11"/><text class="cls-47" transform="translate(824.18 459.92)">4%</text><rect class="cls-59" x="800.03" y="463.14" width="64.31" height="3.11"/><text class="cls-47" transform="translate(824.18 610.98)">4%</text><rect class="cls-59" x="800.03" y="614.2" width="64.31" height="3.11"/><rect class="cls-59" x="582.64" y="673.86" width="64.31" height="20.11"/><rect class="cls-59" x="691.33" y="985.52" width="64.31" height="12.8"/><rect class="cls-59" x="582.64" y="604.58" width="64.31" height="12.8"/><rect class="cls-59" x="691.33" y="607.78" width="64.31" height="10.05"/><rect class="cls-59" x="582.64" y="457.36" width="64.31" height="8.23"/><text class="cls-47" transform="translate(821.53 683.91)"><tspan class="cls-50">1</tspan><tspan x="5.29" y="0">1%</tspan></text><rect class="cls-59" x="800.03" y="686.03" width="64.31" height="8.23"/><rect class="cls-59" x="691.33" y="451.87" width="64.31" height="13.71"/><text class="cls-47" transform="translate(495.19 1134.08)"><tspan class="cls-52">1</tspan><tspan x="5.79" y="0">8%</tspan></text><rect class="cls-59" x="473.94" y="1137.16" width="64.31" height="13.71"/><rect class="cls-59" x="691.33" y="380.53" width="64.31" height="9.14"/><rect class="cls-59" x="473.94" y="449.36" width="64.31" height="16"/><text class="cls-47" transform="translate(388.31 437.33)">32%</text><text class="cls-47" transform="translate(388.31 369.1)">22%</text><rect class="cls-58" x="367.5" y="440.49" width="64.31" height="24.86"/><rect class="cls-59" x="367.5" y="372.7" width="64.31" height="16.91"/><text class="cls-47" transform="translate(494.75 369.1)">22%</text><text class="cls-47" transform="translate(603.53 365.67)"><tspan class="cls-60">2</tspan><tspan x="6.49" y="0">7%</tspan></text><rect class="cls-59" x="473.94" y="372.7" width="64.31" height="16.91"/><rect class="cls-58" x="582.64" y="369.1" width="64.31" height="20.57"/><text class="cls-47" transform="translate(388.4 1127.22)"><tspan class="cls-60">2</tspan><tspan x="6.49" y="0">7%</tspan></text><rect class="cls-58" x="367.5" y="1130.65" width="64.31" height="20.57"/><rect class="cls-59" x="367.5" y="604.12" width="64.31" height="13.71"/><text class="cls-47" transform="translate(821.37 1058.21)"><tspan class="cls-61">1</tspan><tspan x="5.61" y="0">7%</tspan></text><rect class="cls-59" x="800.03" y="1060.74" width="64.31" height="13.71"/><rect class="cls-59" x="800.03" y="1148.38" width="64.31" height="2.83"/><text class="cls-47" transform="translate(603.97 1135.34)"><tspan class="cls-61">1</tspan><tspan x="5.61" y="0">7%</tspan></text><text class="cls-47" transform="translate(712.64 1142.16)"><tspan class="cls-51">1</tspan><tspan x="5.68" y="0">5%</tspan></text><text class="cls-47" transform="translate(824.18 1146.36)">6%</text><rect class="cls-59" x="582.64" y="1137.51" width="64.31" height="13.71"/><rect class="cls-59" x="473.94" y="836.37" width="64.31" height="10.51"/><text class="cls-47" transform="translate(712.59 833.04)"><tspan class="cls-52">1</tspan><tspan x="5.79" y="0">4%</tspan></text><rect class="cls-59" x="691.33" y="835.95" width="64.31" height="10.51"/><rect class="cls-59" x="473.94" y="760.14" width="64.31" height="10.05"/><rect class="cls-58" x="473.94" y="584.91" width="64.31" height="33.36"/><rect class="cls-58" x="367.5" y="661.28" width="64.31" height="31.99"/><rect class="cls-59" x="367.5" y="754.56" width="64.31" height="15.54"/><text class="cls-47" transform="translate(603.44 750.7)">20%</text><rect class="cls-59" x="582.64" y="754.05" width="64.31" height="15.54"/><rect class="cls-58" x="367.5" y="805.22" width="64.31" height="41.13"/><text class="cls-47" transform="translate(494.75 976.75)">25%</text><rect class="cls-58" x="473.94" y="979.18" width="64.31" height="19.19"/><text class="cls-47" transform="translate(603.44 976.75)">25%</text><text class="cls-47" transform="translate(712.67 983.2)"><tspan class="cls-61">1</tspan><tspan x="5.61" y="0">7%</tspan></text><text class="cls-47" transform="translate(712.14 1045.87)">33%</text><text class="cls-47" transform="translate(712.14 739.9)">33%</text><rect class="cls-58" x="582.64" y="979.18" width="64.31" height="19.19"/><rect class="cls-58" x="691.33" y="1048.86" width="64.31" height="25.59"/><rect class="cls-58" x="691.33" y="744" width="64.31" height="25.59"/><rect class="cls-59" x="367.5" y="1056.17" width="64.31" height="18.28"/><text class="cls-47" transform="translate(603.44 1052.75)">25%</text><rect class="cls-59" x="582.64" y="1056.17" width="64.31" height="18.28"/><rect class="cls-59" x="691.33" y="1144.02" width="64.31" height="7.09"/><rect class="cls-59" x="367.5" y="992.38" width="64.31" height="5.94"/><text class="cls-47" transform="translate(824.18 988.76)">8%</text><rect class="cls-59" x="800.03" y="992.37" width="64.31" height="5.94"/><line class="cls-3" x1="344.55" y1="542.12" x2="886.77" y2="542.12"/><line class="cls-3" x1="343.05" y1="693.97" x2="886.77" y2="693.97"/><line class="cls-3" x1="344.55" y1="617.83" x2="886.77" y2="617.83"/><line class="cls-3" x1="344.55" y1="389.61" x2="885.26" y2="389.61"/><line class="cls-3" x1="344.55" y1="465.86" x2="886.77" y2="465.86"/><line class="cls-3" x1="343.05" y1="998.32" x2="886.77" y2="998.32"/><line class="cls-3" x1="343.05" y1="1074.45" x2="886.54" y2="1074.45"/><line class="cls-3" x1="343.05" y1="846.35" x2="886.77" y2="846.35"/><line class="cls-3" x1="343.05" y1="770.1" x2="886.77" y2="770.1"/><line class="cls-3" x1="73.6" y1="1151.22" x2="200.92" y2="1151.22"/><line class="cls-3" x1="221.55" y1="1151.22" x2="299.75" y2="1151.22"/><line class="cls-3" x1="343.05" y1="1151.22" x2="886.54" y2="1151.22"/><text class="cls-62" transform="translate(269.04 94.97)">Sou<tspan class="cls-63" x="41.92" y="0">r</tspan><tspan x="51.64" y="0">ce of funding b</tspan><tspan class="cls-63" x="222.63" y="0">r</tspan><tspan x="232.35" y="0">eakd</tspan><tspan class="cls-64" x="288.11" y="0">o</tspan><tspan x="301.73" y="0">wn</tspan></text><line class="cls-65" x1="618.46" y1="55.07" x2="618.46" y2="113.37"/><rect class="cls-58" x="635.02" y="68.15" width="10.14" height="10.14"/><rect class="cls-59" x="635.02" y="90.77" width="10.14" height="10.14"/><text class="cls-66" transform="translate(662.44 78.29)">P<tspan class="cls-67" x="7.14" y="0">r</tspan><tspan x="11.98" y="0">ima</tspan><tspan class="cls-68" x="33.65" y="0">r</tspan><tspan x="38.93" y="0">y Sou</tspan><tspan class="cls-63" x="70.25" y="0">r</tspan><tspan x="75.11" y="0">ce</tspan></text><text class="cls-66" transform="translate(662.44 100.9)">Seconda<tspan class="cls-68" x="46.92" y="0">r</tspan><tspan x="52.19" y="0">y Sou</tspan><tspan class="cls-63" x="83.51" y="0">r</tspan><tspan x="88.37" y="0">ces</tspan></text></svg>