<svg id="Layer_2" data-name="Layer 2" xmlns="http://www.w3.org/2000/svg" viewBox="0 0 497.16 58.3"><defs><style>.cls-1,.cls-5{isolation:isolate;}.cls-2{fill:none;stroke:#000;stroke-miterlimit:10;}.cls-3{fill:#bdedb7;}.cls-4{fill:#daddd9;}.cls-5{opacity:0.9;}</style></defs><title>source_of_funding_TITLE</title><g class="cls-1"><g class="cls-1"><path d="M62.62,30.14v3.57a5.35,5.35,0,0,0-3-1.2,3,3,0,0,0-2.36,1,3.61,3.61,0,0,0-.91,2.58A4.45,4.45,0,0,0,57,38.56,10.8,10.8,0,0,0,58.1,40q.76.86,2,2.07a16.24,16.24,0,0,1,3,3.92,8.62,8.62,0,0,1,.81,3.92,7.61,7.61,0,0,1-1.78,5.19,5.83,5.83,0,0,1-4.55,2,6.31,6.31,0,0,1-4-1.28V52.15a6.22,6.22,0,0,0,3.55,1.42,2.9,2.9,0,0,0,2.34-1,4,4,0,0,0,.84-2.7,5.4,5.4,0,0,0-.65-2.65,10.84,10.84,0,0,0-.93-1.29q-.6-.73-1.49-1.63-1.39-1.37-2.3-2.43A11.44,11.44,0,0,1,53.61,40a8.08,8.08,0,0,1-.84-3.9,7.33,7.33,0,0,1,1.65-5,5.7,5.7,0,0,1,4.48-1.88A7.91,7.91,0,0,1,62.62,30.14Z" transform="translate(-52.76 -16.82)"/><path d="M77.55,47.77q0,9.23-5.71,9.23t-5.71-9.37q0-9.4,5.7-9.4a5.47,5.47,0,0,1,2.56.56,4.49,4.49,0,0,1,1.78,1.74,9.13,9.13,0,0,1,1,3A23.07,23.07,0,0,1,77.55,47.77Zm-3.48-.09a17.79,17.79,0,0,0-.47-5,1.75,1.75,0,0,0-1.69-1.42,1.79,1.79,0,0,0-1.71,1.41,17.34,17.34,0,0,0-.47,4.9,17.13,17.13,0,0,0,.47,4.89,1.79,1.79,0,0,0,1.71,1.41,1.73,1.73,0,0,0,1.67-1.39A15.6,15.6,0,0,0,74.07,47.68Z" transform="translate(-52.76 -16.82)"/><path d="M80.68,38.53H84V50.69a4.82,4.82,0,0,0,.5,2.41,1.71,1.71,0,0,0,1.56.72,1.84,1.84,0,0,0,1.6-.63,4.31,4.31,0,0,0,.46-2.32V38.53h3.36V49.41a14.93,14.93,0,0,1-.56,5.1Q89.77,57,86.06,57q-2.92,0-4.15-1.48t-1.23-5Z" transform="translate(-52.76 -16.82)"/></g><g class="cls-1"><path d="M95.3,38.53h3.36v2.27a6.42,6.42,0,0,1,1.71-2,4.38,4.38,0,0,1,2.23-.67v3.52a4.13,4.13,0,0,0-.6-.05,3.19,3.19,0,0,0-2.58.93,5.12,5.12,0,0,0-.76,3.2v11H95.3Z" transform="translate(-52.76 -16.82)"/></g><g class="cls-1"><path d="M112.45,38.88v3.43a2.11,2.11,0,0,0-1.69-.86q-2.78,0-2.78,6,0,6.38,2.76,6.38a3,3,0,0,0,1.71-.69V56.3a5.76,5.76,0,0,1-2.71.7q-5.41,0-5.41-9.21,0-4.9,1.34-7.23a4.45,4.45,0,0,1,4.15-2.33A5.77,5.77,0,0,1,112.45,38.88Z" transform="translate(-52.76 -16.82)"/><path d="M122.33,50.58h3.13Q125.09,57,120.19,57a5.36,5.36,0,0,1-2.5-.54A4.38,4.38,0,0,1,116,54.77a8.71,8.71,0,0,1-1-2.9,23.33,23.33,0,0,1-.33-4.18q0-4.82,1.34-7.14a4.48,4.48,0,0,1,4.16-2.32q5.47,0,5.47,9.63v.42H117.9q0,5.84,2.32,5.84Q122.33,54.12,122.33,50.58Zm-.18-4.73a12.27,12.27,0,0,0-.65-3.76,1.53,1.53,0,0,0-1.48-1,1.51,1.51,0,0,0-1.48,1,12.27,12.27,0,0,0-.65,3.76Z" transform="translate(-52.76 -16.82)"/><path d="M146.77,47.77q0,9.23-5.71,9.23t-5.71-9.37q0-9.4,5.7-9.4a5.47,5.47,0,0,1,2.56.56,4.49,4.49,0,0,1,1.78,1.74,9.13,9.13,0,0,1,1,3A23.07,23.07,0,0,1,146.77,47.77Zm-3.48-.09a17.79,17.79,0,0,0-.47-5,1.75,1.75,0,0,0-1.69-1.42,1.79,1.79,0,0,0-1.71,1.41,17.34,17.34,0,0,0-.47,4.9,17.13,17.13,0,0,0,.47,4.89,1.79,1.79,0,0,0,1.71,1.41,1.73,1.73,0,0,0,1.67-1.39A15.6,15.6,0,0,0,143.29,47.68Z" transform="translate(-52.76 -16.82)"/><path d="M148.61,38.53h1.69V32.18a7.86,7.86,0,0,1,.91-4.39,3.64,3.64,0,0,1,3.18-1.28,6.8,6.8,0,0,1,2.29.47v3.55a3.07,3.07,0,0,0-1.42-.44,1.39,1.39,0,0,0-1.22.51,3.09,3.09,0,0,0-.36,1.72l0,1.37v4.83h2.85V41.2h-2.85V56.72H150.3V41.2h-1.69Z" transform="translate(-52.76 -16.82)"/><path d="M164.89,38.53h1.69V32.18a7.86,7.86,0,0,1,.91-4.39,3.64,3.64,0,0,1,3.18-1.28A6.8,6.8,0,0,1,173,27v3.55a3.07,3.07,0,0,0-1.42-.44,1.39,1.39,0,0,0-1.22.51,3.09,3.09,0,0,0-.36,1.72l0,1.37v4.83h2.85V41.2h-2.85V56.72h-3.36V41.2h-1.69Z" transform="translate(-52.76 -16.82)"/><path d="M175,38.53h3.36V50.69a4.82,4.82,0,0,0,.5,2.41,1.71,1.71,0,0,0,1.56.72,1.84,1.84,0,0,0,1.6-.63,4.31,4.31,0,0,0,.46-2.32V38.53h3.36V49.41a14.93,14.93,0,0,1-.56,5.1q-1.18,2.5-4.89,2.5-2.92,0-4.15-1.48t-1.23-5Z" transform="translate(-52.76 -16.82)"/><path d="M189.62,38.53H193v2.09a4.27,4.27,0,0,1,3.73-2.39A3.32,3.32,0,0,1,199.87,40a9.17,9.17,0,0,1,.53,3.81V56.72H197l0-12.16a5.66,5.66,0,0,0-.44-2.62,1.59,1.59,0,0,0-1.51-.77,2.13,2.13,0,0,0-1,.2,1.53,1.53,0,0,0-.64.65,3.62,3.62,0,0,0-.36,1.17A11.6,11.6,0,0,0,193,45V56.72h-3.36Z" transform="translate(-52.76 -16.82)"/><path d="M214.58,26.85V56.72h-3.36V54.38a5.83,5.83,0,0,1-1.44,2.06,3,3,0,0,1-1.92.56,3.47,3.47,0,0,1-3.3-2.31,18.6,18.6,0,0,1-1.05-7.27,28,28,0,0,1,.26-4.13,10.32,10.32,0,0,1,.8-2.87A3.87,3.87,0,0,1,206,38.76a3.66,3.66,0,0,1,2-.54,3,3,0,0,1,1.83.53,3.65,3.65,0,0,1,.72.7,6.93,6.93,0,0,1,.72,1.13V26.85ZM207,47.54a18,18,0,0,0,.47,5A1.78,1.78,0,0,0,209.19,54q1.13,0,1.63-1.48a17.1,17.1,0,0,0,.51-4.87,17.19,17.19,0,0,0-.51-4.89q-.51-1.48-1.63-1.48a1.79,1.79,0,0,0-1.71,1.41A15.94,15.94,0,0,0,207,47.54Z" transform="translate(-52.76 -16.82)"/><path d="M220,30.79a2.28,2.28,0,0,1,2.25,2.27,2.28,2.28,0,1,1-4.55,0,2.16,2.16,0,0,1,.67-1.58A2.34,2.34,0,0,1,220,30.79Zm-1.58,7.73h3.38V56.72H218.4Z" transform="translate(-52.76 -16.82)"/><path d="M225.55,38.53h3.36v2.09a4.27,4.27,0,0,1,3.73-2.39A3.32,3.32,0,0,1,235.8,40a9.17,9.17,0,0,1,.53,3.81V56.72H233l0-12.16a5.66,5.66,0,0,0-.44-2.62,1.59,1.59,0,0,0-1.51-.77,2.13,2.13,0,0,0-1,.2,1.53,1.53,0,0,0-.64.65,3.62,3.62,0,0,0-.36,1.17,11.6,11.6,0,0,0-.11,1.78V56.72h-3.36Z" transform="translate(-52.76 -16.82)"/><path d="M247.17,38.53h3.38V57.3a11.31,11.31,0,0,1-.67,4.68q-1.23,2.39-4.94,2.39A5.18,5.18,0,0,1,241.11,63a5.11,5.11,0,0,1-1.41-3.78l0-.56H243q0,2.9,2.16,2.9a1.68,1.68,0,0,0,1.6-.74,5.92,5.92,0,0,0,.44-2.79V54.5a3.5,3.5,0,0,1-3.29,2.5,3.54,3.54,0,0,1-3.37-2.21,16.64,16.64,0,0,1-1.08-6.93,19.51,19.51,0,0,1,1-7.37,3.49,3.49,0,0,1,3.39-2.27,2.9,2.9,0,0,1,1.83.54,6.41,6.41,0,0,1,1.48,1.93Zm.05,9.26q0-6.52-2.25-6.52-1.07,0-1.56,1.47a16.15,16.15,0,0,0-.49,4.7,18.19,18.19,0,0,0,.51,5Q244,54,245.19,54a1.64,1.64,0,0,0,1.6-1.34A17.32,17.32,0,0,0,247.23,47.79Z" transform="translate(-52.76 -16.82)"/><path d="M261.8,26.85h3.36V40.58a6.93,6.93,0,0,1,.72-1.12,3.65,3.65,0,0,1,.72-.7,3,3,0,0,1,1.83-.53,3.66,3.66,0,0,1,2,.54,3.87,3.87,0,0,1,1.38,1.66,10.32,10.32,0,0,1,.8,2.87,28,28,0,0,1,.26,4.13,18.6,18.6,0,0,1-1.05,7.27,3.47,3.47,0,0,1-3.3,2.31,3,3,0,0,1-1.92-.56,5.83,5.83,0,0,1-1.44-2.06v2.34H261.8Zm7.59,20.87a16.81,16.81,0,0,0-.49-5,1.75,1.75,0,0,0-1.71-1.42q-1.16,0-1.63,1.44a17.54,17.54,0,0,0-.47,4.92,17.65,17.65,0,0,0,.47,4.92Q266,54,267.19,54a1.79,1.79,0,0,0,1.71-1.41A15.85,15.85,0,0,0,269.39,47.72Z" transform="translate(-52.76 -16.82)"/></g><g class="cls-1"><path d="M276,38.53h3.36v2.27a6.42,6.42,0,0,1,1.71-2,4.38,4.38,0,0,1,2.23-.67v3.52a4.13,4.13,0,0,0-.6-.05,3.19,3.19,0,0,0-2.58.93,5.12,5.12,0,0,0-.76,3.2v11H276Z" transform="translate(-52.76 -16.82)"/></g><g class="cls-1"><path d="M292.76,50.58h3.13Q295.52,57,290.62,57a5.36,5.36,0,0,1-2.5-.54,4.38,4.38,0,0,1-1.73-1.69,8.71,8.71,0,0,1-1-2.9,23.33,23.33,0,0,1-.33-4.18q0-4.82,1.34-7.14a4.48,4.48,0,0,1,4.16-2.32q5.47,0,5.47,9.63v.42h-7.68q0,5.84,2.32,5.84Q292.76,54.12,292.76,50.58Zm-.18-4.73a12.27,12.27,0,0,0-.65-3.76,1.53,1.53,0,0,0-1.48-1,1.51,1.51,0,0,0-1.48,1,12.27,12.27,0,0,0-.65,3.76Z" transform="translate(-52.76 -16.82)"/><path d="M309.39,38.53V56.72H306V54.38a5.83,5.83,0,0,1-1.44,2.06,3,3,0,0,1-1.9.56,3.48,3.48,0,0,1-3.32-2.32,18.67,18.67,0,0,1-1.05-7.28,17.14,17.14,0,0,1,1.05-7,3.48,3.48,0,0,1,3.32-2.22A3.77,3.77,0,0,1,306,40.58V38.53Zm-7.59,9a18,18,0,0,0,.47,5A1.78,1.78,0,0,0,304,54q1.13,0,1.63-1.48a17.1,17.1,0,0,0,.51-4.87,17.19,17.19,0,0,0-.51-4.89q-.51-1.48-1.63-1.48a1.79,1.79,0,0,0-1.71,1.41A15.94,15.94,0,0,0,301.79,47.54Z" transform="translate(-52.76 -16.82)"/><path d="M313.2,26.85h3.36V46.63l4.27-8.1h3.8L320,46.63l5.26,10.09h-3.94l-4.75-9.67v9.67H313.2Z" transform="translate(-52.76 -16.82)"/><path d="M337.67,26.85V56.72h-3.36V54.38a5.83,5.83,0,0,1-1.44,2.06A3,3,0,0,1,331,57a3.47,3.47,0,0,1-3.3-2.31,18.6,18.6,0,0,1-1.05-7.27,28,28,0,0,1,.26-4.13,10.32,10.32,0,0,1,.8-2.87A3.87,3.87,0,0,1,329,38.76a3.66,3.66,0,0,1,2-.54,3,3,0,0,1,1.83.53,3.65,3.65,0,0,1,.72.7,6.93,6.93,0,0,1,.72,1.13V26.85Zm-7.59,20.69a18,18,0,0,0,.47,5A1.78,1.78,0,0,0,332.28,54q1.13,0,1.63-1.48a17.1,17.1,0,0,0,.51-4.87,17.19,17.19,0,0,0-.51-4.89q-.51-1.48-1.63-1.48a1.79,1.79,0,0,0-1.71,1.41A15.94,15.94,0,0,0,330.08,47.54Z" transform="translate(-52.76 -16.82)"/></g><g class="cls-1"><path d="M352.23,47.77q0,9.23-5.71,9.23t-5.71-9.37q0-9.4,5.7-9.4a5.47,5.47,0,0,1,2.56.56,4.49,4.49,0,0,1,1.78,1.74,9.13,9.13,0,0,1,1,3A23.07,23.07,0,0,1,352.23,47.77Zm-3.48-.09a17.79,17.79,0,0,0-.47-5,1.75,1.75,0,0,0-1.69-1.42,1.79,1.79,0,0,0-1.71,1.41,17.34,17.34,0,0,0-.47,4.9,17.13,17.13,0,0,0,.47,4.89,1.79,1.79,0,0,0,1.71,1.41,1.73,1.73,0,0,0,1.67-1.39A15.6,15.6,0,0,0,348.75,47.68Z" transform="translate(-52.76 -16.82)"/></g><g class="cls-1"><path d="M353.47,38.53H357l1,5.85q.3,1.76.54,3.39T359,51l.05.63.07-.67q.14-1.27.29-2.33t.33-2l.28-1.39,1.25-6.71h2.44l1.18,6.71.39,2.11q.12.6.23,1.49t.21,2.1l.07.65q.32-3.27.9-6.35l1.25-6.71h3.3l-4.27,18.19H364.6l-1.39-6.94q-.25-1.27-.42-2.59t-.3-2.82q0-.18,0-.42t-.05-.58q-.11,1.6-.3,3.1t-.47,3l-1.41,7.26H357.9Z" transform="translate(-52.76 -16.82)"/><path d="M373.37,38.53h3.36v2.09a4.27,4.27,0,0,1,3.73-2.39A3.32,3.32,0,0,1,383.62,40a9.17,9.17,0,0,1,.53,3.81V56.72h-3.36l0-12.16a5.66,5.66,0,0,0-.44-2.62,1.59,1.59,0,0,0-1.51-.77,2.13,2.13,0,0,0-1,.2,1.53,1.53,0,0,0-.64.65,3.62,3.62,0,0,0-.36,1.17,11.6,11.6,0,0,0-.11,1.78V56.72h-3.36Z" transform="translate(-52.76 -16.82)"/></g></g><line class="cls-2" x1="348.15" x2="348.15" y2="58.3"/><rect class="cls-3" x="364.7" y="13.08" width="10.14" height="10.14"/><rect class="cls-4" x="364.7" y="35.7" width="10.14" height="10.14"/><g class="cls-1"><g class="cls-5"><path d="M445.93,26.47h2.41a3.25,3.25,0,0,1,2.53.88,4.16,4.16,0,0,1,.79,2.81q0,2.71-1.59,3.5a5.82,5.82,0,0,1-2.31.36v6h-1.83Zm1.83,6a2.11,2.11,0,0,0,1.56-.46,2.41,2.41,0,0,0,.44-1.65,3,3,0,0,0-.42-1.78A1.55,1.55,0,0,0,448,28h-.25Z" transform="translate(-52.76 -16.82)"/></g><g class="cls-1"><path d="M453,30.94h1.68v1.13a3.21,3.21,0,0,1,.85-1,2.19,2.19,0,0,1,1.12-.33v1.76l-.3,0a1.59,1.59,0,0,0-1.29.47,2.56,2.56,0,0,0-.38,1.6V40H453Z" transform="translate(-52.76 -16.82)"/></g><g class="cls-1"><path d="M458.6,27.08a1.14,1.14,0,0,1,1.13,1.13,1.14,1.14,0,1,1-2.28,0,1.08,1.08,0,0,1,.33-.79A1.17,1.17,0,0,1,458.6,27.08Zm-.79,3.87h1.69V40h-1.69Z" transform="translate(-52.76 -16.82)"/><path d="M461.39,30.94h1.68v1.12a2.08,2.08,0,0,1,1.85-1.27,1.69,1.69,0,0,1,1.71,1.27,2.07,2.07,0,0,1,1.9-1.27,2,2,0,0,1,1.46.51,2,2,0,0,1,.51,1.49V40H468.8v-6a3.26,3.26,0,0,0-.19-1.38.73.73,0,0,0-.72-.36.88.88,0,0,0-.83.37,3,3,0,0,0-.21,1.37v6H465.1v-6a5.83,5.83,0,0,0,0-.82,1.55,1.55,0,0,0-.16-.54.7.7,0,0,0-.3-.29,1,1,0,0,0-.46-.09.9.9,0,0,0-.83.4,2.69,2.69,0,0,0-.25,1.34v6h-1.68Z" transform="translate(-52.76 -16.82)"/><path d="M477.58,30.94V40H475.9V38.87a2.92,2.92,0,0,1-.72,1,1.5,1.5,0,0,1-.95.28A1.74,1.74,0,0,1,472.57,39a9.33,9.33,0,0,1-.53-3.64,8.58,8.58,0,0,1,.53-3.48,1.74,1.74,0,0,1,1.66-1.11A1.89,1.89,0,0,1,475.9,32v-1Zm-3.8,4.51A9,9,0,0,0,474,38a.89.89,0,0,0,.86.71q.56,0,.82-.74A8.55,8.55,0,0,0,476,35.5a8.59,8.59,0,0,0-.25-2.44q-.25-.74-.82-.74a.89.89,0,0,0-.85.7A8,8,0,0,0,473.78,35.45Z" transform="translate(-52.76 -16.82)"/></g><g class="cls-1"><path d="M479.48,30.94h1.68v1.13a3.21,3.21,0,0,1,.85-1,2.19,2.19,0,0,1,1.12-.33v1.76l-.3,0a1.59,1.59,0,0,0-1.29.47,2.56,2.56,0,0,0-.38,1.6V40h-1.68Z" transform="translate(-52.76 -16.82)"/></g><g class="cls-1"><path d="M483.88,30.94h1.9l1.34,6.35,1.56-6.35h1.71l-3.72,12.82H484.9l1.4-4.46Z" transform="translate(-52.76 -16.82)"/><path d="M499.74,26.75v1.78a2.68,2.68,0,0,0-1.5-.6,1.51,1.51,0,0,0-1.18.51,1.8,1.8,0,0,0-.46,1.29,2.22,2.22,0,0,0,.33,1.22,5.41,5.41,0,0,0,.55.7q.38.43,1,1a8.12,8.12,0,0,1,1.52,2,4.31,4.31,0,0,1,.4,2,3.81,3.81,0,0,1-.89,2.59,2.92,2.92,0,0,1-2.28,1,3.15,3.15,0,0,1-2-.64V37.75a3.11,3.11,0,0,0,1.78.71,1.45,1.45,0,0,0,1.17-.5,2,2,0,0,0,.42-1.35,2.7,2.7,0,0,0-.33-1.33,5.5,5.5,0,0,0-.47-.65q-.3-.36-.75-.81-.69-.69-1.15-1.21a5.72,5.72,0,0,1-.68-.92,4,4,0,0,1-.42-2,3.66,3.66,0,0,1,.83-2.52,2.85,2.85,0,0,1,2.24-.94A4,4,0,0,1,499.74,26.75Z" transform="translate(-52.76 -16.82)"/><path d="M507.21,35.57q0,4.61-2.86,4.61t-2.86-4.68q0-4.7,2.85-4.7a2.74,2.74,0,0,1,1.28.28,2.25,2.25,0,0,1,.89.87,4.57,4.57,0,0,1,.52,1.49A11.54,11.54,0,0,1,507.21,35.57Zm-1.74,0a8.89,8.89,0,0,0-.24-2.5.87.87,0,0,0-.84-.71.89.89,0,0,0-.85.7,8.67,8.67,0,0,0-.24,2.45,8.57,8.57,0,0,0,.24,2.44.89.89,0,0,0,.85.7.86.86,0,0,0,.83-.69A7.8,7.8,0,0,0,505.47,35.52Z" transform="translate(-52.76 -16.82)"/><path d="M508.77,30.94h1.68V37a2.41,2.41,0,0,0,.25,1.2.85.85,0,0,0,.78.36.92.92,0,0,0,.8-.32,2.16,2.16,0,0,0,.23-1.16V30.94h1.68v5.44a7.47,7.47,0,0,1-.28,2.55,2.42,2.42,0,0,1-2.44,1.25,2.56,2.56,0,0,1-2.07-.74,3.94,3.94,0,0,1-.62-2.49Z" transform="translate(-52.76 -16.82)"/></g><g class="cls-1"><path d="M516.08,30.94h1.68v1.13a3.21,3.21,0,0,1,.85-1,2.19,2.19,0,0,1,1.12-.33v1.76l-.3,0a1.59,1.59,0,0,0-1.29.47,2.56,2.56,0,0,0-.38,1.6V40h-1.68Z" transform="translate(-52.76 -16.82)"/></g><g class="cls-1"><path d="M524.66,31.12v1.71a1.06,1.06,0,0,0-.84-.43q-1.39,0-1.39,3,0,3.19,1.38,3.19a1.48,1.48,0,0,0,.85-.34v1.57a2.88,2.88,0,0,1-1.35.35q-2.71,0-2.71-4.61a7.53,7.53,0,0,1,.67-3.62,2.23,2.23,0,0,1,2.07-1.16A2.88,2.88,0,0,1,524.66,31.12Z" transform="translate(-52.76 -16.82)"/><path d="M529.6,37h1.56q-.18,3.21-2.64,3.21a2.68,2.68,0,0,1-1.25-.27,2.19,2.19,0,0,1-.87-.84,4.35,4.35,0,0,1-.51-1.45,11.67,11.67,0,0,1-.16-2.09,7.34,7.34,0,0,1,.67-3.57,2.24,2.24,0,0,1,2.08-1.16q2.73,0,2.73,4.82v.21h-3.84q0,2.92,1.16,2.92T529.6,37Zm-.09-2.36a6.14,6.14,0,0,0-.33-1.88.77.77,0,0,0-.74-.5.76.76,0,0,0-.74.5,6.14,6.14,0,0,0-.33,1.88Z" transform="translate(-52.76 -16.82)"/></g></g><g class="cls-1"><g class="cls-5"><path d="M450.45,49.36v1.78a2.68,2.68,0,0,0-1.5-.6,1.51,1.51,0,0,0-1.18.51,1.8,1.8,0,0,0-.46,1.29,2.22,2.22,0,0,0,.33,1.22,5.41,5.41,0,0,0,.55.7q.38.43,1,1a8.12,8.12,0,0,1,1.52,2,4.31,4.31,0,0,1,.4,2,3.81,3.81,0,0,1-.89,2.59,2.92,2.92,0,0,1-2.28,1,3.15,3.15,0,0,1-2-.64V60.37a3.11,3.11,0,0,0,1.78.71,1.45,1.45,0,0,0,1.17-.5,2,2,0,0,0,.42-1.35A2.7,2.7,0,0,0,449,57.9a5.5,5.5,0,0,0-.47-.65q-.3-.36-.75-.81-.69-.69-1.15-1.21a5.72,5.72,0,0,1-.68-.92,4,4,0,0,1-.42-2,3.66,3.66,0,0,1,.83-2.52,2.85,2.85,0,0,1,2.24-.94A4,4,0,0,1,450.45,49.36Z" transform="translate(-52.76 -16.82)"/><path d="M456.06,59.58h1.56q-.18,3.21-2.64,3.21a2.68,2.68,0,0,1-1.25-.27,2.19,2.19,0,0,1-.87-.84,4.36,4.36,0,0,1-.5-1.45,11.66,11.66,0,0,1-.16-2.09,7.34,7.34,0,0,1,.67-3.57A2.24,2.24,0,0,1,455,53.4q2.73,0,2.73,4.82v.21h-3.84q0,2.92,1.16,2.92T456.06,59.58ZM456,57.22a6.14,6.14,0,0,0-.33-1.88.77.77,0,0,0-.74-.5.76.76,0,0,0-.74.5,6.14,6.14,0,0,0-.33,1.88Z" transform="translate(-52.76 -16.82)"/><path d="M462.9,53.73v1.71a1.06,1.06,0,0,0-.84-.43q-1.39,0-1.39,3,0,3.19,1.38,3.19a1.48,1.48,0,0,0,.85-.34v1.57a2.88,2.88,0,0,1-1.35.35q-2.71,0-2.71-4.61a7.53,7.53,0,0,1,.67-3.62,2.23,2.23,0,0,1,2.07-1.16A2.88,2.88,0,0,1,462.9,53.73Z" transform="translate(-52.76 -16.82)"/><path d="M469.69,58.18q0,4.61-2.86,4.61T464,58.11q0-4.7,2.85-4.7a2.74,2.74,0,0,1,1.28.28,2.25,2.25,0,0,1,.89.87,4.57,4.57,0,0,1,.52,1.49A11.54,11.54,0,0,1,469.69,58.18Zm-1.74,0a8.89,8.89,0,0,0-.24-2.5.87.87,0,0,0-.84-.71.89.89,0,0,0-.85.7,8.67,8.67,0,0,0-.24,2.45,8.57,8.57,0,0,0,.24,2.44.89.89,0,0,0,.85.7.86.86,0,0,0,.83-.69A7.8,7.8,0,0,0,468,58.13Z" transform="translate(-52.76 -16.82)"/><path d="M471.26,53.55h1.68v1a2.13,2.13,0,0,1,1.86-1.2,1.66,1.66,0,0,1,1.58.87,4.59,4.59,0,0,1,.26,1.91v6.47H475V56.57a2.83,2.83,0,0,0-.22-1.31.8.8,0,0,0-.76-.39,1.07,1.07,0,0,0-.49.1.77.77,0,0,0-.32.33,1.8,1.8,0,0,0-.18.58,5.79,5.79,0,0,0-.06.89v5.88h-1.68Z" transform="translate(-52.76 -16.82)"/><path d="M483.74,47.72V62.65h-1.68V61.48a2.92,2.92,0,0,1-.72,1,1.51,1.51,0,0,1-1,.28,1.73,1.73,0,0,1-1.65-1.16A9.29,9.29,0,0,1,478.2,58a14,14,0,0,1,.13-2.07,5.16,5.16,0,0,1,.4-1.43,1.94,1.94,0,0,1,.69-.83,1.84,1.84,0,0,1,1-.27,1.51,1.51,0,0,1,.91.26,1.82,1.82,0,0,1,.36.35,3.46,3.46,0,0,1,.36.56V47.72Zm-3.8,10.34a9,9,0,0,0,.24,2.5.89.89,0,0,0,.86.71q.56,0,.82-.74a8.55,8.55,0,0,0,.25-2.43,8.59,8.59,0,0,0-.25-2.44q-.25-.74-.82-.74a.89.89,0,0,0-.85.7A8,8,0,0,0,479.94,58.06Z" transform="translate(-52.76 -16.82)"/><path d="M490.84,53.55v9.1h-1.68V61.48a2.92,2.92,0,0,1-.72,1,1.5,1.5,0,0,1-.95.28,1.74,1.74,0,0,1-1.66-1.16A9.33,9.33,0,0,1,485.3,58a8.58,8.58,0,0,1,.53-3.48,1.74,1.74,0,0,1,1.66-1.11,1.89,1.89,0,0,1,1.67,1.18v-1ZM487,58.06a9,9,0,0,0,.24,2.5.89.89,0,0,0,.86.71q.56,0,.82-.74a8.55,8.55,0,0,0,.25-2.43,8.59,8.59,0,0,0-.25-2.44q-.25-.74-.82-.74a.89.89,0,0,0-.85.7A8,8,0,0,0,487,58.06Z" transform="translate(-52.76 -16.82)"/></g><g class="cls-1"><path d="M492.75,53.55h1.68v1.13a3.21,3.21,0,0,1,.85-1,2.19,2.19,0,0,1,1.12-.33V55.1l-.3,0a1.59,1.59,0,0,0-1.29.47,2.56,2.56,0,0,0-.38,1.6v5.51h-1.68Z" transform="translate(-52.76 -16.82)"/></g><g class="cls-1"><path d="M497.14,53.55H499l1.34,6.35,1.56-6.35h1.71l-3.72,12.82h-1.77l1.4-4.46Z" transform="translate(-52.76 -16.82)"/><path d="M513,49.36v1.78a2.68,2.68,0,0,0-1.5-.6,1.51,1.51,0,0,0-1.18.51,1.8,1.8,0,0,0-.46,1.29,2.22,2.22,0,0,0,.33,1.22,5.39,5.39,0,0,0,.55.7q.38.43,1,1a8.12,8.12,0,0,1,1.52,2,4.31,4.31,0,0,1,.4,2,3.81,3.81,0,0,1-.89,2.59,2.92,2.92,0,0,1-2.28,1,3.15,3.15,0,0,1-2-.64V60.37a3.11,3.11,0,0,0,1.78.71,1.45,1.45,0,0,0,1.17-.5,2,2,0,0,0,.42-1.35,2.7,2.7,0,0,0-.33-1.33,5.5,5.5,0,0,0-.47-.65q-.3-.36-.75-.81-.69-.69-1.15-1.21a5.72,5.72,0,0,1-.68-.92,4,4,0,0,1-.42-2,3.66,3.66,0,0,1,.83-2.52,2.85,2.85,0,0,1,2.24-.94A4,4,0,0,1,513,49.36Z" transform="translate(-52.76 -16.82)"/><path d="M520.47,58.18q0,4.61-2.86,4.61t-2.86-4.68q0-4.7,2.85-4.7a2.73,2.73,0,0,1,1.28.28,2.25,2.25,0,0,1,.89.87,4.57,4.57,0,0,1,.52,1.49A11.53,11.53,0,0,1,520.47,58.18Zm-1.74,0a8.89,8.89,0,0,0-.24-2.5.87.87,0,0,0-.84-.71.89.89,0,0,0-.85.7,8.67,8.67,0,0,0-.24,2.45,8.57,8.57,0,0,0,.24,2.44.89.89,0,0,0,.85.7.86.86,0,0,0,.83-.69A7.8,7.8,0,0,0,518.73,58.13Z" transform="translate(-52.76 -16.82)"/><path d="M522,53.55h1.68v6.08a2.41,2.41,0,0,0,.25,1.2.86.86,0,0,0,.78.36.92.92,0,0,0,.8-.32,2.16,2.16,0,0,0,.23-1.16V53.55h1.68V59a7.47,7.47,0,0,1-.28,2.55,2.42,2.42,0,0,1-2.44,1.25,2.56,2.56,0,0,1-2.07-.74,3.94,3.94,0,0,1-.62-2.49Z" transform="translate(-52.76 -16.82)"/></g><g class="cls-1"><path d="M529.34,53.55H531v1.13a3.21,3.21,0,0,1,.85-1,2.19,2.19,0,0,1,1.12-.33V55.1l-.3,0a1.59,1.59,0,0,0-1.29.47,2.56,2.56,0,0,0-.38,1.6v5.51h-1.68Z" transform="translate(-52.76 -16.82)"/></g><g class="cls-1"><path d="M537.92,53.73v1.71a1.06,1.06,0,0,0-.84-.43q-1.39,0-1.39,3,0,3.19,1.38,3.19a1.48,1.48,0,0,0,.85-.34v1.57a2.88,2.88,0,0,1-1.35.35q-2.71,0-2.71-4.61a7.53,7.53,0,0,1,.67-3.62,2.23,2.23,0,0,1,2.07-1.16A2.88,2.88,0,0,1,537.92,53.73Z" transform="translate(-52.76 -16.82)"/><path d="M542.86,59.58h1.56q-.18,3.21-2.64,3.21a2.68,2.68,0,0,1-1.25-.27,2.2,2.2,0,0,1-.87-.84,4.38,4.38,0,0,1-.51-1.45,11.76,11.76,0,0,1-.16-2.09,7.35,7.35,0,0,1,.67-3.57,2.24,2.24,0,0,1,2.08-1.16q2.73,0,2.73,4.82v.21h-3.84q0,2.92,1.16,2.92T542.86,59.58Zm-.09-2.36a6.14,6.14,0,0,0-.33-1.88.77.77,0,0,0-.74-.5.76.76,0,0,0-.74.5,6.14,6.14,0,0,0-.33,1.88Z" transform="translate(-52.76 -16.82)"/><path d="M549.49,53.74v1.57a2.13,2.13,0,0,0-1.29-.46,1.1,1.1,0,0,0-.42.08,1.13,1.13,0,0,0-.34.21,1,1,0,0,0-.23.33,1,1,0,0,0-.08.4q0,.65,1.18,1.55a8.55,8.55,0,0,1,.79.69,3.13,3.13,0,0,1,.48.6,2.61,2.61,0,0,1,.34,1.4,2.7,2.7,0,0,1-.71,2,2.5,2.5,0,0,1-1.89.73,2.94,2.94,0,0,1-1.48-.43V60.73a2.34,2.34,0,0,0,1.38.54,1,1,0,0,0,1.15-1.13,1.26,1.26,0,0,0-.21-.73,2,2,0,0,0-.31-.35c-.14-.13-.31-.28-.52-.44a6.85,6.85,0,0,1-1.44-1.39,2.55,2.55,0,0,1-.37-1.4,2.49,2.49,0,0,1,.68-1.8,2.4,2.4,0,0,1,1.78-.69A3.12,3.12,0,0,1,549.49,53.74Z" transform="translate(-52.76 -16.82)"/></g></g></svg>