<svg id="Layer_2" data-name="Layer 2" xmlns="http://www.w3.org/2000/svg" viewBox="0 0 1379.07 1257.37"><defs><style>.cls-1,.cls-16,.cls-25{opacity:0.7;}.cls-2{font-size:36px;}.cls-11,.cls-16,.cls-2,.cls-25,.cls-51,.cls-53,.cls-55,.cls-57,.cls-58,.cls-73,.cls-74{font-family:Futura-CondensedMedium, Futura;}.cls-3{letter-spacing:0.01em;}.cls-4{letter-spacing:0em;}.cls-5{letter-spacing:0em;}.cls-6{letter-spacing:0em;}.cls-7{letter-spacing:-0.01em;}.cls-15,.cls-71,.cls-72,.cls-8{stroke:#000;stroke-miterlimit:10;}.cls-9{fill:#bdedb7;}.cls-10{fill:#daddd9;}.cls-11{opacity:0.9;font-size:18px;}.cls-12{letter-spacing:0em;}.cls-13{letter-spacing:0.03em;}.cls-14{fill:#e5e023;opacity:0.2;}.cls-15{fill:#fff;stroke-width:0.5px;}.cls-16{font-size:20.85px;}.cls-17{letter-spacing:0em;}.cls-18{letter-spacing:0em;}.cls-19{letter-spacing:0.03em;}.cls-20{letter-spacing:0em;}.cls-21{letter-spacing:0em;}.cls-22{letter-spacing:0.01em;}.cls-23{letter-spacing:0em;}.cls-24{letter-spacing:0em;}.cls-25{font-size:17.72px;}.cls-26{letter-spacing:-0.01em;}.cls-27{letter-spacing:-0.01em;}.cls-28{letter-spacing:0em;}.cls-29{letter-spacing:-0.03em;}.cls-30{letter-spacing:0.01em;}.cls-31{letter-spacing:0em;}.cls-32{letter-spacing:0em;}.cls-33{letter-spacing:0em;}.cls-34{letter-spacing:0.01em;}.cls-35{letter-spacing:0em;}.cls-36{letter-spacing:0em;}.cls-37{letter-spacing:-0.01em;}.cls-38{letter-spacing:-0.01em;}.cls-39{letter-spacing:0.01em;}.cls-40{letter-spacing:0em;}.cls-41{letter-spacing:0.02em;}.cls-42{letter-spacing:0.01em;}.cls-43{letter-spacing:0em;}.cls-44{letter-spacing:0em;}.cls-45{letter-spacing:-0.02em;}.cls-46{letter-spacing:0em;}.cls-47{letter-spacing:0em;}.cls-48{letter-spacing:0em;}.cls-49{letter-spacing:-0.01em;}.cls-50{letter-spacing:-0.01em;}.cls-51,.cls-53,.cls-55,.cls-57,.cls-58{font-size:20.96px;}.cls-52{letter-spacing:0.01em;}.cls-53{letter-spacing:-0.06em;}.cls-54{letter-spacing:0em;}.cls-55{letter-spacing:-0.06em;}.cls-56{letter-spacing:-0.06em;}.cls-57{letter-spacing:-0.06em;}.cls-58{letter-spacing:-0.06em;}.cls-59{letter-spacing:0em;}.cls-60{letter-spacing:0em;}.cls-61{letter-spacing:0em;}.cls-62{letter-spacing:0em;}.cls-63{letter-spacing:0em;}.cls-64{letter-spacing:0.01em;}.cls-65{letter-spacing:-0.02em;}.cls-66{letter-spacing:0em;}.cls-67{letter-spacing:-0.01em;}.cls-68{letter-spacing:0em;}.cls-69{letter-spacing:-0.03em;}.cls-70{opacity:0.3;}.cls-71,.cls-72{fill:none;}.cls-72{stroke-dasharray:2.99 2.99;}.cls-73,.cls-74{font-size:16.12px;}.cls-74{letter-spacing:-0.02em;}.cls-75{letter-spacing:-0.03em;}.cls-76{letter-spacing:-0.05em;}.cls-77{letter-spacing:-0.01em;}.cls-78{letter-spacing:-0.06em;}.cls-79{letter-spacing:-0.06em;}.cls-80{letter-spacing:-0.07em;}.cls-81{letter-spacing:-0.09em;}.cls-82{letter-spacing:0em;}</style></defs><title>system_type</title><text class="cls-1"></text><text class="cls-2" transform="translate(468.01 102.04)">S<tspan class="cls-3" x="13.43" y="0">y</tspan><tspan class="cls-4" x="26.91" y="0">s</tspan><tspan class="cls-5" x="37.67" y="0">t</tspan><tspan x="45.63" y="0">em type b</tspan><tspan class="cls-6" x="158.75" y="0">r</tspan><tspan x="168.47" y="0">eakd</tspan><tspan class="cls-7" x="224.23" y="0">o</tspan><tspan x="237.85" y="0">wn</tspan></text><line class="cls-8" x1="754.43" y1="62.14" x2="754.43" y2="120.45"/><rect class="cls-9" x="772.08" y="74.92" width="10.14" height="10.14"/><rect class="cls-10" x="772.08" y="97.54" width="10.14" height="10.14"/><text class="cls-11" transform="translate(798.81 85.36)">P<tspan class="cls-12" x="7.14" y="0">r</tspan><tspan x="11.98" y="0">ima</tspan><tspan class="cls-13" x="33.65" y="0">r</tspan><tspan x="38.93" y="0">y S</tspan><tspan class="cls-3" x="56" y="0">y</tspan><tspan class="cls-4" x="62.75" y="0">s</tspan><tspan class="cls-5" x="68.12" y="0">t</tspan><tspan x="72.11" y="0">em</tspan></text><text class="cls-11" transform="translate(798.81 107.98)">Seconda<tspan class="cls-13" x="46.92" y="0">r</tspan><tspan x="52.19" y="0">y S</tspan><tspan class="cls-3" x="69.27" y="0">y</tspan><tspan class="cls-4" x="76.01" y="0">s</tspan><tspan class="cls-5" x="81.39" y="0">t</tspan><tspan x="85.37" y="0">ems</tspan></text><rect class="cls-14" x="106.44" y="1117.5" width="1143.77" height="76.76"/><line class="cls-15" x1="106.44" y1="432.66" x2="233.76" y2="432.66"/><line class="cls-15" x1="106.44" y1="356.6" x2="233.76" y2="356.6"/><line class="cls-15" x1="106.44" y1="508.91" x2="233.76" y2="508.91"/><line class="cls-15" x1="106.44" y1="585.17" x2="233.76" y2="585.17"/><line class="cls-15" x1="106.44" y1="660.88" x2="233.76" y2="660.88"/><line class="cls-15" x1="106.44" y1="737.02" x2="233.76" y2="737.02"/><line class="cls-15" x1="254.39" y1="356.6" x2="332.6" y2="356.6"/><line class="cls-15" x1="254.39" y1="432.66" x2="332.6" y2="432.66"/><line class="cls-15" x1="254.39" y1="508.91" x2="332.6" y2="508.91"/><line class="cls-15" x1="254.39" y1="585.17" x2="332.6" y2="585.17"/><line class="cls-15" x1="254.39" y1="660.88" x2="332.6" y2="660.88"/><line class="cls-15" x1="254.39" y1="737.02" x2="332.6" y2="737.02"/><line class="cls-15" x1="377.39" y1="356.6" x2="1250.2" y2="356.6"/><line class="cls-15" x1="106.44" y1="1117.5" x2="233.76" y2="1117.5"/><line class="cls-15" x1="106.44" y1="1041.37" x2="233.76" y2="1041.37"/><line class="cls-15" x1="106.44" y1="965.65" x2="233.76" y2="965.65"/><line class="cls-15" x1="106.44" y1="889.93" x2="233.76" y2="889.93"/><line class="cls-15" x1="106.44" y1="813.15" x2="233.76" y2="813.15"/><line class="cls-15" x1="254.39" y1="1117.5" x2="332.6" y2="1117.5"/><line class="cls-15" x1="254.39" y1="1041.37" x2="332.6" y2="1041.37"/><line class="cls-15" x1="254.39" y1="965.65" x2="332.6" y2="965.65"/><line class="cls-15" x1="254.39" y1="889.93" x2="332.6" y2="889.93"/><line class="cls-15" x1="254.39" y1="814.22" x2="332.6" y2="814.22"/><text class="cls-16" transform="translate(239.2 288.82)">Co<tspan class="cls-17" x="15.98" y="0">m</tspan><tspan x="28.68" y="0">plemen</tspan><tspan class="cls-18" x="77.61" y="0">t</tspan><tspan x="82.26" y="0">a</tspan><tspan class="cls-19" x="90.49" y="0">r</tspan><tspan x="96.6" y="0">y </tspan><tspan x="25.58" y="25.02">Cu</tspan><tspan class="cls-20" x="42.01" y="25.02">r</tspan><tspan class="cls-21" x="47.62" y="25.02">r</tspan><tspan x="53.25" y="25.02">ency</tspan><tspan x="27.81" y="50.04">S</tspan><tspan class="cls-22" x="35.59" y="50.04">y</tspan><tspan class="cls-23" x="43.4" y="50.04">s</tspan><tspan class="cls-24" x="49.63" y="50.04">t</tspan><tspan x="54.24" y="50.04">ems</tspan></text><text class="cls-25" transform="translate(432.57 333.99) rotate(-45) scale(1.18 1)">Local E<tspan class="cls-26" x="38.37" y="0">x</tspan><tspan class="cls-27" x="44.78" y="0">c</tspan><tspan class="cls-28" x="49.74" y="0">hange </tspan><tspan class="cls-29" x="88.27" y="0">T</tspan><tspan class="cls-30" x="93.58" y="0">r</tspan><tspan x="98.42" y="0">ading S</tspan><tspan class="cls-30" x="140.36" y="0">y</tspan><tspan class="cls-31" x="147" y="0">s</tspan><tspan class="cls-32" x="152.29" y="0">t</tspan><tspan x="156.21" y="0">em</tspan></text><text class="cls-16" transform="translate(545.02 333.36) rotate(-45)">Mutual C<tspan class="cls-33" x="58.11" y="0">r</tspan><tspan x="63.74" y="0">edit S</tspan><tspan class="cls-34" x="100.53" y="0">y</tspan><tspan class="cls-35" x="108.33" y="0">s</tspan><tspan class="cls-36" x="114.56" y="0">t</tspan><tspan x="119.18" y="0">em</tspan></text><text class="cls-16" transform="translate(652.59 333.36) rotate(-45)">Community E<tspan class="cls-37" x="86.72" y="0">x</tspan><tspan class="cls-38" x="94.26" y="0">c</tspan><tspan x="100.1" y="0">hange S</tspan><tspan class="cls-39" x="153.22" y="0">y</tspan><tspan class="cls-35" x="161.03" y="0">s</tspan><tspan class="cls-36" x="167.26" y="0">t</tspan><tspan class="cls-40" x="171.87" y="0">em</tspan></text><text class="cls-16" transform="translate(758.42 333.33) rotate(-45)"><tspan class="cls-41">T</tspan><tspan x="7.31" y="0">ime Bank S</tspan><tspan class="cls-34" x="81.69" y="0">y</tspan><tspan class="cls-35" x="89.5" y="0">s</tspan><tspan class="cls-36" x="95.73" y="0">t</tspan><tspan x="100.34" y="0">em</tspan></text><text class="cls-16" transform="translate(870.1 333.36) rotate(-45)"><tspan class="cls-42">F</tspan><tspan x="7.54" y="0">iat Cu</tspan><tspan class="cls-43" x="45.28" y="0">r</tspan><tspan class="cls-21" x="50.89" y="0">r</tspan><tspan x="56.52" y="0">ency S</tspan><tspan class="cls-34" x="98.39" y="0">y</tspan><tspan class="cls-35" x="106.2" y="0">s</tspan><tspan class="cls-44" x="112.43" y="0">t</tspan><tspan x="117.04" y="0">em</tspan></text><text class="cls-16" transform="translate(979.69 333.33) rotate(-45)"><tspan class="cls-45">V</tspan><tspan x="7.31" y="0">ou</tspan><tspan class="cls-38" x="23.81" y="0">c</tspan><tspan x="29.65" y="0">her Cu</tspan><tspan class="cls-46" x="72.08" y="0">r</tspan><tspan class="cls-47" x="77.69" y="0">r</tspan><tspan x="83.32" y="0">ency S</tspan><tspan class="cls-34" x="125.18" y="0">y</tspan><tspan class="cls-35" x="132.99" y="0">s</tspan><tspan class="cls-36" x="139.22" y="0">t</tspan><tspan x="143.83" y="0">em</tspan></text><text class="cls-16" transform="translate(1089.08 333.36) rotate(-45)">Comme<tspan class="cls-21" x="49.14" y="0">r</tspan><tspan class="cls-48" x="54.77" y="0">cial E</tspan><tspan class="cls-49" x="89.14" y="0">x</tspan><tspan class="cls-50" x="96.69" y="0">c</tspan><tspan x="102.52" y="0">hange S</tspan><tspan class="cls-39" x="155.64" y="0">y</tspan><tspan class="cls-35" x="163.45" y="0">s</tspan><tspan class="cls-36" x="169.68" y="0">t</tspan><tspan class="cls-40" x="174.3" y="0">em</tspan></text><text class="cls-16" transform="translate(1199.63 333.36) rotate(-45)">REGIO S<tspan class="cls-34" x="52.69" y="0">y</tspan><tspan class="cls-35" x="60.49" y="0">s</tspan><tspan class="cls-36" x="66.73" y="0">t</tspan><tspan x="71.34" y="0">em</tspan></text><text class="cls-51" transform="translate(156.95 400.89)">U<tspan class="cls-52" x="9.7" y="0">S</tspan><tspan x="17.76" y="0">A</tspan></text><text class="cls-51" transform="translate(284.82 400.89)">49</text><text class="cls-51" transform="translate(284.82 476.95)">28</text><text class="cls-51" transform="translate(284.82 553.01)">25</text><text class="cls-51" transform="translate(284.82 629.08)">23</text><text class="cls-53" transform="translate(285.48 705.21)">1<tspan class="cls-54" x="7.36" y="0">9</tspan></text><text class="cls-55" transform="translate(285.47 781.34)">1<tspan class="cls-54" x="7.38" y="0">5</tspan></text><text class="cls-51" transform="translate(285.4 857.53)"><tspan class="cls-56">1</tspan><tspan x="7.52" y="0">4</tspan></text><text class="cls-57" transform="translate(285.46 933.79)">1<tspan class="cls-54" x="7.4" y="0">3</tspan></text><text class="cls-58" transform="translate(285.45 1009.77)">1<tspan class="cls-54" x="7.42" y="0">2</tspan></text><text class="cls-58" transform="translate(285.45 1085.7)">1<tspan class="cls-54" x="7.42" y="0">2</tspan></text><text class="cls-51" transform="translate(280.48 1162.14)">296</text><text class="cls-51" transform="translate(139.94 476.95)">Ge<tspan class="cls-59" x="17.5" y="0">r</tspan><tspan x="23.14" y="0">ma</tspan><tspan class="cls-60" x="44.21" y="0">n</tspan><tspan class="cls-61" x="52.59" y="0">y</tspan></text><text class="cls-51" transform="translate(140.82 553.01)"><tspan class="cls-62">A</tspan><tspan x="8.52" y="0">u</tspan><tspan class="cls-63" x="17.04" y="0">s</tspan><tspan class="cls-54" x="23.3" y="0">t</tspan><tspan class="cls-64" x="27.96" y="0">r</tspan><tspan class="cls-61" x="33.68" y="0">alia</tspan></text><text class="cls-51" transform="translate(145.32 629.08)">Canada</text><text class="cls-51" transform="translate(142.95 705.21)">Belgium</text><text class="cls-51" transform="translate(160.84 781.34)">UK</text><text class="cls-51" transform="translate(151.6 857.53)">Spain</text><text class="cls-51" transform="translate(136.6 933.84)"><tspan class="cls-65">V</tspan><tspan x="7.35" y="0">enezuela</tspan></text><text class="cls-51" transform="translate(130.39 1009.77)"><tspan class="cls-66">N</tspan><tspan x="9.82" y="0">ethe</tspan><tspan class="cls-59" x="38.42" y="0">r</tspan><tspan class="cls-61" x="44.06" y="0">lands</tspan></text><text class="cls-51" transform="translate(127.35 1085.7)"><tspan class="cls-66">N</tspan><tspan class="cls-67" x="9.82" y="0">e</tspan><tspan x="17.43" y="0">w Zealand</tspan></text><text class="cls-51" transform="translate(127.47 1162.14)">Da<tspan class="cls-68" x="18.02" y="0">t</tspan><tspan x="22.7" y="0">aset </tspan><tspan class="cls-69" x="53.85" y="0">T</tspan><tspan class="cls-62" x="60.09" y="0">o</tspan><tspan class="cls-68" x="68.15" y="0">t</tspan><tspan x="72.83" y="0">al</tspan></text><g class="cls-70"><line class="cls-71" x1="484.59" y1="326.36" x2="484.59" y2="327.86"/><line class="cls-72" x1="484.59" y1="330.86" x2="484.59" y2="1191.27"/><line class="cls-71" x1="484.59" y1="1192.77" x2="484.59" y2="1194.27"/></g><g class="cls-70"><line class="cls-71" x1="593.28" y1="326.36" x2="593.28" y2="327.86"/><line class="cls-72" x1="593.28" y1="330.86" x2="593.28" y2="1191.27"/><line class="cls-71" x1="593.28" y1="1192.77" x2="593.28" y2="1194.27"/></g><g class="cls-70"><line class="cls-71" x1="701.98" y1="326.36" x2="701.98" y2="327.86"/><line class="cls-72" x1="701.98" y1="330.86" x2="701.98" y2="1191.27"/><line class="cls-71" x1="701.98" y1="1192.77" x2="701.98" y2="1194.27"/></g><g class="cls-70"><line class="cls-71" x1="810.68" y1="326.36" x2="810.68" y2="327.86"/><line class="cls-72" x1="810.68" y1="330.86" x2="810.68" y2="1191.27"/><line class="cls-71" x1="810.68" y1="1192.77" x2="810.68" y2="1194.27"/></g><g class="cls-70"><line class="cls-71" x1="810.68" y1="326.36" x2="810.68" y2="327.86"/><line class="cls-72" x1="810.68" y1="330.86" x2="810.68" y2="1191.27"/><line class="cls-71" x1="810.68" y1="1192.77" x2="810.68" y2="1194.27"/></g><g class="cls-70"><line class="cls-71" x1="919.61" y1="326.36" x2="919.61" y2="327.86"/><line class="cls-72" x1="919.61" y1="330.86" x2="919.61" y2="1191.27"/><line class="cls-71" x1="919.61" y1="1192.77" x2="919.61" y2="1194.27"/></g><g class="cls-70"><line class="cls-71" x1="1029.8" y1="326.36" x2="1029.8" y2="327.86"/><line class="cls-72" x1="1029.8" y1="330.86" x2="1029.8" y2="1191.27"/><line class="cls-71" x1="1029.8" y1="1192.77" x2="1029.8" y2="1194.27"/></g><g class="cls-70"><line class="cls-71" x1="1138.5" y1="326.36" x2="1138.5" y2="327.86"/><line class="cls-72" x1="1138.5" y1="330.86" x2="1138.5" y2="1191.27"/><line class="cls-71" x1="1138.5" y1="1192.77" x2="1138.5" y2="1194.27"/></g><text class="cls-73" transform="translate(421.15 546.24)">48%</text><text class="cls-73" transform="translate(748.32 734.55)">0%</text><text class="cls-73" transform="translate(532.05 734.55)">0%</text><text class="cls-73" transform="translate(639.62 734.55)">0%</text><text class="cls-73" transform="translate(424.49 506.19)">0%</text><text class="cls-73" transform="translate(857.13 734.55)">0%</text><text class="cls-73" transform="translate(857.13 658.15)">0%</text><text class="cls-73" transform="translate(857.13 1039.29)">0%</text><text class="cls-73" transform="translate(857.13 1115.53)">0%</text><text class="cls-73" transform="translate(748.32 582.84)">0%</text><text class="cls-73" transform="translate(748.32 506.19)">0%</text><text class="cls-73" transform="translate(639.62 506.19)">0%</text><text class="cls-74" transform="translate(1076.44 582.84)">0%</text><text class="cls-74" transform="translate(1076.44 658.15)">0%</text><text class="cls-74" transform="translate(1186.66 658.15)">0%</text><text class="cls-74" transform="translate(1186.66 734.55)">0%</text><text class="cls-74" transform="translate(1186.66 810.36)">0%</text><text class="cls-74" transform="translate(1186.66 887.14)">0%</text><text class="cls-74" transform="translate(1186.66 963.23)">0%</text><text class="cls-74" transform="translate(1186.66 1039.29)">0%</text><text class="cls-74" transform="translate(1186.66 1115.53)">0%</text><text class="cls-74" transform="translate(1076.44 734.55)">0%</text><text class="cls-74" transform="translate(967.02 734.55)">0%</text><text class="cls-74" transform="translate(967.02 810.36)">0%</text><text class="cls-74" transform="translate(967.02 887.14)">0%</text><text class="cls-74" transform="translate(1076.44 887.14)">0%</text><text class="cls-74" transform="translate(967.02 963.23)">0%</text><text class="cls-74" transform="translate(1076.44 963.23)">0%</text><text class="cls-74" transform="translate(1076.44 1115.53)">0%</text><text class="cls-74" transform="translate(967.02 1039.29)">0%</text><text class="cls-74" transform="translate(967.02 1115.53)">0%</text><text class="cls-73" transform="translate(532.05 963.23)">0%</text><text class="cls-73" transform="translate(639.62 963.23)">0%</text><text class="cls-73" transform="translate(748.32 963.23)">0%</text><text class="cls-73" transform="translate(857.13 887.14)">0%</text><text class="cls-73" transform="translate(748.32 887.14)">0%</text><text class="cls-73" transform="translate(857.13 963.23)">0%</text><text class="cls-73" transform="translate(748.32 810.36)">0%</text><text class="cls-73" transform="translate(857.13 506.19)">0%</text><text class="cls-73" transform="translate(421.15 1095.55)">25%</text><rect class="cls-9" x="400.34" y="548.51" width="64.31" height="36.85"/><text class="cls-73" transform="translate(1183.01 481.93)">32%</text><rect class="cls-9" x="1162.2" y="484.38" width="64.31" height="24.49"/><text class="cls-73" transform="translate(857.13 578.82)">4%</text><rect class="cls-10" x="832.99" y="582.04" width="64.31" height="3.11"/><text class="cls-73" transform="translate(966.69 578.87)">4%</text><rect class="cls-10" x="942.55" y="582.1" width="64.31" height="3.11"/><text class="cls-73" transform="translate(1076.11 1187.64)">4%</text><rect class="cls-10" x="1051.97" y="1190.86" width="64.31" height="3.11"/><text class="cls-73" transform="translate(857.13 427.23)">4%</text><rect class="cls-10" x="832.99" y="429.45" width="64.31" height="3.11"/><text class="cls-73" transform="translate(532.05 578.82)">4%</text><rect class="cls-10" x="507.91" y="582.04" width="64.31" height="3.11"/><text class="cls-73" transform="translate(639.62 654.38)">4%</text><rect class="cls-10" x="615.48" y="657.6" width="64.31" height="3.11"/><text class="cls-73" transform="translate(421.15 637.14)">26%</text><rect class="cls-9" x="400.34" y="640.78" width="64.31" height="20.11"/><text class="cls-73" transform="translate(639.62 1184.71)">9%</text><rect class="cls-10" x="615.48" y="1187.31" width="64.31" height="6.8"/><text class="cls-73" transform="translate(636.28 561.27)">28%</text><rect class="cls-10" x="615.48" y="563.74" width="64.31" height="21.43"/><text class="cls-73" transform="translate(636.28 865.4)">28%</text><rect class="cls-9" x="615.48" y="867.87" width="64.31" height="21.43"/><text class="cls-73" transform="translate(532.05 881.79)">7%</text><rect class="cls-10" x="507.91" y="884.01" width="64.31" height="5.1"/><text class="cls-73" transform="translate(853.79 795.82)">20%</text><rect class="cls-10" x="832.99" y="797.95" width="64.31" height="15.31"/><text class="cls-73" transform="translate(421.41 871)"><tspan class="cls-75">2</tspan><tspan x="6.16" y="0">1%</tspan></text><rect class="cls-10" x="400.34" y="873.18" width="64.31" height="16"/><text class="cls-73" transform="translate(421.56 422.8)"><tspan class="cls-76">1</tspan><tspan x="5.86" y="0">0%</tspan></text><rect class="cls-10" x="400.34" y="425.01" width="64.31" height="7.65"/><text class="cls-73" transform="translate(529.13 1184.58)"><tspan class="cls-76">1</tspan><tspan x="5.86" y="0">0%</tspan></text><rect class="cls-10" x="507.91" y="1186.59" width="64.31" height="7.65"/><text class="cls-73" transform="translate(528.72 1013.31)">33%</text><rect class="cls-10" x="507.91" y="1015.76" width="64.31" height="25.51"/><text class="cls-73" transform="translate(636.28 1089.41)">33%</text><rect class="cls-9" x="615.48" y="1091.86" width="64.31" height="25.51"/><text class="cls-73" transform="translate(421.24 1171.29)"><tspan class="cls-77">2</tspan><tspan x="6.49" y="0">7%</tspan></text><rect class="cls-9" x="400.34" y="1173.35" width="64.31" height="20.69"/><rect class="cls-10" x="1051.97" y="431.49" width="64.31" height="1.42"/><text class="cls-73" transform="translate(1076.11 428.76)">2%</text><rect class="cls-10" x="942.55" y="431.1" width="64.31" height="1.42"/><text class="cls-73" transform="translate(966.69 429.37)">2%</text><rect class="cls-10" x="1162.2" y="1192" width="64.31" height="2.3"/><text class="cls-73" transform="translate(1186.34 1189.71)">3%</text><text class="cls-73" transform="translate(529.16 495.4)"><tspan class="cls-78">1</tspan><tspan x="5.79" y="0">4%</tspan></text><rect class="cls-10" x="507.91" y="498.31" width="64.31" height="10.51"/><text class="cls-73" transform="translate(963.8 495.4)"><tspan class="cls-78">1</tspan><tspan x="5.79" y="0">4%</tspan></text><rect class="cls-10" x="942.55" y="498.31" width="64.31" height="10.51"/><text class="cls-73" transform="translate(745.42 419.7)"><tspan class="cls-78">1</tspan><tspan x="5.79" y="0">4%</tspan></text><rect class="cls-9" x="724.17" y="422.16" width="64.31" height="10.51"/><text class="cls-73" transform="translate(639.62 424.96)">6%</text><rect class="cls-10" x="615.48" y="427.83" width="64.31" height="4.59"/><rect class="cls-9" x="400.34" y="672.73" width="64.31" height="64.29"/><text class="cls-73" transform="translate(636.78 800.83)"><tspan class="cls-79">1</tspan><tspan x="5.69" y="0">3%</tspan></text><rect class="cls-10" x="615.48" y="802.99" width="64.31" height="9.92"/><text class="cls-73" transform="translate(1073.27 801.15)"><tspan class="cls-79">1</tspan><tspan x="5.69" y="0">3%</tspan></text><rect class="cls-10" x="1051.97" y="803.31" width="64.31" height="9.92"/><text class="cls-73" transform="translate(529.21 801.07)"><tspan class="cls-79">1</tspan><tspan x="5.69" y="0">3%</tspan></text><rect class="cls-10" x="507.91" y="803.23" width="64.31" height="9.92"/><text class="cls-73" transform="translate(529.21 644.8)"><tspan class="cls-79">1</tspan><tspan x="5.69" y="0">3%</tspan></text><rect class="cls-10" x="507.91" y="650.96" width="64.31" height="9.92"/><rect class="cls-10" x="507.91" y="1104.71" width="64.31" height="12.8"/><text class="cls-73" transform="translate(529.25 1102.39)"><tspan class="cls-80">1</tspan><tspan x="5.61" y="0">7%</tspan></text><rect class="cls-10" x="724.17" y="1104.55" width="64.31" height="12.8"/><text class="cls-73" transform="translate(745.51 1102.23)"><tspan class="cls-80">1</tspan><tspan x="5.61" y="0">7%</tspan></text><rect class="cls-10" x="400.34" y="1098.2" width="64.31" height="19.13"/><text class="cls-73" transform="translate(421.15 1006.8)">42%</text><rect class="cls-9" x="400.34" y="1009" width="64.31" height="32.03"/><text class="cls-73" transform="translate(532.05 424.89)">8%</text><rect class="cls-10" x="507.91" y="426.69" width="64.31" height="5.94"/><text class="cls-73" transform="translate(748.32 651.15)">8%</text><rect class="cls-10" x="724.17" y="654.75" width="64.31" height="5.94"/><text class="cls-73" transform="translate(966.69 651.15)">8%</text><rect class="cls-10" x="942.55" y="654.75" width="64.31" height="5.94"/><text class="cls-73" transform="translate(1073.47 498.07)"><tspan class="cls-81">1</tspan><tspan x="5.29" y="0">1%</tspan></text><rect class="cls-10" x="1051.97" y="500.43" width="64.31" height="8.42"/><text class="cls-73" transform="translate(748.32 1187.64)">5%</text><rect class="cls-10" x="724.17" y="1190.3" width="64.31" height="3.83"/><text class="cls-73" transform="translate(857.13 1187.64)">5%</text><rect class="cls-10" x="832.99" y="1190.3" width="64.31" height="3.83"/><text class="cls-73" transform="translate(966.69 1187.64)">5%</text><rect class="cls-10" x="942.55" y="1190.3" width="64.31" height="3.83"/><text class="cls-73" transform="translate(639.62 1032.83)">8%</text><rect class="cls-10" x="615.48" y="1035.43" width="64.31" height="5.94"/><text class="cls-73" transform="translate(748.32 1032.83)">8%</text><rect class="cls-10" x="724.17" y="1035.43" width="64.31" height="5.94"/><text class="cls-73" transform="translate(1076.11 1032.68)">8%</text><rect class="cls-10" x="1051.97" y="1035.28" width="64.31" height="5.94"/><line class="cls-15" x1="377.39" y1="585.17" x2="1250.2" y2="585.17"/><line class="cls-15" x1="375.89" y1="737.02" x2="1250.2" y2="737.02"/><line class="cls-15" x1="377.39" y1="660.88" x2="1250.2" y2="660.88"/><line class="cls-15" x1="377.39" y1="508.91" x2="1250.2" y2="508.91"/><line class="cls-15" x1="375.89" y1="1041.37" x2="1250.2" y2="1041.37"/><line class="cls-15" x1="375.89" y1="1117.5" x2="1250.2" y2="1117.5"/><line class="cls-15" x1="375.89" y1="889.4" x2="1250.2" y2="889.4"/><line class="cls-15" x1="106.44" y1="1194.27" x2="233.76" y2="1194.27"/><line class="cls-15" x1="254.39" y1="1194.27" x2="332.6" y2="1194.27"/><line class="cls-15" x1="375.89" y1="1194.27" x2="1250.2" y2="1194.27"/><rect class="cls-9" x="400.34" y="889.74" width="64.31" height="75.73"/><text class="cls-73" transform="translate(418.22 932.42)"><tspan class="cls-76">1</tspan><tspan x="5.86" y="0">00%</tspan></text><line class="cls-15" x1="377.39" y1="432.66" x2="1250.2" y2="432.66"/><text class="cls-74" transform="translate(1186.67 428.76)">0%</text><text class="cls-74" transform="translate(1186.67 582.84)">0%</text><text class="cls-73" transform="translate(421.16 709.69)"><tspan class="cls-82">8</tspan><tspan x="6.66" y="0">4%</tspan></text><text class="cls-73" transform="translate(421.15 785.23)">33%</text><rect class="cls-9" x="400.34" y="787.32" width="64.31" height="25.59"/><line class="cls-15" x1="375.89" y1="965.65" x2="1250.2" y2="965.65"/><line class="cls-15" x1="375.89" y1="813.15" x2="1250.2" y2="813.15"/></svg>