<svg id="Layer_2" data-name="Layer 2" xmlns="http://www.w3.org/2000/svg" viewBox="0 0 1603.36 1102.8"><defs><style>.cls-1,.cls-13,.cls-4{opacity:0.7;}.cls-2{fill:#e5e023;opacity:0.2;}.cls-3{fill:#fff;stroke-width:0.5px;}.cls-3,.cls-59,.cls-60{stroke:#000;stroke-miterlimit:10;}.cls-4{font-size:20.85px;}.cls-13,.cls-39,.cls-4,.cls-41,.cls-43,.cls-45,.cls-46,.cls-61,.cls-62{font-family:Futura-CondensedMedium, Futura;}.cls-5{letter-spacing:0em;}.cls-6{letter-spacing:0em;}.cls-7{letter-spacing:0.03em;}.cls-8{letter-spacing:0em;}.cls-9{letter-spacing:0em;}.cls-10{letter-spacing:0.01em;}.cls-11{letter-spacing:0em;}.cls-12{letter-spacing:0em;}.cls-13{font-size:17.72px;}.cls-14{letter-spacing:-0.01em;}.cls-15{letter-spacing:-0.01em;}.cls-16{letter-spacing:0em;}.cls-17{letter-spacing:-0.03em;}.cls-18{letter-spacing:0.01em;}.cls-19{letter-spacing:0em;}.cls-20{letter-spacing:0em;}.cls-21{letter-spacing:0em;}.cls-22{letter-spacing:0.01em;}.cls-23{letter-spacing:0em;}.cls-24{letter-spacing:0em;}.cls-25{letter-spacing:-0.01em;}.cls-26{letter-spacing:-0.01em;}.cls-27{letter-spacing:0.01em;}.cls-28{letter-spacing:0em;}.cls-29{letter-spacing:0.02em;}.cls-30{letter-spacing:0.01em;}.cls-31{letter-spacing:0em;}.cls-32{letter-spacing:0em;}.cls-33{letter-spacing:-0.02em;}.cls-34{letter-spacing:0em;}.cls-35{letter-spacing:0em;}.cls-36{letter-spacing:0em;}.cls-37{letter-spacing:-0.01em;}.cls-38{letter-spacing:-0.01em;}.cls-39,.cls-41,.cls-43,.cls-45,.cls-46{font-size:20.96px;}.cls-40{letter-spacing:0.01em;}.cls-41{letter-spacing:-0.06em;}.cls-42{letter-spacing:0em;}.cls-43{letter-spacing:-0.06em;}.cls-44{letter-spacing:-0.06em;}.cls-45{letter-spacing:-0.06em;}.cls-46{letter-spacing:-0.06em;}.cls-47{letter-spacing:0em;}.cls-48{letter-spacing:0em;}.cls-49{letter-spacing:0em;}.cls-50{letter-spacing:0em;}.cls-51{letter-spacing:0em;}.cls-52{letter-spacing:0.01em;}.cls-53{letter-spacing:-0.02em;}.cls-54{letter-spacing:0em;}.cls-55{letter-spacing:-0.01em;}.cls-56{letter-spacing:0em;}.cls-57{letter-spacing:-0.03em;}.cls-58{opacity:0.3;}.cls-59,.cls-60{fill:none;}.cls-60{stroke-dasharray:2.99 2.99;}.cls-61,.cls-62{font-size:16.12px;}.cls-62{letter-spacing:-0.02em;}.cls-63{fill:#bdedb7;}.cls-64{fill:#daddd9;}.cls-65{letter-spacing:-0.03em;}.cls-66{letter-spacing:-0.05em;}.cls-67{letter-spacing:-0.01em;}.cls-68{letter-spacing:-0.06em;}.cls-69{letter-spacing:-0.06em;}.cls-70{letter-spacing:-0.07em;}.cls-71{letter-spacing:-0.09em;}.cls-72{letter-spacing:0em;}</style></defs><title>system_type</title><text class="cls-1"></text><rect class="cls-2" x="220" y="984.28" width="1143.77" height="76.76"/><line class="cls-3" x1="219.99" y1="299.44" x2="347.32" y2="299.44"/><line class="cls-3" x1="219.99" y1="223.38" x2="347.32" y2="223.38"/><line class="cls-3" x1="219.99" y1="375.69" x2="347.32" y2="375.69"/><line class="cls-3" x1="219.99" y1="451.94" x2="347.32" y2="451.94"/><line class="cls-3" x1="219.99" y1="527.66" x2="347.32" y2="527.66"/><line class="cls-3" x1="219.99" y1="603.79" x2="347.32" y2="603.79"/><line class="cls-3" x1="367.95" y1="223.38" x2="446.15" y2="223.38"/><line class="cls-3" x1="367.95" y1="299.44" x2="446.15" y2="299.44"/><line class="cls-3" x1="367.95" y1="375.69" x2="446.15" y2="375.69"/><line class="cls-3" x1="367.95" y1="451.94" x2="446.15" y2="451.94"/><line class="cls-3" x1="367.95" y1="527.66" x2="446.15" y2="527.66"/><line class="cls-3" x1="367.95" y1="603.79" x2="446.15" y2="603.79"/><line class="cls-3" x1="490.95" y1="223.38" x2="1363.76" y2="223.38"/><line class="cls-3" x1="219.99" y1="984.28" x2="347.32" y2="984.28"/><line class="cls-3" x1="219.99" y1="908.15" x2="347.32" y2="908.15"/><line class="cls-3" x1="219.99" y1="832.43" x2="347.32" y2="832.43"/><line class="cls-3" x1="219.99" y1="756.71" x2="347.32" y2="756.71"/><line class="cls-3" x1="219.99" y1="679.93" x2="347.32" y2="679.93"/><line class="cls-3" x1="367.95" y1="984.28" x2="446.15" y2="984.28"/><line class="cls-3" x1="367.95" y1="908.15" x2="446.15" y2="908.15"/><line class="cls-3" x1="367.95" y1="832.43" x2="446.15" y2="832.43"/><line class="cls-3" x1="367.95" y1="756.71" x2="446.15" y2="756.71"/><line class="cls-3" x1="367.95" y1="680.99" x2="446.15" y2="680.99"/><text class="cls-4" transform="translate(352.75 155.6)">Co<tspan class="cls-5" x="15.98" y="0">m</tspan><tspan x="28.68" y="0">plemen</tspan><tspan class="cls-6" x="77.61" y="0">t</tspan><tspan x="82.26" y="0">a</tspan><tspan class="cls-7" x="90.49" y="0">r</tspan><tspan x="96.6" y="0">y </tspan><tspan x="25.58" y="25.02">Cu</tspan><tspan class="cls-8" x="42.01" y="25.02">r</tspan><tspan class="cls-9" x="47.62" y="25.02">r</tspan><tspan x="53.25" y="25.02">ency</tspan><tspan x="27.81" y="50.04">S</tspan><tspan class="cls-10" x="35.59" y="50.04">y</tspan><tspan class="cls-11" x="43.4" y="50.04">s</tspan><tspan class="cls-12" x="49.63" y="50.04">t</tspan><tspan x="54.24" y="50.04">ems</tspan></text><text class="cls-13" transform="translate(546.13 200.77) rotate(-45) scale(1.18 1)">Local E<tspan class="cls-14" x="38.37" y="0">x</tspan><tspan class="cls-15" x="44.78" y="0">c</tspan><tspan class="cls-16" x="49.74" y="0">hange </tspan><tspan class="cls-17" x="88.27" y="0">T</tspan><tspan class="cls-18" x="93.58" y="0">r</tspan><tspan x="98.42" y="0">ading S</tspan><tspan class="cls-18" x="140.36" y="0">y</tspan><tspan class="cls-19" x="147" y="0">s</tspan><tspan class="cls-20" x="152.29" y="0">t</tspan><tspan x="156.21" y="0">em</tspan></text><text class="cls-4" transform="translate(658.58 200.14) rotate(-45)">Mutual C<tspan class="cls-21" x="58.11" y="0">r</tspan><tspan x="63.74" y="0">edit S</tspan><tspan class="cls-22" x="100.53" y="0">y</tspan><tspan class="cls-23" x="108.33" y="0">s</tspan><tspan class="cls-24" x="114.56" y="0">t</tspan><tspan x="119.18" y="0">em</tspan></text><text class="cls-4" transform="translate(766.15 200.14) rotate(-45)">Community E<tspan class="cls-25" x="86.72" y="0">x</tspan><tspan class="cls-26" x="94.26" y="0">c</tspan><tspan x="100.1" y="0">hange S</tspan><tspan class="cls-27" x="153.22" y="0">y</tspan><tspan class="cls-23" x="161.03" y="0">s</tspan><tspan class="cls-24" x="167.26" y="0">t</tspan><tspan class="cls-28" x="171.87" y="0">em</tspan></text><text class="cls-4" transform="translate(871.98 200.11) rotate(-45)"><tspan class="cls-29">T</tspan><tspan x="7.31" y="0">ime Bank S</tspan><tspan class="cls-22" x="81.69" y="0">y</tspan><tspan class="cls-23" x="89.5" y="0">s</tspan><tspan class="cls-24" x="95.73" y="0">t</tspan><tspan x="100.34" y="0">em</tspan></text><text class="cls-4" transform="translate(983.66 200.14) rotate(-45)"><tspan class="cls-30">F</tspan><tspan x="7.54" y="0">iat Cu</tspan><tspan class="cls-31" x="45.28" y="0">r</tspan><tspan class="cls-9" x="50.89" y="0">r</tspan><tspan x="56.52" y="0">ency S</tspan><tspan class="cls-22" x="98.39" y="0">y</tspan><tspan class="cls-23" x="106.2" y="0">s</tspan><tspan class="cls-32" x="112.43" y="0">t</tspan><tspan x="117.04" y="0">em</tspan></text><text class="cls-4" transform="translate(1093.25 200.11) rotate(-45)"><tspan class="cls-33">V</tspan><tspan x="7.31" y="0">ou</tspan><tspan class="cls-26" x="23.81" y="0">c</tspan><tspan x="29.65" y="0">her Cu</tspan><tspan class="cls-34" x="72.08" y="0">r</tspan><tspan class="cls-35" x="77.69" y="0">r</tspan><tspan x="83.32" y="0">ency S</tspan><tspan class="cls-22" x="125.18" y="0">y</tspan><tspan class="cls-23" x="132.99" y="0">s</tspan><tspan class="cls-24" x="139.22" y="0">t</tspan><tspan x="143.83" y="0">em</tspan></text><text class="cls-4" transform="translate(1202.64 200.14) rotate(-45)">Comme<tspan class="cls-9" x="49.14" y="0">r</tspan><tspan class="cls-36" x="54.77" y="0">cial E</tspan><tspan class="cls-37" x="89.14" y="0">x</tspan><tspan class="cls-38" x="96.69" y="0">c</tspan><tspan x="102.52" y="0">hange S</tspan><tspan class="cls-27" x="155.64" y="0">y</tspan><tspan class="cls-23" x="163.45" y="0">s</tspan><tspan class="cls-24" x="169.68" y="0">t</tspan><tspan class="cls-28" x="174.3" y="0">em</tspan></text><text class="cls-4" transform="translate(1313.19 200.14) rotate(-45)">REGIO S<tspan class="cls-22" x="52.69" y="0">y</tspan><tspan class="cls-23" x="60.49" y="0">s</tspan><tspan class="cls-24" x="66.73" y="0">t</tspan><tspan x="71.34" y="0">em</tspan></text><text class="cls-39" transform="translate(270.51 267.67)">U<tspan class="cls-40" x="9.7" y="0">S</tspan><tspan x="17.76" y="0">A</tspan></text><text class="cls-39" transform="translate(398.38 267.67)">49</text><text class="cls-39" transform="translate(398.38 343.73)">28</text><text class="cls-39" transform="translate(398.38 419.79)">25</text><text class="cls-39" transform="translate(398.38 495.86)">23</text><text class="cls-41" transform="translate(399.04 571.99)">1<tspan class="cls-42" x="7.36" y="0">9</tspan></text><text class="cls-43" transform="translate(399.03 648.12)">1<tspan class="cls-42" x="7.38" y="0">5</tspan></text><text class="cls-39" transform="translate(398.95 724.31)"><tspan class="cls-44">1</tspan><tspan x="7.52" y="0">4</tspan></text><text class="cls-45" transform="translate(399.02 800.56)">1<tspan class="cls-42" x="7.4" y="0">3</tspan></text><text class="cls-46" transform="translate(399.01 876.55)">1<tspan class="cls-42" x="7.42" y="0">2</tspan></text><text class="cls-46" transform="translate(399.01 952.47)">1<tspan class="cls-42" x="7.42" y="0">2</tspan></text><text class="cls-39" transform="translate(394.04 1028.92)">296</text><text class="cls-39" transform="translate(253.5 343.73)">Ge<tspan class="cls-47" x="17.5" y="0">r</tspan><tspan x="23.14" y="0">ma</tspan><tspan class="cls-48" x="44.21" y="0">n</tspan><tspan class="cls-49" x="52.59" y="0">y</tspan></text><text class="cls-39" transform="translate(254.38 419.79)"><tspan class="cls-50">A</tspan><tspan x="8.52" y="0">u</tspan><tspan class="cls-51" x="17.04" y="0">s</tspan><tspan class="cls-42" x="23.3" y="0">t</tspan><tspan class="cls-52" x="27.96" y="0">r</tspan><tspan class="cls-49" x="33.68" y="0">alia</tspan></text><text class="cls-39" transform="translate(258.88 495.85)">Canada</text><text class="cls-39" transform="translate(256.51 571.99)">Belgium</text><text class="cls-39" transform="translate(274.4 648.12)">UK</text><text class="cls-39" transform="translate(265.16 724.31)">Spain</text><text class="cls-39" transform="translate(250.16 800.62)"><tspan class="cls-53">V</tspan><tspan x="7.35" y="0">enezuela</tspan></text><text class="cls-39" transform="translate(243.95 876.55)"><tspan class="cls-54">N</tspan><tspan x="9.82" y="0">ethe</tspan><tspan class="cls-47" x="38.42" y="0">r</tspan><tspan class="cls-49" x="44.06" y="0">lands</tspan></text><text class="cls-39" transform="translate(240.91 952.47)"><tspan class="cls-54">N</tspan><tspan class="cls-55" x="9.82" y="0">e</tspan><tspan x="17.43" y="0">w Zealand</tspan></text><text class="cls-39" transform="translate(241.02 1028.92)">Da<tspan class="cls-56" x="18.02" y="0">t</tspan><tspan x="22.7" y="0">aset </tspan><tspan class="cls-57" x="53.85" y="0">T</tspan><tspan class="cls-50" x="60.09" y="0">o</tspan><tspan class="cls-56" x="68.15" y="0">t</tspan><tspan x="72.83" y="0">al</tspan></text><g class="cls-58"><line class="cls-59" x1="598.14" y1="193.14" x2="598.14" y2="194.64"/><line class="cls-60" x1="598.14" y1="197.63" x2="598.14" y2="1058.05"/><line class="cls-59" x1="598.14" y1="1059.54" x2="598.14" y2="1061.04"/></g><g class="cls-58"><line class="cls-59" x1="706.84" y1="193.14" x2="706.84" y2="194.64"/><line class="cls-60" x1="706.84" y1="197.63" x2="706.84" y2="1058.05"/><line class="cls-59" x1="706.84" y1="1059.54" x2="706.84" y2="1061.04"/></g><g class="cls-58"><line class="cls-59" x1="815.54" y1="193.14" x2="815.54" y2="194.64"/><line class="cls-60" x1="815.54" y1="197.63" x2="815.54" y2="1058.05"/><line class="cls-59" x1="815.54" y1="1059.54" x2="815.54" y2="1061.04"/></g><g class="cls-58"><line class="cls-59" x1="924.24" y1="193.14" x2="924.24" y2="194.64"/><line class="cls-60" x1="924.24" y1="197.63" x2="924.24" y2="1058.05"/><line class="cls-59" x1="924.24" y1="1059.54" x2="924.24" y2="1061.04"/></g><g class="cls-58"><line class="cls-59" x1="924.24" y1="193.14" x2="924.24" y2="194.64"/><line class="cls-60" x1="924.24" y1="197.63" x2="924.24" y2="1058.05"/><line class="cls-59" x1="924.24" y1="1059.54" x2="924.24" y2="1061.04"/></g><g class="cls-58"><line class="cls-59" x1="1033.16" y1="193.14" x2="1033.16" y2="194.64"/><line class="cls-60" x1="1033.16" y1="197.63" x2="1033.16" y2="1058.05"/><line class="cls-59" x1="1033.16" y1="1059.54" x2="1033.16" y2="1061.04"/></g><g class="cls-58"><line class="cls-59" x1="1143.36" y1="193.14" x2="1143.36" y2="194.64"/><line class="cls-60" x1="1143.36" y1="197.63" x2="1143.36" y2="1058.05"/><line class="cls-59" x1="1143.36" y1="1059.54" x2="1143.36" y2="1061.04"/></g><g class="cls-58"><line class="cls-59" x1="1252.06" y1="193.14" x2="1252.06" y2="194.64"/><line class="cls-60" x1="1252.06" y1="197.63" x2="1252.06" y2="1058.05"/><line class="cls-59" x1="1252.06" y1="1059.54" x2="1252.06" y2="1061.04"/></g><text class="cls-61" transform="translate(534.71 413.02)">48%</text><text class="cls-61" transform="translate(861.88 601.33)">0%</text><text class="cls-61" transform="translate(645.61 601.33)">0%</text><text class="cls-61" transform="translate(753.18 601.33)">0%</text><text class="cls-61" transform="translate(538.04 372.97)">0%</text><text class="cls-61" transform="translate(970.69 601.33)">0%</text><text class="cls-61" transform="translate(970.69 524.93)">0%</text><text class="cls-61" transform="translate(970.69 906.07)">0%</text><text class="cls-61" transform="translate(970.69 982.31)">0%</text><text class="cls-61" transform="translate(861.88 449.62)">0%</text><text class="cls-61" transform="translate(861.88 372.97)">0%</text><text class="cls-61" transform="translate(753.18 372.97)">0%</text><text class="cls-62" transform="translate(1190 449.62)">0%</text><text class="cls-62" transform="translate(1189.99 524.93)">0%</text><text class="cls-62" transform="translate(1300.22 524.93)">0%</text><text class="cls-62" transform="translate(1300.22 601.33)">0%</text><text class="cls-62" transform="translate(1300.22 677.14)">0%</text><text class="cls-62" transform="translate(1300.22 753.92)">0%</text><text class="cls-62" transform="translate(1300.22 830.01)">0%</text><text class="cls-62" transform="translate(1300.22 906.07)">0%</text><text class="cls-62" transform="translate(1300.22 982.31)">0%</text><text class="cls-62" transform="translate(1189.99 601.33)">0%</text><text class="cls-62" transform="translate(1080.58 601.33)">0%</text><text class="cls-62" transform="translate(1080.58 677.14)">0%</text><text class="cls-62" transform="translate(1080.58 753.92)">0%</text><text class="cls-62" transform="translate(1190 753.92)">0%</text><text class="cls-62" transform="translate(1080.58 830.01)">0%</text><text class="cls-62" transform="translate(1190 830.01)">0%</text><text class="cls-62" transform="translate(1189.99 982.31)">0%</text><text class="cls-62" transform="translate(1080.58 906.07)">0%</text><text class="cls-62" transform="translate(1080.58 982.31)">0%</text><text class="cls-61" transform="translate(645.61 830.01)">0%</text><text class="cls-61" transform="translate(753.18 830.01)">0%</text><text class="cls-61" transform="translate(861.88 830.01)">0%</text><text class="cls-61" transform="translate(970.69 753.92)">0%</text><text class="cls-61" transform="translate(861.88 753.92)">0%</text><text class="cls-61" transform="translate(970.69 830.01)">0%</text><text class="cls-61" transform="translate(861.88 677.14)">0%</text><text class="cls-61" transform="translate(970.69 372.97)">0%</text><text class="cls-61" transform="translate(534.71 962.33)">25%</text><rect class="cls-63" x="513.9" y="415.29" width="64.31" height="36.85"/><text class="cls-61" transform="translate(1296.56 348.71)">32%</text><rect class="cls-63" x="1275.76" y="351.15" width="64.31" height="24.49"/><text class="cls-61" transform="translate(970.69 445.6)">4%</text><rect class="cls-64" x="946.55" y="448.82" width="64.31" height="3.11"/><text class="cls-61" transform="translate(1080.25 445.65)">4%</text><rect class="cls-64" x="1056.11" y="448.87" width="64.31" height="3.11"/><text class="cls-61" transform="translate(1189.67 1054.42)">4%</text><rect class="cls-64" x="1165.53" y="1057.64" width="64.31" height="3.11"/><text class="cls-61" transform="translate(970.69 294.01)">4%</text><rect class="cls-64" x="946.55" y="296.23" width="64.31" height="3.11"/><text class="cls-61" transform="translate(645.61 445.6)">4%</text><rect class="cls-64" x="621.47" y="448.82" width="64.31" height="3.11"/><text class="cls-61" transform="translate(753.18 521.16)">4%</text><rect class="cls-64" x="729.04" y="524.38" width="64.31" height="3.11"/><text class="cls-61" transform="translate(534.71 503.92)">26%</text><rect class="cls-63" x="513.9" y="507.55" width="64.31" height="20.11"/><text class="cls-61" transform="translate(753.18 1051.49)">9%</text><rect class="cls-64" x="729.04" y="1054.08" width="64.31" height="6.8"/><text class="cls-61" transform="translate(749.84 428.05)">28%</text><rect class="cls-64" x="729.04" y="430.51" width="64.31" height="21.43"/><text class="cls-61" transform="translate(749.84 732.18)">28%</text><rect class="cls-63" x="729.04" y="734.64" width="64.31" height="21.43"/><text class="cls-61" transform="translate(645.61 748.57)">7%</text><rect class="cls-64" x="621.47" y="750.79" width="64.31" height="5.1"/><text class="cls-61" transform="translate(967.35 662.6)">20%</text><rect class="cls-64" x="946.55" y="664.72" width="64.31" height="15.31"/><text class="cls-61" transform="translate(534.97 737.78)"><tspan class="cls-65">2</tspan><tspan x="6.16" y="0">1%</tspan></text><rect class="cls-64" x="513.9" y="739.96" width="64.31" height="16"/><text class="cls-61" transform="translate(535.12 289.58)"><tspan class="cls-66">1</tspan><tspan x="5.86" y="0">0%</tspan></text><rect class="cls-64" x="513.9" y="291.79" width="64.31" height="7.65"/><text class="cls-61" transform="translate(642.68 1051.35)"><tspan class="cls-66">1</tspan><tspan x="5.86" y="0">0%</tspan></text><rect class="cls-64" x="621.47" y="1053.37" width="64.31" height="7.65"/><text class="cls-61" transform="translate(642.28 880.08)">33%</text><rect class="cls-64" x="621.47" y="882.53" width="64.31" height="25.51"/><text class="cls-61" transform="translate(749.84 956.18)">33%</text><rect class="cls-63" x="729.04" y="958.63" width="64.31" height="25.51"/><text class="cls-61" transform="translate(534.8 1038.07)"><tspan class="cls-67">2</tspan><tspan x="6.49" y="0">7%</tspan></text><rect class="cls-63" x="513.9" y="1040.12" width="64.31" height="20.69"/><rect class="cls-64" x="1165.53" y="298.27" width="64.31" height="1.42"/><text class="cls-61" transform="translate(1189.67 295.54)">2%</text><rect class="cls-64" x="1056.11" y="297.88" width="64.31" height="1.42"/><text class="cls-61" transform="translate(1080.25 296.15)">2%</text><rect class="cls-64" x="1275.76" y="1058.78" width="64.31" height="2.3"/><text class="cls-61" transform="translate(1299.9 1056.49)">3%</text><text class="cls-61" transform="translate(642.72 362.18)"><tspan class="cls-68">1</tspan><tspan x="5.79" y="0">4%</tspan></text><rect class="cls-64" x="621.47" y="365.09" width="64.31" height="10.51"/><text class="cls-61" transform="translate(1077.36 362.18)"><tspan class="cls-68">1</tspan><tspan x="5.79" y="0">4%</tspan></text><rect class="cls-64" x="1056.11" y="365.09" width="64.31" height="10.51"/><text class="cls-61" transform="translate(858.98 286.48)"><tspan class="cls-68">1</tspan><tspan x="5.79" y="0">4%</tspan></text><rect class="cls-63" x="837.73" y="288.94" width="64.31" height="10.51"/><text class="cls-61" transform="translate(753.18 291.73)">6%</text><rect class="cls-64" x="729.04" y="294.6" width="64.31" height="4.59"/><rect class="cls-63" x="513.9" y="539.51" width="64.31" height="64.29"/><text class="cls-61" transform="translate(750.33 667.61)"><tspan class="cls-69">1</tspan><tspan x="5.69" y="0">3%</tspan></text><rect class="cls-64" x="729.04" y="669.77" width="64.31" height="9.92"/><text class="cls-61" transform="translate(1186.83 667.93)"><tspan class="cls-69">1</tspan><tspan x="5.69" y="0">3%</tspan></text><rect class="cls-64" x="1165.53" y="670.09" width="64.31" height="9.92"/><text class="cls-61" transform="translate(642.77 667.84)"><tspan class="cls-69">1</tspan><tspan x="5.69" y="0">3%</tspan></text><rect class="cls-64" x="621.47" y="670.01" width="64.31" height="9.92"/><text class="cls-61" transform="translate(642.77 511.58)"><tspan class="cls-69">1</tspan><tspan x="5.69" y="0">3%</tspan></text><rect class="cls-64" x="621.47" y="517.74" width="64.31" height="9.92"/><rect class="cls-64" x="621.47" y="971.49" width="64.31" height="12.8"/><text class="cls-61" transform="translate(642.81 969.17)"><tspan class="cls-70">1</tspan><tspan x="5.61" y="0">7%</tspan></text><rect class="cls-64" x="837.73" y="971.33" width="64.31" height="12.8"/><text class="cls-61" transform="translate(859.07 969.01)"><tspan class="cls-70">1</tspan><tspan x="5.61" y="0">7%</tspan></text><rect class="cls-64" x="513.9" y="964.98" width="64.31" height="19.13"/><text class="cls-61" transform="translate(534.71 873.58)">42%</text><rect class="cls-63" x="513.9" y="875.78" width="64.31" height="32.03"/><text class="cls-61" transform="translate(645.61 291.67)">8%</text><rect class="cls-64" x="621.47" y="293.47" width="64.31" height="5.94"/><text class="cls-61" transform="translate(861.88 517.93)">8%</text><rect class="cls-64" x="837.73" y="521.53" width="64.31" height="5.94"/><text class="cls-61" transform="translate(1080.25 517.93)">8%</text><rect class="cls-64" x="1056.11" y="521.53" width="64.31" height="5.94"/><text class="cls-61" transform="translate(1187.03 364.84)"><tspan class="cls-71">1</tspan><tspan x="5.29" y="0">1%</tspan></text><rect class="cls-64" x="1165.53" y="367.21" width="64.31" height="8.42"/><text class="cls-61" transform="translate(861.88 1054.42)">5%</text><rect class="cls-64" x="837.73" y="1057.08" width="64.31" height="3.83"/><text class="cls-61" transform="translate(970.69 1054.42)">5%</text><rect class="cls-64" x="946.55" y="1057.08" width="64.31" height="3.83"/><text class="cls-61" transform="translate(1080.25 1054.42)">5%</text><rect class="cls-64" x="1056.11" y="1057.08" width="64.31" height="3.83"/><text class="cls-61" transform="translate(753.18 899.61)">8%</text><rect class="cls-64" x="729.04" y="902.21" width="64.31" height="5.94"/><text class="cls-61" transform="translate(861.88 899.61)">8%</text><rect class="cls-64" x="837.73" y="902.21" width="64.31" height="5.94"/><text class="cls-61" transform="translate(1189.67 899.46)">8%</text><rect class="cls-64" x="1165.53" y="902.06" width="64.31" height="5.94"/><line class="cls-3" x1="490.95" y1="451.94" x2="1363.76" y2="451.94"/><line class="cls-3" x1="489.45" y1="603.79" x2="1363.76" y2="603.79"/><line class="cls-3" x1="490.95" y1="527.66" x2="1363.76" y2="527.66"/><line class="cls-3" x1="490.95" y1="375.69" x2="1363.76" y2="375.69"/><line class="cls-3" x1="489.45" y1="908.15" x2="1363.76" y2="908.15"/><line class="cls-3" x1="489.45" y1="984.28" x2="1363.76" y2="984.28"/><line class="cls-3" x1="489.45" y1="756.18" x2="1363.76" y2="756.18"/><line class="cls-3" x1="219.99" y1="1061.04" x2="347.32" y2="1061.04"/><line class="cls-3" x1="367.95" y1="1061.04" x2="446.15" y2="1061.04"/><line class="cls-3" x1="489.45" y1="1061.04" x2="1363.76" y2="1061.04"/><rect class="cls-63" x="513.9" y="756.52" width="64.31" height="75.73"/><text class="cls-61" transform="translate(531.78 799.2)"><tspan class="cls-66">1</tspan><tspan x="5.86" y="0">00%</tspan></text><line class="cls-3" x1="490.95" y1="299.44" x2="1363.76" y2="299.44"/><text class="cls-62" transform="translate(1300.22 295.54)">0%</text><text class="cls-62" transform="translate(1300.22 449.62)">0%</text><text class="cls-61" transform="translate(534.71 576.46)"><tspan class="cls-72">8</tspan><tspan x="6.66" y="0">4%</tspan></text><text class="cls-61" transform="translate(534.71 652)">33%</text><rect class="cls-63" x="513.9" y="654.1" width="64.31" height="25.59"/><line class="cls-3" x1="489.45" y1="832.43" x2="1363.76" y2="832.43"/><line class="cls-3" x1="489.45" y1="679.93" x2="1363.76" y2="679.93"/></svg>