<svg id="Layer_2" data-name="Layer 2" xmlns="http://www.w3.org/2000/svg" viewBox="0 0 601.81 91.94"><defs><style>.cls-1{font-size:36px;}.cls-1,.cls-10{font-family:Futura-CondensedMedium, Futura;}.cls-2{letter-spacing:0.01em;}.cls-3{letter-spacing:0em;}.cls-4{letter-spacing:0em;}.cls-5{letter-spacing:0em;}.cls-6{letter-spacing:-0.01em;}.cls-7{stroke:#000;stroke-miterlimit:10;}.cls-8{fill:#bdedb7;}.cls-9{fill:#daddd9;}.cls-10{opacity:0.9;font-size:18px;}.cls-11{letter-spacing:0em;}.cls-12{letter-spacing:0.03em;}</style></defs><title>system_type_TITLE</title><text class="cls-1" transform="translate(81.36 56.72)">S<tspan class="cls-2" x="13.43" y="0">y</tspan><tspan class="cls-3" x="26.91" y="0">s</tspan><tspan class="cls-4" x="37.67" y="0">t</tspan><tspan x="45.63" y="0">em type b</tspan><tspan class="cls-5" x="158.75" y="0">r</tspan><tspan x="168.47" y="0">eakd</tspan><tspan class="cls-6" x="224.23" y="0">o</tspan><tspan x="237.85" y="0">wn</tspan></text><line class="cls-7" x1="367.78" y1="16.82" x2="367.78" y2="75.12"/><rect class="cls-8" x="385.43" y="29.6" width="10.14" height="10.14"/><rect class="cls-9" x="385.43" y="52.21" width="10.14" height="10.14"/><text class="cls-10" transform="translate(412.16 40.04)">P<tspan class="cls-11" x="7.14" y="0">r</tspan><tspan x="11.98" y="0">ima</tspan><tspan class="cls-12" x="33.65" y="0">r</tspan><tspan x="38.93" y="0">y S</tspan><tspan class="cls-2" x="56" y="0">y</tspan><tspan class="cls-3" x="62.75" y="0">s</tspan><tspan class="cls-4" x="68.12" y="0">t</tspan><tspan x="72.11" y="0">em</tspan></text><text class="cls-10" transform="translate(412.16 62.66)">Seconda<tspan class="cls-12" x="46.92" y="0">r</tspan><tspan x="52.19" y="0">y S</tspan><tspan class="cls-2" x="69.27" y="0">y</tspan><tspan class="cls-3" x="76.01" y="0">s</tspan><tspan class="cls-4" x="81.39" y="0">t</tspan><tspan x="85.37" y="0">ems</tspan></text></svg>