<svg id="Layer_2" data-name="Layer 2" xmlns="http://www.w3.org/2000/svg" viewBox="0 0 437.41 58.3"><defs><style>.cls-1,.cls-5{isolation:isolate;}.cls-2{fill:none;stroke:#000;stroke-miterlimit:10;}.cls-3{fill:#bdedb7;}.cls-4{fill:#daddd9;}.cls-5{opacity:0.9;}</style></defs><title>system_type_TITLE</title><g class="cls-1"><g class="cls-1"><path d="M92.5,30.14v3.57a5.35,5.35,0,0,0-3-1.2,3,3,0,0,0-2.36,1,3.61,3.61,0,0,0-.91,2.58,4.45,4.45,0,0,0,.65,2.44A10.8,10.8,0,0,0,88,40q.76.86,2,2.07A16.24,16.24,0,0,1,93,46a8.62,8.62,0,0,1,.81,3.92A7.61,7.61,0,0,1,92,55.07a5.83,5.83,0,0,1-4.55,2,6.31,6.31,0,0,1-4-1.28V52.15A6.22,6.22,0,0,0,87,53.57a2.9,2.9,0,0,0,2.34-1,4,4,0,0,0,.84-2.7,5.4,5.4,0,0,0-.65-2.65,10.84,10.84,0,0,0-.93-1.29q-.6-.73-1.49-1.63-1.39-1.37-2.3-2.43A11.44,11.44,0,0,1,83.49,40a8.08,8.08,0,0,1-.84-3.9,7.33,7.33,0,0,1,1.65-5,5.7,5.7,0,0,1,4.48-1.88A7.91,7.91,0,0,1,92.5,30.14Z" transform="translate(-82.64 -16.82)"/></g><g class="cls-1"><path d="M94.93,38.53h3.8l2.67,12.69,3.13-12.69h3.41L100.5,64.17H97l2.79-8.91Z" transform="translate(-82.64 -16.82)"/></g><g class="cls-1"><path d="M117.2,38.9V42a4.27,4.27,0,0,0-2.58-.91,2.19,2.19,0,0,0-1.52.59,2,2,0,0,0-.46.65,2,2,0,0,0-.17.8q0,1.3,2.36,3.09a17.11,17.11,0,0,1,1.58,1.37,6.27,6.27,0,0,1,1,1.2,5.23,5.23,0,0,1,.69,2.79,5.41,5.41,0,0,1-1.42,3.92A5,5,0,0,1,112.86,57a5.88,5.88,0,0,1-3-.86V52.89A4.69,4.69,0,0,0,112.66,54a2,2,0,0,0,2.3-2.27,2.52,2.52,0,0,0-.42-1.46,4,4,0,0,0-.62-.69q-.42-.4-1-.89A13.69,13.69,0,0,1,110,45.89a5.1,5.1,0,0,1-.74-2.79,5,5,0,0,1,1.35-3.6,4.79,4.79,0,0,1,3.57-1.39A6.23,6.23,0,0,1,117.2,38.9Z" transform="translate(-82.64 -16.82)"/></g><g class="cls-1"><path d="M121.33,33.43h3.36v5.1h1.83V41.2h-1.83V56.72h-3.36V41.2h-1.85V38.53h1.85Z" transform="translate(-82.64 -16.82)"/></g><g class="cls-1"><path d="M135.92,50.58H139Q138.68,57,133.78,57a5.36,5.36,0,0,1-2.5-.54,4.38,4.38,0,0,1-1.73-1.69,8.71,8.71,0,0,1-1-2.9,23.33,23.33,0,0,1-.33-4.18q0-4.82,1.34-7.14a4.48,4.48,0,0,1,4.16-2.32q5.47,0,5.47,9.63v.42h-7.68q0,5.84,2.32,5.84Q135.92,54.12,135.92,50.58Zm-.18-4.73a12.27,12.27,0,0,0-.65-3.76,1.53,1.53,0,0,0-1.48-1,1.51,1.51,0,0,0-1.48,1,12.27,12.27,0,0,0-.65,3.76Z" transform="translate(-82.64 -16.82)"/><path d="M142.16,38.53h3.36v2.25a4.15,4.15,0,0,1,3.69-2.55,3.39,3.39,0,0,1,3.41,2.55,4.15,4.15,0,0,1,3.8-2.55,4,4,0,0,1,2.93,1,4,4,0,0,1,1,3v14.5H157v-12a6.52,6.52,0,0,0-.39-2.76,1.46,1.46,0,0,0-1.44-.72,1.76,1.76,0,0,0-1.65.74,6,6,0,0,0-.42,2.74v12H149.6v-12a11.67,11.67,0,0,0-.1-1.63,3.09,3.09,0,0,0-.33-1.07,1.41,1.41,0,0,0-.6-.59,2,2,0,0,0-.91-.18,1.79,1.79,0,0,0-1.65.79,5.38,5.38,0,0,0-.49,2.69v12h-3.36Z" transform="translate(-82.64 -16.82)"/><path d="M172,33.43h3.36v5.1h1.83V41.2h-1.83V56.72H172V41.2h-1.85V38.53H172Z" transform="translate(-82.64 -16.82)"/><path d="M177.84,38.53h3.8l2.67,12.69,3.13-12.69h3.41l-7.44,25.65h-3.53l2.79-8.91Z" transform="translate(-82.64 -16.82)"/><path d="M192.87,64.17V38.53h3.36v2.36a5.75,5.75,0,0,1,1.44-2.07,3,3,0,0,1,1.93-.58,3.46,3.46,0,0,1,3.3,2.33,18.88,18.88,0,0,1,1,7.29q0,4.85-1.07,7A3.53,3.53,0,0,1,199.48,57a3.12,3.12,0,0,1-1.85-.51,3.31,3.31,0,0,1-.7-.7,8.28,8.28,0,0,1-.7-1.11v9.49Zm7.59-16.45a16.81,16.81,0,0,0-.49-5,1.75,1.75,0,0,0-1.71-1.42q-1.16,0-1.65,1.48a16.44,16.44,0,0,0-.49,4.89,16.44,16.44,0,0,0,.49,4.89q.51,1.46,1.65,1.46A1.79,1.79,0,0,0,200,52.57,15.85,15.85,0,0,0,200.47,47.72Z" transform="translate(-82.64 -16.82)"/><path d="M214.11,50.58h3.13Q216.87,57,212,57a5.36,5.36,0,0,1-2.5-.54,4.38,4.38,0,0,1-1.73-1.69,8.71,8.71,0,0,1-1-2.9,23.33,23.33,0,0,1-.33-4.18q0-4.82,1.34-7.14a4.48,4.48,0,0,1,4.16-2.32q5.47,0,5.47,9.63v.42h-7.68q0,5.84,2.32,5.84Q214.11,54.12,214.11,50.58Zm-.18-4.73a12.27,12.27,0,0,0-.65-3.76,1.53,1.53,0,0,0-1.48-1,1.51,1.51,0,0,0-1.48,1,12.27,12.27,0,0,0-.65,3.76Z" transform="translate(-82.64 -16.82)"/><path d="M227.8,26.85h3.36V40.58a6.93,6.93,0,0,1,.72-1.12,3.65,3.65,0,0,1,.72-.7,3,3,0,0,1,1.83-.53,3.66,3.66,0,0,1,2,.54,3.87,3.87,0,0,1,1.38,1.66,10.32,10.32,0,0,1,.8,2.87,28,28,0,0,1,.26,4.13,18.6,18.6,0,0,1-1.05,7.27,3.47,3.47,0,0,1-3.3,2.31,3,3,0,0,1-1.92-.56,5.83,5.83,0,0,1-1.44-2.06v2.34H227.8Zm7.59,20.87a16.81,16.81,0,0,0-.49-5,1.75,1.75,0,0,0-1.71-1.42q-1.16,0-1.63,1.44a17.54,17.54,0,0,0-.47,4.92,17.65,17.65,0,0,0,.47,4.92Q232,54,233.2,54a1.79,1.79,0,0,0,1.71-1.41A15.85,15.85,0,0,0,235.39,47.72Z" transform="translate(-82.64 -16.82)"/></g><g class="cls-1"><path d="M242,38.53h3.36v2.27a6.42,6.42,0,0,1,1.71-2,4.38,4.38,0,0,1,2.23-.67v3.52a4.13,4.13,0,0,0-.6-.05,3.19,3.19,0,0,0-2.58.93,5.12,5.12,0,0,0-.76,3.2v11H242Z" transform="translate(-82.64 -16.82)"/></g><g class="cls-1"><path d="M258.76,50.58h3.13Q261.52,57,256.62,57a5.36,5.36,0,0,1-2.5-.54,4.38,4.38,0,0,1-1.73-1.69,8.71,8.71,0,0,1-1-2.9,23.33,23.33,0,0,1-.33-4.18q0-4.82,1.34-7.14a4.48,4.48,0,0,1,4.16-2.32q5.47,0,5.47,9.63v.42h-7.68q0,5.84,2.32,5.84Q258.76,54.12,258.76,50.58Zm-.18-4.73a12.27,12.27,0,0,0-.65-3.76,1.53,1.53,0,0,0-1.48-1,1.51,1.51,0,0,0-1.48,1,12.27,12.27,0,0,0-.65,3.76Z" transform="translate(-82.64 -16.82)"/><path d="M275.39,38.53V56.72H272V54.38a5.83,5.83,0,0,1-1.44,2.06,3,3,0,0,1-1.9.56,3.48,3.48,0,0,1-3.32-2.32,18.67,18.67,0,0,1-1.05-7.28,17.14,17.14,0,0,1,1.05-7,3.48,3.48,0,0,1,3.32-2.22A3.77,3.77,0,0,1,272,40.58V38.53Zm-7.59,9a18,18,0,0,0,.47,5A1.78,1.78,0,0,0,270,54q1.13,0,1.63-1.48a17.1,17.1,0,0,0,.51-4.87,17.19,17.19,0,0,0-.51-4.89q-.51-1.48-1.63-1.48a1.79,1.79,0,0,0-1.71,1.41A15.94,15.94,0,0,0,267.79,47.54Z" transform="translate(-82.64 -16.82)"/><path d="M279.2,26.85h3.36V46.63l4.27-8.1h3.8L286,46.63l5.26,10.09h-3.94l-4.75-9.67v9.67H279.2Z" transform="translate(-82.64 -16.82)"/><path d="M303.67,26.85V56.72h-3.36V54.38a5.83,5.83,0,0,1-1.44,2.06A3,3,0,0,1,297,57a3.47,3.47,0,0,1-3.3-2.31,18.6,18.6,0,0,1-1.05-7.27,28,28,0,0,1,.26-4.13,10.32,10.32,0,0,1,.8-2.87A3.87,3.87,0,0,1,295,38.76a3.66,3.66,0,0,1,2-.54,3,3,0,0,1,1.83.53,3.65,3.65,0,0,1,.72.7,6.93,6.93,0,0,1,.72,1.13V26.85Zm-7.59,20.69a18,18,0,0,0,.47,5A1.78,1.78,0,0,0,298.28,54q1.13,0,1.63-1.48a17.1,17.1,0,0,0,.51-4.87,17.19,17.19,0,0,0-.51-4.89q-.51-1.48-1.63-1.48a1.79,1.79,0,0,0-1.71,1.41A15.94,15.94,0,0,0,296.08,47.54Z" transform="translate(-82.64 -16.82)"/></g><g class="cls-1"><path d="M318.23,47.77q0,9.23-5.71,9.23t-5.71-9.37q0-9.4,5.7-9.4a5.47,5.47,0,0,1,2.56.56,4.49,4.49,0,0,1,1.78,1.74,9.13,9.13,0,0,1,1,3A23.07,23.07,0,0,1,318.23,47.77Zm-3.48-.09a17.79,17.79,0,0,0-.47-5,1.75,1.75,0,0,0-1.69-1.42,1.79,1.79,0,0,0-1.71,1.41,17.34,17.34,0,0,0-.47,4.9,17.13,17.13,0,0,0,.47,4.89,1.79,1.79,0,0,0,1.71,1.41,1.73,1.73,0,0,0,1.67-1.39A15.6,15.6,0,0,0,314.75,47.68Z" transform="translate(-82.64 -16.82)"/></g><g class="cls-1"><path d="M319.47,38.53H323l1,5.85q.3,1.76.54,3.39T325,51l.05.63.07-.67q.14-1.27.29-2.33t.33-2l.28-1.39,1.25-6.71h2.44l1.18,6.71.39,2.11q.12.6.23,1.49t.21,2.1l.07.65q.32-3.27.9-6.35l1.25-6.71h3.3l-4.27,18.19H330.6l-1.39-6.94q-.25-1.27-.42-2.59t-.3-2.82q0-.18,0-.42t-.05-.58q-.11,1.6-.3,3.1t-.47,3l-1.41,7.26H323.9Z" transform="translate(-82.64 -16.82)"/><path d="M339.37,38.53h3.36v2.09a4.27,4.27,0,0,1,3.73-2.39A3.32,3.32,0,0,1,349.62,40a9.17,9.17,0,0,1,.53,3.81V56.72h-3.36l0-12.16a5.66,5.66,0,0,0-.44-2.62,1.59,1.59,0,0,0-1.51-.77,2.13,2.13,0,0,0-1,.2,1.53,1.53,0,0,0-.64.65,3.62,3.62,0,0,0-.36,1.17,11.6,11.6,0,0,0-.11,1.78V56.72h-3.36Z" transform="translate(-82.64 -16.82)"/></g></g><line class="cls-2" x1="285.14" x2="285.14" y2="58.3"/><rect class="cls-3" x="302.79" y="12.78" width="10.14" height="10.14"/><rect class="cls-4" x="302.79" y="35.39" width="10.14" height="10.14"/><g class="cls-1"><g class="cls-5"><path d="M413.21,26.47h2.41a3.25,3.25,0,0,1,2.53.88,4.16,4.16,0,0,1,.79,2.81q0,2.71-1.59,3.5A5.82,5.82,0,0,1,415,34v6h-1.83Zm1.83,6A2.11,2.11,0,0,0,416.6,32a2.41,2.41,0,0,0,.44-1.65,3,3,0,0,0-.42-1.78,1.55,1.55,0,0,0-1.33-.56H415Z" transform="translate(-82.64 -16.82)"/></g><g class="cls-1"><path d="M420.25,30.94h1.68v1.13a3.21,3.21,0,0,1,.85-1,2.19,2.19,0,0,1,1.12-.33v1.76l-.3,0a1.59,1.59,0,0,0-1.29.47,2.56,2.56,0,0,0-.38,1.6V40h-1.68Z" transform="translate(-82.64 -16.82)"/></g><g class="cls-1"><path d="M425.88,27.08A1.14,1.14,0,0,1,427,28.21a1.14,1.14,0,1,1-2.28,0,1.08,1.08,0,0,1,.33-.79A1.17,1.17,0,0,1,425.88,27.08Zm-.79,3.87h1.69V40h-1.69Z" transform="translate(-82.64 -16.82)"/><path d="M428.67,30.94h1.68v1.12a2.08,2.08,0,0,1,1.85-1.27,1.69,1.69,0,0,1,1.71,1.27,2.07,2.07,0,0,1,1.9-1.27,2,2,0,0,1,1.46.51,2,2,0,0,1,.5,1.49V40h-1.69v-6a3.26,3.26,0,0,0-.19-1.38.73.73,0,0,0-.72-.36.88.88,0,0,0-.83.37,3,3,0,0,0-.21,1.37v6h-1.74v-6a5.84,5.84,0,0,0,0-.82,1.55,1.55,0,0,0-.16-.54.7.7,0,0,0-.3-.29,1,1,0,0,0-.46-.09.9.9,0,0,0-.83.4,2.69,2.69,0,0,0-.25,1.34v6h-1.68Z" transform="translate(-82.64 -16.82)"/><path d="M444.86,30.94V40h-1.68V38.87a2.92,2.92,0,0,1-.72,1,1.5,1.5,0,0,1-.95.28A1.74,1.74,0,0,1,439.85,39a9.33,9.33,0,0,1-.53-3.64,8.58,8.58,0,0,1,.53-3.48,1.74,1.74,0,0,1,1.66-1.11A1.89,1.89,0,0,1,443.18,32v-1Zm-3.8,4.51a9,9,0,0,0,.24,2.5.89.89,0,0,0,.86.71q.56,0,.82-.74a8.55,8.55,0,0,0,.25-2.43,8.59,8.59,0,0,0-.25-2.44q-.25-.74-.82-.74a.89.89,0,0,0-.85.7A8,8,0,0,0,441.06,35.45Z" transform="translate(-82.64 -16.82)"/></g><g class="cls-1"><path d="M446.76,30.94h1.68v1.13a3.21,3.21,0,0,1,.85-1,2.19,2.19,0,0,1,1.12-.33v1.76l-.3,0a1.59,1.59,0,0,0-1.29.47,2.56,2.56,0,0,0-.38,1.6V40h-1.68Z" transform="translate(-82.64 -16.82)"/></g><g class="cls-1"><path d="M451.16,30.94h1.9l1.34,6.35L456,30.94h1.71l-3.72,12.82h-1.77l1.4-4.46Z" transform="translate(-82.64 -16.82)"/><path d="M467,26.75v1.78a2.68,2.68,0,0,0-1.5-.6,1.51,1.51,0,0,0-1.18.51,1.8,1.8,0,0,0-.46,1.29,2.22,2.22,0,0,0,.33,1.22,5.41,5.41,0,0,0,.55.7q.38.43,1,1a8.12,8.12,0,0,1,1.52,2,4.31,4.31,0,0,1,.4,2,3.81,3.81,0,0,1-.89,2.59,2.92,2.92,0,0,1-2.28,1,3.15,3.15,0,0,1-2-.64V37.75a3.11,3.11,0,0,0,1.78.71,1.45,1.45,0,0,0,1.17-.5,2,2,0,0,0,.42-1.35,2.7,2.7,0,0,0-.33-1.33,5.5,5.5,0,0,0-.47-.65q-.3-.36-.75-.81-.69-.69-1.15-1.21a5.72,5.72,0,0,1-.68-.92,4,4,0,0,1-.42-2,3.66,3.66,0,0,1,.83-2.52,2.85,2.85,0,0,1,2.24-.94A4,4,0,0,1,467,26.75Z" transform="translate(-82.64 -16.82)"/></g><g class="cls-1"><path d="M468.23,30.94h1.9l1.34,6.35L473,30.94h1.71L471,43.77h-1.77l1.4-4.46Z" transform="translate(-82.64 -16.82)"/></g><g class="cls-1"><path d="M479.38,31.13V32.7a2.13,2.13,0,0,0-1.29-.46,1.1,1.1,0,0,0-.76.29,1,1,0,0,0-.23.33,1,1,0,0,0-.08.4q0,.65,1.18,1.55a8.55,8.55,0,0,1,.79.69,3.13,3.13,0,0,1,.48.6,2.61,2.61,0,0,1,.34,1.4,2.7,2.7,0,0,1-.71,2,2.5,2.5,0,0,1-1.89.73,2.94,2.94,0,0,1-1.48-.43V38.12a2.34,2.34,0,0,0,1.38.54,1,1,0,0,0,1.15-1.13,1.26,1.26,0,0,0-.21-.73,2,2,0,0,0-.31-.35c-.14-.13-.31-.28-.52-.44a6.85,6.85,0,0,1-1.44-1.39,2.55,2.55,0,0,1-.37-1.4,2.49,2.49,0,0,1,.68-1.8,2.4,2.4,0,0,1,1.78-.69A3.12,3.12,0,0,1,479.38,31.13Z" transform="translate(-82.64 -16.82)"/></g><g class="cls-1"><path d="M481.43,28.39h1.68v2.55H484v1.34h-.91V40h-1.68V32.28h-.92V30.94h.92Z" transform="translate(-82.64 -16.82)"/></g><g class="cls-1"><path d="M488.73,37h1.56q-.18,3.21-2.64,3.21a2.68,2.68,0,0,1-1.25-.27,2.19,2.19,0,0,1-.87-.84,4.35,4.35,0,0,1-.51-1.45,11.67,11.67,0,0,1-.16-2.09,7.34,7.34,0,0,1,.67-3.57,2.24,2.24,0,0,1,2.08-1.16q2.73,0,2.73,4.82v.21h-3.84q0,2.92,1.16,2.92T488.73,37Zm-.09-2.36a6.15,6.15,0,0,0-.32-1.88.77.77,0,0,0-.74-.5.76.76,0,0,0-.74.5,6.13,6.13,0,0,0-.33,1.88Z" transform="translate(-82.64 -16.82)"/><path d="M491.86,30.94h1.68v1.12a2.08,2.08,0,0,1,1.85-1.27,1.69,1.69,0,0,1,1.71,1.27,2.07,2.07,0,0,1,1.9-1.27,2,2,0,0,1,1.46.51,2,2,0,0,1,.5,1.49V40h-1.69v-6a3.26,3.26,0,0,0-.19-1.38.73.73,0,0,0-.72-.36.88.88,0,0,0-.83.37,3,3,0,0,0-.21,1.37v6h-1.74v-6a5.84,5.84,0,0,0,0-.82,1.55,1.55,0,0,0-.16-.54.7.7,0,0,0-.3-.29,1,1,0,0,0-.46-.09.9.9,0,0,0-.83.4,2.69,2.69,0,0,0-.25,1.34v6h-1.68Z" transform="translate(-82.64 -16.82)"/></g></g><g class="cls-1"><g class="cls-5"><path d="M417.73,49.37v1.78a2.68,2.68,0,0,0-1.5-.6,1.51,1.51,0,0,0-1.18.51,1.8,1.8,0,0,0-.46,1.29,2.22,2.22,0,0,0,.33,1.22,5.39,5.39,0,0,0,.55.7q.38.43,1,1a8.12,8.12,0,0,1,1.52,2,4.31,4.31,0,0,1,.4,2,3.81,3.81,0,0,1-.89,2.59,2.92,2.92,0,0,1-2.28,1,3.15,3.15,0,0,1-2-.64V60.38a3.11,3.11,0,0,0,1.78.71,1.45,1.45,0,0,0,1.17-.5,2,2,0,0,0,.42-1.35,2.7,2.7,0,0,0-.33-1.33,5.5,5.5,0,0,0-.47-.65q-.3-.36-.75-.81-.69-.69-1.15-1.21a5.72,5.72,0,0,1-.68-.92,4,4,0,0,1-.42-2,3.66,3.66,0,0,1,.83-2.52,2.85,2.85,0,0,1,2.24-.94A4,4,0,0,1,417.73,49.37Z" transform="translate(-82.64 -16.82)"/><path d="M423.34,59.59h1.56q-.18,3.21-2.64,3.21a2.68,2.68,0,0,1-1.25-.27,2.19,2.19,0,0,1-.87-.84,4.35,4.35,0,0,1-.51-1.45,11.67,11.67,0,0,1-.16-2.09,7.34,7.34,0,0,1,.67-3.57,2.24,2.24,0,0,1,2.08-1.16q2.73,0,2.73,4.82v.21h-3.84q0,2.92,1.16,2.92T423.34,59.59Zm-.09-2.36a6.14,6.14,0,0,0-.33-1.88.77.77,0,0,0-.74-.5.76.76,0,0,0-.74.5,6.14,6.14,0,0,0-.33,1.88Z" transform="translate(-82.64 -16.82)"/><path d="M430.18,53.74v1.71a1.06,1.06,0,0,0-.84-.43q-1.39,0-1.39,3,0,3.19,1.38,3.19a1.48,1.48,0,0,0,.85-.34v1.57a2.88,2.88,0,0,1-1.35.35q-2.71,0-2.71-4.61a7.53,7.53,0,0,1,.67-3.62,2.23,2.23,0,0,1,2.07-1.16A2.88,2.88,0,0,1,430.18,53.74Z" transform="translate(-82.64 -16.82)"/><path d="M437,58.19q0,4.61-2.86,4.61t-2.86-4.68q0-4.7,2.85-4.7a2.73,2.73,0,0,1,1.28.28,2.25,2.25,0,0,1,.89.87,4.57,4.57,0,0,1,.52,1.49A11.53,11.53,0,0,1,437,58.19Zm-1.74,0a8.89,8.89,0,0,0-.24-2.5.87.87,0,0,0-.84-.71.89.89,0,0,0-.85.7,8.67,8.67,0,0,0-.24,2.45,8.57,8.57,0,0,0,.24,2.44.89.89,0,0,0,.85.7.86.86,0,0,0,.83-.69A7.8,7.8,0,0,0,435.23,58.14Z" transform="translate(-82.64 -16.82)"/><path d="M438.54,53.56h1.68v1a2.13,2.13,0,0,1,1.86-1.2,1.66,1.66,0,0,1,1.58.87,4.59,4.59,0,0,1,.26,1.91v6.47h-1.68V56.58a2.83,2.83,0,0,0-.22-1.31.8.8,0,0,0-.76-.39,1.08,1.08,0,0,0-.49.1.77.77,0,0,0-.32.33,1.8,1.8,0,0,0-.18.58,5.81,5.81,0,0,0-.06.89v5.88h-1.68Z" transform="translate(-82.64 -16.82)"/><path d="M451,47.73V62.66h-1.68V61.49a2.92,2.92,0,0,1-.72,1,1.51,1.51,0,0,1-1,.28A1.73,1.73,0,0,1,446,61.64a9.29,9.29,0,0,1-.53-3.63,14,14,0,0,1,.13-2.07,5.16,5.16,0,0,1,.4-1.43,1.94,1.94,0,0,1,.69-.83,1.84,1.84,0,0,1,1-.27,1.51,1.51,0,0,1,.91.26A1.82,1.82,0,0,1,449,54a3.46,3.46,0,0,1,.36.56V47.73Zm-3.8,10.34a9,9,0,0,0,.24,2.5.89.89,0,0,0,.86.71q.56,0,.82-.74a8.55,8.55,0,0,0,.25-2.43,8.59,8.59,0,0,0-.25-2.44q-.25-.74-.82-.74a.89.89,0,0,0-.85.7A8,8,0,0,0,447.22,58.07Z" transform="translate(-82.64 -16.82)"/><path d="M458.12,53.56v9.1h-1.68V61.49a2.92,2.92,0,0,1-.72,1,1.5,1.5,0,0,1-.95.28,1.74,1.74,0,0,1-1.66-1.16,9.33,9.33,0,0,1-.53-3.64,8.58,8.58,0,0,1,.53-3.48,1.74,1.74,0,0,1,1.66-1.11,1.89,1.89,0,0,1,1.67,1.18v-1Zm-3.8,4.51a9,9,0,0,0,.24,2.5.89.89,0,0,0,.86.71q.56,0,.82-.74a8.55,8.55,0,0,0,.25-2.43,8.59,8.59,0,0,0-.25-2.44q-.25-.74-.82-.74a.89.89,0,0,0-.85.7A8,8,0,0,0,454.32,58.07Z" transform="translate(-82.64 -16.82)"/></g><g class="cls-1"><path d="M460,53.56h1.68V54.7a3.21,3.21,0,0,1,.85-1,2.19,2.19,0,0,1,1.12-.33v1.76l-.3,0a1.59,1.59,0,0,0-1.29.47,2.56,2.56,0,0,0-.38,1.6v5.51H460Z" transform="translate(-82.64 -16.82)"/></g><g class="cls-1"><path d="M464.42,53.56h1.9l1.34,6.35,1.56-6.35h1.71l-3.72,12.82h-1.77l1.4-4.46Z" transform="translate(-82.64 -16.82)"/><path d="M480.28,49.37v1.78a2.68,2.68,0,0,0-1.5-.6,1.51,1.51,0,0,0-1.18.51,1.8,1.8,0,0,0-.46,1.29,2.22,2.22,0,0,0,.33,1.22,5.41,5.41,0,0,0,.55.7q.38.43,1,1a8.12,8.12,0,0,1,1.52,2,4.31,4.31,0,0,1,.4,2,3.81,3.81,0,0,1-.89,2.59,2.92,2.92,0,0,1-2.28,1,3.15,3.15,0,0,1-2-.64V60.38a3.11,3.11,0,0,0,1.78.71,1.45,1.45,0,0,0,1.17-.5,2,2,0,0,0,.42-1.35,2.7,2.7,0,0,0-.33-1.33,5.5,5.5,0,0,0-.47-.65q-.3-.36-.75-.81-.69-.69-1.15-1.21a5.72,5.72,0,0,1-.68-.92,4,4,0,0,1-.42-2,3.66,3.66,0,0,1,.83-2.52,2.85,2.85,0,0,1,2.24-.94A4,4,0,0,1,480.28,49.37Z" transform="translate(-82.64 -16.82)"/></g><g class="cls-1"><path d="M481.5,53.56h1.9l1.34,6.35,1.56-6.35H488l-3.72,12.82h-1.77l1.4-4.46Z" transform="translate(-82.64 -16.82)"/></g><g class="cls-1"><path d="M492.63,53.75v1.57a2.13,2.13,0,0,0-1.29-.46,1.1,1.1,0,0,0-.76.29,1,1,0,0,0-.23.33,1,1,0,0,0-.08.4q0,.65,1.18,1.55a8.55,8.55,0,0,1,.79.69,3.13,3.13,0,0,1,.48.6,2.61,2.61,0,0,1,.34,1.4,2.7,2.7,0,0,1-.71,2,2.5,2.5,0,0,1-1.89.73,2.94,2.94,0,0,1-1.48-.43V60.74a2.34,2.34,0,0,0,1.38.54,1,1,0,0,0,1.15-1.13,1.26,1.26,0,0,0-.21-.73,2,2,0,0,0-.31-.35c-.14-.13-.31-.28-.52-.44A6.85,6.85,0,0,1,489,57.25a2.55,2.55,0,0,1-.37-1.4,2.49,2.49,0,0,1,.68-1.8,2.4,2.4,0,0,1,1.78-.69A3.12,3.12,0,0,1,492.63,53.75Z" transform="translate(-82.64 -16.82)"/></g><g class="cls-1"><path d="M494.7,51h1.68v2.55h.91V54.9h-.91v7.76H494.7V54.9h-.92V53.56h.92Z" transform="translate(-82.64 -16.82)"/></g><g class="cls-1"><path d="M502,59.59h1.56q-.18,3.21-2.64,3.21a2.68,2.68,0,0,1-1.25-.27,2.19,2.19,0,0,1-.87-.84,4.35,4.35,0,0,1-.51-1.45,11.67,11.67,0,0,1-.16-2.09,7.34,7.34,0,0,1,.67-3.57,2.24,2.24,0,0,1,2.08-1.16q2.73,0,2.73,4.82v.21h-3.84q0,2.92,1.16,2.92T502,59.59Zm-.09-2.36a6.14,6.14,0,0,0-.33-1.88.77.77,0,0,0-.74-.5.76.76,0,0,0-.74.5,6.14,6.14,0,0,0-.33,1.88Z" transform="translate(-82.64 -16.82)"/><path d="M505.12,53.56h1.68v1.13a2.08,2.08,0,0,1,1.85-1.27,1.69,1.69,0,0,1,1.71,1.27,2.07,2.07,0,0,1,1.9-1.27,2,2,0,0,1,1.46.51,2,2,0,0,1,.51,1.49v7.25h-1.69v-6a3.26,3.26,0,0,0-.19-1.38.73.73,0,0,0-.72-.36.88.88,0,0,0-.83.37,3,3,0,0,0-.21,1.37v6h-1.74v-6a5.83,5.83,0,0,0,0-.82,1.55,1.55,0,0,0-.16-.54.7.7,0,0,0-.3-.29,1,1,0,0,0-.46-.09.9.9,0,0,0-.83.4,2.69,2.69,0,0,0-.25,1.34v6h-1.68Z" transform="translate(-82.64 -16.82)"/><path d="M519.63,53.75v1.57a2.13,2.13,0,0,0-1.29-.46,1.1,1.1,0,0,0-.76.29,1,1,0,0,0-.23.33,1,1,0,0,0-.08.4q0,.65,1.18,1.55a8.55,8.55,0,0,1,.79.69,3.13,3.13,0,0,1,.48.6,2.61,2.61,0,0,1,.34,1.4,2.7,2.7,0,0,1-.71,2,2.5,2.5,0,0,1-1.89.73,2.94,2.94,0,0,1-1.48-.43V60.74a2.34,2.34,0,0,0,1.38.54,1,1,0,0,0,1.15-1.13,1.26,1.26,0,0,0-.21-.73,2,2,0,0,0-.31-.35c-.14-.13-.31-.28-.52-.44A6.85,6.85,0,0,1,516,57.25a2.55,2.55,0,0,1-.37-1.4,2.49,2.49,0,0,1,.68-1.8,2.4,2.4,0,0,1,1.78-.69A3.12,3.12,0,0,1,519.63,53.75Z" transform="translate(-82.64 -16.82)"/></g></g></svg>