<svg id="Layer_2" data-name="Layer 2" xmlns="http://www.w3.org/2000/svg" viewBox="0 0 427.15 58.3"><defs><style>.cls-1,.cls-5{isolation:isolate;}.cls-2{fill:none;stroke:#000;stroke-miterlimit:10;}.cls-3{fill:#bdedb7;}.cls-4{fill:#daddd9;}.cls-5{opacity:0.9;}</style></defs><title>unit_of_value_TITLE</title><g class="cls-1"><g class="cls-1"><path d="M88.18,29.58h3.59V48.76a9.41,9.41,0,0,0,.53,3.9,2.24,2.24,0,0,0,2.14,1,2.28,2.28,0,0,0,2.11-.84,7.62,7.62,0,0,0,.53-3.5V29.58h3.59V49.28q0,4.43-1.35,6a6.36,6.36,0,0,1-4.94,1.78q-3.66,0-5.15-2.29-1-1.56-1-6Z" transform="translate(-88.18 -16.82)"/></g><g class="cls-1"><path d="M104.62,38.53H108v2.09a4.27,4.27,0,0,1,3.73-2.39A3.32,3.32,0,0,1,114.87,40a9.17,9.17,0,0,1,.53,3.81V56.72H112l0-12.16a5.66,5.66,0,0,0-.44-2.62,1.59,1.59,0,0,0-1.51-.77,2.13,2.13,0,0,0-1,.2,1.53,1.53,0,0,0-.64.65,3.62,3.62,0,0,0-.36,1.17A11.6,11.6,0,0,0,108,45V56.72h-3.36Z" transform="translate(-88.18 -16.82)"/><path d="M120.77,30.79A2.28,2.28,0,0,1,123,33.06a2.28,2.28,0,1,1-4.55,0,2.16,2.16,0,0,1,.67-1.58A2.34,2.34,0,0,1,120.77,30.79Zm-1.58,7.73h3.38V56.72h-3.37Z" transform="translate(-88.18 -16.82)"/><path d="M126.75,33.43h3.36v5.1h1.83V41.2h-1.83V56.72h-3.36V41.2H124.9V38.53h1.85Z" transform="translate(-88.18 -16.82)"/><path d="M152.54,47.77q0,9.23-5.71,9.23t-5.71-9.37q0-9.4,5.7-9.4a5.47,5.47,0,0,1,2.56.56,4.49,4.49,0,0,1,1.78,1.74,9.13,9.13,0,0,1,1,3A23.07,23.07,0,0,1,152.54,47.77Zm-3.48-.09a17.79,17.79,0,0,0-.47-5,1.75,1.75,0,0,0-1.69-1.42,1.79,1.79,0,0,0-1.71,1.41,17.34,17.34,0,0,0-.47,4.9,17.13,17.13,0,0,0,.47,4.89,1.79,1.79,0,0,0,1.71,1.41,1.73,1.73,0,0,0,1.67-1.39A15.6,15.6,0,0,0,149.06,47.68Z" transform="translate(-88.18 -16.82)"/><path d="M154.38,38.53h1.69V32.18a7.86,7.86,0,0,1,.91-4.39,3.64,3.64,0,0,1,3.18-1.28,6.8,6.8,0,0,1,2.29.47v3.55a3.07,3.07,0,0,0-1.42-.44,1.39,1.39,0,0,0-1.22.51,3.09,3.09,0,0,0-.36,1.72l0,1.37v4.83h2.85V41.2h-2.85V56.72h-3.36V41.2h-1.69Z" transform="translate(-88.18 -16.82)"/></g><g class="cls-1"><path d="M170.18,38.53h3.6l1.32,5.77q.4,1.76.69,3.72t.46,4.28a6.18,6.18,0,0,0,.11-.63l.4-2.71q.23-1.55.9-4.66l1.21-5.77h3.25l-4.75,18.19H175.1Z" transform="translate(-88.18 -16.82)"/></g><g class="cls-1"><path d="M194.44,38.53V56.72h-3.36V54.38a5.83,5.83,0,0,1-1.44,2.06,3,3,0,0,1-1.9.56,3.48,3.48,0,0,1-3.32-2.32,18.67,18.67,0,0,1-1.05-7.28,17.14,17.14,0,0,1,1.05-7,3.48,3.48,0,0,1,3.32-2.22,3.77,3.77,0,0,1,3.34,2.36V38.53Zm-7.59,9a18,18,0,0,0,.47,5A1.78,1.78,0,0,0,189,54q1.13,0,1.63-1.48a17.1,17.1,0,0,0,.51-4.87,17.19,17.19,0,0,0-.51-4.89q-.51-1.48-1.63-1.48a1.79,1.79,0,0,0-1.71,1.41A15.94,15.94,0,0,0,186.84,47.54Z" transform="translate(-88.18 -16.82)"/><path d="M198.25,26.85h3.36V56.72h-3.36Z" transform="translate(-88.18 -16.82)"/><path d="M205.42,38.53h3.36V50.69a4.82,4.82,0,0,0,.5,2.41,1.71,1.71,0,0,0,1.56.72,1.84,1.84,0,0,0,1.6-.63,4.31,4.31,0,0,0,.46-2.32V38.53h3.36V49.41a14.93,14.93,0,0,1-.56,5.1Q214.51,57,210.8,57q-2.92,0-4.15-1.48t-1.23-5Z" transform="translate(-88.18 -16.82)"/><path d="M227.08,50.58h3.13Q229.84,57,224.94,57a5.36,5.36,0,0,1-2.5-.54,4.38,4.38,0,0,1-1.73-1.69,8.71,8.71,0,0,1-1-2.9,23.33,23.33,0,0,1-.33-4.18q0-4.82,1.34-7.14a4.48,4.48,0,0,1,4.16-2.32q5.47,0,5.47,9.63v.42h-7.68q0,5.84,2.32,5.84Q227.08,54.12,227.08,50.58Zm-.18-4.73a12.27,12.27,0,0,0-.65-3.76,1.53,1.53,0,0,0-1.48-1,1.51,1.51,0,0,0-1.48,1,12.27,12.27,0,0,0-.65,3.76Z" transform="translate(-88.18 -16.82)"/><path d="M240.77,26.85h3.36V40.58a6.93,6.93,0,0,1,.72-1.12,3.65,3.65,0,0,1,.72-.7,3,3,0,0,1,1.83-.53,3.66,3.66,0,0,1,2,.54,3.87,3.87,0,0,1,1.38,1.66,10.32,10.32,0,0,1,.8,2.87,28,28,0,0,1,.26,4.13,18.6,18.6,0,0,1-1.05,7.27,3.47,3.47,0,0,1-3.3,2.31,3,3,0,0,1-1.92-.56,5.83,5.83,0,0,1-1.44-2.06v2.34h-3.36Zm7.59,20.87a16.81,16.81,0,0,0-.49-5,1.75,1.75,0,0,0-1.71-1.42q-1.16,0-1.63,1.44a17.54,17.54,0,0,0-.47,4.92,17.65,17.65,0,0,0,.47,4.92Q245,54,246.17,54a1.79,1.79,0,0,0,1.71-1.41A15.85,15.85,0,0,0,248.37,47.72Z" transform="translate(-88.18 -16.82)"/></g><g class="cls-1"><path d="M255,38.53h3.36v2.27a6.42,6.42,0,0,1,1.71-2,4.38,4.38,0,0,1,2.23-.67v3.52a4.13,4.13,0,0,0-.6-.05,3.19,3.19,0,0,0-2.58.93,5.12,5.12,0,0,0-.76,3.2v11H255Z" transform="translate(-88.18 -16.82)"/></g><g class="cls-1"><path d="M271.73,50.58h3.13Q274.49,57,269.58,57a5.36,5.36,0,0,1-2.5-.54,4.38,4.38,0,0,1-1.73-1.69,8.71,8.71,0,0,1-1-2.9,23.33,23.33,0,0,1-.33-4.18q0-4.82,1.34-7.14a4.48,4.48,0,0,1,4.16-2.32q5.47,0,5.47,9.63v.42H267.3q0,5.84,2.32,5.84Q271.73,54.12,271.73,50.58Zm-.18-4.73a12.27,12.27,0,0,0-.65-3.76,1.53,1.53,0,0,0-1.48-1,1.51,1.51,0,0,0-1.48,1,12.27,12.27,0,0,0-.65,3.76Z" transform="translate(-88.18 -16.82)"/><path d="M288.36,38.53V56.72H285V54.38a5.83,5.83,0,0,1-1.44,2.06,3,3,0,0,1-1.9.56,3.48,3.48,0,0,1-3.32-2.32,18.67,18.67,0,0,1-1.05-7.28,17.14,17.14,0,0,1,1.05-7,3.48,3.48,0,0,1,3.32-2.22A3.77,3.77,0,0,1,285,40.58V38.53Zm-7.59,9a18,18,0,0,0,.47,5A1.78,1.78,0,0,0,283,54q1.13,0,1.63-1.48a17.1,17.1,0,0,0,.51-4.87,17.19,17.19,0,0,0-.51-4.89q-.51-1.48-1.63-1.48a1.79,1.79,0,0,0-1.71,1.41A15.94,15.94,0,0,0,280.76,47.54Z" transform="translate(-88.18 -16.82)"/><path d="M292.17,26.85h3.36V46.63l4.27-8.1h3.8L299,46.63l5.26,10.09h-3.94l-4.75-9.67v9.67h-3.36Z" transform="translate(-88.18 -16.82)"/><path d="M316.64,26.85V56.72h-3.36V54.38a5.83,5.83,0,0,1-1.44,2.06,3,3,0,0,1-1.92.56,3.47,3.47,0,0,1-3.3-2.31,18.6,18.6,0,0,1-1.05-7.27,28,28,0,0,1,.26-4.13,10.32,10.32,0,0,1,.8-2.87A3.87,3.87,0,0,1,308,38.76a3.66,3.66,0,0,1,2-.54,3,3,0,0,1,1.83.53,3.65,3.65,0,0,1,.72.7,6.93,6.93,0,0,1,.72,1.13V26.85ZM309,47.54a18,18,0,0,0,.47,5A1.78,1.78,0,0,0,311.25,54q1.13,0,1.63-1.48a17.1,17.1,0,0,0,.51-4.87,17.19,17.19,0,0,0-.51-4.89q-.51-1.48-1.63-1.48a1.79,1.79,0,0,0-1.71,1.41A15.94,15.94,0,0,0,309,47.54Z" transform="translate(-88.18 -16.82)"/></g><g class="cls-1"><path d="M331.2,47.77q0,9.23-5.71,9.23t-5.71-9.37q0-9.4,5.7-9.4a5.47,5.47,0,0,1,2.56.56,4.49,4.49,0,0,1,1.78,1.74,9.13,9.13,0,0,1,1,3A23.07,23.07,0,0,1,331.2,47.77Zm-3.48-.09a17.79,17.79,0,0,0-.47-5,1.75,1.75,0,0,0-1.69-1.42,1.79,1.79,0,0,0-1.71,1.41,17.34,17.34,0,0,0-.47,4.9,17.13,17.13,0,0,0,.47,4.89,1.79,1.79,0,0,0,1.71,1.41,1.73,1.73,0,0,0,1.67-1.39A15.6,15.6,0,0,0,327.72,47.68Z" transform="translate(-88.18 -16.82)"/></g><g class="cls-1"><path d="M332.44,38.53H336l1,5.85q.3,1.76.54,3.39t.38,3.18l.05.63.07-.67q.14-1.27.29-2.33t.33-2l.28-1.39,1.25-6.71h2.44l1.18,6.71.39,2.11q.12.6.23,1.49t.21,2.1l.07.65q.32-3.27.9-6.35l1.25-6.71h3.3l-4.27,18.19h-2.32l-1.39-6.94q-.25-1.27-.42-2.59t-.3-2.82q0-.18,0-.42t-.05-.58q-.11,1.6-.3,3.1t-.47,3l-1.41,7.26h-2.32Z" transform="translate(-88.18 -16.82)"/><path d="M352.34,38.53h3.36v2.09a4.27,4.27,0,0,1,3.73-2.39A3.32,3.32,0,0,1,362.59,40a9.17,9.17,0,0,1,.53,3.81V56.72h-3.36l0-12.16a5.66,5.66,0,0,0-.44-2.62,1.59,1.59,0,0,0-1.51-.77,2.13,2.13,0,0,0-1,.2,1.53,1.53,0,0,0-.64.65,3.62,3.62,0,0,0-.36,1.17A11.6,11.6,0,0,0,355.7,45V56.72h-3.36Z" transform="translate(-88.18 -16.82)"/></g></g><line class="cls-2" x1="292.33" x2="292.33" y2="58.3"/><rect class="cls-3" x="309.89" y="12.78" width="10.14" height="10.14"/><rect class="cls-4" x="309.89" y="35.39" width="10.14" height="10.14"/><g class="cls-1"><g class="cls-5"><path d="M425.75,26.47h2.41a3.25,3.25,0,0,1,2.53.88,4.16,4.16,0,0,1,.79,2.81q0,2.71-1.59,3.5a5.82,5.82,0,0,1-2.31.36v6h-1.83Zm1.83,6a2.11,2.11,0,0,0,1.56-.46,2.41,2.41,0,0,0,.44-1.65,3,3,0,0,0-.42-1.78,1.55,1.55,0,0,0-1.33-.56h-.25Z" transform="translate(-88.18 -16.82)"/></g><g class="cls-1"><path d="M432.79,30.94h1.68v1.13a3.21,3.21,0,0,1,.85-1,2.19,2.19,0,0,1,1.12-.33v1.76l-.3,0a1.59,1.59,0,0,0-1.29.47,2.56,2.56,0,0,0-.38,1.6V40h-1.68Z" transform="translate(-88.18 -16.82)"/></g><g class="cls-1"><path d="M438.42,27.08a1.14,1.14,0,0,1,1.13,1.13,1.14,1.14,0,1,1-2.28,0,1.08,1.08,0,0,1,.33-.79A1.17,1.17,0,0,1,438.42,27.08Zm-.79,3.87h1.69V40h-1.69Z" transform="translate(-88.18 -16.82)"/><path d="M441.21,30.94h1.68v1.12a2.08,2.08,0,0,1,1.85-1.27,1.69,1.69,0,0,1,1.71,1.27,2.07,2.07,0,0,1,1.9-1.27,2,2,0,0,1,1.46.51,2,2,0,0,1,.5,1.49V40h-1.69v-6a3.26,3.26,0,0,0-.19-1.38.73.73,0,0,0-.72-.36.88.88,0,0,0-.83.37,3,3,0,0,0-.21,1.37v6h-1.74v-6a5.84,5.84,0,0,0,0-.82,1.55,1.55,0,0,0-.16-.54.7.7,0,0,0-.3-.29,1,1,0,0,0-.46-.09.9.9,0,0,0-.83.4,2.69,2.69,0,0,0-.25,1.34v6h-1.68Z" transform="translate(-88.18 -16.82)"/><path d="M457.4,30.94V40h-1.68V38.87a2.92,2.92,0,0,1-.72,1,1.5,1.5,0,0,1-.95.28A1.74,1.74,0,0,1,452.39,39a9.33,9.33,0,0,1-.53-3.64,8.58,8.58,0,0,1,.53-3.48A1.74,1.74,0,0,1,454,30.79,1.89,1.89,0,0,1,455.72,32v-1Zm-3.8,4.51a9,9,0,0,0,.24,2.5.89.89,0,0,0,.86.71q.56,0,.82-.74a8.55,8.55,0,0,0,.25-2.43,8.59,8.59,0,0,0-.25-2.44q-.25-.74-.82-.74a.89.89,0,0,0-.85.7A8,8,0,0,0,453.6,35.45Z" transform="translate(-88.18 -16.82)"/></g><g class="cls-1"><path d="M459.3,30.94H461v1.13a3.21,3.21,0,0,1,.85-1,2.19,2.19,0,0,1,1.12-.33v1.76l-.3,0a1.59,1.59,0,0,0-1.29.47,2.56,2.56,0,0,0-.38,1.6V40H459.3Z" transform="translate(-88.18 -16.82)"/></g><g class="cls-1"><path d="M463.7,30.94h1.9l1.34,6.35,1.56-6.35h1.71l-3.72,12.82h-1.77l1.4-4.46Z" transform="translate(-88.18 -16.82)"/></g><g class="cls-1"><path d="M475,26.47h1.79v9.59a4.7,4.7,0,0,0,.26,2,1.12,1.12,0,0,0,1.07.48,1.14,1.14,0,0,0,1.05-.42,3.81,3.81,0,0,0,.26-1.75V26.47h1.79v9.85a4.77,4.77,0,0,1-.68,3,3.18,3.18,0,0,1-2.47.89,2.84,2.84,0,0,1-2.58-1.14,6,6,0,0,1-.52-3Z" transform="translate(-88.18 -16.82)"/></g><g class="cls-1"><path d="M483.25,30.94h1.68v1a2.13,2.13,0,0,1,1.86-1.2,1.66,1.66,0,0,1,1.58.87,4.59,4.59,0,0,1,.26,1.91V40H487V34a2.83,2.83,0,0,0-.22-1.31.8.8,0,0,0-.76-.39,1.07,1.07,0,0,0-.49.1.77.77,0,0,0-.32.33,1.8,1.8,0,0,0-.18.58,5.79,5.79,0,0,0-.06.89V40h-1.68Z" transform="translate(-88.18 -16.82)"/><path d="M491.33,27.08a1.14,1.14,0,0,1,1.13,1.13,1.14,1.14,0,1,1-2.28,0,1.08,1.08,0,0,1,.33-.79A1.17,1.17,0,0,1,491.33,27.08Zm-.79,3.87h1.69V40h-1.69Z" transform="translate(-88.18 -16.82)"/><path d="M494.31,28.39H496v2.55h.91v1.34H496V40h-1.68V32.28h-.92V30.94h.92Z" transform="translate(-88.18 -16.82)"/></g></g><g class="cls-1"><g class="cls-5"><path d="M430.27,49.37v1.78a2.68,2.68,0,0,0-1.5-.6,1.51,1.51,0,0,0-1.18.51,1.8,1.8,0,0,0-.46,1.29,2.22,2.22,0,0,0,.33,1.22,5.39,5.39,0,0,0,.55.7q.38.43,1,1a8.12,8.12,0,0,1,1.52,2,4.31,4.31,0,0,1,.4,2,3.81,3.81,0,0,1-.89,2.59,2.92,2.92,0,0,1-2.28,1,3.15,3.15,0,0,1-2-.64V60.38a3.11,3.11,0,0,0,1.78.71,1.45,1.45,0,0,0,1.17-.5,2,2,0,0,0,.42-1.35,2.7,2.7,0,0,0-.33-1.33,5.5,5.5,0,0,0-.47-.65q-.3-.36-.75-.81-.69-.69-1.15-1.21a5.72,5.72,0,0,1-.68-.92,4,4,0,0,1-.42-2,3.66,3.66,0,0,1,.83-2.52,2.85,2.85,0,0,1,2.24-.94A4,4,0,0,1,430.27,49.37Z" transform="translate(-88.18 -16.82)"/><path d="M435.88,59.59h1.56q-.18,3.21-2.64,3.21a2.68,2.68,0,0,1-1.25-.27,2.19,2.19,0,0,1-.87-.84,4.35,4.35,0,0,1-.51-1.45,11.67,11.67,0,0,1-.16-2.09,7.34,7.34,0,0,1,.67-3.57,2.24,2.24,0,0,1,2.08-1.16q2.73,0,2.73,4.82v.21h-3.84q0,2.92,1.16,2.92T435.88,59.59Zm-.09-2.36a6.14,6.14,0,0,0-.33-1.88.77.77,0,0,0-.74-.5.76.76,0,0,0-.74.5,6.14,6.14,0,0,0-.33,1.88Z" transform="translate(-88.18 -16.82)"/><path d="M442.72,53.74v1.71a1.06,1.06,0,0,0-.84-.43q-1.39,0-1.39,3,0,3.19,1.38,3.19a1.48,1.48,0,0,0,.85-.34v1.57a2.88,2.88,0,0,1-1.35.35q-2.71,0-2.71-4.61a7.53,7.53,0,0,1,.67-3.62,2.23,2.23,0,0,1,2.07-1.16A2.88,2.88,0,0,1,442.72,53.74Z" transform="translate(-88.18 -16.82)"/><path d="M449.51,58.19q0,4.61-2.86,4.61t-2.86-4.68q0-4.7,2.85-4.7a2.73,2.73,0,0,1,1.28.28,2.25,2.25,0,0,1,.89.87,4.57,4.57,0,0,1,.52,1.49A11.53,11.53,0,0,1,449.51,58.19Zm-1.74,0a8.89,8.89,0,0,0-.24-2.5.87.87,0,0,0-.84-.71.89.89,0,0,0-.85.7,8.67,8.67,0,0,0-.24,2.45,8.57,8.57,0,0,0,.24,2.44.89.89,0,0,0,.85.7.86.86,0,0,0,.83-.69A7.8,7.8,0,0,0,447.77,58.14Z" transform="translate(-88.18 -16.82)"/><path d="M451.08,53.56h1.68v1a2.13,2.13,0,0,1,1.86-1.2,1.66,1.66,0,0,1,1.58.87,4.59,4.59,0,0,1,.26,1.91v6.47h-1.68V56.58a2.83,2.83,0,0,0-.22-1.31.8.8,0,0,0-.76-.39,1.08,1.08,0,0,0-.49.1.77.77,0,0,0-.32.33,1.8,1.8,0,0,0-.18.58,5.81,5.81,0,0,0-.06.89v5.88h-1.68Z" transform="translate(-88.18 -16.82)"/><path d="M463.56,47.73V62.66h-1.68V61.49a2.92,2.92,0,0,1-.72,1,1.51,1.51,0,0,1-1,.28,1.73,1.73,0,0,1-1.65-1.16A9.29,9.29,0,0,1,458,58a14,14,0,0,1,.13-2.07,5.16,5.16,0,0,1,.4-1.43,1.94,1.94,0,0,1,.69-.83,1.84,1.84,0,0,1,1-.27,1.51,1.51,0,0,1,.91.26,1.82,1.82,0,0,1,.36.35,3.46,3.46,0,0,1,.36.56V47.73Zm-3.8,10.34a9,9,0,0,0,.24,2.5.89.89,0,0,0,.86.71q.56,0,.82-.74a8.55,8.55,0,0,0,.25-2.43,8.59,8.59,0,0,0-.25-2.44q-.25-.74-.82-.74a.89.89,0,0,0-.85.7A8,8,0,0,0,459.76,58.07Z" transform="translate(-88.18 -16.82)"/><path d="M470.66,53.56v9.1H469V61.49a2.92,2.92,0,0,1-.72,1,1.5,1.5,0,0,1-.95.28,1.74,1.74,0,0,1-1.66-1.16,9.33,9.33,0,0,1-.53-3.64,8.58,8.58,0,0,1,.53-3.48,1.74,1.74,0,0,1,1.66-1.11A1.89,1.89,0,0,1,469,54.59v-1Zm-3.8,4.51a9,9,0,0,0,.24,2.5.89.89,0,0,0,.86.71q.56,0,.82-.74a8.55,8.55,0,0,0,.25-2.43,8.59,8.59,0,0,0-.25-2.44q-.25-.74-.82-.74a.89.89,0,0,0-.85.7A8,8,0,0,0,466.86,58.07Z" transform="translate(-88.18 -16.82)"/></g><g class="cls-1"><path d="M472.57,53.56h1.68V54.7a3.21,3.21,0,0,1,.85-1,2.19,2.19,0,0,1,1.12-.33v1.76l-.3,0a1.59,1.59,0,0,0-1.29.47,2.56,2.56,0,0,0-.38,1.6v5.51h-1.68Z" transform="translate(-88.18 -16.82)"/></g><g class="cls-1"><path d="M477,53.56h1.9l1.34,6.35,1.56-6.35h1.71l-3.72,12.82H478l1.4-4.46Z" transform="translate(-88.18 -16.82)"/></g><g class="cls-1"><path d="M488.3,49.09h1.79v9.59a4.7,4.7,0,0,0,.26,2,1.12,1.12,0,0,0,1.07.48,1.14,1.14,0,0,0,1.05-.42,3.81,3.81,0,0,0,.26-1.75V49.09h1.79v9.85a4.77,4.77,0,0,1-.68,3,3.18,3.18,0,0,1-2.47.89,2.84,2.84,0,0,1-2.58-1.14,6,6,0,0,1-.52-3Z" transform="translate(-88.18 -16.82)"/></g><g class="cls-1"><path d="M496.52,53.56h1.68v1a2.13,2.13,0,0,1,1.86-1.2,1.66,1.66,0,0,1,1.58.87,4.59,4.59,0,0,1,.26,1.91v6.47h-1.68V56.58a2.83,2.83,0,0,0-.22-1.31.8.8,0,0,0-.76-.39,1.08,1.08,0,0,0-.49.1.77.77,0,0,0-.32.33,1.8,1.8,0,0,0-.18.58,5.81,5.81,0,0,0-.06.89v5.88h-1.68Z" transform="translate(-88.18 -16.82)"/><path d="M504.6,49.7a1.14,1.14,0,0,1,1.13,1.13,1.14,1.14,0,1,1-2.28,0,1.08,1.08,0,0,1,.33-.79A1.17,1.17,0,0,1,504.6,49.7Zm-.79,3.87h1.69v9.1h-1.69Z" transform="translate(-88.18 -16.82)"/><path d="M507.58,51h1.68v2.55h.91V54.9h-.91v7.76h-1.68V54.9h-.92V53.56h.92Z" transform="translate(-88.18 -16.82)"/><path d="M514.9,53.75v1.57a2.13,2.13,0,0,0-1.29-.46,1.1,1.1,0,0,0-.76.29,1,1,0,0,0-.23.33,1,1,0,0,0-.08.4q0,.65,1.18,1.55a8.55,8.55,0,0,1,.79.69,3.13,3.13,0,0,1,.48.6,2.61,2.61,0,0,1,.34,1.4,2.7,2.7,0,0,1-.71,2,2.5,2.5,0,0,1-1.89.73,2.94,2.94,0,0,1-1.48-.43V60.74a2.34,2.34,0,0,0,1.38.54,1,1,0,0,0,1.15-1.13,1.26,1.26,0,0,0-.21-.73,2,2,0,0,0-.31-.35c-.14-.13-.31-.28-.52-.44a6.85,6.85,0,0,1-1.44-1.39,2.55,2.55,0,0,1-.37-1.4,2.49,2.49,0,0,1,.68-1.8,2.4,2.4,0,0,1,1.78-.69A3.12,3.12,0,0,1,514.9,53.75Z" transform="translate(-88.18 -16.82)"/></g></g></svg>