<svg id="Layer_2" data-name="Layer 2" xmlns="http://www.w3.org/2000/svg" viewBox="0 0 1604.49 1342.26"><defs><style>.cls-1{font-size:36px;}.cls-1,.cls-14,.cls-23,.cls-53,.cls-55,.cls-57,.cls-59,.cls-60,.cls-75,.cls-77,.cls-9{font-family:Futura-CondensedMedium, Futura;}.cls-2{letter-spacing:0em;}.cls-3{letter-spacing:0em;}.cls-4{letter-spacing:0em;}.cls-5{letter-spacing:-0.01em;}.cls-13,.cls-6,.cls-73,.cls-74{stroke:#000;stroke-miterlimit:10;}.cls-7{fill:#bdedb7;}.cls-8{fill:#daddd9;}.cls-9{opacity:0.9;font-size:18px;}.cls-10{letter-spacing:0em;}.cls-11{letter-spacing:0.03em;}.cls-12{fill:#e5e023;opacity:0.2;}.cls-13{fill:#fff;stroke-width:0.5px;}.cls-14,.cls-23{opacity:0.7;}.cls-14{font-size:20.85px;}.cls-15{letter-spacing:0em;}.cls-16{letter-spacing:0em;}.cls-17{letter-spacing:0.03em;}.cls-18{letter-spacing:0em;}.cls-19{letter-spacing:0em;}.cls-20{letter-spacing:0.01em;}.cls-21{letter-spacing:0em;}.cls-22{letter-spacing:0em;}.cls-23{font-size:17.72px;}.cls-24{letter-spacing:0em;}.cls-25{letter-spacing:0em;}.cls-26{letter-spacing:0em;}.cls-27{letter-spacing:0em;}.cls-28{letter-spacing:0.02em;}.cls-29{letter-spacing:-0.02em;}.cls-30{letter-spacing:-0.01em;}.cls-31{letter-spacing:0em;}.cls-32{letter-spacing:0.01em;}.cls-33{letter-spacing:0em;}.cls-34{letter-spacing:0em;}.cls-35{letter-spacing:0.01em;}.cls-36{letter-spacing:0em;}.cls-37{letter-spacing:0em;}.cls-38{letter-spacing:0em;}.cls-39{letter-spacing:0.02em;}.cls-40{letter-spacing:-0.01em;}.cls-41{letter-spacing:0em;}.cls-42{letter-spacing:0em;}.cls-43{letter-spacing:-0.01em;}.cls-44{letter-spacing:0.01em;}.cls-45{letter-spacing:0.01em;}.cls-46{letter-spacing:-0.02em;}.cls-47{letter-spacing:-0.03em;}.cls-48{letter-spacing:0em;}.cls-49{letter-spacing:0em;}.cls-50{letter-spacing:0em;}.cls-51{letter-spacing:0em;}.cls-52{letter-spacing:0.01em;}.cls-53,.cls-55,.cls-57,.cls-59,.cls-60{font-size:20.96px;}.cls-54{letter-spacing:0.01em;}.cls-55{letter-spacing:-0.06em;}.cls-56{letter-spacing:0em;}.cls-57{letter-spacing:-0.06em;}.cls-58{letter-spacing:-0.06em;}.cls-59{letter-spacing:-0.06em;}.cls-60{letter-spacing:-0.06em;}.cls-61{letter-spacing:0em;}.cls-62{letter-spacing:0em;}.cls-63{letter-spacing:0em;}.cls-64{letter-spacing:0em;}.cls-65{letter-spacing:0em;}.cls-66{letter-spacing:0.01em;}.cls-67{letter-spacing:-0.02em;}.cls-68{letter-spacing:0em;}.cls-69{letter-spacing:-0.01em;}.cls-70{letter-spacing:0em;}.cls-71{letter-spacing:-0.03em;}.cls-72{opacity:0.3;}.cls-73,.cls-74{fill:none;}.cls-74{stroke-dasharray:2.99 2.99;}.cls-75,.cls-77{font-size:16.12px;}.cls-76{letter-spacing:-0.06em;}.cls-77{letter-spacing:-0.02em;}.cls-78{letter-spacing:-0.03em;}.cls-79{letter-spacing:-0.06em;}.cls-80{letter-spacing:-0.09em;}.cls-81{letter-spacing:-0.06em;}.cls-82{letter-spacing:-0.03em;}.cls-83{letter-spacing:-0.02em;}.cls-84{letter-spacing:-0.04em;}.cls-85{letter-spacing:-0.06em;}.cls-86{letter-spacing:-0.06em;}.cls-87{letter-spacing:-0.07em;}.cls-88{letter-spacing:-0.05em;}</style></defs><title>unit_of_value</title><text class="cls-1" transform="translate(593.43 125.91)"><tspan class="cls-2">U</tspan><tspan x="16.63" y="0">nit of </tspan><tspan class="cls-3" x="83.95" y="0">v</tspan><tspan x="96.06" y="0">alue b</tspan><tspan class="cls-4" x="166.99" y="0">r</tspan><tspan x="176.71" y="0">eakd</tspan><tspan class="cls-5" x="232.47" y="0">o</tspan><tspan x="246.09" y="0">wn</tspan></text><line class="cls-6" x1="887.85" y1="86.01" x2="887.85" y2="144.31"/><rect class="cls-7" x="905.41" y="98.78" width="10.14" height="10.14"/><rect class="cls-8" x="905.41" y="121.4" width="10.14" height="10.14"/><text class="cls-9" transform="translate(932.04 109.22)">P<tspan class="cls-10" x="7.14" y="0">r</tspan><tspan x="11.98" y="0">ima</tspan><tspan class="cls-11" x="33.65" y="0">r</tspan><tspan x="38.93" y="0">y </tspan><tspan class="cls-2" x="49.29" y="0">U</tspan><tspan x="57.6" y="0">nit</tspan></text><text class="cls-9" transform="translate(932.04 131.84)">Seconda<tspan class="cls-11" x="46.92" y="0">r</tspan><tspan x="52.19" y="0">y </tspan><tspan class="cls-2" x="62.55" y="0">U</tspan><tspan x="70.87" y="0">nits</tspan></text><rect class="cls-12" x="120.16" y="1179.37" width="1363.17" height="76.76"/><line class="cls-13" x1="120.16" y1="494.52" x2="247.49" y2="494.52"/><line class="cls-13" x1="120.16" y1="418.46" x2="247.49" y2="418.46"/><line class="cls-13" x1="120.16" y1="570.77" x2="247.49" y2="570.77"/><line class="cls-13" x1="120.16" y1="647.03" x2="247.49" y2="647.03"/><line class="cls-13" x1="120.16" y1="722.74" x2="247.49" y2="722.74"/><line class="cls-13" x1="120.16" y1="798.88" x2="247.49" y2="798.88"/><line class="cls-13" x1="268.12" y1="418.46" x2="346.32" y2="418.46"/><line class="cls-13" x1="268.12" y1="494.52" x2="346.32" y2="494.52"/><line class="cls-13" x1="268.12" y1="570.77" x2="346.32" y2="570.77"/><line class="cls-13" x1="268.12" y1="647.03" x2="346.32" y2="647.03"/><line class="cls-13" x1="268.12" y1="722.74" x2="346.32" y2="722.74"/><line class="cls-13" x1="268.12" y1="798.88" x2="346.32" y2="798.88"/><line class="cls-13" x1="391.11" y1="418.46" x2="1483.33" y2="418.46"/><line class="cls-13" x1="120.16" y1="1179.37" x2="247.49" y2="1179.37"/><line class="cls-13" x1="120.16" y1="1103.23" x2="247.49" y2="1103.23"/><line class="cls-13" x1="120.16" y1="1027.51" x2="247.49" y2="1027.51"/><line class="cls-13" x1="120.16" y1="951.8" x2="247.49" y2="951.8"/><line class="cls-13" x1="120.16" y1="875.01" x2="247.49" y2="875.01"/><line class="cls-13" x1="268.12" y1="1179.37" x2="346.32" y2="1179.37"/><line class="cls-13" x1="268.12" y1="1103.23" x2="346.32" y2="1103.23"/><line class="cls-13" x1="268.12" y1="1027.51" x2="346.32" y2="1027.51"/><line class="cls-13" x1="268.12" y1="951.8" x2="346.32" y2="951.8"/><line class="cls-13" x1="268.12" y1="876.08" x2="346.32" y2="876.08"/><line class="cls-13" x1="389.61" y1="1027.51" x2="1483.33" y2="1027.51"/><text class="cls-14" transform="translate(252.92 350.68)">Co<tspan class="cls-15" x="15.98" y="0">m</tspan><tspan x="28.68" y="0">plemen</tspan><tspan class="cls-16" x="77.61" y="0">t</tspan><tspan x="82.26" y="0">a</tspan><tspan class="cls-17" x="90.49" y="0">r</tspan><tspan x="96.6" y="0">y </tspan><tspan x="25.58" y="25.02">Cu</tspan><tspan class="cls-18" x="42.01" y="25.02">r</tspan><tspan class="cls-19" x="47.62" y="25.02">r</tspan><tspan x="53.25" y="25.02">ency</tspan><tspan x="27.81" y="50.04">S</tspan><tspan class="cls-20" x="35.59" y="50.04">y</tspan><tspan class="cls-21" x="43.4" y="50.04">s</tspan><tspan class="cls-22" x="49.63" y="50.04">t</tspan><tspan x="54.24" y="50.04">ems</tspan></text><text class="cls-23" transform="translate(446.24 390.88) rotate(-45) scale(1.18 1)"><tspan class="cls-24">N</tspan><tspan x="8.32" y="0">ational Cu</tspan><tspan class="cls-24" x="64.9" y="0">r</tspan><tspan class="cls-25" x="69.67" y="0">r</tspan><tspan x="74.45" y="0">ency E</tspan><tspan class="cls-26" x="109.85" y="0">q</tspan><tspan class="cls-27" x="116.79" y="0">ui</tspan><tspan class="cls-26" x="127.51" y="0">v</tspan><tspan x="133.47" y="0">alent</tspan></text><text class="cls-14" transform="translate(554.34 390.23) rotate(-45)"><tspan class="cls-28">T</tspan><tspan x="7.31" y="0">ime</tspan></text><text class="cls-14" transform="translate(663.46 390.26) rotate(-45)">Independent <tspan class="cls-29" x="86.55" y="0">V</tspan><tspan x="93.9" y="0">alue</tspan></text><text class="cls-14" transform="translate(775.05 390.26) rotate(-45)">S<tspan class="cls-30" x="7.78" y="0">ev</tspan><tspan class="cls-31" x="22.3" y="0">e</tspan><tspan class="cls-32" x="29.98" y="0">r</tspan><tspan x="35.67" y="0">al (De</tspan><tspan class="cls-33" x="75.88" y="0">f</tspan><tspan class="cls-31" x="81.05" y="0">ined </tspan><tspan class="cls-34" x="113.86" y="0">b</tspan><tspan x="122.03" y="0">y use</tspan><tspan class="cls-35" x="156.32" y="0">r</tspan><tspan x="162.18" y="0">s)</tspan></text><text class="cls-14" transform="translate(883.75 390.26) rotate(-45)"><tspan class="cls-36">N</tspan><tspan x="9.79" y="0">ational Cu</tspan><tspan class="cls-37" x="76.39" y="0">r</tspan><tspan class="cls-33" x="82" y="0">r</tspan><tspan class="cls-31" x="87.63" y="0">ency E</tspan><tspan class="cls-38" x="129.29" y="0">q</tspan><tspan x="137.45" y="0">ui</tspan><tspan class="cls-34" x="150.07" y="0">v</tspan><tspan x="157.08" y="0">alent + </tspan><tspan class="cls-39" x="207.48" y="0">T</tspan><tspan class="cls-31" x="214.79" y="0">ime</tspan></text><text class="cls-14" transform="translate(993.42 390.26) rotate(-45)">Cu<tspan class="cls-36" x="16.42" y="0">r</tspan><tspan class="cls-33" x="22.03" y="0">r</tspan><tspan class="cls-31" x="27.66" y="0">ency / Commodity / </tspan><tspan class="cls-40" x="167.67" y="0">R</tspan><tspan x="176.16" y="0">esou</tspan><tspan class="cls-41" x="206.48" y="0">r</tspan><tspan class="cls-42" x="212.11" y="0">ce</tspan></text><text class="cls-14" transform="translate(1097.98 390.26) rotate(-45)">Divisible <tspan class="cls-43" x="59.72" y="0">F</tspan><tspan class="cls-44" x="66.87" y="0">r</tspan><tspan class="cls-42" x="72.56" y="0">actions of </tspan><tspan class="cls-45" x="139.89" y="0">F</tspan><tspan x="147.44" y="0">i</tspan><tspan class="cls-46" x="151.58" y="0">x</tspan><tspan x="159.11" y="0">ed </tspan><tspan class="cls-47" x="179.33" y="0">T</tspan><tspan class="cls-48" x="185.55" y="0">o</tspan><tspan class="cls-49" x="193.56" y="0">t</tspan><tspan x="198.21" y="0">al</tspan></text><text class="cls-14" transform="translate(1209.83 390.26) rotate(-45)">Commodity / <tspan class="cls-40" x="92.21" y="0">R</tspan><tspan x="100.7" y="0">esou</tspan><tspan class="cls-33" x="131.02" y="0">r</tspan><tspan class="cls-42" x="136.65" y="0">ce</tspan></text><text class="cls-14" transform="translate(1323.77 390.26) rotate(-45)">P<tspan class="cls-41" x="8.27" y="0">r</tspan><tspan class="cls-31" x="13.9" y="0">ecious Me</tspan><tspan class="cls-50" x="78.21" y="0">t</tspan><tspan class="cls-42" x="82.86" y="0">als</tspan></text><text class="cls-14" transform="translate(1433.47 390.26) rotate(-45)">Kilo<tspan class="cls-51" x="25.11" y="0">g</tspan><tspan class="cls-52" x="33.3" y="0">r</tspan><tspan class="cls-42" x="38.99" y="0">ams</tspan></text><text class="cls-53" transform="translate(170.67 462.75)">U<tspan class="cls-54" x="9.7" y="0">S</tspan><tspan x="17.76" y="0">A</tspan></text><text class="cls-53" transform="translate(298.54 462.75)">49</text><text class="cls-53" transform="translate(298.54 538.81)">28</text><text class="cls-53" transform="translate(298.54 614.88)">25</text><text class="cls-53" transform="translate(298.54 690.94)">23</text><text class="cls-55" transform="translate(299.2 767.07)">1<tspan class="cls-56" x="7.36" y="0">9</tspan></text><text class="cls-57" transform="translate(299.19 843.2)">1<tspan class="cls-56" x="7.38" y="0">5</tspan></text><text class="cls-53" transform="translate(299.12 919.4)"><tspan class="cls-58">1</tspan><tspan x="7.52" y="0">4</tspan></text><text class="cls-59" transform="translate(299.18 995.65)">1<tspan class="cls-56" x="7.4" y="0">3</tspan></text><text class="cls-60" transform="translate(299.17 1071.63)">1<tspan class="cls-56" x="7.42" y="0">2</tspan></text><text class="cls-60" transform="translate(299.17 1147.56)">1<tspan class="cls-56" x="7.42" y="0">2</tspan></text><text class="cls-53" transform="translate(294.2 1224.01)">296</text><text class="cls-53" transform="translate(153.67 538.81)">Ge<tspan class="cls-61" x="17.5" y="0">r</tspan><tspan x="23.14" y="0">ma</tspan><tspan class="cls-62" x="44.21" y="0">n</tspan><tspan class="cls-63" x="52.59" y="0">y</tspan></text><text class="cls-53" transform="translate(154.55 614.88)"><tspan class="cls-64">A</tspan><tspan x="8.52" y="0">u</tspan><tspan class="cls-65" x="17.04" y="0">s</tspan><tspan class="cls-56" x="23.3" y="0">t</tspan><tspan class="cls-66" x="27.96" y="0">r</tspan><tspan class="cls-63" x="33.68" y="0">alia</tspan></text><text class="cls-53" transform="translate(159.05 690.94)">Canada</text><text class="cls-53" transform="translate(156.68 767.07)">Belgium</text><text class="cls-53" transform="translate(174.56 843.2)">UK</text><text class="cls-53" transform="translate(165.32 919.4)">Spain</text><text class="cls-53" transform="translate(150.32 995.7)"><tspan class="cls-67">V</tspan><tspan x="7.35" y="0">enezuela</tspan></text><text class="cls-53" transform="translate(144.12 1071.63)"><tspan class="cls-68">N</tspan><tspan x="9.82" y="0">ethe</tspan><tspan class="cls-61" x="38.42" y="0">r</tspan><tspan class="cls-63" x="44.06" y="0">lands</tspan></text><text class="cls-53" transform="translate(141.07 1147.56)"><tspan class="cls-68">N</tspan><tspan class="cls-69" x="9.82" y="0">e</tspan><tspan x="17.43" y="0">w Zealand</tspan></text><text class="cls-53" transform="translate(141.19 1224.01)">Da<tspan class="cls-70" x="18.02" y="0">t</tspan><tspan x="22.7" y="0">aset </tspan><tspan class="cls-71" x="53.85" y="0">T</tspan><tspan class="cls-64" x="60.09" y="0">o</tspan><tspan class="cls-70" x="68.15" y="0">t</tspan><tspan x="72.83" y="0">al</tspan></text><g class="cls-72"><line class="cls-73" x1="498.31" y1="388.22" x2="498.31" y2="389.72"/><line class="cls-74" x1="498.31" y1="392.72" x2="498.31" y2="1253.13"/><line class="cls-73" x1="498.31" y1="1254.63" x2="498.31" y2="1256.13"/></g><g class="cls-72"><line class="cls-73" x1="607.01" y1="388.22" x2="607.01" y2="389.72"/><line class="cls-74" x1="607.01" y1="392.72" x2="607.01" y2="1253.13"/><line class="cls-73" x1="607.01" y1="1254.63" x2="607.01" y2="1256.13"/></g><g class="cls-72"><line class="cls-73" x1="715.71" y1="388.22" x2="715.71" y2="389.72"/><line class="cls-74" x1="715.71" y1="392.72" x2="715.71" y2="1253.13"/><line class="cls-73" x1="715.71" y1="1254.63" x2="715.71" y2="1256.13"/></g><g class="cls-72"><line class="cls-73" x1="824.4" y1="388.22" x2="824.4" y2="389.72"/><line class="cls-74" x1="824.4" y1="392.72" x2="824.4" y2="1253.13"/><line class="cls-73" x1="824.4" y1="1254.63" x2="824.4" y2="1256.13"/></g><g class="cls-72"><line class="cls-73" x1="824.4" y1="388.22" x2="824.4" y2="389.72"/><line class="cls-74" x1="824.4" y1="392.72" x2="824.4" y2="1253.13"/><line class="cls-73" x1="824.4" y1="1254.63" x2="824.4" y2="1256.13"/></g><g class="cls-72"><line class="cls-73" x1="933.33" y1="388.22" x2="933.33" y2="389.72"/><line class="cls-74" x1="933.33" y1="392.72" x2="933.33" y2="1253.13"/><line class="cls-73" x1="933.33" y1="1254.63" x2="933.33" y2="1256.13"/></g><g class="cls-72"><line class="cls-73" x1="1043.53" y1="388.22" x2="1043.53" y2="389.72"/><line class="cls-74" x1="1043.53" y1="392.72" x2="1043.53" y2="1253.13"/><line class="cls-73" x1="1043.53" y1="1254.63" x2="1043.53" y2="1256.13"/></g><g class="cls-72"><line class="cls-73" x1="1152.23" y1="388.22" x2="1152.23" y2="389.72"/><line class="cls-74" x1="1152.23" y1="392.72" x2="1152.23" y2="1253.13"/><line class="cls-73" x1="1152.23" y1="1254.63" x2="1152.23" y2="1256.13"/></g><g class="cls-72"><line class="cls-73" x1="1263.93" y1="388.22" x2="1263.93" y2="389.72"/><line class="cls-74" x1="1263.93" y1="392.72" x2="1263.93" y2="1253.13"/><line class="cls-73" x1="1263.93" y1="1254.63" x2="1263.93" y2="1256.13"/></g><g class="cls-72"><line class="cls-73" x1="1373.63" y1="388.22" x2="1373.63" y2="389.72"/><line class="cls-74" x1="1373.63" y1="392.72" x2="1373.63" y2="1253.13"/><line class="cls-73" x1="1373.63" y1="1254.63" x2="1373.63" y2="1256.13"/></g><text class="cls-75" transform="translate(434.88 614.11)">40%</text><text class="cls-75" transform="translate(541.8 634.69)"><tspan class="cls-76">1</tspan><tspan x="5.71" y="0">2%</tspan></text><text class="cls-75" transform="translate(544.65 563.28)">7%</text><text class="cls-75" transform="translate(762.04 711.42)">9%</text><text class="cls-75" transform="translate(434.88 669.9)">65%</text><text class="cls-75" transform="translate(650.01 775.13)">26%</text><text class="cls-75" transform="translate(762.04 797.23)">0%</text><text class="cls-75" transform="translate(870.74 797.23)">0%</text><text class="cls-75" transform="translate(870.75 720.02)">0%</text><text class="cls-75" transform="translate(762.04 1101.15)">0%</text><text class="cls-75" transform="translate(870.75 1101.15)">0%</text><text class="cls-75" transform="translate(762.04 644.7)">0%</text><text class="cls-75" transform="translate(762.04 568.05)">0%</text><text class="cls-77" transform="translate(980.74 568.05)">0%</text><text class="cls-77" transform="translate(1085.3 568.05)">0%</text><text class="cls-77" transform="translate(1198.2 568.05)">0%</text><text class="cls-77" transform="translate(1085.3 644.7)">0%</text><text class="cls-77" transform="translate(1085.3 720.01)">0%</text><text class="cls-77" transform="translate(1198.2 720.01)">0%</text><text class="cls-77" transform="translate(1198.2 797.23)">0%</text><text class="cls-77" transform="translate(1198.2 872.22)">0%</text><text class="cls-77" transform="translate(1198.2 948)">0%</text><text class="cls-77" transform="translate(1198.2 1025.09)">0%</text><text class="cls-77" transform="translate(1198.2 1101.15)">0%</text><text class="cls-77" transform="translate(1198.2 1177.4)">0%</text><text class="cls-77" transform="translate(1085.3 797.23)">0%</text><text class="cls-77" transform="translate(980.74 720.02)">0%</text><text class="cls-77" transform="translate(980.74 797.23)">0%</text><text class="cls-77" transform="translate(980.74 872.22)">0%</text><text class="cls-77" transform="translate(980.74 948)">0%</text><text class="cls-77" transform="translate(980.74 1025.09)">0%</text><text class="cls-77" transform="translate(1085.3 1025.09)">0%</text><text class="cls-77" transform="translate(1085.3 1101.15)">0%</text><text class="cls-77" transform="translate(1085.3 1177.4)">0%</text><text class="cls-77" transform="translate(980.74 1101.15)">0%</text><text class="cls-77" transform="translate(980.74 1177.4)">0%</text><text class="cls-75" transform="translate(434.88 911.25)">50%</text><text class="cls-75" transform="translate(438.21 1025.09)">0%</text><text class="cls-75" transform="translate(544.65 1025.09)">0%</text><text class="cls-75" transform="translate(653.35 1025.09)">0%</text><text class="cls-75" transform="translate(870.75 948)">0%</text><text class="cls-75" transform="translate(870.75 1025.09)">0%</text><text class="cls-75" transform="translate(762.04 872.22)">0%</text><text class="cls-75" transform="translate(870.74 491.64)">0%</text><text class="cls-75" transform="translate(980.42 491.64)">0%</text><text class="cls-75" transform="translate(435.12 1050.38)"><tspan class="cls-78">6</tspan><tspan x="6.18" y="0">7%</tspan></text><text class="cls-75" transform="translate(434.88 1144.9)">42%</text><rect class="cls-7" x="414.07" y="616.49" width="64.31" height="30.61"/><rect class="cls-8" x="520.5" y="637.51" width="64.31" height="9.07"/><text class="cls-75" transform="translate(867.89 634.74)"><tspan class="cls-79">1</tspan><tspan x="5.71" y="0">2%</tspan></text><rect class="cls-8" x="846.6" y="637.52" width="64.31" height="9.14"/><text class="cls-75" transform="translate(870.75 564.83)">4%</text><rect class="cls-8" x="846.6" y="568.05" width="64.31" height="3.11"/><text class="cls-75" transform="translate(1197.87 640.92)">4%</text><rect class="cls-8" x="1173.73" y="644.14" width="64.31" height="3.11"/><text class="cls-75" transform="translate(1420.47 640.68)">4%</text><rect class="cls-8" x="1396.33" y="643.9" width="64.31" height="3.11"/><text class="cls-75" transform="translate(762.04 487.92)">4%</text><rect class="cls-8" x="737.9" y="491.14" width="64.31" height="3.11"/><text class="cls-75" transform="translate(653.35 716.24)">4%</text><rect class="cls-8" x="629.2" y="719.46" width="64.31" height="3.11"/><rect class="cls-8" x="629.2" y="778.77" width="64.31" height="20.11"/><rect class="cls-8" x="737.9" y="716.01" width="64.31" height="6.8"/><text class="cls-75" transform="translate(650.7 1245.78)"><tspan class="cls-80">1</tspan><tspan x="5.29" y="0">1%</tspan></text><rect class="cls-8" x="629.2" y="1247.9" width="64.31" height="8.23"/><text class="cls-75" transform="translate(650.46 553.7)"><tspan class="cls-81">1</tspan><tspan x="5.79" y="0">8%</tspan></text><rect class="cls-8" x="629.2" y="556.79" width="64.31" height="13.71"/><text class="cls-75" transform="translate(650.49 635.13)"><tspan class="cls-79">1</tspan><tspan x="5.71" y="0">2%</tspan></text><rect class="cls-8" x="629.2" y="637.89" width="64.31" height="9.14"/><rect class="cls-8" x="520.5" y="565.5" width="64.31" height="5.1"/><text class="cls-75" transform="translate(544.65 943.65)">7%</text><rect class="cls-8" x="520.5" y="945.87" width="64.31" height="5.1"/><text class="cls-75" transform="translate(544.65 867.68)">7%</text><rect class="cls-8" x="520.5" y="869.91" width="64.31" height="5.1"/><text class="cls-75" transform="translate(870.74 867.68)">7%</text><rect class="cls-8" x="846.6" y="869.91" width="64.31" height="5.1"/><text class="cls-75" transform="translate(1084.98 867.68)">7%</text><rect class="cls-8" x="1060.83" y="869.91" width="64.31" height="5.1"/><text class="cls-75" transform="translate(1084.98 943.83)">7%</text><rect class="cls-8" x="1060.83" y="946.05" width="64.31" height="5.1"/><text class="cls-75" transform="translate(435.14 780.83)"><tspan class="cls-82">2</tspan><tspan x="6.16" y="0">1%</tspan></text><rect class="cls-8" x="414.07" y="783.01" width="64.31" height="16"/><text class="cls-75" transform="translate(758.97 932.86)"><tspan class="cls-82">2</tspan><tspan x="6.16" y="0">1%</tspan></text><rect class="cls-8" x="737.9" y="935.04" width="64.31" height="16"/><text class="cls-75" transform="translate(435.07 515.04)"><tspan class="cls-83">7</tspan><tspan x="6.29" y="0">1%</tspan></text><text class="cls-75" transform="translate(435.18 468.92)"><tspan class="cls-84">3</tspan><tspan x="6.06" y="0">1%</tspan></text><rect class="cls-7" x="414.07" y="517.45" width="64.31" height="53.86"/><rect class="cls-7" x="737.9" y="951.37" width="64.31" height="75.73"/><rect class="cls-8" x="414.07" y="471" width="64.31" height="23.53"/><text class="cls-75" transform="translate(541.31 702.41)">22%</text><rect class="cls-8" x="520.5" y="705.96" width="64.31" height="17.01"/><text class="cls-75" transform="translate(541.31 1235.69)">22%</text><rect class="cls-8" x="520.5" y="1239.24" width="64.31" height="17.01"/><text class="cls-75" transform="translate(541.31 466.47)">33%</text><rect class="cls-7" x="520.5" y="468.91" width="64.31" height="25.51"/><text class="cls-75" transform="translate(434.88 1220.15)">45%</text><rect class="cls-7" x="414.07" y="1221.98" width="64.31" height="34.02"/><rect class="cls-7" x="414.07" y="672.61" width="64.31" height="49.61"/><rect class="cls-8" x="846.6" y="1253.58" width="64.31" height="2.27"/><text class="cls-75" transform="translate(870.75 1251.27)">3%</text><rect class="cls-8" x="956.27" y="1254.44" width="64.31" height="1.42"/><text class="cls-75" transform="translate(980.42 1251.71)">2%</text><rect class="cls-8" x="1060.83" y="1254.44" width="64.31" height="1.42"/><text class="cls-75" transform="translate(1084.98 1251.71)">2%</text><rect class="cls-8" x="1396.33" y="493.28" width="64.31" height="1.42"/><text class="cls-75" transform="translate(1420.47 490.55)">2%</text><rect class="cls-8" x="1060.83" y="493.35" width="64.31" height="1.42"/><text class="cls-75" transform="translate(1084.98 490.62)">2%</text><rect class="cls-8" x="1173.73" y="1254.44" width="64.31" height="1.42"/><text class="cls-75" transform="translate(1197.87 1251.71)">1%</text><rect class="cls-8" x="1286.63" y="1254.38" width="64.31" height="1.42"/><text class="cls-75" transform="translate(1310.77 1251.66)">1%</text><rect class="cls-8" x="1396.33" y="1254.39" width="64.31" height="1.42"/><text class="cls-75" transform="translate(1420.47 1251.66)">1%</text><text class="cls-75" transform="translate(650.45 937.95)"><tspan class="cls-81">1</tspan><tspan x="5.79" y="0">4%</tspan></text><rect class="cls-8" x="629.2" y="940.86" width="64.31" height="10.51"/><text class="cls-75" transform="translate(650.46 481.1)"><tspan class="cls-81">1</tspan><tspan x="5.79" y="0">4%</tspan></text><rect class="cls-8" x="629.2" y="484.01" width="64.31" height="10.51"/><text class="cls-75" transform="translate(541.81 740.7)"><tspan class="cls-85">7</tspan><tspan x="5.68" y="0">4%</tspan></text><rect class="cls-7" x="520.5" y="742.18" width="64.31" height="56.69"/><text class="cls-75" transform="translate(650.5 858.69)"><tspan class="cls-86">1</tspan><tspan x="5.69" y="0">3%</tspan></text><rect class="cls-8" x="629.2" y="864.85" width="64.31" height="9.92"/><rect class="cls-7" x="414.07" y="912.99" width="64.31" height="38.27"/><rect class="cls-8" x="520.5" y="1090.45" width="64.31" height="12.8"/><text class="cls-75" transform="translate(541.84 1088.13)"><tspan class="cls-87">1</tspan><tspan x="5.61" y="0">7%</tspan></text><rect class="cls-8" x="629.2" y="1090.15" width="64.31" height="12.8"/><text class="cls-75" transform="translate(650.54 1087.83)"><tspan class="cls-87">1</tspan><tspan x="5.61" y="0">7%</tspan></text><rect class="cls-8" x="629.2" y="1166.6" width="64.31" height="12.8"/><text class="cls-75" transform="translate(650.54 1164.28)"><tspan class="cls-87">1</tspan><tspan x="5.61" y="0">7%</tspan></text><rect class="cls-8" x="520.5" y="1166.57" width="64.31" height="12.8"/><text class="cls-75" transform="translate(541.84 1164.25)"><tspan class="cls-87">1</tspan><tspan x="5.61" y="0">7%</tspan></text><rect class="cls-7" x="414.07" y="1147.1" width="64.31" height="32.03"/><rect class="cls-7" x="414.07" y="1052.2" width="64.31" height="51.02"/><text class="cls-75" transform="translate(435.12 822.49)"><tspan class="cls-78">6</tspan><tspan x="6.18" y="0">7%</tspan></text><rect class="cls-7" x="414.07" y="824.3" width="64.31" height="51.02"/><text class="cls-75" transform="translate(762.04 1169.82)">8%</text><rect class="cls-8" x="737.9" y="1173.42" width="64.31" height="5.94"/><text class="cls-75" transform="translate(870.75 1169.65)">8%</text><rect class="cls-8" x="846.6" y="1173.26" width="64.31" height="5.94"/><text class="cls-75" transform="translate(980.42 637.27)">8%</text><rect class="cls-8" x="956.27" y="640.87" width="64.31" height="5.94"/><text class="cls-75" transform="translate(1310.77 485.15)">8%</text><rect class="cls-8" x="1286.63" y="488.75" width="64.31" height="5.94"/><text class="cls-75" transform="translate(762.04 1246.5)">8%</text><rect class="cls-8" x="737.9" y="1250.1" width="64.31" height="5.94"/><line class="cls-13" x1="391.11" y1="647.03" x2="1483.33" y2="647.03"/><line class="cls-13" x1="389.61" y1="798.88" x2="1483.33" y2="798.88"/><line class="cls-13" x1="391.11" y1="722.74" x2="1483.33" y2="722.74"/><line class="cls-13" x1="391.11" y1="570.77" x2="1483.33" y2="570.77"/><line class="cls-13" x1="389.61" y1="1103.23" x2="1483.33" y2="1103.23"/><line class="cls-13" x1="389.61" y1="1179.37" x2="1483.33" y2="1179.37"/><line class="cls-13" x1="389.61" y1="951.26" x2="1483.33" y2="951.26"/><line class="cls-13" x1="389.61" y1="875.01" x2="1483.33" y2="875.01"/><line class="cls-13" x1="120.16" y1="1256.13" x2="247.49" y2="1256.13"/><line class="cls-13" x1="268.12" y1="1256.13" x2="346.32" y2="1256.13"/><line class="cls-13" x1="389.61" y1="1256.13" x2="1483.33" y2="1256.13"/><text class="cls-75" transform="translate(755.78 994.05)"><tspan class="cls-88">1</tspan><tspan x="5.86" y="0">00%</tspan></text><rect class="cls-8" x="1173.73" y="491.69" width="64.31" height="2.83"/><text class="cls-75" transform="translate(1197.87 489.67)">6%</text><line class="cls-13" x1="391.11" y1="494.52" x2="1483.33" y2="494.52"/><text class="cls-77" transform="translate(1311.09 568.05)">0%</text><text class="cls-77" transform="translate(1420.79 568.05)">0%</text><text class="cls-77" transform="translate(1311.09 644.7)">0%</text><text class="cls-77" transform="translate(1311.09 720.01)">0%</text><text class="cls-77" transform="translate(1311.09 797.23)">0%</text><text class="cls-77" transform="translate(1311.09 872.22)">0%</text><text class="cls-77" transform="translate(1311.09 948)">0%</text><text class="cls-77" transform="translate(1311.09 1025.09)">0%</text><text class="cls-77" transform="translate(1311.09 1101.15)">0%</text><text class="cls-77" transform="translate(1311.09 1177.4)">0%</text><text class="cls-77" transform="translate(1420.79 720.02)">0%</text><text class="cls-77" transform="translate(1420.79 797.23)">0%</text><text class="cls-77" transform="translate(1420.79 872.22)">0%</text><text class="cls-77" transform="translate(1420.79 948)">0%</text><text class="cls-77" transform="translate(1420.79 1025.09)">0%</text><text class="cls-77" transform="translate(1420.79 1101.15)">0%</text><text class="cls-77" transform="translate(1420.79 1177.4)">0%</text></svg>