<svg id="Layer_2" data-name="Layer 2" xmlns="http://www.w3.org/2000/svg" viewBox="0 0 1604.49 1099.21"><defs><style>.cls-1{fill:#e5e023;opacity:0.2;}.cls-2{fill:#fff;stroke-width:0.5px;}.cls-2,.cls-62,.cls-63{stroke:#000;stroke-miterlimit:10;}.cls-12,.cls-3{opacity:0.7;}.cls-3{font-size:20.85px;}.cls-12,.cls-3,.cls-42,.cls-44,.cls-46,.cls-48,.cls-49,.cls-64,.cls-66{font-family:Futura-CondensedMedium, Futura;}.cls-4{letter-spacing:0em;}.cls-5{letter-spacing:0em;}.cls-6{letter-spacing:0.03em;}.cls-7{letter-spacing:0em;}.cls-8{letter-spacing:0em;}.cls-9{letter-spacing:0.01em;}.cls-10{letter-spacing:0em;}.cls-11{letter-spacing:0em;}.cls-12{font-size:17.72px;}.cls-13{letter-spacing:0em;}.cls-14{letter-spacing:0em;}.cls-15{letter-spacing:0em;}.cls-16{letter-spacing:0em;}.cls-17{letter-spacing:0.02em;}.cls-18{letter-spacing:-0.02em;}.cls-19{letter-spacing:-0.01em;}.cls-20{letter-spacing:0em;}.cls-21{letter-spacing:0.01em;}.cls-22{letter-spacing:0em;}.cls-23{letter-spacing:0em;}.cls-24{letter-spacing:0.01em;}.cls-25{letter-spacing:0em;}.cls-26{letter-spacing:0em;}.cls-27{letter-spacing:0em;}.cls-28{letter-spacing:0.02em;}.cls-29{letter-spacing:-0.01em;}.cls-30{letter-spacing:0em;}.cls-31{letter-spacing:0em;}.cls-32{letter-spacing:-0.01em;}.cls-33{letter-spacing:0.01em;}.cls-34{letter-spacing:0.01em;}.cls-35{letter-spacing:-0.02em;}.cls-36{letter-spacing:-0.03em;}.cls-37{letter-spacing:0em;}.cls-38{letter-spacing:0em;}.cls-39{letter-spacing:0em;}.cls-40{letter-spacing:0em;}.cls-41{letter-spacing:0.01em;}.cls-42,.cls-44,.cls-46,.cls-48,.cls-49{font-size:20.96px;}.cls-43{letter-spacing:0.01em;}.cls-44{letter-spacing:-0.06em;}.cls-45{letter-spacing:0em;}.cls-46{letter-spacing:-0.06em;}.cls-47{letter-spacing:-0.06em;}.cls-48{letter-spacing:-0.06em;}.cls-49{letter-spacing:-0.06em;}.cls-50{letter-spacing:0em;}.cls-51{letter-spacing:0em;}.cls-52{letter-spacing:0em;}.cls-53{letter-spacing:0em;}.cls-54{letter-spacing:0em;}.cls-55{letter-spacing:0.01em;}.cls-56{letter-spacing:-0.02em;}.cls-57{letter-spacing:0em;}.cls-58{letter-spacing:-0.01em;}.cls-59{letter-spacing:0em;}.cls-60{letter-spacing:-0.03em;}.cls-61{opacity:0.3;}.cls-62,.cls-63{fill:none;}.cls-63{stroke-dasharray:2.99 2.99;}.cls-64,.cls-66{font-size:16.12px;}.cls-65{letter-spacing:-0.06em;}.cls-66{letter-spacing:-0.02em;}.cls-67{letter-spacing:-0.03em;}.cls-68{fill:#bdedb7;}.cls-69{fill:#daddd9;}.cls-70{letter-spacing:-0.06em;}.cls-71{letter-spacing:-0.09em;}.cls-72{letter-spacing:-0.06em;}.cls-73{letter-spacing:-0.03em;}.cls-74{letter-spacing:-0.02em;}.cls-75{letter-spacing:-0.04em;}.cls-76{letter-spacing:-0.06em;}.cls-77{letter-spacing:-0.06em;}.cls-78{letter-spacing:-0.07em;}.cls-79{letter-spacing:-0.05em;}</style></defs><title>unit_of_value</title><rect class="cls-1" x="120.14" y="994.53" width="1363.17" height="76.76"/><line class="cls-2" x1="120.14" y1="309.69" x2="247.47" y2="309.69"/><line class="cls-2" x1="120.14" y1="233.63" x2="247.47" y2="233.63"/><line class="cls-2" x1="120.14" y1="385.94" x2="247.47" y2="385.94"/><line class="cls-2" x1="120.14" y1="462.19" x2="247.47" y2="462.19"/><line class="cls-2" x1="120.14" y1="537.91" x2="247.47" y2="537.91"/><line class="cls-2" x1="120.14" y1="614.05" x2="247.47" y2="614.05"/><line class="cls-2" x1="268.1" y1="233.63" x2="346.3" y2="233.63"/><line class="cls-2" x1="268.1" y1="309.69" x2="346.3" y2="309.69"/><line class="cls-2" x1="268.1" y1="385.94" x2="346.3" y2="385.94"/><line class="cls-2" x1="268.1" y1="462.19" x2="346.3" y2="462.19"/><line class="cls-2" x1="268.1" y1="537.91" x2="346.3" y2="537.91"/><line class="cls-2" x1="268.1" y1="614.05" x2="346.3" y2="614.05"/><line class="cls-2" x1="391.09" y1="233.63" x2="1483.31" y2="233.63"/><line class="cls-2" x1="120.14" y1="994.53" x2="247.47" y2="994.53"/><line class="cls-2" x1="120.14" y1="918.4" x2="247.47" y2="918.4"/><line class="cls-2" x1="120.14" y1="842.68" x2="247.47" y2="842.68"/><line class="cls-2" x1="120.14" y1="766.96" x2="247.47" y2="766.96"/><line class="cls-2" x1="120.14" y1="690.18" x2="247.47" y2="690.18"/><line class="cls-2" x1="268.1" y1="994.53" x2="346.3" y2="994.53"/><line class="cls-2" x1="268.1" y1="918.4" x2="346.3" y2="918.4"/><line class="cls-2" x1="268.1" y1="842.68" x2="346.3" y2="842.68"/><line class="cls-2" x1="268.1" y1="766.96" x2="346.3" y2="766.96"/><line class="cls-2" x1="268.1" y1="691.25" x2="346.3" y2="691.25"/><line class="cls-2" x1="389.59" y1="842.68" x2="1483.31" y2="842.68"/><text class="cls-3" transform="translate(252.9 165.85)">Co<tspan class="cls-4" x="15.98" y="0">m</tspan><tspan x="28.68" y="0">plemen</tspan><tspan class="cls-5" x="77.61" y="0">t</tspan><tspan x="82.26" y="0">a</tspan><tspan class="cls-6" x="90.49" y="0">r</tspan><tspan x="96.6" y="0">y </tspan><tspan x="25.58" y="25.02">Cu</tspan><tspan class="cls-7" x="42.01" y="25.02">r</tspan><tspan class="cls-8" x="47.62" y="25.02">r</tspan><tspan x="53.25" y="25.02">ency</tspan><tspan x="27.81" y="50.04">S</tspan><tspan class="cls-9" x="35.59" y="50.04">y</tspan><tspan class="cls-10" x="43.4" y="50.04">s</tspan><tspan class="cls-11" x="49.63" y="50.04">t</tspan><tspan x="54.24" y="50.04">ems</tspan></text><text class="cls-12" transform="translate(446.22 206.05) rotate(-45) scale(1.18 1)"><tspan class="cls-13">N</tspan><tspan x="8.32" y="0">ational Cu</tspan><tspan class="cls-13" x="64.9" y="0">r</tspan><tspan class="cls-14" x="69.67" y="0">r</tspan><tspan x="74.45" y="0">ency E</tspan><tspan class="cls-15" x="109.85" y="0">q</tspan><tspan class="cls-16" x="116.79" y="0">ui</tspan><tspan class="cls-15" x="127.51" y="0">v</tspan><tspan x="133.47" y="0">alent</tspan></text><text class="cls-3" transform="translate(554.32 205.4) rotate(-45)"><tspan class="cls-17">T</tspan><tspan x="7.31" y="0">ime</tspan></text><text class="cls-3" transform="translate(663.44 205.43) rotate(-45)">Independent <tspan class="cls-18" x="86.55" y="0">V</tspan><tspan x="93.9" y="0">alue</tspan></text><text class="cls-3" transform="translate(775.03 205.43) rotate(-45)">S<tspan class="cls-19" x="7.78" y="0">ev</tspan><tspan class="cls-20" x="22.3" y="0">e</tspan><tspan class="cls-21" x="29.98" y="0">r</tspan><tspan x="35.67" y="0">al (De</tspan><tspan class="cls-22" x="75.88" y="0">f</tspan><tspan class="cls-20" x="81.05" y="0">ined </tspan><tspan class="cls-23" x="113.86" y="0">b</tspan><tspan x="122.03" y="0">y use</tspan><tspan class="cls-24" x="156.32" y="0">r</tspan><tspan x="162.18" y="0">s)</tspan></text><text class="cls-3" transform="translate(883.73 205.43) rotate(-45)"><tspan class="cls-25">N</tspan><tspan x="9.79" y="0">ational Cu</tspan><tspan class="cls-26" x="76.39" y="0">r</tspan><tspan class="cls-22" x="82" y="0">r</tspan><tspan class="cls-20" x="87.63" y="0">ency E</tspan><tspan class="cls-27" x="129.29" y="0">q</tspan><tspan x="137.45" y="0">ui</tspan><tspan class="cls-23" x="150.07" y="0">v</tspan><tspan x="157.08" y="0">alent + </tspan><tspan class="cls-28" x="207.48" y="0">T</tspan><tspan class="cls-20" x="214.79" y="0">ime</tspan></text><text class="cls-3" transform="translate(993.4 205.43) rotate(-45)">Cu<tspan class="cls-25" x="16.42" y="0">r</tspan><tspan class="cls-22" x="22.03" y="0">r</tspan><tspan class="cls-20" x="27.66" y="0">ency / Commodity / </tspan><tspan class="cls-29" x="167.67" y="0">R</tspan><tspan x="176.16" y="0">esou</tspan><tspan class="cls-30" x="206.48" y="0">r</tspan><tspan class="cls-31" x="212.11" y="0">ce</tspan></text><text class="cls-3" transform="translate(1097.96 205.43) rotate(-45)">Divisible <tspan class="cls-32" x="59.72" y="0">F</tspan><tspan class="cls-33" x="66.87" y="0">r</tspan><tspan class="cls-31" x="72.56" y="0">actions of </tspan><tspan class="cls-34" x="139.89" y="0">F</tspan><tspan x="147.44" y="0">i</tspan><tspan class="cls-35" x="151.58" y="0">x</tspan><tspan x="159.11" y="0">ed </tspan><tspan class="cls-36" x="179.33" y="0">T</tspan><tspan class="cls-37" x="185.55" y="0">o</tspan><tspan class="cls-38" x="193.56" y="0">t</tspan><tspan x="198.21" y="0">al</tspan></text><text class="cls-3" transform="translate(1209.81 205.42) rotate(-45)">Commodity / <tspan class="cls-29" x="92.21" y="0">R</tspan><tspan x="100.7" y="0">esou</tspan><tspan class="cls-22" x="131.02" y="0">r</tspan><tspan class="cls-31" x="136.65" y="0">ce</tspan></text><text class="cls-3" transform="translate(1323.76 205.42) rotate(-45)">P<tspan class="cls-30" x="8.27" y="0">r</tspan><tspan class="cls-20" x="13.9" y="0">ecious Me</tspan><tspan class="cls-39" x="78.21" y="0">t</tspan><tspan class="cls-31" x="82.86" y="0">als</tspan></text><text class="cls-3" transform="translate(1433.45 205.43) rotate(-45)">Kilo<tspan class="cls-40" x="25.11" y="0">g</tspan><tspan class="cls-41" x="33.3" y="0">r</tspan><tspan class="cls-31" x="38.99" y="0">ams</tspan></text><text class="cls-42" transform="translate(170.65 277.92)">U<tspan class="cls-43" x="9.7" y="0">S</tspan><tspan x="17.76" y="0">A</tspan></text><text class="cls-42" transform="translate(298.52 277.92)">49</text><text class="cls-42" transform="translate(298.52 353.98)">28</text><text class="cls-42" transform="translate(298.52 430.04)">25</text><text class="cls-42" transform="translate(298.52 506.11)">23</text><text class="cls-44" transform="translate(299.18 582.24)">1<tspan class="cls-45" x="7.36" y="0">9</tspan></text><text class="cls-46" transform="translate(299.17 658.37)">1<tspan class="cls-45" x="7.38" y="0">5</tspan></text><text class="cls-42" transform="translate(299.1 734.56)"><tspan class="cls-47">1</tspan><tspan x="7.52" y="0">4</tspan></text><text class="cls-48" transform="translate(299.16 810.82)">1<tspan class="cls-45" x="7.4" y="0">3</tspan></text><text class="cls-49" transform="translate(299.15 886.8)">1<tspan class="cls-45" x="7.42" y="0">2</tspan></text><text class="cls-49" transform="translate(299.15 962.73)">1<tspan class="cls-45" x="7.42" y="0">2</tspan></text><text class="cls-42" transform="translate(294.18 1039.17)">296</text><text class="cls-42" transform="translate(153.65 353.98)">Ge<tspan class="cls-50" x="17.5" y="0">r</tspan><tspan x="23.14" y="0">ma</tspan><tspan class="cls-51" x="44.21" y="0">n</tspan><tspan class="cls-52" x="52.59" y="0">y</tspan></text><text class="cls-42" transform="translate(154.53 430.04)"><tspan class="cls-53">A</tspan><tspan x="8.52" y="0">u</tspan><tspan class="cls-54" x="17.04" y="0">s</tspan><tspan class="cls-45" x="23.3" y="0">t</tspan><tspan class="cls-55" x="27.96" y="0">r</tspan><tspan class="cls-52" x="33.68" y="0">alia</tspan></text><text class="cls-42" transform="translate(159.03 506.11)">Canada</text><text class="cls-42" transform="translate(156.66 582.24)">Belgium</text><text class="cls-42" transform="translate(174.54 658.37)">UK</text><text class="cls-42" transform="translate(165.3 734.56)">Spain</text><text class="cls-42" transform="translate(150.3 810.87)"><tspan class="cls-56">V</tspan><tspan x="7.35" y="0">enezuela</tspan></text><text class="cls-42" transform="translate(144.1 886.8)"><tspan class="cls-57">N</tspan><tspan x="9.82" y="0">ethe</tspan><tspan class="cls-50" x="38.42" y="0">r</tspan><tspan class="cls-52" x="44.06" y="0">lands</tspan></text><text class="cls-42" transform="translate(141.05 962.73)"><tspan class="cls-57">N</tspan><tspan class="cls-58" x="9.82" y="0">e</tspan><tspan x="17.43" y="0">w Zealand</tspan></text><text class="cls-42" transform="translate(141.17 1039.17)">Da<tspan class="cls-59" x="18.02" y="0">t</tspan><tspan x="22.7" y="0">aset </tspan><tspan class="cls-60" x="53.85" y="0">T</tspan><tspan class="cls-53" x="60.09" y="0">o</tspan><tspan class="cls-59" x="68.15" y="0">t</tspan><tspan x="72.83" y="0">al</tspan></text><g class="cls-61"><line class="cls-62" x1="498.29" y1="203.39" x2="498.29" y2="204.89"/><line class="cls-63" x1="498.29" y1="207.89" x2="498.29" y2="1068.3"/><line class="cls-62" x1="498.29" y1="1069.8" x2="498.29" y2="1071.3"/></g><g class="cls-61"><line class="cls-62" x1="606.99" y1="203.39" x2="606.99" y2="204.89"/><line class="cls-63" x1="606.99" y1="207.89" x2="606.99" y2="1068.3"/><line class="cls-62" x1="606.99" y1="1069.8" x2="606.99" y2="1071.3"/></g><g class="cls-61"><line class="cls-62" x1="715.69" y1="203.39" x2="715.69" y2="204.89"/><line class="cls-63" x1="715.69" y1="207.89" x2="715.69" y2="1068.3"/><line class="cls-62" x1="715.69" y1="1069.8" x2="715.69" y2="1071.3"/></g><g class="cls-61"><line class="cls-62" x1="824.38" y1="203.39" x2="824.38" y2="204.89"/><line class="cls-63" x1="824.38" y1="207.89" x2="824.38" y2="1068.3"/><line class="cls-62" x1="824.38" y1="1069.8" x2="824.38" y2="1071.3"/></g><g class="cls-61"><line class="cls-62" x1="824.38" y1="203.39" x2="824.38" y2="204.89"/><line class="cls-63" x1="824.38" y1="207.89" x2="824.38" y2="1068.3"/><line class="cls-62" x1="824.38" y1="1069.8" x2="824.38" y2="1071.3"/></g><g class="cls-61"><line class="cls-62" x1="933.31" y1="203.39" x2="933.31" y2="204.89"/><line class="cls-63" x1="933.31" y1="207.89" x2="933.31" y2="1068.3"/><line class="cls-62" x1="933.31" y1="1069.8" x2="933.31" y2="1071.3"/></g><g class="cls-61"><line class="cls-62" x1="1043.51" y1="203.39" x2="1043.51" y2="204.89"/><line class="cls-63" x1="1043.51" y1="207.89" x2="1043.51" y2="1068.3"/><line class="cls-62" x1="1043.51" y1="1069.8" x2="1043.51" y2="1071.3"/></g><g class="cls-61"><line class="cls-62" x1="1152.21" y1="203.39" x2="1152.21" y2="204.89"/><line class="cls-63" x1="1152.21" y1="207.89" x2="1152.21" y2="1068.3"/><line class="cls-62" x1="1152.21" y1="1069.8" x2="1152.21" y2="1071.3"/></g><g class="cls-61"><line class="cls-62" x1="1263.91" y1="203.39" x2="1263.91" y2="204.89"/><line class="cls-63" x1="1263.91" y1="207.89" x2="1263.91" y2="1068.3"/><line class="cls-62" x1="1263.91" y1="1069.8" x2="1263.91" y2="1071.3"/></g><g class="cls-61"><line class="cls-62" x1="1373.61" y1="203.39" x2="1373.61" y2="204.89"/><line class="cls-63" x1="1373.61" y1="207.89" x2="1373.61" y2="1068.3"/><line class="cls-62" x1="1373.61" y1="1069.8" x2="1373.61" y2="1071.3"/></g><text class="cls-64" transform="translate(434.86 429.27)">40%</text><text class="cls-64" transform="translate(541.78 449.86)"><tspan class="cls-65">1</tspan><tspan x="5.71" y="0">2%</tspan></text><text class="cls-64" transform="translate(544.63 378.44)">7%</text><text class="cls-64" transform="translate(762.03 526.59)">9%</text><text class="cls-64" transform="translate(434.86 485.07)">65%</text><text class="cls-64" transform="translate(649.99 590.3)">26%</text><text class="cls-64" transform="translate(762.03 612.4)">0%</text><text class="cls-64" transform="translate(870.73 612.4)">0%</text><text class="cls-64" transform="translate(870.73 535.18)">0%</text><text class="cls-64" transform="translate(762.03 916.32)">0%</text><text class="cls-64" transform="translate(870.73 916.32)">0%</text><text class="cls-64" transform="translate(762.03 459.87)">0%</text><text class="cls-64" transform="translate(762.03 383.22)">0%</text><text class="cls-66" transform="translate(980.72 383.22)">0%</text><text class="cls-66" transform="translate(1085.28 383.22)">0%</text><text class="cls-66" transform="translate(1198.18 383.22)">0%</text><text class="cls-66" transform="translate(1085.28 459.87)">0%</text><text class="cls-66" transform="translate(1085.28 535.18)">0%</text><text class="cls-66" transform="translate(1198.18 535.18)">0%</text><text class="cls-66" transform="translate(1198.18 612.4)">0%</text><text class="cls-66" transform="translate(1198.18 687.39)">0%</text><text class="cls-66" transform="translate(1198.18 763.17)">0%</text><text class="cls-66" transform="translate(1198.18 840.26)">0%</text><text class="cls-66" transform="translate(1198.18 916.32)">0%</text><text class="cls-66" transform="translate(1198.18 992.56)">0%</text><text class="cls-66" transform="translate(1085.28 612.4)">0%</text><text class="cls-66" transform="translate(980.72 535.18)">0%</text><text class="cls-66" transform="translate(980.72 612.4)">0%</text><text class="cls-66" transform="translate(980.72 687.39)">0%</text><text class="cls-66" transform="translate(980.72 763.17)">0%</text><text class="cls-66" transform="translate(980.72 840.26)">0%</text><text class="cls-66" transform="translate(1085.28 840.26)">0%</text><text class="cls-66" transform="translate(1085.28 916.32)">0%</text><text class="cls-66" transform="translate(1085.28 992.56)">0%</text><text class="cls-66" transform="translate(980.72 916.32)">0%</text><text class="cls-66" transform="translate(980.72 992.56)">0%</text><text class="cls-64" transform="translate(434.86 726.42)">50%</text><text class="cls-64" transform="translate(438.19 840.26)">0%</text><text class="cls-64" transform="translate(544.63 840.26)">0%</text><text class="cls-64" transform="translate(653.33 840.26)">0%</text><text class="cls-64" transform="translate(870.73 763.17)">0%</text><text class="cls-64" transform="translate(870.73 840.26)">0%</text><text class="cls-64" transform="translate(762.03 687.39)">0%</text><text class="cls-64" transform="translate(870.73 306.81)">0%</text><text class="cls-64" transform="translate(980.4 306.81)">0%</text><text class="cls-64" transform="translate(435.1 865.55)"><tspan class="cls-67">6</tspan><tspan x="6.18" y="0">7%</tspan></text><text class="cls-64" transform="translate(434.86 960.07)">42%</text><rect class="cls-68" x="414.05" y="431.66" width="64.31" height="30.61"/><rect class="cls-69" x="520.48" y="452.67" width="64.31" height="9.07"/><text class="cls-64" transform="translate(867.87 449.9)"><tspan class="cls-70">1</tspan><tspan x="5.71" y="0">2%</tspan></text><rect class="cls-69" x="846.58" y="452.69" width="64.31" height="9.14"/><text class="cls-64" transform="translate(870.73 380)">4%</text><rect class="cls-69" x="846.58" y="383.22" width="64.31" height="3.11"/><text class="cls-64" transform="translate(1197.85 456.09)">4%</text><rect class="cls-69" x="1173.71" y="459.31" width="64.31" height="3.11"/><text class="cls-64" transform="translate(1420.45 455.85)">4%</text><rect class="cls-69" x="1396.31" y="459.07" width="64.31" height="3.11"/><text class="cls-64" transform="translate(762.03 303.09)">4%</text><rect class="cls-69" x="737.88" y="306.31" width="64.31" height="3.11"/><text class="cls-64" transform="translate(653.33 531.41)">4%</text><rect class="cls-69" x="629.18" y="534.63" width="64.31" height="3.11"/><rect class="cls-69" x="629.18" y="593.94" width="64.31" height="20.11"/><rect class="cls-69" x="737.88" y="531.18" width="64.31" height="6.8"/><text class="cls-64" transform="translate(650.68 1060.95)"><tspan class="cls-71">1</tspan><tspan x="5.29" y="0">1%</tspan></text><rect class="cls-69" x="629.18" y="1063.07" width="64.31" height="8.23"/><text class="cls-64" transform="translate(650.44 368.87)"><tspan class="cls-72">1</tspan><tspan x="5.79" y="0">8%</tspan></text><rect class="cls-69" x="629.18" y="371.95" width="64.31" height="13.71"/><text class="cls-64" transform="translate(650.48 450.3)"><tspan class="cls-70">1</tspan><tspan x="5.71" y="0">2%</tspan></text><rect class="cls-69" x="629.18" y="453.05" width="64.31" height="9.14"/><rect class="cls-69" x="520.48" y="380.67" width="64.31" height="5.1"/><text class="cls-64" transform="translate(544.63 758.82)">7%</text><rect class="cls-69" x="520.48" y="761.04" width="64.31" height="5.1"/><text class="cls-64" transform="translate(544.63 682.85)">7%</text><rect class="cls-69" x="520.48" y="685.08" width="64.31" height="5.1"/><text class="cls-64" transform="translate(870.73 682.85)">7%</text><rect class="cls-69" x="846.58" y="685.08" width="64.31" height="5.1"/><text class="cls-64" transform="translate(1084.96 682.85)">7%</text><rect class="cls-69" x="1060.81" y="685.08" width="64.31" height="5.1"/><text class="cls-64" transform="translate(1084.96 759)">7%</text><rect class="cls-69" x="1060.81" y="761.22" width="64.31" height="5.1"/><text class="cls-64" transform="translate(435.12 595.99)"><tspan class="cls-73">2</tspan><tspan x="6.16" y="0">1%</tspan></text><rect class="cls-69" x="414.05" y="598.18" width="64.31" height="16"/><text class="cls-64" transform="translate(758.95 748.03)"><tspan class="cls-73">2</tspan><tspan x="6.16" y="0">1%</tspan></text><rect class="cls-69" x="737.88" y="750.21" width="64.31" height="16"/><text class="cls-64" transform="translate(435.05 330.21)"><tspan class="cls-74">7</tspan><tspan x="6.29" y="0">1%</tspan></text><text class="cls-64" transform="translate(435.16 284.08)"><tspan class="cls-75">3</tspan><tspan x="6.06" y="0">1%</tspan></text><rect class="cls-68" x="414.05" y="332.62" width="64.31" height="53.86"/><rect class="cls-68" x="737.88" y="766.54" width="64.31" height="75.73"/><rect class="cls-69" x="414.05" y="286.16" width="64.31" height="23.53"/><text class="cls-64" transform="translate(541.29 517.58)">22%</text><rect class="cls-69" x="520.48" y="521.13" width="64.31" height="17.01"/><text class="cls-64" transform="translate(541.29 1050.86)">22%</text><rect class="cls-69" x="520.48" y="1054.41" width="64.31" height="17.01"/><text class="cls-64" transform="translate(541.29 281.63)">33%</text><rect class="cls-68" x="520.48" y="284.08" width="64.31" height="25.51"/><text class="cls-64" transform="translate(434.86 1035.32)">45%</text><rect class="cls-68" x="414.05" y="1037.15" width="64.31" height="34.02"/><rect class="cls-68" x="414.05" y="487.78" width="64.31" height="49.61"/><rect class="cls-69" x="846.58" y="1068.74" width="64.31" height="2.27"/><text class="cls-64" transform="translate(870.73 1066.44)">3%</text><rect class="cls-69" x="956.26" y="1069.61" width="64.31" height="1.42"/><text class="cls-64" transform="translate(980.4 1066.88)">2%</text><rect class="cls-69" x="1060.81" y="1069.61" width="64.31" height="1.42"/><text class="cls-64" transform="translate(1084.96 1066.88)">2%</text><rect class="cls-69" x="1396.31" y="308.44" width="64.31" height="1.42"/><text class="cls-64" transform="translate(1420.45 305.72)">2%</text><rect class="cls-69" x="1060.81" y="308.52" width="64.31" height="1.42"/><text class="cls-64" transform="translate(1084.96 305.79)">2%</text><rect class="cls-69" x="1173.71" y="1069.61" width="64.31" height="1.42"/><text class="cls-64" transform="translate(1197.85 1066.88)">1%</text><rect class="cls-69" x="1286.61" y="1069.55" width="64.31" height="1.42"/><text class="cls-64" transform="translate(1310.75 1066.82)">1%</text><rect class="cls-69" x="1396.31" y="1069.55" width="64.31" height="1.42"/><text class="cls-64" transform="translate(1420.45 1066.82)">1%</text><text class="cls-64" transform="translate(650.44 753.12)"><tspan class="cls-72">1</tspan><tspan x="5.79" y="0">4%</tspan></text><rect class="cls-69" x="629.18" y="756.03" width="64.31" height="10.51"/><text class="cls-64" transform="translate(650.44 296.27)"><tspan class="cls-72">1</tspan><tspan x="5.79" y="0">4%</tspan></text><rect class="cls-69" x="629.18" y="299.18" width="64.31" height="10.51"/><text class="cls-64" transform="translate(541.79 555.87)"><tspan class="cls-76">7</tspan><tspan x="5.68" y="0">4%</tspan></text><rect class="cls-68" x="520.48" y="557.35" width="64.31" height="56.69"/><text class="cls-64" transform="translate(650.48 673.86)"><tspan class="cls-77">1</tspan><tspan x="5.69" y="0">3%</tspan></text><rect class="cls-69" x="629.18" y="680.02" width="64.31" height="9.92"/><rect class="cls-68" x="414.05" y="728.16" width="64.31" height="38.27"/><rect class="cls-69" x="520.48" y="905.62" width="64.31" height="12.8"/><text class="cls-64" transform="translate(541.82 903.3)"><tspan class="cls-78">1</tspan><tspan x="5.61" y="0">7%</tspan></text><rect class="cls-69" x="629.18" y="905.32" width="64.31" height="12.8"/><text class="cls-64" transform="translate(650.52 903)"><tspan class="cls-78">1</tspan><tspan x="5.61" y="0">7%</tspan></text><rect class="cls-69" x="629.18" y="981.77" width="64.31" height="12.8"/><text class="cls-64" transform="translate(650.52 979.45)"><tspan class="cls-78">1</tspan><tspan x="5.61" y="0">7%</tspan></text><rect class="cls-69" x="520.48" y="981.74" width="64.31" height="12.8"/><text class="cls-64" transform="translate(541.82 979.42)"><tspan class="cls-78">1</tspan><tspan x="5.61" y="0">7%</tspan></text><rect class="cls-68" x="414.05" y="962.27" width="64.31" height="32.03"/><rect class="cls-68" x="414.05" y="867.36" width="64.31" height="51.02"/><text class="cls-64" transform="translate(435.1 637.66)"><tspan class="cls-67">6</tspan><tspan x="6.18" y="0">7%</tspan></text><rect class="cls-68" x="414.05" y="639.47" width="64.31" height="51.02"/><text class="cls-64" transform="translate(762.02 984.99)">8%</text><rect class="cls-69" x="737.88" y="988.59" width="64.31" height="5.94"/><text class="cls-64" transform="translate(870.73 984.82)">8%</text><rect class="cls-69" x="846.58" y="988.42" width="64.31" height="5.94"/><text class="cls-64" transform="translate(980.4 452.44)">8%</text><rect class="cls-69" x="956.26" y="456.04" width="64.31" height="5.94"/><text class="cls-64" transform="translate(1310.75 300.32)">8%</text><rect class="cls-69" x="1286.61" y="303.92" width="64.31" height="5.94"/><text class="cls-64" transform="translate(762.02 1061.67)">8%</text><rect class="cls-69" x="737.88" y="1065.27" width="64.31" height="5.94"/><line class="cls-2" x1="391.09" y1="462.19" x2="1483.31" y2="462.19"/><line class="cls-2" x1="389.59" y1="614.05" x2="1483.31" y2="614.05"/><line class="cls-2" x1="391.09" y1="537.91" x2="1483.31" y2="537.91"/><line class="cls-2" x1="391.09" y1="385.94" x2="1483.31" y2="385.94"/><line class="cls-2" x1="389.59" y1="918.4" x2="1483.31" y2="918.4"/><line class="cls-2" x1="389.59" y1="994.53" x2="1483.31" y2="994.53"/><line class="cls-2" x1="389.59" y1="766.43" x2="1483.31" y2="766.43"/><line class="cls-2" x1="389.59" y1="690.18" x2="1483.31" y2="690.18"/><line class="cls-2" x1="120.14" y1="1071.3" x2="247.47" y2="1071.3"/><line class="cls-2" x1="268.1" y1="1071.3" x2="346.3" y2="1071.3"/><line class="cls-2" x1="389.59" y1="1071.3" x2="1483.31" y2="1071.3"/><text class="cls-64" transform="translate(755.76 809.22)"><tspan class="cls-79">1</tspan><tspan x="5.86" y="0">00%</tspan></text><rect class="cls-69" x="1173.71" y="306.86" width="64.31" height="2.83"/><text class="cls-64" transform="translate(1197.85 304.84)">6%</text><line class="cls-2" x1="391.09" y1="309.69" x2="1483.31" y2="309.69"/><text class="cls-66" transform="translate(1311.07 383.22)">0%</text><text class="cls-66" transform="translate(1420.77 383.22)">0%</text><text class="cls-66" transform="translate(1311.07 459.87)">0%</text><text class="cls-66" transform="translate(1311.07 535.18)">0%</text><text class="cls-66" transform="translate(1311.07 612.4)">0%</text><text class="cls-66" transform="translate(1311.07 687.39)">0%</text><text class="cls-66" transform="translate(1311.07 763.17)">0%</text><text class="cls-66" transform="translate(1311.07 840.26)">0%</text><text class="cls-66" transform="translate(1311.07 916.32)">0%</text><text class="cls-66" transform="translate(1311.07 992.56)">0%</text><text class="cls-66" transform="translate(1420.77 535.18)">0%</text><text class="cls-66" transform="translate(1420.77 612.4)">0%</text><text class="cls-66" transform="translate(1420.77 687.39)">0%</text><text class="cls-66" transform="translate(1420.77 763.17)">0%</text><text class="cls-66" transform="translate(1420.77 840.26)">0%</text><text class="cls-66" transform="translate(1420.77 916.32)">0%</text><text class="cls-66" transform="translate(1420.77 992.56)">0%</text></svg>