<svg id="Layer_2" data-name="Layer 2" xmlns="http://www.w3.org/2000/svg" viewBox="0 0 912.43 317.04"><defs><style>.cls-1{fill:#fff;stroke:#0f0f0f;stroke-miterlimit:10;opacity:0.2;}.cls-2{fill:#aad6a3;}.cls-3{opacity:0.5;}.cls-4{fill:#a8a8a8;}</style></defs><title>year_breakdown</title><line class="cls-1" x1="59.22" y1="10.25" x2="59.22" y2="254.25"/><rect class="cls-2" x="63.77" y="244.95" width="14.17" height="9.65"/><rect class="cls-2" x="133.11" y="244.95" width="14.17" height="9.65"/><rect class="cls-2" x="179.19" y="235.81" width="14.17" height="18.79"/><rect class="cls-2" x="225.41" y="226.65" width="14.17" height="27.95"/><rect class="cls-2" x="248.39" y="208.22" width="14.17" height="46.38"/><rect class="cls-2" x="272.03" y="226.3" width="14.17" height="28.3"/><rect class="cls-2" x="295.78" y="226.3" width="14.17" height="28.3"/><rect class="cls-2" x="319.52" y="226.65" width="14.17" height="27.95"/><rect class="cls-2" x="342.94" y="217.37" width="14.17" height="37.23"/><rect class="cls-2" x="366.36" y="198.41" width="14.17" height="56.18"/><rect class="cls-2" x="389.56" y="170.31" width="14.17" height="84.29"/><rect class="cls-2" x="412.87" y="244.95" width="14.17" height="9.65"/><rect class="cls-2" x="436.51" y="170.31" width="14.17" height="84.29"/><rect class="cls-2" x="460.69" y="236.45" width="14.17" height="18.15"/><rect class="cls-2" x="484" y="226.52" width="14.17" height="28.08"/><rect class="cls-2" x="507.2" y="170.31" width="14.17" height="84.29"/><rect class="cls-2" x="530.62" y="179.46" width="14.17" height="75.14"/><rect class="cls-2" x="554.1" y="142.64" width="14.17" height="111.95"/><rect class="cls-2" x="577.14" y="133.48" width="14.17" height="121.12"/><rect class="cls-2" x="601.04" y="105.28" width="14.17" height="149.32"/><rect class="cls-2" x="625.39" y="67.55" width="14.17" height="187.05"/><rect class="cls-2" x="648.13" y="77.55" width="14.17" height="177.05"/><rect class="cls-2" x="671.54" y="49.57" width="14.17" height="205.03"/><rect class="cls-2" x="694.86" y="20.48" width="14.17" height="234.12"/><rect class="cls-2" x="718.4" y="95.3" width="14.17" height="159.29"/><rect class="cls-2" x="741.52" y="114.22" width="14.17" height="140.38"/><rect class="cls-2" x="765.7" y="49.57" width="14.17" height="205.03"/><rect class="cls-2" x="789.03" y="67.55" width="14.17" height="187.05"/><rect class="cls-2" x="812.78" y="161.07" width="14.17" height="93.52"/><rect class="cls-2" x="836.11" y="189.05" width="14.17" height="65.55"/><rect class="cls-2" x="859.23" y="207.84" width="14.17" height="46.76"/><rect class="cls-2" x="882.56" y="244.95" width="14.17" height="9.65"/><path d="M65.39,278.61v-2.06h9v1.17h-8v.9Z"/><path d="M74.44,272.92v1.3l-1.76-.87-1-.47-1.06-.45a1.47,1.47,0,0,1,.36.93,1.28,1.28,0,0,1-.65,1.18,4.1,4.1,0,0,1-2,.38,4.62,4.62,0,0,1-2.35-.45,1.61,1.61,0,0,1-.71-1.48,1.64,1.64,0,0,1,.71-1.5,4.66,4.66,0,0,1,2.38-.45,8.71,8.71,0,0,1,2.27.28,10.1,10.1,0,0,1,1.15.39q.64.25,1.43.63l1,.47Zm-6.26-.69q-1.79,0-1.79.77t1.76.76a3.66,3.66,0,0,0,1.34-.18.62.62,0,0,0,0-1.17A3.52,3.52,0,0,0,68.18,272.23Z"/><path d="M69.53,267.13a1.4,1.4,0,0,1,.71-.84,4,4,0,0,1,1.58-.23,3.6,3.6,0,0,1,2.07.47,2,2,0,0,1,0,3,3.6,3.6,0,0,1-2.07.47,4,4,0,0,1-1.58-.23,1.4,1.4,0,0,1-.71-.84,1.45,1.45,0,0,1-.69.76,3.28,3.28,0,0,1-1.33.22,4.06,4.06,0,0,1-1-.11,1.74,1.74,0,0,1-.69-.34,1.34,1.34,0,0,1-.4-.58,2.48,2.48,0,0,1-.13-.85,2.46,2.46,0,0,1,.13-.84,1.35,1.35,0,0,1,.4-.58,1.74,1.74,0,0,1,.69-.34,4.06,4.06,0,0,1,1-.11,3.28,3.28,0,0,1,1.33.22A1.45,1.45,0,0,1,69.53,267.13Zm-1.92.22q-1.28,0-1.28.67t1.27.67q1.41,0,1.41-.67T67.61,267.35Zm4.35-.08a6.85,6.85,0,0,0-.81,0,2,2,0,0,0-.55.13.72.72,0,0,0-.31.24.59.59,0,0,0-.1.34.6.6,0,0,0,.4.57,3.48,3.48,0,0,0,1.31.18q1.58,0,1.58-.76T72,267.26Z"/><path d="M68.34,263.77V265H68a3.64,3.64,0,0,1-2.09-.45,1.76,1.76,0,0,1-.61-1.51q0-2,2.21-2a10.35,10.35,0,0,1,4.31,1.49l1.35.72.07,0,.17.08v-2.24h1v4l-.88-.42-1.79-.86L70.1,263q-.69-.31-1.12-.47a4.6,4.6,0,0,0-1.52-.32q-1.12,0-1.12.78t1.39.75h.61Z"/><g class="cls-3"><path d="M22.35,156h1v1l2.89.35v1l-2.89-.36v.77l2.89.35v1l-2.89-.36v.86h-1v-1l-1.42-.17v.84h-1v-1l-2.72-.33v-1l2.72.33v-.76l-2.72-.34v-1l2.72.33v-.95h1v1.07l1.42.18Zm-1.42,1.62v.77l1.42.17v-.77Z"/><path d="M23.27,148.86q3.08,0,3.08,1.9t-3.12,1.9q-3.13,0-3.13-1.9a1.82,1.82,0,0,1,.19-.85,1.5,1.5,0,0,1,.58-.59,3,3,0,0,1,1-.35A7.69,7.69,0,0,1,23.27,148.86Zm0,1.16a5.93,5.93,0,0,0-1.66.16.58.58,0,0,0-.47.56.6.6,0,0,0,.47.57,5.78,5.78,0,0,0,1.63.16,5.71,5.71,0,0,0,1.63-.16.6.6,0,0,0,.47-.57.58.58,0,0,0-.46-.56A5.2,5.2,0,0,0,23.24,150Z"/><path d="M20.19,148.24v-.56H18.07a2.62,2.62,0,0,1-1.46-.3,1.21,1.21,0,0,1-.43-1.06,2.27,2.27,0,0,1,.16-.76h1.18a1,1,0,0,0-.15.47.46.46,0,0,0,.17.41,1,1,0,0,0,.57.12h2.07v-.95h.89v.95h5.17v1.12H21.08v.56Z"/><path d="M17.35,138.78h1.1a1.88,1.88,0,0,0-.23.79,1.28,1.28,0,0,0,.21.74,1.55,1.55,0,0,0,.66.51,4.17,4.17,0,0,0,1.13.3,11.69,11.69,0,0,0,1.61.1q3.35,0,3.35-1.72a1.84,1.84,0,0,0-.19-.72h1.12a2,2,0,0,1,.25,1q0,2.75-4.49,2.75a7.55,7.55,0,0,1-3.61-.67,2.21,2.21,0,0,1-1.18-2.05A2.1,2.1,0,0,1,17.35,138.78Z"/><path d="M23.27,134.23q3.08,0,3.08,1.9T23.22,138q-3.13,0-3.13-1.9a1.82,1.82,0,0,1,.19-.85,1.5,1.5,0,0,1,.58-.59,3,3,0,0,1,1-.35A7.69,7.69,0,0,1,23.27,134.23Zm0,1.16a5.93,5.93,0,0,0-1.66.16.58.58,0,0,0-.47.56.6.6,0,0,0,.47.57,5.78,5.78,0,0,0,1.63.16,5.71,5.71,0,0,0,1.63-.16.6.6,0,0,0,.47-.57.58.58,0,0,0-.46-.56A5.2,5.2,0,0,0,23.24,135.39Z"/><path d="M20.19,133.19v-1.12h.75a1.38,1.38,0,0,1-.85-1.23,1.13,1.13,0,0,1,.85-1.14,1.38,1.38,0,0,1-.85-1.27,1.32,1.32,0,0,1,.34-1,1.35,1.35,0,0,1,1-.34h4.83v1.13h-4a2.17,2.17,0,0,0-.92.13.49.49,0,0,0-.24.48.59.59,0,0,0,.25.55,2,2,0,0,0,.91.14h4v1.16h-4a3.89,3.89,0,0,0-.54,0,1,1,0,0,0-.36.11.47.47,0,0,0-.2.2.68.68,0,0,0-.06.3.6.6,0,0,0,.26.55,1.79,1.79,0,0,0,.9.16h4v1.12Z"/><path d="M28.74,125.88H20.19v-1.12H21a1.92,1.92,0,0,1-.69-.48,1,1,0,0,1-.19-.64,1.15,1.15,0,0,1,.78-1.1,6.29,6.29,0,0,1,2.43-.35,5.52,5.52,0,0,1,2.33.36,1.18,1.18,0,0,1,.73,1.13,1,1,0,0,1-.17.62,1.1,1.1,0,0,1-.23.23,2.76,2.76,0,0,1-.37.23h3.16Zm-5.48-2.53a5.6,5.6,0,0,0-1.68.16.58.58,0,0,0-.47.57q0,.39.49.55a5.48,5.48,0,0,0,1.63.16,5.48,5.48,0,0,0,1.63-.16q.49-.17.49-.55a.6.6,0,0,0-.47-.57A5.28,5.28,0,0,0,23.25,123.35Z"/><path d="M16.3,121.15V120h10v1.12Z"/><path d="M24.21,116.42v-1q2.14.12,2.14,1.76a1.79,1.79,0,0,1-.18.83,1.46,1.46,0,0,1-.56.58,2.9,2.9,0,0,1-1,.34,7.78,7.78,0,0,1-1.39.11,4.89,4.89,0,0,1-2.38-.45,1.49,1.49,0,0,1-.77-1.39q0-1.82,3.21-1.82h.14v2.56q1.95,0,1.95-.77T24.21,116.42Zm-1.58.06a4.09,4.09,0,0,0-1.25.22.51.51,0,0,0-.33.49.5.5,0,0,0,.33.49,4.09,4.09,0,0,0,1.25.22Z"/><path d="M20.19,114.34v-1.12h.75a1.38,1.38,0,0,1-.85-1.23,1.13,1.13,0,0,1,.85-1.14,1.38,1.38,0,0,1-.85-1.27,1.32,1.32,0,0,1,.34-1,1.35,1.35,0,0,1,1-.34h4.83v1.13h-4a2.17,2.17,0,0,0-.92.13.49.49,0,0,0-.24.48.59.59,0,0,0,.25.55,2,2,0,0,0,.91.14h4v1.16h-4a3.89,3.89,0,0,0-.54,0,1,1,0,0,0-.36.11.47.47,0,0,0-.2.2.68.68,0,0,0-.06.3.6.6,0,0,0,.26.55,1.79,1.79,0,0,0,.9.16h4v1.12Z"/><path d="M24.21,104.66v-1q2.14.12,2.14,1.76a1.79,1.79,0,0,1-.18.83,1.46,1.46,0,0,1-.56.58,2.9,2.9,0,0,1-1,.34,7.78,7.78,0,0,1-1.39.11,4.89,4.89,0,0,1-2.38-.45,1.49,1.49,0,0,1-.77-1.39q0-1.82,3.21-1.82h.14v2.56q1.95,0,1.95-.77T24.21,104.66Zm-1.58.06a4.09,4.09,0,0,0-1.25.22.51.51,0,0,0-.33.49.5.5,0,0,0,.33.49,4.09,4.09,0,0,0,1.25.22Z"/><path d="M20.19,102.58v-1.12h.7a1.42,1.42,0,0,1-.8-1.24,1.11,1.11,0,0,1,.58-1.05A3.06,3.06,0,0,1,21.94,99h4.31v1.12H22.2a1.89,1.89,0,0,0-.87.15.53.53,0,0,0-.26.5.71.71,0,0,0,.07.33.51.51,0,0,0,.22.21,1.21,1.21,0,0,0,.39.12,3.87,3.87,0,0,0,.59,0h3.92v1.12Z"/><path d="M18.49,97.59V96.47h1.7v-.61h.89v.61h5.17v1.12H21.08v.62h-.89v-.62Z"/><path d="M20.19,91.58h6.06V92.7h-.78a1.94,1.94,0,0,1,.69.48,1,1,0,0,1,.19.63,1.16,1.16,0,0,1-.77,1.11,6.22,6.22,0,0,1-2.43.35,5.71,5.71,0,0,1-2.32-.35,1.16,1.16,0,0,1-.74-1.11,1.26,1.26,0,0,1,.79-1.11h-.69Zm3,2.53A6,6,0,0,0,24.86,94a.59.59,0,0,0,.47-.57q0-.37-.49-.54a5.7,5.7,0,0,0-1.62-.17,5.73,5.73,0,0,0-1.63.17q-.49.17-.49.54a.6.6,0,0,0,.47.57A5.31,5.31,0,0,0,23.19,94.12Z"/><path d="M20.19,90.31V89.19h.76a2.14,2.14,0,0,1-.67-.57,1.46,1.46,0,0,1-.22-.74h1.17a1.38,1.38,0,0,0,0,.2,1.06,1.06,0,0,0,.31.86,1.71,1.71,0,0,0,1.07.25h3.67v1.12Z"/><path d="M20.19,87.38V86.12l4.23-.89-4.23-1V83l8.55,2.48V86.7l-3-.93Z"/><path d="M17.35,76.27h1.1a1.88,1.88,0,0,0-.23.79,1.28,1.28,0,0,0,.21.74,1.55,1.55,0,0,0,.66.51,4.17,4.17,0,0,0,1.13.3,11.69,11.69,0,0,0,1.61.1q3.35,0,3.35-1.72a1.84,1.84,0,0,0-.19-.72h1.12a2,2,0,0,1,.25,1q0,2.75-4.49,2.75a7.55,7.55,0,0,1-3.61-.67,2.21,2.21,0,0,1-1.18-2.05A2.1,2.1,0,0,1,17.35,76.27Z"/><path d="M20.19,75.31V74.19h4.05A1.61,1.61,0,0,0,25,74a.57.57,0,0,0,.24-.52.61.61,0,0,0-.21-.53,1.44,1.44,0,0,0-.77-.15H20.19V71.7h3.63a5,5,0,0,1,1.7.19,1.62,1.62,0,0,1,.83,1.63,1.71,1.71,0,0,1-.49,1.38,2.63,2.63,0,0,1-1.66.41Z"/><path d="M20.19,70.44V69.32h.76a2.14,2.14,0,0,1-.67-.57A1.46,1.46,0,0,1,20,68h1.17a1.38,1.38,0,0,0,0,.2,1.06,1.06,0,0,0,.31.86,1.71,1.71,0,0,0,1.07.25h3.67v1.12Z"/><path d="M20.19,67.21V66.09h.76a2.14,2.14,0,0,1-.67-.57,1.46,1.46,0,0,1-.22-.74h1.17a1.38,1.38,0,0,0,0,.2,1.06,1.06,0,0,0,.31.86,1.71,1.71,0,0,0,1.07.25h3.67v1.12Z"/><path d="M24.21,61.62v-1q2.14.12,2.14,1.76a1.79,1.79,0,0,1-.18.83,1.46,1.46,0,0,1-.56.58,2.9,2.9,0,0,1-1,.34,7.78,7.78,0,0,1-1.39.11,4.89,4.89,0,0,1-2.38-.45,1.49,1.49,0,0,1-.77-1.39q0-1.82,3.21-1.82h.14V63.1q1.95,0,1.95-.77T24.21,61.62Zm-1.58.06a4.09,4.09,0,0,0-1.25.22.51.51,0,0,0-.33.49.5.5,0,0,0,.33.49,4.09,4.09,0,0,0,1.25.22Z"/><path d="M20.19,59.54V58.43h.7a1.42,1.42,0,0,1-.8-1.24,1.11,1.11,0,0,1,.58-1.05A3.06,3.06,0,0,1,21.94,56h4.31v1.12H22.2a1.89,1.89,0,0,0-.87.15.53.53,0,0,0-.26.5.71.71,0,0,0,.07.33.51.51,0,0,0,.22.21,1.21,1.21,0,0,0,.39.12,3.87,3.87,0,0,0,.59,0h3.92v1.12Z"/><path d="M20.3,52.21h1.14a.7.7,0,0,0-.29.56q0,.93,2,.93t2.13-.92a1,1,0,0,0-.23-.57h1a1.92,1.92,0,0,1,.23.9q0,1.8-3.07,1.8a5,5,0,0,1-2.41-.45,1.48,1.48,0,0,1-.78-1.38A1.92,1.92,0,0,1,20.3,52.21Z"/><path d="M20.19,51.85V50.58l4.23-.89-4.23-1V47.51L28.74,50v1.18l-3-.93Z"/><path d="M17.39,41.27h1.19a1.78,1.78,0,0,0-.4,1,1,1,0,0,0,.34.79,1.2,1.2,0,0,0,.86.3,1.48,1.48,0,0,0,.81-.22,3.6,3.6,0,0,0,.47-.37q.29-.25.69-.66a5.41,5.41,0,0,1,1.31-1A2.87,2.87,0,0,1,24,40.84a2.54,2.54,0,0,1,1.73.59,1.94,1.94,0,0,1,.66,1.52,2.1,2.1,0,0,1-.43,1.33H24.73a2.07,2.07,0,0,0,.47-1.18,1,1,0,0,0-.33-.78A1.34,1.34,0,0,0,24,42a1.8,1.8,0,0,0-.88.22,3.61,3.61,0,0,0-.43.31q-.24.2-.54.5-.46.46-.81.77a3.81,3.81,0,0,1-.62.45,2.69,2.69,0,0,1-1.3.28A2.44,2.44,0,0,1,17.71,44a1.9,1.9,0,0,1-.63-1.49A2.64,2.64,0,0,1,17.39,41.27Z"/><path d="M20.19,40.46V39.2l4.23-.89-4.23-1V36.12l8.55,2.48v1.18l-3-.93Z"/><path d="M20.31,33h1a1.42,1.42,0,0,0-.3.86.73.73,0,0,0,.2.51.66.66,0,0,0,.22.15.65.65,0,0,0,.27.06q.43,0,1-.79a5.7,5.7,0,0,1,.46-.53,2.09,2.09,0,0,1,.4-.32,1.74,1.74,0,0,1,.93-.23,1.8,1.8,0,0,1,1.31.47,1.67,1.67,0,0,1,.49,1.26,2,2,0,0,1-.29,1H25a1.56,1.56,0,0,0,.36-.92.67.67,0,0,0-.76-.77.84.84,0,0,0-.49.14,1.33,1.33,0,0,0-.23.21l-.3.35a4.56,4.56,0,0,1-.93,1,1.7,1.7,0,0,1-.93.25,1.66,1.66,0,0,1-1.2-.45A1.6,1.6,0,0,1,20,34,2.08,2.08,0,0,1,20.31,33Z"/><path d="M18.49,31.66V30.54h1.7v-.61h.89v.61h5.17v1.12H21.08v.62h-.89v-.62Z"/><path d="M24.21,26.8v-1q2.14.12,2.14,1.76a1.79,1.79,0,0,1-.18.83,1.46,1.46,0,0,1-.56.58,2.9,2.9,0,0,1-1,.34,7.78,7.78,0,0,1-1.39.11,4.89,4.89,0,0,1-2.38-.45,1.49,1.49,0,0,1-.77-1.39q0-1.82,3.21-1.82h.14v2.56q1.95,0,1.95-.77T24.21,26.8Zm-1.58.06a4.09,4.09,0,0,0-1.25.22.51.51,0,0,0-.33.49.5.5,0,0,0,.33.49,4.09,4.09,0,0,0,1.25.22Z"/><path d="M20.19,24.72V23.6h.75a1.38,1.38,0,0,1-.85-1.23,1.13,1.13,0,0,1,.85-1.14A1.38,1.38,0,0,1,20.09,20a1.32,1.32,0,0,1,.34-1,1.35,1.35,0,0,1,1-.34h4.83v1.13h-4a2.17,2.17,0,0,0-.92.13.49.49,0,0,0-.24.48.59.59,0,0,0,.25.55,2,2,0,0,0,.91.14h4v1.16h-4a3.89,3.89,0,0,0-.54,0,1,1,0,0,0-.36.11.47.47,0,0,0-.2.2.68.68,0,0,0-.06.3.6.6,0,0,0,.26.55,1.79,1.79,0,0,0,.9.16h4v1.12Z"/><path d="M20.31,15h1a1.42,1.42,0,0,0-.3.86.73.73,0,0,0,.2.51.66.66,0,0,0,.22.15.65.65,0,0,0,.27.06q.43,0,1-.79a5.7,5.7,0,0,1,.46-.53,2.09,2.09,0,0,1,.4-.32,1.74,1.74,0,0,1,.93-.23,1.8,1.8,0,0,1,1.31.47,1.67,1.67,0,0,1,.49,1.26,2,2,0,0,1-.29,1H25a1.56,1.56,0,0,0,.36-.92.67.67,0,0,0-.76-.77.84.84,0,0,0-.49.14,1.33,1.33,0,0,0-.23.21l-.3.35a4.56,4.56,0,0,1-.93,1,1.7,1.7,0,0,1-.93.25,1.66,1.66,0,0,1-1.2-.45A1.6,1.6,0,0,1,20,16,2.08,2.08,0,0,1,20.31,15Z"/></g><path d="M92.38,266.21a1.4,1.4,0,0,1,.84.71,4,4,0,0,1,.23,1.58,3.6,3.6,0,0,1-.47,2.07,2,2,0,0,1-3,0,3.6,3.6,0,0,1-.47-2.07,4,4,0,0,1,.23-1.58,1.4,1.4,0,0,1,.84-.71,1.45,1.45,0,0,1-.76-.69,3.28,3.28,0,0,1-.22-1.33,4.06,4.06,0,0,1,.11-1,1.74,1.74,0,0,1,.34-.69,1.34,1.34,0,0,1,.58-.4,2.48,2.48,0,0,1,.85-.13,2.46,2.46,0,0,1,.84.13,1.35,1.35,0,0,1,.58.4,1.74,1.74,0,0,1,.34.69,4.06,4.06,0,0,1,.11,1,3.28,3.28,0,0,1-.22,1.33A1.45,1.45,0,0,1,92.38,266.21Zm-.13,2.43a6.85,6.85,0,0,0,0-.81,2,2,0,0,0-.13-.55.72.72,0,0,0-.24-.31.59.59,0,0,0-.34-.1.6.6,0,0,0-.57.4,3.48,3.48,0,0,0-.18,1.31q0,1.58.76,1.58T92.24,268.64Zm-.08-4.35q0-1.28-.67-1.28t-.67,1.27q0,1.41.67,1.41T92.16,264.29Z"/><path d="M95.79,264.5H94.63v-.24a4.56,4.56,0,0,1,.1-1,1.83,1.83,0,0,1,.32-.71,1.29,1.29,0,0,1,.56-.41,2.25,2.25,0,0,1,.81-.13,1.76,1.76,0,0,1,1.45.56,2.83,2.83,0,0,1,.46,1.79,3.64,3.64,0,0,1-.21,1.45,1.37,1.37,0,0,1-.79.69,1.46,1.46,0,0,1,.87.67,3.25,3.25,0,0,1,.24,1.45,3.2,3.2,0,0,1-.52,2,1.93,1.93,0,0,1-1.61.64q-1.86,0-1.86-2.14v-.16a.34.34,0,0,1,0-.08h1.14q0,.1,0,.17s0,.09,0,.12a1.22,1.22,0,0,0,.2.74.65.65,0,0,0,.55.28.78.78,0,0,0,.39-.09.67.67,0,0,0,.26-.29,1.72,1.72,0,0,0,.15-.52,5.52,5.52,0,0,0,0-.78,2.17,2.17,0,0,0-.25-1.19.93.93,0,0,0-.83-.36H96l-.18,0v-1.05H96a1.21,1.21,0,0,0,1-.3,1.9,1.9,0,0,0,.25-1.15q0-1.41-.71-1.41t-.7,1.2Z"/><path d="M52.69,253.38a9.53,9.53,0,0,1-.47,3.52,1.72,1.72,0,0,1-3.16,0,14.08,14.08,0,0,1,0-7.16,1.71,1.71,0,0,1,3.1-.13A9,9,0,0,1,52.69,253.38Zm-1.24,0a15.17,15.17,0,0,0-.18-2.84q-.18-.78-.64-.78t-.64.77a22.17,22.17,0,0,0,0,5.57q.18.77.64.77t.63-.77A13.46,13.46,0,0,0,51.44,253.38Z"/><path d="M49.61,202.75h2.88v1h-2l-.29,2.27h.15a2.47,2.47,0,0,1,.95.17,1.8,1.8,0,0,1,.69.5,2.22,2.22,0,0,1,.43.81,3.76,3.76,0,0,1,.15,1.1,3.88,3.88,0,0,1-.66,2.4,2.19,2.19,0,0,1-1.84.86,3.32,3.32,0,0,1-1.44-.37l.3-1.08a2.39,2.39,0,0,0,1,.33,1.08,1.08,0,0,0,.95-.54,2.67,2.67,0,0,0,.35-1.46q0-1.74-1.49-1.74a2.6,2.6,0,0,0-.74.11Z"/><path d="M44.87,156.23h2.06v9H45.77v-8h-.9Z"/><path d="M52.69,160.82a9.53,9.53,0,0,1-.47,3.52,1.72,1.72,0,0,1-3.16,0,14.08,14.08,0,0,1,0-7.16,1.71,1.71,0,0,1,3.1-.13A9,9,0,0,1,52.69,160.82Zm-1.24,0a15.17,15.17,0,0,0-.18-2.84q-.18-.78-.64-.78T50,158a22.17,22.17,0,0,0,0,5.57q.18.77.64.77t.63-.77A13.46,13.46,0,0,0,51.44,160.82Z"/><path d="M45,108.77h2.06v9H45.9v-8H45Z"/><path d="M49.61,108.77h2.88v1h-2l-.29,2.27h.15a2.47,2.47,0,0,1,.95.17,1.8,1.8,0,0,1,.69.5,2.22,2.22,0,0,1,.43.81,3.76,3.76,0,0,1,.15,1.1,3.88,3.88,0,0,1-.66,2.4,2.19,2.19,0,0,1-1.84.86,3.32,3.32,0,0,1-1.44-.37l.3-1.08a2.39,2.39,0,0,0,1,.33,1.08,1.08,0,0,0,.95-.54,2.67,2.67,0,0,0,.35-1.46q0-1.74-1.49-1.74a2.6,2.6,0,0,0-.74.11Z"/><path d="M45,65.33h-1.2V65a3.64,3.64,0,0,1,.45-2.09,1.76,1.76,0,0,1,1.51-.61q2,0,2,2.21a10.35,10.35,0,0,1-1.49,4.31l-.72,1.35,0,.07-.08.17h2.24v1h-4l.42-.88.86-1.79q.46-1,.77-1.67T46.16,66a4.6,4.6,0,0,0,.32-1.52q0-1.12-.78-1.12t-.75,1.39v.61Z"/><path d="M52.69,67a9.53,9.53,0,0,1-.47,3.52,1.72,1.72,0,0,1-3.16,0,9.6,9.6,0,0,1-.46-3.58,9.6,9.6,0,0,1,.46-3.58,1.71,1.71,0,0,1,3.1-.13A9,9,0,0,1,52.69,67Zm-1.24,0a15.17,15.17,0,0,0-.18-2.84q-.18-.78-.64-.78t-.64.77a14.65,14.65,0,0,0-.18,2.78A14.75,14.75,0,0,0,50,69.71q.18.77.64.77t.63-.77A13.46,13.46,0,0,0,51.44,67Z"/><path d="M45,18.94h-1.2v-.36a3.64,3.64,0,0,1,.45-2.09,1.76,1.76,0,0,1,1.51-.61q2,0,2,2.21a10.35,10.35,0,0,1-1.49,4.31l-.72,1.35,0,.07-.08.17h2.24v1h-4l.42-.88.86-1.79q.46-1,.77-1.67t.47-1.12a4.6,4.6,0,0,0,.32-1.52q0-1.12-.78-1.12t-.75,1.39v.61Z"/><path d="M49.61,16h2.88v1h-2l-.29,2.27h.15a2.47,2.47,0,0,1,.95.17A1.8,1.8,0,0,1,52,20a2.22,2.22,0,0,1,.43.81,3.76,3.76,0,0,1,.15,1.1,3.88,3.88,0,0,1-.66,2.4,2.19,2.19,0,0,1-1.84.86,3.32,3.32,0,0,1-1.44-.37L49,23.7A2.39,2.39,0,0,0,50,24a1.08,1.08,0,0,0,.95-.54A2.67,2.67,0,0,0,51.33,22q0-1.74-1.49-1.74a2.6,2.6,0,0,0-.74.11Z"/><path d="M115.49,266.21a1.4,1.4,0,0,1,.84.71,4,4,0,0,1,.23,1.58,3.6,3.6,0,0,1-.47,2.07,2,2,0,0,1-3,0,3.6,3.6,0,0,1-.47-2.07,4,4,0,0,1,.23-1.58,1.4,1.4,0,0,1,.84-.71,1.45,1.45,0,0,1-.76-.69,3.28,3.28,0,0,1-.22-1.33,4.06,4.06,0,0,1,.11-1,1.74,1.74,0,0,1,.34-.69,1.34,1.34,0,0,1,.58-.4,2.48,2.48,0,0,1,.85-.13,2.46,2.46,0,0,1,.84.13,1.35,1.35,0,0,1,.58.4,1.74,1.74,0,0,1,.34.69,4.06,4.06,0,0,1,.11,1,3.28,3.28,0,0,1-.22,1.33A1.45,1.45,0,0,1,115.49,266.21Zm-.13,2.43a6.85,6.85,0,0,0,0-.81,2,2,0,0,0-.13-.55.72.72,0,0,0-.24-.31.59.59,0,0,0-.34-.1.6.6,0,0,0-.57.4,3.48,3.48,0,0,0-.18,1.31q0,1.58.76,1.58T115.36,268.63Zm-.08-4.35q0-1.28-.67-1.28t-.67,1.27q0,1.41.67,1.41T115.28,264.29Z"/><path d="M119.91,262.07H121v5.64h.58v.93H121v2.48h-1.13v-2.48h-2.48v-1Zm0,5.64v-3.8l-1.52,3.8Z"/><path d="M138.6,266.21a1.4,1.4,0,0,1,.84.71,4,4,0,0,1,.23,1.58,3.6,3.6,0,0,1-.47,2.07,2,2,0,0,1-3,0,3.6,3.6,0,0,1-.47-2.07,4,4,0,0,1,.23-1.58,1.4,1.4,0,0,1,.84-.71,1.45,1.45,0,0,1-.76-.69,3.28,3.28,0,0,1-.22-1.33,4.06,4.06,0,0,1,.11-1,1.74,1.74,0,0,1,.34-.69,1.34,1.34,0,0,1,.58-.4,2.48,2.48,0,0,1,.85-.13,2.46,2.46,0,0,1,.84.13,1.35,1.35,0,0,1,.58.4,1.74,1.74,0,0,1,.34.69,4.06,4.06,0,0,1,.11,1,3.28,3.28,0,0,1-.22,1.33A1.45,1.45,0,0,1,138.6,266.21Zm-.13,2.43a6.85,6.85,0,0,0,0-.81,2,2,0,0,0-.13-.55.72.72,0,0,0-.24-.31.59.59,0,0,0-.34-.1.6.6,0,0,0-.57.4,3.48,3.48,0,0,0-.18,1.31q0,1.58.76,1.58T138.47,268.64Zm-.08-4.35q0-1.28-.67-1.28t-.67,1.27q0,1.41.67,1.41T138.38,264.29Z"/><path d="M141.65,262.07h2.88v1h-2l-.29,2.27h.15a2.47,2.47,0,0,1,.95.17,1.8,1.8,0,0,1,.69.5,2.22,2.22,0,0,1,.43.81,3.76,3.76,0,0,1,.15,1.1,3.88,3.88,0,0,1-.66,2.4,2.19,2.19,0,0,1-1.84.86,3.32,3.32,0,0,1-1.44-.37l.3-1.08a2.39,2.39,0,0,0,1,.33,1.08,1.08,0,0,0,.95-.54,2.67,2.67,0,0,0,.35-1.46q0-1.74-1.49-1.74a2.6,2.6,0,0,0-.74.11Z"/><path d="M138.6,266.21a1.4,1.4,0,0,1,.84.71,4,4,0,0,1,.23,1.58,3.6,3.6,0,0,1-.47,2.07,2,2,0,0,1-3,0,3.6,3.6,0,0,1-.47-2.07,4,4,0,0,1,.23-1.58,1.4,1.4,0,0,1,.84-.71,1.45,1.45,0,0,1-.76-.69,3.28,3.28,0,0,1-.22-1.33,4.06,4.06,0,0,1,.11-1,1.74,1.74,0,0,1,.34-.69,1.34,1.34,0,0,1,.58-.4,2.48,2.48,0,0,1,.85-.13,2.46,2.46,0,0,1,.84.13,1.35,1.35,0,0,1,.58.4,1.74,1.74,0,0,1,.34.69,4.06,4.06,0,0,1,.11,1,3.28,3.28,0,0,1-.22,1.33A1.45,1.45,0,0,1,138.6,266.21Zm-.13,2.43a6.85,6.85,0,0,0,0-.81,2,2,0,0,0-.13-.55.72.72,0,0,0-.24-.31.59.59,0,0,0-.34-.1.6.6,0,0,0-.57.4,3.48,3.48,0,0,0-.18,1.31q0,1.58.76,1.58T138.47,268.64Zm-.08-4.35q0-1.28-.67-1.28t-.67,1.27q0,1.41.67,1.41T138.38,264.29Z"/><path d="M141.65,262.07h2.88v1h-2l-.29,2.27h.15a2.47,2.47,0,0,1,.95.17,1.8,1.8,0,0,1,.69.5,2.22,2.22,0,0,1,.43.81,3.76,3.76,0,0,1,.15,1.1,3.88,3.88,0,0,1-.66,2.4,2.19,2.19,0,0,1-1.84.86,3.32,3.32,0,0,1-1.44-.37l.3-1.08a2.39,2.39,0,0,0,1,.33,1.08,1.08,0,0,0,.95-.54,2.67,2.67,0,0,0,.35-1.46q0-1.74-1.49-1.74a2.6,2.6,0,0,0-.74.11Z"/><path d="M161.57,266.21a1.4,1.4,0,0,1,.84.71,4,4,0,0,1,.23,1.58,3.6,3.6,0,0,1-.47,2.07,2,2,0,0,1-3,0,3.6,3.6,0,0,1-.47-2.07,4,4,0,0,1,.23-1.58,1.4,1.4,0,0,1,.84-.71,1.45,1.45,0,0,1-.76-.69,3.28,3.28,0,0,1-.22-1.33,4.06,4.06,0,0,1,.11-1,1.74,1.74,0,0,1,.34-.69,1.34,1.34,0,0,1,.58-.4,2.48,2.48,0,0,1,.85-.13,2.46,2.46,0,0,1,.84.13,1.35,1.35,0,0,1,.58.4,1.74,1.74,0,0,1,.34.69,4.06,4.06,0,0,1,.11,1,3.28,3.28,0,0,1-.22,1.33A1.45,1.45,0,0,1,161.57,266.21Zm-.13,2.43a6.85,6.85,0,0,0,0-.81,2,2,0,0,0-.13-.55A.72.72,0,0,0,161,267a.59.59,0,0,0-.34-.1.6.6,0,0,0-.57.4,3.48,3.48,0,0,0-.18,1.31q0,1.58.76,1.58T161.43,268.64Zm-.08-4.35q0-1.28-.67-1.28t-.67,1.27q0,1.41.67,1.41T161.35,264.29Z"/><path d="M165.54,262.07h1.29l-.85,1.74q-.22.47-.45,1l-.47,1.14a1.6,1.6,0,0,1,1-.4,1.3,1.3,0,0,1,1.17.66,4.45,4.45,0,0,1,.39,2.2,4,4,0,0,1-.45,2.16,2,2,0,0,1-3-.07,4.57,4.57,0,0,1-.46-2.37,9.35,9.35,0,0,1,.36-2.62,13.77,13.77,0,0,1,.55-1.46Q165,263.2,165.54,262.07Zm.89,6.33a6.64,6.64,0,0,0,0-.8,1.9,1.9,0,0,0-.13-.54.7.7,0,0,0-.24-.3.68.68,0,0,0-.7,0,.7.7,0,0,0-.24.3,1.86,1.86,0,0,0-.13.54,6.58,6.58,0,0,0,0,.79q0,1.78.76,1.78T166.43,268.41Z"/><path d="M184.79,266.21a1.4,1.4,0,0,1,.84.71,4,4,0,0,1,.23,1.58,3.6,3.6,0,0,1-.47,2.07,2,2,0,0,1-3,0,3.6,3.6,0,0,1-.47-2.07,4,4,0,0,1,.23-1.58,1.4,1.4,0,0,1,.84-.71,1.45,1.45,0,0,1-.76-.69,3.28,3.28,0,0,1-.22-1.33,4.06,4.06,0,0,1,.11-1,1.74,1.74,0,0,1,.34-.69,1.34,1.34,0,0,1,.58-.4,2.48,2.48,0,0,1,.85-.13,2.46,2.46,0,0,1,.84.13,1.35,1.35,0,0,1,.58.4,1.74,1.74,0,0,1,.34.69,4.06,4.06,0,0,1,.11,1,3.28,3.28,0,0,1-.22,1.33A1.45,1.45,0,0,1,184.79,266.21Zm-.13,2.43a6.85,6.85,0,0,0,0-.81,2,2,0,0,0-.13-.55.72.72,0,0,0-.24-.31.59.59,0,0,0-.34-.1.6.6,0,0,0-.57.4,3.48,3.48,0,0,0-.18,1.31q0,1.58.76,1.58T184.65,268.64Zm-.08-4.35q0-1.28-.67-1.28t-.67,1.27q0,1.41.67,1.41T184.57,264.29Z"/><path d="M186.75,262.07h4l-2.74,9h-1.3l2.51-8h-2.51Z"/><path d="M207.79,266.21a1.4,1.4,0,0,1,.84.71,4,4,0,0,1,.23,1.58,3.6,3.6,0,0,1-.47,2.07,2,2,0,0,1-3,0,3.6,3.6,0,0,1-.47-2.07,4,4,0,0,1,.23-1.58,1.4,1.4,0,0,1,.84-.71,1.45,1.45,0,0,1-.76-.69,3.28,3.28,0,0,1-.22-1.33,4.06,4.06,0,0,1,.11-1,1.74,1.74,0,0,1,.34-.69,1.34,1.34,0,0,1,.58-.4,2.48,2.48,0,0,1,.85-.13,2.46,2.46,0,0,1,.84.13,1.35,1.35,0,0,1,.58.4,1.74,1.74,0,0,1,.34.69,4.06,4.06,0,0,1,.11,1,3.28,3.28,0,0,1-.22,1.33A1.45,1.45,0,0,1,207.79,266.21Zm-.13,2.43a6.85,6.85,0,0,0,0-.81,2,2,0,0,0-.13-.55.72.72,0,0,0-.24-.31.59.59,0,0,0-.34-.1.6.6,0,0,0-.57.4,3.48,3.48,0,0,0-.18,1.31q0,1.58.76,1.58T207.66,268.63Zm-.08-4.35q0-1.28-.67-1.28t-.67,1.27q0,1.41.67,1.41T207.57,264.29Z"/><path d="M212.76,266.21a1.4,1.4,0,0,1,.84.71,4,4,0,0,1,.23,1.58,3.6,3.6,0,0,1-.47,2.07,2,2,0,0,1-3,0,3.6,3.6,0,0,1-.47-2.07,4,4,0,0,1,.23-1.58,1.4,1.4,0,0,1,.84-.71,1.45,1.45,0,0,1-.76-.69,3.28,3.28,0,0,1-.22-1.33,4.06,4.06,0,0,1,.11-1,1.74,1.74,0,0,1,.34-.69,1.34,1.34,0,0,1,.58-.4,2.48,2.48,0,0,1,.85-.13,2.46,2.46,0,0,1,.84.13,1.35,1.35,0,0,1,.58.4,1.74,1.74,0,0,1,.34.69,4.06,4.06,0,0,1,.11,1,3.28,3.28,0,0,1-.22,1.33A1.45,1.45,0,0,1,212.76,266.21Zm-.13,2.43a6.85,6.85,0,0,0,0-.81,2,2,0,0,0-.13-.55.72.72,0,0,0-.24-.31.59.59,0,0,0-.34-.1.6.6,0,0,0-.57.4,3.48,3.48,0,0,0-.18,1.31q0,1.58.76,1.58T212.63,268.63Zm-.08-4.35q0-1.28-.67-1.28t-.67,1.27q0,1.41.67,1.41T212.54,264.29Z"/><path d="M230.9,266.21a1.4,1.4,0,0,1,.84.71,4,4,0,0,1,.23,1.58,3.6,3.6,0,0,1-.47,2.07,2,2,0,0,1-3,0,3.6,3.6,0,0,1-.47-2.07,4,4,0,0,1,.23-1.58,1.4,1.4,0,0,1,.84-.71,1.45,1.45,0,0,1-.76-.69,3.28,3.28,0,0,1-.22-1.33,4.06,4.06,0,0,1,.11-1,1.74,1.74,0,0,1,.34-.69,1.34,1.34,0,0,1,.58-.4A2.48,2.48,0,0,1,230,262a2.46,2.46,0,0,1,.84.13,1.35,1.35,0,0,1,.58.4,1.74,1.74,0,0,1,.34.69,4.06,4.06,0,0,1,.11,1,3.28,3.28,0,0,1-.22,1.33A1.45,1.45,0,0,1,230.9,266.21Zm-.13,2.43a6.85,6.85,0,0,0,0-.81,2,2,0,0,0-.13-.55.72.72,0,0,0-.24-.31.59.59,0,0,0-.34-.1.6.6,0,0,0-.57.4,3.48,3.48,0,0,0-.18,1.31q0,1.58.76,1.58T230.77,268.64Zm-.08-4.35q0-1.28-.67-1.28t-.67,1.27q0,1.41.67,1.41T230.69,264.29Z"/><path d="M235.05,271.12h-1.3l.87-1.76q.23-.48.47-1t.45-1.06a1.47,1.47,0,0,1-.93.36,1.28,1.28,0,0,1-1.18-.65,4.1,4.1,0,0,1-.38-2,4.62,4.62,0,0,1,.45-2.35A1.61,1.61,0,0,1,235,262a1.64,1.64,0,0,1,1.5.71,4.66,4.66,0,0,1,.45,2.38,8.71,8.71,0,0,1-.28,2.27,10.1,10.1,0,0,1-.39,1.15q-.25.64-.63,1.43l-.47,1Zm.69-6.26q0-1.79-.77-1.79t-.76,1.76a3.66,3.66,0,0,0,.18,1.34.62.62,0,0,0,1.17,0A3.52,3.52,0,0,0,235.74,264.86Z"/><path d="M253.07,271.12h-1.3l.87-1.76q.23-.48.47-1t.45-1.06a1.47,1.47,0,0,1-.93.36,1.28,1.28,0,0,1-1.18-.65,4.1,4.1,0,0,1-.38-2,4.62,4.62,0,0,1,.45-2.35A1.61,1.61,0,0,1,253,262a1.64,1.64,0,0,1,1.5.71,4.66,4.66,0,0,1,.45,2.38,8.71,8.71,0,0,1-.28,2.27,10.1,10.1,0,0,1-.39,1.15q-.25.64-.63,1.43l-.47,1Zm.69-6.26q0-1.79-.77-1.79t-.76,1.76a3.66,3.66,0,0,0,.18,1.34.62.62,0,0,0,1.17,0A3.52,3.52,0,0,0,253.75,264.86Z"/><path d="M260,266.67a9.53,9.53,0,0,1-.47,3.52,1.72,1.72,0,0,1-3.16,0,14.08,14.08,0,0,1,0-7.16,1.71,1.71,0,0,1,3.1-.13A9,9,0,0,1,260,266.67Zm-1.24,0a15.17,15.17,0,0,0-.18-2.84q-.18-.78-.64-.78t-.64.77a22.17,22.17,0,0,0,0,5.57q.18.77.64.77t.63-.77A13.46,13.46,0,0,0,258.77,266.67Z"/><path d="M276.94,271.12h-1.3l.87-1.76q.23-.48.47-1t.45-1.06a1.47,1.47,0,0,1-.93.36,1.28,1.28,0,0,1-1.18-.65,4.1,4.1,0,0,1-.38-2,4.62,4.62,0,0,1,.45-2.35,1.61,1.61,0,0,1,1.48-.71,1.64,1.64,0,0,1,1.5.71,4.66,4.66,0,0,1,.45,2.38,8.71,8.71,0,0,1-.28,2.27,10.1,10.1,0,0,1-.39,1.15q-.25.64-.63,1.43l-.47,1Zm.69-6.26q0-1.79-.77-1.79t-.76,1.76a3.66,3.66,0,0,0,.18,1.34.62.62,0,0,0,1.17,0A3.52,3.52,0,0,0,277.63,264.86Z"/><path d="M279.95,262.07H282v9h-1.17v-8h-.9Z"/><path d="M300.45,271.12h-1.3l.87-1.76q.23-.48.47-1t.45-1.06a1.47,1.47,0,0,1-.93.36,1.28,1.28,0,0,1-1.18-.65,4.1,4.1,0,0,1-.38-2,4.62,4.62,0,0,1,.45-2.35,1.61,1.61,0,0,1,1.48-.71,1.64,1.64,0,0,1,1.5.71,4.66,4.66,0,0,1,.45,2.38,8.71,8.71,0,0,1-.28,2.27,10.1,10.1,0,0,1-.39,1.15q-.25.64-.63,1.43l-.47,1Zm.69-6.26q0-1.79-.77-1.79t-.76,1.76a3.66,3.66,0,0,0,.18,1.34.62.62,0,0,0,1.17,0A3.52,3.52,0,0,0,301.13,264.86Z"/><path d="M304.63,265h-1.2v-.36a3.64,3.64,0,0,1,.45-2.09,1.76,1.76,0,0,1,1.51-.61q2,0,2,2.21a10.35,10.35,0,0,1-1.49,4.31l-.72,1.35,0,.07-.08.17h2.24v1h-4l.42-.88.86-1.79q.46-1,.77-1.67t.47-1.12a4.6,4.6,0,0,0,.32-1.52q0-1.12-.78-1.12t-.75,1.39V265Z"/><path d="M324.2,271.12h-1.3l.87-1.76q.23-.48.47-1t.45-1.06a1.47,1.47,0,0,1-.93.36,1.28,1.28,0,0,1-1.18-.65,4.1,4.1,0,0,1-.38-2,4.62,4.62,0,0,1,.45-2.35,1.61,1.61,0,0,1,1.48-.71,1.64,1.64,0,0,1,1.5.71,4.66,4.66,0,0,1,.45,2.38,8.71,8.71,0,0,1-.28,2.27,10.1,10.1,0,0,1-.39,1.15q-.25.64-.63,1.43l-.47,1Zm.69-6.26q0-1.79-.77-1.79t-.76,1.76a3.66,3.66,0,0,0,.18,1.34.62.62,0,0,0,1.17,0A3.52,3.52,0,0,0,324.88,264.86Z"/><path d="M328.43,264.5h-1.16v-.24a4.56,4.56,0,0,1,.1-1,1.83,1.83,0,0,1,.32-.71,1.29,1.29,0,0,1,.56-.41,2.25,2.25,0,0,1,.81-.13,1.76,1.76,0,0,1,1.45.56,2.83,2.83,0,0,1,.46,1.79,3.64,3.64,0,0,1-.21,1.45,1.37,1.37,0,0,1-.79.69,1.46,1.46,0,0,1,.87.67,3.25,3.25,0,0,1,.24,1.45,3.2,3.2,0,0,1-.52,2,1.93,1.93,0,0,1-1.61.64q-1.86,0-1.86-2.14v-.16a.34.34,0,0,1,0-.08h1.14q0,.1,0,.17s0,.09,0,.12a1.22,1.22,0,0,0,.2.74.65.65,0,0,0,.55.28.78.78,0,0,0,.39-.09.67.67,0,0,0,.26-.29,1.72,1.72,0,0,0,.15-.52,5.52,5.52,0,0,0,0-.78,2.17,2.17,0,0,0-.25-1.19.93.93,0,0,0-.83-.36h-.14l-.18,0v-1.05h.17a1.21,1.21,0,0,0,1-.3,1.9,1.9,0,0,0,.25-1.15q0-1.41-.71-1.41t-.7,1.2Z"/><path d="M347.71,271.12h-1.3l.87-1.76q.23-.48.47-1t.45-1.06a1.47,1.47,0,0,1-.93.36,1.28,1.28,0,0,1-1.18-.65,4.1,4.1,0,0,1-.38-2,4.62,4.62,0,0,1,.45-2.35,1.61,1.61,0,0,1,1.48-.71,1.64,1.64,0,0,1,1.5.71,4.66,4.66,0,0,1,.45,2.38,8.71,8.71,0,0,1-.28,2.27,10.1,10.1,0,0,1-.39,1.15q-.25.64-.63,1.43l-.47,1Zm.69-6.26q0-1.79-.77-1.79t-.76,1.76a3.66,3.66,0,0,0,.18,1.34.62.62,0,0,0,1.17,0A3.52,3.52,0,0,0,348.39,264.86Z"/><path d="M352.77,262.07h1.13v5.64h.58v.93h-.58v2.48h-1.13v-2.48h-2.48v-1Zm0,5.64v-3.8l-1.52,3.8Z"/><path d="M371,271.12h-1.3l.87-1.76q.23-.48.47-1t.45-1.06a1.47,1.47,0,0,1-.93.36,1.28,1.28,0,0,1-1.18-.65,4.1,4.1,0,0,1-.38-2,4.62,4.62,0,0,1,.45-2.35A1.61,1.61,0,0,1,371,262a1.64,1.64,0,0,1,1.5.71,4.66,4.66,0,0,1,.45,2.38,8.71,8.71,0,0,1-.28,2.27,10.1,10.1,0,0,1-.39,1.15q-.25.64-.63,1.43l-.47,1Zm.69-6.26q0-1.79-.77-1.79t-.76,1.76a3.66,3.66,0,0,0,.18,1.34.62.62,0,0,0,1.17,0A3.52,3.52,0,0,0,371.72,264.86Z"/><path d="M374.91,262.07h2.88v1h-2l-.29,2.27h.15a2.47,2.47,0,0,1,.95.17,1.8,1.8,0,0,1,.69.5,2.22,2.22,0,0,1,.43.81,3.76,3.76,0,0,1,.15,1.1,3.88,3.88,0,0,1-.66,2.4,2.19,2.19,0,0,1-1.84.86,3.32,3.32,0,0,1-1.44-.37l.3-1.08a2.39,2.39,0,0,0,1,.33,1.08,1.08,0,0,0,.95-.54,2.67,2.67,0,0,0,.35-1.46q0-1.74-1.49-1.74a2.6,2.6,0,0,0-.74.11Z"/><path d="M394.24,271.12h-1.3l.87-1.76q.23-.48.47-1t.45-1.06a1.47,1.47,0,0,1-.93.36,1.28,1.28,0,0,1-1.18-.65,4.1,4.1,0,0,1-.38-2,4.62,4.62,0,0,1,.45-2.35,1.61,1.61,0,0,1,1.48-.71,1.64,1.64,0,0,1,1.5.71,4.66,4.66,0,0,1,.45,2.38,8.71,8.71,0,0,1-.28,2.27,10.1,10.1,0,0,1-.39,1.15q-.25.64-.63,1.43l-.47,1Zm.69-6.26q0-1.79-.77-1.79t-.76,1.76a3.66,3.66,0,0,0,.18,1.34.62.62,0,0,0,1.17,0A3.52,3.52,0,0,0,394.92,264.86Z"/><path d="M399,262.07h1.29l-.85,1.74q-.22.47-.45,1l-.47,1.14a1.6,1.6,0,0,1,1-.4,1.3,1.3,0,0,1,1.17.66,4.45,4.45,0,0,1,.39,2.2,4,4,0,0,1-.45,2.16,2,2,0,0,1-3-.07,4.57,4.57,0,0,1-.46-2.37,9.35,9.35,0,0,1,.36-2.62,13.77,13.77,0,0,1,.55-1.46Q398.47,263.2,399,262.07Zm.89,6.33a6.64,6.64,0,0,0,0-.8,1.9,1.9,0,0,0-.13-.54.7.7,0,0,0-.24-.3.68.68,0,0,0-.7,0,.7.7,0,0,0-.24.3,1.86,1.86,0,0,0-.13.54,6.58,6.58,0,0,0,0,.79q0,1.78.76,1.78T399.91,268.41Z"/><path d="M417.65,271.12h-1.3l.87-1.76q.23-.48.47-1t.45-1.06a1.47,1.47,0,0,1-.93.36A1.28,1.28,0,0,1,416,267a4.1,4.1,0,0,1-.38-2,4.62,4.62,0,0,1,.45-2.35,1.61,1.61,0,0,1,1.48-.71,1.64,1.64,0,0,1,1.5.71,4.66,4.66,0,0,1,.45,2.38,8.71,8.71,0,0,1-.28,2.27,10.1,10.1,0,0,1-.39,1.15q-.25.64-.63,1.43l-.47,1Zm.69-6.26q0-1.79-.77-1.79t-.76,1.76a3.66,3.66,0,0,0,.18,1.34.62.62,0,0,0,1.17,0A3.52,3.52,0,0,0,418.34,264.86Z"/><path d="M420.43,262.07h4l-2.74,9h-1.3l2.51-8h-2.51Z"/><path d="M441.18,271.12h-1.3l.87-1.76q.23-.48.47-1t.45-1.06a1.47,1.47,0,0,1-.93.36,1.28,1.28,0,0,1-1.18-.65,4.1,4.1,0,0,1-.38-2,4.62,4.62,0,0,1,.45-2.35,1.61,1.61,0,0,1,1.48-.71,1.64,1.64,0,0,1,1.5.71,4.66,4.66,0,0,1,.45,2.38,8.71,8.71,0,0,1-.28,2.27,10.1,10.1,0,0,1-.39,1.15q-.25.64-.63,1.43l-.47,1Zm.69-6.26q0-1.79-.77-1.79t-.76,1.76a3.66,3.66,0,0,0,.18,1.34.62.62,0,0,0,1.17,0A3.52,3.52,0,0,0,441.87,264.86Z"/><path d="M447,266.21a1.4,1.4,0,0,1,.84.71,4,4,0,0,1,.23,1.58,3.6,3.6,0,0,1-.47,2.07,2,2,0,0,1-3,0,3.6,3.6,0,0,1-.47-2.07,4,4,0,0,1,.23-1.58,1.4,1.4,0,0,1,.84-.71,1.45,1.45,0,0,1-.76-.69,3.28,3.28,0,0,1-.22-1.33,4.06,4.06,0,0,1,.11-1,1.74,1.74,0,0,1,.34-.69,1.34,1.34,0,0,1,.58-.4,2.48,2.48,0,0,1,.85-.13,2.46,2.46,0,0,1,.84.13,1.35,1.35,0,0,1,.58.4,1.74,1.74,0,0,1,.34.69,4.06,4.06,0,0,1,.11,1,3.28,3.28,0,0,1-.22,1.33A1.45,1.45,0,0,1,447,266.21Zm-.13,2.43a6.85,6.85,0,0,0,0-.81,2,2,0,0,0-.13-.55.72.72,0,0,0-.24-.31.59.59,0,0,0-.34-.1.6.6,0,0,0-.57.4,3.48,3.48,0,0,0-.18,1.31q0,1.58.76,1.58T446.84,268.64Zm-.08-4.35q0-1.28-.67-1.28t-.67,1.27q0,1.41.67,1.41T446.75,264.29Z"/><path d="M465.36,271.12h-1.3l.87-1.76q.23-.48.47-1t.45-1.06a1.47,1.47,0,0,1-.93.36,1.28,1.28,0,0,1-1.18-.65,4.1,4.1,0,0,1-.38-2,4.62,4.62,0,0,1,.45-2.35,1.61,1.61,0,0,1,1.48-.71,1.64,1.64,0,0,1,1.5.71,4.66,4.66,0,0,1,.45,2.38,8.71,8.71,0,0,1-.28,2.27,10.1,10.1,0,0,1-.39,1.15q-.25.64-.63,1.43l-.47,1Zm.69-6.26q0-1.79-.77-1.79t-.76,1.76a3.66,3.66,0,0,0,.18,1.34.62.62,0,0,0,1.17,0A3.52,3.52,0,0,0,466,264.86Z"/><path d="M470.33,271.12H469l.87-1.76q.23-.48.47-1t.45-1.06a1.47,1.47,0,0,1-.93.36,1.28,1.28,0,0,1-1.18-.65,4.1,4.1,0,0,1-.38-2,4.62,4.62,0,0,1,.45-2.35,1.61,1.61,0,0,1,1.48-.71,1.64,1.64,0,0,1,1.5.71,4.66,4.66,0,0,1,.45,2.38,8.71,8.71,0,0,1-.28,2.27,10.1,10.1,0,0,1-.39,1.15q-.25.64-.63,1.43l-.47,1Zm.69-6.26q0-1.79-.77-1.79t-.76,1.76a3.66,3.66,0,0,0,.18,1.34.62.62,0,0,0,1.17,0A3.52,3.52,0,0,0,471,264.86Z"/><path d="M490.65,266.67a9.53,9.53,0,0,1-.47,3.52,1.72,1.72,0,0,1-3.16,0,14.08,14.08,0,0,1,0-7.16,1.71,1.71,0,0,1,3.1-.13A9,9,0,0,1,490.65,266.67Zm-1.24,0a15.17,15.17,0,0,0-.18-2.84q-.18-.78-.64-.78t-.64.77a22.17,22.17,0,0,0,0,5.57q.18.77.64.77t.63-.77A13.46,13.46,0,0,0,489.41,266.67Z"/><path d="M495.62,266.67a9.53,9.53,0,0,1-.47,3.52,1.72,1.72,0,0,1-3.16,0,14.08,14.08,0,0,1,0-7.16,1.71,1.71,0,0,1,3.1-.13A9,9,0,0,1,495.62,266.67Zm-1.24,0a15.17,15.17,0,0,0-.18-2.84q-.18-.78-.64-.78t-.64.77a22.17,22.17,0,0,0,0,5.57q.18.77.64.77t.63-.77A13.46,13.46,0,0,0,494.38,266.67Z"/><path d="M514.1,266.67a9.53,9.53,0,0,1-.47,3.52,1.72,1.72,0,0,1-3.16,0,14.08,14.08,0,0,1,0-7.16,1.71,1.71,0,0,1,3.1-.13A9,9,0,0,1,514.1,266.67Zm-1.24,0a15.17,15.17,0,0,0-.18-2.84q-.18-.78-.64-.78t-.64.77a22.17,22.17,0,0,0,0,5.57q.18.77.64.77t.63-.77A13.46,13.46,0,0,0,512.86,266.67Z"/><path d="M515.11,262.07h2.06v9H516v-8h-.9Z"/><path d="M537.27,266.67a9.53,9.53,0,0,1-.47,3.52,1.72,1.72,0,0,1-3.16,0,14.08,14.08,0,0,1,0-7.16,1.71,1.71,0,0,1,3.1-.13A9,9,0,0,1,537.27,266.67Zm-1.24,0a15.17,15.17,0,0,0-.18-2.84q-.18-.78-.64-.78t-.64.77a22.17,22.17,0,0,0,0,5.57q.18.77.64.77t.63-.77A13.46,13.46,0,0,0,536,266.67Z"/><path d="M539.48,265h-1.2v-.36a3.64,3.64,0,0,1,.45-2.09,1.76,1.76,0,0,1,1.51-.61q2,0,2,2.21a10.35,10.35,0,0,1-1.49,4.31l-.72,1.35,0,.07-.08.17h2.24v1h-4l.42-.88.86-1.79q.46-1,.77-1.67t.47-1.12a4.6,4.6,0,0,0,.32-1.52q0-1.12-.78-1.12t-.75,1.39V265Z"/><path d="M560.75,266.67a9.53,9.53,0,0,1-.47,3.52,1.72,1.72,0,0,1-3.16,0,14.08,14.08,0,0,1,0-7.16,1.71,1.71,0,0,1,3.1-.13A9,9,0,0,1,560.75,266.67Zm-1.24,0a15.17,15.17,0,0,0-.18-2.84q-.18-.78-.64-.78t-.64.77a22.17,22.17,0,0,0,0,5.57q.18.77.64.77t.63-.77A13.46,13.46,0,0,0,559.51,266.67Z"/><path d="M563,264.5h-1.16v-.24a4.56,4.56,0,0,1,.1-1,1.83,1.83,0,0,1,.32-.71,1.29,1.29,0,0,1,.56-.41,2.25,2.25,0,0,1,.81-.13,1.76,1.76,0,0,1,1.45.56,2.83,2.83,0,0,1,.46,1.79,3.64,3.64,0,0,1-.21,1.45,1.37,1.37,0,0,1-.79.69,1.46,1.46,0,0,1,.87.67,3.25,3.25,0,0,1,.24,1.45,3.2,3.2,0,0,1-.52,2,1.93,1.93,0,0,1-1.61.64q-1.86,0-1.86-2.14v-.16a.34.34,0,0,1,0-.08h1.14q0,.1,0,.17s0,.09,0,.12a1.22,1.22,0,0,0,.2.74.65.65,0,0,0,.55.28.78.78,0,0,0,.39-.09.67.67,0,0,0,.26-.29,1.72,1.72,0,0,0,.15-.52,5.52,5.52,0,0,0,0-.78,2.17,2.17,0,0,0-.25-1.19.93.93,0,0,0-.83-.36h-.14l-.18,0v-1.05h.17a1.21,1.21,0,0,0,1-.3,1.9,1.9,0,0,0,.25-1.15q0-1.41-.71-1.41t-.7,1.2Z"/><path d="M583.78,266.67a9.53,9.53,0,0,1-.47,3.52,1.72,1.72,0,0,1-3.16,0,14.08,14.08,0,0,1,0-7.16,1.71,1.71,0,0,1,3.1-.13A9,9,0,0,1,583.78,266.67Zm-1.24,0a15.17,15.17,0,0,0-.18-2.84q-.18-.78-.64-.78t-.64.77a22.17,22.17,0,0,0,0,5.57q.18.77.64.77t.63-.77A13.46,13.46,0,0,0,582.54,266.67Z"/><path d="M587.06,262.07h1.13v5.64h.58v.93h-.58v2.48h-1.13v-2.48h-2.48v-1Zm0,5.64v-3.8l-1.52,3.8Z"/><path d="M607.69,266.67a9.53,9.53,0,0,1-.47,3.52,1.72,1.72,0,0,1-3.16,0,14.08,14.08,0,0,1,0-7.16,1.71,1.71,0,0,1,3.1-.13A9,9,0,0,1,607.69,266.67Zm-1.24,0a15.17,15.17,0,0,0-.18-2.84q-.18-.78-.64-.78t-.64.77a22.17,22.17,0,0,0,0,5.57q.18.77.64.77t.63-.77A13.46,13.46,0,0,0,606.45,266.67Z"/><path d="M609.59,262.07h2.88v1h-2l-.29,2.27h.15a2.47,2.47,0,0,1,.95.17,1.8,1.8,0,0,1,.69.5,2.22,2.22,0,0,1,.43.81,3.76,3.76,0,0,1,.15,1.1,3.88,3.88,0,0,1-.66,2.4,2.19,2.19,0,0,1-1.84.86,3.32,3.32,0,0,1-1.44-.37l.3-1.08a2.39,2.39,0,0,0,1,.33,1.08,1.08,0,0,0,.95-.54,2.67,2.67,0,0,0,.35-1.46q0-1.74-1.49-1.74a2.6,2.6,0,0,0-.74.11Z"/><path d="M632,266.67a9.53,9.53,0,0,1-.47,3.52,1.72,1.72,0,0,1-3.16,0,14.08,14.08,0,0,1,0-7.16,1.71,1.71,0,0,1,3.1-.13A9,9,0,0,1,632,266.67Zm-1.24,0a15.17,15.17,0,0,0-.18-2.84q-.18-.78-.64-.78t-.64.77a22.17,22.17,0,0,0,0,5.57q.18.77.64.77t.63-.77A13.46,13.46,0,0,0,630.8,266.67Z"/><path d="M634.85,262.07h1.29l-.85,1.74q-.22.47-.45,1l-.47,1.14a1.6,1.6,0,0,1,1-.4,1.3,1.3,0,0,1,1.17.66,4.45,4.45,0,0,1,.39,2.2,4,4,0,0,1-.45,2.16,2,2,0,0,1-3-.07,4.57,4.57,0,0,1-.46-2.37,9.35,9.35,0,0,1,.36-2.62,13.77,13.77,0,0,1,.55-1.46Q634.3,263.2,634.85,262.07Zm.89,6.33a6.64,6.64,0,0,0,0-.8,1.9,1.9,0,0,0-.13-.54.7.7,0,0,0-.24-.3.68.68,0,0,0-.7,0,.7.7,0,0,0-.24.3,1.86,1.86,0,0,0-.13.54,6.58,6.58,0,0,0,0,.79q0,1.78.76,1.78T635.74,268.41Z"/><path d="M654.9,266.67a9.53,9.53,0,0,1-.47,3.52,1.72,1.72,0,0,1-3.16,0,14.08,14.08,0,0,1,0-7.16,1.71,1.71,0,0,1,3.1-.13A9,9,0,0,1,654.9,266.67Zm-1.24,0a15.17,15.17,0,0,0-.18-2.84q-.18-.78-.64-.78t-.64.77a22.17,22.17,0,0,0,0,5.57q.18.77.64.77t.63-.77A13.46,13.46,0,0,0,653.66,266.67Z"/><path d="M655.67,262.07h4l-2.74,9h-1.3l2.51-8h-2.51Z"/><path d="M678.19,266.67a9.53,9.53,0,0,1-.47,3.52,1.72,1.72,0,0,1-3.16,0,14.08,14.08,0,0,1,0-7.16,1.71,1.71,0,0,1,3.1-.13A9,9,0,0,1,678.19,266.67Zm-1.24,0a15.17,15.17,0,0,0-.18-2.84q-.18-.78-.64-.78t-.64.77a22.17,22.17,0,0,0,0,5.57q.18.77.64.77t.63-.77A13.46,13.46,0,0,0,676.94,266.67Z"/><path d="M682,266.21a1.4,1.4,0,0,1,.84.71,4,4,0,0,1,.23,1.58,3.6,3.6,0,0,1-.47,2.07,2,2,0,0,1-3,0,3.6,3.6,0,0,1-.47-2.07,4,4,0,0,1,.23-1.58,1.4,1.4,0,0,1,.84-.71,1.45,1.45,0,0,1-.76-.69,3.28,3.28,0,0,1-.22-1.33,4.06,4.06,0,0,1,.11-1,1.74,1.74,0,0,1,.34-.69,1.34,1.34,0,0,1,.58-.4,2.48,2.48,0,0,1,.85-.13,2.46,2.46,0,0,1,.84.13,1.35,1.35,0,0,1,.58.4,1.74,1.74,0,0,1,.34.69,4.06,4.06,0,0,1,.11,1,3.28,3.28,0,0,1-.22,1.33A1.45,1.45,0,0,1,682,266.21Zm-.13,2.43a6.85,6.85,0,0,0,0-.81,2,2,0,0,0-.13-.55.72.72,0,0,0-.24-.31.59.59,0,0,0-.34-.1.6.6,0,0,0-.57.4,3.48,3.48,0,0,0-.18,1.31q0,1.58.76,1.58T681.87,268.64Zm-.08-4.35q0-1.28-.67-1.28t-.67,1.27q0,1.41.67,1.41T681.78,264.29Z"/><path d="M701.51,266.67a9.53,9.53,0,0,1-.47,3.52,1.72,1.72,0,0,1-3.16,0,14.08,14.08,0,0,1,0-7.16,1.71,1.71,0,0,1,3.1-.13A9,9,0,0,1,701.51,266.67Zm-1.24,0a15.17,15.17,0,0,0-.18-2.84q-.18-.78-.64-.78t-.64.77a22.17,22.17,0,0,0,0,5.57q.18.77.64.77t.63-.77A13.46,13.46,0,0,0,700.27,266.67Z"/><path d="M704.5,271.12h-1.3l.87-1.76q.23-.48.47-1t.45-1.06a1.47,1.47,0,0,1-.93.36,1.28,1.28,0,0,1-1.18-.65,4.1,4.1,0,0,1-.38-2,4.62,4.62,0,0,1,.45-2.35,1.61,1.61,0,0,1,1.48-.71,1.64,1.64,0,0,1,1.5.71,4.66,4.66,0,0,1,.45,2.38,8.71,8.71,0,0,1-.28,2.27,10.1,10.1,0,0,1-.39,1.15q-.25.64-.63,1.43l-.47,1Zm.69-6.26q0-1.79-.77-1.79t-.76,1.76a3.66,3.66,0,0,0,.18,1.34.62.62,0,0,0,1.17,0A3.52,3.52,0,0,0,705.19,264.86Z"/><path d="M721.9,262.07H724v9h-1.17v-8h-.9Z"/><path d="M729.71,266.67a9.53,9.53,0,0,1-.47,3.52,1.72,1.72,0,0,1-3.16,0,14.08,14.08,0,0,1,0-7.16,1.71,1.71,0,0,1,3.1-.13A9,9,0,0,1,729.71,266.67Zm-1.24,0a15.17,15.17,0,0,0-.18-2.84q-.18-.78-.64-.78t-.64.77a22.17,22.17,0,0,0,0,5.57q.18.77.64.77t.63-.77A13.46,13.46,0,0,0,728.47,266.67Z"/><path d="M745.23,262.07h2.06v9h-1.17v-8h-.9Z"/><path d="M749.17,262.07h2.06v9h-1.17v-8h-.9Z"/><path d="M769.25,262.07h2.06v9h-1.17v-8h-.9Z"/><path d="M774.19,265H773v-.36a3.64,3.64,0,0,1,.45-2.09,1.76,1.76,0,0,1,1.51-.61q2,0,2,2.21a10.35,10.35,0,0,1-1.49,4.31l-.72,1.35,0,.07-.08.17h2.24v1h-4l.42-.88.86-1.79q.46-1,.77-1.67t.47-1.12a4.6,4.6,0,0,0,.32-1.52q0-1.12-.78-1.12t-.75,1.39V265Z"/><path d="M792.58,262.07h2.06v9h-1.17v-8h-.9Z"/><path d="M797.56,264.5H796.4v-.24a4.56,4.56,0,0,1,.1-1,1.83,1.83,0,0,1,.32-.71,1.29,1.29,0,0,1,.56-.41,2.25,2.25,0,0,1,.81-.13,1.76,1.76,0,0,1,1.45.56,2.83,2.83,0,0,1,.46,1.79,3.64,3.64,0,0,1-.21,1.45,1.37,1.37,0,0,1-.79.69,1.46,1.46,0,0,1,.87.67,3.25,3.25,0,0,1,.24,1.45,3.2,3.2,0,0,1-.52,2,1.93,1.93,0,0,1-1.61.64q-1.86,0-1.86-2.14v-.16a.34.34,0,0,1,0-.08h1.14q0,.1,0,.17s0,.09,0,.12a1.22,1.22,0,0,0,.2.74.65.65,0,0,0,.55.28.78.78,0,0,0,.39-.09.67.67,0,0,0,.26-.29,1.72,1.72,0,0,0,.15-.52,5.52,5.52,0,0,0,0-.78,2.17,2.17,0,0,0-.25-1.19.93.93,0,0,0-.83-.36h-.14l-.18,0v-1.05h.17a1.21,1.21,0,0,0,1-.3,1.9,1.9,0,0,0,.25-1.15q0-1.41-.71-1.41t-.7,1.2Z"/><path d="M816.3,262.07h2.06v9H817.2v-8h-.9Z"/><path d="M822.36,262.07h1.13v5.64h.58v.93h-.58v2.48h-1.13v-2.48h-2.48v-1Zm0,5.64v-3.8l-1.52,3.8Z"/><path d="M839.67,262.07h2.06v9h-1.17v-8h-.9Z"/><path d="M844.28,262.07h2.88v1h-2l-.29,2.27h.15a2.47,2.47,0,0,1,.95.17,1.8,1.8,0,0,1,.69.5,2.22,2.22,0,0,1,.43.81,3.76,3.76,0,0,1,.15,1.1,3.88,3.88,0,0,1-.66,2.4,2.19,2.19,0,0,1-1.84.86,3.32,3.32,0,0,1-1.44-.37l.3-1.08a2.39,2.39,0,0,0,1,.33,1.08,1.08,0,0,0,.95-.54,2.67,2.67,0,0,0,.35-1.46q0-1.74-1.49-1.74a2.6,2.6,0,0,0-.74.11Z"/><path d="M862.79,262.07h2.06v9h-1.17v-8h-.9Z"/><path d="M868.32,262.07h1.29l-.85,1.74q-.22.47-.45,1l-.47,1.14a1.6,1.6,0,0,1,1-.4,1.3,1.3,0,0,1,1.17.66,4.45,4.45,0,0,1,.39,2.2,4,4,0,0,1-.45,2.16,2,2,0,0,1-3-.07,4.57,4.57,0,0,1-.46-2.37,9.35,9.35,0,0,1,.36-2.62,13.77,13.77,0,0,1,.55-1.46Q867.77,263.2,868.32,262.07Zm.89,6.33a6.64,6.64,0,0,0,0-.8,1.9,1.9,0,0,0-.13-.54.7.7,0,0,0-.24-.3.68.68,0,0,0-.7,0,.7.7,0,0,0-.24.3,1.86,1.86,0,0,0-.13.54,6.58,6.58,0,0,0,0,.79q0,1.78.76,1.78T869.21,268.41Z"/><path d="M886.15,262.07h2.06v9H887v-8h-.9Z"/><path d="M889.83,262.07h4l-2.74,9h-1.3l2.51-8h-2.51Z"/><path class="cls-4" d="M857.35,296.5l-.36,3.07c0,.11,0,.21,0,.32s0,.2,0,.29q0,.38.3.38t.77-.7a3.57,3.57,0,0,0,.35-1.55,3.08,3.08,0,0,0-.83-2.22,2.78,2.78,0,0,0-2.11-.87,2.84,2.84,0,0,0-2.25,1.05,3.83,3.83,0,0,0-.91,2.6,4.29,4.29,0,0,0,.43,1.89,3.28,3.28,0,0,0,1.19,1.33,3.15,3.15,0,0,0,1.69.43,4.64,4.64,0,0,0,2.34-.68l.13-.08.42,1-.11.06a5.75,5.75,0,0,1-2.78.73,4.16,4.16,0,0,1-4-2.51,5.28,5.28,0,0,1-.45-2.13,4.65,4.65,0,0,1,1.24-3.3,4,4,0,0,1,3-1.34,3.69,3.69,0,0,1,2.76,1.15,3.92,3.92,0,0,1,1.12,2.84,4.09,4.09,0,0,1-.64,2.3,1.84,1.84,0,0,1-1.53,1,1,1,0,0,1-1-.71,1.4,1.4,0,0,1-1.16.73,1.43,1.43,0,0,1-1.21-.69,3,3,0,0,1-.47-1.76,3.09,3.09,0,0,1,.57-1.9,1.72,1.72,0,0,1,1.42-.77.93.93,0,0,1,.52.13,1.75,1.75,0,0,1,.49.46l.08-.47Zm-1.22,2.19a2,2,0,0,0-.21-1,.62.62,0,0,0-.54-.37.84.84,0,0,0-.72.5,2.88,2.88,0,0,0-.09,2.29q.19.41.49.41t.75-.56A2.57,2.57,0,0,0,856.14,298.69Z"/><path class="cls-4" d="M863.39,294.54v1.19a1.78,1.78,0,0,0-1-.4,1,1,0,0,0-.79.34,1.2,1.2,0,0,0-.3.86,1.48,1.48,0,0,0,.22.81,3.63,3.63,0,0,0,.37.47q.25.29.66.69a5.41,5.41,0,0,1,1,1.31,2.87,2.87,0,0,1,.27,1.31,2.54,2.54,0,0,1-.59,1.73,1.94,1.94,0,0,1-1.52.66,2.1,2.1,0,0,1-1.33-.43v-1.21a2.07,2.07,0,0,0,1.18.47,1,1,0,0,0,.78-.33,1.34,1.34,0,0,0,.28-.9,1.8,1.8,0,0,0-.22-.88,3.61,3.61,0,0,0-.31-.43q-.2-.24-.5-.54-.46-.46-.77-.81a3.81,3.81,0,0,1-.45-.62,2.69,2.69,0,0,1-.28-1.3,2.44,2.44,0,0,1,.55-1.68,1.9,1.9,0,0,1,1.49-.63A2.64,2.64,0,0,1,863.39,294.54Z"/><path class="cls-4" d="M868.36,300.42q0,3.08-1.9,3.08t-1.9-3.12q0-3.13,1.9-3.13a1.83,1.83,0,0,1,.85.19,1.5,1.5,0,0,1,.59.58,3,3,0,0,1,.35,1A7.7,7.7,0,0,1,868.36,300.42Zm-1.16,0a5.93,5.93,0,0,0-.16-1.66.58.58,0,0,0-.56-.47.6.6,0,0,0-.57.47,5.78,5.78,0,0,0-.16,1.63,5.71,5.71,0,0,0,.16,1.63.6.6,0,0,0,.57.47A.58.58,0,0,0,867,302,5.2,5.2,0,0,0,867.2,300.39Z"/><path class="cls-4" d="M869.53,295.64h1.12v1.7h.61v.89h-.61v5.17h-1.12v-5.17h-.62v-.89h.62Z"/><path class="cls-4" d="M875.29,294.54v1.19a1.78,1.78,0,0,0-1-.4,1,1,0,0,0-.79.34,1.2,1.2,0,0,0-.3.86,1.48,1.48,0,0,0,.22.81,3.63,3.63,0,0,0,.37.47q.25.29.66.69a5.41,5.41,0,0,1,1,1.31,2.87,2.87,0,0,1,.27,1.31,2.54,2.54,0,0,1-.59,1.73,1.94,1.94,0,0,1-1.52.66,2.1,2.1,0,0,1-1.33-.43v-1.21a2.07,2.07,0,0,0,1.18.47,1,1,0,0,0,.78-.33,1.34,1.34,0,0,0,.28-.9,1.8,1.8,0,0,0-.22-.88,3.61,3.61,0,0,0-.31-.43q-.2-.24-.5-.54-.46-.46-.77-.81a3.81,3.81,0,0,1-.45-.62,2.69,2.69,0,0,1-.28-1.3,2.44,2.44,0,0,1,.55-1.68,1.9,1.9,0,0,1,1.49-.63A2.64,2.64,0,0,1,875.29,294.54Z"/><path class="cls-4" d="M877.21,294.76a.76.76,0,0,1,.75.76.76.76,0,1,1-1.52,0,.72.72,0,0,1,.22-.53A.78.78,0,0,1,877.21,294.76Zm-.53,2.58h1.13v6.06h-1.12Z"/><path class="cls-4" d="M882.53,293.44v10h-1.12v-.78a1.94,1.94,0,0,1-.48.69,1,1,0,0,1-.64.19,1.16,1.16,0,0,1-1.1-.77,6.2,6.2,0,0,1-.35-2.42,9.33,9.33,0,0,1,.09-1.38,3.44,3.44,0,0,1,.27-1,1.29,1.29,0,0,1,.46-.55,1.22,1.22,0,0,1,.67-.18,1,1,0,0,1,.61.18,1.22,1.22,0,0,1,.24.23,2.31,2.31,0,0,1,.24.38v-4.58Zm-2.53,6.9a6,6,0,0,0,.16,1.67.59.59,0,0,0,.57.47q.38,0,.54-.49a7.86,7.86,0,0,0,0-3.25q-.17-.49-.54-.49a.6.6,0,0,0-.57.47A5.31,5.31,0,0,0,880,300.34Z"/><path class="cls-4" d="M886.15,301.35h1q-.12,2.14-1.76,2.14a1.78,1.78,0,0,1-.83-.18,1.46,1.46,0,0,1-.58-.56,2.9,2.9,0,0,1-.34-1,7.77,7.77,0,0,1-.11-1.39A4.89,4.89,0,0,1,884,298a1.49,1.49,0,0,1,1.38-.77q1.82,0,1.82,3.21v.14h-2.56q0,1.95.77,1.95T886.15,301.35Zm-.06-1.58a4.09,4.09,0,0,0-.22-1.25.51.51,0,0,0-.49-.33.5.5,0,0,0-.49.33,4.09,4.09,0,0,0-.22,1.25Z"/><path class="cls-4" d="M888.23,297.33h1.12v.76a2.14,2.14,0,0,1,.57-.67,1.46,1.46,0,0,1,.74-.22v1.17l-.2,0a1.06,1.06,0,0,0-.86.31,1.71,1.71,0,0,0-.25,1.07v3.67h-1.12Z"/><path class="cls-4" d="M892,294.76a.76.76,0,0,1,.75.76.76.76,0,1,1-1.52,0,.72.72,0,0,1,.22-.53A.78.78,0,0,1,892,294.76Zm-.53,2.58h1.13v6.06h-1.12Z"/><path class="cls-4" d="M896.18,297.46v1a1.42,1.42,0,0,0-.86-.3.74.74,0,0,0-.28.05.72.72,0,0,0-.22.14.67.67,0,0,0-.21.48q0,.43.79,1a5.7,5.7,0,0,1,.53.46,2.09,2.09,0,0,1,.32.4,1.74,1.74,0,0,1,.23.93A1.8,1.8,0,0,1,896,303a1.67,1.67,0,0,1-1.26.49,2,2,0,0,1-1-.29v-1.08a1.56,1.56,0,0,0,.92.36.67.67,0,0,0,.77-.76.84.84,0,0,0-.14-.49,1.33,1.33,0,0,0-.21-.23l-.35-.3a4.56,4.56,0,0,1-1-.93,1.7,1.7,0,0,1-.25-.93,1.66,1.66,0,0,1,.45-1.2,1.6,1.6,0,0,1,1.19-.46A2.08,2.08,0,0,1,896.18,297.46Z"/></svg>