<svg id="Layer_2" data-name="Layer 2" xmlns="http://www.w3.org/2000/svg" viewBox="0 0 881.04 369.16"><defs><style>.cls-1{fill:#fff;stroke:#0f0f0f;stroke-miterlimit:10;opacity:0.2;}.cls-2{fill:#aad6a3;}.cls-29,.cls-3,.cls-5{font-size:12px;}.cls-26,.cls-29,.cls-3,.cls-5{font-family:Futura-CondensedMedium, Futura;}.cls-4{letter-spacing:-0.06em;}.cls-5{opacity:0.5;}.cls-6{letter-spacing:0em;}.cls-7{letter-spacing:0em;}.cls-8{letter-spacing:0.03em;}.cls-9{letter-spacing:0em;}.cls-10{letter-spacing:0em;}.cls-11{letter-spacing:0.01em;}.cls-12{letter-spacing:0em;}.cls-13{letter-spacing:0em;}.cls-14{letter-spacing:-0.05em;}.cls-15{letter-spacing:-0.06em;}.cls-16{letter-spacing:-0.02em;}.cls-17{letter-spacing:-0.04em;}.cls-18{letter-spacing:-0.02em;}.cls-19{letter-spacing:-0.04em;}.cls-20{letter-spacing:-0.02em;}.cls-21{letter-spacing:-0.09em;}.cls-22{letter-spacing:-0.06em;}.cls-23{letter-spacing:-0.06em;}.cls-24{letter-spacing:-0.06em;}.cls-25{letter-spacing:-0.07em;}.cls-26{font-size:36px;}.cls-27{letter-spacing:-0.03em;}.cls-28{letter-spacing:-0.01em;}.cls-29{fill:#a8a8a8;}.cls-30{letter-spacing:0.01em;}</style></defs><title>year_breakdown</title><line class="cls-1" x1="43.52" y1="72.62" x2="43.52" y2="316.62"/><rect class="cls-2" x="48.07" y="307.32" width="14.17" height="9.65"/><rect class="cls-2" x="117.41" y="307.32" width="14.17" height="9.65"/><rect class="cls-2" x="163.49" y="298.18" width="14.17" height="18.79"/><rect class="cls-2" x="209.71" y="289.02" width="14.17" height="27.95"/><rect class="cls-2" x="232.7" y="270.59" width="14.17" height="46.38"/><rect class="cls-2" x="256.33" y="288.67" width="14.17" height="28.3"/><rect class="cls-2" x="280.08" y="288.67" width="14.17" height="28.3"/><rect class="cls-2" x="303.82" y="289.02" width="14.17" height="27.95"/><rect class="cls-2" x="327.24" y="279.74" width="14.17" height="37.23"/><rect class="cls-2" x="350.66" y="260.79" width="14.17" height="56.18"/><rect class="cls-2" x="373.86" y="232.68" width="14.17" height="84.29"/><rect class="cls-2" x="397.17" y="307.32" width="14.17" height="9.65"/><rect class="cls-2" x="420.81" y="232.68" width="14.17" height="84.29"/><rect class="cls-2" x="444.99" y="298.82" width="14.17" height="18.15"/><rect class="cls-2" x="468.3" y="288.89" width="14.17" height="28.08"/><rect class="cls-2" x="491.5" y="232.68" width="14.17" height="84.29"/><rect class="cls-2" x="514.92" y="241.83" width="14.17" height="75.14"/><rect class="cls-2" x="538.41" y="205.02" width="14.17" height="111.95"/><rect class="cls-2" x="561.44" y="195.85" width="14.17" height="121.12"/><rect class="cls-2" x="585.34" y="167.65" width="14.17" height="149.32"/><rect class="cls-2" x="609.69" y="129.92" width="14.17" height="187.05"/><rect class="cls-2" x="632.43" y="139.92" width="14.17" height="177.05"/><rect class="cls-2" x="655.84" y="111.94" width="14.17" height="205.03"/><rect class="cls-2" x="679.16" y="82.85" width="14.17" height="234.12"/><rect class="cls-2" x="702.7" y="157.68" width="14.17" height="159.29"/><rect class="cls-2" x="725.83" y="176.59" width="14.17" height="140.38"/><rect class="cls-2" x="750" y="111.94" width="14.17" height="205.03"/><rect class="cls-2" x="773.33" y="129.92" width="14.17" height="187.05"/><rect class="cls-2" x="797.08" y="223.44" width="14.17" height="93.52"/><rect class="cls-2" x="820.41" y="251.42" width="14.17" height="65.55"/><rect class="cls-2" x="843.53" y="270.21" width="14.17" height="46.76"/><rect class="cls-2" x="866.86" y="307.32" width="14.17" height="9.65"/><text class="cls-3" transform="translate(58.74 342.06) rotate(-90)"><tspan class="cls-4">1</tspan><tspan x="4.21" y="0">982</tspan></text><text class="cls-5" transform="translate(10.55 222.9) rotate(-90)"># of Co<tspan class="cls-6" x="26.7" y="0">m</tspan><tspan x="34.01" y="0">plemen</tspan><tspan class="cls-7" x="62.17" y="0">t</tspan><tspan x="64.85" y="0">a</tspan><tspan class="cls-8" x="69.58" y="0">r</tspan><tspan x="73.1" y="0">y Cu</tspan><tspan class="cls-9" x="89.46" y="0">r</tspan><tspan class="cls-10" x="92.68" y="0">r</tspan><tspan x="95.92" y="0">ency S</tspan><tspan class="cls-11" x="120.02" y="0">y</tspan><tspan class="cls-12" x="124.51" y="0">s</tspan><tspan class="cls-13" x="128.1" y="0">t</tspan><tspan x="130.75" y="0">ems</tspan></text><text class="cls-3" transform="translate(73.3 333.49)">83</text><text class="cls-3" transform="translate(32.46 320.21)">0</text><text class="cls-3" transform="translate(32.46 274.17)">5</text><text class="cls-3" transform="translate(28.1 227.64)"><tspan class="cls-14">1</tspan><tspan x="4.36" y="0">0</tspan></text><text class="cls-3" transform="translate(28.23 180.19)"><tspan class="cls-15">1</tspan><tspan x="4.22" y="0">5</tspan></text><text class="cls-3" transform="translate(27.49 133.8)">20</text><text class="cls-3" transform="translate(27.49 87.42)">25</text><text class="cls-3" transform="translate(96.42 333.49)"><tspan class="cls-13">8</tspan><tspan x="4.96" y="0">4</tspan></text><text class="cls-3" transform="translate(119.53 333.49)">85</text><text class="cls-3" transform="translate(119.53 333.49)">85</text><text class="cls-3" transform="translate(142.5 333.49)">86</text><text class="cls-3" transform="translate(165.72 333.49)"><tspan class="cls-16">8</tspan><tspan x="4.75" y="0">7</tspan></text><text class="cls-3" transform="translate(188.72 333.49)">88</text><text class="cls-3" transform="translate(211.83 333.49)">89</text><text class="cls-3" transform="translate(234.81 333.49)">90</text><text class="cls-3" transform="translate(258.69 333.49)"><tspan class="cls-17">9</tspan><tspan x="4.49" y="0">1</tspan></text><text class="cls-3" transform="translate(282.2 333.49)">92</text><text class="cls-3" transform="translate(305.94 333.49)">93</text><text class="cls-3" transform="translate(329.45 333.49)"><tspan class="cls-18">9</tspan><tspan x="4.79" y="0">4</tspan></text><text class="cls-3" transform="translate(352.78 333.49)">95</text><text class="cls-3" transform="translate(375.98 333.49)">96</text><text class="cls-3" transform="translate(399.4 333.49)"><tspan class="cls-16">9</tspan><tspan x="4.75" y="0">7</tspan></text><text class="cls-3" transform="translate(422.93 333.49)">98</text><text class="cls-3" transform="translate(447.11 333.49)">99</text><text class="cls-3" transform="translate(470.42 333.49)">00</text><text class="cls-3" transform="translate(493.87 333.49)"><tspan class="cls-19">0</tspan><tspan x="4.46" y="0">1</tspan></text><text class="cls-3" transform="translate(517.04 333.49)">02</text><text class="cls-3" transform="translate(540.52 333.49)">03</text><text class="cls-3" transform="translate(563.55 333.49)"><tspan class="cls-7">0</tspan><tspan x="4.98" y="0">4</tspan></text><text class="cls-3" transform="translate(587.46 333.49)">05</text><text class="cls-3" transform="translate(611.81 333.49)">06</text><text class="cls-3" transform="translate(634.67 333.49)"><tspan class="cls-20">0</tspan><tspan x="4.72" y="0">7</tspan></text><text class="cls-3" transform="translate(657.96 333.49)">08</text><text class="cls-3" transform="translate(681.28 333.49)">09</text><text class="cls-3" transform="translate(705.13 333.49)"><tspan class="cls-14">1</tspan><tspan x="4.36" y="0">0</tspan></text><text class="cls-3" transform="translate(728.46 333.49)"><tspan class="cls-21">1</tspan><tspan x="3.94" y="0">1</tspan></text><text class="cls-3" transform="translate(752.48 333.49)"><tspan class="cls-22">1</tspan><tspan x="4.25" y="0">2</tspan></text><text class="cls-3" transform="translate(775.81 333.49)"><tspan class="cls-23">1</tspan><tspan x="4.24" y="0">3</tspan></text><text class="cls-3" transform="translate(799.53 333.49)"><tspan class="cls-24">1</tspan><tspan x="4.31" y="0">4</tspan></text><text class="cls-3" transform="translate(822.9 333.49)"><tspan class="cls-15">1</tspan><tspan x="4.22" y="0">5</tspan></text><text class="cls-3" transform="translate(846.02 333.49)"><tspan class="cls-15">1</tspan><tspan x="4.22" y="0">6</tspan></text><text class="cls-3" transform="translate(869.38 333.49)"><tspan class="cls-25">1</tspan><tspan x="4.18" y="0">7</tspan></text><text class="cls-26" transform="translate(247.44 31.66)"><tspan class="cls-27">Y</tspan><tspan x="12.71" y="0">ear of e</tspan><tspan class="cls-12" x="100.67" y="0">s</tspan><tspan class="cls-7" x="111.43" y="0">t</tspan><tspan x="119.46" y="0">ablishment b</tspan><tspan class="cls-10" x="266.84" y="0">r</tspan><tspan x="276.56" y="0">eakd</tspan><tspan class="cls-28" x="332.31" y="0">o</tspan><tspan x="345.94" y="0">wn </tspan></text><text class="cls-29" transform="translate(835.08 365.77)">@S<tspan class="cls-13" x="13.37" y="0">o</tspan><tspan class="cls-30" x="17.98" y="0">t</tspan><tspan x="20.79" y="0">Side</tspan><tspan class="cls-9" x="36.81" y="0">r</tspan><tspan x="40.04" y="0">is</tspan></text></svg>