<svg id="Layer_2" data-name="Layer 2" xmlns="http://www.w3.org/2000/svg" viewBox="0 0 425.26 80.44"><title>year_breakdown_TITLE</title><path d="M19.48,23.83h3.87l1.79,5.91q.09.26.18.58t.21.69a42.23,42.23,0,0,1,1.37,5.38q.32-2.18.53-3L28,30.91,28.2,30l1.51-6.13h3.81L28.8,39.3V51H25.14V39.3Z"/><path d="M41.19,44.84h3.13Q44,51.25,39,51.25a5.36,5.36,0,0,1-2.5-.54A4.38,4.38,0,0,1,34.81,49a8.71,8.71,0,0,1-1-2.9,23.33,23.33,0,0,1-.33-4.18q0-4.82,1.34-7.14A4.48,4.48,0,0,1,39,32.48q5.47,0,5.47,9.63v.42H36.76q0,5.84,2.32,5.84Q41.19,48.37,41.19,44.84ZM41,40.11a12.27,12.27,0,0,0-.65-3.76,1.53,1.53,0,0,0-1.48-1,1.51,1.51,0,0,0-1.48,1,12.27,12.27,0,0,0-.65,3.76Z"/><path d="M57.82,32.78V51H54.46V48.63A5.83,5.83,0,0,1,53,50.69a3,3,0,0,1-1.9.56,3.48,3.48,0,0,1-3.32-2.32,18.67,18.67,0,0,1-1.05-7.28,17.14,17.14,0,0,1,1.05-7,3.48,3.48,0,0,1,3.32-2.22,3.77,3.77,0,0,1,3.34,2.36V32.78Zm-7.59,9a18,18,0,0,0,.47,5,1.78,1.78,0,0,0,1.72,1.42q1.13,0,1.63-1.48a17.1,17.1,0,0,0,.51-4.87A17.19,17.19,0,0,0,54.06,37q-.51-1.48-1.63-1.48a1.79,1.79,0,0,0-1.71,1.41A15.94,15.94,0,0,0,50.23,41.79Z"/><path d="M61.64,32.78H65V35a6.42,6.42,0,0,1,1.71-2,4.38,4.38,0,0,1,2.23-.67v3.52a4.13,4.13,0,0,0-.6-.05,3.19,3.19,0,0,0-2.58.93,5.12,5.12,0,0,0-.76,3.2V51H61.64Z"/><path d="M89.44,42q0,9.23-5.71,9.23T78,41.88q0-9.4,5.7-9.4a5.47,5.47,0,0,1,2.56.56,4.49,4.49,0,0,1,1.78,1.74,9.13,9.13,0,0,1,1,3A23.07,23.07,0,0,1,89.44,42ZM86,41.93a17.79,17.79,0,0,0-.47-5,1.75,1.75,0,0,0-1.69-1.42,1.79,1.79,0,0,0-1.71,1.41,17.34,17.34,0,0,0-.47,4.9,17.13,17.13,0,0,0,.47,4.89,1.79,1.79,0,0,0,1.71,1.41,1.73,1.73,0,0,0,1.67-1.39A15.6,15.6,0,0,0,86,41.93Z"/><path d="M91.29,32.78H93V26.43A7.86,7.86,0,0,1,93.89,22a3.64,3.64,0,0,1,3.18-1.28,6.8,6.8,0,0,1,2.29.47v3.55a3.07,3.07,0,0,0-1.42-.44,1.39,1.39,0,0,0-1.22.51,3.09,3.09,0,0,0-.36,1.72l0,1.37v4.83h2.85v2.67H96.33V51H93V35.45H91.29Z"/><path d="M115.88,44.84H119q-.37,6.42-5.27,6.42a5.36,5.36,0,0,1-2.5-.54A4.38,4.38,0,0,1,109.5,49a8.71,8.71,0,0,1-1-2.9,23.33,23.33,0,0,1-.33-4.18q0-4.82,1.34-7.14a4.48,4.48,0,0,1,4.16-2.32q5.47,0,5.47,9.63v.42h-7.68q0,5.84,2.32,5.84Q115.88,48.37,115.88,44.84Zm-.18-4.73a12.27,12.27,0,0,0-.65-3.76,1.53,1.53,0,0,0-1.48-1,1.51,1.51,0,0,0-1.48,1,12.27,12.27,0,0,0-.65,3.76Z"/><path d="M129.15,33.15v3.15a4.27,4.27,0,0,0-2.58-.91A2.19,2.19,0,0,0,125,36a2,2,0,0,0-.46.65,2,2,0,0,0-.17.8q0,1.3,2.36,3.09a17.11,17.11,0,0,1,1.58,1.37,6.27,6.27,0,0,1,1,1.2,5.23,5.23,0,0,1,.69,2.79,5.41,5.41,0,0,1-1.42,3.92,5,5,0,0,1-3.78,1.46,5.88,5.88,0,0,1-3-.86V47.14a4.69,4.69,0,0,0,2.76,1.09,2,2,0,0,0,2.3-2.27,2.52,2.52,0,0,0-.42-1.46,4,4,0,0,0-.62-.69q-.42-.4-1-.89A13.69,13.69,0,0,1,122,40.14a5.1,5.1,0,0,1-.74-2.79,5,5,0,0,1,1.35-3.6,4.79,4.79,0,0,1,3.57-1.39A6.23,6.23,0,0,1,129.15,33.15Z"/><path d="M133.28,27.68h3.36v5.1h1.83v2.67h-1.83V51h-3.36V35.45h-1.85V32.78h1.85Z"/><path d="M151.3,32.78V51h-3.36V48.63a5.83,5.83,0,0,1-1.44,2.06,3,3,0,0,1-1.9.56,3.48,3.48,0,0,1-3.32-2.32,18.67,18.67,0,0,1-1.05-7.28,17.14,17.14,0,0,1,1.05-7,3.48,3.48,0,0,1,3.32-2.22,3.77,3.77,0,0,1,3.34,2.36V32.78Zm-7.59,9a18,18,0,0,0,.47,5,1.78,1.78,0,0,0,1.72,1.42q1.13,0,1.63-1.48a17.1,17.1,0,0,0,.51-4.87,17.19,17.19,0,0,0-.51-4.89q-.51-1.48-1.63-1.48a1.79,1.79,0,0,0-1.71,1.41A15.94,15.94,0,0,0,143.71,41.79Z"/><path d="M155.12,21.1h3.36V34.83a6.93,6.93,0,0,1,.72-1.12,3.65,3.65,0,0,1,.72-.7,3,3,0,0,1,1.83-.53,3.66,3.66,0,0,1,2,.54,3.87,3.87,0,0,1,1.38,1.66,10.32,10.32,0,0,1,.8,2.87,28,28,0,0,1,.26,4.13,18.6,18.6,0,0,1-1.05,7.27,3.47,3.47,0,0,1-3.3,2.31,3,3,0,0,1-1.92-.56,5.83,5.83,0,0,1-1.44-2.06V51h-3.36ZM162.71,42a16.81,16.81,0,0,0-.49-5,1.75,1.75,0,0,0-1.71-1.42q-1.16,0-1.63,1.44a17.54,17.54,0,0,0-.47,4.92,17.65,17.65,0,0,0,.47,4.92q.47,1.42,1.63,1.42a1.79,1.79,0,0,0,1.71-1.41A15.85,15.85,0,0,0,162.71,42Z"/><path d="M169.32,21.1h3.36V51h-3.36Z"/><path d="M178.07,25a2.28,2.28,0,0,1,2.25,2.27,2.28,2.28,0,1,1-4.55,0,2.16,2.16,0,0,1,.67-1.58A2.34,2.34,0,0,1,178.07,25Zm-1.58,7.73h3.38V51h-3.37Z"/><path d="M190.68,33.15v3.15a4.27,4.27,0,0,0-2.58-.91,2.19,2.19,0,0,0-1.52.59,2,2,0,0,0-.46.65,2,2,0,0,0-.17.8q0,1.3,2.36,3.09a17.11,17.11,0,0,1,1.58,1.37,6.27,6.27,0,0,1,1,1.2,5.23,5.23,0,0,1,.69,2.79,5.41,5.41,0,0,1-1.42,3.92,5,5,0,0,1-3.78,1.46,5.88,5.88,0,0,1-3-.86V47.14a4.69,4.69,0,0,0,2.76,1.09,2,2,0,0,0,2.3-2.27A2.52,2.52,0,0,0,188,44.5a4,4,0,0,0-.62-.69q-.42-.4-1-.89a13.69,13.69,0,0,1-2.88-2.78,5.1,5.1,0,0,1-.74-2.79,5,5,0,0,1,1.35-3.6,4.79,4.79,0,0,1,3.57-1.39A6.23,6.23,0,0,1,190.68,33.15Z"/><path d="M194.23,21.1h3.36V34.87a4.27,4.27,0,0,1,3.73-2.39,3.32,3.32,0,0,1,3.16,1.74A9.17,9.17,0,0,1,205,38V51h-3.36l0-12.16a5.66,5.66,0,0,0-.44-2.62,1.59,1.59,0,0,0-1.51-.77,2.13,2.13,0,0,0-1,.2,1.53,1.53,0,0,0-.64.65,3.62,3.62,0,0,0-.36,1.17,11.6,11.6,0,0,0-.11,1.78V51h-3.36Z"/><path d="M208.8,32.78h3.36V35a4.15,4.15,0,0,1,3.69-2.55A3.39,3.39,0,0,1,219.26,35a4.15,4.15,0,0,1,3.8-2.55,4,4,0,0,1,2.93,1,4,4,0,0,1,1,3V51h-3.37V39a6.52,6.52,0,0,0-.39-2.76,1.46,1.46,0,0,0-1.44-.72,1.76,1.76,0,0,0-1.65.74,6,6,0,0,0-.42,2.74V51h-3.48V39a11.67,11.67,0,0,0-.1-1.63,3.09,3.09,0,0,0-.33-1.07,1.41,1.41,0,0,0-.6-.59,2,2,0,0,0-.91-.18,1.79,1.79,0,0,0-1.65.79,5.38,5.38,0,0,0-.49,2.69V51H208.8Z"/><path d="M237.82,44.84h3.13q-.37,6.42-5.27,6.42a5.36,5.36,0,0,1-2.5-.54A4.38,4.38,0,0,1,231.44,49a8.71,8.71,0,0,1-1-2.9,23.33,23.33,0,0,1-.33-4.18q0-4.82,1.34-7.14a4.48,4.48,0,0,1,4.16-2.32q5.47,0,5.47,9.63v.42h-7.68q0,5.84,2.32,5.84Q237.82,48.37,237.82,44.84Zm-.18-4.73a12.27,12.27,0,0,0-.65-3.76,1.53,1.53,0,0,0-1.48-1,1.51,1.51,0,0,0-1.48,1,12.27,12.27,0,0,0-.65,3.76Z"/><path d="M244.06,32.78h3.36v2.09a4.27,4.27,0,0,1,3.73-2.39,3.32,3.32,0,0,1,3.16,1.74,9.17,9.17,0,0,1,.53,3.81V51h-3.36l0-12.16a5.66,5.66,0,0,0-.44-2.62,1.59,1.59,0,0,0-1.51-.77,2.13,2.13,0,0,0-1,.2,1.53,1.53,0,0,0-.64.65,3.62,3.62,0,0,0-.36,1.17,11.6,11.6,0,0,0-.11,1.78V51h-3.36Z"/><path d="M259,27.68h3.36v5.1h1.83v2.67H262.4V51H259V35.45h-1.85V32.78H259Z"/><path d="M274.08,21.1h3.36V34.83a6.93,6.93,0,0,1,.72-1.12,3.65,3.65,0,0,1,.72-.7,3,3,0,0,1,1.83-.53,3.66,3.66,0,0,1,2,.54,3.87,3.87,0,0,1,1.38,1.66,10.32,10.32,0,0,1,.8,2.87,28,28,0,0,1,.26,4.13,18.6,18.6,0,0,1-1.05,7.27,3.47,3.47,0,0,1-3.3,2.31,3,3,0,0,1-1.92-.56,5.83,5.83,0,0,1-1.44-2.06V51h-3.36ZM281.68,42a16.81,16.81,0,0,0-.49-5,1.75,1.75,0,0,0-1.71-1.42q-1.16,0-1.63,1.44a17.54,17.54,0,0,0-.47,4.92,17.65,17.65,0,0,0,.47,4.92q.47,1.42,1.63,1.42a1.79,1.79,0,0,0,1.71-1.41A15.85,15.85,0,0,0,281.68,42Z"/><path d="M288.29,32.78h3.36V35a6.42,6.42,0,0,1,1.71-2,4.38,4.38,0,0,1,2.23-.67v3.52a4.13,4.13,0,0,0-.6-.05,3.19,3.19,0,0,0-2.58.93,5.12,5.12,0,0,0-.76,3.2V51h-3.36Z"/><path d="M305,44.84h3.13q-.37,6.42-5.27,6.42a5.36,5.36,0,0,1-2.5-.54A4.38,4.38,0,0,1,298.66,49a8.71,8.71,0,0,1-1-2.9,23.33,23.33,0,0,1-.33-4.18q0-4.82,1.34-7.14a4.48,4.48,0,0,1,4.16-2.32q5.47,0,5.47,9.63v.42h-7.68q0,5.84,2.32,5.84Q305,48.37,305,44.84Zm-.18-4.73a12.27,12.27,0,0,0-.65-3.76,1.53,1.53,0,0,0-1.48-1,1.51,1.51,0,0,0-1.48,1,12.27,12.27,0,0,0-.65,3.76Z"/><path d="M321.67,32.78V51h-3.36V48.63a5.83,5.83,0,0,1-1.44,2.06,3,3,0,0,1-1.9.56,3.48,3.48,0,0,1-3.32-2.32,18.67,18.67,0,0,1-1.05-7.28,17.14,17.14,0,0,1,1.05-7A3.48,3.48,0,0,1,315,32.48a3.77,3.77,0,0,1,3.34,2.36V32.78Zm-7.59,9a18,18,0,0,0,.47,5,1.78,1.78,0,0,0,1.72,1.42q1.13,0,1.63-1.48a17.1,17.1,0,0,0,.51-4.87,17.19,17.19,0,0,0-.51-4.89q-.51-1.48-1.63-1.48a1.79,1.79,0,0,0-1.71,1.41A15.94,15.94,0,0,0,314.07,41.79Z"/><path d="M325.48,21.1h3.36V40.88l4.27-8.1h3.8l-4.64,8.1L337.52,51h-3.94l-4.75-9.67V51h-3.36Z"/><path d="M350,21.1V51h-3.36V48.63a5.83,5.83,0,0,1-1.44,2.06,3,3,0,0,1-1.92.56,3.47,3.47,0,0,1-3.3-2.31,18.6,18.6,0,0,1-1.05-7.27,28,28,0,0,1,.26-4.13,10.32,10.32,0,0,1,.8-2.87A3.87,3.87,0,0,1,341.32,33a3.66,3.66,0,0,1,2-.54,3,3,0,0,1,1.83.53,3.65,3.65,0,0,1,.72.7,6.93,6.93,0,0,1,.72,1.13V21.1Zm-7.59,20.69a18,18,0,0,0,.47,5,1.78,1.78,0,0,0,1.72,1.42q1.13,0,1.63-1.48a17.1,17.1,0,0,0,.51-4.87,17.19,17.19,0,0,0-.51-4.89q-.51-1.48-1.63-1.48a1.79,1.79,0,0,0-1.71,1.41A15.94,15.94,0,0,0,342.36,41.79Z"/><path d="M364.51,42q0,9.23-5.71,9.23t-5.71-9.37q0-9.4,5.7-9.4a5.47,5.47,0,0,1,2.56.56,4.49,4.49,0,0,1,1.78,1.74,9.13,9.13,0,0,1,1,3A23.07,23.07,0,0,1,364.51,42ZM361,41.93a17.79,17.79,0,0,0-.47-5,1.75,1.75,0,0,0-1.69-1.42,1.79,1.79,0,0,0-1.71,1.41,17.34,17.34,0,0,0-.47,4.9,17.13,17.13,0,0,0,.47,4.89,1.79,1.79,0,0,0,1.71,1.41,1.73,1.73,0,0,0,1.67-1.39A15.6,15.6,0,0,0,361,41.93Z"/><path d="M365.75,32.78h3.55l1,5.85q.3,1.76.54,3.39t.38,3.18l.05.63.07-.67q.14-1.27.29-2.33t.33-2l.28-1.39,1.25-6.71h2.44l1.18,6.71.39,2.11q.12.6.23,1.49t.21,2.1l.07.65q.32-3.27.9-6.35l1.25-6.71h3.3L379.2,51h-2.32L375.49,44q-.25-1.27-.42-2.59t-.3-2.82q0-.18,0-.42t-.05-.58q-.11,1.6-.3,3.1t-.47,3L372.5,51h-2.32Z"/><path d="M385.65,32.78H389v2.09a4.27,4.27,0,0,1,3.73-2.39,3.32,3.32,0,0,1,3.16,1.74,9.17,9.17,0,0,1,.53,3.81V51h-3.36l0-12.16a5.66,5.66,0,0,0-.44-2.62,1.59,1.59,0,0,0-1.51-.77,2.13,2.13,0,0,0-1,.2,1.53,1.53,0,0,0-.64.65,3.62,3.62,0,0,0-.36,1.17,11.6,11.6,0,0,0-.11,1.78V51h-3.36Z"/></svg>