<svg id="Layer_2" data-name="Layer 2" xmlns="http://www.w3.org/2000/svg" viewBox="0 0 1050.82 1183.34"><defs><style>.cls-1{font-size:36px;}.cls-1,.cls-14,.cls-23,.cls-35,.cls-37,.cls-39,.cls-41,.cls-42,.cls-57,.cls-9{font-family:Futura-CondensedMedium, Futura;}.cls-2{letter-spacing:-0.01em;}.cls-3{letter-spacing:-0.01em;}.cls-4{letter-spacing:-0.01em;}.cls-5{letter-spacing:0em;}.cls-13,.cls-55,.cls-56,.cls-6{stroke:#000;stroke-miterlimit:10;}.cls-7{fill:#bdedb7;}.cls-8{fill:#daddd9;}.cls-9{opacity:0.9;font-size:18px;}.cls-10{letter-spacing:0em;}.cls-11{letter-spacing:0.03em;}.cls-12{fill:#e5e023;opacity:0.2;}.cls-13{fill:#fff;stroke-width:0.5px;}.cls-14,.cls-23{opacity:0.7;}.cls-14{font-size:20.85px;}.cls-15{letter-spacing:0em;}.cls-16{letter-spacing:0em;}.cls-17{letter-spacing:0.03em;}.cls-18{letter-spacing:0em;}.cls-19{letter-spacing:0em;}.cls-20{letter-spacing:0.01em;}.cls-21{letter-spacing:0em;}.cls-22{letter-spacing:0em;}.cls-23{font-size:17.72px;}.cls-24{letter-spacing:0em;}.cls-25{letter-spacing:-0.03em;}.cls-26{letter-spacing:0.01em;}.cls-27{letter-spacing:0em;}.cls-28{letter-spacing:0em;}.cls-29{letter-spacing:0.02em;}.cls-30{letter-spacing:-0.01em;}.cls-31{letter-spacing:-0.01em;}.cls-32{letter-spacing:0em;}.cls-33{letter-spacing:-0.02em;}.cls-34{letter-spacing:0.01em;}.cls-35,.cls-37,.cls-39,.cls-41,.cls-42{font-size:20.96px;}.cls-36{letter-spacing:0.01em;}.cls-37{letter-spacing:-0.06em;}.cls-38{letter-spacing:0em;}.cls-39{letter-spacing:-0.06em;}.cls-40{letter-spacing:-0.06em;}.cls-41{letter-spacing:-0.06em;}.cls-42{letter-spacing:-0.06em;}.cls-43{letter-spacing:0em;}.cls-44{letter-spacing:0em;}.cls-45{letter-spacing:0em;}.cls-46{letter-spacing:0em;}.cls-47{letter-spacing:0em;}.cls-48{letter-spacing:0.01em;}.cls-49{letter-spacing:-0.02em;}.cls-50{letter-spacing:0em;}.cls-51{letter-spacing:-0.01em;}.cls-52{letter-spacing:0em;}.cls-53{letter-spacing:-0.03em;}.cls-54{opacity:0.3;}.cls-55,.cls-56{fill:none;}.cls-56{stroke-dasharray:2.99 2.99;}.cls-57{font-size:16.12px;}.cls-58{letter-spacing:-0.06em;}.cls-59{letter-spacing:-0.06em;}.cls-60{letter-spacing:-0.05em;}.cls-61{letter-spacing:-0.06em;}.cls-62{letter-spacing:-0.01em;}.cls-63{letter-spacing:-0.07em;}</style></defs><title>medium_of_exchange</title><text class="cls-1" transform="translate(252.85 94.88)">Medium of <tspan class="cls-2" x="129.38" y="0">e</tspan><tspan class="cls-3" x="142.4" y="0">x</tspan><tspan class="cls-4" x="155.43" y="0">c</tspan><tspan x="165.5" y="0">hange b</tspan><tspan class="cls-5" x="257.99" y="0">r</tspan><tspan x="267.71" y="0">eakd</tspan><tspan class="cls-2" x="323.47" y="0">o</tspan><tspan x="337.1" y="0">wn</tspan></text><line class="cls-6" x1="638.38" y1="56.34" x2="638.38" y2="114.65"/><rect class="cls-7" x="655.94" y="69.12" width="10.14" height="10.14"/><rect class="cls-8" x="655.94" y="91.74" width="10.14" height="10.14"/><text class="cls-9" transform="translate(682.21 79.56)">P<tspan class="cls-10" x="7.14" y="0">r</tspan><tspan x="11.98" y="0">ima</tspan><tspan class="cls-11" x="33.65" y="0">r</tspan><tspan x="38.93" y="0">y Medium</tspan></text><text class="cls-9" transform="translate(682.21 102.18)">Seconda<tspan class="cls-11" x="46.92" y="0">r</tspan><tspan x="52.19" y="0">y Mediums</tspan></text><rect class="cls-12" x="117.81" y="1030.63" width="813.17" height="76.76"/><line class="cls-13" x1="117.81" y1="345.79" x2="245.14" y2="345.79"/><line class="cls-13" x1="117.81" y1="269.73" x2="245.14" y2="269.73"/><line class="cls-13" x1="117.81" y1="422.04" x2="245.14" y2="422.04"/><line class="cls-13" x1="117.81" y1="498.29" x2="245.14" y2="498.29"/><line class="cls-13" x1="117.81" y1="574.01" x2="245.14" y2="574.01"/><line class="cls-13" x1="117.81" y1="650.14" x2="245.14" y2="650.14"/><line class="cls-13" x1="265.77" y1="269.73" x2="343.97" y2="269.73"/><line class="cls-13" x1="265.77" y1="345.79" x2="343.97" y2="345.79"/><line class="cls-13" x1="265.77" y1="422.04" x2="343.97" y2="422.04"/><line class="cls-13" x1="265.77" y1="498.29" x2="343.97" y2="498.29"/><line class="cls-13" x1="265.77" y1="574.01" x2="343.97" y2="574.01"/><line class="cls-13" x1="265.77" y1="650.14" x2="343.97" y2="650.14"/><line class="cls-13" x1="117.81" y1="1030.63" x2="245.14" y2="1030.63"/><line class="cls-13" x1="117.81" y1="954.5" x2="245.14" y2="954.5"/><line class="cls-13" x1="117.81" y1="878.78" x2="245.14" y2="878.78"/><line class="cls-13" x1="117.81" y1="803.06" x2="245.14" y2="803.06"/><line class="cls-13" x1="117.81" y1="726.28" x2="245.14" y2="726.28"/><line class="cls-13" x1="265.77" y1="1030.63" x2="343.97" y2="1030.63"/><line class="cls-13" x1="265.77" y1="954.5" x2="343.97" y2="954.5"/><line class="cls-13" x1="265.77" y1="878.78" x2="343.97" y2="878.78"/><line class="cls-13" x1="265.77" y1="803.06" x2="343.97" y2="803.06"/><line class="cls-13" x1="265.77" y1="727.34" x2="343.97" y2="727.34"/><text class="cls-14" transform="translate(250.57 201.95)">Co<tspan class="cls-15" x="15.98" y="0">m</tspan><tspan x="28.68" y="0">plemen</tspan><tspan class="cls-16" x="77.61" y="0">t</tspan><tspan x="82.26" y="0">a</tspan><tspan class="cls-17" x="90.49" y="0">r</tspan><tspan x="96.6" y="0">y </tspan><tspan x="25.58" y="25.02">Cu</tspan><tspan class="cls-18" x="42.01" y="25.02">r</tspan><tspan class="cls-19" x="47.62" y="25.02">r</tspan><tspan x="53.25" y="25.02">ency</tspan><tspan x="27.81" y="50.04">S</tspan><tspan class="cls-20" x="35.59" y="50.04">y</tspan><tspan class="cls-21" x="43.4" y="50.04">s</tspan><tspan class="cls-22" x="49.63" y="50.04">t</tspan><tspan x="54.24" y="50.04">ems</tspan></text><text class="cls-23" transform="translate(442.03 259.63) rotate(-45) scale(1.18 1)">Elect<tspan class="cls-24" x="25.49" y="0">r</tspan><tspan x="30.28" y="0">onic </tspan><tspan class="cls-25" x="56.52" y="0">T</tspan><tspan class="cls-26" x="61.83" y="0">r</tspan><tspan x="66.67" y="0">ansaction</tspan></text><text class="cls-14" transform="translate(551.93 259.01) rotate(-45)"><tspan class="cls-27">N</tspan><tspan class="cls-28" x="9.77" y="0">ot</tspan><tspan x="22.4" y="0">es / Bills</tspan></text><text class="cls-14" transform="translate(664.83 259.01) rotate(-45)">Ba<tspan class="cls-29" x="16.81" y="0">r</tspan><tspan class="cls-28" x="22.82" y="0">t</tspan><tspan x="27.43" y="0">er E</tspan><tspan class="cls-30" x="52.57" y="0">x</tspan><tspan class="cls-31" x="60.12" y="0">c</tspan><tspan x="65.95" y="0">hange</tspan></text><text class="cls-14" transform="translate(772.78 259.01) rotate(-45)"><tspan class="cls-32">A</tspan><tspan x="8.56" y="0">ccounts</tspan></text><text class="cls-14" transform="translate(881.39 258.98) rotate(-45)"><tspan class="cls-33">V</tspan><tspan x="7.31" y="0">ou</tspan><tspan class="cls-31" x="23.81" y="0">c</tspan><tspan x="29.65" y="0">he</tspan><tspan class="cls-34" x="45.77" y="0">r</tspan><tspan x="51.64" y="0">s</tspan></text><text class="cls-35" transform="translate(168.33 314.02)">U<tspan class="cls-36" x="9.7" y="0">S</tspan><tspan x="17.76" y="0">A</tspan></text><text class="cls-35" transform="translate(296.2 314.02)">49</text><text class="cls-35" transform="translate(296.2 390.08)">28</text><text class="cls-35" transform="translate(296.2 466.14)">25</text><text class="cls-35" transform="translate(296.2 542.21)">23</text><text class="cls-37" transform="translate(296.86 618.34)">1<tspan class="cls-38" x="7.36" y="0">9</tspan></text><text class="cls-39" transform="translate(296.85 694.47)">1<tspan class="cls-38" x="7.38" y="0">5</tspan></text><text class="cls-35" transform="translate(296.77 770.66)"><tspan class="cls-40">1</tspan><tspan x="7.52" y="0">4</tspan></text><text class="cls-41" transform="translate(296.83 846.91)">1<tspan class="cls-38" x="7.4" y="0">3</tspan></text><text class="cls-42" transform="translate(296.82 922.9)">1<tspan class="cls-38" x="7.42" y="0">2</tspan></text><text class="cls-42" transform="translate(296.82 998.83)">1<tspan class="cls-38" x="7.42" y="0">2</tspan></text><text class="cls-35" transform="translate(291.86 1075.27)">296</text><text class="cls-35" transform="translate(151.32 390.08)">Ge<tspan class="cls-43" x="17.5" y="0">r</tspan><tspan x="23.14" y="0">ma</tspan><tspan class="cls-44" x="44.21" y="0">n</tspan><tspan class="cls-45" x="52.59" y="0">y</tspan></text><text class="cls-35" transform="translate(152.2 466.14)"><tspan class="cls-46">A</tspan><tspan x="8.52" y="0">u</tspan><tspan class="cls-47" x="17.04" y="0">s</tspan><tspan class="cls-38" x="23.3" y="0">t</tspan><tspan class="cls-48" x="27.96" y="0">r</tspan><tspan class="cls-45" x="33.68" y="0">alia</tspan></text><text class="cls-35" transform="translate(156.7 542.2)">Canada</text><text class="cls-35" transform="translate(154.33 618.34)">Belgium</text><text class="cls-35" transform="translate(172.22 694.47)">UK</text><text class="cls-35" transform="translate(162.98 770.66)">Spain</text><text class="cls-35" transform="translate(147.98 846.97)"><tspan class="cls-49">V</tspan><tspan x="7.35" y="0">enezuela</tspan></text><text class="cls-35" transform="translate(141.77 922.9)"><tspan class="cls-50">N</tspan><tspan x="9.82" y="0">ethe</tspan><tspan class="cls-43" x="38.42" y="0">r</tspan><tspan class="cls-45" x="44.06" y="0">lands</tspan></text><text class="cls-35" transform="translate(138.73 998.83)"><tspan class="cls-50">N</tspan><tspan class="cls-51" x="9.82" y="0">e</tspan><tspan x="17.43" y="0">w Zealand</tspan></text><text class="cls-35" transform="translate(138.84 1075.27)">Da<tspan class="cls-52" x="18.02" y="0">t</tspan><tspan x="22.7" y="0">aset </tspan><tspan class="cls-53" x="53.85" y="0">T</tspan><tspan class="cls-46" x="60.09" y="0">o</tspan><tspan class="cls-52" x="68.15" y="0">t</tspan><tspan x="72.83" y="0">al</tspan></text><g class="cls-54"><line class="cls-55" x1="495.96" y1="239.49" x2="495.96" y2="240.99"/><line class="cls-56" x1="495.96" y1="243.98" x2="495.96" y2="1104.4"/><line class="cls-55" x1="495.96" y1="1105.89" x2="495.96" y2="1107.39"/></g><g class="cls-54"><line class="cls-55" x1="604.66" y1="239.49" x2="604.66" y2="240.99"/><line class="cls-56" x1="604.66" y1="243.98" x2="604.66" y2="1104.4"/><line class="cls-55" x1="604.66" y1="1105.89" x2="604.66" y2="1107.39"/></g><g class="cls-54"><line class="cls-55" x1="713.36" y1="239.49" x2="713.36" y2="240.99"/><line class="cls-56" x1="713.36" y1="243.98" x2="713.36" y2="1104.4"/><line class="cls-55" x1="713.36" y1="1105.89" x2="713.36" y2="1107.39"/></g><g class="cls-54"><line class="cls-55" x1="822.06" y1="239.49" x2="822.06" y2="240.99"/><line class="cls-56" x1="822.06" y1="243.98" x2="822.06" y2="1104.4"/><line class="cls-55" x1="822.06" y1="1105.89" x2="822.06" y2="1107.39"/></g><g class="cls-54"><line class="cls-55" x1="822.06" y1="239.49" x2="822.06" y2="240.99"/><line class="cls-56" x1="822.06" y1="243.98" x2="822.06" y2="1104.4"/><line class="cls-55" x1="822.06" y1="1105.89" x2="822.06" y2="1107.39"/></g><text class="cls-57" transform="translate(431.02 459.56)">48%</text><text class="cls-57" transform="translate(431.02 548.68)">30%</text><text class="cls-57" transform="translate(868.4 648.5)">0%</text><text class="cls-57" transform="translate(868.4 724.56)">0%</text><text class="cls-57" transform="translate(868.4 571.28)">0%</text><text class="cls-57" transform="translate(759.81 876.36)">0%</text><text class="cls-57" transform="translate(651.87 952.39)">0%</text><text class="cls-57" transform="translate(868.4 952.39)">0%</text><text class="cls-57" transform="translate(434.35 876.36)">0%</text><text class="cls-57" transform="translate(542.3 876.36)">0%</text><text class="cls-57" transform="translate(542.3 800.27)">0%</text><text class="cls-57" transform="translate(651.87 648.5)">0%</text><text class="cls-57" transform="translate(542.3 952.39)">0%</text><text class="cls-57" transform="translate(651.87 800.27)">0%</text><text class="cls-57" transform="translate(868.4 800.27)">0%</text><text class="cls-57" transform="translate(868.4 876.36)">0%</text><text class="cls-57" transform="translate(868.4 343.91)">0%</text><text class="cls-57" transform="translate(868.4 419.43)">0%</text><text class="cls-57" transform="translate(868.4 496.04)">0%</text><text class="cls-57" transform="translate(431.02 996.17)">42%</text><rect class="cls-7" x="410.21" y="461.56" width="64.31" height="36.74"/><text class="cls-57" transform="translate(651.87 415.58)">4%</text><rect class="cls-8" x="627.72" y="418.81" width="64.31" height="3.11"/><text class="cls-57" transform="translate(651.87 339.25)">4%</text><rect class="cls-8" x="627.72" y="342.47" width="64.31" height="3.11"/><text class="cls-57" transform="translate(651.87 567.51)">4%</text><rect class="cls-8" x="627.72" y="570.73" width="64.31" height="3.11"/><text class="cls-57" transform="translate(651.87 491.99)">4%</text><rect class="cls-8" x="627.72" y="495.21" width="64.31" height="3.11"/><text class="cls-57" transform="translate(542.3 644.22)">5%</text><rect class="cls-8" x="518.16" y="646.44" width="64.31" height="3.85"/><text class="cls-57" transform="translate(431.02 400.57)">25%</text><rect class="cls-8" x="410.21" y="403.11" width="64.31" height="19.2"/><text class="cls-57" transform="translate(651.87 718.95)">7%</text><rect class="cls-8" x="627.72" y="721.18" width="64.31" height="5.1"/><text class="cls-57" transform="translate(759.81 795)">7%</text><rect class="cls-8" x="735.67" y="797.22" width="64.31" height="5.1"/><rect class="cls-7" x="627.72" y="802.53" width="64.31" height="76.25"/><text class="cls-57" transform="translate(538.96 553.68)">22%</text><rect class="cls-8" x="518.16" y="557.23" width="64.31" height="17.01"/><text class="cls-57" transform="translate(431.02 1075.85)">38%</text><rect class="cls-7" x="410.21" y="1078.06" width="64.31" height="29.08"/><rect class="cls-7" x="410.21" y="551.16" width="64.31" height="22.96"/><rect class="cls-8" x="844.37" y="1104.84" width="64.31" height="2.27"/><text class="cls-57" transform="translate(868.4 1102.54)">3%</text><text class="cls-57" transform="translate(538.96 328.17)">20%</text><rect class="cls-8" x="518.16" y="330.48" width="64.31" height="15.31"/><text class="cls-57" transform="translate(539.41 1094.69)"><tspan class="cls-58">1</tspan><tspan x="5.79" y="0">4%</tspan></text><rect class="cls-8" x="518.16" y="1096.6" width="64.31" height="10.51"/><text class="cls-57" transform="translate(539.45 713.96)"><tspan class="cls-59">1</tspan><tspan x="5.69" y="0">3%</tspan></text><rect class="cls-8" x="518.16" y="716.12" width="64.31" height="9.92"/><rect class="cls-7" x="410.21" y="736.6" width="64.31" height="65.82"/><rect class="cls-7" x="410.21" y="998.37" width="64.31" height="32.03"/><text class="cls-57" transform="translate(756.47 908.11)">58%</text><rect class="cls-7" x="735.67" y="910.11" width="64.31" height="44.39"/><text class="cls-57" transform="translate(431.02 615.79)">42%</text><rect class="cls-7" x="410.21" y="617.99" width="64.31" height="32.03"/><text class="cls-57" transform="translate(431.02 312.55)">42%</text><rect class="cls-7" x="410.21" y="314.56" width="64.31" height="31.23"/><text class="cls-57" transform="translate(538.96 386.1)">43%</text><rect class="cls-7" x="518.16" y="388.42" width="64.31" height="33.35"/><text class="cls-57" transform="translate(431.02 683.71)">53%</text><rect class="cls-7" x="410.21" y="685.71" width="64.31" height="40.56"/><text class="cls-57" transform="translate(542.3 1020.92)">8%</text><rect class="cls-8" x="518.16" y="1024.52" width="64.31" height="5.94"/><text class="cls-57" transform="translate(651.87 1021.09)">8%</text><rect class="cls-8" x="627.72" y="1024.69" width="64.31" height="5.94"/><text class="cls-57" transform="translate(868.4 1020.92)">8%</text><rect class="cls-8" x="844.37" y="1024.52" width="64.31" height="5.94"/><text class="cls-57" transform="translate(542.3 489.58)">8%</text><rect class="cls-8" x="518.16" y="492.19" width="64.31" height="5.94"/><text class="cls-57" transform="translate(651.87 1098.77)">8%</text><rect class="cls-8" x="627.72" y="1101.37" width="64.31" height="5.94"/><text class="cls-57" transform="translate(759.81 1097.77)">8%</text><rect class="cls-8" x="735.67" y="1101.37" width="64.31" height="5.94"/><line class="cls-13" x1="117.81" y1="1107.39" x2="245.14" y2="1107.39"/><line class="cls-13" x1="265.77" y1="1107.39" x2="343.97" y2="1107.39"/><text class="cls-57" transform="translate(645.6 845.32)"><tspan class="cls-60">1</tspan><tspan x="5.86" y="0">00%</tspan></text><text class="cls-57" transform="translate(431.02 926.41)">33%</text><rect class="cls-8" x="410.21" y="928.86" width="64.31" height="25.51"/><text class="cls-57" transform="translate(431.02 774.33)">86%</text><text class="cls-57" transform="translate(756.97 482.81)"><tspan class="cls-61">1</tspan><tspan x="5.68" y="0">6%</tspan></text><rect class="cls-8" x="735.67" y="485.54" width="64.31" height="12.34"/><text class="cls-57" transform="translate(756.92 406.69)"><tspan class="cls-58">1</tspan><tspan x="5.79" y="0">8%</tspan></text><rect class="cls-8" x="735.67" y="408.81" width="64.31" height="13.1"/><text class="cls-57" transform="translate(756.56 703.28)"><tspan class="cls-62">2</tspan><tspan x="6.49" y="0">7%</tspan></text><rect class="cls-8" x="735.67" y="705.62" width="64.31" height="20.41"/><text class="cls-57" transform="translate(756.47 626.28)">26%</text><rect class="cls-8" x="735.67" y="629.92" width="64.31" height="20.11"/><text class="cls-57" transform="translate(756.47 550.76)">26%</text><rect class="cls-8" x="735.67" y="554.4" width="64.31" height="20.11"/><rect class="cls-8" x="735.67" y="1017.84" width="64.31" height="12.8"/><text class="cls-57" transform="translate(757.01 1015.52)"><tspan class="cls-63">1</tspan><tspan x="5.61" y="0">7%</tspan></text><text class="cls-57" transform="translate(759.81 336.25)">8%</text><rect class="cls-8" x="735.67" y="339.85" width="64.31" height="5.94"/><line class="cls-13" x1="388.77" y1="269.73" x2="930.98" y2="269.73"/><line class="cls-13" x1="388.77" y1="498.29" x2="930.98" y2="498.29"/><line class="cls-13" x1="387.27" y1="802.53" x2="930.98" y2="802.53"/><line class="cls-13" x1="387.27" y1="726.28" x2="930.98" y2="726.28"/><line class="cls-13" x1="387.27" y1="1107.39" x2="930.98" y2="1107.39"/><line class="cls-13" x1="387.27" y1="878.78" x2="930.98" y2="878.78"/><line class="cls-13" x1="388.77" y1="574.01" x2="930.98" y2="574.01"/><line class="cls-13" x1="387.27" y1="650.14" x2="930.98" y2="650.14"/><line class="cls-13" x1="388.77" y1="422.04" x2="930.98" y2="422.04"/><line class="cls-13" x1="387.27" y1="954.5" x2="930.98" y2="954.5"/><line class="cls-13" x1="387.27" y1="1030.63" x2="930.98" y2="1030.63"/><line class="cls-13" x1="388.77" y1="345.79" x2="930.98" y2="345.79"/></svg>