<svg id="Layer_2" data-name="Layer 2" xmlns="http://www.w3.org/2000/svg" viewBox="0 0 893.57 1278.95"><defs><style>.cls-1{font-size:36px;}.cls-1,.cls-15,.cls-39,.cls-41,.cls-43,.cls-45,.cls-46,.cls-61,.cls-9{font-family:Futura-CondensedMedium, Futura;}.cls-2{letter-spacing:0.01em;}.cls-3{letter-spacing:0em;}.cls-4{letter-spacing:0em;}.cls-5{letter-spacing:-0.01em;}.cls-14,.cls-59,.cls-6,.cls-60{stroke:#000;stroke-miterlimit:10;}.cls-7{fill:#bdedb7;}.cls-8{fill:#daddd9;}.cls-9{opacity:0.9;font-size:18px;}.cls-10{letter-spacing:0em;}.cls-11{letter-spacing:0.03em;}.cls-12{letter-spacing:-0.02em;}.cls-13{fill:#e5e023;opacity:0.2;}.cls-14{fill:#fff;stroke-width:0.5px;}.cls-15{opacity:0.7;font-size:20.85px;}.cls-16{letter-spacing:0em;}.cls-17{letter-spacing:0em;}.cls-18{letter-spacing:0.03em;}.cls-19{letter-spacing:0em;}.cls-20{letter-spacing:0em;}.cls-21{letter-spacing:0.01em;}.cls-22{letter-spacing:0em;}.cls-23{letter-spacing:0em;}.cls-24{letter-spacing:0.02em;}.cls-25{letter-spacing:0.01em;}.cls-26{letter-spacing:0em;}.cls-27{letter-spacing:0em;}.cls-28{letter-spacing:0em;}.cls-29{letter-spacing:0em;}.cls-30{letter-spacing:0em;}.cls-31{letter-spacing:0em;}.cls-32{letter-spacing:-0.01em;}.cls-33{letter-spacing:0em;}.cls-34{letter-spacing:-0.01em;}.cls-35{letter-spacing:0em;}.cls-36{letter-spacing:0em;}.cls-37{letter-spacing:0em;}.cls-38{letter-spacing:0em;}.cls-39,.cls-41,.cls-43,.cls-45,.cls-46{font-size:20.96px;}.cls-40{letter-spacing:0.01em;}.cls-41{letter-spacing:-0.06em;}.cls-42{letter-spacing:0em;}.cls-43{letter-spacing:-0.06em;}.cls-44{letter-spacing:-0.06em;}.cls-45{letter-spacing:-0.06em;}.cls-46{letter-spacing:-0.06em;}.cls-47{letter-spacing:0em;}.cls-48{letter-spacing:0em;}.cls-49{letter-spacing:0em;}.cls-50{letter-spacing:0em;}.cls-51{letter-spacing:0em;}.cls-52{letter-spacing:0.01em;}.cls-53{letter-spacing:-0.02em;}.cls-54{letter-spacing:0em;}.cls-55{letter-spacing:-0.01em;}.cls-56{letter-spacing:0em;}.cls-57{letter-spacing:-0.03em;}.cls-58{opacity:0.3;}.cls-59,.cls-60{fill:none;}.cls-60{stroke-dasharray:2.99 2.99;}.cls-61{font-size:16.12px;}.cls-62{letter-spacing:-0.06em;}.cls-63{letter-spacing:-0.03em;}.cls-64{letter-spacing:-0.02em;}.cls-65{letter-spacing:-0.06em;}.cls-66{letter-spacing:-0.07em;}.cls-67{letter-spacing:-0.09em;}.cls-68{letter-spacing:-0.01em;}.cls-69{letter-spacing:0em;}.cls-70{letter-spacing:-0.07em;}.cls-71{letter-spacing:-0.06em;}.cls-72{letter-spacing:-0.05em;}</style></defs><title>organization_type</title><text class="cls-1" transform="translate(202 86.1)">O<tspan class="cls-2" x="17.21" y="0">r</tspan><tspan class="cls-3" x="27.04" y="0">g</tspan><tspan x="41.29" y="0">anization type b</tspan><tspan class="cls-4" x="225.02" y="0">r</tspan><tspan x="234.74" y="0">eakd</tspan><tspan class="cls-5" x="290.5" y="0">o</tspan><tspan x="304.12" y="0">wn</tspan></text><line class="cls-6" x1="554.43" y1="46.2" x2="554.43" y2="104.51"/><rect class="cls-7" x="571.98" y="58.98" width="10.14" height="10.14"/><rect class="cls-8" x="571.98" y="81.6" width="10.14" height="10.14"/><text class="cls-9" transform="translate(597.82 69.42)">P<tspan class="cls-10" x="7.14" y="0">r</tspan><tspan x="11.98" y="0">ima</tspan><tspan class="cls-11" x="33.65" y="0">r</tspan><tspan x="38.93" y="0">y </tspan><tspan class="cls-12" x="49.29" y="0">T</tspan><tspan x="54.83" y="0">ype</tspan></text><text class="cls-9" transform="translate(597.82 92.04)">Seconda<tspan class="cls-11" x="46.92" y="0">r</tspan><tspan x="52.19" y="0">y </tspan><tspan class="cls-12" x="62.55" y="0">T</tspan><tspan x="68.09" y="0">ypes</tspan></text><rect class="cls-13" x="58.31" y="1155.99" width="704.24" height="76.76"/><line class="cls-14" x1="58.3" y1="471.14" x2="185.63" y2="471.14"/><line class="cls-14" x1="58.3" y1="395.08" x2="185.63" y2="395.08"/><line class="cls-14" x1="58.3" y1="547.39" x2="185.63" y2="547.39"/><line class="cls-14" x1="58.3" y1="623.65" x2="185.63" y2="623.65"/><line class="cls-14" x1="58.3" y1="699.36" x2="185.63" y2="699.36"/><line class="cls-14" x1="58.3" y1="775.5" x2="185.63" y2="775.5"/><line class="cls-14" x1="206.26" y1="395.08" x2="284.46" y2="395.08"/><line class="cls-14" x1="206.26" y1="471.14" x2="284.46" y2="471.14"/><line class="cls-14" x1="206.26" y1="547.39" x2="284.46" y2="547.39"/><line class="cls-14" x1="206.26" y1="623.65" x2="284.46" y2="623.65"/><line class="cls-14" x1="206.26" y1="699.36" x2="284.46" y2="699.36"/><line class="cls-14" x1="206.26" y1="775.5" x2="284.46" y2="775.5"/><line class="cls-14" x1="329.26" y1="395.08" x2="762.55" y2="395.08"/><line class="cls-14" x1="58.3" y1="1155.99" x2="185.63" y2="1155.99"/><line class="cls-14" x1="58.3" y1="1079.85" x2="185.63" y2="1079.85"/><line class="cls-14" x1="58.3" y1="1004.13" x2="185.63" y2="1004.13"/><line class="cls-14" x1="58.3" y1="928.42" x2="185.63" y2="928.42"/><line class="cls-14" x1="58.3" y1="851.63" x2="185.63" y2="851.63"/><line class="cls-14" x1="206.26" y1="1155.99" x2="284.46" y2="1155.99"/><line class="cls-14" x1="206.26" y1="1079.85" x2="284.46" y2="1079.85"/><line class="cls-14" x1="206.26" y1="1004.13" x2="284.46" y2="1004.13"/><line class="cls-14" x1="206.26" y1="928.42" x2="284.46" y2="928.42"/><line class="cls-14" x1="206.26" y1="852.7" x2="284.46" y2="852.7"/><text class="cls-15" transform="translate(191.06 327.3)">Co<tspan class="cls-16" x="15.98" y="0">m</tspan><tspan x="28.68" y="0">plemen</tspan><tspan class="cls-17" x="77.61" y="0">t</tspan><tspan x="82.26" y="0">a</tspan><tspan class="cls-18" x="90.49" y="0">r</tspan><tspan x="96.6" y="0">y </tspan><tspan x="25.58" y="25.02">Cu</tspan><tspan class="cls-19" x="42.01" y="25.02">r</tspan><tspan class="cls-20" x="47.62" y="25.02">r</tspan><tspan x="53.25" y="25.02">ency</tspan><tspan x="27.81" y="50.04">S</tspan><tspan class="cls-21" x="35.59" y="50.04">y</tspan><tspan class="cls-22" x="43.4" y="50.04">s</tspan><tspan class="cls-23" x="49.63" y="50.04">t</tspan><tspan x="54.24" y="50.04">ems</tspan></text><text class="cls-15" transform="translate(385.38 374.71) rotate(-45)">Communit<tspan class="cls-24" x="67.14" y="0">y</tspan><tspan x="75.19" y="0">-Based O</tspan><tspan class="cls-25" x="132.02" y="0">r</tspan><tspan class="cls-26" x="137.72" y="0">g</tspan><tspan x="145.97" y="0">anization (</tspan><tspan class="cls-27" x="217.73" y="0">U</tspan><tspan x="227.36" y="0">n</tspan><tspan class="cls-28" x="235.8" y="0">r</tspan><tspan x="241.43" y="0">egi</tspan><tspan class="cls-29" x="261.49" y="0">s</tspan><tspan class="cls-30" x="267.72" y="0">t</tspan><tspan class="cls-31" x="272.34" y="0">e</tspan><tspan class="cls-28" x="280.02" y="0">r</tspan><tspan class="cls-31" x="285.65" y="0">ed)</tspan></text><text class="cls-15" transform="translate(492.42 374.71) rotate(-45)"><tspan class="cls-26">N</tspan><tspan x="9.77" y="0">on-G</tspan><tspan class="cls-32" x="39.67" y="0">ov</tspan><tspan x="54.54" y="0">e</tspan><tspan class="cls-33" x="62.23" y="0">r</tspan><tspan x="67.83" y="0">nment O</tspan><tspan class="cls-25" x="124.05" y="0">r</tspan><tspan class="cls-26" x="129.74" y="0">g</tspan><tspan x="138" y="0">anization (</tspan><tspan class="cls-34" x="209.76" y="0">R</tspan><tspan x="218.25" y="0">egi</tspan><tspan class="cls-29" x="238.31" y="0">s</tspan><tspan class="cls-27" x="244.54" y="0">t</tspan><tspan class="cls-31" x="249.15" y="0">e</tspan><tspan class="cls-20" x="256.84" y="0">r</tspan><tspan x="262.47" y="0">ed)</tspan></text><text class="cls-15" transform="translate(601.21 374.71) rotate(-45)">P<tspan class="cls-33" x="8.27" y="0">r</tspan><tspan x="13.88" y="0">i</tspan><tspan class="cls-35" x="18.02" y="0">v</tspan><tspan x="25.03" y="0">a</tspan><tspan class="cls-27" x="33.26" y="0">t</tspan><tspan x="37.87" y="0">e En</tspan><tspan class="cls-27" x="65.89" y="0">t</tspan><tspan x="70.5" y="0">e</tspan><tspan class="cls-33" x="78.19" y="0">r</tspan><tspan x="83.8" y="0">p</tspan><tspan class="cls-36" x="92.02" y="0">r</tspan><tspan x="97.63" y="0">ise</tspan></text><text class="cls-15" transform="translate(713.15 374.7) rotate(-45)">Coope<tspan class="cls-25" x="39.93" y="0">r</tspan><tspan x="45.62" y="0">ati</tspan><tspan class="cls-32" x="62.62" y="0">v</tspan><tspan class="cls-37" x="69.58" y="0">e O</tspan><tspan class="cls-25" x="91.55" y="0">r</tspan><tspan class="cls-38" x="97.24" y="0">g</tspan><tspan x="105.49" y="0">anization</tspan></text><text class="cls-39" transform="translate(108.82 439.37)">U<tspan class="cls-40" x="9.7" y="0">S</tspan><tspan x="17.76" y="0">A</tspan></text><text class="cls-39" transform="translate(236.69 439.37)">49</text><text class="cls-39" transform="translate(236.69 515.43)">28</text><text class="cls-39" transform="translate(236.69 591.49)">25</text><text class="cls-39" transform="translate(236.69 667.56)">23</text><text class="cls-41" transform="translate(237.35 743.69)">1<tspan class="cls-42" x="7.36" y="0">9</tspan></text><text class="cls-43" transform="translate(237.34 819.82)">1<tspan class="cls-42" x="7.38" y="0">5</tspan></text><text class="cls-39" transform="translate(237.26 896.01)"><tspan class="cls-44">1</tspan><tspan x="7.52" y="0">4</tspan></text><text class="cls-45" transform="translate(237.33 972.27)">1<tspan class="cls-42" x="7.4" y="0">3</tspan></text><text class="cls-46" transform="translate(237.31 1048.25)">1<tspan class="cls-42" x="7.42" y="0">2</tspan></text><text class="cls-46" transform="translate(237.31 1124.18)">1<tspan class="cls-42" x="7.42" y="0">2</tspan></text><text class="cls-39" transform="translate(232.35 1200.62)">296</text><text class="cls-39" transform="translate(91.81 515.43)">Ge<tspan class="cls-47" x="17.5" y="0">r</tspan><tspan x="23.14" y="0">ma</tspan><tspan class="cls-48" x="44.21" y="0">n</tspan><tspan class="cls-49" x="52.59" y="0">y</tspan></text><text class="cls-39" transform="translate(92.69 591.49)"><tspan class="cls-50">A</tspan><tspan x="8.52" y="0">u</tspan><tspan class="cls-51" x="17.04" y="0">s</tspan><tspan class="cls-42" x="23.3" y="0">t</tspan><tspan class="cls-52" x="27.96" y="0">r</tspan><tspan class="cls-49" x="33.68" y="0">alia</tspan></text><text class="cls-39" transform="translate(97.19 667.56)">Canada</text><text class="cls-39" transform="translate(94.82 743.69)">Belgium</text><text class="cls-39" transform="translate(112.71 819.82)">UK</text><text class="cls-39" transform="translate(103.47 896.02)">Spain</text><text class="cls-39" transform="translate(88.47 972.27)"><tspan class="cls-53">V</tspan><tspan x="7.35" y="0">enezuela</tspan></text><text class="cls-39" transform="translate(82.26 1048.25)"><tspan class="cls-54">N</tspan><tspan x="9.82" y="0">ethe</tspan><tspan class="cls-47" x="38.42" y="0">r</tspan><tspan class="cls-49" x="44.06" y="0">lands</tspan></text><text class="cls-39" transform="translate(79.22 1124.18)"><tspan class="cls-54">N</tspan><tspan class="cls-55" x="9.82" y="0">e</tspan><tspan x="17.43" y="0">w Zealand</tspan></text><text class="cls-39" transform="translate(79.33 1200.62)">Da<tspan class="cls-56" x="18.02" y="0">t</tspan><tspan x="22.7" y="0">aset </tspan><tspan class="cls-57" x="53.85" y="0">T</tspan><tspan class="cls-50" x="60.09" y="0">o</tspan><tspan class="cls-56" x="68.15" y="0">t</tspan><tspan x="72.83" y="0">al</tspan></text><g class="cls-58"><line class="cls-59" x1="436.45" y1="364.84" x2="436.45" y2="366.34"/><line class="cls-60" x1="436.45" y1="369.34" x2="436.45" y2="1229.75"/><line class="cls-59" x1="436.45" y1="1231.25" x2="436.45" y2="1232.75"/></g><g class="cls-58"><line class="cls-59" x1="545.15" y1="364.84" x2="545.15" y2="366.34"/><line class="cls-60" x1="545.15" y1="369.34" x2="545.15" y2="1229.75"/><line class="cls-59" x1="545.15" y1="1231.25" x2="545.15" y2="1232.75"/></g><g class="cls-58"><line class="cls-59" x1="653.85" y1="364.84" x2="653.85" y2="366.34"/><line class="cls-60" x1="653.85" y1="369.34" x2="653.85" y2="1229.75"/><line class="cls-59" x1="653.85" y1="1231.25" x2="653.85" y2="1232.75"/></g><text class="cls-61" transform="translate(372.42 567.73)">72%</text><text class="cls-61" transform="translate(479.46 506.85)">50%</text><text class="cls-61" transform="translate(588.15 523.24)">29%</text><text class="cls-61" transform="translate(697.35 608.41)"><tspan class="cls-62">1</tspan><tspan x="5.68" y="0">6%</tspan></text><text class="cls-61" transform="translate(700.19 462.76)">8%</text><text class="cls-61" transform="translate(479.46 674.25)">30%</text><text class="cls-61" transform="translate(372.92 717.07)"><tspan class="cls-62">7</tspan><tspan x="5.68" y="0">4%</tspan></text><text class="cls-61" transform="translate(372.67 813.91)"><tspan class="cls-63">4</tspan><tspan x="6.18" y="0">7%</tspan></text><text class="cls-61" transform="translate(372.54 883.44)"><tspan class="cls-64">5</tspan><tspan x="6.43" y="0">7%</tspan></text><text class="cls-61" transform="translate(482.79 1002.21)">0%</text><text class="cls-61" transform="translate(591.49 1002.21)">0%</text><text class="cls-61" transform="translate(591.49 1153.84)">0%</text><text class="cls-61" transform="translate(700.19 1153.84)">0%</text><text class="cls-61" transform="translate(700.19 1002.21)">0%</text><text class="cls-61" transform="translate(700.19 697.29)">0%</text><text class="cls-61" transform="translate(591.49 621.6)">0%</text><text class="cls-61" transform="translate(479.95 839.32)"><tspan class="cls-65">1</tspan><tspan x="5.69" y="0">3%</tspan></text><rect class="cls-7" x="351.61" y="569.79" width="64.31" height="53.86"/><text class="cls-61" transform="translate(372.42 439.38)">39%</text><rect class="cls-7" x="351.61" y="441.38" width="64.31" height="29.76"/><rect class="cls-8" x="676.04" y="611.15" width="64.31" height="12.34"/><text class="cls-61" transform="translate(482.79 617.37)">4%</text><rect class="cls-8" x="458.65" y="620.6" width="64.31" height="3.11"/><text class="cls-61" transform="translate(375.76 541.07)">4%</text><rect class="cls-8" x="351.61" y="544.29" width="64.31" height="3.11"/><rect class="cls-8" x="676.04" y="1067.06" width="64.31" height="12.8"/><text class="cls-61" transform="translate(479.99 1063.83)"><tspan class="cls-66">1</tspan><tspan x="5.61" y="0">7%</tspan></text><rect class="cls-8" x="458.65" y="1066.83" width="64.31" height="12.8"/><text class="cls-61" transform="translate(588.68 1063.83)"><tspan class="cls-66">1</tspan><tspan x="5.61" y="0">7%</tspan></text><rect class="cls-8" x="567.35" y="1066.82" width="64.31" height="12.8"/><text class="cls-61" transform="translate(479.99 1140.2)"><tspan class="cls-66">1</tspan><tspan x="5.61" y="0">7%</tspan></text><rect class="cls-8" x="458.65" y="1143.19" width="64.31" height="12.8"/><rect class="cls-8" x="567.35" y="525.01" width="64.31" height="22.11"/><text class="cls-61" transform="translate(697.54 765.39)"><tspan class="cls-67">1</tspan><tspan x="5.29" y="0">1%</tspan></text><rect class="cls-8" x="676.04" y="767.51" width="64.31" height="8.23"/><rect class="cls-8" x="676.04" y="465.02" width="64.31" height="6.12"/><rect class="cls-7" x="458.65" y="508.85" width="64.31" height="38.27"/><text class="cls-61" transform="translate(479.46 450.63)">22%</text><text class="cls-61" transform="translate(588.24 448.2)"><tspan class="cls-68">2</tspan><tspan x="6.49" y="0">7%</tspan></text><rect class="cls-8" x="458.65" y="454.23" width="64.31" height="16.91"/><text class="cls-61" transform="translate(588.15 678.59)">22%</text><rect class="cls-8" x="567.35" y="682.19" width="64.31" height="16.91"/><rect class="cls-8" x="567.35" y="450.63" width="64.31" height="20.57"/><text class="cls-61" transform="translate(479.55 1208.64)"><tspan class="cls-68">2</tspan><tspan x="6.49" y="0">7%</tspan></text><rect class="cls-8" x="458.65" y="1212.07" width="64.31" height="20.57"/><text class="cls-61" transform="translate(372.39 1197.29)"><tspan class="cls-69">4</tspan><tspan x="6.72" y="0">4%</tspan></text><rect class="cls-7" x="351.61" y="1199.3" width="64.31" height="33.45"/><rect class="cls-8" x="676.04" y="1229.69" width="64.31" height="2.83"/><text class="cls-61" transform="translate(588.68 1216.88)"><tspan class="cls-70">1</tspan><tspan x="5.61" y="0">7%</tspan></text><text class="cls-61" transform="translate(700.19 1227.67)">6%</text><rect class="cls-8" x="567.35" y="1219.04" width="64.31" height="13.71"/><text class="cls-61" transform="translate(697.29 914.57)"><tspan class="cls-71">1</tspan><tspan x="5.79" y="0">4%</tspan></text><rect class="cls-8" x="676.04" y="917.48" width="64.31" height="10.51"/><rect class="cls-8" x="458.65" y="841.67" width="64.31" height="10.05"/><text class="cls-61" transform="translate(482.79 769.29)">5%</text><rect class="cls-8" x="458.65" y="771.48" width="64.31" height="3.83"/><text class="cls-61" transform="translate(591.49 769.53)">5%</text><rect class="cls-8" x="567.35" y="771.73" width="64.31" height="3.83"/><rect class="cls-8" x="458.65" y="676.69" width="64.31" height="22.68"/><text class="cls-61" transform="translate(372.42 660.94)">48%</text><rect class="cls-7" x="351.61" y="662.51" width="64.31" height="36.85"/><rect class="cls-7" x="351.61" y="718.69" width="64.31" height="56.69"/><rect class="cls-7" x="351.61" y="815.91" width="64.31" height="35.72"/><rect class="cls-7" x="351.61" y="886.75" width="64.31" height="41.13"/><rect class="cls-7" x="351.61" y="928.42" width="64.31" height="75.72"/><rect class="cls-7" x="351.61" y="1092.43" width="64.31" height="63.5"/><text class="cls-61" transform="translate(697.38 1064.74)"><tspan class="cls-70">1</tspan><tspan x="5.61" y="0">7%</tspan></text><text class="cls-61" transform="translate(588.15 821.94)">33%</text><rect class="cls-8" x="567.35" y="826.04" width="64.31" height="25.59"/><text class="cls-61" transform="translate(372.42 1057.92)">25%</text><rect class="cls-7" x="351.61" y="1061.34" width="64.31" height="18.28"/><line class="cls-14" x1="329.26" y1="623.65" x2="762.55" y2="623.65"/><line class="cls-14" x1="327.76" y1="775.5" x2="762.55" y2="775.5"/><line class="cls-14" x1="329.26" y1="699.36" x2="762.55" y2="699.36"/><line class="cls-14" x1="329.26" y1="471.14" x2="762.55" y2="471.14"/><line class="cls-14" x1="327.76" y1="1079.85" x2="762.55" y2="1079.85"/><line class="cls-14" x1="327.76" y1="1155.99" x2="762.55" y2="1155.99"/><line class="cls-14" x1="58.3" y1="1232.75" x2="185.63" y2="1232.75"/><line class="cls-14" x1="206.26" y1="1232.75" x2="284.46" y2="1232.75"/><line class="cls-14" x1="327.76" y1="1232.75" x2="762.55" y2="1232.75"/><text class="cls-61" transform="translate(372.42 1128.99)">83%</text><text class="cls-61" transform="translate(369.49 971.09)"><tspan class="cls-72">1</tspan><tspan x="5.86" y="0">00%</tspan></text><text class="cls-61" transform="translate(482.79 920.18)">7%</text><rect class="cls-8" x="458.65" y="922.41" width="64.31" height="5.1"/><text class="cls-61" transform="translate(591.49 920.36)">7%</text><rect class="cls-8" x="567.35" y="922.59" width="64.31" height="5.1"/><text class="cls-61" transform="translate(700.19 844.15)">7%</text><rect class="cls-8" x="676.04" y="846.38" width="64.31" height="5.1"/><text class="cls-61" transform="translate(700.19 540.01)">7%</text><rect class="cls-8" x="676.04" y="542.24" width="64.31" height="5.1"/><line class="cls-14" x1="327.76" y1="927.88" x2="762.55" y2="927.88"/><line class="cls-14" x1="327.76" y1="1004.13" x2="762.55" y2="1004.13"/><line class="cls-14" x1="329.26" y1="547.39" x2="762.55" y2="547.39"/><line class="cls-14" x1="327.76" y1="851.63" x2="762.55" y2="851.63"/></svg>