<svg id="Layer_1" data-name="Layer 1" xmlns="http://www.w3.org/2000/svg" viewBox="0 0 1178.79 234.91"><defs><style>.cls-1{isolation:isolate;}.cls-2{fill:none;stroke:#000;stroke-miterlimit:10;}.cls-3{fill:#0e2104;}.cls-4{fill:#7aa25c;}.cls-5{fill:#ffc85e;}.cls-6{fill:#cab2d6;}.cls-7{fill:#d84b2a;}.cls-8{fill:#ee8a0d;}.cls-9{fill:#60c6be;}.cls-10{fill:#673ab7;}.cls-11{fill:#d83ac5;}</style></defs><title>all_bubbles_TITLE-02</title><g class="cls-1"><g class="cls-1"><path d="M7.47,16.72H28.38v5.62h-7.2V64.42h-6.3V22.34H7.47Z" transform="translate(-7.47 -11.31)"/></g><g class="cls-1"><path d="M48.64,48.7q0,16.22-10,16.22t-10-16.47q0-16.53,10-16.53a9.63,9.63,0,0,1,4.5,1A7.91,7.91,0,0,1,46.2,36,16.06,16.06,0,0,1,48,41.19,40.54,40.54,0,0,1,48.64,48.7Zm-6.12-.15q0-6.3-.83-8.77t-3-2.5q-2.1,0-3,2.47t-.83,8.62q0,6.15.83,8.59t3,2.47q2.1,0,2.94-2.44Q42.52,54.69,42.53,48.54Z" transform="translate(-7.47 -11.31)"/><path d="M54.14,77.52V32.45H60v4.14a10.09,10.09,0,0,1,2.53-3.65,5.34,5.34,0,0,1,3.4-1q4,0,5.79,4.09t1.84,12.8q0,8.53-1.88,12.26a6.21,6.21,0,0,1-6,3.83,5.49,5.49,0,0,1-3.24-.9,5.8,5.8,0,0,1-1.24-1.24A14.4,14.4,0,0,1,60,60.84V77.52ZM67.49,48.6q0-6.52-.87-8.84-.83-2.5-3-2.5t-2.9,2.59q-.87,2.41-.87,8.59T60.72,57q.9,2.56,2.9,2.56t3-2.47Q67.49,54.84,67.49,48.6Z" transform="translate(-7.47 -11.31)"/><path d="M98.44,29.51H92.33V28.24a24.05,24.05,0,0,1,.54-5.47A9.65,9.65,0,0,1,94.57,19a6.78,6.78,0,0,1,3-2.18,11.89,11.89,0,0,1,4.29-.7q5.25,0,7.66,3t2.41,9.42q0,5.31-1.11,7.66a7.23,7.23,0,0,1-4.17,3.61,7.7,7.7,0,0,1,4.6,3.55q1.27,2.38,1.27,7.63,0,7.2-2.72,10.6T101.29,65q-9.82,0-9.82-11.28v-.83a1.77,1.77,0,0,1,0-.43h6q0,.52,0,.91t0,.63a6.44,6.44,0,0,0,1.07,3.89,3.42,3.42,0,0,0,2.92,1.45,4.12,4.12,0,0,0,2.05-.48,3.54,3.54,0,0,0,1.39-1.54,9.05,9.05,0,0,0,.79-2.76,29.15,29.15,0,0,0,.25-4.11q0-4.35-1.31-6.27a4.92,4.92,0,0,0-4.37-1.92,6.42,6.42,0,0,0-.74,0l-.93.11V36.83h.9q3.74,0,5.07-1.61t1.33-6.09q0-7.42-3.74-7.42t-3.71,6.33Z" transform="translate(-7.47 -11.31)"/><path d="M144.57,33.06v6a3.72,3.72,0,0,0-3-1.51q-4.88,0-4.88,10.57,0,11.21,4.85,11.21a5.21,5.21,0,0,0,3-1.21v5.53a10.12,10.12,0,0,1-4.76,1.24q-9.52,0-9.52-16.19,0-8.62,2.35-12.71a7.83,7.83,0,0,1,7.29-4.09A10.14,10.14,0,0,1,144.57,33.06Z" transform="translate(-7.47 -11.31)"/><path d="M167.83,32.45v32h-5.9V60.31a10.26,10.26,0,0,1-2.53,3.61,5.27,5.27,0,0,1-3.34,1q-4,0-5.84-4.08T148.37,48q0-8.31,1.85-12.22a6.12,6.12,0,0,1,5.84-3.91q3.64,0,5.87,4.14V32.45ZM154.48,48.29q0,6.3.83,8.8t3,2.5q2,0,2.87-2.59a30.06,30.06,0,0,0,.9-8.56,30.22,30.22,0,0,0-.9-8.59q-.9-2.59-2.87-2.59t-3,2.47Q154.48,42,154.48,48.29Z" transform="translate(-7.47 -11.31)"/></g><g class="cls-1"><path d="M175.24,23.49h5.9v9h3.21v4.7h-3.21V64.42h-5.9V37.14H172v-4.7h3.24Z" transform="translate(-7.47 -11.31)"/></g><g class="cls-1"><path d="M200.88,53.64h5.5q-.65,11.28-9.27,11.28a9.41,9.41,0,0,1-4.4-1,7.69,7.69,0,0,1-3-3,15.31,15.31,0,0,1-1.78-5.1,41,41,0,0,1-.57-7.35q0-8.47,2.36-12.54A7.87,7.87,0,0,1,197,31.92q9.61,0,9.61,16.93v.74H193.1q0,10.26,4.08,10.26Q200.88,59.85,200.88,53.64Zm-.31-8.31q-.37-5-1.14-6.61A2.69,2.69,0,0,0,196.84,37a2.66,2.66,0,0,0-2.6,1.76q-.77,1.57-1.14,6.61Z" transform="translate(-7.47 -11.31)"/><path d="M224.24,32.45h5.93v33q0,5.93-1.17,8.22-2.16,4.2-8.68,4.2a9.1,9.1,0,0,1-6.73-2.44,9,9,0,0,1-2.47-6.64l0-1h5.72q0,5.1,3.8,5.1a3,3,0,0,0,2.81-1.3q.77-1.23.77-4.91V60.53q-1.88,4.39-5.78,4.39A6.23,6.23,0,0,1,212.55,61q-1.9-3.89-1.9-12.17,0-8.77,1.82-12.94a6.12,6.12,0,0,1,6-4,5.1,5.1,0,0,1,3.21,1,11.28,11.28,0,0,1,2.59,3.4Zm.09,16.28q0-11.46-4-11.46-1.89,0-2.75,2.58a28.37,28.37,0,0,0-.87,8.26,32,32,0,0,0,.9,8.87q.93,2.63,3.09,2.63t2.81-2.35Q224.33,55.06,224.33,48.73Z" transform="translate(-7.47 -11.31)"/><path d="M255.72,48.7q0,16.22-10,16.22t-10-16.47q0-16.53,10-16.53a9.63,9.63,0,0,1,4.5,1A7.91,7.91,0,0,1,253.28,36a16.06,16.06,0,0,1,1.84,5.22A40.54,40.54,0,0,1,255.72,48.7Zm-6.12-.15q0-6.3-.83-8.77t-3-2.5q-2.1,0-3,2.47T242,48.36q0,6.15.83,8.59t3,2.47q2.1,0,2.94-2.44Q249.6,54.69,249.6,48.54Z" transform="translate(-7.47 -11.31)"/></g><g class="cls-1"><path d="M261.22,32.45h5.9v4a11.28,11.28,0,0,1,3-3.55A7.69,7.69,0,0,1,274,31.7v6.18a7.17,7.17,0,0,0-1.05-.09q-3.18,0-4.54,1.64T267.12,45V64.42h-5.9Z" transform="translate(-7.47 -11.31)"/></g><g class="cls-1"><path d="M281,18.85a4,4,0,0,1,4,4,4,4,0,1,1-8,0A3.8,3.8,0,0,1,278.14,20,4.11,4.11,0,0,1,281,18.85Zm-2.78,13.59h5.93v32h-5.93Z" transform="translate(-7.47 -11.31)"/><path d="M303.17,53.64h5.5Q308,64.92,299.4,64.91a9.41,9.41,0,0,1-4.4-1,7.69,7.69,0,0,1-3-3,15.31,15.31,0,0,1-1.78-5.1,41,41,0,0,1-.57-7.35q0-8.47,2.36-12.54a7.87,7.87,0,0,1,7.31-4.08q9.61,0,9.61,16.93v.74h-13.5q0,10.26,4.08,10.26Q303.17,59.85,303.17,53.64Zm-.31-8.31q-.37-5-1.14-6.61A2.69,2.69,0,0,0,299.12,37a2.66,2.66,0,0,0-2.6,1.76q-.77,1.57-1.14,6.61Z" transform="translate(-7.47 -11.31)"/><path d="M326.49,33.09v5.53A7.5,7.5,0,0,0,322,37a3.89,3.89,0,0,0-1.48.28,3.84,3.84,0,0,0-1.19.76,3.48,3.48,0,0,0-.8,1.14,3.43,3.43,0,0,0-.29,1.41q0,2.29,4.14,5.44a30,30,0,0,1,2.78,2.41,11,11,0,0,1,1.7,2.1,9.19,9.19,0,0,1,1.2,4.91,9.5,9.5,0,0,1-2.5,6.89,8.8,8.8,0,0,1-6.64,2.56,10.33,10.33,0,0,1-5.19-1.51V57.69a8.24,8.24,0,0,0,4.85,1.92q4,0,4-4a4.42,4.42,0,0,0-.74-2.56,7,7,0,0,0-1.08-1.22q-.74-.7-1.82-1.56a24,24,0,0,1-5.07-4.88,9,9,0,0,1-1.3-4.91,8.76,8.76,0,0,1,2.38-6.33,8.43,8.43,0,0,1,6.27-2.44A11,11,0,0,1,326.49,33.09Z" transform="translate(-7.47 -11.31)"/><path d="M364.09,32.45v32h-5.9V60.31a10.26,10.26,0,0,1-2.53,3.61,5.27,5.27,0,0,1-3.34,1q-4,0-5.84-4.08T344.63,48q0-8.31,1.85-12.22a6.12,6.12,0,0,1,5.84-3.91q3.64,0,5.87,4.14V32.45ZM350.74,48.29q0,6.3.83,8.8t3,2.5q2,0,2.87-2.59a30.06,30.06,0,0,0,.9-8.56,30.22,30.22,0,0,0-.9-8.59q-.9-2.59-2.87-2.59t-3,2.47Q350.74,42,350.74,48.29Z" transform="translate(-7.47 -11.31)"/><path d="M370.79,32.45h5.9v3.68q2.53-4.2,6.55-4.2A5.83,5.83,0,0,1,388.8,35q.93,1.73.93,6.7V64.42h-5.9l0-21.38a9.94,9.94,0,0,0-.77-4.6,2.8,2.8,0,0,0-2.66-1.36,3.75,3.75,0,0,0-1.71.36,2.69,2.69,0,0,0-1.13,1.14,6.37,6.37,0,0,0-.63,2.05,20.34,20.34,0,0,0-.2,3.12V64.42h-5.9Z" transform="translate(-7.47 -11.31)"/><path d="M414.66,11.93V64.42h-5.9V60.31a10.26,10.26,0,0,1-2.53,3.61,5.32,5.32,0,0,1-3.37,1q-4,0-5.81-4.06T395.2,48.08a49.19,49.19,0,0,1,.46-7.26,18.12,18.12,0,0,1,1.41-5,6.8,6.8,0,0,1,2.43-2.92,6.43,6.43,0,0,1,3.52-.94,5.3,5.3,0,0,1,3.21.93,6.45,6.45,0,0,1,1.27,1.24,12.24,12.24,0,0,1,1.27,2V11.93ZM401.32,48.29q0,6.3.83,8.8t3,2.5q2,0,2.87-2.59a30.06,30.06,0,0,0,.9-8.56,30.22,30.22,0,0,0-.9-8.59q-.9-2.59-2.87-2.59t-3,2.47Q401.32,42,401.32,48.29Z" transform="translate(-7.47 -11.31)"/><path d="M434.46,32.45h5.9v3.68q2.53-4.2,6.55-4.2A5.83,5.83,0,0,1,452.48,35q.93,1.73.93,6.7V64.42h-5.9l0-21.38a9.94,9.94,0,0,0-.77-4.6A2.8,2.8,0,0,0,444,37.08a3.75,3.75,0,0,0-1.71.36,2.69,2.69,0,0,0-1.13,1.14,6.37,6.37,0,0,0-.63,2.05,20.34,20.34,0,0,0-.2,3.12V64.42h-5.9Z" transform="translate(-7.47 -11.31)"/><path d="M460.08,32.45H466V53.82a8.47,8.47,0,0,0,.88,4.23,3,3,0,0,0,2.73,1.27,3.24,3.24,0,0,0,2.81-1.11,7.58,7.58,0,0,0,.8-4.08V32.45h5.9V51.57q0,6.7-1,9-2.07,4.39-8.59,4.39-5.13,0-7.29-2.59t-2.16-8.74Z" transform="translate(-7.47 -11.31)"/><path d="M485.78,32.45h5.9v4q2.44-4.48,6.49-4.48,4.42,0,6,4.48,2.35-4.48,6.67-4.48A7,7,0,0,1,516,33.7a7.1,7.1,0,0,1,1.78,5.24V64.42h-5.93v-21q0-3.62-.68-4.85a2.57,2.57,0,0,0-2.53-1.27,3.09,3.09,0,0,0-2.9,1.3q-.74,1.27-.74,4.82v21h-6.12v-21a20.5,20.5,0,0,0-.17-2.87,5.44,5.44,0,0,0-.57-1.88,2.48,2.48,0,0,0-1.05-1,3.58,3.58,0,0,0-1.61-.32,3.15,3.15,0,0,0-2.9,1.39,9.45,9.45,0,0,0-.86,4.73v21h-5.9Z" transform="translate(-7.47 -11.31)"/><path d="M524.43,11.93h5.9V36.06a12.2,12.2,0,0,1,1.27-2,6.44,6.44,0,0,1,1.27-1.24,5.21,5.21,0,0,1,3.21-.93,6.43,6.43,0,0,1,3.52.94A6.8,6.8,0,0,1,542,35.78a18.12,18.12,0,0,1,1.41,5,49.19,49.19,0,0,1,.46,7.26q0,8.71-1.85,12.77t-5.81,4.06a5.32,5.32,0,0,1-3.37-1,10.25,10.25,0,0,1-2.53-3.61v4.11h-5.9ZM537.77,48.6q0-6.52-.87-8.84-.83-2.5-3-2.5T531,39.8q-.83,2.5-.83,8.65T531,57.1q.83,2.5,2.87,2.5t3-2.47Q537.77,54.84,537.77,48.6Z" transform="translate(-7.47 -11.31)"/><path d="M561.75,53.64h5.5Q566.6,64.92,558,64.91a9.41,9.41,0,0,1-4.4-1,7.69,7.69,0,0,1-3-3,15.31,15.31,0,0,1-1.78-5.1,41,41,0,0,1-.57-7.35q0-8.47,2.36-12.54a7.87,7.87,0,0,1,7.31-4.08q9.61,0,9.61,16.93v.74H554q0,10.26,4.08,10.26Q561.75,59.85,561.75,53.64Zm-.31-8.31q-.37-5-1.14-6.61A2.69,2.69,0,0,0,557.7,37a2.66,2.66,0,0,0-2.6,1.76q-.77,1.57-1.14,6.61Z" transform="translate(-7.47 -11.31)"/><path d="M572.71,32.45h5.9v4a11.28,11.28,0,0,1,3-3.55,7.69,7.69,0,0,1,3.92-1.17v6.18a7.17,7.17,0,0,0-1.05-.09q-3.18,0-4.54,1.64T578.61,45V64.42h-5.9Z" transform="translate(-7.47 -11.31)"/><path d="M621.59,48.7q0,16.22-10,16.22t-10-16.47q0-16.53,10-16.53a9.63,9.63,0,0,1,4.5,1A7.91,7.91,0,0,1,619.15,36,16.06,16.06,0,0,1,621,41.19,40.58,40.58,0,0,1,621.59,48.7Zm-6.12-.15q0-6.3-.83-8.77t-3-2.5q-2.1,0-3,2.47t-.83,8.62q0,6.15.83,8.59t3,2.47q2.1,0,2.93-2.44Q615.47,54.69,615.47,48.54Z" transform="translate(-7.47 -11.31)"/><path d="M624.83,32.45h3V21.29q0-5.47,1.61-7.72T635,11.31a12,12,0,0,1,4,.83v6.24a5.4,5.4,0,0,0-2.5-.77,2.45,2.45,0,0,0-2.15.9,5.42,5.42,0,0,0-.63,3l0,2.41v8.5h5v4.7h-5V64.42h-5.9V37.14h-3Z" transform="translate(-7.47 -11.31)"/><path d="M656,16.72h6.43V39.83l9-23.11h6.49l-9.39,23.11,10.13,24.59h-7.23l-9-24.59V64.42H656Z" transform="translate(-7.47 -11.31)"/><path d="M685.1,18.85a4,4,0,0,1,4,4,4,4,0,1,1-8,0A3.8,3.8,0,0,1,682.23,20,4.11,4.11,0,0,1,685.1,18.85Zm-2.78,13.59h5.93v32h-5.93Z" transform="translate(-7.47 -11.31)"/></g><g class="cls-1"><path d="M707.94,33.06v6a3.72,3.72,0,0,0-3-1.51q-4.88,0-4.88,10.57,0,11.21,4.85,11.21a5.21,5.21,0,0,0,3-1.21v5.53a10.12,10.12,0,0,1-4.76,1.24q-9.52,0-9.52-16.19,0-8.62,2.35-12.71a7.83,7.83,0,0,1,7.29-4.09A10.14,10.14,0,0,1,707.94,33.06Z" transform="translate(-7.47 -11.31)"/></g><g class="cls-1"><path d="M712.58,11.93h5.9V46.69L726,32.45h6.67L724.5,46.69l9.24,17.73h-6.92l-8.34-17v17h-5.9Z" transform="translate(-7.47 -11.31)"/></g><g class="cls-1"><path d="M750.17,33.09v5.53A7.5,7.5,0,0,0,745.63,37a3.89,3.89,0,0,0-1.48.28,3.84,3.84,0,0,0-1.19.76,3.48,3.48,0,0,0-.8,1.14,3.43,3.43,0,0,0-.29,1.41q0,2.29,4.14,5.44a30.06,30.06,0,0,1,2.78,2.41,11,11,0,0,1,1.7,2.1,9.19,9.19,0,0,1,1.2,4.91,9.5,9.5,0,0,1-2.5,6.89,8.8,8.8,0,0,1-6.64,2.56,10.33,10.33,0,0,1-5.19-1.51V57.69a8.24,8.24,0,0,0,4.85,1.92q4,0,4-4a4.42,4.42,0,0,0-.74-2.56,7,7,0,0,0-1.08-1.22q-.74-.7-1.82-1.56a24,24,0,0,1-5.07-4.88,9,9,0,0,1-1.3-4.91,8.76,8.76,0,0,1,2.38-6.33,8.42,8.42,0,0,1,6.27-2.44A11,11,0,0,1,750.17,33.09Z" transform="translate(-7.47 -11.31)"/></g><g class="cls-1"><path d="M757.44,23.49h5.9v9h3.21v4.7h-3.21V64.42h-5.9V37.14h-3.24v-4.7h3.24Z" transform="translate(-7.47 -11.31)"/></g><g class="cls-1"><path d="M789.1,32.45v32h-5.9V60.31a10.27,10.27,0,0,1-2.53,3.61,5.27,5.27,0,0,1-3.34,1q-4,0-5.84-4.08T769.64,48q0-8.31,1.85-12.22a6.12,6.12,0,0,1,5.84-3.91q3.64,0,5.87,4.14V32.45ZM775.76,48.29q0,6.3.83,8.8t3,2.5q2,0,2.87-2.59a30,30,0,0,0,.9-8.56,30.19,30.19,0,0,0-.9-8.59q-.9-2.59-2.87-2.59t-3,2.47Q775.76,42,775.76,48.29Z" transform="translate(-7.47 -11.31)"/></g><g class="cls-1"><path d="M795.81,32.45h5.9v4a11.27,11.27,0,0,1,3-3.55,7.68,7.68,0,0,1,3.92-1.17v6.18a7.16,7.16,0,0,0-1-.09q-3.18,0-4.54,1.64T801.71,45V64.42h-5.9Z" transform="translate(-7.47 -11.31)"/></g><g class="cls-1"><path d="M814.74,23.49h5.9v9h3.21v4.7h-3.21V64.42h-5.9V37.14h-3.24v-4.7h3.24Z" transform="translate(-7.47 -11.31)"/></g><g class="cls-1"><path d="M840.38,53.64h5.5q-.65,11.28-9.27,11.28a9.41,9.41,0,0,1-4.4-1,7.69,7.69,0,0,1-3-3,15.3,15.3,0,0,1-1.78-5.1,40.93,40.93,0,0,1-.57-7.35q0-8.47,2.36-12.54a7.87,7.87,0,0,1,7.31-4.08q9.61,0,9.61,16.93v.74H832.6q0,10.26,4.08,10.26Q840.38,59.85,840.38,53.64Zm-.31-8.31q-.37-5-1.14-6.61A2.69,2.69,0,0,0,836.34,37a2.66,2.66,0,0,0-2.59,1.76q-.77,1.57-1.14,6.61Z" transform="translate(-7.47 -11.31)"/><path d="M851.35,32.45h5.9v4a11.27,11.27,0,0,1,3-3.55,7.68,7.68,0,0,1,3.92-1.17v6.18a7.16,7.16,0,0,0-1-.09q-3.18,0-4.54,1.64T857.25,45V64.42h-5.9Z" transform="translate(-7.47 -11.31)"/><path d="M881.35,77.52V32.45h5.9v4.14a10.09,10.09,0,0,1,2.53-3.65,5.34,5.34,0,0,1,3.4-1q4,0,5.79,4.09t1.84,12.8q0,8.53-1.88,12.26a6.21,6.21,0,0,1-6,3.83,5.49,5.49,0,0,1-3.24-.9,5.81,5.81,0,0,1-1.24-1.24,14.4,14.4,0,0,1-1.24-1.95V77.52ZM894.7,48.6q0-6.52-.87-8.84-.83-2.5-3-2.5t-2.9,2.59q-.87,2.41-.87,8.59t.87,8.59q.9,2.56,2.9,2.56t3-2.47Q894.69,54.84,894.7,48.6Z" transform="translate(-7.47 -11.31)"/></g><g class="cls-1"><path d="M906.31,32.45h5.9v4a11.27,11.27,0,0,1,3-3.55,7.68,7.68,0,0,1,3.92-1.17v6.18a7.16,7.16,0,0,0-1-.09q-3.18,0-4.54,1.64T912.21,45V64.42h-5.9Z" transform="translate(-7.47 -11.31)"/></g><g class="cls-1"><path d="M942.26,48.7q0,16.22-10,16.22t-10-16.47q0-16.53,10-16.53a9.63,9.63,0,0,1,4.5,1A7.91,7.91,0,0,1,939.82,36a16.06,16.06,0,0,1,1.84,5.22A40.58,40.58,0,0,1,942.26,48.7Zm-6.12-.15q0-6.3-.83-8.77t-3-2.5q-2.1,0-3,2.47t-.83,8.62q0,6.15.83,8.59t3,2.47q2.1,0,2.93-2.44Q936.14,54.69,936.15,48.54Z" transform="translate(-7.47 -11.31)"/><path d="M950.54,18.85a4,4,0,0,1,4,4,4,4,0,1,1-8,0A3.8,3.8,0,0,1,947.67,20,4.11,4.11,0,0,1,950.54,18.85Zm-2.78,13.59h5.93V77.52h-5.93Z" transform="translate(-7.47 -11.31)"/><path d="M972.69,53.64h5.5q-.65,11.28-9.27,11.28a9.41,9.41,0,0,1-4.4-1,7.69,7.69,0,0,1-3-3,15.3,15.3,0,0,1-1.78-5.1,40.93,40.93,0,0,1-.57-7.35q0-8.47,2.36-12.54a7.87,7.87,0,0,1,7.31-4.08q9.61,0,9.61,16.93v.74h-13.5q0,10.26,4.08,10.26Q972.69,59.85,972.69,53.64Zm-.31-8.31q-.37-5-1.14-6.61A2.69,2.69,0,0,0,968.65,37a2.66,2.66,0,0,0-2.59,1.76q-.77,1.57-1.14,6.61Z" transform="translate(-7.47 -11.31)"/><path d="M996.73,33.06v6a3.72,3.72,0,0,0-3-1.51q-4.88,0-4.88,10.57,0,11.21,4.85,11.21a5.21,5.21,0,0,0,3-1.21v5.53A10.12,10.12,0,0,1,992,64.91q-9.52,0-9.52-16.19,0-8.62,2.35-12.71a7.83,7.83,0,0,1,7.29-4.09A10.14,10.14,0,0,1,996.73,33.06Z" transform="translate(-7.47 -11.31)"/><path d="M1002.44,23.49h5.9v9h3.21v4.7h-3.21V64.42h-5.9V37.14H999.2v-4.7h3.24Z" transform="translate(-7.47 -11.31)"/><path d="M1028.15,33.09v5.53a7.5,7.5,0,0,0-4.54-1.61,3.89,3.89,0,0,0-1.48.28,3.84,3.84,0,0,0-1.19.76,3.48,3.48,0,0,0-.8,1.14,3.43,3.43,0,0,0-.29,1.41q0,2.29,4.14,5.44a30.06,30.06,0,0,1,2.78,2.41,11,11,0,0,1,1.7,2.1,9.19,9.19,0,0,1,1.2,4.91,9.5,9.5,0,0,1-2.5,6.89,8.8,8.8,0,0,1-6.64,2.56,10.33,10.33,0,0,1-5.19-1.51V57.69a8.24,8.24,0,0,0,4.85,1.92q4,0,4-4a4.42,4.42,0,0,0-.74-2.56,7,7,0,0,0-1.08-1.22q-.74-.7-1.82-1.56a24,24,0,0,1-5.07-4.88,9,9,0,0,1-1.3-4.91,8.76,8.76,0,0,1,2.38-6.33,8.42,8.42,0,0,1,6.27-2.44A11,11,0,0,1,1028.15,33.09Z" transform="translate(-7.47 -11.31)"/><path d="M1036.18,57.75l5.13,1.51L1035.19,76l-3.24-.9Z" transform="translate(-7.47 -11.31)"/></g><g class="cls-1"><path d="M1060.59,11.93h5.9V36.06a12.17,12.17,0,0,1,1.27-2,6.44,6.44,0,0,1,1.27-1.24,5.21,5.21,0,0,1,3.21-.93,6.43,6.43,0,0,1,3.52.94,6.8,6.8,0,0,1,2.42,2.92,18.1,18.1,0,0,1,1.41,5,49.27,49.27,0,0,1,.46,7.26q0,8.71-1.85,12.77t-5.81,4.06a5.32,5.32,0,0,1-3.37-1,10.26,10.26,0,0,1-2.53-3.61v4.11h-5.9Zm13.35,36.67q0-6.52-.87-8.84-.83-2.5-3-2.5t-2.87,2.53q-.83,2.5-.83,8.65a31,31,0,0,0,.83,8.65q.83,2.5,2.87,2.5t3-2.47Q1073.93,54.84,1073.93,48.6Z" transform="translate(-7.47 -11.31)"/></g><g class="cls-1"><path d="M1082.27,32.45h6.67l4.7,22.3,5.5-22.3h6l-13.07,45.07h-6.21l4.91-15.66Z" transform="translate(-7.47 -11.31)"/><path d="M1134.85,33.06v6a3.72,3.72,0,0,0-3-1.51q-4.88,0-4.88,10.57,0,11.21,4.85,11.21a5.21,5.21,0,0,0,3-1.21v5.53a10.12,10.12,0,0,1-4.76,1.24q-9.52,0-9.51-16.19,0-8.62,2.35-12.71a7.83,7.83,0,0,1,7.29-4.09A10.14,10.14,0,0,1,1134.85,33.06Z" transform="translate(-7.47 -11.31)"/><path d="M1142.63,18.85a4,4,0,0,1,4,4,4,4,0,1,1-8,0,3.8,3.8,0,0,1,1.17-2.78A4.11,4.11,0,0,1,1142.63,18.85Zm-2.78,13.59h5.93v32h-5.93Z" transform="translate(-7.47 -11.31)"/><path d="M1153.14,23.49h5.9v9h3.21v4.7H1159V64.42h-5.9V37.14h-3.24v-4.7h3.24Z" transform="translate(-7.47 -11.31)"/><path d="M1163.39,32.45h6.67l4.7,22.3,5.5-22.3h6l-13.07,45.07H1167l4.91-15.66Z" transform="translate(-7.47 -11.31)"/></g></g><line class="cls-2" x1="849.7" y1="89.29" x2="849.7" y2="234.91"/><g class="cls-1"><g class="cls-1"><path d="M1069.3,149.47h2.17l1.65,7.7q.3,1.44.55,2.89t.45,3l0-.32a1.4,1.4,0,0,1,0-.16l.36-2.16.32-2.05.28-1.35,1.49-7.56h2.2l1.7,18.86h-2.43l-.42-6.4,0-.84c0-.24,0-.43,0-.59l-.11-2.53-.06-2.32s0-.05,0-.1l0-.21-.06.38q-.1.67-.18,1.17c-.05.33-.1.61-.14.84l-.32,1.72-.12.65-1.6,8.23h-1.71l-1.48-7.11q-.3-1.4-.54-2.85t-.43-3l-.75,13h-2.39Z" transform="translate(-7.47 -11.31)"/><path d="M1090,162.14q0,6.41-4,6.4t-4-6.52q0-6.53,4-6.53a3.8,3.8,0,0,1,1.78.39,3.12,3.12,0,0,1,1.24,1.21,6.34,6.34,0,0,1,.72,2.06A16,16,0,0,1,1090,162.14Zm-2.42-.07a12.36,12.36,0,0,0-.32-3.47,1.21,1.21,0,0,0-1.17-1,1.24,1.24,0,0,0-1.19,1,17.72,17.72,0,0,0,0,6.8,1.24,1.24,0,0,0,1.18,1,1.2,1.2,0,0,0,1.16-1A10.83,10.83,0,0,0,1087.56,162.08Z" transform="translate(-7.47 -11.31)"/></g><g class="cls-1"><path d="M1092.16,155.72h2.33v1.58a4.47,4.47,0,0,1,1.19-1.4,3,3,0,0,1,1.55-.46v2.44a2.73,2.73,0,0,0-.42,0,2.21,2.21,0,0,0-1.8.64,3.55,3.55,0,0,0-.53,2.22v7.66h-2.33Z" transform="translate(-7.47 -11.31)"/></g><g class="cls-1"><path d="M1103.78,164.12H1106q-.27,4.46-3.67,4.45a3.73,3.73,0,0,1-1.74-.38,3,3,0,0,1-1.2-1.17,6.06,6.06,0,0,1-.7-2,16.19,16.19,0,0,1-.22-2.91,10.2,10.2,0,0,1,.94-5,3.11,3.11,0,0,1,2.89-1.61q3.8,0,3.79,6.7v.29h-5.34q0,4.05,1.6,4.06T1103.78,164.12Zm-.12-3.29a8.56,8.56,0,0,0-.45-2.61,1.07,1.07,0,0,0-1-.7,1.05,1.05,0,0,0-1,.7,8.51,8.51,0,0,0-.46,2.61Z" transform="translate(-7.47 -11.31)"/></g><g class="cls-1"><path d="M1068.23,172.57h2.33l0,9.54a4.75,4.75,0,0,1,.5-.78,2.47,2.47,0,0,1,.5-.49,2.05,2.05,0,0,1,1.27-.36,2.54,2.54,0,0,1,1.39.37,2.7,2.7,0,0,1,1,1.16,7.16,7.16,0,0,1,.55,2,19.38,19.38,0,0,1,.18,2.87,12.92,12.92,0,0,1-.74,5,2.41,2.41,0,0,1-2.3,1.6,2.1,2.1,0,0,1-1.33-.39,4.07,4.07,0,0,1-1-1.43v1.62h-2.33Zm5.25,14.5a11.7,11.7,0,0,0-.33-3.49,1.22,1.22,0,0,0-1.18-1q-.81,0-1.14,1a17.92,17.92,0,0,0,0,6.84c.22.66.6,1,1.13,1a1.24,1.24,0,0,0,1.19-1A11,11,0,0,0,1073.48,187.08Z" transform="translate(-7.47 -11.31)"/><path d="M1085.3,180.71l0,12.64h-2.33v-1.62a4,4,0,0,1-1,1.43,2.07,2.07,0,0,1-1.32.39,2.42,2.42,0,0,1-2.31-1.62,13,13,0,0,1-.72-5.06,11.89,11.89,0,0,1,.74-4.83,2.42,2.42,0,0,1,2.31-1.54,2.61,2.61,0,0,1,2.32,1.64v-1.43ZM1080,187a12.5,12.5,0,0,0,.32,3.48,1.24,1.24,0,0,0,1.2,1q.78,0,1.14-1a16.42,16.42,0,0,0,0-6.78c-.24-.68-.61-1-1.13-1a1.24,1.24,0,0,0-1.19,1A11.07,11.07,0,0,0,1080,187Z" transform="translate(-7.47 -11.31)"/></g><g class="cls-1"><path d="M1093.11,181v2.38a1.47,1.47,0,0,0-1.17-.6q-1.93,0-1.94,4.17,0,4.43,1.91,4.44a2.06,2.06,0,0,0,1.19-.47v2.19a4,4,0,0,1-1.88.48q-3.76,0-3.75-6.41a10.46,10.46,0,0,1,.94-5,3.09,3.09,0,0,1,2.89-1.61A4,4,0,0,1,1093.11,181Z" transform="translate(-7.47 -11.31)"/></g><g class="cls-1"><path d="M1095,172.62h2.33l0,13.74,3-5.62h2.64l-3.23,5.62,3.64,7h-2.74l-3.29-6.72v6.72h-2.33Z" transform="translate(-7.47 -11.31)"/></g><g class="cls-1"><path d="M1109.22,189.13h2.17q-.27,4.46-3.67,4.45a3.73,3.73,0,0,1-1.74-.38,3,3,0,0,1-1.2-1.17,6.06,6.06,0,0,1-.7-2,16.19,16.19,0,0,1-.22-2.91,10.2,10.2,0,0,1,.94-5,3.11,3.11,0,0,1,2.89-1.61q3.8,0,3.79,6.7v.29h-5.34q0,4.05,1.6,4.06T1109.22,189.13Zm-.12-3.29a8.56,8.56,0,0,0-.45-2.61,1.07,1.07,0,0,0-1-.7,1.05,1.05,0,0,0-1,.7,8.51,8.51,0,0,0-.46,2.61Z" transform="translate(-7.47 -11.31)"/></g><g class="cls-1"><path d="M1113.57,180.76h2.33v1.58a4.46,4.46,0,0,1,1.19-1.4,3,3,0,0,1,1.55-.46v2.44a2.73,2.73,0,0,0-.41,0,2.21,2.21,0,0,0-1.8.64,3.55,3.55,0,0,0-.53,2.22v7.66h-2.33Z" transform="translate(-7.47 -11.31)"/></g><g class="cls-1"><path d="M1125.49,181v2.19a3,3,0,0,0-1.79-.64,1.54,1.54,0,0,0-.59.11,1.52,1.52,0,0,0-.47.3,1.37,1.37,0,0,0-.32.45,1.34,1.34,0,0,0-.12.55q0,.9,1.63,2.15a12,12,0,0,1,1.1,1,4.35,4.35,0,0,1,.67.83,3.62,3.62,0,0,1,.47,1.94,3.76,3.76,0,0,1-1,2.72,3.48,3.48,0,0,1-2.63,1,4.08,4.08,0,0,1-2.05-.6v-2.26a3.26,3.26,0,0,0,1.92.76,1.4,1.4,0,0,0,1.6-1.57,1.76,1.76,0,0,0-.29-1,2.86,2.86,0,0,0-.43-.48c-.2-.18-.43-.39-.72-.62a9.51,9.51,0,0,1-2-1.93,3.55,3.55,0,0,1-.51-1.94,3.46,3.46,0,0,1,.95-2.5,3.33,3.33,0,0,1,2.48-1A4.33,4.33,0,0,1,1125.49,181Z" transform="translate(-7.47 -11.31)"/></g></g><g class="cls-1"><g class="cls-1"><path d="M916.53,149.5h6.79v2.15h-4.25v6h3.83v2.15H919v8.6h-2.54Z" transform="translate(-7.47 -11.31)"/></g><g class="cls-1"><path d="M930,164.11h2.17q-.27,4.46-3.67,4.45a3.73,3.73,0,0,1-1.74-.38,3,3,0,0,1-1.2-1.17,6.06,6.06,0,0,1-.7-2,16.19,16.19,0,0,1-.22-2.91,10.2,10.2,0,0,1,.94-5,3.11,3.11,0,0,1,2.89-1.61q3.8,0,3.79,6.7v.29h-5.34q0,4.05,1.6,4.06T930,164.11Zm-.12-3.29a8.56,8.56,0,0,0-.45-2.61,1.07,1.07,0,0,0-1-.7,1.05,1.05,0,0,0-1,.7,8.51,8.51,0,0,0-.46,2.61Z" transform="translate(-7.47 -11.31)"/><path d="M932.84,155.74h2.47l.7,4.07q.21,1.22.37,2.36t.26,2.21l0,.44,0-.46q.1-.88.21-1.62t.23-1.36l.2-1,.88-4.66h1.7l.81,4.67.27,1.47q.08.41.16,1t.14,1.46l0,.45q.22-2.27.63-4.41l.88-4.66h2.3l-3,12.63h-1.61l-1-4.83q-.17-.88-.29-1.8t-.2-2,0-.29c0-.11,0-.25,0-.4q-.07,1.11-.21,2.16t-.33,2.08l-1,5h-1.61Z" transform="translate(-7.47 -11.31)"/></g><g class="cls-1"><path d="M951.63,164.15h2.17q-.26,4.46-3.67,4.45a3.73,3.73,0,0,1-1.74-.38,3,3,0,0,1-1.2-1.17,6,6,0,0,1-.7-2,16.28,16.28,0,0,1-.22-2.91,10.2,10.2,0,0,1,.94-5,3.11,3.11,0,0,1,2.89-1.61q3.8,0,3.79,6.7v.29h-5.34q0,4.05,1.6,4.06T951.63,164.15Zm-.12-3.29a8.56,8.56,0,0,0-.45-2.62,1.07,1.07,0,0,0-1-.7,1.05,1.05,0,0,0-1,.7,8.51,8.51,0,0,0-.46,2.61Z" transform="translate(-7.47 -11.31)"/><path d="M956,155.78h2.33v1.58a4.49,4.49,0,0,1,1.19-1.4,3,3,0,0,1,1.55-.46v2.44l-.42,0a2.22,2.22,0,0,0-1.8.64,3.56,3.56,0,0,0-.53,2.22v7.66H956Z" transform="translate(-7.47 -11.31)"/></g><g class="cls-1"><path d="M902.89,172.58h2.33l0,9.54a4.82,4.82,0,0,1,.5-.78,2.52,2.52,0,0,1,.5-.49,2.06,2.06,0,0,1,1.27-.36,2.55,2.55,0,0,1,1.39.37,2.7,2.7,0,0,1,1,1.16,7.15,7.15,0,0,1,.55,2,19.54,19.54,0,0,1,.18,2.87,12.92,12.92,0,0,1-.74,5,2.41,2.41,0,0,1-2.3,1.6,2.1,2.1,0,0,1-1.33-.39,4,4,0,0,1-1-1.43v1.62h-2.33Zm5.25,14.5a11.7,11.7,0,0,0-.34-3.49,1.22,1.22,0,0,0-1.18-1q-.81,0-1.14,1a17.87,17.87,0,0,0,0,6.84c.22.66.6,1,1.13,1a1.24,1.24,0,0,0,1.19-1A11,11,0,0,0,908.14,187.08Z" transform="translate(-7.47 -11.31)"/><path d="M920,180.72l0,12.64h-2.33v-1.62a4,4,0,0,1-1,1.43,2.08,2.08,0,0,1-1.32.39,2.42,2.42,0,0,1-2.3-1.62,13,13,0,0,1-.72-5.06A11.91,11.91,0,0,1,913,182a2.42,2.42,0,0,1,2.31-1.54,2.62,2.62,0,0,1,2.32,1.64v-1.43ZM914.67,187a12.52,12.52,0,0,0,.32,3.48,1.24,1.24,0,0,0,1.19,1q.78,0,1.14-1a16.37,16.37,0,0,0,0-6.78q-.35-1-1.13-1a1.24,1.24,0,0,0-1.19,1A11.05,11.05,0,0,0,914.67,187Z" transform="translate(-7.47 -11.31)"/></g><g class="cls-1"><path d="M927.78,181v2.38a1.47,1.47,0,0,0-1.17-.6q-1.93,0-1.94,4.17,0,4.43,1.91,4.44a2.06,2.06,0,0,0,1.19-.47v2.19a4,4,0,0,1-1.88.48q-3.76,0-3.75-6.41a10.46,10.46,0,0,1,.94-5,3.09,3.09,0,0,1,2.89-1.61A4,4,0,0,1,927.78,181Z" transform="translate(-7.47 -11.31)"/></g><g class="cls-1"><path d="M929.62,172.63H932l0,13.74,3-5.62h2.64l-3.23,5.62,3.64,7h-2.74l-3.29-6.72v6.72h-2.33Z" transform="translate(-7.47 -11.31)"/></g><g class="cls-1"><path d="M943.89,189.14h2.17q-.27,4.46-3.67,4.45a3.73,3.73,0,0,1-1.74-.38,3,3,0,0,1-1.2-1.17,6.06,6.06,0,0,1-.7-2,16.19,16.19,0,0,1-.22-2.91,10.2,10.2,0,0,1,.94-5,3.11,3.11,0,0,1,2.89-1.61q3.8,0,3.79,6.7v.29h-5.34q0,4.05,1.6,4.06T943.89,189.14Zm-.12-3.29a8.56,8.56,0,0,0-.45-2.61,1.07,1.07,0,0,0-1-.7,1.05,1.05,0,0,0-1,.7,8.51,8.51,0,0,0-.46,2.61Z" transform="translate(-7.47 -11.31)"/></g><g class="cls-1"><path d="M948.24,180.77h2.33v1.58a4.48,4.48,0,0,1,1.19-1.4,3,3,0,0,1,1.55-.46v2.44a2.73,2.73,0,0,0-.41,0,2.21,2.21,0,0,0-1.8.64,3.55,3.55,0,0,0-.53,2.22v7.66h-2.33Z" transform="translate(-7.47 -11.31)"/></g><g class="cls-1"><path d="M960.15,181v2.19a3,3,0,0,0-1.79-.64,1.53,1.53,0,0,0-.59.11,1.51,1.51,0,0,0-.47.3,1.36,1.36,0,0,0-.32.45,1.34,1.34,0,0,0-.12.55q0,.9,1.63,2.15a12.13,12.13,0,0,1,1.1,1,4.39,4.39,0,0,1,.67.83,3.62,3.62,0,0,1,.47,1.94,3.76,3.76,0,0,1-1,2.72,3.48,3.48,0,0,1-2.63,1,4.08,4.08,0,0,1-2.05-.6v-2.26a3.26,3.26,0,0,0,1.92.76,1.4,1.4,0,0,0,1.6-1.57,1.74,1.74,0,0,0-.29-1,2.85,2.85,0,0,0-.43-.48c-.2-.18-.43-.39-.72-.62a9.51,9.51,0,0,1-2-1.93,3.54,3.54,0,0,1-.51-1.94,3.46,3.46,0,0,1,.94-2.5,3.33,3.33,0,0,1,2.48-1A4.33,4.33,0,0,1,960.15,181Z" transform="translate(-7.47 -11.31)"/></g></g><circle class="cls-3" cx="970.86" cy="159.3" r="8.31"/><circle class="cls-3" cx="998.24" cy="159.3" r="12.07"/><circle class="cls-3" cx="1033.38" cy="159.3" r="15.25"/><g class="cls-1"><g class="cls-1"><path d="M466,189.5h8.27v2.22h-2.85l0,16.63h-2.49l0-16.63H466Z" transform="translate(-7.47 -11.31)"/></g><g class="cls-1"><path d="M479.64,204.12h2.17q-.26,4.46-3.67,4.45a3.74,3.74,0,0,1-1.74-.38,3,3,0,0,1-1.2-1.17,6,6,0,0,1-.7-2,16.23,16.23,0,0,1-.22-2.91,10.2,10.2,0,0,1,.94-5,3.11,3.11,0,0,1,2.89-1.61q3.8,0,3.79,6.7v.29h-5.34q0,4.05,1.6,4.06T479.64,204.12Zm-.12-3.29a8.56,8.56,0,0,0-.45-2.61,1.07,1.07,0,0,0-1-.7,1.05,1.05,0,0,0-1,.7,8.51,8.51,0,0,0-.46,2.61Z" transform="translate(-7.47 -11.31)"/></g><g class="cls-1"><path d="M489.16,196v2.38a1.47,1.47,0,0,0-1.17-.6q-1.93,0-1.94,4.17,0,4.43,1.91,4.44a2.06,2.06,0,0,0,1.19-.47v2.19a4,4,0,0,1-1.88.48q-3.76,0-3.75-6.41a10.45,10.45,0,0,1,.94-5,3.09,3.09,0,0,1,2.88-1.61A4,4,0,0,1,489.16,196Z" transform="translate(-7.47 -11.31)"/></g><g class="cls-1"><path d="M491,187.66h2.33l0,9.56a3,3,0,0,1,2.59-1.66,2.3,2.3,0,0,1,2.2,1.21,6.37,6.37,0,0,1,.36,2.65l0,9h-2.33V200a3.94,3.94,0,0,0-.3-1.82,1.11,1.11,0,0,0-1-.54,1.48,1.48,0,0,0-.68.14,1.07,1.07,0,0,0-.45.45,2.5,2.5,0,0,0-.25.81,8,8,0,0,0-.08,1.23v8.17H491Z" transform="translate(-7.47 -11.31)"/><path d="M501.11,195.78h2.33v1.45a3,3,0,0,1,2.59-1.66,2.31,2.31,0,0,1,2.2,1.21,6.39,6.39,0,0,1,.36,2.65l0,9h-2.33V200a3.93,3.93,0,0,0-.3-1.82,1.11,1.11,0,0,0-1-.54,1.49,1.49,0,0,0-.68.14,1.06,1.06,0,0,0-.45.45,2.52,2.52,0,0,0-.25.81,8.06,8.06,0,0,0-.08,1.23v8.17h-2.33Z" transform="translate(-7.47 -11.31)"/><path d="M518.69,202.24q0,6.41-4,6.4t-4-6.52q0-6.53,4-6.53a3.79,3.79,0,0,1,1.78.39,3.12,3.12,0,0,1,1.24,1.21,6.34,6.34,0,0,1,.72,2.07A16,16,0,0,1,518.69,202.24Zm-2.42-.07a12.36,12.36,0,0,0-.32-3.47,1.21,1.21,0,0,0-1.17-1,1.24,1.24,0,0,0-1.19,1,17.71,17.71,0,0,0,0,6.8,1.24,1.24,0,0,0,1.18,1,1.2,1.2,0,0,0,1.16-1A10.82,10.82,0,0,0,516.27,202.17Z" transform="translate(-7.47 -11.31)"/><path d="M520.89,187.71h2.33l0,20.75h-2.33Z" transform="translate(-7.47 -11.31)"/><path d="M533.31,202.26q0,6.41-4,6.4t-4-6.52q0-6.53,4-6.53a3.8,3.8,0,0,1,1.78.39,3.13,3.13,0,0,1,1.24,1.21,6.37,6.37,0,0,1,.72,2.07A16,16,0,0,1,533.31,202.26Zm-2.42-.07a12.4,12.4,0,0,0-.32-3.47,1.21,1.21,0,0,0-1.17-1,1.24,1.24,0,0,0-1.19,1,17.69,17.69,0,0,0,0,6.8,1.24,1.24,0,0,0,1.18,1,1.2,1.2,0,0,0,1.16-1A10.85,10.85,0,0,0,530.89,202.2Z" transform="translate(-7.47 -11.31)"/><path d="M540.39,195.85h2.34l0,13a7.86,7.86,0,0,1-.47,3.25q-.86,1.66-3.43,1.66a3.6,3.6,0,0,1-2.66-1,3.55,3.55,0,0,1-1-2.63v-.39h2.26q0,2,1.5,2a1.17,1.17,0,0,0,1.11-.51,4.11,4.11,0,0,0,.31-1.94V207a2.43,2.43,0,0,1-2.29,1.73,2.46,2.46,0,0,1-2.34-1.54,11.56,11.56,0,0,1-.74-4.81,13.55,13.55,0,0,1,.73-5.11,2.42,2.42,0,0,1,2.36-1.57,2,2,0,0,1,1.27.38,4.45,4.45,0,0,1,1,1.35Zm0,6.44q0-4.53-1.55-4.53-.75,0-1.09,1a11.23,11.23,0,0,0-.35,3.27,12.64,12.64,0,0,0,.35,3.5q.36,1,1.22,1a1.14,1.14,0,0,0,1.11-.93A12.05,12.05,0,0,0,540.41,202.29Z" transform="translate(-7.47 -11.31)"/><path d="M544.15,195.86h2.64l1.84,8.82,2.19-8.81h2.37L548,213.68h-2.46l2-6.19Z" transform="translate(-7.47 -11.31)"/></g></g><circle class="cls-4" cx="431.05" cy="189.6" r="15.25"/><g class="cls-1"><path d="M500.9,134.51h3.35a4.52,4.52,0,0,1,3.52,1.23,5.78,5.78,0,0,1,1.09,3.91q0,3.76-2.22,4.86a8.07,8.07,0,0,1-3.21.5v8.37h-2.54Zm2.53,8.32a2.94,2.94,0,0,0,2.18-.63,3.35,3.35,0,0,0,.61-2.29,4.14,4.14,0,0,0-.58-2.47,2.16,2.16,0,0,0-1.84-.78h-.35Z" transform="translate(-7.47 -11.31)"/><path d="M510.67,140.74H513v8.45a3.35,3.35,0,0,0,.35,1.67,1.19,1.19,0,0,0,1.08.5,1.28,1.28,0,0,0,1.11-.44,3,3,0,0,0,.32-1.61v-8.57h2.33v7.56a10.37,10.37,0,0,1-.4,3.54q-.82,1.73-3.4,1.73a3.56,3.56,0,0,1-2.88-1,5.47,5.47,0,0,1-.85-3.46Z" transform="translate(-7.47 -11.31)"/><path d="M520.84,132.65h2.33l0,9.54a4.79,4.79,0,0,1,.5-.78,2.54,2.54,0,0,1,.5-.49,2.06,2.06,0,0,1,1.27-.36,2.54,2.54,0,0,1,1.39.37,2.69,2.69,0,0,1,1,1.16,7.15,7.15,0,0,1,.55,2,19.47,19.47,0,0,1,.18,2.87,12.92,12.92,0,0,1-.74,5,2.41,2.41,0,0,1-2.3,1.6,2.1,2.1,0,0,1-1.33-.39,4,4,0,0,1-1-1.43v1.62h-2.33Zm5.25,14.5a11.7,11.7,0,0,0-.34-3.49,1.22,1.22,0,0,0-1.18-1q-.81,0-1.14,1a17.9,17.9,0,0,0,0,6.84c.22.66.6,1,1.13,1a1.24,1.24,0,0,0,1.19-1A11,11,0,0,0,526.09,147.15Z" transform="translate(-7.47 -11.31)"/><path d="M530.71,132.67H533l0,20.75h-2.33Z" transform="translate(-7.47 -11.31)"/><path d="M536.79,135.41a1.58,1.58,0,0,1,1.56,1.58,1.58,1.58,0,1,1-3.16,0,1.5,1.5,0,0,1,.47-1.1A1.63,1.63,0,0,1,536.79,135.41Zm-1.11,5.37H538l0,12.64h-2.34Z" transform="translate(-7.47 -11.31)"/><path d="M545.53,141.06v2.19a3,3,0,0,0-1.79-.64,1.55,1.55,0,0,0-.59.11,1.52,1.52,0,0,0-.47.3,1.39,1.39,0,0,0-.44,1q0,.9,1.63,2.15a11.82,11.82,0,0,1,1.1,1,4.37,4.37,0,0,1,.67.83,3.63,3.63,0,0,1,.47,1.94,3.76,3.76,0,0,1-1,2.72,3.48,3.48,0,0,1-2.63,1,4.08,4.08,0,0,1-2.05-.6v-2.26a3.25,3.25,0,0,0,1.92.76A1.4,1.4,0,0,0,544,150a1.75,1.75,0,0,0-.29-1,2.82,2.82,0,0,0-.43-.48q-.29-.28-.72-.62a9.52,9.52,0,0,1-2-1.93A3.54,3.54,0,0,1,540,144a3.47,3.47,0,0,1,.94-2.5,3.34,3.34,0,0,1,2.48-1A4.32,4.32,0,0,1,545.53,141.06Z" transform="translate(-7.47 -11.31)"/><path d="M548,132.7h2.33l0,9.56a3,3,0,0,1,2.59-1.66,2.3,2.3,0,0,1,2.2,1.21,6.37,6.37,0,0,1,.36,2.65l0,9h-2.33V145a3.93,3.93,0,0,0-.3-1.82,1.11,1.11,0,0,0-1-.54,1.46,1.46,0,0,0-.68.14,1.06,1.06,0,0,0-.45.45,2.5,2.5,0,0,0-.25.81,8.05,8.05,0,0,0-.08,1.23v8.17H548Z" transform="translate(-7.47 -11.31)"/><path d="M559.23,135.45a1.58,1.58,0,0,1,1.56,1.58,1.58,1.58,0,1,1-3.16,0,1.5,1.5,0,0,1,.47-1.1A1.63,1.63,0,0,1,559.23,135.45Zm-1.11,5.37h2.34l0,12.64H558.1Z" transform="translate(-7.47 -11.31)"/><path d="M563.09,140.83h2.33v1.45a3,3,0,0,1,2.59-1.66,2.3,2.3,0,0,1,2.2,1.21,6.37,6.37,0,0,1,.36,2.65l0,9h-2.33V145a3.93,3.93,0,0,0-.3-1.82,1.11,1.11,0,0,0-1-.54,1.46,1.46,0,0,0-.68.14,1.06,1.06,0,0,0-.45.45,2.5,2.5,0,0,0-.25.81,8.05,8.05,0,0,0-.08,1.23v8.17h-2.33Z" transform="translate(-7.47 -11.31)"/><path d="M578.11,140.86h2.34l0,13a7.86,7.86,0,0,1-.47,3.25q-.86,1.66-3.43,1.66a3.6,3.6,0,0,1-2.66-1,3.55,3.55,0,0,1-1-2.63v-.39h2.26q0,2,1.5,2a1.17,1.17,0,0,0,1.11-.51,4.11,4.11,0,0,0,.31-1.94V152a2.43,2.43,0,0,1-2.29,1.73,2.46,2.46,0,0,1-2.34-1.54,11.56,11.56,0,0,1-.74-4.81,13.54,13.54,0,0,1,.73-5.11,2.42,2.42,0,0,1,2.36-1.57,2,2,0,0,1,1.27.38,4.46,4.46,0,0,1,1,1.35Zm0,6.44q0-4.53-1.56-4.53-.74,0-1.09,1a11.23,11.23,0,0,0-.35,3.27,12.62,12.62,0,0,0,.35,3.5q.36,1,1.22,1a1.14,1.14,0,0,0,1.11-.93A12,12,0,0,0,578.14,147.29Z" transform="translate(-7.47 -11.31)"/></g><circle class="cls-5" cx="464.49" cy="134.6" r="15.25"/><g class="cls-1"><g class="cls-1"><path d="M324,134.51h6.79v2.15H326.5v6h3.83v2.15h-3.83v8.6h-2.54Z" transform="translate(-7.47 -11.31)"/></g><g class="cls-1"><path d="M334,135.37a1.58,1.58,0,0,1,1.56,1.58,1.58,1.58,0,1,1-3.16,0,1.51,1.51,0,0,1,.47-1.1A1.63,1.63,0,0,1,334,135.37Zm-1.11,5.37h2.34l0,12.64h-2.34Z" transform="translate(-7.47 -11.31)"/><path d="M337.86,132.64h2.33l0,20.75h-2.33Z" transform="translate(-7.47 -11.31)"/><path d="M342.82,140.76h2.33v1.56a2.88,2.88,0,0,1,2.57-1.77,2.35,2.35,0,0,1,2.37,1.77,2.88,2.88,0,0,1,2.64-1.77,2.75,2.75,0,0,1,2,.71,2.81,2.81,0,0,1,.7,2.07l0,10.08H353.1V145.1a4.52,4.52,0,0,0-.27-1.92,1,1,0,0,0-1-.5,1.22,1.22,0,0,0-1.15.51,4.2,4.2,0,0,0-.3,1.91v8.32H348v-8.32a8.15,8.15,0,0,0-.06-1.14,2.14,2.14,0,0,0-.22-.75,1,1,0,0,0-.41-.41,1.43,1.43,0,0,0-.64-.13,1.25,1.25,0,0,0-1.15.55,3.74,3.74,0,0,0-.35,1.87v8.32H342.8Z" transform="translate(-7.47 -11.31)"/><path d="M372.62,146.21l1.61,1.29-2,2.8,2,3.15h-2.78l-.89-1.47a4.21,4.21,0,0,1-3.24,1.57,4,4,0,0,1-3-1.35,4.62,4.62,0,0,1-1.24-3.24,5.11,5.11,0,0,1,.59-2.39,11.72,11.72,0,0,1,2-2.62,8.48,8.48,0,0,1-1.51-4.48,3.45,3.45,0,0,1,1-2.56,3.65,3.65,0,0,1,2.64-1,3.56,3.56,0,0,1,2.58.93,3.24,3.24,0,0,1,1,2.44,4.56,4.56,0,0,1-.6,2.32,8.23,8.23,0,0,1-.83,1.19,20.21,20.21,0,0,1-1.4,1.52l2.48,4.08Zm-5.74-.32a4.54,4.54,0,0,0-1.42,2.93,2.78,2.78,0,0,0,.62,1.84,1.88,1.88,0,0,0,1.5.76,2.56,2.56,0,0,0,1.92-1.19Zm.68-3.47q.53-.55.88-1a5.25,5.25,0,0,0,.54-.74,2.65,2.65,0,0,0,.38-1.38,1.6,1.6,0,0,0-.36-1.11,1.24,1.24,0,0,0-1-.41,1.42,1.42,0,0,0-1.08.49,1.62,1.62,0,0,0-.44,1.14A7.67,7.67,0,0,0,367.56,142.42Z" transform="translate(-7.47 -11.31)"/></g><g class="cls-1"><path d="M379.93,134.6h2.5l1.12,7,.19,1.26.4,2.74.17,1.27.14,1,.12.93c0-.19,0-.35.06-.5s0-.27,0-.37l.33-2.19.43-2.87.12-.72q.06-.33.1-.59l1.23-7h2.37l-3.73,18.85h-2Z" transform="translate(-7.47 -11.31)"/></g><g class="cls-1"><path d="M392,135.47A1.58,1.58,0,0,1,393.6,137a1.58,1.58,0,1,1-3.16,0,1.51,1.51,0,0,1,.47-1.1A1.63,1.63,0,0,1,392,135.47Zm-1.11,5.37h2.34l0,12.64h-2.34Z" transform="translate(-7.47 -11.31)"/><path d="M403.13,132.75l0,20.75h-2.33v-1.62a4,4,0,0,1-1,1.43,2.1,2.1,0,0,1-1.33.39,2.41,2.41,0,0,1-2.29-1.61,12.93,12.93,0,0,1-.72-5.05,19.47,19.47,0,0,1,.19-2.87,7.15,7.15,0,0,1,.56-2,2.68,2.68,0,0,1,1-1.15,2.54,2.54,0,0,1,1.39-.37,2.1,2.1,0,0,1,1.27.37,2.56,2.56,0,0,1,.5.49,4.93,4.93,0,0,1,.5.78l0-9.54Zm-5.3,14.36a12.52,12.52,0,0,0,.32,3.48,1.24,1.24,0,0,0,1.19,1q.78,0,1.14-1a16.4,16.4,0,0,0,0-6.78q-.35-1-1.13-1a1.24,1.24,0,0,0-1.19,1A11,11,0,0,0,397.83,147.12Z" transform="translate(-7.47 -11.31)"/><path d="M410.64,149.25h2.17q-.26,4.46-3.67,4.45a3.71,3.71,0,0,1-1.74-.38,3,3,0,0,1-1.2-1.17,6.06,6.06,0,0,1-.7-2,16.25,16.25,0,0,1-.22-2.91,10.19,10.19,0,0,1,.94-5,3.11,3.11,0,0,1,2.89-1.61q3.8,0,3.79,6.7v.29h-5.34q0,4.05,1.6,4.06T410.64,149.25Zm-.12-3.29a8.53,8.53,0,0,0-.45-2.61,1.07,1.07,0,0,0-1-.7,1.05,1.05,0,0,0-1,.69,8.5,8.5,0,0,0-.46,2.61Z" transform="translate(-7.47 -11.31)"/><path d="M422.44,147.32q0,6.41-4,6.4t-4-6.52q0-6.53,4-6.53a3.79,3.79,0,0,1,1.78.39,3.13,3.13,0,0,1,1.24,1.21,6.35,6.35,0,0,1,.72,2.06A16,16,0,0,1,422.44,147.32Zm-2.42-.07a12.38,12.38,0,0,0-.32-3.47,1.21,1.21,0,0,0-1.17-1,1.24,1.24,0,0,0-1.19,1,17.7,17.7,0,0,0,0,6.8,1.24,1.24,0,0,0,1.18,1,1.2,1.2,0,0,0,1.16-1A10.84,10.84,0,0,0,420,147.25Z" transform="translate(-7.47 -11.31)"/></g></g><circle class="cls-6" cx="287.55" cy="134.6" r="15.25"/><g class="cls-1"><path d="M203.38,134.51h2.17l1.65,7.7q.3,1.44.55,2.89t.45,3l0-.32a1.29,1.29,0,0,1,0-.17l.36-2.16.32-2.05.28-1.35,1.49-7.56h2.2l1.7,18.86h-2.43l-.42-6.4,0-.84q0-.35,0-.59l-.11-2.53-.06-2.32s0-.05,0-.1,0-.12,0-.21l-.06.38q-.1.67-.18,1.17t-.14.84l-.32,1.72-.12.65-1.6,8.23h-1.71l-1.48-7.11q-.3-1.4-.54-2.85t-.43-3l-.75,13h-2.39Z" transform="translate(-7.47 -11.31)"/><path d="M216.6,140.75h2.33v8.45a3.35,3.35,0,0,0,.35,1.67,1.19,1.19,0,0,0,1.08.5,1.28,1.28,0,0,0,1.11-.44,3,3,0,0,0,.32-1.61v-8.57h2.33v7.56a10.37,10.37,0,0,1-.4,3.54q-.82,1.73-3.4,1.73a3.56,3.56,0,0,1-2.88-1,5.47,5.47,0,0,1-.85-3.46Z" transform="translate(-7.47 -11.31)"/><path d="M231.65,141v2.19a3,3,0,0,0-1.79-.64,1.53,1.53,0,0,0-1.06.41,1.39,1.39,0,0,0-.44,1q0,.9,1.63,2.15a12,12,0,0,1,1.1,1,4.37,4.37,0,0,1,.67.83,3.63,3.63,0,0,1,.47,1.94,3.76,3.76,0,0,1-1,2.72,3.48,3.48,0,0,1-2.63,1,4.09,4.09,0,0,1-2.05-.6v-2.26a3.25,3.25,0,0,0,1.92.76,1.4,1.4,0,0,0,1.6-1.57,1.75,1.75,0,0,0-.29-1,2.78,2.78,0,0,0-.43-.48c-.19-.18-.43-.39-.72-.62a9.49,9.49,0,0,1-2-1.93,3.54,3.54,0,0,1-.51-1.94,3.46,3.46,0,0,1,.94-2.5,3.33,3.33,0,0,1,2.48-1A4.33,4.33,0,0,1,231.65,141Z" transform="translate(-7.47 -11.31)"/><path d="M235.22,135.41a1.58,1.58,0,0,1,1.56,1.58,1.58,1.58,0,1,1-3.16,0,1.5,1.5,0,0,1,.47-1.1A1.63,1.63,0,0,1,235.22,135.41Zm-1.11,5.37h2.34l0,12.64h-2.34Z" transform="translate(-7.47 -11.31)"/><path d="M244.25,141v2.38a1.47,1.47,0,0,0-1.17-.6q-1.93,0-1.94,4.17,0,4.43,1.91,4.44a2,2,0,0,0,1.19-.47v2.19a4,4,0,0,1-1.88.49q-3.76,0-3.75-6.41a10.45,10.45,0,0,1,.94-5,3.09,3.09,0,0,1,2.89-1.61A4,4,0,0,1,244.25,141Z" transform="translate(-7.47 -11.31)"/></g><circle class="cls-7" cx="166.07" cy="134.6" r="15.25"/><g class="cls-1"><g class="cls-1"><path d="M632,189.51h6.79v2.15h-4.25v6h3.83v2.15h-3.83v8.6H632Z" transform="translate(-7.47 -11.31)"/></g><g class="cls-1"><path d="M647.88,195.75l0,12.64h-2.33v-1.62a4.06,4.06,0,0,1-1,1.43,2.09,2.09,0,0,1-1.32.39A2.42,2.42,0,0,1,640.9,207a13,13,0,0,1-.72-5.06,11.91,11.91,0,0,1,.74-4.83,2.42,2.42,0,0,1,2.31-1.54,2.62,2.62,0,0,1,2.32,1.64v-1.43ZM642.59,202a12.5,12.5,0,0,0,.32,3.48,1.24,1.24,0,0,0,1.2,1q.78,0,1.14-1a16.42,16.42,0,0,0,0-6.78q-.35-1-1.13-1a1.24,1.24,0,0,0-1.19,1A11,11,0,0,0,642.59,202Z" transform="translate(-7.47 -11.31)"/><path d="M655.41,196v2.19a3,3,0,0,0-1.79-.64,1.51,1.51,0,0,0-.59.11,1.49,1.49,0,0,0-.47.3,1.39,1.39,0,0,0-.44,1q0,.9,1.63,2.15a12,12,0,0,1,1.1,1,4.39,4.39,0,0,1,.67.83,3.63,3.63,0,0,1,.47,1.94,3.76,3.76,0,0,1-1,2.72,3.48,3.48,0,0,1-2.63,1,4.09,4.09,0,0,1-2.05-.6v-2.26a3.26,3.26,0,0,0,1.92.76,1.4,1.4,0,0,0,1.6-1.57,1.74,1.74,0,0,0-.29-1,2.78,2.78,0,0,0-.43-.48c-.2-.18-.43-.39-.72-.62a9.51,9.51,0,0,1-2-1.93,3.55,3.55,0,0,1-.51-1.94,3.46,3.46,0,0,1,.94-2.5,3.33,3.33,0,0,1,2.48-1A4.33,4.33,0,0,1,655.41,196Z" transform="translate(-7.47 -11.31)"/><path d="M657.89,187.66h2.33l0,9.56a3,3,0,0,1,2.59-1.66,2.3,2.3,0,0,1,2.2,1.21,6.36,6.36,0,0,1,.36,2.65l0,9H663V200a3.94,3.94,0,0,0-.3-1.82,1.11,1.11,0,0,0-1-.54,1.48,1.48,0,0,0-.68.14,1.07,1.07,0,0,0-.45.45,2.5,2.5,0,0,0-.25.81,8,8,0,0,0-.08,1.23v8.17h-2.33Z" transform="translate(-7.47 -11.31)"/><path d="M669.11,190.41a1.58,1.58,0,0,1,1.56,1.58,1.58,1.58,0,1,1-3.16,0,1.51,1.51,0,0,1,.47-1.1A1.64,1.64,0,0,1,669.11,190.41ZM668,195.79h2.34l0,12.64H668Z" transform="translate(-7.47 -11.31)"/><path d="M680.42,202.23q0,6.41-4,6.4t-4-6.52q0-6.53,4-6.53a3.8,3.8,0,0,1,1.78.39,3.12,3.12,0,0,1,1.24,1.21,6.36,6.36,0,0,1,.72,2.06A16,16,0,0,1,680.42,202.23Zm-2.42-.07a12.39,12.39,0,0,0-.32-3.47,1.21,1.21,0,0,0-1.17-1,1.24,1.24,0,0,0-1.19,1,17.69,17.69,0,0,0,0,6.8,1.24,1.24,0,0,0,1.18,1,1.2,1.2,0,0,0,1.16-1A10.87,10.87,0,0,0,678,202.17Z" transform="translate(-7.47 -11.31)"/><path d="M682.61,195.81h2.33v1.45a3,3,0,0,1,2.59-1.66,2.3,2.3,0,0,1,2.2,1.21,6.39,6.39,0,0,1,.36,2.65l0,9h-2.33V200a3.93,3.93,0,0,0-.3-1.82,1.11,1.11,0,0,0-1-.54,1.48,1.48,0,0,0-.68.14,1.06,1.06,0,0,0-.45.45,2.52,2.52,0,0,0-.25.81,8.06,8.06,0,0,0-.08,1.23v8.17h-2.33Z" transform="translate(-7.47 -11.31)"/></g></g><circle cx="595.62" cy="189.6" r="15.25"/><g class="cls-1"><g class="cls-1"><path d="M330,189.35h8.27v2.22h-2.85l0,16.63h-2.49l0-16.63H330Z" transform="translate(-7.47 -11.31)"/><path d="M339.56,187.48h2.33l0,9.56a3,3,0,0,1,2.59-1.66,2.3,2.3,0,0,1,2.2,1.21,6.37,6.37,0,0,1,.36,2.65l0,9h-2.33v-8.45a3.93,3.93,0,0,0-.3-1.82,1.11,1.11,0,0,0-1-.54,1.46,1.46,0,0,0-.68.14,1.06,1.06,0,0,0-.45.45,2.51,2.51,0,0,0-.25.81,8.05,8.05,0,0,0-.08,1.23v8.17h-2.33Z" transform="translate(-7.47 -11.31)"/><path d="M354.53,204h2.17q-.26,4.46-3.67,4.45a3.71,3.71,0,0,1-1.74-.38,3,3,0,0,1-1.2-1.17,6.06,6.06,0,0,1-.7-2,16.25,16.25,0,0,1-.22-2.91,10.19,10.19,0,0,1,.94-5A3.11,3.11,0,0,1,353,195.4q3.8,0,3.79,6.7v.29h-5.34q0,4.05,1.6,4.06T354.53,204Zm-.12-3.29a8.54,8.54,0,0,0-.45-2.61,1.07,1.07,0,0,0-1-.7,1.05,1.05,0,0,0-1,.69,8.51,8.51,0,0,0-.46,2.61Z" transform="translate(-7.47 -11.31)"/><path d="M366.1,195.63l0,12.64h-2.33v-1.62a4.05,4.05,0,0,1-1,1.43,2.08,2.08,0,0,1-1.32.39,2.42,2.42,0,0,1-2.31-1.62,13,13,0,0,1-.72-5.06,11.91,11.91,0,0,1,.74-4.83,2.42,2.42,0,0,1,2.31-1.54,2.62,2.62,0,0,1,2.32,1.64v-1.43Zm-5.29,6.25a12.52,12.52,0,0,0,.32,3.48,1.24,1.24,0,0,0,1.19,1q.78,0,1.14-1a16.4,16.4,0,0,0,0-6.78q-.35-1-1.13-1a1.24,1.24,0,0,0-1.19,1A11,11,0,0,0,360.81,201.89Z" transform="translate(-7.47 -11.31)"/></g><g class="cls-1"><path d="M369,192.1h2.33v3.54h1.27v1.86h-1.27l0,10.78H369l0-10.78h-1.28v-1.86H369Z" transform="translate(-7.47 -11.31)"/></g><g class="cls-1"><path d="M379.15,204h2.17q-.26,4.46-3.67,4.45a3.75,3.75,0,0,1-1.74-.38,3,3,0,0,1-1.2-1.18,6,6,0,0,1-.7-2,16.23,16.23,0,0,1-.22-2.91,10.2,10.2,0,0,1,.94-5,3.1,3.1,0,0,1,2.89-1.61q3.8,0,3.79,6.7v.29h-5.34q0,4.05,1.6,4.06T379.15,204Zm-.12-3.29a8.56,8.56,0,0,0-.45-2.61,1.07,1.07,0,0,0-1-.7,1.05,1.05,0,0,0-1,.7,8.51,8.51,0,0,0-.46,2.61Z" transform="translate(-7.47 -11.31)"/><path d="M383.5,195.66h2.33v1.57a4.49,4.49,0,0,1,1.19-1.4,3.06,3.06,0,0,1,1.55-.46v2.44a2.74,2.74,0,0,0-.42,0,2.21,2.21,0,0,0-1.8.64,3.56,3.56,0,0,0-.53,2.22v7.66h-2.33Z" transform="translate(-7.47 -11.31)"/></g></g><circle class="cls-8" cx="302.57" cy="200.76" r="15.25" transform="translate(-48.51 306.86) rotate(-52.43)"/><g class="cls-1"><g class="cls-1"><path d="M662,134.51h2l4,18.86H665.5l-.7-3.68h-3.74l-.73,3.67H657.9Zm2.41,13.22-.56-3q-.56-3.07-.91-6.55-.17,1.7-.45,3.44t-.64,3.69l-.47,2.42Z" transform="translate(-7.47 -11.31)"/></g><g class="cls-1"><path d="M669.4,140.74h2.33v1.58a4.47,4.47,0,0,1,1.19-1.4,3,3,0,0,1,1.55-.46v2.44a2.73,2.73,0,0,0-.42,0,2.21,2.21,0,0,0-1.8.64,3.55,3.55,0,0,0-.53,2.22v7.66h-2.33Z" transform="translate(-7.47 -11.31)"/></g><g class="cls-1"><path d="M676.89,137.21h2.33v3.54h1.27v1.86h-1.27l0,10.78h-2.33l0-10.78H675.6v-1.86h1.28Z" transform="translate(-7.47 -11.31)"/></g></g><circle class="cls-9" cx="622.94" cy="134.6" r="15.25"/><g class="cls-1"><path d="M763.56,143.45h4.62v.73q0,5.51-1,7.44a3.59,3.59,0,0,1-3.57,2,4,4,0,0,1-3.84-2.21q-1.13-2.2-1.12-7.39,0-5.93,1.26-7.9a4,4,0,0,1,3.61-1.84,4.31,4.31,0,0,1,2.89.9,6,6,0,0,1,1.63,3l-2.37,1a8.4,8.4,0,0,0-.35-1.25,2.89,2.89,0,0,0-.43-.79,1.69,1.69,0,0,0-1.39-.58q-1.27,0-1.74,1.56a24.92,24.92,0,0,0-.47,5.87,23,23,0,0,0,.47,5.8,1.83,1.83,0,0,0,1.79,1.52,1.72,1.72,0,0,0,1.7-1.07,9.91,9.91,0,0,0,.51-3.69v-.89h-2.21Z" transform="translate(-7.47 -11.31)"/><path d="M777.79,140.75l0,12.64h-2.33v-1.62a4,4,0,0,1-1,1.43,2.08,2.08,0,0,1-1.32.39,2.42,2.42,0,0,1-2.3-1.62,13,13,0,0,1-.72-5.06,11.91,11.91,0,0,1,.74-4.83,2.42,2.42,0,0,1,2.31-1.54,2.62,2.62,0,0,1,2.32,1.64v-1.43ZM772.5,147a12.52,12.52,0,0,0,.32,3.48,1.24,1.24,0,0,0,1.19,1q.78,0,1.14-1a16.37,16.37,0,0,0,0-6.78q-.35-1-1.13-1a1.24,1.24,0,0,0-1.19,1A11.05,11.05,0,0,0,772.5,147Z" transform="translate(-7.47 -11.31)"/><path d="M780.44,140.76h2.33v1.56a2.88,2.88,0,0,1,2.57-1.77,2.35,2.35,0,0,1,2.37,1.77,2.88,2.88,0,0,1,2.64-1.77,2.75,2.75,0,0,1,2,.71,2.81,2.81,0,0,1,.7,2.07l0,10.08h-2.34V145.1a4.51,4.51,0,0,0-.27-1.92,1,1,0,0,0-1-.5,1.22,1.22,0,0,0-1.15.51,4.2,4.2,0,0,0-.3,1.91v8.32h-2.42v-8.32a8.12,8.12,0,0,0-.07-1.14,2.14,2.14,0,0,0-.22-.75,1,1,0,0,0-.41-.41,1.42,1.42,0,0,0-.63-.13,1.25,1.25,0,0,0-1.15.55,3.74,3.74,0,0,0-.34,1.87v8.32h-2.33Z" transform="translate(-7.47 -11.31)"/><path d="M800.59,149.17h2.17q-.27,4.46-3.67,4.45a3.71,3.71,0,0,1-1.74-.38,3,3,0,0,1-1.2-1.17,6.06,6.06,0,0,1-.7-2,16.2,16.2,0,0,1-.22-2.91,10.19,10.19,0,0,1,.94-5,3.11,3.11,0,0,1,2.89-1.61q3.8,0,3.79,6.7v.29h-5.34q0,4.05,1.6,4.06T800.59,149.17Zm-.12-3.29a8.55,8.55,0,0,0-.45-2.61,1.07,1.07,0,0,0-1-.7,1.05,1.05,0,0,0-1,.69,8.53,8.53,0,0,0-.46,2.61Z" transform="translate(-7.47 -11.31)"/><path d="M809.82,141.07v2.19a3,3,0,0,0-1.79-.64A1.53,1.53,0,0,0,807,143a1.39,1.39,0,0,0-.44,1q0,.9,1.63,2.15a11.81,11.81,0,0,1,1.1,1,4.32,4.32,0,0,1,.67.83,3.64,3.64,0,0,1,.47,1.94,3.76,3.76,0,0,1-1,2.72,3.48,3.48,0,0,1-2.63,1,4.07,4.07,0,0,1-2.05-.6v-2.26a3.25,3.25,0,0,0,1.92.76,1.4,1.4,0,0,0,1.6-1.57,1.75,1.75,0,0,0-.29-1,2.86,2.86,0,0,0-.43-.48q-.29-.27-.72-.62a9.5,9.5,0,0,1-2-1.93,3.54,3.54,0,0,1-.51-1.94,3.47,3.47,0,0,1,.94-2.5,3.34,3.34,0,0,1,2.48-1A4.32,4.32,0,0,1,809.82,141.07Z" transform="translate(-7.47 -11.31)"/></g><circle class="cls-10" cx="722.65" cy="134.6" r="15.25"/><g class="cls-1"><path d="M778.33,199.27q0,5-1.12,7.09a3.88,3.88,0,0,1-3.73,2.09,4,4,0,0,1-3.87-2.27q-1.11-2.21-1.1-7.85,0-5,1.11-7.12a3.91,3.91,0,0,1,3.77-2.09,4,4,0,0,1,3.51,1.63,7.7,7.7,0,0,1,1.09,3.09A32.18,32.18,0,0,1,778.33,199.27Zm-2.66.26a30.08,30.08,0,0,0-.43-6.5q-.44-1.61-1.79-1.62a1.8,1.8,0,0,0-1.81,1.47,25.8,25.8,0,0,0-.45,6,23.76,23.76,0,0,0,.45,5.74,1.82,1.82,0,0,0,1.78,1.52,1.78,1.78,0,0,0,1.76-1.41A18.72,18.72,0,0,0,775.67,199.53Z" transform="translate(-7.47 -11.31)"/><path d="M781,192.05h2.33v3.54h1.27v1.86h-1.27l0,10.78H781l0-10.78h-1.28v-1.86H781Z" transform="translate(-7.47 -11.31)"/><path d="M786.29,187.5h2.33l0,9.56a3,3,0,0,1,2.59-1.66,2.3,2.3,0,0,1,2.2,1.21,6.38,6.38,0,0,1,.36,2.65l0,9H791.4V199.8a3.92,3.92,0,0,0-.3-1.82,1.11,1.11,0,0,0-1-.54,1.48,1.48,0,0,0-.68.14,1.06,1.06,0,0,0-.45.45,2.5,2.5,0,0,0-.25.81,8.06,8.06,0,0,0-.08,1.23v8.17h-2.33Z" transform="translate(-7.47 -11.31)"/><path d="M801.27,204h2.17q-.26,4.46-3.67,4.45a3.72,3.72,0,0,1-1.74-.38,3,3,0,0,1-1.2-1.17,6,6,0,0,1-.7-2,16.3,16.3,0,0,1-.22-2.91,10.19,10.19,0,0,1,.94-5,3.11,3.11,0,0,1,2.89-1.61q3.8,0,3.79,6.7v.29h-5.34q0,4.05,1.6,4.06T801.27,204Zm-.12-3.29a8.55,8.55,0,0,0-.45-2.61,1.07,1.07,0,0,0-1-.7,1.05,1.05,0,0,0-1,.69,8.52,8.52,0,0,0-.46,2.61Z" transform="translate(-7.47 -11.31)"/><path d="M805.62,195.64h2.33v1.58a4.48,4.48,0,0,1,1.19-1.4,3,3,0,0,1,1.55-.46v2.44a2.87,2.87,0,0,0-.42,0,2.21,2.21,0,0,0-1.8.64,3.56,3.56,0,0,0-.53,2.22v7.66h-2.33Z" transform="translate(-7.47 -11.31)"/></g><circle class="cls-11" cx="732.49" cy="189.45" r="15.25"/></svg>