<svg id="Layer_2" data-name="Layer 2" xmlns="http://www.w3.org/2000/svg" viewBox="0 0 504 163"><title>AVG_cities_TITLE</title><path d="M22.66,33.19H43.58v5.62h-7.2V80.89h-6.3V38.81H22.66Z"/><path d="M46.79,28.4h5.9V52.59q2.53-4.2,6.55-4.2a5.83,5.83,0,0,1,5.56,3.06q.93,1.73.93,6.7V80.89h-5.9l0-21.38a9.94,9.94,0,0,0-.77-4.6,2.8,2.8,0,0,0-2.66-1.36,3.73,3.73,0,0,0-1.71.36A2.68,2.68,0,0,0,53.52,55a6.37,6.37,0,0,0-.63,2.05,20.27,20.27,0,0,0-.2,3.12V80.89h-5.9Z"/><path d="M84.76,70.1h5.5Q89.61,81.38,81,81.38a9.41,9.41,0,0,1-4.4-1,7.69,7.69,0,0,1-3-3,15.28,15.28,0,0,1-1.78-5.1A40.91,40.91,0,0,1,71.2,65q0-8.46,2.36-12.54a7.87,7.87,0,0,1,7.31-4.08q9.61,0,9.61,16.93v.74H77q0,10.26,4.08,10.26Q84.76,76.31,84.76,70.1Zm-.31-8.31q-.37-5-1.14-6.61a2.69,2.69,0,0,0-2.59-1.76,2.66,2.66,0,0,0-2.59,1.76q-.77,1.58-1.14,6.61Z"/><path d="M108.82,48.91h5.9v4q2.44-4.48,6.49-4.48,4.42,0,6,4.48,2.35-4.48,6.67-4.48A7,7,0,0,1,139,50.16a7.1,7.1,0,0,1,1.78,5.24V80.89h-5.93v-21q0-3.61-.68-4.85a2.57,2.57,0,0,0-2.53-1.27,3.09,3.09,0,0,0-2.9,1.3Q128,56.3,128,59.85v21h-6.12v-21a20.52,20.52,0,0,0-.17-2.87,5.44,5.44,0,0,0-.57-1.88,2.48,2.48,0,0,0-1-1,3.57,3.57,0,0,0-1.61-.32,3.15,3.15,0,0,0-2.9,1.39,9.44,9.44,0,0,0-.87,4.73v21h-5.9Z"/><path d="M166.35,65.16q0,16.22-10,16.22t-10-16.47q0-16.53,10-16.53a9.61,9.61,0,0,1,4.5,1,7.9,7.9,0,0,1,3.14,3.06,16.06,16.06,0,0,1,1.84,5.22A40.49,40.49,0,0,1,166.35,65.16ZM160.23,65q0-6.3-.83-8.77t-3-2.5q-2.1,0-3,2.47t-.83,8.62q0,6.15.83,8.59t3,2.47q2.1,0,2.94-2.44Q160.23,71.15,160.23,65Z"/><path d="M184.2,49.56v5.53a7.5,7.5,0,0,0-4.54-1.61,3.85,3.85,0,0,0-2.67,1,3.49,3.49,0,0,0-.8,1.14,3.43,3.43,0,0,0-.29,1.41q0,2.29,4.14,5.44a30.21,30.21,0,0,1,2.78,2.41,11.06,11.06,0,0,1,1.7,2.1,9.19,9.19,0,0,1,1.2,4.91,9.51,9.51,0,0,1-2.5,6.89,8.8,8.8,0,0,1-6.64,2.56,10.34,10.34,0,0,1-5.19-1.51V74.15a8.24,8.24,0,0,0,4.85,1.92q4,0,4-4a4.42,4.42,0,0,0-.74-2.56,7,7,0,0,0-1.08-1.22q-.74-.69-1.82-1.56a24,24,0,0,1-5.07-4.88,9,9,0,0,1-1.3-4.91,8.76,8.76,0,0,1,2.38-6.33,8.43,8.43,0,0,1,6.27-2.44A11,11,0,0,1,184.2,49.56Z"/><path d="M191.46,40h5.9v9h3.21v4.7h-3.21V80.89h-5.9V53.61h-3.24v-4.7h3.24Z"/><path d="M217.91,94V48.91h5.9v4.14a10.09,10.09,0,0,1,2.53-3.65,5.34,5.34,0,0,1,3.4-1q4,0,5.79,4.09t1.84,12.81q0,8.53-1.88,12.26a6.21,6.21,0,0,1-6,3.83,5.49,5.49,0,0,1-3.24-.9A5.8,5.8,0,0,1,225,79.25a14.4,14.4,0,0,1-1.24-1.95V94Zm13.35-28.92q0-6.52-.87-8.84-.83-2.5-3-2.5t-2.9,2.59q-.87,2.41-.87,8.59t.87,8.59q.9,2.56,2.9,2.56t3-2.47Q231.25,71.31,231.26,65.07Z"/><path d="M261.75,65.16q0,16.22-10,16.22t-10-16.47q0-16.53,10-16.53a9.61,9.61,0,0,1,4.5,1,7.9,7.9,0,0,1,3.14,3.06,16.06,16.06,0,0,1,1.84,5.22A40.49,40.49,0,0,1,261.75,65.16ZM255.63,65q0-6.3-.83-8.77t-3-2.5q-2.1,0-3,2.47T248,64.82q0,6.15.83,8.59t3,2.47q2.1,0,2.94-2.44Q255.63,71.15,255.63,65Z"/><path d="M267.25,94V48.91h5.9v4.14a10.09,10.09,0,0,1,2.53-3.65,5.34,5.34,0,0,1,3.4-1q4,0,5.79,4.09t1.84,12.81q0,8.53-1.88,12.26a6.21,6.21,0,0,1-6,3.83,5.49,5.49,0,0,1-3.24-.9,5.8,5.8,0,0,1-1.24-1.24,14.4,14.4,0,0,1-1.24-1.95V94Zm13.35-28.92q0-6.52-.87-8.84-.83-2.5-3-2.5t-2.9,2.59q-.87,2.41-.87,8.59t.87,8.59q.9,2.56,2.9,2.56t3-2.47Q280.59,71.31,280.59,65.07Z"/><path d="M292.21,48.91h5.9V70.29a8.48,8.48,0,0,0,.88,4.23,3,3,0,0,0,2.73,1.27,3.24,3.24,0,0,0,2.81-1.11,7.58,7.58,0,0,0,.8-4.08V48.91h5.9V68q0,6.7-1,9-2.07,4.39-8.59,4.39-5.13,0-7.29-2.59T292.21,70Z"/><path d="M317.91,28.4h5.9V80.89h-5.9Z"/><path d="M348.77,48.91v32h-5.9V76.78a10.26,10.26,0,0,1-2.53,3.62,5.28,5.28,0,0,1-3.34,1q-4,0-5.84-4.08t-1.85-12.79q0-8.31,1.85-12.22A6.12,6.12,0,0,1,337,48.39q3.64,0,5.87,4.14V48.91ZM335.43,64.76q0,6.3.83,8.8t3,2.5q2,0,2.87-2.6a30,30,0,0,0,.9-8.56,30.19,30.19,0,0,0-.9-8.59q-.9-2.6-2.87-2.59t-3,2.47Q335.43,58.49,335.43,64.76Z"/><path d="M355.48,48.91h5.9v4a11.27,11.27,0,0,1,3-3.55,7.69,7.69,0,0,1,3.92-1.17v6.18a7.3,7.3,0,0,0-1-.09q-3.18,0-4.54,1.64t-1.33,5.62V80.89h-5.9Z"/><path d="M398.54,49.53v6a3.72,3.72,0,0,0-3-1.51q-4.88,0-4.88,10.57,0,11.21,4.85,11.21a5.22,5.22,0,0,0,3-1.21v5.53a10.12,10.12,0,0,1-4.76,1.24q-9.52,0-9.51-16.19,0-8.62,2.35-12.71a7.83,7.83,0,0,1,7.29-4.09A10.14,10.14,0,0,1,398.54,49.53Z"/><path d="M406.33,35.32a4,4,0,0,1,4,4,4,4,0,1,1-8,0,3.8,3.8,0,0,1,1.17-2.78A4.11,4.11,0,0,1,406.33,35.32Zm-2.78,13.59h5.93v32h-5.93Z"/><path d="M416.83,40h5.9v9h3.21v4.7h-3.21V80.89h-5.9V53.61h-3.24v-4.7h3.24Z"/><path d="M433,35.32a4,4,0,0,1,4,4,4,4,0,1,1-8,0,3.8,3.8,0,0,1,1.17-2.78A4.11,4.11,0,0,1,433,35.32Zm-2.78,13.59h5.93v32h-5.93Z"/><path d="M455.11,70.1h5.5q-.65,11.28-9.27,11.28a9.41,9.41,0,0,1-4.4-1,7.7,7.7,0,0,1-3-3,15.3,15.3,0,0,1-1.78-5.1,41,41,0,0,1-.57-7.35q0-8.46,2.36-12.54a7.87,7.87,0,0,1,7.31-4.08q9.61,0,9.61,16.93v.74h-13.5q0,10.26,4.08,10.26Q455.11,76.31,455.11,70.1Zm-.31-8.31q-.37-5-1.14-6.61a2.7,2.7,0,0,0-2.6-1.76,2.66,2.66,0,0,0-2.59,1.76q-.77,1.58-1.14,6.61Z"/><path d="M478.43,49.56v5.53a7.5,7.5,0,0,0-4.54-1.61,3.85,3.85,0,0,0-2.67,1,3.49,3.49,0,0,0-.8,1.14,3.45,3.45,0,0,0-.29,1.41q0,2.29,4.14,5.44A30.08,30.08,0,0,1,477,64.91a11.06,11.06,0,0,1,1.7,2.1,9.19,9.19,0,0,1,1.21,4.91,9.5,9.5,0,0,1-2.5,6.89,8.79,8.79,0,0,1-6.64,2.56,10.34,10.34,0,0,1-5.19-1.51V74.15a8.24,8.24,0,0,0,4.85,1.92q4,0,4-4a4.42,4.42,0,0,0-.74-2.56,7,7,0,0,0-1.08-1.22q-.74-.69-1.82-1.56a24,24,0,0,1-5.07-4.88,9,9,0,0,1-1.3-4.91,8.76,8.76,0,0,1,2.38-6.33,8.43,8.43,0,0,1,6.27-2.44A11,11,0,0,1,478.43,49.56Z"/><path d="M24,109.95h2.33v9.56a3,3,0,0,1,2.59-1.66,2.31,2.31,0,0,1,2.2,1.21,6.38,6.38,0,0,1,.37,2.65v9H29.13v-8.45a3.92,3.92,0,0,0-.31-1.82,1.11,1.11,0,0,0-1-.54,1.48,1.48,0,0,0-.68.14,1.06,1.06,0,0,0-.45.45,2.54,2.54,0,0,0-.25.81,8.09,8.09,0,0,0-.08,1.23v8.17H24Z"/><path d="M41.32,118.05v12.64H39v-1.62a4.06,4.06,0,0,1-1,1.43,2.09,2.09,0,0,1-1.32.39,2.42,2.42,0,0,1-2.31-1.61,13,13,0,0,1-.73-5.06,11.92,11.92,0,0,1,.73-4.83,2.42,2.42,0,0,1,2.31-1.54A2.62,2.62,0,0,1,39,119.48v-1.43ZM36,124.32a12.5,12.5,0,0,0,.33,3.48,1.24,1.24,0,0,0,1.2,1q.78,0,1.14-1a16.38,16.38,0,0,0,0-6.78q-.35-1-1.14-1a1.24,1.24,0,0,0-1.18,1A11.09,11.09,0,0,0,36,124.32Z"/><path d="M42.9,118.05h2.5l.92,4q.28,1.22.48,2.58t.32,3a4.26,4.26,0,0,0,.07-.44l.28-1.88q.16-1.08.62-3.24l.84-4h2.26l-3.3,12.64H46.32Z"/><path d="M53.7,112.68a1.5,1.5,0,0,1,1.1.46,1.58,1.58,0,0,1-2.25,2.23,1.54,1.54,0,0,1-.45-1.13,1.5,1.5,0,0,1,.46-1.1A1.63,1.63,0,0,1,53.7,112.68Zm-1.1,5.37H55v12.64H52.61Z"/><path d="M57.58,118.05h2.33v1.45a3,3,0,0,1,2.59-1.66,2.31,2.31,0,0,1,2.2,1.21,6.38,6.38,0,0,1,.37,2.65v9H62.73v-8.45a3.92,3.92,0,0,0-.31-1.82,1.11,1.11,0,0,0-1-.54,1.48,1.48,0,0,0-.68.14,1.06,1.06,0,0,0-.45.45,2.54,2.54,0,0,0-.25.81,8.09,8.09,0,0,0-.08,1.23v8.17H57.58Z"/><path d="M72.6,118.05h2.34v13a7.86,7.86,0,0,1-.46,3.25Q73.62,136,71,136a3.6,3.6,0,0,1-2.66-1,3.55,3.55,0,0,1-1-2.63V132h2.26q0,2,1.5,2a1.17,1.17,0,0,0,1.11-.51,4.12,4.12,0,0,0,.3-1.94v-2.43a2.43,2.43,0,0,1-2.28,1.73A2.46,2.46,0,0,1,68,129.35a11.55,11.55,0,0,1-.75-4.81,13.55,13.55,0,0,1,.72-5.12,2.42,2.42,0,0,1,2.36-1.58,2,2,0,0,1,1.27.38,4.47,4.47,0,0,1,1,1.34Zm0,6.44q0-4.53-1.56-4.53-.74,0-1.09,1a11.23,11.23,0,0,0-.34,3.27,12.62,12.62,0,0,0,.35,3.5q.37,1,1.22,1a1.14,1.14,0,0,0,1.11-.93A12,12,0,0,0,72.63,124.49Z"/><path d="M90,118.05v12.64H87.64v-1.62a4.06,4.06,0,0,1-1,1.43,2.09,2.09,0,0,1-1.32.39A2.42,2.42,0,0,1,83,129.28a13,13,0,0,1-.73-5.06,11.92,11.92,0,0,1,.73-4.83,2.42,2.42,0,0,1,2.31-1.54,2.62,2.62,0,0,1,2.32,1.64v-1.43Zm-5.28,6.26A12.51,12.51,0,0,0,85,127.8a1.24,1.24,0,0,0,1.2,1q.78,0,1.14-1a16.42,16.42,0,0,0,0-6.78q-.35-1-1.14-1a1.24,1.24,0,0,0-1.18,1A11.06,11.06,0,0,0,84.7,124.32Z"/><path d="M92.9,114.51h2.33v3.54h1.27v1.86H95.24v10.78H92.9V119.91H91.62v-1.86H92.9Z"/><path d="M103.36,109.95h2.33v20.75h-2.33Z"/><path d="M113.22,126.43h2.17q-.26,4.46-3.66,4.46a3.73,3.73,0,0,1-1.74-.38,3,3,0,0,1-1.2-1.17,6.05,6.05,0,0,1-.7-2,16.22,16.22,0,0,1-.23-2.91,10.2,10.2,0,0,1,.93-5,3.11,3.11,0,0,1,2.89-1.61q3.8,0,3.8,6.69v.29h-5.34q0,4.05,1.61,4.05T113.22,126.43Zm-.12-3.29a8.54,8.54,0,0,0-.45-2.61,1.06,1.06,0,0,0-1-.7,1,1,0,0,0-1,.7,8.5,8.5,0,0,0-.45,2.61Z"/><path d="M124.78,118.05v12.64h-2.33v-1.62a4.06,4.06,0,0,1-1,1.43,2.09,2.09,0,0,1-1.32.39,2.42,2.42,0,0,1-2.31-1.61,13,13,0,0,1-.73-5.06,11.92,11.92,0,0,1,.73-4.83,2.42,2.42,0,0,1,2.31-1.54,2.62,2.62,0,0,1,2.32,1.64v-1.43Zm-5.28,6.26a12.5,12.5,0,0,0,.33,3.48,1.24,1.24,0,0,0,1.2,1q.78,0,1.14-1a16.38,16.38,0,0,0,0-6.78q-.35-1-1.14-1a1.24,1.24,0,0,0-1.18,1A11.09,11.09,0,0,0,119.5,124.32Z"/><path d="M132.31,118.31v2.19a3,3,0,0,0-1.79-.63,1.54,1.54,0,0,0-.59.11,1.52,1.52,0,0,0-.47.3,1.39,1.39,0,0,0-.43,1q0,.9,1.64,2.15a11.88,11.88,0,0,1,1.1,1,4.37,4.37,0,0,1,.67.83,3.63,3.63,0,0,1,.48,1.94,3.76,3.76,0,0,1-1,2.72,3.48,3.48,0,0,1-2.63,1,4.08,4.08,0,0,1-2.05-.6V128a3.26,3.26,0,0,0,1.92.76,1.4,1.4,0,0,0,1.6-1.58,1.75,1.75,0,0,0-.29-1,2.79,2.79,0,0,0-.43-.48q-.29-.28-.72-.62a9.52,9.52,0,0,1-2-1.93,3.55,3.55,0,0,1-.51-1.94,3.46,3.46,0,0,1,.94-2.5,3.33,3.33,0,0,1,2.48-1A4.33,4.33,0,0,1,132.31,118.31Z"/><path d="M135.18,114.51h2.33v3.54h1.27v1.86h-1.27v10.78h-2.33V119.91H133.9v-1.86h1.28Z"/><path d="M146.55,111.84h4.3v18.86h-2.43V114h-1.87Z"/><path d="M156.16,111.84h6V114h-4.07l-.61,4.74h.3a5.15,5.15,0,0,1,2,.35,3.77,3.77,0,0,1,1.45,1,4.62,4.62,0,0,1,.89,1.69,7.81,7.81,0,0,1,.31,2.28,8.09,8.09,0,0,1-1.38,5,4.57,4.57,0,0,1-3.83,1.79,6.91,6.91,0,0,1-3-.78l.63-2.25a5,5,0,0,0,2.19.68,2.25,2.25,0,0,0,2-1.12,5.57,5.57,0,0,0,.73-3.05q0-3.63-3.11-3.63a5.43,5.43,0,0,0-1.55.23Z"/><path d="M170,135.87V118.05h2.33v1.64a4,4,0,0,1,1-1.44,2.11,2.11,0,0,1,1.34-.4,2.4,2.4,0,0,1,2.29,1.62,13.12,13.12,0,0,1,.73,5.06,11.5,11.5,0,0,1-.75,4.85,2.45,2.45,0,0,1-2.36,1.51,2.17,2.17,0,0,1-1.28-.35,2.28,2.28,0,0,1-.49-.49,5.84,5.84,0,0,1-.49-.77v6.59Zm5.28-11.43a11.69,11.69,0,0,0-.34-3.49,1.22,1.22,0,0,0-1.18-1q-.81,0-1.15,1a17,17,0,0,0,0,6.79q.35,1,1.15,1a1.24,1.24,0,0,0,1.18-1A11,11,0,0,0,175.25,124.44Z"/><path d="M179.84,118.05h2.33v1.58a4.47,4.47,0,0,1,1.18-1.4,3,3,0,0,1,1.55-.46v2.44a2.87,2.87,0,0,0-.42,0,2.21,2.21,0,0,0-1.79.65,3.55,3.55,0,0,0-.53,2.22v7.66h-2.33Z"/><path d="M194.05,124.48q0,6.41-4,6.41t-4-6.51q0-6.53,4-6.53a3.8,3.8,0,0,1,1.78.39,3.12,3.12,0,0,1,1.24,1.21,6.32,6.32,0,0,1,.73,2.06A16,16,0,0,1,194.05,124.48Zm-2.42-.06a12.37,12.37,0,0,0-.33-3.47,1.21,1.21,0,0,0-1.17-1,1.24,1.24,0,0,0-1.18,1,12.05,12.05,0,0,0-.33,3.41,11.92,11.92,0,0,0,.33,3.4,1.24,1.24,0,0,0,1.18,1,1.2,1.2,0,0,0,1.16-1A10.82,10.82,0,0,0,191.64,124.42Z"/><path d="M197.33,112.68a1.58,1.58,0,0,1,1.56,1.58,1.58,1.58,0,1,1-3.16,0,1.5,1.5,0,0,1,.46-1.1A1.62,1.62,0,0,1,197.33,112.68Zm-1.1,5.37h2.34v17.82h-2.34Z"/><path d="M206.08,126.43h2.17q-.26,4.46-3.66,4.46a3.73,3.73,0,0,1-1.74-.38,3,3,0,0,1-1.2-1.17,6.07,6.07,0,0,1-.7-2,16.22,16.22,0,0,1-.23-2.91,10.2,10.2,0,0,1,.93-5,3.11,3.11,0,0,1,2.89-1.61q3.8,0,3.8,6.69v.29H203q0,4.05,1.61,4.05T206.08,126.43Zm-.12-3.29a8.53,8.53,0,0,0-.45-2.61,1.06,1.06,0,0,0-1-.7,1.05,1.05,0,0,0-1,.7,8.54,8.54,0,0,0-.45,2.61Z"/><path d="M215.58,118.3v2.38a1.47,1.47,0,0,0-1.17-.6q-1.93,0-1.93,4.18,0,4.43,1.92,4.43a2.06,2.06,0,0,0,1.18-.48v2.19a4,4,0,0,1-1.88.49q-3.76,0-3.76-6.4a10.45,10.45,0,0,1,.93-5,3.09,3.09,0,0,1,2.88-1.62A4,4,0,0,1,215.58,118.3Z"/><path d="M217.84,114.51h2.33v3.54h1.27v1.86h-1.27v10.78h-2.33V119.91h-1.28v-1.86h1.28Z"/><path d="M228,118.31v2.19a3,3,0,0,0-1.79-.63,1.54,1.54,0,0,0-.59.11,1.52,1.52,0,0,0-.47.3,1.39,1.39,0,0,0-.43,1q0,.9,1.64,2.15a11.88,11.88,0,0,1,1.1,1,4.37,4.37,0,0,1,.67.83,3.63,3.63,0,0,1,.48,1.94,3.76,3.76,0,0,1-1,2.72,3.48,3.48,0,0,1-2.63,1,4.08,4.08,0,0,1-2.05-.6V128a3.26,3.26,0,0,0,1.92.76,1.4,1.4,0,0,0,1.6-1.58,1.75,1.75,0,0,0-.29-1,2.79,2.79,0,0,0-.43-.48q-.29-.28-.72-.62a9.52,9.52,0,0,1-2-1.93,3.55,3.55,0,0,1-.51-1.94,3.46,3.46,0,0,1,.94-2.5,3.33,3.33,0,0,1,2.48-1A4.33,4.33,0,0,1,228,118.31Z"/><path d="M236.75,112.68a1.5,1.5,0,0,1,1.1.46,1.58,1.58,0,0,1-2.25,2.23,1.54,1.54,0,0,1-.45-1.13,1.5,1.5,0,0,1,.46-1.1A1.63,1.63,0,0,1,236.75,112.68Zm-1.1,5.37H238v12.64h-2.34Z"/><path d="M240.62,118.05H243v1.45a3,3,0,0,1,2.59-1.66,2.31,2.31,0,0,1,2.2,1.21,6.38,6.38,0,0,1,.37,2.65v9h-2.33v-8.45a3.92,3.92,0,0,0-.31-1.82,1.11,1.11,0,0,0-1-.54,1.48,1.48,0,0,0-.68.14,1.06,1.06,0,0,0-.45.45,2.54,2.54,0,0,0-.25.81,8.09,8.09,0,0,0-.08,1.23v8.17h-2.33Z"/><path d="M260.81,126.43H263q-.26,4.46-3.66,4.46a3.73,3.73,0,0,1-1.74-.38,3,3,0,0,1-1.2-1.17,6.07,6.07,0,0,1-.7-2,16.22,16.22,0,0,1-.23-2.91,10.2,10.2,0,0,1,.93-5,3.11,3.11,0,0,1,2.89-1.61q3.8,0,3.8,6.69v.29h-5.34q0,4.05,1.61,4.05T260.81,126.43Zm-.12-3.29a8.53,8.53,0,0,0-.45-2.61,1.06,1.06,0,0,0-1-.7,1.05,1.05,0,0,0-1,.7,8.54,8.54,0,0,0-.45,2.61Z"/><path d="M272.36,118.05v12.64H270v-1.62a4.06,4.06,0,0,1-1,1.43,2.09,2.09,0,0,1-1.32.39,2.42,2.42,0,0,1-2.31-1.61,13,13,0,0,1-.73-5.06,11.92,11.92,0,0,1,.73-4.83,2.42,2.42,0,0,1,2.31-1.54,2.62,2.62,0,0,1,2.32,1.64v-1.43Zm-5.28,6.26a12.51,12.51,0,0,0,.33,3.48,1.24,1.24,0,0,0,1.2,1q.78,0,1.14-1a16.42,16.42,0,0,0,0-6.78q-.35-1-1.14-1a1.24,1.24,0,0,0-1.18,1A11.06,11.06,0,0,0,267.08,124.32Z"/><path d="M280.17,118.3v2.38a1.47,1.47,0,0,0-1.17-.6q-1.93,0-1.93,4.18,0,4.43,1.92,4.43a2.06,2.06,0,0,0,1.18-.48v2.19a4,4,0,0,1-1.88.49q-3.76,0-3.76-6.4a10.45,10.45,0,0,1,.93-5,3.09,3.09,0,0,1,2.88-1.62A4,4,0,0,1,280.17,118.3Z"/><path d="M282,109.95h2.33v9.56a3,3,0,0,1,2.59-1.66,2.3,2.3,0,0,1,2.2,1.21,6.38,6.38,0,0,1,.37,2.65v9h-2.33v-8.45a3.94,3.94,0,0,0-.3-1.82,1.11,1.11,0,0,0-1.05-.54,1.48,1.48,0,0,0-.68.14,1.07,1.07,0,0,0-.45.45,2.51,2.51,0,0,0-.25.81,8,8,0,0,0-.08,1.23v8.17H282Z"/><path d="M302.47,118.3v2.38a1.47,1.47,0,0,0-1.17-.6q-1.93,0-1.93,4.18,0,4.43,1.92,4.43a2.06,2.06,0,0,0,1.18-.48v2.19a4,4,0,0,1-1.88.49q-3.76,0-3.76-6.4a10.45,10.45,0,0,1,.93-5,3.09,3.09,0,0,1,2.88-1.62A4,4,0,0,1,302.47,118.3Z"/><path d="M311.67,118.05v12.64h-2.33v-1.62a4.06,4.06,0,0,1-1,1.43,2.09,2.09,0,0,1-1.32.39,2.42,2.42,0,0,1-2.31-1.61,13,13,0,0,1-.73-5.06,11.92,11.92,0,0,1,.73-4.83,2.42,2.42,0,0,1,2.31-1.54,2.62,2.62,0,0,1,2.32,1.64v-1.43Zm-5.28,6.26a12.5,12.5,0,0,0,.33,3.48,1.24,1.24,0,0,0,1.2,1q.78,0,1.14-1a16.38,16.38,0,0,0,0-6.78q-.35-1-1.14-1a1.24,1.24,0,0,0-1.18,1A11.09,11.09,0,0,0,306.39,124.32Z"/><path d="M314.6,114.51h2.33v3.54h1.27v1.86h-1.27v10.78H314.6V119.91h-1.28v-1.86h1.28Z"/><path d="M324.74,126.43h2.17q-.26,4.46-3.66,4.46a3.73,3.73,0,0,1-1.74-.38,3,3,0,0,1-1.2-1.17,6.07,6.07,0,0,1-.7-2,16.22,16.22,0,0,1-.23-2.91,10.2,10.2,0,0,1,.93-5,3.11,3.11,0,0,1,2.89-1.61q3.8,0,3.8,6.69v.29h-5.34q0,4.05,1.61,4.05T324.74,126.43Zm-.12-3.29a8.53,8.53,0,0,0-.45-2.61,1.06,1.06,0,0,0-1-.7,1.05,1.05,0,0,0-1,.7,8.54,8.54,0,0,0-.45,2.61Z"/><path d="M334,118.05h2.34v13a7.88,7.88,0,0,1-.46,3.25Q335,136,332.42,136a3.6,3.6,0,0,1-2.66-1,3.55,3.55,0,0,1-1-2.63V132H331q0,2,1.5,2a1.17,1.17,0,0,0,1.11-.51,4.12,4.12,0,0,0,.31-1.94v-2.43a2.43,2.43,0,0,1-2.28,1.73,2.46,2.46,0,0,1-2.34-1.54,11.55,11.55,0,0,1-.75-4.81,13.55,13.55,0,0,1,.72-5.12,2.42,2.42,0,0,1,2.36-1.58,2,2,0,0,1,1.27.38,4.45,4.45,0,0,1,1,1.34Zm0,6.44q0-4.53-1.56-4.53-.75,0-1.09,1a11.2,11.2,0,0,0-.34,3.27,12.63,12.63,0,0,0,.35,3.5q.37,1,1.22,1a1.14,1.14,0,0,0,1.11-.93A12.06,12.06,0,0,0,334,124.49Z"/><path d="M346.41,124.48q0,6.41-4,6.41t-4-6.51q0-6.53,4-6.53a3.8,3.8,0,0,1,1.78.39,3.12,3.12,0,0,1,1.24,1.21,6.32,6.32,0,0,1,.73,2.06A16,16,0,0,1,346.41,124.48Zm-2.42-.06a12.37,12.37,0,0,0-.33-3.47,1.21,1.21,0,0,0-1.17-1,1.24,1.24,0,0,0-1.18,1,12.05,12.05,0,0,0-.33,3.41,11.92,11.92,0,0,0,.33,3.4,1.24,1.24,0,0,0,1.18,1,1.2,1.2,0,0,0,1.16-1A10.82,10.82,0,0,0,344,124.42Z"/><path d="M348.58,118.05h2.33v1.58a4.46,4.46,0,0,1,1.18-1.4,3,3,0,0,1,1.55-.46v2.44a2.89,2.89,0,0,0-.42,0,2.21,2.21,0,0,0-1.8.65,3.56,3.56,0,0,0-.52,2.22v7.66h-2.33Z"/><path d="M354.69,118.05h2.64l1.86,8.82,2.17-8.82h2.37l-5.17,17.82h-2.45l1.94-6.19Z"/></svg>