<svg id="Layer_1" data-name="Layer 1" xmlns="http://www.w3.org/2000/svg" viewBox="0 0 864 221"><defs><style>.cls-1{fill:none;}.cls-1,.cls-2{stroke:#000;stroke-miterlimit:10;}.cls-2{fill:#f7f9f8;}.cls-3{fill:#14d367;}.cls-4{fill:#0e2104;}</style></defs><title>heat_map_TITLE</title><path d="M36.16,32.67H57.08v5.62h-7.2V80.37h-6.3V38.29H36.16Z"/><path d="M56,48.4h6.67l4.7,22.3,5.5-22.3h6L65.79,93.47H59.58l4.91-15.66Z"/><path d="M82.41,93.47V48.4h5.9v4.14a10.09,10.09,0,0,1,2.53-3.65,5.34,5.34,0,0,1,3.4-1q4,0,5.79,4.09t1.84,12.81q0,8.53-1.88,12.26a6.21,6.21,0,0,1-6,3.83,5.48,5.48,0,0,1-3.24-.9,5.81,5.81,0,0,1-1.24-1.24,14.46,14.46,0,0,1-1.24-1.95V93.47ZM95.75,64.55q0-6.52-.87-8.84-.83-2.5-3-2.5T89,55.81q-.87,2.41-.87,8.59T89,73q.9,2.56,2.9,2.56t3-2.47Q95.75,70.79,95.75,64.55Z"/><path d="M119.73,69.59h5.5q-.65,11.28-9.27,11.28a9.42,9.42,0,0,1-4.4-1,7.7,7.7,0,0,1-3-3,15.31,15.31,0,0,1-1.78-5.1,41,41,0,0,1-.57-7.35q0-8.46,2.36-12.54a7.87,7.87,0,0,1,7.31-4.08q9.61,0,9.61,16.93v.74h-13.5q0,10.26,4.08,10.26Q119.73,75.8,119.73,69.59Zm-.31-8.31q-.37-5-1.14-6.61a2.7,2.7,0,0,0-2.6-1.76,2.66,2.66,0,0,0-2.59,1.76q-.77,1.58-1.14,6.61Z"/><path d="M143.05,49v5.53A7.51,7.51,0,0,0,138.51,53a3.85,3.85,0,0,0-2.67,1,3.48,3.48,0,0,0-.8,1.14,3.45,3.45,0,0,0-.29,1.41q0,2.29,4.14,5.44a30.08,30.08,0,0,1,2.78,2.41,11,11,0,0,1,1.7,2.1,9.19,9.19,0,0,1,1.21,4.91,9.5,9.5,0,0,1-2.5,6.89,8.79,8.79,0,0,1-6.64,2.56,10.33,10.33,0,0,1-5.19-1.51V73.64a8.24,8.24,0,0,0,4.85,1.92q4,0,4-4a4.42,4.42,0,0,0-.74-2.56,7,7,0,0,0-1.08-1.22q-.74-.7-1.82-1.56a24,24,0,0,1-5.07-4.88,9,9,0,0,1-1.3-4.91,8.76,8.76,0,0,1,2.38-6.33,8.43,8.43,0,0,1,6.27-2.44A11,11,0,0,1,143.05,49Z"/><path d="M181.27,64.65q0,16.22-10,16.22t-10-16.47q0-16.53,10-16.53a9.61,9.61,0,0,1,4.49,1,7.9,7.9,0,0,1,3.14,3.06,16.07,16.07,0,0,1,1.84,5.22A40.57,40.57,0,0,1,181.27,64.65Zm-6.12-.15q0-6.3-.83-8.77t-3-2.5q-2.1,0-3,2.47t-.83,8.62q0,6.15.83,8.59t3,2.47q2.1,0,2.93-2.44Q175.15,70.64,175.15,64.49Z"/><path d="M184.51,48.4h3V37.24q0-5.47,1.61-7.72t5.59-2.26a12,12,0,0,1,4,.83v6.24a5.41,5.41,0,0,0-2.5-.77,2.45,2.45,0,0,0-2.15.9,5.42,5.42,0,0,0-.63,3l0,2.41v8.5h5v4.7h-5V80.37h-5.9V53.09h-3Z"/><path d="M215.71,32.67h6.43V55.78l9-23.11h6.49l-9.39,23.11,10.13,24.59H231.1l-9-24.59V80.37h-6.43Z"/><path d="M244.78,34.8a4,4,0,0,1,4,4,4,4,0,1,1-8,0A3.8,3.8,0,0,1,241.91,36,4.11,4.11,0,0,1,244.78,34.8ZM242,48.4h5.93v32H242Z"/><path d="M267.64,49v6a3.72,3.72,0,0,0-3-1.51q-4.88,0-4.88,10.57,0,11.21,4.85,11.21a5.21,5.21,0,0,0,3-1.21v5.53a10.12,10.12,0,0,1-4.76,1.24q-9.52,0-9.51-16.19,0-8.62,2.35-12.71A7.83,7.83,0,0,1,263,47.87,10.14,10.14,0,0,1,267.64,49Z"/><path d="M272.28,27.88h5.9V62.64l7.51-14.24h6.67L284.2,62.64l9.24,17.73h-6.92l-8.34-17v17h-5.9Z"/><path d="M309.88,49v5.53A7.51,7.51,0,0,0,305.33,53a3.85,3.85,0,0,0-2.67,1,3.48,3.48,0,0,0-.8,1.14,3.45,3.45,0,0,0-.29,1.41q0,2.29,4.14,5.44a30.08,30.08,0,0,1,2.78,2.41,11,11,0,0,1,1.7,2.1,9.19,9.19,0,0,1,1.21,4.91,9.5,9.5,0,0,1-2.5,6.89,8.79,8.79,0,0,1-6.64,2.56,10.33,10.33,0,0,1-5.19-1.51V73.64a8.24,8.24,0,0,0,4.85,1.92q4,0,4-4a4.42,4.42,0,0,0-.74-2.56,7,7,0,0,0-1.08-1.22q-.74-.7-1.82-1.56a24,24,0,0,1-5.07-4.88,9,9,0,0,1-1.3-4.91,8.76,8.76,0,0,1,2.38-6.33,8.43,8.43,0,0,1,6.27-2.44A11,11,0,0,1,309.88,49Z"/><path d="M317.14,39.44H323v9h3.21v4.7H323V80.37h-5.9V53.09h-3.24V48.4h3.24Z"/><path d="M348.8,48.4v32h-5.9V76.26a10.26,10.26,0,0,1-2.53,3.61,5.28,5.28,0,0,1-3.34,1q-4,0-5.84-4.08T329.34,64q0-8.31,1.85-12.22A6.12,6.12,0,0,1,337,47.87q3.64,0,5.87,4.14V48.4ZM335.46,64.24q0,6.3.83,8.8t3,2.5q2,0,2.87-2.6a30.09,30.09,0,0,0,.9-8.56,30.24,30.24,0,0,0-.9-8.59q-.9-2.59-2.87-2.59t-3,2.47Q335.46,58,335.46,64.24Z"/><path d="M355.51,48.4h5.9v4a11.28,11.28,0,0,1,3-3.55,7.7,7.7,0,0,1,3.92-1.17v6.18a7.3,7.3,0,0,0-1-.09q-3.18,0-4.54,1.64T361.41,61V80.37h-5.9Z"/><path d="M374.44,39.44h5.9v9h3.21v4.7h-3.21V80.37h-5.9V53.09H371.2V48.4h3.24Z"/><path d="M400.08,69.59h5.5q-.65,11.28-9.27,11.28a9.42,9.42,0,0,1-4.4-1,7.7,7.7,0,0,1-3-3,15.31,15.31,0,0,1-1.78-5.1,41,41,0,0,1-.57-7.35q0-8.46,2.36-12.54a7.87,7.87,0,0,1,7.31-4.08q9.61,0,9.61,16.93v.74H392.3q0,10.26,4.08,10.26Q400.08,75.8,400.08,69.59Zm-.31-8.31q-.37-5-1.14-6.61a2.7,2.7,0,0,0-2.6-1.76,2.66,2.66,0,0,0-2.59,1.76q-.77,1.58-1.14,6.61Z"/><path d="M411.05,48.4H417v4a11.28,11.28,0,0,1,3-3.55,7.7,7.7,0,0,1,3.92-1.17v6.18a7.3,7.3,0,0,0-1-.09q-3.18,0-4.54,1.64T417,61V80.37h-5.9Z"/><path d="M441,93.47V48.4h5.9v4.14a10.09,10.09,0,0,1,2.53-3.65,5.34,5.34,0,0,1,3.4-1q4,0,5.79,4.09t1.84,12.81q0,8.53-1.88,12.26a6.21,6.21,0,0,1-6,3.83,5.48,5.48,0,0,1-3.24-.9,5.81,5.81,0,0,1-1.24-1.24,14.46,14.46,0,0,1-1.24-1.95V93.47Zm13.35-28.92q0-6.52-.87-8.84-.83-2.5-3-2.5t-2.9,2.59q-.87,2.41-.87,8.59t.87,8.59q.9,2.56,2.9,2.56t3-2.47Q454.39,70.79,454.39,64.55Z"/><path d="M466,48.4h5.9v4a11.28,11.28,0,0,1,3-3.55,7.7,7.7,0,0,1,3.92-1.17v6.18a7.3,7.3,0,0,0-1-.09q-3.18,0-4.54,1.64T471.91,61V80.37H466Z"/><path d="M502,64.65q0,16.22-10,16.22t-10-16.47q0-16.53,10-16.53a9.61,9.61,0,0,1,4.49,1,7.9,7.9,0,0,1,3.14,3.06,16.07,16.07,0,0,1,1.84,5.22A40.57,40.57,0,0,1,502,64.65Zm-6.12-.15q0-6.3-.83-8.77t-3-2.5q-2.1,0-3,2.47t-.83,8.62q0,6.15.83,8.59t3,2.47q2.1,0,2.93-2.44Q495.85,70.64,495.85,64.49Z"/><path d="M510.25,34.8a4,4,0,0,1,4,4,4,4,0,1,1-8,0A3.8,3.8,0,0,1,507.38,36,4.11,4.11,0,0,1,510.25,34.8ZM507.47,48.4h5.93V93.47h-5.93Z"/><path d="M532.4,69.59h5.5q-.65,11.28-9.27,11.28a9.42,9.42,0,0,1-4.4-1,7.7,7.7,0,0,1-3-3,15.31,15.31,0,0,1-1.78-5.1,41,41,0,0,1-.57-7.35q0-8.46,2.36-12.54a7.87,7.87,0,0,1,7.31-4.08q9.61,0,9.61,16.93v.74h-13.5q0,10.26,4.08,10.26Q532.4,75.8,532.4,69.59Zm-.31-8.31q-.37-5-1.14-6.61a2.7,2.7,0,0,0-2.6-1.76,2.66,2.66,0,0,0-2.59,1.76q-.77,1.58-1.14,6.61Z"/><path d="M556.43,49v6a3.72,3.72,0,0,0-3-1.51q-4.88,0-4.88,10.57,0,11.21,4.85,11.21a5.21,5.21,0,0,0,3-1.21v5.53a10.12,10.12,0,0,1-4.76,1.24q-9.52,0-9.51-16.19,0-8.62,2.35-12.71a7.83,7.83,0,0,1,7.29-4.09A10.14,10.14,0,0,1,556.43,49Z"/><path d="M562.15,39.44H568v9h3.21v4.7H568V80.37h-5.9V53.09h-3.24V48.4h3.24Z"/><path d="M587.85,49v5.53A7.51,7.51,0,0,0,583.31,53a3.85,3.85,0,0,0-2.67,1,3.48,3.48,0,0,0-.8,1.14,3.45,3.45,0,0,0-.29,1.41q0,2.29,4.14,5.44a30.08,30.08,0,0,1,2.78,2.41,11,11,0,0,1,1.7,2.1,9.19,9.19,0,0,1,1.21,4.91,9.5,9.5,0,0,1-2.5,6.89,8.79,8.79,0,0,1-6.64,2.56A10.33,10.33,0,0,1,575,79.35V73.64a8.24,8.24,0,0,0,4.85,1.92q4,0,4-4a4.42,4.42,0,0,0-.74-2.56,7,7,0,0,0-1.08-1.22q-.74-.7-1.82-1.56a24,24,0,0,1-5.07-4.88,9,9,0,0,1-1.3-4.91,8.76,8.76,0,0,1,2.38-6.33,8.43,8.43,0,0,1,6.27-2.44A11,11,0,0,1,587.85,49Z"/><path d="M595.88,73.7,601,75.21,594.9,92l-3.24-.9Z"/><path d="M620.29,27.88h5.9V52a12.14,12.14,0,0,1,1.27-2,6.43,6.43,0,0,1,1.27-1.24,5.22,5.22,0,0,1,3.21-.93,6.43,6.43,0,0,1,3.52.94,6.8,6.8,0,0,1,2.43,2.92,18.13,18.13,0,0,1,1.41,5,49.25,49.25,0,0,1,.46,7.26q0,8.71-1.85,12.77t-5.81,4.06a5.32,5.32,0,0,1-3.37-1,10.24,10.24,0,0,1-2.53-3.61v4.11h-5.9Zm13.35,36.67q0-6.52-.87-8.84-.83-2.5-3-2.5t-2.87,2.53q-.83,2.5-.83,8.65T626.9,73q.83,2.5,2.87,2.5t3-2.47Q633.63,70.79,633.64,64.55Z"/><path d="M642,48.4h6.67l4.7,22.3,5.5-22.3h6L651.77,93.47h-6.21l4.91-15.66Z"/><path d="M694.56,49v6a3.72,3.72,0,0,0-3-1.51q-4.88,0-4.88,10.57,0,11.21,4.85,11.21a5.21,5.21,0,0,0,3-1.21v5.53a10.12,10.12,0,0,1-4.76,1.24q-9.52,0-9.51-16.19,0-8.62,2.35-12.71a7.83,7.83,0,0,1,7.29-4.09A10.14,10.14,0,0,1,694.56,49Z"/><path d="M718.44,64.65q0,16.22-10,16.22t-10-16.47q0-16.53,10-16.53a9.61,9.61,0,0,1,4.49,1A7.9,7.9,0,0,1,716,51.92a16.07,16.07,0,0,1,1.84,5.22A40.57,40.57,0,0,1,718.44,64.65Zm-6.12-.15q0-6.3-.83-8.77t-3-2.5q-2.1,0-3,2.47t-.83,8.62q0,6.15.83,8.59t3,2.47q2.1,0,2.93-2.44Q712.32,70.64,712.32,64.49Z"/><path d="M723.94,48.4h5.9V69.77a8.47,8.47,0,0,0,.88,4.23,3,3,0,0,0,2.73,1.27,3.24,3.24,0,0,0,2.81-1.11,7.59,7.59,0,0,0,.8-4.08V48.4H743V67.52q0,6.7-1,9-2.07,4.39-8.59,4.39-5.13,0-7.29-2.59t-2.16-8.74Z"/><path d="M749.64,48.4h5.9v3.68q2.53-4.2,6.55-4.2a5.83,5.83,0,0,1,5.56,3.06q.93,1.73.93,6.7V80.37h-5.9l0-21.38a10,10,0,0,0-.77-4.6A2.8,2.8,0,0,0,759.22,53a3.74,3.74,0,0,0-1.71.36,2.68,2.68,0,0,0-1.13,1.14,6.35,6.35,0,0,0-.63,2.05,20.41,20.41,0,0,0-.2,3.12V80.37h-5.9Z"/><path d="M776,39.44h5.9v9h3.21v4.7h-3.21V80.37H776V53.09h-3.24V48.4H776Z"/><path d="M789.31,48.4h5.9v4a11.28,11.28,0,0,1,3-3.55,7.7,7.7,0,0,1,3.92-1.17v6.18a7.3,7.3,0,0,0-1-.09q-3.18,0-4.54,1.64T795.21,61V80.37h-5.9Z"/><path d="M804.75,48.4h6.67l4.7,22.3,5.5-22.3h6L814.55,93.47h-6.21l4.91-15.66Z"/><path d="M196,147.49v2.28a3.92,3.92,0,0,0-1.64-.48,2.67,2.67,0,0,0-1.55.45,3.24,3.24,0,0,0-1.07,1.37,8.7,8.7,0,0,0-.62,2.35,24.36,24.36,0,0,0-.2,3.36q0,7,3.58,7a3.83,3.83,0,0,0,1.5-.39v2.33a4.13,4.13,0,0,1-2.05.51q-5.73,0-5.73-9.35,0-5.06,1.4-7.52a4.6,4.6,0,0,1,4.28-2.47A4.37,4.37,0,0,1,196,147.49Z"/><path d="M198,153.4h2.33V155a4.46,4.46,0,0,1,1.18-1.4,3,3,0,0,1,1.55-.46v2.44a2.87,2.87,0,0,0-.42,0,2.21,2.21,0,0,0-1.8.65,3.56,3.56,0,0,0-.52,2.22V166H198Z"/><path d="M209.61,161.78h2.17q-.26,4.46-3.66,4.46a3.73,3.73,0,0,1-1.74-.38,3,3,0,0,1-1.2-1.17,6.06,6.06,0,0,1-.7-2,16.23,16.23,0,0,1-.23-2.91,10.19,10.19,0,0,1,.93-5,3.11,3.11,0,0,1,2.89-1.61q3.8,0,3.8,6.69v.29h-5.34q0,4.05,1.61,4.05T209.61,161.78Zm-.12-3.29a8.54,8.54,0,0,0-.45-2.61,1.06,1.06,0,0,0-1-.7,1.05,1.05,0,0,0-1,.7,8.52,8.52,0,0,0-.45,2.61Z"/><path d="M221.17,153.4V166h-2.33v-1.62a4.05,4.05,0,0,1-1,1.43,2.09,2.09,0,0,1-1.32.39,2.42,2.42,0,0,1-2.31-1.61,13,13,0,0,1-.73-5.06,11.92,11.92,0,0,1,.73-4.83,2.42,2.42,0,0,1,2.31-1.54,2.62,2.62,0,0,1,2.32,1.64V153.4Zm-5.28,6.26a12.51,12.51,0,0,0,.33,3.48,1.24,1.24,0,0,0,1.2,1q.78,0,1.14-1a16.4,16.4,0,0,0,0-6.78q-.35-1-1.14-1a1.24,1.24,0,0,0-1.18,1A11.07,11.07,0,0,0,215.89,159.66Z"/><path d="M224.1,149.86h2.33v3.54h1.27v1.86h-1.27V166H224.1V155.25h-1.28V153.4h1.28Z"/><path d="M230.47,148A1.58,1.58,0,0,1,232,149.6a1.58,1.58,0,1,1-3.16,0,1.5,1.5,0,0,1,.46-1.1A1.63,1.63,0,0,1,230.47,148Zm-1.1,5.37h2.34V166h-2.34Z"/><path d="M233.12,153.4h2.5l.92,4q.28,1.22.48,2.58t.32,3a4.26,4.26,0,0,0,.07-.44l.28-1.88q.16-1.07.62-3.24l.84-4h2.26L238.12,166h-1.58Z"/><path d="M247.57,161.78h2.17q-.26,4.46-3.66,4.46a3.73,3.73,0,0,1-1.74-.38,3,3,0,0,1-1.2-1.17,6.06,6.06,0,0,1-.7-2,16.23,16.23,0,0,1-.23-2.91,10.19,10.19,0,0,1,.93-5,3.11,3.11,0,0,1,2.89-1.61q3.8,0,3.8,6.69v.29h-5.34q0,4.05,1.61,4.05T247.57,161.78Zm-.12-3.29a8.54,8.54,0,0,0-.45-2.61,1.06,1.06,0,0,0-1-.7,1.05,1.05,0,0,0-1,.7,8.52,8.52,0,0,0-.45,2.61Z"/><path d="M258.18,148a1.58,1.58,0,0,1,1.56,1.58,1.58,1.58,0,1,1-3.16,0,1.5,1.5,0,0,1,.46-1.1A1.63,1.63,0,0,1,258.18,148Zm-1.1,5.37h2.34V166h-2.34Z"/><path d="M262.05,153.4h2.33v1.45a3,3,0,0,1,2.59-1.66,2.31,2.31,0,0,1,2.2,1.21,6.38,6.38,0,0,1,.37,2.65v9h-2.33v-8.45a3.93,3.93,0,0,0-.31-1.82,1.11,1.11,0,0,0-1.05-.54,1.48,1.48,0,0,0-.68.14,1.06,1.06,0,0,0-.45.45,2.52,2.52,0,0,0-.25.81,8,8,0,0,0-.08,1.23V166h-2.33Z"/><path d="M279.39,145.29V166h-2.33v-1.62a4.05,4.05,0,0,1-1,1.43,2.11,2.11,0,0,1-1.33.39,2.41,2.41,0,0,1-2.3-1.61,12.92,12.92,0,0,1-.73-5,19.47,19.47,0,0,1,.18-2.87,7.16,7.16,0,0,1,.56-2,2.69,2.69,0,0,1,1-1.15,2.54,2.54,0,0,1,1.39-.37,2.1,2.1,0,0,1,1.27.37,2.53,2.53,0,0,1,.5.49,4.84,4.84,0,0,1,.5.78v-9.54Zm-5.28,14.37a12.51,12.51,0,0,0,.33,3.48,1.24,1.24,0,0,0,1.2,1q.78,0,1.14-1a16.4,16.4,0,0,0,0-6.78q-.35-1-1.14-1a1.24,1.24,0,0,0-1.18,1A11.07,11.07,0,0,0,274.12,159.66Z"/><path d="M282,153.4h2.33v8.45a3.35,3.35,0,0,0,.35,1.67,1.19,1.19,0,0,0,1.08.5,1.28,1.28,0,0,0,1.11-.44,3,3,0,0,0,.32-1.61V153.4h2.33V161a10.38,10.38,0,0,1-.39,3.54q-.82,1.73-3.4,1.73a3.56,3.56,0,0,1-2.88-1,5.47,5.47,0,0,1-.85-3.46Z"/><path d="M297.09,153.65v2.19a3,3,0,0,0-1.79-.64,1.52,1.52,0,0,0-1.06.41,1.38,1.38,0,0,0-.32.45,1.36,1.36,0,0,0-.12.56q0,.9,1.64,2.15a12,12,0,0,1,1.1,1,4.35,4.35,0,0,1,.67.83,3.63,3.63,0,0,1,.48,1.94,3.76,3.76,0,0,1-1,2.72,3.48,3.48,0,0,1-2.63,1,4.08,4.08,0,0,1-2.05-.6v-2.26a3.26,3.26,0,0,0,1.92.76,1.4,1.4,0,0,0,1.6-1.58,1.75,1.75,0,0,0-.29-1,2.81,2.81,0,0,0-.43-.48q-.29-.27-.72-.62a9.51,9.51,0,0,1-2-1.93,3.54,3.54,0,0,1-.51-1.94,3.46,3.46,0,0,1,.94-2.5,3.33,3.33,0,0,1,2.48-1A4.33,4.33,0,0,1,297.09,153.65Z"/><path d="M300,149.86h2.33v3.54h1.27v1.86h-1.27V166H300V155.25h-1.28V153.4H300Z"/><path d="M305.23,153.4h2.33V155a4.46,4.46,0,0,1,1.18-1.4,3,3,0,0,1,1.55-.46v2.44a2.87,2.87,0,0,0-.42,0,2.21,2.21,0,0,0-1.8.65,3.56,3.56,0,0,0-.52,2.22V166h-2.33Z"/><path d="M311.34,153.4H314l1.86,8.82L318,153.4h2.37l-5.17,17.82h-2.45L314.7,165Z"/><path d="M327,145.29h2.33v9.54a4.81,4.81,0,0,1,.5-.78,2.54,2.54,0,0,1,.5-.49,2.06,2.06,0,0,1,1.27-.37,2.54,2.54,0,0,1,1.39.37,2.69,2.69,0,0,1,1,1.15,7.16,7.16,0,0,1,.56,2,19.47,19.47,0,0,1,.18,2.87,12.92,12.92,0,0,1-.73,5,2.41,2.41,0,0,1-2.3,1.61,2.11,2.11,0,0,1-1.33-.39,4,4,0,0,1-1-1.43V166H327Zm5.28,14.5a11.68,11.68,0,0,0-.34-3.49,1.22,1.22,0,0,0-1.18-1q-.81,0-1.14,1a17.9,17.9,0,0,0,0,6.84q.33,1,1.14,1a1.24,1.24,0,0,0,1.18-1A11,11,0,0,0,332.23,159.79Z"/><path d="M336.83,153.4h2.33V155a4.46,4.46,0,0,1,1.18-1.4,3,3,0,0,1,1.55-.46v2.44a2.87,2.87,0,0,0-.42,0,2.21,2.21,0,0,0-1.8.65,3.56,3.56,0,0,0-.52,2.22V166h-2.33Z"/><path d="M348.46,161.78h2.17q-.26,4.46-3.66,4.46a3.73,3.73,0,0,1-1.74-.38,3,3,0,0,1-1.2-1.17,6.06,6.06,0,0,1-.7-2,16.23,16.23,0,0,1-.23-2.91,10.19,10.19,0,0,1,.93-5,3.11,3.11,0,0,1,2.89-1.61q3.8,0,3.8,6.69v.29h-5.34q0,4.05,1.61,4.05T348.46,161.78Zm-.12-3.29a8.54,8.54,0,0,0-.45-2.61,1.06,1.06,0,0,0-1-.7,1.05,1.05,0,0,0-1,.7,8.52,8.52,0,0,0-.45,2.61Z"/><path d="M360,153.4V166h-2.33v-1.62a4.05,4.05,0,0,1-1,1.43,2.09,2.09,0,0,1-1.32.39,2.42,2.42,0,0,1-2.31-1.61,13,13,0,0,1-.73-5.06,11.92,11.92,0,0,1,.73-4.83,2.42,2.42,0,0,1,2.31-1.54,2.62,2.62,0,0,1,2.32,1.64V153.4Zm-5.28,6.26a12.51,12.51,0,0,0,.33,3.48,1.24,1.24,0,0,0,1.2,1q.78,0,1.14-1a16.4,16.4,0,0,0,0-6.78q-.35-1-1.14-1a1.24,1.24,0,0,0-1.18,1A11.07,11.07,0,0,0,354.74,159.66Z"/><path d="M362.67,145.29H365V159l3-5.63h2.64L367.38,159l3.65,7H368.3l-3.3-6.72V166h-2.33Z"/><path d="M379.66,145.29V166h-2.33v-1.62a4.05,4.05,0,0,1-1,1.43,2.11,2.11,0,0,1-1.33.39,2.41,2.41,0,0,1-2.3-1.61,12.92,12.92,0,0,1-.73-5,19.47,19.47,0,0,1,.18-2.87,7.16,7.16,0,0,1,.56-2,2.69,2.69,0,0,1,1-1.15,2.54,2.54,0,0,1,1.39-.37,2.1,2.1,0,0,1,1.27.37,2.53,2.53,0,0,1,.5.49,4.84,4.84,0,0,1,.5.78v-9.54Zm-5.28,14.37a12.51,12.51,0,0,0,.33,3.48,1.24,1.24,0,0,0,1.2,1q.78,0,1.14-1a16.4,16.4,0,0,0,0-6.78q-.35-1-1.14-1a1.24,1.24,0,0,0-1.18,1A11.07,11.07,0,0,0,374.39,159.66Z"/><path d="M389.78,159.82q0,6.41-4,6.41t-4-6.51q0-6.53,4-6.53a3.8,3.8,0,0,1,1.78.39,3.12,3.12,0,0,1,1.24,1.21,6.32,6.32,0,0,1,.73,2.06A15.91,15.91,0,0,1,389.78,159.82Zm-2.42-.06a12.36,12.36,0,0,0-.33-3.47,1.21,1.21,0,0,0-1.17-1,1.24,1.24,0,0,0-1.18,1,12,12,0,0,0-.33,3.41,11.91,11.91,0,0,0,.33,3.4,1.24,1.24,0,0,0,1.18,1,1.2,1.2,0,0,0,1.16-1A10.84,10.84,0,0,0,387.36,159.76Z"/><path d="M390.64,153.4h2.47l.71,4.07q.21,1.22.37,2.36t.26,2.21l0,.44,0-.46q.1-.88.2-1.62c.07-.49.14-.95.23-1.36l.2-1,.87-4.66h1.7l.82,4.66.27,1.47q.08.42.16,1t.15,1.46l0,.45q.22-2.27.62-4.41l.87-4.66H403L400,166h-1.61l-1-4.82q-.17-.88-.29-1.8t-.21-2c0-.08,0-.18,0-.29s0-.25,0-.4q-.07,1.11-.21,2.16t-.33,2.08l-1,5h-1.61Z"/><path d="M404.47,153.4h2.33v1.45a3,3,0,0,1,2.59-1.66,2.3,2.3,0,0,1,2.2,1.21A6.38,6.38,0,0,1,412,157v9h-2.33v-8.45a3.93,3.93,0,0,0-.3-1.82,1.11,1.11,0,0,0-1.05-.54,1.48,1.48,0,0,0-.68.14,1.05,1.05,0,0,0-.45.45,2.51,2.51,0,0,0-.25.81,8,8,0,0,0-.08,1.23V166h-2.33Z"/><line class="cls-1" x1="445.68" y1="120.87" x2="445.68" y2="196.27"/><rect class="cls-2" x="551.21" y="151.84" width="13.38" height="13.38" transform="translate(0.28 -0.97) rotate(0.1)"/><rect class="cls-3" x="571.89" y="151.88" width="13.38" height="13.38" transform="translate(0.28 -1.01) rotate(0.1)"/><rect class="cls-4" x="592.57" y="151.91" width="13.38" height="13.38" transform="translate(0.28 -1.04) rotate(0.1)"/><path d="M494,134.66h6.79v2.15h-4.25v6h3.83v2.15h-3.83v8.6H494Z"/><path d="M507.54,149.27h2.17q-.26,4.46-3.67,4.45a3.72,3.72,0,0,1-1.74-.38,3,3,0,0,1-1.2-1.17,6,6,0,0,1-.7-2,16.19,16.19,0,0,1-.22-2.91,10.2,10.2,0,0,1,.94-5,3.11,3.11,0,0,1,2.89-1.61q3.8,0,3.79,6.7v.29h-5.34q0,4.05,1.61,4.06T507.54,149.27Zm-.12-3.29a8.54,8.54,0,0,0-.45-2.61,1.07,1.07,0,0,0-1-.7,1,1,0,0,0-1,.69,8.52,8.52,0,0,0-.46,2.61Z"/><path d="M510.61,140.9h2.47l.7,4.07q.21,1.22.37,2.36t.26,2.21l0,.44.05-.46q.1-.88.2-1.62t.23-1.36l.2-1,.88-4.66h1.7l.81,4.67.27,1.47q.08.42.16,1t.14,1.46l0,.45q.22-2.27.63-4.41l.88-4.66h2.3l-3,12.63h-1.61l-1-4.83q-.17-.88-.29-1.8t-.21-2c0-.08,0-.18,0-.29s0-.25,0-.4q-.07,1.11-.21,2.16t-.33,2.08l-1,5h-1.61Z"/><path d="M529.15,149.31h2.17q-.26,4.46-3.67,4.45a3.72,3.72,0,0,1-1.74-.38,3,3,0,0,1-1.2-1.17,6,6,0,0,1-.7-2,16.18,16.18,0,0,1-.22-2.91,10.2,10.2,0,0,1,.94-5,3.11,3.11,0,0,1,2.89-1.61q3.8,0,3.79,6.7v.29h-5.34q0,4.05,1.61,4.06T529.15,149.31ZM529,146a8.54,8.54,0,0,0-.45-2.61,1.07,1.07,0,0,0-1-.7,1,1,0,0,0-1,.69,8.52,8.52,0,0,0-.46,2.61Z"/><path d="M533.5,140.94h2.33v1.58a4.46,4.46,0,0,1,1.19-1.4,3,3,0,0,1,1.55-.46v2.44a2.88,2.88,0,0,0-.41,0,2.21,2.21,0,0,0-1.8.64,3.56,3.56,0,0,0-.53,2.22v7.66h-2.33Z"/><path d="M479.61,183.66l0-17.82H482v1.64a4,4,0,0,1,1-1.44,2.11,2.11,0,0,1,1.34-.4,2.4,2.4,0,0,1,2.29,1.62,13.12,13.12,0,0,1,.72,5.06,11.53,11.53,0,0,1-.75,4.85,2.46,2.46,0,0,1-2.36,1.51,2.17,2.17,0,0,1-1.28-.36,2.31,2.31,0,0,1-.49-.49,5.79,5.79,0,0,1-.49-.77v6.59Zm5.29-11.42a11.66,11.66,0,0,0-.33-3.49,1.22,1.22,0,0,0-1.18-1q-.81,0-1.15,1a17,17,0,0,0,0,6.79q.35,1,1.15,1a1.24,1.24,0,0,0,1.19-1A11,11,0,0,0,484.91,172.24Z"/><path d="M489.51,165.87h2.33v1.58A4.46,4.46,0,0,1,493,166a3,3,0,0,1,1.55-.46V168a2.89,2.89,0,0,0-.42,0,2.21,2.21,0,0,0-1.8.64,3.55,3.55,0,0,0-.53,2.22v7.66h-2.33Z"/><path d="M503.71,172.31q0,6.41-4,6.4t-4-6.52q0-6.53,4-6.53a3.79,3.79,0,0,1,1.78.39,3.13,3.13,0,0,1,1.24,1.21,6.38,6.38,0,0,1,.72,2.06A16.13,16.13,0,0,1,503.71,172.31Zm-2.42-.07a12.39,12.39,0,0,0-.32-3.47,1.21,1.21,0,0,0-1.17-1,1.24,1.24,0,0,0-1.19,1,17.69,17.69,0,0,0,0,6.8,1.24,1.24,0,0,0,1.18,1,1.2,1.2,0,0,0,1.16-1A10.8,10.8,0,0,0,501.3,172.25Z"/><path d="M507,160.52a1.58,1.58,0,0,1,1.56,1.58,1.58,1.58,0,1,1-3.16,0,1.5,1.5,0,0,1,.47-1.1A1.63,1.63,0,0,1,507,160.52Zm-1.11,5.37h2.34l0,17.82h-2.34Z"/><path d="M515.74,174.29h2.17q-.26,4.46-3.67,4.45a3.72,3.72,0,0,1-1.74-.38,3,3,0,0,1-1.2-1.17,6.06,6.06,0,0,1-.7-2,16.27,16.27,0,0,1-.22-2.91,10.2,10.2,0,0,1,.94-5,3.11,3.11,0,0,1,2.89-1.61q3.8,0,3.79,6.7v.29h-5.34q0,4.05,1.6,4.06T515.74,174.29Zm-.12-3.29a8.53,8.53,0,0,0-.45-2.61,1.06,1.06,0,0,0-1-.7,1.05,1.05,0,0,0-1,.69,8.53,8.53,0,0,0-.46,2.61Z"/><path d="M525.25,166.17v2.38a1.47,1.47,0,0,0-1.17-.6q-1.93,0-1.94,4.17,0,4.43,1.91,4.44a2.06,2.06,0,0,0,1.19-.47v2.19a4,4,0,0,1-1.88.48q-3.76,0-3.75-6.41a10.46,10.46,0,0,1,.94-5,3.09,3.09,0,0,1,2.88-1.61A4,4,0,0,1,525.25,166.17Z"/><path d="M527.52,162.39h2.33v3.54h1.27v1.86h-1.27l0,10.78h-2.33l0-10.78h-1.28v-1.86h1.28Z"/><path d="M537.67,166.21v2.19a3,3,0,0,0-1.79-.64,1.54,1.54,0,0,0-.59.11,1.51,1.51,0,0,0-.47.3,1.39,1.39,0,0,0-.32.45,1.36,1.36,0,0,0-.12.56q0,.9,1.63,2.15a11.85,11.85,0,0,1,1.1,1,4.37,4.37,0,0,1,.67.83,3.64,3.64,0,0,1,.47,1.94,3.76,3.76,0,0,1-1,2.72,3.48,3.48,0,0,1-2.63,1,4.08,4.08,0,0,1-2.05-.6v-2.26a3.26,3.26,0,0,0,1.92.76,1.4,1.4,0,0,0,1.6-1.57,1.74,1.74,0,0,0-.29-1,2.68,2.68,0,0,0-.43-.48q-.29-.28-.72-.62a9.49,9.49,0,0,1-2-1.93,3.54,3.54,0,0,1-.51-1.94,3.46,3.46,0,0,1,.95-2.5,3.33,3.33,0,0,1,2.48-1A4.33,4.33,0,0,1,537.67,166.21Z"/><path d="M639.35,134.67h2.17l1.65,7.7q.3,1.44.55,2.89t.45,3l0-.32a1.19,1.19,0,0,1,0-.16l.36-2.16.32-2.05.28-1.35,1.49-7.56h2.2l1.7,18.86h-2.43l-.42-6.4c0-.33,0-.61,0-.84s0-.43,0-.59l-.11-2.53-.06-2.32s0-.05,0-.1l0-.21-.06.38q-.1.67-.18,1.17c-.05.33-.1.61-.14.84l-.32,1.72-.12.65-1.6,8.23h-1.71l-1.48-7.11q-.3-1.4-.54-2.85t-.43-3l-.75,13h-2.39Z"/><path d="M660,147.34q0,6.41-4,6.4t-4-6.52q0-6.53,4-6.53a3.8,3.8,0,0,1,1.78.39,3.13,3.13,0,0,1,1.24,1.21,6.36,6.36,0,0,1,.72,2.06A16,16,0,0,1,660,147.34Zm-2.42-.07a12.34,12.34,0,0,0-.32-3.47,1.21,1.21,0,0,0-1.17-1,1.24,1.24,0,0,0-1.19,1,12.05,12.05,0,0,0-.34,3.41,11.89,11.89,0,0,0,.32,3.4,1.24,1.24,0,0,0,1.18,1,1.2,1.2,0,0,0,1.16-1A10.86,10.86,0,0,0,657.61,147.28Z"/><path d="M662.21,140.93h2.33v1.58a4.46,4.46,0,0,1,1.19-1.4,3,3,0,0,1,1.55-.46v2.44a2.88,2.88,0,0,0-.41,0,2.21,2.21,0,0,0-1.8.64,3.56,3.56,0,0,0-.53,2.22v7.66h-2.33Z"/><path d="M673.83,149.32H676q-.26,4.46-3.67,4.45a3.74,3.74,0,0,1-1.74-.38,3,3,0,0,1-1.2-1.17,6,6,0,0,1-.7-2,16.19,16.19,0,0,1-.22-2.91,10.2,10.2,0,0,1,.94-5,3.11,3.11,0,0,1,2.89-1.61q3.8,0,3.79,6.7v.29h-5.34q0,4.05,1.61,4.06T673.83,149.32Zm-.12-3.29a8.54,8.54,0,0,0-.45-2.61,1.07,1.07,0,0,0-1-.7,1.05,1.05,0,0,0-1,.69,8.52,8.52,0,0,0-.46,2.61Z"/><path d="M617.61,183.66l0-17.82H620v1.64a4,4,0,0,1,1-1.44,2.11,2.11,0,0,1,1.34-.4,2.4,2.4,0,0,1,2.29,1.62,13.12,13.12,0,0,1,.72,5.06,11.53,11.53,0,0,1-.75,4.85,2.46,2.46,0,0,1-2.36,1.51,2.17,2.17,0,0,1-1.28-.36,2.31,2.31,0,0,1-.49-.49,5.79,5.79,0,0,1-.49-.77v6.59Zm5.29-11.42a11.66,11.66,0,0,0-.33-3.49,1.22,1.22,0,0,0-1.18-1q-.81,0-1.15,1a17,17,0,0,0,0,6.79q.35,1,1.15,1a1.24,1.24,0,0,0,1.19-1A11,11,0,0,0,622.91,172.24Z"/><path d="M627.51,165.87h2.33v1.58A4.46,4.46,0,0,1,631,166a3,3,0,0,1,1.55-.46V168a2.89,2.89,0,0,0-.42,0,2.21,2.21,0,0,0-1.8.64,3.55,3.55,0,0,0-.53,2.22v7.66h-2.33Z"/><path d="M641.71,172.31q0,6.41-4,6.4t-4-6.52q0-6.53,4-6.53a3.79,3.79,0,0,1,1.78.39,3.13,3.13,0,0,1,1.24,1.21,6.38,6.38,0,0,1,.72,2.06A16.13,16.13,0,0,1,641.71,172.31Zm-2.42-.07a12.39,12.39,0,0,0-.32-3.47,1.21,1.21,0,0,0-1.17-1,1.24,1.24,0,0,0-1.19,1,17.69,17.69,0,0,0,0,6.8,1.24,1.24,0,0,0,1.18,1,1.2,1.2,0,0,0,1.16-1A10.8,10.8,0,0,0,639.3,172.25Z"/><path d="M645,160.52a1.58,1.58,0,0,1,1.56,1.58,1.58,1.58,0,1,1-3.16,0,1.5,1.5,0,0,1,.47-1.1A1.63,1.63,0,0,1,645,160.52Zm-1.11,5.37h2.34l0,17.82h-2.34Z"/><path d="M653.74,174.29h2.17q-.26,4.46-3.67,4.45a3.72,3.72,0,0,1-1.74-.38,3,3,0,0,1-1.2-1.17,6.06,6.06,0,0,1-.7-2,16.27,16.27,0,0,1-.22-2.91,10.2,10.2,0,0,1,.94-5,3.11,3.11,0,0,1,2.89-1.61q3.8,0,3.79,6.7v.29h-5.34q0,4.05,1.6,4.06T653.74,174.29Zm-.12-3.29a8.53,8.53,0,0,0-.45-2.61,1.06,1.06,0,0,0-1-.7,1.05,1.05,0,0,0-1,.69,8.53,8.53,0,0,0-.46,2.61Z"/><path d="M663.25,166.17v2.38a1.47,1.47,0,0,0-1.17-.6q-1.93,0-1.94,4.17,0,4.43,1.91,4.44a2.06,2.06,0,0,0,1.19-.47v2.19a4,4,0,0,1-1.88.48q-3.76,0-3.75-6.41a10.46,10.46,0,0,1,.94-5,3.09,3.09,0,0,1,2.88-1.61A4,4,0,0,1,663.25,166.17Z"/><path d="M665.52,162.39h2.33v3.54h1.27v1.86h-1.27l0,10.78h-2.33l0-10.78h-1.28v-1.86h1.28Z"/><path d="M675.67,166.21v2.19a3,3,0,0,0-1.79-.64,1.54,1.54,0,0,0-.59.11,1.51,1.51,0,0,0-.47.3,1.39,1.39,0,0,0-.32.45,1.36,1.36,0,0,0-.12.56q0,.9,1.63,2.15a11.85,11.85,0,0,1,1.1,1,4.37,4.37,0,0,1,.67.83,3.64,3.64,0,0,1,.47,1.94,3.76,3.76,0,0,1-1,2.72,3.48,3.48,0,0,1-2.63,1,4.08,4.08,0,0,1-2.05-.6v-2.26a3.26,3.26,0,0,0,1.92.76,1.4,1.4,0,0,0,1.6-1.57,1.74,1.74,0,0,0-.29-1,2.68,2.68,0,0,0-.43-.48q-.29-.28-.72-.62a9.49,9.49,0,0,1-2-1.93,3.54,3.54,0,0,1-.51-1.94,3.46,3.46,0,0,1,.95-2.5,3.33,3.33,0,0,1,2.48-1A4.33,4.33,0,0,1,675.67,166.21Z"/></svg>