<svg id="Layer_2" data-name="Layer 2" xmlns="http://www.w3.org/2000/svg" viewBox="0 0 602.08 356.4"><defs><style>.cls-1{opacity:0.3;}.cls-10,.cls-11,.cls-12,.cls-13,.cls-14,.cls-15,.cls-16,.cls-17,.cls-18,.cls-2,.cls-3,.cls-4,.cls-5,.cls-6,.cls-7,.cls-8,.cls-9{fill:none;stroke:#000;stroke-miterlimit:10;stroke-width:0.5px;}.cls-3{stroke-dasharray:3.02 3.02;}.cls-4{stroke-dasharray:3.02 3.02;}.cls-5{stroke-dasharray:3.01 3.01;}.cls-6{stroke-dasharray:3 3;}.cls-7{stroke-dasharray:3.01 3.01;}.cls-8{stroke-dasharray:2.99 2.99;}.cls-9{stroke-dasharray:3 3;}.cls-10{stroke-dasharray:3.01 3.01;}.cls-11{stroke-dasharray:2.99 2.99;}.cls-12{stroke-dasharray:2.99 2.99;}.cls-13{stroke-dasharray:2.99 2.99;}.cls-14{stroke-dasharray:2.98 2.98;}.cls-15{stroke-dasharray:2.97 2.97;}.cls-16{stroke-dasharray:2.97 2.97;}.cls-17{stroke-dasharray:2.98 2.98;}.cls-18{stroke-dasharray:2.98 2.98;}.cls-19{fill:#9899cb;}.cls-20{font-size:9px;}.cls-20,.cls-28{font-family:Helvetica, Helvetica;}.cls-21,.cls-28{font-size:8px;}.cls-21{font-family:MyriadPro-Regular, Myriad Pro;}.cls-22{letter-spacing:-0.02em;}.cls-23{letter-spacing:0em;}.cls-24{letter-spacing:0em;}.cls-25{letter-spacing:0em;}.cls-26{letter-spacing:0em;}.cls-27{letter-spacing:-0.03em;}.cls-29{letter-spacing:0em;}.cls-30{letter-spacing:-0.03em;}.cls-31{letter-spacing:-0.04em;}.cls-32{letter-spacing:-0.01em;}.cls-33{letter-spacing:0.01em;}.cls-34{letter-spacing:0em;}.cls-35{letter-spacing:-0.01em;}.cls-36{letter-spacing:-0.02em;}.cls-37{letter-spacing:-0.01em;}.cls-38{letter-spacing:-0.01em;}.cls-39{letter-spacing:-0.01em;}.cls-40{letter-spacing:-0.03em;}.cls-41{letter-spacing:0.02em;}.cls-42{letter-spacing:-0.01em;}.cls-43{letter-spacing:-0.01em;}.cls-44{letter-spacing:-0.01em;}.cls-45{letter-spacing:-0.04em;}.cls-46{letter-spacing:-0.02em;}.cls-47{letter-spacing:-0.01em;}.cls-48{letter-spacing:0em;}.cls-49{letter-spacing:-0.04em;}.cls-50{letter-spacing:-0.01em;}.cls-51{font-size:10.75px;font-family:Helvetica-Bold, Helvetica;font-weight:700;}.cls-52{letter-spacing:-0.02em;}.cls-53{letter-spacing:0em;}.cls-54{letter-spacing:-0.07em;}.cls-55{letter-spacing:-0.02em;}.cls-56{letter-spacing:-0.05em;}</style></defs><title>bodyparts_total_05_15</title><g class="cls-1"><path class="cls-2" d="M466.5,90.31l1.5,0"/><path class="cls-3" d="M471,90.25c19.82-.22,39.35-.21,58.86,0"/><path class="cls-2" d="M531.39,90.29l1.5,0"/></g><g class="cls-1"><path class="cls-2" d="M256.3,113.19h1.5"/><path class="cls-4" d="M260.82,113.19c90.1-.16,180.57-.16,270.7,0"/><path class="cls-2" d="M533,113.19h1.5"/></g><g class="cls-1"><path class="cls-2" d="M232,124.64h1.5"/><path class="cls-5" d="M236.49,124.66c97.44.36,195.89.36,293.44,0"/><path class="cls-2" d="M531.44,124.64h1.5"/></g><g class="cls-1"><path class="cls-2" d="M226.55,136.08h1.5"/><path class="cls-6" d="M231.06,136.08q149.74-.08,298.86,0"/><path class="cls-2" d="M531.42,136.08h1.5"/></g><g class="cls-1"><path class="cls-2" d="M213.08,147.53h1.5"/><path class="cls-7" d="M217.6,147.55c104.28.47,207.8.47,312,0"/><path class="cls-2" d="M531.14,147.53h1.5"/></g><g class="cls-1"><path class="cls-2" d="M203.89,159h1.5"/><path class="cls-8" d="M208.39,159c107.48.05,214,0,321.53,0"/><path class="cls-2" d="M531.42,159h1.5"/></g><g class="cls-1"><path class="cls-2" d="M214.27,170.41h1.5"/><path class="cls-9" d="M218.77,170.4c103.16-.37,207.6-.37,310.85,0"/><path class="cls-2" d="M531.12,170.41h1.5"/></g><g class="cls-1"><path class="cls-2" d="M213.68,181.86h1.5"/><path class="cls-10" d="M218.18,181.87c103.73.16,208.18.16,311.55,0"/><path class="cls-2" d="M531.24,181.86h1.5"/></g><g class="cls-1"><path class="cls-2" d="M203.89,194h1.5"/><path class="cls-11" d="M208.39,194H529.81"/><path class="cls-2" d="M531.3,194h1.5"/></g><g class="cls-1"><path class="cls-2" d="M203.89,204.75h1.5"/><path class="cls-11" d="M208.39,204.76c107.48.26,214,.26,321.42,0"/><path class="cls-2" d="M531.3,204.75h1.5"/></g><g class="cls-1"><path class="cls-2" d="M203.89,216.19h1.5"/><path class="cls-12" d="M208.38,216.18c107.48-.16,214-.16,321.25,0"/><path class="cls-2" d="M531.13,216.19h1.5"/></g><g class="cls-1"><path class="cls-2" d="M203.89,227.64h1.5"/><path class="cls-13" d="M208.38,227.65c106.54.37,214,.37,321,0"/><path class="cls-2" d="M530.84,227.64h1.5"/></g><g class="cls-1"><path class="cls-2" d="M203.89,239.08h1.5"/><path class="cls-13" d="M208.38,239.08c106.54-.05,214-.05,321,0"/><path class="cls-2" d="M530.84,239.08h1.5"/></g><g class="cls-1"><path class="cls-2" d="M203.89,250.52h1.5"/><path class="cls-14" d="M208.38,250.54c106.54.47,214,.47,320.65,0"/><path class="cls-2" d="M530.52,250.53H532"/></g><g class="cls-1"><path class="cls-2" d="M203.89,262h1.5"/><path class="cls-15" d="M208.37,262q159.77.08,319.74,0"/><path class="cls-2" d="M529.6,262h1.5"/></g><g class="cls-1"><path class="cls-2" d="M203.89,273.41h1.5"/><path class="cls-16" d="M208.37,273.4q159.77-.56,319.59,0"/><path class="cls-2" d="M529.45,273.4h1.5"/></g><g class="cls-1"><path class="cls-2" d="M203.89,284.86h1.5"/><path class="cls-17" d="M208.37,284.86c106.54.16,214,.16,320.36,0"/><path class="cls-2" d="M530.22,284.86h1.5"/></g><g class="cls-1"><path class="cls-2" d="M203.89,296.3h1.5"/><path class="cls-17" d="M208.37,296.29c106.54-.26,214-.26,320.36,0"/><path class="cls-2" d="M530.22,296.3h1.5"/></g><g class="cls-1"><path class="cls-2" d="M240.37,101.75h1.5"/><path class="cls-18" d="M244.86,101.76c95,.26,189.57.26,285,0"/><path class="cls-2" d="M531.39,101.75h1.5"/></g><rect class="cls-19" x="203.89" y="87.44" width="318.86" height="5.72"/><rect class="cls-19" x="203.89" y="98.89" width="120.63" height="5.72"/><rect class="cls-19" x="203.89" y="110.33" width="104.81" height="5.72"/><rect class="cls-19" x="203.89" y="121.78" width="76.19" height="5.72"/><rect class="cls-19" x="203.89" y="133.22" width="72.95" height="5.72"/><rect class="cls-19" x="203.89" y="144.67" width="56.18" height="5.72"/><rect class="cls-19" x="203.89" y="156.11" width="50.97" height="5.72"/><rect class="cls-19" x="203.89" y="167.55" width="44.73" height="5.72"/><rect class="cls-19" x="203.89" y="179" width="42.97" height="5.72"/><rect class="cls-19" x="203.89" y="190.44" width="40.61" height="5.72"/><rect class="cls-19" x="203.89" y="201.89" width="39.89" height="5.72"/><rect class="cls-19" x="203.89" y="213.33" width="33.34" height="5.72"/><rect class="cls-19" x="203.89" y="224.77" width="25" height="5.72"/><rect class="cls-19" x="203.89" y="236.22" width="22.66" height="5.72"/><rect class="cls-19" x="203.89" y="247.66" width="20.75" height="5.72"/><rect class="cls-19" x="203.89" y="259.11" width="18.38" height="5.72"/><rect class="cls-19" x="203.89" y="270.55" width="8.71" height="5.72"/><rect class="cls-19" x="203.89" y="282" width="7.74" height="5.72"/><rect class="cls-19" x="203.89" y="293.44" width="7.25" height="5.72"/><line class="cls-2" x1="201.39" y1="307.02" x2="540.6" y2="307.02"/><text class="cls-20" transform="translate(201.39 318.5)">0</text><text class="cls-20" transform="translate(267.45 318.5)">5,000</text><text class="cls-20" transform="translate(338.52 318.5)">10,000</text><text class="cls-20" transform="translate(412.09 318.5)">15,000</text><text class="cls-20" transform="translate(485.67 318.5)">20,000</text><text class="cls-21" transform="translate(148.25 92.55)"><tspan class="cls-22">W</tspan><tspan class="cls-23" x="6.64" y="0">r</tspan><tspan class="cls-24" x="9.29" y="0">is</tspan><tspan class="cls-25" x="14.33" y="0">t</tspan><tspan class="cls-26" x="16.95" y="0">, </tspan><tspan class="cls-27" x="20.3" y="0">F</tspan><tspan x="23.99" y="0">ingers</tspan></text><text class="cls-28" transform="translate(176.81 103.36)">Foot</text><text class="cls-21" transform="translate(119.43 115.48)">Joi<tspan class="cls-29" x="9.22" y="0">n</tspan><tspan x="13.63" y="0">t of </tspan><tspan class="cls-30" x="26.4" y="0">F</tspan><tspan x="30.05" y="0">oot and</tspan><tspan class="cls-31" x="55.98" y="0"> </tspan><tspan class="cls-32" x="57.35" y="0">T</tspan><tspan class="cls-24" x="61.23" y="0">ibia</tspan></text><text class="cls-21" transform="translate(157.97 127.13)"><tspan class="cls-33">K</tspan><tspan x="4.42" y="0">nee Joi</tspan><tspan class="cls-34" x="27.79" y="0">n</tspan><tspan class="cls-24" x="32.2" y="0">t</tspan></text><text class="cls-21" transform="translate(103.38 138.41)"><tspan class="cls-35">T</tspan><tspan x="3.92" y="0">he Head (</tspan><tspan class="cls-25" x="35.62" y="0">e</tspan><tspan class="cls-36" x="39.61" y="0">x</tspan><tspan class="cls-37" x="43.19" y="0">c</tspan><tspan x="46.73" y="0">ept the </tspan><tspan class="cls-38" x="72.42" y="0">E</tspan><tspan class="cls-39" x="76.3" y="0">y</tspan><tspan class="cls-26" x="79.99" y="0">es)</tspan></text><text class="cls-21" transform="translate(134.27 150.06)"><tspan class="cls-40">V</tspan><tspan x="4.2" y="0">e</tspan><tspan class="cls-41" x="8.21" y="0">r</tspan><tspan class="cls-42" x="11.02" y="0">t</tspan><tspan x="13.62" y="0">eb</tspan><tspan class="cls-43" x="22.18" y="0">r</tspan><tspan class="cls-26" x="24.75" y="0">al </tspan><tspan class="cls-44" x="32.19" y="0">C</tspan><tspan class="cls-24" x="36.74" y="0">olumn</tspan></text><text class="cls-28" transform="translate(175.77 160.5)"><tspan class="cls-45">T</tspan><tspan x="4.59" y="0">ibia</tspan></text><text class="cls-28" transform="translate(61.48 171.78)">Thorax and Mixed <tspan class="cls-46" x="66.25" y="0">W</tspan><tspan x="73.66" y="0">ounds of</tspan><tspan class="cls-46" x="104.36" y="0"> </tspan><tspan x="106.44" y="0">Thorax</tspan></text><text class="cls-28" transform="translate(160.79 183.43)">Shoulder</text><text class="cls-21" transform="translate(104.07 196.37)">Joi<tspan class="cls-29" x="9.22" y="0">n</tspan><tspan x="13.63" y="0">t of </tspan><tspan class="cls-30" x="26.4" y="0">F</tspan><tspan x="30.05" y="0">o</tspan><tspan class="cls-47" x="34.44" y="0">r</tspan><tspan x="36.98" y="0">ea</tspan><tspan class="cls-48" x="44.84" y="0">r</tspan><tspan class="cls-26" x="47.49" y="0">m and </tspan><tspan class="cls-49" x="70.36" y="0"> </tspan><tspan class="cls-22" x="71.77" y="0">W</tspan><tspan class="cls-48" x="78.41" y="0">r</tspan><tspan x="81.06" y="0">ist</tspan></text><text class="cls-21" transform="translate(154.67 207.2)">E<tspan class="cls-29" x="3.94" y="0">n</tspan><tspan x="8.34" y="0">ti</tspan><tspan class="cls-50" x="12.86" y="0">r</tspan><tspan x="15.4" y="0">e </tspan><tspan class="cls-48" x="21.1" y="0">B</tspan><tspan x="25.47" y="0">ody</tspan></text><text class="cls-28" transform="translate(178.15 217.64)">Arm</text><text class="cls-28" transform="translate(171.03 229.29)">Elbow</text><text class="cls-28" transform="translate(175.03 240.57)">Eyes</text><text class="cls-28" transform="translate(162.59 252.22)">Forearm</text><text class="cls-28" transform="translate(172.8 263.5)">Thigh</text><text class="cls-28" transform="translate(161.69 274.78)">Hip Joint</text><text class="cls-28" transform="translate(139 286.43)">Bones of Basin</text><text class="cls-28" transform="translate(81.66 297.71)">Gut and Genito-Urinary Organs</text><text class="cls-51" transform="translate(108.42 42.82)">ACCIDENTS B<tspan class="cls-52" x="73.49" y="0">Y</tspan><tspan class="cls-53" x="80.47" y="0" xml:space="preserve"> THE </tspan><tspan class="cls-54" x="107.95" y="0">P</tspan><tspan x="114.33" y="0">ART OF THE BOD</tspan><tspan class="cls-55" x="205.73" y="0">Y</tspan><tspan x="212.72" y="0" xml:space="preserve"> TH</tspan><tspan class="cls-54" x="230.04" y="0">A</tspan><tspan class="cls-53" x="237.01" y="0">T </tspan><tspan class="cls-56" x="246.57" y="0">W</tspan><tspan class="cls-53" x="256.13" y="0">AS INJURED: 2005 - 2015</tspan></text></svg>