<svg id="Layer_2" data-name="Layer 2" xmlns="http://www.w3.org/2000/svg" viewBox="0 0 562.2 323.2"><defs><style>.cls-1{opacity:0.3;}.cls-10,.cls-2,.cls-3,.cls-4,.cls-5,.cls-6,.cls-7,.cls-8,.cls-9{fill:none;stroke:#000;stroke-miterlimit:10;stroke-width:0.5px;}.cls-3{stroke-dasharray:2.98 2.98;}.cls-4{stroke-dasharray:3 3;}.cls-5{stroke-dasharray:3 3;}.cls-6{stroke-dasharray:2.98 2.98;}.cls-7{stroke-dasharray:2.99 2.99;}.cls-8{stroke-dasharray:3.02 3.02;}.cls-9{stroke-dasharray:2.99 2.99;}.cls-10{stroke-dasharray:2.98 2.98;}.cls-11{font-size:9px;}.cls-11,.cls-13{font-family:Helvetica, Helvetica;}.cls-12{fill:#9899cb;}.cls-13{font-size:8px;}.cls-14{letter-spacing:-0.02em;}.cls-15{letter-spacing:-0.05em;}.cls-16{font-size:10.75px;font-family:Helvetica-Bold, Helvetica;font-weight:700;}.cls-17{letter-spacing:-0.02em;}.cls-18{letter-spacing:0em;}.cls-19{letter-spacing:-0.04em;}.cls-20{letter-spacing:-0.07em;}</style></defs><title>injuries_total_05_15</title><g class="cls-1"><path class="cls-2" d="M235.73,66.94h1.5"/><path class="cls-3" d="M240.2,66.95c94.77.13,189.06.13,284.28,0"/><path class="cls-2" d="M526,66.95h1.5"/></g><g class="cls-1"><path class="cls-2" d="M233.67,81.44h1.5"/><path class="cls-4" d="M238.17,81.45c95.44.13,190.4.13,286.3,0"/><path class="cls-2" d="M526,81.44h1.5"/></g><g class="cls-1"><path class="cls-2" d="M239.15,95.94h1.5"/><path class="cls-5" d="M243.65,95.94c93.61.13,186.76.13,280.81,0"/><path class="cls-2" d="M526,95.94h1.5"/></g><g class="cls-1"><path class="cls-2" d="M239.15,110.43h1.5"/><path class="cls-5" d="M243.65,110.44c93.61.13,186.76.13,280.81,0"/><path class="cls-2" d="M526,110.43h1.5"/></g><g class="cls-1"><path class="cls-2" d="M217.75,124.93h1.5"/><path class="cls-6" d="M222.23,124.93c100.76.13,201,.13,302.25,0"/><path class="cls-2" d="M526,124.93h1.5"/></g><g class="cls-1"><path class="cls-2" d="M217.75,138.64h1.5"/><path class="cls-6" d="M222.23,138.65c100.76.13,201,.13,302.25,0"/><path class="cls-2" d="M526,138.64h1.5"/></g><g class="cls-1"><path class="cls-2" d="M216.38,168.42h1.5"/><path class="cls-7" d="M220.87,168.42c101.21.13,201.91.13,303.6,0"/><path class="cls-2" d="M526,168.42h1.5"/></g><g class="cls-1"><path class="cls-2" d="M207.46,182.91H209"/><path class="cls-8" d="M212,182.92c104.17.13,207.81.13,312.48,0"/><path class="cls-2" d="M526,182.91h1.5"/></g><g class="cls-1"><path class="cls-2" d="M192.67,197.41h1.5"/><path class="cls-9" d="M197.16,197.41c109.12.14,217.68.13,327.32,0"/><path class="cls-2" d="M526,197.41h1.5"/></g><g class="cls-1"><path class="cls-2" d="M192.67,211.9h1.5"/><path class="cls-9" d="M197.16,211.91c109.12.14,217.68.13,327.32,0"/><path class="cls-2" d="M526,211.9h1.5"/></g><g class="cls-1"><path class="cls-2" d="M192.67,226.4h1.5"/><path class="cls-10" d="M197.15,226.4c108.9.14,217.25.13,326.67,0"/><path class="cls-2" d="M525.31,226.4h1.5"/></g><g class="cls-1"><path class="cls-2" d="M192.67,241.09h1.5"/><path class="cls-10" d="M197.15,241.1c108.9.14,217.25.13,326.67,0"/><path class="cls-2" d="M525.31,241.09h1.5"/></g><g class="cls-1"><path class="cls-2" d="M192.67,255.78h1.5"/><path class="cls-10" d="M197.15,255.79c108.9.14,217.25.13,326.67,0"/><path class="cls-2" d="M525.31,255.78h1.5"/></g><g class="cls-1"><path class="cls-2" d="M192.67,269.83h1.5"/><path class="cls-10" d="M197.15,269.84c108.9.14,217.25.13,326.67,0"/><path class="cls-2" d="M525.31,269.84h1.5"/></g><g class="cls-1"><path class="cls-2" d="M216.38,153.92h1.5"/><path class="cls-7" d="M220.87,153.93c101.21.13,201.91.13,303.6,0"/><path class="cls-2" d="M526,153.92h1.5"/></g><line class="cls-2" x1="193.02" y1="278.08" x2="532.23" y2="278.08"/><text class="cls-11" transform="translate(246.09 296.31)">5,000</text><text class="cls-11" transform="translate(309.99 296.31)">10,000</text><text class="cls-11" transform="translate(376.96 296.31)">15,000</text><text class="cls-11" transform="translate(443.94 296.31)">20,000</text><text class="cls-11" transform="translate(510.84 296.31)">25,000</text><text class="cls-11" transform="translate(189.95 296.31)">0</text><rect class="cls-12" x="192.67" y="63.37" width="318.86" height="7.25"/><rect class="cls-12" x="192.67" y="77.87" width="247.86" height="7.25"/><rect class="cls-12" x="192.67" y="92.36" width="229.11" height="7.25"/><rect class="cls-12" x="192.67" y="106.86" width="86.12" height="7.25"/><rect class="cls-12" x="192.67" y="121.36" width="29.59" height="7.25"/><rect class="cls-12" x="192.67" y="135.85" width="27.73" height="7.25"/><rect class="cls-12" x="192.67" y="150.35" width="27.53" height="7.25"/><rect class="cls-12" x="192.67" y="164.84" width="23.71" height="7.25"/><rect class="cls-12" x="192.67" y="179.34" width="12.79" height="7.25"/><rect class="cls-12" x="192.67" y="193.84" width="5.12" height="7.25"/><rect class="cls-12" x="192.67" y="208.33" width="2.68" height="7.25"/><rect class="cls-12" x="192.67" y="222.83" width="1.31" height="7.25"/><text class="cls-13" transform="translate(150.87 68.51)">Fracture</text><text class="cls-13" transform="translate(118.54 83)">Rupturing <tspan class="cls-14" x="36.91" y="0">W</tspan><tspan x="44.32" y="0">ound</tspan></text><text class="cls-13" transform="translate(152.2 97.5)">Rupture</text><text class="cls-13" transform="translate(159.76 112)">Strain</text><text class="cls-13" transform="translate(159.76 126.49)">Burns</text><text class="cls-13" transform="translate(140.19 140.2)">Amputation</text><text class="cls-13" transform="translate(108.19 155.48)">Skull-Cerebral Injury</text><text class="cls-13" transform="translate(141.53 169.98)">Dislocation</text><text class="cls-13" transform="translate(109.51 184.47)">Compound Fracture</text><text class="cls-13" transform="translate(139.75 198.97)">Other Case</text><text class="cls-13" transform="translate(129.97 213.47)">Electric Shock</text><text class="cls-13" transform="translate(23.83 227.96)">Su<tspan class="cls-14" x="9.79" y="0">f</tspan><tspan x="11.87" y="0">focation, Poisoning from Gases, Drowing</tspan></text><text class="cls-13" transform="translate(89.06 242.65)">Poisoning (except Gases)</text><text class="cls-13" transform="translate(96.75 257.34)">Not<tspan class="cls-15" x="12.45" y="0"> </tspan><tspan x="14.23" y="0">Ascertained </tspan><tspan class="cls-14" x="58.7" y="0">W</tspan><tspan x="66.11" y="0">ound</tspan></text><text class="cls-13" transform="translate(111.43 271.4)">E<tspan class="cls-14" x="5.34" y="0">f</tspan><tspan x="7.42" y="0">fects of Radiation</tspan></text><text class="cls-16" transform="translate(163.76 31.81)">ACCIDENTS B<tspan class="cls-17" x="73.49" y="0">Y</tspan><tspan class="cls-18" x="80.47" y="0" xml:space="preserve"> TYPE OF INJU</tspan><tspan class="cls-19" x="156.95" y="0">R</tspan><tspan class="cls-20" x="164.33" y="0">Y</tspan><tspan x="170.7" y="0">: 2005 - 2015</tspan></text></svg>