<svg id="Layer_3" data-name="Layer 3" xmlns="http://www.w3.org/2000/svg" viewBox="0 0 653.97 269.09"><defs><style>.cls-1,.cls-3,.cls-5{fill:none;}.cls-1,.cls-2{stroke:#e9e9ea;}.cls-1,.cls-2,.cls-3,.cls-5{stroke-miterlimit:10;}.cls-2{fill:#e9e9ea;}.cls-3,.cls-5{stroke:#000;}.cls-3{stroke-width:0.5px;}.cls-4{font-size:12px;}.cls-10,.cls-4,.cls-8{font-family:Helvetica, Helvetica;}.cls-5{stroke-width:0.75px;stroke-dasharray:2 2;opacity:0.3;}.cls-6{fill:#9899cb;}.cls-7{fill:#8e7a7b;}.cls-8{font-size:6px;}.cls-9{letter-spacing:-0.07em;}.cls-10{font-size:9px;}.cls-11{font-size:10.75px;font-family:Helvetica-Bold, Helvetica;font-weight:700;}.cls-12{letter-spacing:-0.07em;}.cls-13{letter-spacing:-0.04em;}</style></defs><title>men_women_14_15</title><line class="cls-1" x1="541.92" y1="129.06" x2="541.92" y2="113.1"/><line class="cls-1" x1="537.15" y1="194.09" x2="537.15" y2="178.14"/><line class="cls-1" x1="248.92" y1="129.06" x2="248.92" y2="113.1"/><line class="cls-1" x1="244.15" y1="194.09" x2="244.15" y2="178.14"/><rect class="cls-2" x="202.73" y="99.93" width="92.55" height="13.17"/><rect class="cls-2" x="495.74" y="99.93" width="92.36" height="13.17"/><line class="cls-3" x1="327.22" y1="104.16" x2="327.22" y2="223.51"/><text class="cls-4" transform="translate(323.88 87.22)">0</text><line class="cls-5" x1="327.39" y1="133.82" x2="537.15" y2="133.82"/><line class="cls-5" x1="327.39" y1="133.82" x2="253.69" y2="133.82"/><line class="cls-5" x1="327.05" y1="173.37" x2="249.1" y2="173.37"/><circle class="cls-6" cx="248.92" cy="133.82" r="4.77"/><circle class="cls-6" cx="244.15" cy="173.37" r="4.77"/><circle class="cls-7" cx="541.92" cy="133.82" r="4.77"/><circle class="cls-7" cx="537.15" cy="173.37" r="4.77"/><text class="cls-8" transform="translate(498.56 107.65)">3,127 male workers were injured</text><rect class="cls-2" x="490.97" y="194.09" width="92.36" height="13.17"/><text class="cls-8" transform="translate(493.8 201.81)">3,237 male workers were injured</text><text class="cls-8" transform="translate(203.37 107.65)">1,<tspan class="cls-9" x="5" y="0">1</tspan><tspan x="7.9" y="0">14 female workers were injured</tspan></text><rect class="cls-2" x="196.53" y="194.09" width="95.24" height="13.17"/><text class="cls-8" transform="translate(198.52 201.81)">1,222 female workers were injured</text><text class="cls-8" transform="translate(333.31 142.88)">2014</text><text class="cls-8" transform="translate(333.31 182.47)">2015</text><line class="cls-5" x1="327.22" y1="173.37" x2="532.73" y2="173.37"/><text class="cls-10" transform="translate(526.68 155.3)">MEN</text><text class="cls-10" transform="translate(239.39 155.3)">WOMEN</text><text class="cls-11" transform="translate(148.32 39.66)">COM<tspan class="cls-12" x="25.09" y="0">P</tspan><tspan x="31.47" y="0">ARING THE BALANCE OF GENDERED</tspan><tspan class="cls-13" x="228.03" y="0"> </tspan><tspan x="230.62" y="0">ACCIDENTS: 2014 - 2015</tspan></text></svg>