<svg id="Layer_2" data-name="Layer 2" xmlns="http://www.w3.org/2000/svg" viewBox="0 0 611.24 363.7"><defs><style>.cls-1,.cls-4{fill:none;stroke-miterlimit:10;stroke-width:0.5px;}.cls-1{stroke:#666161;stroke-dasharray:2 2;opacity:0.3;}.cls-15,.cls-2{fill:#9899cb;}.cls-3{fill:#8e7a7b;}.cls-4{stroke:#000;}.cls-5{font-size:9px;}.cls-5,.cls-6{font-family:Helvetica, Helvetica;}.cls-6{font-size:8px;}.cls-7{letter-spacing:-0.02em;}.cls-8{letter-spacing:-0.04em;}.cls-9{letter-spacing:-0.11em;}.cls-10{letter-spacing:-0.05em;}.cls-11{font-size:10.75px;font-family:Helvetica-Bold, Helvetica;font-weight:700;}.cls-12{letter-spacing:-0.02em;}.cls-13{letter-spacing:-0.07em;}.cls-14{letter-spacing:0em;}.cls-15{letter-spacing:0em;}</style></defs><title>occupations_14_15</title><line class="cls-1" x1="536.09" y1="94.79" x2="552.03" y2="94.79"/><line class="cls-1" x1="475.43" y1="118.95" x2="552.03" y2="118.95"/><line class="cls-1" x1="388.58" y1="143.11" x2="552.03" y2="143.11"/><line class="cls-1" x1="237.03" y1="167.2" x2="552.03" y2="167.2"/><line class="cls-1" x1="285.31" y1="191.39" x2="552.03" y2="191.39"/><line class="cls-1" x1="224.33" y1="215.59" x2="552.03" y2="215.59"/><line class="cls-1" x1="256.41" y1="239.75" x2="552.03" y2="239.75"/><line class="cls-1" x1="250.24" y1="263.91" x2="552.03" y2="263.91"/><line class="cls-1" x1="217.23" y1="288.07" x2="550.72" y2="288.07"/><rect class="cls-2" x="217.23" y="88.75" width="256.24" height="6.04"/><rect class="cls-3" x="217.23" y="94.79" width="318.86" height="6.04"/><rect class="cls-2" x="217.23" y="112.91" width="264.88" height="6.04"/><rect class="cls-3" x="217.23" y="118.95" width="248.12" height="6.04"/><rect class="cls-2" x="217.23" y="137.07" width="171.35" height="6.04"/><rect class="cls-3" x="217.23" y="143.11" width="173.4" height="6.04"/><rect class="cls-2" x="217.23" y="185.37" width="225.58" height="6.04"/><rect class="cls-3" x="217.23" y="191.43" width="213.53" height="6.04"/><rect class="cls-2" x="217.23" y="209.54" width="100.61" height="6.04"/><rect class="cls-3" x="217.23" y="215.59" width="125.76" height="6.04"/><rect class="cls-2" x="217.23" y="233.71" width="38.78" height="6.04"/><rect class="cls-3" x="217.23" y="239.75" width="38.78" height="6.04"/><rect class="cls-2" x="217.23" y="257.87" width="33.01" height="6.04"/><rect class="cls-3" x="217.23" y="263.91" width="30.13" height="6.04"/><rect class="cls-2" x="217.23" y="282.03" width="0.94" height="6.04"/><rect class="cls-3" x="217.23" y="167.2" width="20.2" height="5.97"/><rect class="cls-2" x="217.23" y="161.19" width="19.39" height="6.04"/><rect class="cls-3" x="217.23" y="288.07" width="0.16" height="6.04"/><line class="cls-4" x1="217.23" y1="300.15" x2="552.03" y2="300.15"/><text class="cls-5" transform="translate(214.15 312.15)">0</text><text class="cls-5" transform="translate(262.12 312.15)">200</text><text class="cls-5" transform="translate(314.53 312.15)">400</text><text class="cls-5" transform="translate(366.93 312.15)">600</text><text class="cls-5" transform="translate(419.33 312.15)">800</text><text class="cls-5" transform="translate(469.22 312.15)">1,000</text><text class="cls-5" transform="translate(521.62 312.15)">1,200</text><text class="cls-6" transform="translate(121.73 96.3)">Elementary Occupations</text><text class="cls-6" transform="translate(104.83 120.46)">Plant and Machine Operators</text><text class="cls-6" transform="translate(87.64 144.62)">Craft and Related<tspan class="cls-7" x="62.7" y="0"> </tspan><tspan class="cls-8" x="64.79" y="0">T</tspan><tspan x="69.38" y="0">rades </tspan><tspan class="cls-7" x="91.61" y="0">W</tspan><tspan x="99.02" y="0">orkers</tspan></text><text class="cls-6" transform="translate(59.21 168.71)">Agricultural, Forestry and Fishery <tspan class="cls-7" x="120.04" y="0">W</tspan><tspan x="127.45" y="0">orkers</tspan></text><text class="cls-6" transform="translate(112.55 192.9)">Service and Sales <tspan class="cls-7" x="66.7" y="0">W</tspan><tspan x="74.11" y="0">orkers</tspan></text><text class="cls-6" transform="translate(120.11 217.1)">Clerical Support <tspan class="cls-7" x="59.14" y="0">W</tspan><tspan x="66.55" y="0">orkers</tspan></text><text class="cls-6" transform="translate(64.8 241.26)"><tspan class="cls-9">T</tspan><tspan x="4" y="0">echnicians and</tspan><tspan class="cls-10" x="57.37" y="0"> </tspan><tspan x="59.16" y="0">Associate Professionals</tspan></text><text class="cls-6" transform="translate(160.86 265.42)">Professionals</text><text class="cls-6" transform="translate(173.31 289.58)">Managers</text><text class="cls-11" transform="translate(155.69 56.47)">ACCIDENTS B<tspan class="cls-12" x="73.46" y="0">Y</tspan><tspan x="80.44" y="0" xml:space="preserve"> OCCU</tspan><tspan class="cls-13" x="115.08" y="0">PA</tspan><tspan class="cls-14" x="128.43" y="0">TION OF THE VICTIM: </tspan><tspan class="cls-15" x="242.49" y="0">2014</tspan><tspan x="266.4" y="0" xml:space="preserve"> - </tspan><tspan class="cls-3" x="275.96" y="0">2015</tspan></text></svg>