<svg id="Layer_2" data-name="Layer 2" xmlns="http://www.w3.org/2000/svg" viewBox="0 0 852.8 360"><defs><style>.cls-1{opacity:0.3;}.cls-2,.cls-3,.cls-4,.cls-5{fill:none;stroke:#000;stroke-miterlimit:10;stroke-width:0.5px;}.cls-3{stroke-dasharray:3.01 3.01;}.cls-4{stroke-dasharray:2.99 2.99;}.cls-5{stroke-dasharray:3 3;}.cls-20,.cls-6{fill:#9899cb;}.cls-21,.cls-7{fill:#8e7a7b;}.cls-8{font-size:9px;}.cls-8,.cls-9{font-family:Helvetica, Helvetica;}.cls-9{font-size:8px;}.cls-10{letter-spacing:-0.05em;}.cls-11{letter-spacing:-0.02em;}.cls-12{letter-spacing:-0.11em;}.cls-13{letter-spacing:-0.04em;}.cls-14{letter-spacing:-0.07em;}.cls-15{font-size:10.75px;font-family:Helvetica-Bold, Helvetica;font-weight:700;}.cls-16{letter-spacing:-0.02em;}.cls-17{letter-spacing:0em;}.cls-18{letter-spacing:-0.04em;}.cls-19{letter-spacing:-0.07em;}.cls-20,.cls-21{font-size:10.75px;}</style></defs><title>sector_total_14_15</title><g class="cls-1"><line class="cls-2" x1="253.31" y1="79.73" x2="254.81" y2="79.73"/><line class="cls-3" x1="257.82" y1="79.73" x2="798.25" y2="79.73"/><line class="cls-2" x1="799.75" y1="79.73" x2="801.25" y2="79.73"/></g><g class="cls-1"><line class="cls-2" x1="244.32" y1="66.78" x2="245.82" y2="66.79"/><line class="cls-4" x1="248.82" y1="66.8" x2="798.26" y2="68.39"/><line class="cls-2" x1="799.75" y1="68.4" x2="801.25" y2="68.4"/></g><g class="cls-1"><line class="cls-2" x1="253.31" y1="92.67" x2="254.81" y2="92.67"/><line class="cls-3" x1="257.82" y1="92.67" x2="798.25" y2="92.67"/><line class="cls-2" x1="799.75" y1="92.67" x2="801.25" y2="92.67"/></g><g class="cls-1"><line class="cls-2" x1="253.31" y1="105.61" x2="254.81" y2="105.61"/><line class="cls-3" x1="257.82" y1="105.61" x2="798.25" y2="105.61"/><line class="cls-2" x1="799.75" y1="105.61" x2="801.25" y2="105.61"/></g><g class="cls-1"><line class="cls-2" x1="253.31" y1="118.55" x2="254.81" y2="118.55"/><line class="cls-3" x1="257.82" y1="118.55" x2="798.25" y2="118.55"/><line class="cls-2" x1="799.75" y1="118.55" x2="801.25" y2="118.55"/></g><g class="cls-1"><line class="cls-2" x1="253.31" y1="131.5" x2="254.81" y2="131.5"/><line class="cls-3" x1="257.82" y1="131.5" x2="798.25" y2="131.5"/><line class="cls-2" x1="799.75" y1="131.5" x2="801.25" y2="131.5"/></g><g class="cls-1"><line class="cls-2" x1="253.31" y1="144.44" x2="254.81" y2="144.44"/><line class="cls-3" x1="257.82" y1="144.44" x2="798.25" y2="144.44"/><line class="cls-2" x1="799.75" y1="144.44" x2="801.25" y2="144.44"/></g><g class="cls-1"><line class="cls-2" x1="253.31" y1="157.38" x2="254.81" y2="157.38"/><line class="cls-3" x1="257.82" y1="157.38" x2="798.25" y2="157.38"/><line class="cls-2" x1="799.75" y1="157.38" x2="801.25" y2="157.38"/></g><g class="cls-1"><line class="cls-2" x1="249.13" y1="170.33" x2="250.63" y2="170.33"/><line class="cls-5" x1="253.63" y1="170.33" x2="798.25" y2="170.33"/><line class="cls-2" x1="799.75" y1="170.33" x2="801.25" y2="170.33"/></g><g class="cls-1"><line class="cls-2" x1="249.13" y1="183.27" x2="250.63" y2="183.27"/><line class="cls-5" x1="253.63" y1="183.27" x2="798.25" y2="183.27"/><line class="cls-2" x1="799.75" y1="183.27" x2="801.25" y2="183.27"/></g><g class="cls-1"><line class="cls-2" x1="249.13" y1="196.21" x2="250.63" y2="196.21"/><line class="cls-5" x1="253.63" y1="196.21" x2="798.25" y2="196.21"/><line class="cls-2" x1="799.75" y1="196.21" x2="801.25" y2="196.21"/></g><g class="cls-1"><line class="cls-2" x1="249.13" y1="209.15" x2="250.63" y2="209.15"/><line class="cls-5" x1="253.63" y1="209.15" x2="798.25" y2="209.15"/><line class="cls-2" x1="799.75" y1="209.15" x2="801.25" y2="209.15"/></g><g class="cls-1"><line class="cls-2" x1="249.13" y1="222.1" x2="250.63" y2="222.1"/><line class="cls-5" x1="253.63" y1="222.1" x2="798.25" y2="222.1"/><line class="cls-2" x1="799.75" y1="222.1" x2="801.25" y2="222.1"/></g><g class="cls-1"><line class="cls-2" x1="249.13" y1="247.98" x2="250.63" y2="247.98"/><line class="cls-5" x1="253.63" y1="247.98" x2="798.25" y2="247.98"/><line class="cls-2" x1="799.75" y1="247.98" x2="801.25" y2="247.98"/></g><g class="cls-1"><line class="cls-2" x1="248.79" y1="260.93" x2="250.29" y2="260.93"/><line class="cls-5" x1="253.29" y1="260.93" x2="797.92" y2="260.93"/><line class="cls-2" x1="799.42" y1="260.93" x2="800.92" y2="260.93"/></g><g class="cls-1"><line class="cls-2" x1="249.13" y1="273.87" x2="250.63" y2="273.87"/><line class="cls-5" x1="253.63" y1="273.87" x2="798.25" y2="273.87"/><line class="cls-2" x1="799.75" y1="273.87" x2="801.25" y2="273.87"/></g><g class="cls-1"><line class="cls-2" x1="249.13" y1="286.81" x2="250.63" y2="286.81"/><line class="cls-5" x1="253.63" y1="286.81" x2="798.25" y2="286.81"/><line class="cls-2" x1="799.75" y1="286.81" x2="801.25" y2="286.81"/></g><g class="cls-1"><line class="cls-2" x1="248.79" y1="299.75" x2="250.29" y2="299.75"/><line class="cls-5" x1="253.29" y1="299.75" x2="797.92" y2="299.75"/><line class="cls-2" x1="799.42" y1="299.75" x2="800.92" y2="299.75"/></g><g class="cls-1"><line class="cls-2" x1="248.79" y1="312.7" x2="250.29" y2="312.7"/><line class="cls-5" x1="253.29" y1="312.7" x2="797.92" y2="312.7"/><line class="cls-2" x1="799.42" y1="312.7" x2="800.92" y2="312.7"/></g><g class="cls-1"><line class="cls-2" x1="248.79" y1="235.04" x2="250.29" y2="235.04"/><line class="cls-5" x1="253.29" y1="235.04" x2="797.92" y2="235.04"/><line class="cls-2" x1="799.42" y1="235.04" x2="800.92" y2="235.04"/></g><rect class="cls-6" x="243.25" y="63.55" width="1.22" height="3.32"/><rect class="cls-6" x="243.25" y="76.49" width="13.5" height="3.32"/><rect class="cls-6" x="243.25" y="89.43" width="31.66" height="3.32"/><rect class="cls-6" x="243.25" y="102.38" width="58.37" height="3.32"/><rect class="cls-6" x="243.25" y="115.32" width="21.52" height="3.32"/><rect class="cls-6" x="243.25" y="128.26" width="24.19" height="3.32"/><rect class="cls-6" x="243.25" y="141.2" width="80.8" height="3.32"/><rect class="cls-6" x="243.25" y="154.15" width="38.07" height="3.32"/><rect class="cls-6" x="243.25" y="167.09" width="5.49" height="3.32"/><rect class="cls-6" x="243.25" y="180.03" width="14.04" height="3.32"/><rect class="cls-6" x="243.25" y="192.98" width="37" height="3.32"/><rect class="cls-6" x="243.25" y="205.92" width="257.51" height="4.1"/><rect class="cls-6" x="243.25" y="218.86" width="214.71" height="3.32"/><rect class="cls-6" x="243.25" y="231.8" width="531.43" height="3.32"/><rect class="cls-6" x="243.25" y="244.75" width="241.95" height="3.32"/><rect class="cls-6" x="243.25" y="257.69" width="87.59" height="3.32"/><rect class="cls-6" x="243.25" y="270.63" width="37.92" height="3.32"/><rect class="cls-6" x="243.25" y="283.58" width="471.61" height="3.32"/><rect class="cls-6" x="243.25" y="296.52" width="42.19" height="3.32"/><rect class="cls-6" x="243.25" y="309.46" width="50.21" height="3.32"/><rect class="cls-7" x="243.25" y="66.86" width="0.69" height="3.24"/><rect class="cls-7" x="243.25" y="79.81" width="12.97" height="3.24"/><rect class="cls-7" x="243.25" y="92.75" width="32.73" height="3.24"/><rect class="cls-7" x="243.25" y="105.69" width="72.25" height="3.24"/><rect class="cls-7" x="243.25" y="118.64" width="21.52" height="3.24"/><rect class="cls-7" x="243.25" y="131.58" width="53.56" height="3.24"/><rect class="cls-7" x="243.25" y="144.52" width="85.61" height="3.24"/><rect class="cls-7" x="243.25" y="157.46" width="42.35" height="3.24"/><rect class="cls-7" x="243.25" y="170.41" width="7.63" height="3.24"/><rect class="cls-7" x="243.25" y="183.35" width="14.57" height="3.24"/><rect class="cls-7" x="243.25" y="196.29" width="55.16" height="3.24"/><rect class="cls-7" x="243.25" y="209.05" width="293.75" height="3.24"/><rect class="cls-7" x="243.25" y="222.18" width="218.45" height="3.24"/><rect class="cls-7" x="243.25" y="235.12" width="517.01" height="3.24"/><rect class="cls-7" x="243.25" y="248.06" width="220.05" height="3.24"/><rect class="cls-7" x="243.25" y="261.01" width="91.87" height="3.24"/><rect class="cls-7" x="243.25" y="273.95" width="51.96" height="3.24"/><rect class="cls-7" x="243.25" y="286.89" width="486.56" height="3.24"/><rect class="cls-7" x="243.25" y="299.84" width="46.47" height="3.24"/><rect class="cls-7" x="243.25" y="312.78" width="51.27" height="3.24"/><line class="cls-2" x1="242.92" y1="320.49" x2="800.92" y2="320.49"/><text class="cls-8" transform="translate(240.41 335.35)">0</text><text class="cls-8" transform="translate(342.57 335.35)">200</text><text class="cls-8" transform="translate(449.39 335.35)">400</text><text class="cls-8" transform="translate(556.21 335.35)">600</text><text class="cls-8" transform="translate(663.03 335.35)">800</text><text class="cls-8" transform="translate(766.09 335.35)">1,000</text><text class="cls-9" transform="translate(100.77 69.1)">Activities of Households for Own Use</text><text class="cls-9" transform="translate(150.13 81.24)">Other Service<tspan class="cls-10" x="48.91" y="0"> </tspan><tspan x="50.69" y="0">Activities</tspan></text><text class="cls-9" transform="translate(107.43 94.18)">Arts, Entertainment and Recreation</text><text class="cls-9" transform="translate(87.57 107.12)">Human Health and Social <tspan class="cls-11" x="92.94" y="0">W</tspan><tspan x="100.35" y="0">ork</tspan><tspan class="cls-10" x="111.46" y="0"> </tspan><tspan x="113.25" y="0">Activities</tspan></text><text class="cls-9" transform="translate(196.8 120.07)">Education</text><text class="cls-9" transform="translate(110.53 133.01)">Public<tspan class="cls-10" x="21.79" y="0"> </tspan><tspan x="23.57" y="0">Administration and Defence</tspan></text><text class="cls-9" transform="translate(74.08 145.95)">Administrative and Support Service<tspan class="cls-10" x="124.95" y="0"> </tspan><tspan x="126.73" y="0">Activities</tspan></text><text class="cls-9" transform="translate(67.55 158.89)">Professional, Scientific and<tspan class="cls-11" x="96.05" y="0"> </tspan><tspan class="cls-12" x="98.13" y="0">T</tspan><tspan x="102.13" y="0">echnical</tspan><tspan class="cls-10" x="131.48" y="0"> </tspan><tspan x="133.27" y="0">Activities</tspan></text><text class="cls-9" transform="translate(157.68 171.84)">Real Estate<tspan class="cls-10" x="41.36" y="0"> </tspan><tspan x="43.14" y="0">Activities</tspan></text><text class="cls-9" transform="translate(114.09 184.78)">Financial and Insurance<tspan class="cls-10" x="84.94" y="0"> </tspan><tspan x="86.73" y="0">Activities</tspan></text><text class="cls-9" transform="translate(118.99 197.72)">Information and Communication</text><text class="cls-9" transform="translate(76.75 210.67)">Accommodation and Food Service<tspan class="cls-10" x="122.29" y="0"> </tspan><tspan x="124.07" y="0">Activities</tspan></text><text class="cls-9" transform="translate(135.28 223.61)"><tspan class="cls-13">T</tspan><tspan x="4.59" y="0">ransportation and Storage</tspan></text><text class="cls-9" transform="translate(84.75 236.55)">Repair of Motor <tspan class="cls-10" x="57.36" y="0">V</tspan><tspan x="62.25" y="0">ehicles and Motorcycles</tspan></text><text class="cls-9" transform="translate(187.47 249.49)">Construction</text><text class="cls-9" transform="translate(184.65 262.44)"><tspan class="cls-13">W</tspan><tspan x="7.26" y="0">ater Supply</tspan></text><text class="cls-9" transform="translate(51.54 275.38)">Electricit<tspan class="cls-14" x="30.23" y="0">y</tspan><tspan x="33.64" y="0">, Gas, Steam and</tspan><tspan class="cls-10" x="95.89" y="0"> </tspan><tspan x="97.68" y="0">Air Conditioning Supply</tspan></text><text class="cls-9" transform="translate(181.68 288.32)">Manufacturing</text><text class="cls-9" transform="translate(155.89 301.27)">Mining and Quarrying</text><text class="cls-9" transform="translate(116.78 314.21)">Agriculture, Forestry and Fishing</text><text class="cls-15" transform="translate(263.96 29.57)">ACCIDENTS B<tspan class="cls-16" x="73.49" y="0">Y</tspan><tspan class="cls-17" x="80.47" y="0" xml:space="preserve"> BRANCH OF ECONOMIC</tspan><tspan class="cls-18" x="210.11" y="0"> </tspan><tspan class="cls-17" x="212.7" y="0">ACTIVIT</tspan><tspan class="cls-19" x="254.52" y="0">Y</tspan><tspan x="260.9" y="0">: </tspan><tspan class="cls-20" x="267.47" y="0">2014</tspan><tspan x="291.39" y="0" xml:space="preserve"> - </tspan><tspan class="cls-21" x="300.95" y="0">2015</tspan></text></svg>