<svg id="Layer_2" data-name="Layer 2" xmlns="http://www.w3.org/2000/svg" viewBox="0 0 720 374"><defs><style>.cls-1{opacity:0.3;}.cls-12,.cls-2,.cls-3,.cls-4{fill:none;}.cls-2,.cls-3{stroke:#000;stroke-width:0.5px;}.cls-12,.cls-13,.cls-2,.cls-3,.cls-4{stroke-miterlimit:10;}.cls-3{stroke-dasharray:3 3;}.cls-13,.cls-4{stroke:#e9e9ea;}.cls-5{font-size:9px;}.cls-14,.cls-5{font-family:Helvetica, Helvetica;}.cls-6{letter-spacing:-0.07em;}.cls-7{letter-spacing:-0.05em;}.cls-8{font-size:10.75px;font-family:Helvetica-Bold, Helvetica;font-weight:700;}.cls-9{letter-spacing:-0.04em;}.cls-10{letter-spacing:-0.07em;}.cls-11{letter-spacing:0em;}.cls-12{stroke:#9899cb;stroke-width:1.5px;}.cls-13{fill:#e9e9ea;}.cls-14{font-size:6px;}</style></defs><title>total_accidents_05_15</title><g class="cls-1"><line class="cls-2" x1="90" y1="94" x2="91.5" y2="94"/><line class="cls-3" x1="94.5" y1="94" x2="645" y2="94"/><line class="cls-2" x1="646.5" y1="94" x2="648" y2="94"/></g><line class="cls-4" x1="257.4" y1="125.63" x2="257.4" y2="84.28"/><g class="cls-1"><line class="cls-2" x1="90" y1="130" x2="91.5" y2="130"/><line class="cls-3" x1="94.5" y1="130" x2="645" y2="130"/><line class="cls-2" x1="646.5" y1="130" x2="648" y2="130"/></g><g class="cls-1"><line class="cls-2" x1="90" y1="165.33" x2="91.5" y2="165.33"/><line class="cls-3" x1="94.5" y1="165.33" x2="645" y2="165.33"/><line class="cls-2" x1="646.5" y1="165.33" x2="648" y2="165.33"/></g><g class="cls-1"><line class="cls-2" x1="90" y1="201.33" x2="91.5" y2="201.33"/><line class="cls-3" x1="94.5" y1="201.33" x2="645" y2="201.33"/><line class="cls-2" x1="646.5" y1="201.33" x2="648" y2="201.33"/></g><g class="cls-1"><line class="cls-2" x1="90" y1="237.33" x2="91.5" y2="237.33"/><line class="cls-3" x1="94.5" y1="237.33" x2="645" y2="237.33"/><line class="cls-2" x1="646.5" y1="237.33" x2="648" y2="237.33"/></g><g class="cls-1"><line class="cls-2" x1="90" y1="272.67" x2="91.5" y2="272.67"/><line class="cls-3" x1="94.5" y1="272.67" x2="645" y2="272.67"/><line class="cls-2" x1="646.5" y1="272.67" x2="648" y2="272.67"/></g><g class="cls-1"><line class="cls-2" x1="90" y1="308" x2="91.5" y2="308"/><line class="cls-3" x1="94.5" y1="308" x2="645" y2="308"/><line class="cls-2" x1="646.5" y1="308" x2="648" y2="308"/></g><line class="cls-4" x1="424.8" y1="263.14" x2="424.8" y2="230"/><line class="cls-4" x1="480.6" y1="299.08" x2="480.6" y2="230"/><line class="cls-4" x1="369" y1="239.43" x2="369" y2="193.1"/><g class="cls-1"><line class="cls-2" x1="90" y1="57.2" x2="91.5" y2="57.2"/><line class="cls-3" x1="94.5" y1="57.2" x2="645" y2="57.2"/><line class="cls-2" x1="646.5" y1="57.2" x2="648" y2="57.2"/></g><line class="cls-2" x1="90" y1="329" x2="648" y2="329"/><text class="cls-5" transform="translate(90 344.67)">2005</text><text class="cls-5" transform="translate(55.66 58.9)"><tspan class="cls-6">1</tspan><tspan x="4.34" y="0">1,000</tspan></text><text class="cls-5" transform="translate(54.99 95.7)">10,000</text><text class="cls-5" transform="translate(60 131.7)">9,000</text><text class="cls-5" transform="translate(60 167.03)">8,000</text><text class="cls-5" transform="translate(60 203.03)">7,000</text><text class="cls-5" transform="translate(60 239.03)">6,000</text><text class="cls-5" transform="translate(60 274.37)">5,000</text><text class="cls-5" transform="translate(60 309.7)">4,000</text><text class="cls-5" transform="translate(133.33 344.67)">2006</text><text class="cls-5" transform="translate(188 344.67)">2007</text><text class="cls-5" transform="translate(245.33 344.67)">2008</text><text class="cls-5" transform="translate(303.33 344.67)">2009</text><text class="cls-5" transform="translate(357.33 344.67)">2010</text><text class="cls-5" transform="translate(413.33 344.67)">20<tspan class="cls-6" x="10.01" y="0">1</tspan><tspan x="14.35" y="0">1</tspan></text><text class="cls-5" transform="translate(468.67 344.67)">2012</text><text class="cls-5" transform="translate(527.33 344.48) scale(1.12 1)">2013</text><text class="cls-5" transform="translate(582 344.48) scale(1.12 1)">2014</text><text class="cls-5" transform="translate(629.33 344.48) scale(1.12 1)">2015</text><text class="cls-5" transform="translate(39.04 157.33) rotate(-90)">NUMBER OF<tspan class="cls-7" x="54" y="0"> </tspan><tspan x="56.01" y="0">ACCIDENTS</tspan></text><text class="cls-8" transform="translate(262.24 29.51)">ACCIDENTS<tspan class="cls-9" x="62.73" y="0"> </tspan><tspan class="cls-10" x="65.33" y="0">A</tspan><tspan class="cls-11" x="72.3" y="0">T WORK: 2005 - 2015</tspan></text><polyline class="cls-12" points="90 69.56 145.8 76.52 201.6 97.54 257.4 125.63 369 239.43 424.8 263.14 480.6 299.08 536.4 316.64 592.2 299.55 648 291.76"/><rect class="cls-13" x="369" y="177.97" width="98.99" height="16.67"/><rect class="cls-13" x="257.4" y="74.05" width="92.36" height="13.17"/><text class="cls-14" transform="translate(372.98 184.83)">Greece signs its 1st Memorandum <tspan x="0" y="7.2">with the EU and the IMF</tspan></text><text class="cls-14" transform="translate(260.39 81.77)">The global financial crisis begins</text><rect class="cls-13" x="421.49" y="214" width="62.43" height="16.67"/><text class="cls-14" transform="translate(422.86 219.87)">Less building activity<tspan x="0" y="7.2">as a result of the crisis</tspan></text></svg>