<svg id="Layer_2" data-name="Layer 2" xmlns="http://www.w3.org/2000/svg" viewBox="0 0 497 78"><defs><style>.cls-1{fill:#231f20;}</style></defs><title>who_sampled_genres_TITLE</title><path class="cls-1" d="M14.92,35.48h6.64v1.05q0,7.93-1.39,10.71T15,50.08a5.75,5.75,0,0,1-5.54-3.16Q7.87,43.75,7.87,36.28q0-8.54,1.79-11.37a5.72,5.72,0,0,1,5.19-2.65A6.2,6.2,0,0,1,19,23.54a8.61,8.61,0,0,1,2.36,4.27L18,29.24a12.1,12.1,0,0,0-.51-1.8,4.11,4.11,0,0,0-.62-1.13,2.42,2.42,0,0,0-2-.83q-1.83,0-2.5,2.25a35.81,35.81,0,0,0-.67,8.46q0,6.17.69,8.35a2.63,2.63,0,0,0,2.58,2.18,2.48,2.48,0,0,0,2.44-1.55,14.27,14.27,0,0,0,.72-5.31V38.57H14.92Z"/><path class="cls-1" d="M32,43.61h3.13Q34.8,50,29.9,50a5.36,5.36,0,0,1-2.5-.54,4.38,4.38,0,0,1-1.73-1.69,8.71,8.71,0,0,1-1-2.9,23.33,23.33,0,0,1-.33-4.18q0-4.82,1.34-7.14a4.48,4.48,0,0,1,4.16-2.32q5.47,0,5.47,9.63v.42H27.61q0,5.84,2.32,5.84Q32,47.15,32,43.61Zm-.18-4.73a12.27,12.27,0,0,0-.65-3.76,1.53,1.53,0,0,0-1.48-1,1.51,1.51,0,0,0-1.48,1,12.27,12.27,0,0,0-.65,3.76Z"/><path class="cls-1" d="M38.28,31.56h3.36v2.09a4.27,4.27,0,0,1,3.73-2.39A3.32,3.32,0,0,1,48.53,33a9.17,9.17,0,0,1,.53,3.81V49.75H45.7l0-12.16A5.66,5.66,0,0,0,45.24,35a1.59,1.59,0,0,0-1.51-.77,2.13,2.13,0,0,0-1,.2,1.53,1.53,0,0,0-.64.65,3.62,3.62,0,0,0-.36,1.17A11.6,11.6,0,0,0,41.64,38V49.75H38.28Z"/><path class="cls-1" d="M52.86,31.56h3.36v2.27a6.42,6.42,0,0,1,1.71-2,4.38,4.38,0,0,1,2.23-.67v3.52a4.13,4.13,0,0,0-.6-.05,3.19,3.19,0,0,0-2.58.93,5.12,5.12,0,0,0-.76,3.2v11H52.86Z"/><path class="cls-1" d="M69.61,43.61h3.13Q72.37,50,67.46,50a5.36,5.36,0,0,1-2.5-.54,4.38,4.38,0,0,1-1.73-1.69,8.71,8.71,0,0,1-1-2.9,23.33,23.33,0,0,1-.33-4.18q0-4.82,1.34-7.14a4.48,4.48,0,0,1,4.16-2.32q5.47,0,5.47,9.63v.42H65.18q0,5.84,2.32,5.84Q69.61,47.15,69.61,43.61Zm-.18-4.73a12.27,12.27,0,0,0-.65-3.76,1.53,1.53,0,0,0-1.48-1,1.51,1.51,0,0,0-1.48,1,12.27,12.27,0,0,0-.65,3.76Z"/><path class="cls-1" d="M83.3,19.88h3.36V33.61a6.93,6.93,0,0,1,.72-1.12,3.65,3.65,0,0,1,.72-.7,3,3,0,0,1,1.83-.53,3.66,3.66,0,0,1,2,.54,3.87,3.87,0,0,1,1.38,1.66,10.32,10.32,0,0,1,.8,2.87,28,28,0,0,1,.26,4.13,18.6,18.6,0,0,1-1.05,7.27A3.47,3.47,0,0,1,90,50a3,3,0,0,1-1.92-.56,5.83,5.83,0,0,1-1.44-2.06v2.34H83.3Zm7.59,20.87a16.81,16.81,0,0,0-.49-5A1.75,1.75,0,0,0,88.7,34.3q-1.16,0-1.63,1.44a17.54,17.54,0,0,0-.47,4.92,17.65,17.65,0,0,0,.47,4.92Q87.54,47,88.7,47A1.79,1.79,0,0,0,90.4,45.6,15.85,15.85,0,0,0,90.89,40.75Z"/><path class="cls-1" d="M97.5,31.56h3.36v2.27a6.42,6.42,0,0,1,1.71-2,4.38,4.38,0,0,1,2.23-.67v3.52a4.13,4.13,0,0,0-.6-.05,3.19,3.19,0,0,0-2.58.93,5.12,5.12,0,0,0-.76,3.2v11H97.5Z"/><path class="cls-1" d="M114.26,43.61h3.13Q117,50,112.11,50a5.36,5.36,0,0,1-2.5-.54,4.38,4.38,0,0,1-1.73-1.69,8.71,8.71,0,0,1-1-2.9,23.33,23.33,0,0,1-.33-4.18q0-4.82,1.34-7.14A4.48,4.48,0,0,1,112,31.26q5.47,0,5.47,9.63v.42h-7.68q0,5.84,2.32,5.84Q114.26,47.15,114.26,43.61Zm-.18-4.73a12.27,12.27,0,0,0-.65-3.76,1.53,1.53,0,0,0-1.48-1,1.51,1.51,0,0,0-1.48,1,12.27,12.27,0,0,0-.65,3.76Z"/><path class="cls-1" d="M130.88,31.56V49.75h-3.36V47.41a5.83,5.83,0,0,1-1.44,2.06,3,3,0,0,1-1.9.56,3.48,3.48,0,0,1-3.32-2.32,18.67,18.67,0,0,1-1.05-7.28,17.14,17.14,0,0,1,1.05-7,3.48,3.48,0,0,1,3.32-2.22,3.77,3.77,0,0,1,3.34,2.36V31.56Zm-7.59,9a18,18,0,0,0,.47,5A1.78,1.78,0,0,0,125.49,47q1.13,0,1.63-1.48a17.1,17.1,0,0,0,.51-4.87,17.19,17.19,0,0,0-.51-4.89q-.51-1.48-1.63-1.48a1.79,1.79,0,0,0-1.71,1.41A15.94,15.94,0,0,0,123.29,40.57Z"/><path class="cls-1" d="M134.7,19.88h3.36V39.66l4.27-8.1h3.8l-4.64,8.1,5.26,10.09H142.8l-4.75-9.67v9.67H134.7Z"/><path class="cls-1" d="M159.17,19.88V49.75h-3.36V47.41a5.83,5.83,0,0,1-1.44,2.06,3,3,0,0,1-1.92.56,3.47,3.47,0,0,1-3.3-2.31,18.6,18.6,0,0,1-1.05-7.27,28,28,0,0,1,.26-4.13,10.32,10.32,0,0,1,.8-2.87,3.87,3.87,0,0,1,1.38-1.66,3.66,3.66,0,0,1,2-.54,3,3,0,0,1,1.83.53,3.65,3.65,0,0,1,.72.7,6.93,6.93,0,0,1,.72,1.13V19.88Zm-7.59,20.69a18,18,0,0,0,.47,5A1.78,1.78,0,0,0,153.77,47q1.13,0,1.63-1.48a17.1,17.1,0,0,0,.51-4.87,17.19,17.19,0,0,0-.51-4.89q-.51-1.48-1.63-1.48a1.79,1.79,0,0,0-1.71,1.41A15.94,15.94,0,0,0,151.57,40.57Z"/><path class="cls-1" d="M173.72,40.8Q173.72,50,168,50t-5.71-9.37q0-9.4,5.7-9.4a5.47,5.47,0,0,1,2.56.56,4.49,4.49,0,0,1,1.78,1.74,9.13,9.13,0,0,1,1,3A23.07,23.07,0,0,1,173.72,40.8Zm-3.48-.09a17.79,17.79,0,0,0-.47-5,1.75,1.75,0,0,0-1.69-1.42,1.79,1.79,0,0,0-1.71,1.41,17.34,17.34,0,0,0-.47,4.9,17.13,17.13,0,0,0,.47,4.89,1.79,1.79,0,0,0,1.71,1.41,1.73,1.73,0,0,0,1.67-1.39A15.6,15.6,0,0,0,170.24,40.71Z"/><path class="cls-1" d="M175,31.56h3.55l1,5.85q.3,1.76.54,3.39t.38,3.18l.05.63.07-.67q.14-1.27.29-2.33t.33-2l.28-1.39,1.25-6.71h2.44l1.18,6.71.39,2.11q.12.6.23,1.49t.21,2.1l.07.65q.32-3.27.9-6.35l1.25-6.71h3.3l-4.27,18.19H186.1l-1.39-6.94q-.25-1.27-.42-2.59t-.3-2.82q0-.18,0-.42t-.05-.58q-.11,1.6-.3,3.1t-.47,3l-1.41,7.26H179.4Z"/><path class="cls-1" d="M194.87,31.56h3.36v2.09A4.27,4.27,0,0,1,202,31.26,3.32,3.32,0,0,1,205.12,33a9.17,9.17,0,0,1,.53,3.81V49.75h-3.36l0-12.16a5.66,5.66,0,0,0-.44-2.62,1.59,1.59,0,0,0-1.51-.77,2.13,2.13,0,0,0-1,.2,1.53,1.53,0,0,0-.64.65,3.62,3.62,0,0,0-.36,1.17,11.6,11.6,0,0,0-.11,1.78V49.75h-3.36Z"/><path class="cls-1" d="M227.63,40.8q0,9.23-5.71,9.23t-5.71-9.37q0-9.4,5.7-9.4a5.47,5.47,0,0,1,2.56.56,4.49,4.49,0,0,1,1.78,1.74,9.13,9.13,0,0,1,1,3A23.07,23.07,0,0,1,227.63,40.8Zm-3.48-.09a17.79,17.79,0,0,0-.47-5A1.75,1.75,0,0,0,222,34.3a1.79,1.79,0,0,0-1.71,1.41,17.34,17.34,0,0,0-.47,4.9,17.13,17.13,0,0,0,.47,4.89A1.79,1.79,0,0,0,222,46.9a1.73,1.73,0,0,0,1.67-1.39A15.6,15.6,0,0,0,224.15,40.71Z"/><path class="cls-1" d="M229.48,31.56h1.69V25.21a7.86,7.86,0,0,1,.91-4.39,3.64,3.64,0,0,1,3.18-1.28,6.8,6.8,0,0,1,2.29.47v3.55a3.07,3.07,0,0,0-1.42-.44,1.39,1.39,0,0,0-1.22.51,3.09,3.09,0,0,0-.36,1.72l0,1.37v4.83h2.85v2.67h-2.85V49.75h-3.36V34.23h-1.69Z"/><path class="cls-1" d="M247.45,26.46h3.36v5.1h1.83v2.67H250.8V49.75h-3.36V34.23H245.6V31.56h1.85Z"/><path class="cls-1" d="M255,19.88h3.36V33.65a4.27,4.27,0,0,1,3.73-2.39A3.32,3.32,0,0,1,265.29,33a9.17,9.17,0,0,1,.53,3.81V49.75h-3.36l0-12.16A5.66,5.66,0,0,0,262,35a1.59,1.59,0,0,0-1.51-.77,2.13,2.13,0,0,0-1,.2,1.53,1.53,0,0,0-.64.65,3.62,3.62,0,0,0-.36,1.17A11.6,11.6,0,0,0,258.4,38V49.75H255Z"/><path class="cls-1" d="M276.64,43.61h3.13Q279.4,50,274.5,50a5.36,5.36,0,0,1-2.5-.54,4.38,4.38,0,0,1-1.73-1.69,8.71,8.71,0,0,1-1-2.9,23.33,23.33,0,0,1-.33-4.18q0-4.82,1.34-7.14a4.48,4.48,0,0,1,4.16-2.32q5.47,0,5.47,9.63v.42h-7.68q0,5.84,2.32,5.84Q276.64,47.15,276.64,43.61Zm-.18-4.73a12.27,12.27,0,0,0-.65-3.76,1.53,1.53,0,0,0-1.48-1,1.51,1.51,0,0,0-1.48,1,12.27,12.27,0,0,0-.65,3.76Z"/><path class="cls-1" d="M294.4,22.61h2.85l5.82,27.14h-3.62l-1-5.29H293l-1,5.29h-3.52Zm3.5,19-.81-4.32q-.81-4.41-1.32-9.42-.25,2.44-.63,4.95t-.91,5.32l-.67,3.48Z"/><path class="cls-1" d="M305,31.56h3.36v2.25a4.15,4.15,0,0,1,3.69-2.55,3.39,3.39,0,0,1,3.41,2.55,4.15,4.15,0,0,1,3.8-2.55,4,4,0,0,1,2.93,1,4,4,0,0,1,1,3v14.5h-3.37v-12a6.52,6.52,0,0,0-.39-2.76A1.46,1.46,0,0,0,318,34.3a1.76,1.76,0,0,0-1.65.74,6,6,0,0,0-.42,2.74v12h-3.48v-12a11.67,11.67,0,0,0-.1-1.63,3.09,3.09,0,0,0-.33-1.07,1.41,1.41,0,0,0-.6-.59,2,2,0,0,0-.91-.18,1.79,1.79,0,0,0-1.65.79,5.38,5.38,0,0,0-.49,2.69v12H305Z"/><path class="cls-1" d="M334,43.61h3.13Q336.79,50,331.89,50a5.36,5.36,0,0,1-2.5-.54,4.38,4.38,0,0,1-1.73-1.69,8.71,8.71,0,0,1-1-2.9,23.33,23.33,0,0,1-.33-4.18q0-4.82,1.34-7.14a4.48,4.48,0,0,1,4.16-2.32q5.47,0,5.47,9.63v.42h-7.68q0,5.84,2.32,5.84Q334,47.15,334,43.61Zm-.18-4.73a12.27,12.27,0,0,0-.65-3.76,1.53,1.53,0,0,0-1.48-1,1.51,1.51,0,0,0-1.48,1,12.27,12.27,0,0,0-.65,3.76Z"/><path class="cls-1" d="M340.28,31.56h3.36v2.09a4.27,4.27,0,0,1,3.73-2.39A3.32,3.32,0,0,1,350.52,33a9.17,9.17,0,0,1,.53,3.81V49.75h-3.36l0-12.16a5.66,5.66,0,0,0-.44-2.62,1.59,1.59,0,0,0-1.51-.77,2.13,2.13,0,0,0-1,.2,1.53,1.53,0,0,0-.64.65,3.62,3.62,0,0,0-.36,1.17,11.6,11.6,0,0,0-.11,1.78V49.75h-3.36Z"/><path class="cls-1" d="M362.49,22.61h5q5.82,0,5.82,7.22a8.59,8.59,0,0,1-.76,4.1,4.73,4.73,0,0,1-2.67,2,5.84,5.84,0,0,1,3,2.25,8,8,0,0,1,.83,4.08q0,7.47-6.4,7.47h-4.78Zm3.45,12a3.7,3.7,0,0,0,3-1,6,6,0,0,0,.83-3.64q0-4.39-3.16-4.39h-.44l-.18,0Zm0,12.06a4,4,0,0,0,3.11-1,5.34,5.34,0,0,0,.86-3.5,5.64,5.64,0,0,0-.9-3.64,3.82,3.82,0,0,0-3.08-1.05Z"/><path class="cls-1" d="M377.12,31.56h3.36v2.27a6.42,6.42,0,0,1,1.71-2,4.38,4.38,0,0,1,2.23-.67v3.52a4.13,4.13,0,0,0-.6-.05,3.19,3.19,0,0,0-2.58.93,5.12,5.12,0,0,0-.76,3.2v11h-3.36Z"/><path class="cls-1" d="M393.87,43.61H397Q396.63,50,391.73,50a5.36,5.36,0,0,1-2.5-.54,4.38,4.38,0,0,1-1.73-1.69,8.71,8.71,0,0,1-1-2.9,23.33,23.33,0,0,1-.33-4.18q0-4.82,1.34-7.14a4.48,4.48,0,0,1,4.16-2.32q5.47,0,5.47,9.63v.42h-7.68q0,5.84,2.32,5.84Q393.87,47.15,393.87,43.61Zm-.18-4.73a12.27,12.27,0,0,0-.65-3.76,1.53,1.53,0,0,0-1.48-1,1.51,1.51,0,0,0-1.48,1,12.27,12.27,0,0,0-.65,3.76Z"/><path class="cls-1" d="M410.5,31.56V49.75h-3.36V47.41a5.83,5.83,0,0,1-1.44,2.06,3,3,0,0,1-1.9.56,3.48,3.48,0,0,1-3.32-2.32,18.67,18.67,0,0,1-1.05-7.28,17.14,17.14,0,0,1,1.05-7,3.48,3.48,0,0,1,3.32-2.22,3.77,3.77,0,0,1,3.34,2.36V31.56Zm-7.59,9a18,18,0,0,0,.47,5A1.78,1.78,0,0,0,405.1,47q1.13,0,1.63-1.48a17.1,17.1,0,0,0,.51-4.87,17.19,17.19,0,0,0-.51-4.89q-.51-1.48-1.63-1.48a1.79,1.79,0,0,0-1.71,1.41A15.94,15.94,0,0,0,402.91,40.57Z"/><path class="cls-1" d="M414.31,19.88h3.36V39.66l4.27-8.1h3.8l-4.64,8.1,5.26,10.09h-3.94l-4.75-9.67v9.67h-3.36Z"/><path class="cls-1" d="M430.54,21.75l2.92.86L430,32.17l-1.85-.53Z"/><path class="cls-1" d="M443.09,31.92v3.15a4.27,4.27,0,0,0-2.58-.91,2.19,2.19,0,0,0-1.52.59,2,2,0,0,0-.46.65,2,2,0,0,0-.17.8q0,1.3,2.36,3.09a17.11,17.11,0,0,1,1.58,1.37,6.27,6.27,0,0,1,1,1.2,5.23,5.23,0,0,1,.69,2.79,5.41,5.41,0,0,1-1.42,3.92A5,5,0,0,1,438.75,50a5.88,5.88,0,0,1-3-.86V45.92A4.69,4.69,0,0,0,438.55,47a2,2,0,0,0,2.3-2.27,2.52,2.52,0,0,0-.42-1.46,4,4,0,0,0-.62-.69q-.42-.4-1-.89a13.69,13.69,0,0,1-2.88-2.78,5.1,5.1,0,0,1-.74-2.79,5,5,0,0,1,1.35-3.6,4.79,4.79,0,0,1,3.57-1.39A6.23,6.23,0,0,1,443.09,31.92Z"/><path class="cls-1" d="M454.09,31.56h3.36V43.72a4.82,4.82,0,0,0,.5,2.41,1.71,1.71,0,0,0,1.56.72,1.84,1.84,0,0,0,1.6-.63,4.31,4.31,0,0,0,.46-2.32V31.56h3.36V42.44a14.93,14.93,0,0,1-.56,5.1q-1.18,2.5-4.89,2.5-2.92,0-4.15-1.48t-1.23-5Z"/><path class="cls-1" d="M475.75,31.92v3.15a4.27,4.27,0,0,0-2.58-.91,2.19,2.19,0,0,0-1.52.59,2,2,0,0,0-.46.65,2,2,0,0,0-.17.8q0,1.3,2.36,3.09A17.11,17.11,0,0,1,475,40.66a6.27,6.27,0,0,1,1,1.2,5.23,5.23,0,0,1,.69,2.79,5.41,5.41,0,0,1-1.42,3.92A5,5,0,0,1,471.41,50a5.88,5.88,0,0,1-3-.86V45.92A4.69,4.69,0,0,0,471.21,47a2,2,0,0,0,2.3-2.27,2.52,2.52,0,0,0-.42-1.46,4,4,0,0,0-.62-.69q-.42-.4-1-.89a13.69,13.69,0,0,1-2.88-2.78,5.1,5.1,0,0,1-.74-2.79,5,5,0,0,1,1.35-3.6,4.79,4.79,0,0,1,3.57-1.39A6.23,6.23,0,0,1,475.75,31.92Z"/><path class="cls-1" d="M486.33,43.61h3.13Q489.09,50,484.19,50a5.36,5.36,0,0,1-2.5-.54A4.38,4.38,0,0,1,480,47.8a8.71,8.71,0,0,1-1-2.9,23.33,23.33,0,0,1-.33-4.18q0-4.82,1.34-7.14a4.48,4.48,0,0,1,4.16-2.32q5.47,0,5.47,9.63v.42H481.9q0,5.84,2.32,5.84Q486.33,47.15,486.33,43.61Zm-.18-4.73a12.27,12.27,0,0,0-.65-3.76,1.53,1.53,0,0,0-1.48-1,1.51,1.51,0,0,0-1.48,1,12.27,12.27,0,0,0-.65,3.76Z"/></svg>