<svg id="Layer_2" data-name="Layer 2" xmlns="http://www.w3.org/2000/svg" viewBox="0 0 577.22 205.77"><defs><style>.cls-1{fill:#ed017f;}.cls-2{fill:#00aeef;}.cls-3{fill:#dcdcdc;stroke:#fff;stroke-linecap:round;stroke-linejoin:round;stroke-width:0.47px;stroke-dasharray:0.47 0;}.cls-10,.cls-4{font-size:12px;}.cls-10,.cls-13,.cls-4{font-family:Futura-CondensedMedium, Futura;}.cls-5{letter-spacing:0em;}.cls-6{letter-spacing:-0.02em;}.cls-7{letter-spacing:-0.01em;}.cls-8{letter-spacing:-0.01em;}.cls-9{letter-spacing:0.01em;}.cls-10{opacity:0.6;}.cls-11{letter-spacing:0.01em;}.cls-12{letter-spacing:-0.06em;}.cls-13{font-size:28.92px;fill:#231f20;}.cls-14{letter-spacing:0em;}.cls-15{letter-spacing:-0.01em;}.cls-16{letter-spacing:0em;}.cls-17{letter-spacing:-0.02em;}</style></defs><title>who_sampled_genres</title><rect class="cls-1" x="52.88" y="61.52" width="466" height="17.01"/><rect class="cls-2" x="52.88" y="93.02" width="29" height="17.01"/><rect class="cls-3" x="52.88" y="124.52" width="14" height="17.01"/><rect class="cls-3" x="52.88" y="156.61" width="11" height="17"/><rect class="cls-3" x="52.88" y="188.52" width="4" height="17.01"/><text class="cls-4" transform="translate(6.49 73.61)">Elect<tspan class="cls-5" x="17.27" y="0">r</tspan><tspan x="20.51" y="0">onic</tspan></text><text class="cls-4" transform="translate(12.45 105.11)">Hip-Hop</text><text class="cls-4" transform="translate(0.39 136.61)"><tspan class="cls-6">R</tspan><tspan x="4.88" y="0">o</tspan><tspan class="cls-7" x="9.5" y="0">c</tspan><tspan x="12.86" y="0">k / </tspan><tspan class="cls-8" x="27.93" y="0">P</tspan><tspan x="32.55" y="0">op</tspan></text><text class="cls-4" transform="translate(0 168.69)">Soundt<tspan class="cls-9" x="26.23" y="0">r</tspan><tspan x="29.51" y="0">a</tspan><tspan class="cls-7" x="34.24" y="0">c</tspan><tspan x="37.6" y="0">k</tspan></text><text class="cls-4" transform="translate(21.4 200.61)">Other</text><text class="cls-10" transform="translate(532.51 73.61)">2356 t<tspan class="cls-9" x="25.03" y="0">r</tspan><tspan x="28.3" y="0">a</tspan><tspan class="cls-7" x="33.04" y="0">c</tspan><tspan class="cls-11" x="36.39" y="0">k</tspan><tspan x="41.18" y="0">s</tspan></text><text class="cls-10" transform="translate(94.51 105.11)"><tspan class="cls-12">1</tspan><tspan x="4.31" y="0">42 t</tspan><tspan class="cls-9" x="19.39" y="0">r</tspan><tspan x="22.67" y="0">a</tspan><tspan class="cls-7" x="27.4" y="0">c</tspan><tspan class="cls-11" x="30.76" y="0">k</tspan><tspan x="35.55" y="0">s</tspan></text><text class="cls-10" transform="translate(80.51 136.61)">62 t<tspan class="cls-9" x="15.09" y="0">r</tspan><tspan x="18.36" y="0">a</tspan><tspan class="cls-7" x="23.1" y="0">c</tspan><tspan class="cls-11" x="26.46" y="0">k</tspan><tspan x="31.24" y="0">s</tspan></text><text class="cls-10" transform="translate(77.51 168.69)"><tspan class="cls-6">5</tspan><tspan x="4.79" y="0">7 t</tspan><tspan class="cls-9" x="14.91" y="0">r</tspan><tspan x="18.18" y="0">a</tspan><tspan class="cls-7" x="22.92" y="0">c</tspan><tspan class="cls-11" x="26.27" y="0">k</tspan><tspan x="31.06" y="0">s</tspan></text><text class="cls-10" transform="translate(70.51 200.61)">26 t<tspan class="cls-9" x="15.09" y="0">r</tspan><tspan x="18.36" y="0">a</tspan><tspan class="cls-7" x="23.1" y="0">c</tspan><tspan class="cls-11" x="26.46" y="0">k</tspan><tspan x="31.24" y="0">s</tspan></text><text class="cls-13" transform="translate(94.08 25.43)">Gen<tspan class="cls-14" x="35.85" y="0">r</tspan><tspan x="43.66" y="0">e b</tspan><tspan class="cls-14" x="71.71" y="0">r</tspan><tspan x="79.52" y="0">eakd</tspan><tspan class="cls-15" x="124.31" y="0">o</tspan><tspan x="135.25" y="0">wn of the Amen B</tspan><tspan class="cls-16" x="296.31" y="0">r</tspan><tspan x="304.12" y="0">eak</tspan><tspan class="cls-17" x="337.5" y="0">’</tspan><tspan x="343.66" y="0">s use</tspan></text></svg>