<svg id="Layer_2" data-name="Layer 2" xmlns="http://www.w3.org/2000/svg" viewBox="0 0 626 344"><defs><style>.cls-1{fill:#00aeef;}.cls-2{fill:none;stroke:#000;stroke-miterlimit:10;opacity:0.2;}</style></defs><title>who_sampled_years</title><rect class="cls-1" x="45.5" y="303.03" width="10.2" height="1"/><rect class="cls-1" x="63.5" y="303.03" width="10.2" height="1"/><rect class="cls-1" x="81.5" y="294.03" width="10.2" height="10"/><rect class="cls-1" x="99.5" y="294.03" width="10.2" height="10"/><rect class="cls-1" x="117" y="286.03" width="10.2" height="18"/><rect class="cls-1" x="134.5" y="258.03" width="10.2" height="46"/><rect class="cls-1" x="153" y="229.03" width="10.2" height="75"/><rect class="cls-1" x="170.5" y="173.03" width="10.2" height="131"/><rect class="cls-1" x="188.5" y="98.03" width="10.2" height="206"/><rect class="cls-1" x="206" y="30.03" width="10.2" height="274"/><rect class="cls-1" x="224" y="149.03" width="10.2" height="155"/><rect class="cls-1" x="242.5" y="194.03" width="10.2" height="110"/><rect class="cls-1" x="259.5" y="228.03" width="10.2" height="76"/><rect class="cls-1" x="278" y="248.03" width="10.2" height="56"/><rect class="cls-1" x="296" y="258.03" width="10.2" height="46"/><rect class="cls-1" x="313.5" y="269.03" width="10.2" height="35"/><rect class="cls-1" x="331" y="258.03" width="10.2" height="46"/><rect class="cls-1" x="349" y="221.03" width="10.2" height="83"/><rect class="cls-1" x="367" y="222.03" width="10.2" height="82"/><rect class="cls-1" x="385" y="225.03" width="10.2" height="79"/><rect class="cls-1" x="403" y="217.03" width="10.2" height="87"/><rect class="cls-1" x="420.5" y="255.03" width="10.2" height="49"/><rect class="cls-1" x="438.5" y="251.03" width="10.2" height="53"/><rect class="cls-1" x="456.5" y="229.03" width="10.2" height="75"/><rect class="cls-1" x="474" y="238.03" width="10.2" height="66"/><rect class="cls-1" x="492" y="192.03" width="10.2" height="112"/><rect class="cls-1" x="510.5" y="218.03" width="10.2" height="86"/><rect class="cls-1" x="527.5" y="174.03" width="10.2" height="130"/><rect class="cls-1" x="545.5" y="235.03" width="10.2" height="69"/><rect class="cls-1" x="563" y="208.03" width="10.2" height="96"/><rect class="cls-1" x="581.5" y="231.03" width="10.2" height="73"/><rect class="cls-1" x="599" y="276.03" width="10.2" height="28"/><path d="M46.05,325.38v-1.72h7.54v1H46.92v.75Z"/><path d="M53.59,320.64v1.08L52.13,321l-.82-.39-.88-.38a1.22,1.22,0,0,1,.3.78,1.06,1.06,0,0,1-.54,1,3.41,3.41,0,0,1-1.68.32,3.84,3.84,0,0,1-2-.37A1.35,1.35,0,0,1,46,320.7a1.36,1.36,0,0,1,.6-1.25,3.88,3.88,0,0,1,2-.38,7.26,7.26,0,0,1,1.89.23,8.21,8.21,0,0,1,1,.32q.53.21,1.19.52l.83.4Zm-5.21-.57q-1.49,0-1.49.64t1.47.63a3.07,3.07,0,0,0,1.12-.15.5.5,0,0,0,.35-.49.51.51,0,0,0-.34-.49A2.92,2.92,0,0,0,48.38,320.07Z"/><path d="M49.5,315.81a1.17,1.17,0,0,1,.59-.7,3.31,3.31,0,0,1,1.31-.19,3,3,0,0,1,1.72.39,1.66,1.66,0,0,1,0,2.47,3,3,0,0,1-1.72.39,3.31,3.31,0,0,1-1.31-.19,1.16,1.16,0,0,1-.59-.7,1.2,1.2,0,0,1-.58.63,2.73,2.73,0,0,1-1.11.19A3.37,3.37,0,0,1,47,318a1.43,1.43,0,0,1-.58-.28,1.11,1.11,0,0,1-.33-.49,2.08,2.08,0,0,1-.11-.71,2.06,2.06,0,0,1,.11-.7,1.11,1.11,0,0,1,.33-.48,1.44,1.44,0,0,1,.58-.28,3.42,3.42,0,0,1,.83-.09,2.74,2.74,0,0,1,1.11.19A1.2,1.2,0,0,1,49.5,315.81Zm-1.6.18q-1.06,0-1.06.56t1.05.56q1.17,0,1.17-.56T47.9,316Zm3.62-.07a5.56,5.56,0,0,0-.68,0,1.66,1.66,0,0,0-.46.11.6.6,0,0,0-.26.2.48.48,0,0,0-.08.29.5.5,0,0,0,.34.48,2.91,2.91,0,0,0,1.09.15q1.31,0,1.31-.63T51.52,315.93Z"/><path d="M46.05,312.51v-1.08l1.45.71.84.37.95.39a1.33,1.33,0,0,1-.34-.82,1.08,1.08,0,0,1,.55-1,3.71,3.71,0,0,1,1.84-.32,3.29,3.29,0,0,1,1.8.38,1.63,1.63,0,0,1-.06,2.48,3.81,3.81,0,0,1-2,.39,7.81,7.81,0,0,1-2.19-.3,11.42,11.42,0,0,1-1.22-.46Q47,313,46.05,312.51Zm5.28-.74a5.41,5.41,0,0,0-.67,0,1.62,1.62,0,0,0-.45.11.59.59,0,0,0-.25.2.57.57,0,0,0,0,.58.59.59,0,0,0,.25.2,1.58,1.58,0,0,0,.45.11,5.34,5.34,0,0,0,.66,0q1.48,0,1.48-.63T51.33,311.77Z"/><path d="M85.28,315a1.17,1.17,0,0,1,.7.59,3.31,3.31,0,0,1,.19,1.31,3,3,0,0,1-.39,1.72,1.66,1.66,0,0,1-2.47,0,3,3,0,0,1-.39-1.72,3.31,3.31,0,0,1,.19-1.31,1.17,1.17,0,0,1,.7-.59,1.2,1.2,0,0,1-.63-.58,2.74,2.74,0,0,1-.19-1.11,3.39,3.39,0,0,1,.09-.83,1.44,1.44,0,0,1,.28-.58,1.11,1.11,0,0,1,.49-.33,2.08,2.08,0,0,1,.71-.11,2.06,2.06,0,0,1,.7.11,1.11,1.11,0,0,1,.48.33,1.44,1.44,0,0,1,.28.58,3.39,3.39,0,0,1,.09.83,2.74,2.74,0,0,1-.19,1.11A1.2,1.2,0,0,1,85.28,315Zm-.11,2a5.66,5.66,0,0,0,0-.68,1.63,1.63,0,0,0-.11-.46.61.61,0,0,0-.2-.26.49.49,0,0,0-.29-.08.5.5,0,0,0-.48.34,2.9,2.9,0,0,0-.15,1.09q0,1.31.63,1.31T85.17,317.07Zm-.07-3.62q0-1.06-.56-1.06T84,313.44q0,1.17.56,1.17T85.1,313.45Z"/><path d="M89.42,315a1.17,1.17,0,0,1,.7.59,3.31,3.31,0,0,1,.19,1.31,3,3,0,0,1-.39,1.72,1.66,1.66,0,0,1-2.47,0,3,3,0,0,1-.39-1.72,3.31,3.31,0,0,1,.19-1.31,1.17,1.17,0,0,1,.7-.59,1.2,1.2,0,0,1-.63-.58,2.74,2.74,0,0,1-.19-1.11,3.39,3.39,0,0,1,.09-.83,1.44,1.44,0,0,1,.28-.58,1.11,1.11,0,0,1,.49-.33,2.08,2.08,0,0,1,.71-.11,2.06,2.06,0,0,1,.7.11,1.11,1.11,0,0,1,.48.33,1.44,1.44,0,0,1,.28.58,3.39,3.39,0,0,1,.09.83,2.74,2.74,0,0,1-.19,1.11A1.2,1.2,0,0,1,89.42,315Zm-.11,2a5.66,5.66,0,0,0,0-.68,1.63,1.63,0,0,0-.11-.46.61.61,0,0,0-.2-.26.49.49,0,0,0-.29-.08.5.5,0,0,0-.48.34,2.9,2.9,0,0,0-.15,1.09q0,1.31.63,1.31T89.31,317.07Zm-.07-3.62q0-1.06-.56-1.06t-.56,1.05q0,1.17.56,1.17T89.24,313.45Z"/><path d="M67.37,315a1.17,1.17,0,0,1,.7.59,3.31,3.31,0,0,1,.19,1.31,3,3,0,0,1-.39,1.72,1.66,1.66,0,0,1-2.47,0A3,3,0,0,1,65,317a3.31,3.31,0,0,1,.19-1.31,1.17,1.17,0,0,1,.7-.59,1.2,1.2,0,0,1-.63-.58,2.74,2.74,0,0,1-.19-1.11,3.39,3.39,0,0,1,.09-.83,1.44,1.44,0,0,1,.28-.58,1.11,1.11,0,0,1,.49-.33,2.08,2.08,0,0,1,.71-.11,2.06,2.06,0,0,1,.7.11,1.11,1.11,0,0,1,.48.33,1.44,1.44,0,0,1,.28.58,3.39,3.39,0,0,1,.09.83,2.74,2.74,0,0,1-.19,1.11A1.2,1.2,0,0,1,67.37,315Zm-.11,2a5.66,5.66,0,0,0,0-.68,1.63,1.63,0,0,0-.11-.46.61.61,0,0,0-.2-.26.49.49,0,0,0-.29-.08.5.5,0,0,0-.48.34A2.9,2.9,0,0,0,66,317q0,1.31.63,1.31T67.26,317.07Zm-.07-3.62q0-1.06-.56-1.06t-.56,1.05q0,1.17.56,1.17T67.19,313.45Z"/><path d="M69,311.6h3.37l-2.29,7.54H69l2.09-6.68H69Z"/><path d="M103.28,315a1.17,1.17,0,0,1,.7.59,3.31,3.31,0,0,1,.19,1.31,3,3,0,0,1-.39,1.72,1.66,1.66,0,0,1-2.47,0,3,3,0,0,1-.39-1.72,3.31,3.31,0,0,1,.19-1.31,1.17,1.17,0,0,1,.7-.59,1.2,1.2,0,0,1-.63-.58,2.74,2.74,0,0,1-.19-1.11,3.39,3.39,0,0,1,.09-.83,1.44,1.44,0,0,1,.28-.58,1.11,1.11,0,0,1,.49-.33,2.08,2.08,0,0,1,.71-.11,2.06,2.06,0,0,1,.7.11,1.11,1.11,0,0,1,.48.33,1.44,1.44,0,0,1,.28.58,3.39,3.39,0,0,1,.09.83,2.74,2.74,0,0,1-.19,1.11A1.2,1.2,0,0,1,103.28,315Zm-.11,2a5.66,5.66,0,0,0,0-.68,1.63,1.63,0,0,0-.11-.46.61.61,0,0,0-.2-.26.49.49,0,0,0-.29-.08.5.5,0,0,0-.48.34,2.9,2.9,0,0,0-.15,1.09q0,1.31.63,1.31T103.17,317.07Zm-.07-3.62q0-1.06-.56-1.06t-.56,1.05q0,1.17.56,1.17T103.1,313.45Z"/><path d="M106.74,319.14h-1.08l.73-1.46.39-.82q.19-.42.38-.88a1.22,1.22,0,0,1-.78.3,1.06,1.06,0,0,1-1-.54,3.41,3.41,0,0,1-.32-1.68,3.85,3.85,0,0,1,.37-2,1.35,1.35,0,0,1,1.24-.59,1.36,1.36,0,0,1,1.25.6,3.89,3.89,0,0,1,.38,2,7.26,7.26,0,0,1-.23,1.89,8.4,8.4,0,0,1-.32,1q-.21.53-.52,1.19l-.4.83Zm.57-5.21q0-1.49-.64-1.49T106,313.9a3.06,3.06,0,0,0,.15,1.12.5.5,0,0,0,.49.35.51.51,0,0,0,.49-.34A2.93,2.93,0,0,0,107.31,313.92Z"/><path d="M120.1,319.14H119l.73-1.46.39-.82q.19-.42.38-.88a1.22,1.22,0,0,1-.78.3,1.06,1.06,0,0,1-1-.54,3.41,3.41,0,0,1-.32-1.68,3.85,3.85,0,0,1,.37-2,1.35,1.35,0,0,1,1.24-.59,1.36,1.36,0,0,1,1.25.6,3.89,3.89,0,0,1,.38,2,7.26,7.26,0,0,1-.23,1.89,8.4,8.4,0,0,1-.32,1q-.21.53-.52,1.19l-.4.83Zm.57-5.21q0-1.49-.64-1.49t-.63,1.47a3.06,3.06,0,0,0,.15,1.12.5.5,0,0,0,.49.35.51.51,0,0,0,.49-.34A2.93,2.93,0,0,0,120.67,313.92Z"/><path d="M125.88,315.43a7.94,7.94,0,0,1-.39,2.93,1.43,1.43,0,0,1-2.63,0,11.73,11.73,0,0,1,0-6,1.43,1.43,0,0,1,2.58-.11A7.53,7.53,0,0,1,125.88,315.43Zm-1,0a12.64,12.64,0,0,0-.15-2.36q-.15-.65-.53-.65t-.54.64a18.47,18.47,0,0,0,0,4.64q.15.64.54.64t.53-.64A11.21,11.21,0,0,0,124.85,315.43Z"/><path d="M137.8,319.14h-1.08l.73-1.46.39-.82q.19-.42.38-.88a1.22,1.22,0,0,1-.78.3,1.06,1.06,0,0,1-1-.54,3.41,3.41,0,0,1-.32-1.68,3.85,3.85,0,0,1,.37-2,1.35,1.35,0,0,1,1.24-.59,1.36,1.36,0,0,1,1.25.6,3.89,3.89,0,0,1,.38,2,7.26,7.26,0,0,1-.23,1.89,8.4,8.4,0,0,1-.32,1q-.21.53-.52,1.19l-.4.83Zm.57-5.21q0-1.49-.64-1.49t-.63,1.47a3.06,3.06,0,0,0,.15,1.12.5.5,0,0,0,.49.35.51.51,0,0,0,.49-.34A2.93,2.93,0,0,0,138.37,313.92Z"/><path d="M140.3,311.6H142v7.54h-1v-6.67h-.75Z"/><path d="M156.1,319.14H155l.73-1.46.39-.82q.19-.42.38-.88a1.22,1.22,0,0,1-.78.3,1.06,1.06,0,0,1-1-.54,3.41,3.41,0,0,1-.32-1.68,3.85,3.85,0,0,1,.37-2,1.35,1.35,0,0,1,1.24-.59,1.36,1.36,0,0,1,1.25.6,3.89,3.89,0,0,1,.38,2,7.26,7.26,0,0,1-.23,1.89,8.4,8.4,0,0,1-.32,1q-.21.53-.52,1.19l-.4.83Zm.57-5.21q0-1.49-.64-1.49t-.63,1.47a3.06,3.06,0,0,0,.15,1.12.5.5,0,0,0,.49.35.51.51,0,0,0,.49-.34A2.93,2.93,0,0,0,156.67,313.92Z"/><path d="M159.58,314.05h-1v-.3a3,3,0,0,1,.37-1.74,1.46,1.46,0,0,1,1.26-.51q1.66,0,1.67,1.85a8.63,8.63,0,0,1-1.25,3.59l-.6,1.13,0,.06-.07.14h1.87v.87h-3.31l.35-.74.72-1.49.64-1.39q.26-.57.39-.94a3.83,3.83,0,0,0,.26-1.26q0-.94-.65-.94t-.62,1.16v.51Z"/><path d="M173.6,319.14h-1.08l.73-1.46.39-.82q.19-.42.38-.88a1.22,1.22,0,0,1-.78.3,1.06,1.06,0,0,1-1-.54,3.41,3.41,0,0,1-.32-1.68,3.85,3.85,0,0,1,.37-2,1.35,1.35,0,0,1,1.24-.59,1.36,1.36,0,0,1,1.25.6,3.89,3.89,0,0,1,.38,2,7.26,7.26,0,0,1-.23,1.89,8.4,8.4,0,0,1-.32,1q-.21.53-.52,1.19l-.4.83Zm.57-5.21q0-1.49-.64-1.49t-.63,1.47A3.06,3.06,0,0,0,173,315a.5.5,0,0,0,.49.35A.51.51,0,0,0,174,315,2.93,2.93,0,0,0,174.17,313.92Z"/><path d="M177.12,313.62h-1v-.2a3.8,3.8,0,0,1,.09-.86,1.52,1.52,0,0,1,.27-.6,1.06,1.06,0,0,1,.47-.34,1.86,1.86,0,0,1,.68-.11,1.47,1.47,0,0,1,1.21.47,2.35,2.35,0,0,1,.38,1.49,3,3,0,0,1-.18,1.21,1.14,1.14,0,0,1-.66.57,1.22,1.22,0,0,1,.73.56,2.71,2.71,0,0,1,.2,1.21,2.67,2.67,0,0,1-.43,1.67,1.61,1.61,0,0,1-1.34.54q-1.55,0-1.55-1.78v-.13a.27.27,0,0,1,0-.07h1c0,.06,0,.1,0,.14s0,.07,0,.1a1,1,0,0,0,.17.62.54.54,0,0,0,.46.23.66.66,0,0,0,.32-.08.57.57,0,0,0,.22-.24,1.44,1.44,0,0,0,.12-.44,4.62,4.62,0,0,0,0-.65,1.81,1.81,0,0,0-.21-1,.78.78,0,0,0-.69-.3h-.12l-.15,0v-.88h.14a1,1,0,0,0,.8-.25,1.58,1.58,0,0,0,.21-1q0-1.17-.59-1.17t-.59,1Z"/><path d="M191.67,319.14h-1.08l.73-1.46.39-.82q.19-.42.38-.88a1.22,1.22,0,0,1-.78.3,1.06,1.06,0,0,1-1-.54,3.41,3.41,0,0,1-.32-1.68,3.85,3.85,0,0,1,.37-2,1.35,1.35,0,0,1,1.24-.59,1.36,1.36,0,0,1,1.25.6,3.89,3.89,0,0,1,.38,2A7.26,7.26,0,0,1,193,316a8.4,8.4,0,0,1-.32,1q-.21.53-.52,1.19l-.4.83Zm.57-5.21q0-1.49-.64-1.49T191,313.9a3.06,3.06,0,0,0,.15,1.12.5.5,0,0,0,.49.35.51.51,0,0,0,.49-.34A2.93,2.93,0,0,0,192.24,313.92Z"/><path d="M195.89,311.6h.94v4.7h.48v.78h-.48v2.07h-.94v-2.07h-2.07v-.86Zm0,4.7v-3.16l-1.27,3.16Z"/><path d="M209.1,319.14H208l.73-1.46.39-.82q.19-.42.38-.88a1.22,1.22,0,0,1-.78.3,1.06,1.06,0,0,1-1-.54,3.41,3.41,0,0,1-.32-1.68,3.85,3.85,0,0,1,.37-2,1.35,1.35,0,0,1,1.24-.59,1.36,1.36,0,0,1,1.25.6,3.89,3.89,0,0,1,.38,2,7.26,7.26,0,0,1-.23,1.89,8.4,8.4,0,0,1-.32,1q-.21.53-.52,1.19l-.4.83Zm.57-5.21q0-1.49-.64-1.49t-.63,1.47a3.06,3.06,0,0,0,.15,1.12.5.5,0,0,0,.49.35.51.51,0,0,0,.49-.34A2.93,2.93,0,0,0,209.67,313.92Z"/><path d="M212.32,311.6h2.4v.87h-1.63l-.24,1.89H213a2.05,2.05,0,0,1,.79.14,1.5,1.5,0,0,1,.58.42,1.86,1.86,0,0,1,.36.67,3.12,3.12,0,0,1,.12.91,3.24,3.24,0,0,1-.55,2,1.82,1.82,0,0,1-1.53.72,2.77,2.77,0,0,1-1.2-.31l.25-.9a2,2,0,0,0,.87.27.9.9,0,0,0,.79-.45,2.23,2.23,0,0,0,.29-1.22q0-1.45-1.25-1.45a2.18,2.18,0,0,0-.62.09Z"/><path d="M227.1,319.14H226l.73-1.46.39-.82q.19-.42.38-.88a1.22,1.22,0,0,1-.78.3,1.06,1.06,0,0,1-1-.54,3.41,3.41,0,0,1-.32-1.68,3.85,3.85,0,0,1,.37-2,1.35,1.35,0,0,1,1.24-.59,1.36,1.36,0,0,1,1.25.6,3.89,3.89,0,0,1,.38,2,7.26,7.26,0,0,1-.23,1.89,8.4,8.4,0,0,1-.32,1q-.21.53-.52,1.19l-.4.83Zm.57-5.21q0-1.49-.64-1.49t-.63,1.47a3.06,3.06,0,0,0,.15,1.12.5.5,0,0,0,.49.35.51.51,0,0,0,.49-.34A2.93,2.93,0,0,0,227.67,313.92Z"/><path d="M231.08,311.6h1.08l-.71,1.45q-.19.4-.37.84l-.39.95a1.33,1.33,0,0,1,.82-.34,1.08,1.08,0,0,1,1,.55,3.71,3.71,0,0,1,.32,1.84,3.3,3.3,0,0,1-.38,1.8,1.63,1.63,0,0,1-2.48-.06,3.81,3.81,0,0,1-.39-2,7.8,7.8,0,0,1,.3-2.19,11.43,11.43,0,0,1,.46-1.22Q230.63,312.54,231.08,311.6Zm.74,5.28a5.51,5.51,0,0,0,0-.67,1.59,1.59,0,0,0-.11-.45.6.6,0,0,0-.2-.25.57.57,0,0,0-.58,0,.59.59,0,0,0-.2.25,1.55,1.55,0,0,0-.11.45,5.44,5.44,0,0,0,0,.66q0,1.48.63,1.48T231.83,316.88Z"/><path d="M245.69,319.14H244.6l.73-1.46.39-.82q.19-.42.38-.88a1.22,1.22,0,0,1-.78.3,1.06,1.06,0,0,1-1-.54,3.41,3.41,0,0,1-.32-1.68,3.85,3.85,0,0,1,.37-2,1.35,1.35,0,0,1,1.24-.59,1.36,1.36,0,0,1,1.25.6,3.89,3.89,0,0,1,.38,2A7.26,7.26,0,0,1,247,316a8.4,8.4,0,0,1-.32,1q-.21.53-.52,1.19l-.4.83Zm.57-5.21q0-1.49-.64-1.49T245,313.9a3.06,3.06,0,0,0,.15,1.12.5.5,0,0,0,.49.35.51.51,0,0,0,.49-.34A2.93,2.93,0,0,0,246.26,313.92Z"/><path d="M248,311.6h3.37l-2.29,7.54H248l2.09-6.68H248Z"/><path d="M262.6,319.14h-1.08l.73-1.46.39-.82q.19-.42.38-.88a1.22,1.22,0,0,1-.78.3,1.06,1.06,0,0,1-1-.54,3.41,3.41,0,0,1-.32-1.68,3.85,3.85,0,0,1,.37-2,1.35,1.35,0,0,1,1.24-.59,1.36,1.36,0,0,1,1.25.6,3.89,3.89,0,0,1,.38,2,7.26,7.26,0,0,1-.23,1.89,8.4,8.4,0,0,1-.32,1q-.21.53-.52,1.19l-.4.83Zm.57-5.21q0-1.49-.64-1.49t-.63,1.47A3.06,3.06,0,0,0,262,315a.5.5,0,0,0,.49.35A.51.51,0,0,0,263,315,2.93,2.93,0,0,0,263.17,313.92Z"/><path d="M267.42,315a1.17,1.17,0,0,1,.7.59,3.31,3.31,0,0,1,.19,1.31,3,3,0,0,1-.39,1.72,1.66,1.66,0,0,1-2.47,0,3,3,0,0,1-.39-1.72,3.31,3.31,0,0,1,.19-1.31,1.17,1.17,0,0,1,.7-.59,1.2,1.2,0,0,1-.63-.58,2.74,2.74,0,0,1-.19-1.11,3.39,3.39,0,0,1,.09-.83,1.44,1.44,0,0,1,.28-.58,1.11,1.11,0,0,1,.49-.33,2.08,2.08,0,0,1,.71-.11,2.06,2.06,0,0,1,.7.11,1.11,1.11,0,0,1,.48.33,1.44,1.44,0,0,1,.28.58,3.39,3.39,0,0,1,.09.83,2.74,2.74,0,0,1-.19,1.11A1.2,1.2,0,0,1,267.42,315Zm-.11,2a5.66,5.66,0,0,0,0-.68,1.63,1.63,0,0,0-.11-.46.61.61,0,0,0-.2-.26.49.49,0,0,0-.29-.08.5.5,0,0,0-.48.34,2.9,2.9,0,0,0-.15,1.09q0,1.31.63,1.31T267.31,317.07Zm-.07-3.62q0-1.06-.56-1.06t-.56,1.05q0,1.17.56,1.17T267.24,313.45Z"/><path d="M281.1,319.14H280l.73-1.46.39-.82q.19-.42.38-.88a1.22,1.22,0,0,1-.78.3,1.06,1.06,0,0,1-1-.54,3.41,3.41,0,0,1-.32-1.68,3.85,3.85,0,0,1,.37-2,1.35,1.35,0,0,1,1.24-.59,1.36,1.36,0,0,1,1.25.6,3.89,3.89,0,0,1,.38,2,7.26,7.26,0,0,1-.23,1.89,8.4,8.4,0,0,1-.32,1q-.21.53-.52,1.19l-.4.83Zm.57-5.21q0-1.49-.64-1.49t-.63,1.47a3.06,3.06,0,0,0,.15,1.12.5.5,0,0,0,.49.35.51.51,0,0,0,.49-.34A2.93,2.93,0,0,0,281.67,313.92Z"/><path d="M285.24,319.14h-1.08l.73-1.46.39-.82q.19-.42.38-.88a1.22,1.22,0,0,1-.78.3,1.06,1.06,0,0,1-1-.54,3.41,3.41,0,0,1-.32-1.68,3.85,3.85,0,0,1,.37-2,1.35,1.35,0,0,1,1.24-.59,1.36,1.36,0,0,1,1.25.6,3.89,3.89,0,0,1,.38,2,7.26,7.26,0,0,1-.23,1.89,8.4,8.4,0,0,1-.32,1q-.21.53-.52,1.19l-.4.83Zm.57-5.21q0-1.49-.64-1.49t-.63,1.47a3.06,3.06,0,0,0,.15,1.12.5.5,0,0,0,.49.35.51.51,0,0,0,.49-.34A2.93,2.93,0,0,0,285.81,313.92Z"/><path d="M300.74,315.43a7.94,7.94,0,0,1-.39,2.93,1.43,1.43,0,0,1-2.63,0,11.73,11.73,0,0,1,0-6,1.43,1.43,0,0,1,2.58-.11A7.53,7.53,0,0,1,300.74,315.43Zm-1,0a12.64,12.64,0,0,0-.15-2.36q-.15-.65-.53-.65t-.54.64a18.47,18.47,0,0,0,0,4.64q.15.64.54.64t.53-.64A11.21,11.21,0,0,0,299.71,315.43Z"/><path d="M304.88,315.43a7.94,7.94,0,0,1-.39,2.93,1.43,1.43,0,0,1-2.63,0,11.73,11.73,0,0,1,0-6,1.43,1.43,0,0,1,2.58-.11A7.53,7.53,0,0,1,304.88,315.43Zm-1,0a12.64,12.64,0,0,0-.15-2.36q-.15-.65-.53-.65t-.54.64a18.47,18.47,0,0,0,0,4.64q.15.64.54.64t.53-.64A11.21,11.21,0,0,0,303.85,315.43Z"/><path d="M318.45,315.43a8,8,0,0,1-.39,2.93,1.43,1.43,0,0,1-2.63,0,11.73,11.73,0,0,1,0-6,1.43,1.43,0,0,1,2.58-.11A7.53,7.53,0,0,1,318.45,315.43Zm-1,0a12.64,12.64,0,0,0-.15-2.36q-.15-.65-.53-.65t-.54.64a18.47,18.47,0,0,0,0,4.64q.15.64.54.64t.53-.64A11.24,11.24,0,0,0,317.42,315.43Z"/><path d="M319.29,311.6H321v7.54h-1v-6.67h-.75Z"/><path d="M335.74,315.43a8,8,0,0,1-.39,2.93,1.43,1.43,0,0,1-2.63,0,11.73,11.73,0,0,1,0-6,1.43,1.43,0,0,1,2.58-.11A7.53,7.53,0,0,1,335.74,315.43Zm-1,0a12.64,12.64,0,0,0-.15-2.36q-.15-.65-.53-.65t-.54.64a18.47,18.47,0,0,0,0,4.64q.15.64.54.64t.53-.64A11.24,11.24,0,0,0,334.71,315.43Z"/><path d="M337.58,314.05h-1v-.3a3,3,0,0,1,.37-1.74,1.46,1.46,0,0,1,1.26-.51q1.66,0,1.67,1.85a8.63,8.63,0,0,1-1.25,3.59l-.6,1.13,0,.06-.07.14h1.87v.87h-3.31l.35-.74.72-1.49.64-1.39q.26-.57.39-.94a3.83,3.83,0,0,0,.26-1.26q0-.94-.65-.94t-.62,1.16v.51Z"/><path d="M353.74,315.43a8,8,0,0,1-.39,2.93,1.43,1.43,0,0,1-2.63,0,11.73,11.73,0,0,1,0-6,1.43,1.43,0,0,1,2.58-.11A7.53,7.53,0,0,1,353.74,315.43Zm-1,0a12.64,12.64,0,0,0-.15-2.36q-.15-.65-.53-.65t-.54.64a18.47,18.47,0,0,0,0,4.64q.15.64.54.64t.53-.64A11.24,11.24,0,0,0,352.71,315.43Z"/><path d="M355.62,313.62h-1v-.2a3.83,3.83,0,0,1,.08-.86,1.53,1.53,0,0,1,.27-.6,1.06,1.06,0,0,1,.47-.34,1.85,1.85,0,0,1,.68-.11,1.47,1.47,0,0,1,1.21.47,2.35,2.35,0,0,1,.38,1.49,3,3,0,0,1-.18,1.21,1.14,1.14,0,0,1-.66.57,1.22,1.22,0,0,1,.73.56,2.72,2.72,0,0,1,.2,1.21,2.67,2.67,0,0,1-.43,1.67,1.61,1.61,0,0,1-1.34.54q-1.55,0-1.55-1.78v-.13a.25.25,0,0,1,0-.07h1c0,.06,0,.1,0,.14s0,.07,0,.1a1,1,0,0,0,.17.62.54.54,0,0,0,.46.23.65.65,0,0,0,.32-.08.56.56,0,0,0,.22-.24,1.43,1.43,0,0,0,.13-.44,4.7,4.7,0,0,0,0-.65,1.8,1.8,0,0,0-.21-1,.77.77,0,0,0-.69-.3h-.12l-.15,0v-.88h.14a1,1,0,0,0,.8-.25,1.58,1.58,0,0,0,.21-1q0-1.17-.59-1.17t-.59,1Z"/><path d="M371.74,315.43a8,8,0,0,1-.39,2.93,1.43,1.43,0,0,1-2.63,0,11.73,11.73,0,0,1,0-6,1.43,1.43,0,0,1,2.58-.11A7.53,7.53,0,0,1,371.74,315.43Zm-1,0a12.64,12.64,0,0,0-.15-2.36q-.15-.65-.53-.65t-.54.64a18.47,18.47,0,0,0,0,4.64q.15.64.54.64t.53-.64A11.24,11.24,0,0,0,370.7,315.43Z"/><path d="M374.47,311.6h.94v4.7h.48v.78h-.48v2.07h-.94v-2.07h-2.07v-.86Zm0,4.7v-3.16l-1.27,3.16Z"/><path d="M389.74,315.43a8,8,0,0,1-.39,2.93,1.43,1.43,0,0,1-2.63,0,11.73,11.73,0,0,1,0-6,1.43,1.43,0,0,1,2.58-.11A7.53,7.53,0,0,1,389.74,315.43Zm-1,0a12.64,12.64,0,0,0-.15-2.36q-.15-.65-.53-.65t-.54.64a18.47,18.47,0,0,0,0,4.64q.15.64.54.64t.53-.64A11.24,11.24,0,0,0,388.71,315.43Z"/><path d="M391.32,311.6h2.4v.87h-1.63l-.24,1.89H392a2.05,2.05,0,0,1,.79.14,1.5,1.5,0,0,1,.58.42,1.86,1.86,0,0,1,.36.67,3.14,3.14,0,0,1,.12.91,3.24,3.24,0,0,1-.55,2,1.83,1.83,0,0,1-1.53.72,2.77,2.77,0,0,1-1.2-.31l.25-.9a2,2,0,0,0,.87.27.9.9,0,0,0,.79-.45,2.23,2.23,0,0,0,.29-1.22q0-1.45-1.25-1.45a2.18,2.18,0,0,0-.62.09Z"/><path d="M407.74,315.43a8,8,0,0,1-.39,2.93,1.43,1.43,0,0,1-2.63,0,11.73,11.73,0,0,1,0-6,1.43,1.43,0,0,1,2.58-.11A7.53,7.53,0,0,1,407.74,315.43Zm-1,0a12.64,12.64,0,0,0-.15-2.36q-.15-.65-.53-.65t-.54.64a18.47,18.47,0,0,0,0,4.64q.15.64.54.64t.53-.64A11.24,11.24,0,0,0,406.71,315.43Z"/><path d="M410.08,311.6h1.08l-.71,1.45q-.19.4-.37.84l-.39.95a1.33,1.33,0,0,1,.82-.34,1.08,1.08,0,0,1,1,.55,3.71,3.71,0,0,1,.32,1.84,3.3,3.3,0,0,1-.38,1.8,1.63,1.63,0,0,1-2.48-.06,3.8,3.8,0,0,1-.39-2,7.78,7.78,0,0,1,.3-2.19,11.42,11.42,0,0,1,.46-1.22Q409.63,312.54,410.08,311.6Zm.74,5.28a5.61,5.61,0,0,0,0-.67,1.62,1.62,0,0,0-.11-.45.6.6,0,0,0-.2-.25.57.57,0,0,0-.58,0,.59.59,0,0,0-.2.25,1.52,1.52,0,0,0-.11.45,5.34,5.34,0,0,0,0,.66q0,1.48.63,1.48T410.83,316.88Z"/><path d="M425.35,315.43a7.93,7.93,0,0,1-.39,2.93,1.43,1.43,0,0,1-2.63,0,11.73,11.73,0,0,1,0-6,1.43,1.43,0,0,1,2.58-.11A7.53,7.53,0,0,1,425.35,315.43Zm-1,0a12.64,12.64,0,0,0-.15-2.36q-.15-.65-.53-.65t-.54.64a18.47,18.47,0,0,0,0,4.64q.15.64.54.64t.53-.64A11.17,11.17,0,0,0,424.31,315.43Z"/><path d="M426,311.6h3.37l-2.29,7.54H426l2.09-6.68H426Z"/><path d="M443.24,315.43a8,8,0,0,1-.39,2.93,1.43,1.43,0,0,1-2.63,0,11.73,11.73,0,0,1,0-6,1.43,1.43,0,0,1,2.58-.11A7.53,7.53,0,0,1,443.24,315.43Zm-1,0a12.64,12.64,0,0,0-.15-2.36q-.15-.65-.53-.65t-.54.64a18.47,18.47,0,0,0,0,4.64q.15.64.54.64t.53-.64A11.24,11.24,0,0,0,442.21,315.43Z"/><path d="M446.42,315a1.17,1.17,0,0,1,.7.59,3.31,3.31,0,0,1,.19,1.31,3,3,0,0,1-.39,1.72,1.66,1.66,0,0,1-2.47,0,3,3,0,0,1-.39-1.72,3.31,3.31,0,0,1,.19-1.31,1.16,1.16,0,0,1,.7-.59,1.2,1.2,0,0,1-.63-.58,2.73,2.73,0,0,1-.19-1.11,3.42,3.42,0,0,1,.09-.83,1.44,1.44,0,0,1,.28-.58,1.11,1.11,0,0,1,.49-.33,2.08,2.08,0,0,1,.71-.11,2.06,2.06,0,0,1,.7.11,1.11,1.11,0,0,1,.48.33,1.43,1.43,0,0,1,.28.58,3.37,3.37,0,0,1,.09.83,2.74,2.74,0,0,1-.19,1.11A1.21,1.21,0,0,1,446.42,315Zm-.11,2a5.76,5.76,0,0,0,0-.68,1.66,1.66,0,0,0-.11-.46.61.61,0,0,0-.2-.26.48.48,0,0,0-.29-.08.5.5,0,0,0-.48.34,2.91,2.91,0,0,0-.15,1.09q0,1.31.63,1.31T446.31,317.07Zm-.07-3.62q0-1.06-.56-1.06t-.56,1.05q0,1.17.56,1.17T446.24,313.45Z"/><path d="M461.24,315.43a8,8,0,0,1-.39,2.93,1.43,1.43,0,0,1-2.63,0,11.73,11.73,0,0,1,0-6,1.43,1.43,0,0,1,2.58-.11A7.53,7.53,0,0,1,461.24,315.43Zm-1,0a12.64,12.64,0,0,0-.15-2.36q-.15-.65-.53-.65t-.54.64a18.47,18.47,0,0,0,0,4.64q.15.64.54.64t.53-.64A11.24,11.24,0,0,0,460.21,315.43Z"/><path d="M463.74,319.14h-1.08l.73-1.46.39-.82q.19-.42.38-.88a1.23,1.23,0,0,1-.78.3,1.06,1.06,0,0,1-1-.54,3.41,3.41,0,0,1-.32-1.68,3.84,3.84,0,0,1,.37-2,1.35,1.35,0,0,1,1.24-.59,1.36,1.36,0,0,1,1.25.6,3.89,3.89,0,0,1,.38,2,7.26,7.26,0,0,1-.23,1.89,8.59,8.59,0,0,1-.32,1q-.21.53-.52,1.19l-.4.83Zm.57-5.21q0-1.49-.64-1.49T463,313.9a3.07,3.07,0,0,0,.15,1.12.5.5,0,0,0,.49.35.51.51,0,0,0,.49-.34A2.94,2.94,0,0,0,464.31,313.92Z"/><path d="M476.11,311.6h1.72v7.54h-1v-6.67h-.75Z"/><path d="M482.63,315.43a8,8,0,0,1-.39,2.93,1.43,1.43,0,0,1-2.63,0,11.73,11.73,0,0,1,0-6,1.43,1.43,0,0,1,2.58-.11A7.53,7.53,0,0,1,482.63,315.43Zm-1,0a12.64,12.64,0,0,0-.15-2.36q-.15-.65-.53-.65t-.54.64a18.47,18.47,0,0,0,0,4.64q.15.64.54.64t.53-.64A11.24,11.24,0,0,0,481.59,315.43Z"/><path d="M494.29,311.6H496v7.54h-1v-6.67h-.75Z"/><path d="M497.57,311.6h1.72v7.54h-1v-6.67h-.75Z"/><path d="M512.66,311.6h1.72v7.54h-1v-6.67h-.75Z"/><path d="M516.78,314.05h-1v-.3a3,3,0,0,1,.37-1.74,1.47,1.47,0,0,1,1.26-.51q1.67,0,1.67,1.85a8.63,8.63,0,0,1-1.25,3.59l-.6,1.13,0,.06-.07.14H519v.87h-3.31l.35-.74.72-1.49.64-1.39q.26-.57.39-.94a3.83,3.83,0,0,0,.26-1.26q0-.94-.65-.94t-.62,1.16v.51Z"/><path d="M529.67,311.6h1.72v7.54h-1v-6.67h-.75Z"/><path d="M533.82,313.62h-1v-.2a3.77,3.77,0,0,1,.09-.86,1.52,1.52,0,0,1,.27-.6,1.06,1.06,0,0,1,.47-.34,1.86,1.86,0,0,1,.68-.11,1.47,1.47,0,0,1,1.21.47,2.35,2.35,0,0,1,.38,1.49,3,3,0,0,1-.18,1.21,1.14,1.14,0,0,1-.66.57,1.21,1.21,0,0,1,.73.56A2.7,2.7,0,0,1,536,317a2.66,2.66,0,0,1-.43,1.67,1.61,1.61,0,0,1-1.34.54q-1.55,0-1.55-1.78v-.13a.3.3,0,0,1,0-.07h1c0,.06,0,.1,0,.14s0,.07,0,.1a1,1,0,0,0,.17.62.54.54,0,0,0,.46.23.66.66,0,0,0,.33-.08.57.57,0,0,0,.22-.24,1.44,1.44,0,0,0,.12-.44,4.55,4.55,0,0,0,0-.65,1.81,1.81,0,0,0-.21-1,.78.78,0,0,0-.69-.3H534l-.15,0v-.88H534a1,1,0,0,0,.8-.25,1.58,1.58,0,0,0,.21-1q0-1.17-.59-1.17t-.59,1Z"/><path d="M547.64,311.6h1.72v7.54h-1v-6.67h-.75Z"/><path d="M552.69,311.6h.94v4.7h.48v.78h-.48v2.07h-.94v-2.07h-2.07v-.86Zm0,4.7v-3.16l-1.27,3.16Z"/><path d="M565.17,311.6h1.72v7.54h-1v-6.67h-.75Z"/><path d="M569,311.6h2.4v.87h-1.63l-.24,1.89h.12a2.05,2.05,0,0,1,.79.14,1.5,1.5,0,0,1,.58.42,1.85,1.85,0,0,1,.36.67,3.11,3.11,0,0,1,.12.91,3.23,3.23,0,0,1-.55,2,1.82,1.82,0,0,1-1.53.72,2.77,2.77,0,0,1-1.2-.31l.25-.9a2,2,0,0,0,.87.27.9.9,0,0,0,.79-.45,2.23,2.23,0,0,0,.29-1.22q0-1.45-1.25-1.45a2.19,2.19,0,0,0-.62.09Z"/><path d="M583.67,311.6h1.72v7.54h-1v-6.67h-.75Z"/><path d="M588.27,311.6h1.08l-.71,1.45q-.18.4-.37.84l-.39.95a1.33,1.33,0,0,1,.82-.34,1.08,1.08,0,0,1,1,.55,3.71,3.71,0,0,1,.32,1.84,3.29,3.29,0,0,1-.38,1.8,1.63,1.63,0,0,1-2.48-.06,3.81,3.81,0,0,1-.39-2,7.81,7.81,0,0,1,.3-2.19,11.45,11.45,0,0,1,.46-1.22Q587.82,312.54,588.27,311.6Zm.74,5.28a5.41,5.41,0,0,0,0-.67,1.56,1.56,0,0,0-.11-.45.59.59,0,0,0-.2-.25.57.57,0,0,0-.58,0,.6.6,0,0,0-.2.25,1.58,1.58,0,0,0-.11.45,5.54,5.54,0,0,0,0,.66q0,1.48.63,1.48T589,316.88Z"/><path d="M601.19,311.6h1.72v7.54h-1v-6.67h-.75Z"/><path d="M604.26,311.6h3.37l-2.29,7.54h-1.08l2.09-6.68h-2.09Z"/><path d="M29.85,303.81a7.94,7.94,0,0,1-.39,2.93,1.43,1.43,0,0,1-2.63,0,11.73,11.73,0,0,1,0-6,1.43,1.43,0,0,1,2.58-.11A7.53,7.53,0,0,1,29.85,303.81Zm-1,0a12.64,12.64,0,0,0-.15-2.36q-.15-.65-.53-.65t-.54.64a18.47,18.47,0,0,0,0,4.64q.15.64.54.64t.53-.64A11.21,11.21,0,0,0,28.81,303.81Z"/><path d="M23.15,254h2.4v.87H23.92l-.24,1.89h.12a2.05,2.05,0,0,1,.79.14,1.5,1.5,0,0,1,.58.42,1.86,1.86,0,0,1,.36.67,3.12,3.12,0,0,1,.12.91,3.24,3.24,0,0,1-.55,2,1.82,1.82,0,0,1-1.53.72,2.77,2.77,0,0,1-1.2-.31l.25-.9a2,2,0,0,0,.87.27.9.9,0,0,0,.79-.45,2.23,2.23,0,0,0,.29-1.22q0-1.45-1.25-1.45a2.18,2.18,0,0,0-.62.09Z"/><path d="M29.85,257.81a7.94,7.94,0,0,1-.39,2.93,1.43,1.43,0,0,1-2.63,0,11.73,11.73,0,0,1,0-6,1.43,1.43,0,0,1,2.58-.11A7.53,7.53,0,0,1,29.85,257.81Zm-1,0a12.64,12.64,0,0,0-.15-2.36q-.15-.65-.53-.65t-.54.64a18.47,18.47,0,0,0,0,4.64q.15.64.54.64t.53-.64A11.21,11.21,0,0,0,28.81,257.81Z"/><path d="M19.19,206h1.72v7.54h-1v-6.67h-.75Z"/><path d="M25.71,209.81a7.94,7.94,0,0,1-.39,2.93,1.43,1.43,0,0,1-2.63,0,11.73,11.73,0,0,1,0-6,1.43,1.43,0,0,1,2.58-.11A7.53,7.53,0,0,1,25.71,209.81Zm-1,0a12.64,12.64,0,0,0-.15-2.36q-.15-.65-.53-.65t-.54.64a18.47,18.47,0,0,0,0,4.64q.15.64.54.64t.53-.64A11.21,11.21,0,0,0,24.67,209.81Z"/><path d="M29.85,209.81a7.94,7.94,0,0,1-.39,2.93,1.43,1.43,0,0,1-2.63,0,11.73,11.73,0,0,1,0-6,1.43,1.43,0,0,1,2.58-.11A7.53,7.53,0,0,1,29.85,209.81Zm-1,0a12.64,12.64,0,0,0-.15-2.36q-.15-.65-.53-.65t-.54.64a18.47,18.47,0,0,0,0,4.64q.15.64.54.64t.53-.64A11.21,11.21,0,0,0,28.81,209.81Z"/><path d="M19.3,160H21v7.54h-1v-6.67H19.3Z"/><path d="M23.15,160h2.4v.87H23.92l-.24,1.89h.12a2.05,2.05,0,0,1,.79.14,1.5,1.5,0,0,1,.58.42,1.86,1.86,0,0,1,.36.67,3.12,3.12,0,0,1,.12.91,3.24,3.24,0,0,1-.55,2,1.82,1.82,0,0,1-1.53.72,2.77,2.77,0,0,1-1.2-.31l.25-.9a2,2,0,0,0,.87.27.9.9,0,0,0,.79-.45,2.23,2.23,0,0,0,.29-1.22q0-1.45-1.25-1.45a2.18,2.18,0,0,0-.62.09Z"/><path d="M29.85,163.81a7.94,7.94,0,0,1-.39,2.93,1.43,1.43,0,0,1-2.63,0,11.73,11.73,0,0,1,0-6,1.43,1.43,0,0,1,2.58-.11A7.53,7.53,0,0,1,29.85,163.81Zm-1,0a12.64,12.64,0,0,0-.15-2.36q-.15-.65-.53-.65t-.54.64a18.47,18.47,0,0,0,0,4.64q.15.64.54.64t.53-.64A11.21,11.21,0,0,0,28.81,163.81Z"/><path d="M19.27,116.43h-1v-.3a3,3,0,0,1,.37-1.74,1.46,1.46,0,0,1,1.26-.51q1.66,0,1.67,1.85a8.63,8.63,0,0,1-1.25,3.59l-.6,1.13,0,.06-.07.14h1.87v.87H18.17l.35-.74.72-1.49.64-1.39q.26-.57.39-.94a3.83,3.83,0,0,0,.26-1.26q0-.94-.65-.94t-.62,1.16v.51Z"/><path d="M25.71,117.81a7.94,7.94,0,0,1-.39,2.93,1.43,1.43,0,0,1-2.63,0,11.73,11.73,0,0,1,0-6,1.43,1.43,0,0,1,2.58-.11A7.53,7.53,0,0,1,25.71,117.81Zm-1,0a12.64,12.64,0,0,0-.15-2.36q-.15-.65-.53-.65t-.54.64a18.47,18.47,0,0,0,0,4.64q.15.64.54.64t.53-.64A11.21,11.21,0,0,0,24.67,117.81Z"/><path d="M29.85,117.81a7.94,7.94,0,0,1-.39,2.93,1.43,1.43,0,0,1-2.63,0,11.73,11.73,0,0,1,0-6,1.43,1.43,0,0,1,2.58-.11A7.53,7.53,0,0,1,29.85,117.81Zm-1,0a12.64,12.64,0,0,0-.15-2.36q-.15-.65-.53-.65t-.54.64a18.47,18.47,0,0,0,0,4.64q.15.64.54.64t.53-.64A11.21,11.21,0,0,0,28.81,117.81Z"/><path d="M19.27,68.43h-1v-.3a3,3,0,0,1,.37-1.74,1.46,1.46,0,0,1,1.26-.51q1.66,0,1.67,1.85a8.63,8.63,0,0,1-1.25,3.59l-.6,1.13,0,.06-.07.14h1.87v.87H18.17l.35-.74.72-1.49.64-1.39q.26-.57.39-.94a3.83,3.83,0,0,0,.26-1.26q0-.94-.65-.94t-.62,1.16v.51Z"/><path d="M23.15,66h2.4v.87H23.92l-.24,1.89h.12a2.05,2.05,0,0,1,.79.14,1.5,1.5,0,0,1,.58.42,1.86,1.86,0,0,1,.36.67,3.12,3.12,0,0,1,.12.91,3.24,3.24,0,0,1-.55,2,1.82,1.82,0,0,1-1.53.72,2.77,2.77,0,0,1-1.2-.31l.25-.9a2,2,0,0,0,.87.27.9.9,0,0,0,.79-.45A2.23,2.23,0,0,0,24.57,71q0-1.45-1.25-1.45a2.18,2.18,0,0,0-.62.09Z"/><path d="M29.85,69.81a7.94,7.94,0,0,1-.39,2.93,1.43,1.43,0,0,1-2.63,0,8,8,0,0,1-.39-3,8,8,0,0,1,.39-3,1.43,1.43,0,0,1,2.58-.11A7.53,7.53,0,0,1,29.85,69.81Zm-1,0a12.64,12.64,0,0,0-.15-2.36q-.15-.65-.53-.65t-.54.64a12.21,12.21,0,0,0-.15,2.32,12.29,12.29,0,0,0,.15,2.32q.15.64.54.64t.53-.64A11.21,11.21,0,0,0,28.81,69.81Z"/><path d="M19.3,21h-1v-.2a3.8,3.8,0,0,1,.09-.86,1.52,1.52,0,0,1,.27-.6,1.06,1.06,0,0,1,.47-.34,1.86,1.86,0,0,1,.68-.11,1.47,1.47,0,0,1,1.21.47,2.35,2.35,0,0,1,.38,1.49,3,3,0,0,1-.18,1.21,1.14,1.14,0,0,1-.66.57,1.22,1.22,0,0,1,.73.56,2.71,2.71,0,0,1,.2,1.21,2.67,2.67,0,0,1-.43,1.67,1.61,1.61,0,0,1-1.34.54q-1.55,0-1.55-1.78v-.13a.27.27,0,0,1,0-.07h1c0,.06,0,.1,0,.14s0,.07,0,.1a1,1,0,0,0,.17.62.54.54,0,0,0,.46.23.66.66,0,0,0,.32-.08.57.57,0,0,0,.22-.24,1.44,1.44,0,0,0,.12-.44,4.62,4.62,0,0,0,0-.65,1.81,1.81,0,0,0-.21-1,.78.78,0,0,0-.69-.3h-.12l-.15,0v-.88h.14a1,1,0,0,0,.8-.25,1.58,1.58,0,0,0,.21-1q0-1.17-.59-1.17t-.59,1Z"/><path d="M25.71,22.81a7.94,7.94,0,0,1-.39,2.93,1.43,1.43,0,0,1-2.63,0,8,8,0,0,1-.39-3,8,8,0,0,1,.39-3,1.43,1.43,0,0,1,2.58-.11A7.53,7.53,0,0,1,25.71,22.81Zm-1,0a12.64,12.64,0,0,0-.15-2.36q-.15-.65-.53-.65t-.54.64a12.21,12.21,0,0,0-.15,2.32,12.29,12.29,0,0,0,.15,2.32q.15.64.54.64t.53-.64A11.21,11.21,0,0,0,24.67,22.81Z"/><path d="M29.85,22.81a7.94,7.94,0,0,1-.39,2.93,1.43,1.43,0,0,1-2.63,0,8,8,0,0,1-.39-3,8,8,0,0,1,.39-3,1.43,1.43,0,0,1,2.58-.11A7.53,7.53,0,0,1,29.85,22.81Zm-1,0a12.64,12.64,0,0,0-.15-2.36q-.15-.65-.53-.65t-.54.64a12.21,12.21,0,0,0-.15,2.32,12.29,12.29,0,0,0,.15,2.32q.15.64.54.64t.53-.64A11.21,11.21,0,0,0,28.81,22.81Z"/><line class="cls-2" x1="41.61" y1="18.53" x2="41.61" y2="304.53"/></svg>