<svg id="Layer_2" data-name="Layer 2" xmlns="http://www.w3.org/2000/svg" viewBox="0 0 594 164"><defs><style>.cls-1{fill:#ed017f;}.cls-2{fill:#00aeef;}.cls-3{fill:#dcdcdc;stroke:#fff;stroke-linecap:round;stroke-linejoin:round;stroke-width:0.47px;stroke-dasharray:0.47 0;}.cls-4{opacity:0.6;}</style></defs><title>who_sampled_genres</title><rect class="cls-1" x="62.27" y="12.76" width="466" height="17.01"/><rect class="cls-2" x="62.27" y="44.26" width="29" height="17.01"/><rect class="cls-3" x="62.27" y="75.76" width="14" height="17.01"/><rect class="cls-3" x="62.27" y="107.84" width="11" height="17"/><rect class="cls-3" x="62.27" y="139.76" width="4" height="17.01"/><path d="M16.58,15.8h3.24v1h-2v2.87h1.79v1H17.8v3.09h2v1H16.58Z"/><path d="M20.88,14.89H22v10H20.88Z"/><path d="M25.61,22.8h1q-.12,2.14-1.76,2.14a1.79,1.79,0,0,1-.83-.18,1.46,1.46,0,0,1-.58-.56,2.9,2.9,0,0,1-.34-1A7.78,7.78,0,0,1,23,21.83a4.89,4.89,0,0,1,.45-2.38,1.49,1.49,0,0,1,1.39-.77q1.82,0,1.82,3.21V22H24.13q0,1.95.77,1.95T25.61,22.8Zm-.06-1.58A4.09,4.09,0,0,0,25.33,20a.51.51,0,0,0-.49-.33.5.5,0,0,0-.49.33,4.09,4.09,0,0,0-.22,1.25Z"/><path d="M30.17,18.9V20a.7.7,0,0,0-.56-.29q-.93,0-.93,2t.92,2.13a1,1,0,0,0,.57-.23v1a1.92,1.92,0,0,1-.9.23q-1.8,0-1.8-3.07a5,5,0,0,1,.45-2.41,1.48,1.48,0,0,1,1.38-.78A1.92,1.92,0,0,1,30.17,18.9Z"/><path d="M31.25,17.08h1.12v1.7H33v.89h-.61v5.17H31.25V19.67h-.62v-.89h.62Z"/><path d="M33.78,18.78H34.9v.76a2.14,2.14,0,0,1,.57-.67,1.46,1.46,0,0,1,.74-.22v1.17l-.2,0a1.06,1.06,0,0,0-.86.31,1.71,1.71,0,0,0-.25,1.07v3.67H33.78Z"/><path d="M40.6,21.86q0,3.08-1.9,3.08t-1.9-3.12q0-3.13,1.9-3.13a1.82,1.82,0,0,1,.85.19,1.5,1.5,0,0,1,.59.58,3,3,0,0,1,.35,1A7.69,7.69,0,0,1,40.6,21.86Zm-1.16,0a5.93,5.93,0,0,0-.16-1.66.58.58,0,0,0-.56-.47.6.6,0,0,0-.57.47A5.78,5.78,0,0,0,38,21.8a5.71,5.71,0,0,0,.16,1.63.6.6,0,0,0,.57.47.58.58,0,0,0,.56-.46A5.2,5.2,0,0,0,39.44,21.83Z"/><path d="M41.65,18.78h1.12v.7a1.42,1.42,0,0,1,1.24-.8,1.11,1.11,0,0,1,1.05.58,3.06,3.06,0,0,1,.18,1.27v4.31H44.12V20.79a1.89,1.89,0,0,0-.15-.87.53.53,0,0,0-.5-.26.71.71,0,0,0-.33.07.51.51,0,0,0-.21.22,1.21,1.21,0,0,0-.12.39,3.87,3.87,0,0,0,0,.59v3.92H41.65Z"/><path d="M47,16.2a.76.76,0,0,1,.75.76.76.76,0,1,1-1.52,0,.72.72,0,0,1,.22-.53A.78.78,0,0,1,47,16.2Zm-.53,2.58h1.13v6.06H46.5Z"/><path d="M51.37,18.9V20a.7.7,0,0,0-.56-.29q-.93,0-.93,2t.92,2.13a1,1,0,0,0,.57-.23v1a1.92,1.92,0,0,1-.9.23q-1.8,0-1.8-3.07a5,5,0,0,1,.45-2.41,1.48,1.48,0,0,1,1.38-.78A1.92,1.92,0,0,1,51.37,18.9Z"/><path d="M22.53,47.3h1.22v3.54h1.79V47.3h1.22v9H25.54V51.87H23.75v4.48H22.53Z"/><path d="M28.62,47.7a.76.76,0,0,1,.75.76.76.76,0,1,1-1.52,0,.72.72,0,0,1,.22-.53A.78.78,0,0,1,28.62,47.7Zm-.53,2.58h1.13v6.06H28.09Z"/><path d="M30.47,58.83V50.28h1.12v.79a1.92,1.92,0,0,1,.48-.69,1,1,0,0,1,.64-.19,1.15,1.15,0,0,1,1.1.78,6.29,6.29,0,0,1,.35,2.43,5.52,5.52,0,0,1-.36,2.33,1.18,1.18,0,0,1-1.13.73,1,1,0,0,1-.62-.17,1.1,1.1,0,0,1-.23-.23,2.76,2.76,0,0,1-.23-.37v3.16ZM33,53.35a5.6,5.6,0,0,0-.16-1.68.58.58,0,0,0-.57-.47q-.39,0-.55.49a5.48,5.48,0,0,0-.16,1.63,5.48,5.48,0,0,0,.16,1.63q.17.49.55.49a.6.6,0,0,0,.57-.47A5.28,5.28,0,0,0,33,53.35Z"/><path d="M34.58,52.78h2.13v.91H34.58Z"/><path d="M37.41,47.3h1.22v3.54h1.79V47.3h1.22v9H40.41V51.87H38.62v4.48H37.41Z"/><path d="M46.54,53.36q0,3.08-1.9,3.08t-1.9-3.12q0-3.13,1.9-3.13a1.82,1.82,0,0,1,.85.19,1.5,1.5,0,0,1,.59.58,3,3,0,0,1,.35,1A7.69,7.69,0,0,1,46.54,53.36Zm-1.16,0a5.93,5.93,0,0,0-.16-1.66.58.58,0,0,0-.56-.47.6.6,0,0,0-.57.47,5.78,5.78,0,0,0-.16,1.63,5.71,5.71,0,0,0,.16,1.63.6.6,0,0,0,.57.47.58.58,0,0,0,.56-.46A5.2,5.2,0,0,0,45.38,53.33Z"/><path d="M47.58,58.83V50.28H48.7v.79a1.92,1.92,0,0,1,.48-.69,1,1,0,0,1,.64-.19,1.15,1.15,0,0,1,1.1.78,6.29,6.29,0,0,1,.35,2.43,5.52,5.52,0,0,1-.36,2.33,1.18,1.18,0,0,1-1.13.73,1,1,0,0,1-.62-.17,1.1,1.1,0,0,1-.23-.23,2.76,2.76,0,0,1-.23-.37v3.16Zm2.53-5.48A5.6,5.6,0,0,0,50,51.67a.58.58,0,0,0-.57-.47q-.39,0-.55.49a5.48,5.48,0,0,0-.16,1.63,5.48,5.48,0,0,0,.16,1.63q.17.49.55.49A.6.6,0,0,0,50,55,5.28,5.28,0,0,0,50.11,53.35Z"/><path d="M10.48,78.8h1.61a2,2,0,0,1,1.48.47,2.56,2.56,0,0,1,.62,1.88,3.23,3.23,0,0,1-.33,1.56,1.39,1.39,0,0,1-.93.73l1.66,4.4H13.35l-1.66-4.43v4.43H10.48Zm1.22,4a1.29,1.29,0,0,0,1-.33A1.66,1.66,0,0,0,13,81.37a3.63,3.63,0,0,0-.06-.72,1.29,1.29,0,0,0-.19-.49.78.78,0,0,0-.34-.28,1.27,1.27,0,0,0-.5-.09h-.21Z"/><path d="M18.87,84.86q0,3.08-1.9,3.08t-1.9-3.12q0-3.14,1.9-3.14a1.82,1.82,0,0,1,.85.19,1.5,1.5,0,0,1,.59.58,3,3,0,0,1,.35,1A7.7,7.7,0,0,1,18.87,84.86Zm-1.16,0a5.93,5.93,0,0,0-.16-1.66.58.58,0,0,0-.56-.47.6.6,0,0,0-.57.47,5.78,5.78,0,0,0-.16,1.64,5.71,5.71,0,0,0,.16,1.63.6.6,0,0,0,.57.47.58.58,0,0,0,.56-.46A5.2,5.2,0,0,0,17.71,84.83Z"/><path d="M22.39,81.9V83a.7.7,0,0,0-.56-.29q-.93,0-.93,2t.92,2.13a1,1,0,0,0,.57-.23v1a1.92,1.92,0,0,1-.9.23q-1.8,0-1.8-3.07a5,5,0,0,1,.45-2.41,1.48,1.48,0,0,1,1.38-.78A1.92,1.92,0,0,1,22.39,81.9Z"/><path d="M23.27,77.89h1.12v6.59l1.42-2.7h1.27l-1.55,2.7,1.75,3.36H26l-1.58-3.22v3.22H23.27Z"/><path d="M34.63,77.89h.94L30.19,90.33h-1Z"/><path d="M38.4,78.8H40a2.17,2.17,0,0,1,1.69.59,2.77,2.77,0,0,1,.53,1.88q0,1.8-1.06,2.33a3.88,3.88,0,0,1-1.54.24v4H38.4Zm1.22,4a1.41,1.41,0,0,0,1-.3,1.6,1.6,0,0,0,.29-1.1,2,2,0,0,0-.28-1.18,1,1,0,0,0-.88-.37h-.17Z"/><path d="M46.54,84.86q0,3.08-1.9,3.08t-1.9-3.12q0-3.14,1.9-3.14a1.82,1.82,0,0,1,.85.19,1.5,1.5,0,0,1,.59.58,3,3,0,0,1,.35,1A7.7,7.7,0,0,1,46.54,84.86Zm-1.16,0a5.93,5.93,0,0,0-.16-1.66.58.58,0,0,0-.56-.47.6.6,0,0,0-.57.47,5.78,5.78,0,0,0-.16,1.64,5.71,5.71,0,0,0,.16,1.63.6.6,0,0,0,.57.47.58.58,0,0,0,.56-.46A5.2,5.2,0,0,0,45.38,84.83Z"/><path d="M47.58,90.33V81.78H48.7v.79a1.92,1.92,0,0,1,.48-.69,1,1,0,0,1,.64-.19,1.15,1.15,0,0,1,1.1.78,6.3,6.3,0,0,1,.35,2.43,5.52,5.52,0,0,1-.36,2.33,1.18,1.18,0,0,1-1.13.73,1,1,0,0,1-.62-.17,1.1,1.1,0,0,1-.23-.23,2.76,2.76,0,0,1-.23-.37v3.16Zm2.53-5.48A5.61,5.61,0,0,0,50,83.17a.58.58,0,0,0-.57-.47q-.39,0-.55.49a8.17,8.17,0,0,0,0,3.26q.17.49.55.49a.6.6,0,0,0,.57-.47A5.28,5.28,0,0,0,50.11,84.85Z"/><path d="M13.11,111.07v1.19a1.78,1.78,0,0,0-1-.4,1,1,0,0,0-.79.34,1.2,1.2,0,0,0-.3.86,1.48,1.48,0,0,0,.22.81,3.6,3.6,0,0,0,.37.47q.25.29.66.69a5.41,5.41,0,0,1,1,1.31,2.87,2.87,0,0,1,.27,1.31,2.54,2.54,0,0,1-.59,1.73,1.94,1.94,0,0,1-1.52.66,2.1,2.1,0,0,1-1.33-.43V118.4a2.07,2.07,0,0,0,1.18.47,1,1,0,0,0,.78-.33,1.34,1.34,0,0,0,.28-.9,1.8,1.8,0,0,0-.22-.88,3.61,3.61,0,0,0-.31-.43q-.2-.24-.5-.54-.46-.46-.77-.81a3.81,3.81,0,0,1-.45-.62,2.69,2.69,0,0,1-.28-1.3,2.44,2.44,0,0,1,.55-1.68,1.9,1.9,0,0,1,1.49-.63A2.64,2.64,0,0,1,13.11,111.07Z"/><path d="M18.08,116.94q0,3.08-1.9,3.08t-1.9-3.12q0-3.13,1.9-3.13A1.82,1.82,0,0,1,17,114a1.5,1.5,0,0,1,.59.58,3,3,0,0,1,.35,1A7.69,7.69,0,0,1,18.08,116.94Zm-1.16,0a5.93,5.93,0,0,0-.16-1.66.58.58,0,0,0-.56-.47.6.6,0,0,0-.57.47,5.78,5.78,0,0,0-.16,1.63,5.71,5.71,0,0,0,.16,1.63.6.6,0,0,0,.57.47.58.58,0,0,0,.56-.46A5.2,5.2,0,0,0,16.92,116.92Z"/><path d="M19.12,113.86h1.12v4.05a1.61,1.61,0,0,0,.17.8.57.57,0,0,0,.52.24.61.61,0,0,0,.53-.21,1.44,1.44,0,0,0,.15-.77v-4.11h1.12v3.63a5,5,0,0,1-.19,1.7,1.62,1.62,0,0,1-1.63.83,1.71,1.71,0,0,1-1.38-.49,2.63,2.63,0,0,1-.41-1.66Z"/><path d="M24,113.86h1.12v.7a1.42,1.42,0,0,1,1.24-.8,1.11,1.11,0,0,1,1.05.58,3.06,3.06,0,0,1,.18,1.27v4.31H26.47v-4.05a1.89,1.89,0,0,0-.15-.87.53.53,0,0,0-.5-.26.71.71,0,0,0-.33.07.51.51,0,0,0-.21.22,1.21,1.21,0,0,0-.12.39,3.87,3.87,0,0,0,0,.59v3.92H24Z"/><path d="M32.32,110v10H31.2v-.78a1.94,1.94,0,0,1-.48.69,1,1,0,0,1-.64.19,1.16,1.16,0,0,1-1.1-.77,6.2,6.2,0,0,1-.35-2.42,9.33,9.33,0,0,1,.09-1.38,3.44,3.44,0,0,1,.27-1,1.29,1.29,0,0,1,.46-.55,1.22,1.22,0,0,1,.67-.18,1,1,0,0,1,.61.18,1.22,1.22,0,0,1,.24.23,2.31,2.31,0,0,1,.24.38V110Zm-2.53,6.9a6,6,0,0,0,.16,1.67.59.59,0,0,0,.57.47q.38,0,.54-.49a7.86,7.86,0,0,0,0-3.25q-.17-.49-.54-.49a.6.6,0,0,0-.57.47A5.31,5.31,0,0,0,29.79,116.87Z"/><path d="M33.73,112.16h1.12v1.7h.61v.89h-.61v5.17H33.73v-5.17h-.62v-.89h.62Z"/><path d="M36.26,113.86h1.12v.76a2.14,2.14,0,0,1,.57-.67,1.46,1.46,0,0,1,.74-.22v1.17l-.2,0a1.06,1.06,0,0,0-.86.31,1.71,1.71,0,0,0-.25,1.07v3.67H36.26Z"/><path d="M43,113.86v6.06H41.88v-.78a1.94,1.94,0,0,1-.48.69,1,1,0,0,1-.63.19,1.16,1.16,0,0,1-1.11-.77,6.22,6.22,0,0,1-.35-2.43,5.71,5.71,0,0,1,.35-2.32,1.16,1.16,0,0,1,1.11-.74,1.26,1.26,0,0,1,1.11.79v-.69Zm-2.53,3a6,6,0,0,0,.16,1.67.59.59,0,0,0,.57.47q.38,0,.54-.49a7.86,7.86,0,0,0,0-3.25q-.17-.49-.54-.49a.6.6,0,0,0-.57.47A5.31,5.31,0,0,0,40.46,116.87Z"/><path d="M46.75,114v1.14a.7.7,0,0,0-.56-.29q-.93,0-.93,2t.92,2.13a1,1,0,0,0,.57-.23v1a1.92,1.92,0,0,1-.9.23Q44,120,44,117a5,5,0,0,1,.45-2.41,1.48,1.48,0,0,1,1.38-.78A1.92,1.92,0,0,1,46.75,114Z"/><path d="M47.62,110h1.12v6.59l1.42-2.7h1.27l-1.55,2.7,1.75,3.36H50.33l-1.58-3.22v3.22H47.62Z"/><path d="M36,147.54a7.82,7.82,0,0,1-.53,3.4,1.86,1.86,0,0,1-1.79,1,1.9,1.9,0,0,1-1.86-1.08,9.25,9.25,0,0,1-.53-3.77,7.92,7.92,0,0,1,.53-3.42,1.88,1.88,0,0,1,1.8-1,1.93,1.93,0,0,1,1.69.78,3.69,3.69,0,0,1,.53,1.48A15.42,15.42,0,0,1,36,147.54Zm-1.28.13a14.46,14.46,0,0,0-.21-3.12q-.21-.77-.86-.77a.86.86,0,0,0-.87.71,12.36,12.36,0,0,0-.21,2.87,11.41,11.41,0,0,0,.22,2.75.87.87,0,0,0,.86.73.85.85,0,0,0,.84-.68A9,9,0,0,0,34.75,147.67Z"/><path d="M37.3,144.08h1.12v1.7H39v.89h-.61v5.17H37.3v-5.17h-.62v-.89h.62Z"/><path d="M39.83,141.89H41v4.59a1.42,1.42,0,0,1,1.24-.8,1.11,1.11,0,0,1,1.05.58,3.06,3.06,0,0,1,.18,1.27v4.31H42.3v-4.05a1.89,1.89,0,0,0-.15-.87.53.53,0,0,0-.5-.26.71.71,0,0,0-.33.07.51.51,0,0,0-.21.22,1.21,1.21,0,0,0-.12.39,3.87,3.87,0,0,0,0,.59v3.92H39.83Z"/><path d="M47,149.8h1q-.12,2.14-1.76,2.14a1.79,1.79,0,0,1-.83-.18,1.46,1.46,0,0,1-.58-.56,2.9,2.9,0,0,1-.34-1,7.78,7.78,0,0,1-.11-1.39,4.89,4.89,0,0,1,.45-2.38,1.49,1.49,0,0,1,1.39-.77q1.82,0,1.82,3.21V149H45.56q0,1.95.77,1.95T47,149.8ZM47,148.22a4.09,4.09,0,0,0-.22-1.25.51.51,0,0,0-.49-.33.5.5,0,0,0-.49.33,4.09,4.09,0,0,0-.22,1.25Z"/><path d="M49.11,145.78h1.12v.76a2.14,2.14,0,0,1,.57-.67,1.46,1.46,0,0,1,.74-.22v1.17l-.2,0a1.06,1.06,0,0,0-.86.31,1.71,1.71,0,0,0-.25,1.07v3.67H49.11Z"/><g class="cls-4"><path d="M543.67,18.74h-1.2v-.36a3.64,3.64,0,0,1,.45-2.09,1.76,1.76,0,0,1,1.51-.61q2,0,2,2.21a10.35,10.35,0,0,1-1.49,4.31l-.72,1.35,0,.07-.08.17h2.24v1h-4l.42-.88.86-1.79q.46-1,.77-1.67t.47-1.12a4.6,4.6,0,0,0,.32-1.52q0-1.12-.78-1.12t-.75,1.39v.61Z"/><path d="M548.69,18.22h-1.16V18a4.56,4.56,0,0,1,.1-1,1.83,1.83,0,0,1,.32-.71,1.29,1.29,0,0,1,.56-.41,2.25,2.25,0,0,1,.81-.13,1.76,1.76,0,0,1,1.45.56,2.83,2.83,0,0,1,.46,1.79,3.64,3.64,0,0,1-.21,1.45,1.37,1.37,0,0,1-.79.69,1.46,1.46,0,0,1,.87.67,3.25,3.25,0,0,1,.24,1.45,3.2,3.2,0,0,1-.52,2,1.93,1.93,0,0,1-1.61.64q-1.86,0-1.86-2.14v-.16a.34.34,0,0,1,0-.08h1.14q0,.1,0,.17s0,.09,0,.12a1.22,1.22,0,0,0,.2.74.65.65,0,0,0,.55.28.78.78,0,0,0,.39-.09.67.67,0,0,0,.26-.29,1.72,1.72,0,0,0,.15-.52,5.52,5.52,0,0,0,0-.78,2.17,2.17,0,0,0-.25-1.19.93.93,0,0,0-.83-.36h-.14l-.18,0V19.61h.17a1.21,1.21,0,0,0,1-.3,1.9,1.9,0,0,0,.25-1.15q0-1.41-.71-1.41t-.7,1.2Z"/><path d="M553.3,15.8h2.88v1h-2l-.29,2.27h.15a2.47,2.47,0,0,1,.95.17,1.8,1.8,0,0,1,.69.5,2.22,2.22,0,0,1,.43.81,3.76,3.76,0,0,1,.15,1.1,3.88,3.88,0,0,1-.66,2.4,2.19,2.19,0,0,1-1.84.86,3.32,3.32,0,0,1-1.44-.37l.3-1.08a2.39,2.39,0,0,0,1,.33,1.08,1.08,0,0,0,.95-.54,2.67,2.67,0,0,0,.35-1.46q0-1.74-1.49-1.74a2.6,2.6,0,0,0-.74.11Z"/><path d="M559.18,15.8h1.29l-.85,1.74q-.22.47-.45,1l-.47,1.14a1.6,1.6,0,0,1,1-.4,1.3,1.3,0,0,1,1.17.66,4.45,4.45,0,0,1,.39,2.2,4,4,0,0,1-.45,2.16,2,2,0,0,1-3-.07,4.57,4.57,0,0,1-.46-2.37,9.35,9.35,0,0,1,.36-2.62,13.77,13.77,0,0,1,.55-1.46Q558.63,16.93,559.18,15.8Zm.89,6.33a6.64,6.64,0,0,0,0-.8,1.9,1.9,0,0,0-.13-.54.7.7,0,0,0-.24-.3.68.68,0,0,0-.7,0,.7.7,0,0,0-.24.3,1.86,1.86,0,0,0-.13.54,6.58,6.58,0,0,0,0,.79q0,1.78.76,1.78T560.07,22.13Z"/><path d="M565,17.08h1.12v1.7h.61v.89h-.61v5.17H565V19.67h-.62v-.89H565Z"/><path d="M567.56,18.78h1.12v.76a2.14,2.14,0,0,1,.57-.67,1.46,1.46,0,0,1,.74-.22v1.17l-.2,0a1.06,1.06,0,0,0-.86.31,1.71,1.71,0,0,0-.25,1.07v3.67h-1.12Z"/><path d="M574.3,18.78v6.06h-1.12v-.78a1.94,1.94,0,0,1-.48.69,1,1,0,0,1-.63.19,1.16,1.16,0,0,1-1.11-.77,6.22,6.22,0,0,1-.35-2.43,5.71,5.71,0,0,1,.35-2.32,1.16,1.16,0,0,1,1.11-.74,1.26,1.26,0,0,1,1.11.79v-.69Zm-2.53,3a6,6,0,0,0,.16,1.67.59.59,0,0,0,.57.47q.38,0,.54-.49a5.7,5.7,0,0,0,.17-1.62,5.73,5.73,0,0,0-.17-1.63q-.17-.49-.54-.49a.6.6,0,0,0-.57.47A5.31,5.31,0,0,0,571.77,21.79Z"/><path d="M578,18.9V20a.7.7,0,0,0-.56-.29q-.93,0-.93,2t.92,2.13a1,1,0,0,0,.57-.23v1a1.92,1.92,0,0,1-.9.23q-1.8,0-1.8-3.07a5,5,0,0,1,.45-2.41,1.48,1.48,0,0,1,1.38-.78A1.92,1.92,0,0,1,578,18.9Z"/><path d="M578.93,14.89H580v6.59l1.42-2.7h1.27l-1.55,2.7,1.75,3.36h-1.31L580,21.62v3.22h-1.12Z"/><path d="M586.06,18.9v1a1.42,1.42,0,0,0-.86-.3.73.73,0,0,0-.51.2.66.66,0,0,0-.15.22.65.65,0,0,0-.06.27q0,.43.79,1a5.7,5.7,0,0,1,.53.46,2.09,2.09,0,0,1,.32.4,1.74,1.74,0,0,1,.23.93,1.8,1.8,0,0,1-.47,1.31,1.67,1.67,0,0,1-1.26.49,2,2,0,0,1-1-.29V23.57a1.56,1.56,0,0,0,.92.36.67.67,0,0,0,.77-.76.84.84,0,0,0-.14-.49,1.33,1.33,0,0,0-.21-.23l-.35-.3a4.56,4.56,0,0,1-1-.93,1.7,1.7,0,0,1-.25-.93,1.66,1.66,0,0,1,.45-1.2,1.6,1.6,0,0,1,1.19-.46A2.08,2.08,0,0,1,586.06,18.9Z"/></g><g class="cls-4"><path d="M105,47.3H107v9h-1.17v-8H105Z"/><path d="M111,47.3h1.13v5.64h.58v.93h-.58v2.48H111V53.87h-2.48v-1Zm0,5.64v-3.8l-1.52,3.8Z"/><path d="M114.95,50.24h-1.2v-.36a3.64,3.64,0,0,1,.45-2.09,1.76,1.76,0,0,1,1.51-.61q2,0,2,2.21a10.35,10.35,0,0,1-1.49,4.31l-.72,1.35,0,.07-.08.17h2.24v1h-4l.42-.88.86-1.79q.46-1,.77-1.67t.47-1.12a4.6,4.6,0,0,0,.32-1.52q0-1.12-.78-1.12t-.75,1.39v.61Z"/><path d="M121.4,48.58h1.12v1.7h.61v.89h-.61v5.17H121.4V51.17h-.62v-.89h.62Z"/><path d="M123.93,50.28H125V51a2.14,2.14,0,0,1,.57-.67,1.46,1.46,0,0,1,.74-.22v1.17l-.2,0a1.06,1.06,0,0,0-.86.31,1.71,1.71,0,0,0-.25,1.07v3.67h-1.12Z"/><path d="M130.67,50.28v6.06h-1.12v-.78a1.94,1.94,0,0,1-.48.69,1,1,0,0,1-.63.19,1.16,1.16,0,0,1-1.11-.77,6.22,6.22,0,0,1-.35-2.43,5.71,5.71,0,0,1,.35-2.32,1.16,1.16,0,0,1,1.11-.74,1.26,1.26,0,0,1,1.11.79v-.69Zm-2.53,3a6,6,0,0,0,.16,1.67.59.59,0,0,0,.57.47q.38,0,.54-.49a7.86,7.86,0,0,0,0-3.25q-.17-.49-.54-.49a.6.6,0,0,0-.57.47A5.31,5.31,0,0,0,128.14,53.29Z"/><path d="M134.42,50.4v1.14a.7.7,0,0,0-.56-.29q-.93,0-.93,2t.92,2.13a1,1,0,0,0,.57-.23v1a1.92,1.92,0,0,1-.9.23q-1.8,0-1.8-3.07a5,5,0,0,1,.45-2.41,1.48,1.48,0,0,1,1.38-.78A1.92,1.92,0,0,1,134.42,50.4Z"/><path d="M135.3,46.39h1.12V53l1.42-2.7h1.27L137.56,53l1.75,3.36H138l-1.58-3.22v3.22H135.3Z"/><path d="M142.43,50.4v1a1.42,1.42,0,0,0-.86-.3.73.73,0,0,0-.51.2.66.66,0,0,0-.15.22.65.65,0,0,0-.06.27q0,.43.79,1a5.7,5.7,0,0,1,.53.46,2.09,2.09,0,0,1,.32.4,1.74,1.74,0,0,1,.23.93,1.8,1.8,0,0,1-.47,1.31,1.67,1.67,0,0,1-1.26.49,2,2,0,0,1-1-.29V55.07a1.56,1.56,0,0,0,.92.36.67.67,0,0,0,.77-.76.84.84,0,0,0-.14-.49,1.33,1.33,0,0,0-.21-.23l-.35-.3a4.56,4.56,0,0,1-1-.93,1.7,1.7,0,0,1-.25-.93,1.66,1.66,0,0,1,.45-1.2,1.6,1.6,0,0,1,1.19-.46A2.08,2.08,0,0,1,142.43,50.4Z"/></g><g class="cls-4"><path d="M92.27,78.8h1.29l-.85,1.74q-.22.47-.45,1l-.47,1.14a1.6,1.6,0,0,1,1-.4,1.3,1.3,0,0,1,1.17.66,4.45,4.45,0,0,1,.39,2.2,4,4,0,0,1-.45,2.16,2,2,0,0,1-3-.07,4.57,4.57,0,0,1-.46-2.37,9.35,9.35,0,0,1,.36-2.62,13.77,13.77,0,0,1,.55-1.46Q91.72,79.93,92.27,78.8Zm.89,6.33a6.64,6.64,0,0,0,0-.8,1.89,1.89,0,0,0-.13-.54.7.7,0,0,0-.24-.3.68.68,0,0,0-.7,0,.7.7,0,0,0-.24.3,1.86,1.86,0,0,0-.13.54,6.58,6.58,0,0,0,0,.79q0,1.78.76,1.78T93.17,85.13Z"/><path d="M96.64,81.74h-1.2v-.36a3.64,3.64,0,0,1,.45-2.09,1.76,1.76,0,0,1,1.51-.61q2,0,2,2.21a10.35,10.35,0,0,1-1.49,4.31l-.72,1.35,0,.07-.08.17h2.24v1h-4l.42-.88.86-1.79q.46-1,.77-1.67t.47-1.12a4.6,4.6,0,0,0,.32-1.52q0-1.12-.78-1.12t-.75,1.39v.61Z"/><path d="M103.09,80.08h1.12v1.7h.61v.89h-.61v5.17h-1.12V82.67h-.62v-.89h.62Z"/><path d="M105.62,81.78h1.12v.76a2.14,2.14,0,0,1,.57-.67,1.46,1.46,0,0,1,.74-.22v1.17l-.2,0a1.06,1.06,0,0,0-.86.31,1.71,1.71,0,0,0-.25,1.07v3.67h-1.12Z"/><path d="M112.36,81.78v6.06h-1.12v-.78a1.94,1.94,0,0,1-.48.69,1,1,0,0,1-.63.19,1.16,1.16,0,0,1-1.11-.77,6.22,6.22,0,0,1-.35-2.43,5.71,5.71,0,0,1,.35-2.32,1.16,1.16,0,0,1,1.11-.74,1.26,1.26,0,0,1,1.11.79v-.69Zm-2.53,3a6,6,0,0,0,.16,1.67.59.59,0,0,0,.57.47q.38,0,.54-.49a7.86,7.86,0,0,0,0-3.25q-.17-.49-.54-.49a.6.6,0,0,0-.57.47A5.31,5.31,0,0,0,109.83,84.79Z"/><path d="M116.11,81.9V83a.7.7,0,0,0-.56-.29q-.93,0-.93,2t.92,2.13a1,1,0,0,0,.57-.23v1a1.92,1.92,0,0,1-.9.23q-1.8,0-1.8-3.07a5,5,0,0,1,.45-2.41,1.48,1.48,0,0,1,1.38-.78A1.92,1.92,0,0,1,116.11,81.9Z"/><path d="M117,77.89h1.12v6.59l1.42-2.7h1.27l-1.55,2.7L121,87.84h-1.31l-1.58-3.22v3.22H117Z"/><path d="M124.12,81.9v1a1.42,1.42,0,0,0-.86-.3.73.73,0,0,0-.51.2.66.66,0,0,0-.15.22.65.65,0,0,0-.06.27q0,.43.79,1a5.7,5.7,0,0,1,.53.46,2.09,2.09,0,0,1,.32.4,1.74,1.74,0,0,1,.23.93,1.8,1.8,0,0,1-.47,1.31,1.67,1.67,0,0,1-1.26.49,2,2,0,0,1-1-.29V86.57a1.56,1.56,0,0,0,.92.36.67.67,0,0,0,.77-.76.84.84,0,0,0-.14-.49,1.33,1.33,0,0,0-.21-.23l-.35-.3a4.56,4.56,0,0,1-1-.93,1.7,1.7,0,0,1-.25-.93,1.66,1.66,0,0,1,.45-1.2,1.6,1.6,0,0,1,1.19-.46A2.08,2.08,0,0,1,124.12,81.9Z"/></g><g class="cls-4"><path d="M88.36,110.88h2.88v1h-2L89,114.2h.15a2.47,2.47,0,0,1,.95.17,1.8,1.8,0,0,1,.69.5,2.22,2.22,0,0,1,.43.81,3.76,3.76,0,0,1,.15,1.1,3.88,3.88,0,0,1-.66,2.4,2.19,2.19,0,0,1-1.84.86,3.32,3.32,0,0,1-1.44-.37l.3-1.08a2.39,2.39,0,0,0,1,.33,1.08,1.08,0,0,0,.95-.54,2.67,2.67,0,0,0,.35-1.46q0-1.74-1.49-1.74a2.6,2.6,0,0,0-.74.11Z"/><path d="M92.27,110.88h4l-2.74,9h-1.3l2.51-8H92.27Z"/><path d="M99.91,112.16H101v1.7h.61v.89H101v5.17H99.91v-5.17h-.62v-.89h.62Z"/><path d="M102.44,113.86h1.12v.76a2.14,2.14,0,0,1,.57-.67,1.46,1.46,0,0,1,.74-.22v1.17l-.2,0a1.06,1.06,0,0,0-.86.31,1.71,1.71,0,0,0-.25,1.07v3.67h-1.12Z"/><path d="M109.18,113.86v6.06h-1.12v-.78a1.94,1.94,0,0,1-.48.69,1,1,0,0,1-.63.19,1.16,1.16,0,0,1-1.11-.77,6.22,6.22,0,0,1-.35-2.43,5.71,5.71,0,0,1,.35-2.32,1.16,1.16,0,0,1,1.11-.74,1.26,1.26,0,0,1,1.11.79v-.69Zm-2.53,3a6,6,0,0,0,.16,1.67.59.59,0,0,0,.57.47q.38,0,.54-.49a7.86,7.86,0,0,0,0-3.25q-.17-.49-.54-.49a.6.6,0,0,0-.57.47A5.31,5.31,0,0,0,106.65,116.87Z"/><path d="M112.93,114v1.14a.7.7,0,0,0-.56-.29q-.93,0-.93,2t.92,2.13a1,1,0,0,0,.57-.23v1a1.92,1.92,0,0,1-.9.23q-1.8,0-1.8-3.07a5,5,0,0,1,.45-2.41,1.48,1.48,0,0,1,1.38-.78A1.92,1.92,0,0,1,112.93,114Z"/><path d="M113.81,110h1.12v6.59l1.42-2.7h1.27l-1.55,2.7,1.75,3.36h-1.31l-1.58-3.22v3.22h-1.12Z"/><path d="M120.94,114v1a1.42,1.42,0,0,0-.86-.3.73.73,0,0,0-.51.2.66.66,0,0,0-.15.22.65.65,0,0,0-.06.27q0,.43.79,1a5.7,5.7,0,0,1,.53.46,2.09,2.09,0,0,1,.32.4,1.74,1.74,0,0,1,.23.93,1.8,1.8,0,0,1-.47,1.31,1.67,1.67,0,0,1-1.26.49,2,2,0,0,1-1-.29v-1.08a1.56,1.56,0,0,0,.92.36.67.67,0,0,0,.77-.76.84.84,0,0,0-.14-.49,1.33,1.33,0,0,0-.21-.23l-.35-.3a4.56,4.56,0,0,1-1-.93,1.7,1.7,0,0,1-.25-.93,1.66,1.66,0,0,1,.45-1.2,1.6,1.6,0,0,1,1.19-.46A2.08,2.08,0,0,1,120.94,114Z"/></g><g class="cls-4"><path d="M81.67,145.74h-1.2v-.36a3.64,3.64,0,0,1,.45-2.09,1.76,1.76,0,0,1,1.51-.61q2,0,2,2.21a10.35,10.35,0,0,1-1.49,4.31l-.72,1.35,0,.07-.08.17h2.24v1h-4l.42-.88.86-1.79q.46-1,.77-1.67t.47-1.12a4.6,4.6,0,0,0,.32-1.52q0-1.12-.78-1.12t-.75,1.39v.61Z"/><path d="M87.24,142.8h1.29l-.85,1.74q-.22.47-.45,1l-.47,1.14a1.6,1.6,0,0,1,1-.4,1.3,1.3,0,0,1,1.17.66,4.45,4.45,0,0,1,.39,2.2,4,4,0,0,1-.45,2.16,2,2,0,0,1-3-.07,4.57,4.57,0,0,1-.46-2.37,9.35,9.35,0,0,1,.36-2.62,13.77,13.77,0,0,1,.55-1.46Q86.69,143.93,87.24,142.8Zm.89,6.33a6.64,6.64,0,0,0,0-.8,1.9,1.9,0,0,0-.13-.54.7.7,0,0,0-.24-.3.68.68,0,0,0-.7,0,.7.7,0,0,0-.24.3,1.86,1.86,0,0,0-.13.54,6.58,6.58,0,0,0,0,.79q0,1.78.76,1.78T88.13,149.13Z"/><path d="M93.09,144.08h1.12v1.7h.61v.89h-.61v5.17H93.09v-5.17h-.62v-.89h.62Z"/><path d="M95.62,145.78h1.12v.76a2.14,2.14,0,0,1,.57-.67,1.46,1.46,0,0,1,.74-.22v1.17l-.2,0a1.06,1.06,0,0,0-.86.31,1.71,1.71,0,0,0-.25,1.07v3.67H95.62Z"/><path d="M102.36,145.78v6.06h-1.12v-.78a1.94,1.94,0,0,1-.48.69,1,1,0,0,1-.63.19,1.16,1.16,0,0,1-1.11-.77,6.22,6.22,0,0,1-.35-2.43,5.71,5.71,0,0,1,.35-2.32,1.16,1.16,0,0,1,1.11-.74,1.26,1.26,0,0,1,1.11.79v-.69Zm-2.53,3a6,6,0,0,0,.16,1.67.59.59,0,0,0,.57.47q.38,0,.54-.49a7.86,7.86,0,0,0,0-3.25q-.17-.49-.54-.49a.6.6,0,0,0-.57.47A5.31,5.31,0,0,0,99.83,148.79Z"/><path d="M106.11,145.9V147a.7.7,0,0,0-.56-.29q-.93,0-.93,2t.92,2.13a1,1,0,0,0,.57-.23v1a1.92,1.92,0,0,1-.9.23q-1.8,0-1.8-3.07a5,5,0,0,1,.45-2.41,1.48,1.48,0,0,1,1.38-.78A1.92,1.92,0,0,1,106.11,145.9Z"/><path d="M107,141.89h1.12v6.59l1.42-2.7h1.27l-1.55,2.7,1.75,3.36h-1.31l-1.58-3.22v3.22H107Z"/><path d="M114.12,145.9v1a1.42,1.42,0,0,0-.86-.3.73.73,0,0,0-.51.2.66.66,0,0,0-.15.22.65.65,0,0,0-.06.27q0,.43.79,1a5.7,5.7,0,0,1,.53.46,2.09,2.09,0,0,1,.32.4,1.74,1.74,0,0,1,.23.93,1.8,1.8,0,0,1-.47,1.31,1.67,1.67,0,0,1-1.26.49,2,2,0,0,1-1-.29v-1.08a1.56,1.56,0,0,0,.92.36.67.67,0,0,0,.77-.76.84.84,0,0,0-.14-.49,1.33,1.33,0,0,0-.21-.23l-.35-.3a4.56,4.56,0,0,1-1-.93,1.7,1.7,0,0,1-.25-.93,1.66,1.66,0,0,1,.45-1.2,1.6,1.6,0,0,1,1.19-.46A2.08,2.08,0,0,1,114.12,145.9Z"/></g></svg>