<svg id="Layer_2" data-name="Layer 2" xmlns="http://www.w3.org/2000/svg" viewBox="0 0 500 62"><defs><style>.cls-1{fill:#231f20;}</style></defs><title>who_sampled_years_TITLE</title><path class="cls-1" d="M17.2,15.11h3.87L22.86,21q.09.26.18.58t.21.69a42.23,42.23,0,0,1,1.37,5.38q.32-2.18.53-3l.56-2.43.21-.95,1.51-6.13h3.81L26.52,30.58V42.25H22.86V30.58Z"/><path class="cls-1" d="M38.91,36.11H42q-.37,6.42-5.27,6.42a5.36,5.36,0,0,1-2.5-.54,4.38,4.38,0,0,1-1.73-1.69,8.71,8.71,0,0,1-1-2.9,23.33,23.33,0,0,1-.33-4.18q0-4.82,1.34-7.14a4.48,4.48,0,0,1,4.16-2.32q5.47,0,5.47,9.63v.42H34.48q0,5.84,2.32,5.84Q38.91,39.65,38.91,36.11Zm-.18-4.73a12.27,12.27,0,0,0-.65-3.76,1.53,1.53,0,0,0-1.48-1,1.51,1.51,0,0,0-1.48,1,12.27,12.27,0,0,0-.65,3.76Z"/><path class="cls-1" d="M55.54,24.06V42.25H52.18V39.91A5.83,5.83,0,0,1,50.74,42a3,3,0,0,1-1.9.56,3.48,3.48,0,0,1-3.32-2.32,18.67,18.67,0,0,1-1.05-7.28,17.14,17.14,0,0,1,1.05-7,3.48,3.48,0,0,1,3.32-2.22,3.77,3.77,0,0,1,3.34,2.36V24.06Zm-7.59,9a18,18,0,0,0,.47,5,1.78,1.78,0,0,0,1.72,1.42q1.13,0,1.63-1.48a17.1,17.1,0,0,0,.51-4.87,17.19,17.19,0,0,0-.51-4.89q-.51-1.48-1.63-1.48a1.79,1.79,0,0,0-1.71,1.41A15.94,15.94,0,0,0,47.95,33.07Z"/><path class="cls-1" d="M59.36,24.06h3.36v2.27a6.42,6.42,0,0,1,1.71-2,4.38,4.38,0,0,1,2.23-.67v3.52a4.13,4.13,0,0,0-.6-.05,3.19,3.19,0,0,0-2.58.93,5.12,5.12,0,0,0-.76,3.2v11H59.36Z"/><path class="cls-1" d="M76.42,12.38h3.36V26.11A6.93,6.93,0,0,1,80.5,25a3.65,3.65,0,0,1,.72-.7,3,3,0,0,1,1.83-.53,3.66,3.66,0,0,1,2,.54A3.87,3.87,0,0,1,86.43,26a10.32,10.32,0,0,1,.8,2.87A28,28,0,0,1,87.5,33a18.6,18.6,0,0,1-1.05,7.27,3.47,3.47,0,0,1-3.3,2.31A3,3,0,0,1,81.22,42a5.83,5.83,0,0,1-1.44-2.06v2.34H76.42ZM84,33.25a16.81,16.81,0,0,0-.49-5,1.75,1.75,0,0,0-1.71-1.42q-1.16,0-1.63,1.44a17.54,17.54,0,0,0-.47,4.92,17.65,17.65,0,0,0,.47,4.92q.47,1.42,1.63,1.42a1.79,1.79,0,0,0,1.71-1.41A15.85,15.85,0,0,0,84,33.25Z"/><path class="cls-1" d="M90.63,24.06H94v2.27a6.42,6.42,0,0,1,1.71-2,4.38,4.38,0,0,1,2.23-.67v3.52a4.13,4.13,0,0,0-.6-.05,3.19,3.19,0,0,0-2.58.93,5.12,5.12,0,0,0-.76,3.2v11H90.63Z"/><path class="cls-1" d="M107.38,36.11h3.13q-.37,6.42-5.27,6.42a5.36,5.36,0,0,1-2.5-.54A4.38,4.38,0,0,1,101,40.3a8.71,8.71,0,0,1-1-2.9,23.33,23.33,0,0,1-.33-4.18q0-4.82,1.34-7.14a4.48,4.48,0,0,1,4.16-2.32q5.47,0,5.47,9.63v.42h-7.68q0,5.84,2.32,5.84Q107.38,39.65,107.38,36.11Zm-.18-4.73a12.27,12.27,0,0,0-.65-3.76,1.53,1.53,0,0,0-1.48-1,1.51,1.51,0,0,0-1.48,1,12.27,12.27,0,0,0-.65,3.76Z"/><path class="cls-1" d="M124,24.06V42.25h-3.36V39.91A5.83,5.83,0,0,1,119.21,42a3,3,0,0,1-1.9.56A3.48,3.48,0,0,1,114,40.21a18.67,18.67,0,0,1-1.05-7.28A17.14,17.14,0,0,1,114,26a3.48,3.48,0,0,1,3.32-2.22,3.77,3.77,0,0,1,3.34,2.36V24.06Zm-7.59,9a18,18,0,0,0,.47,5,1.78,1.78,0,0,0,1.72,1.42q1.13,0,1.63-1.48a17.1,17.1,0,0,0,.51-4.87,17.19,17.19,0,0,0-.51-4.89q-.51-1.48-1.63-1.48a1.79,1.79,0,0,0-1.71,1.41A15.94,15.94,0,0,0,116.41,33.07Z"/><path class="cls-1" d="M127.82,12.38h3.36V32.16l4.27-8.1h3.8l-4.64,8.1,5.26,10.09h-3.94l-4.75-9.67v9.67h-3.36Z"/><path class="cls-1" d="M152.29,12.38V42.25h-3.36V39.91A5.83,5.83,0,0,1,147.49,42a3,3,0,0,1-1.92.56,3.47,3.47,0,0,1-3.3-2.31A18.6,18.6,0,0,1,141.22,33a28,28,0,0,1,.26-4.13,10.32,10.32,0,0,1,.8-2.87,3.87,3.87,0,0,1,1.38-1.66,3.66,3.66,0,0,1,2-.54,3,3,0,0,1,1.83.53,3.65,3.65,0,0,1,.72.7,6.93,6.93,0,0,1,.72,1.13V12.38ZM144.7,33.07a18,18,0,0,0,.47,5,1.78,1.78,0,0,0,1.72,1.42q1.13,0,1.63-1.48a17.1,17.1,0,0,0,.51-4.87,17.19,17.19,0,0,0-.51-4.89q-.51-1.48-1.63-1.48a1.79,1.79,0,0,0-1.71,1.41A15.94,15.94,0,0,0,144.7,33.07Z"/><path class="cls-1" d="M166.85,33.3q0,9.23-5.71,9.23t-5.71-9.37q0-9.4,5.7-9.4a5.47,5.47,0,0,1,2.56.56,4.49,4.49,0,0,1,1.78,1.74,9.13,9.13,0,0,1,1,3A23.07,23.07,0,0,1,166.85,33.3Zm-3.48-.09a17.79,17.79,0,0,0-.47-5,1.75,1.75,0,0,0-1.69-1.42,1.79,1.79,0,0,0-1.71,1.41,17.34,17.34,0,0,0-.47,4.9A17.13,17.13,0,0,0,159.5,38a1.79,1.79,0,0,0,1.71,1.41A1.73,1.73,0,0,0,162.87,38,15.6,15.6,0,0,0,163.37,33.21Z"/><path class="cls-1" d="M168.09,24.06h3.55l1,5.85q.3,1.76.54,3.39t.38,3.18l.05.63.07-.67q.14-1.27.29-2.33t.33-2l.28-1.39,1.25-6.71h2.44l1.18,6.71.39,2.11q.12.6.23,1.49t.21,2.1l.07.65q.32-3.27.9-6.35l1.25-6.71h3.3l-4.27,18.19h-2.32l-1.39-6.94q-.25-1.27-.42-2.59t-.3-2.82q0-.18,0-.42t-.05-.58q-.11,1.6-.3,3.1t-.47,3l-1.41,7.26h-2.32Z"/><path class="cls-1" d="M188,24.06h3.36v2.09a4.27,4.27,0,0,1,3.73-2.39,3.32,3.32,0,0,1,3.16,1.74,9.17,9.17,0,0,1,.53,3.81V42.25h-3.36l0-12.16a5.66,5.66,0,0,0-.44-2.62,1.59,1.59,0,0,0-1.51-.77,2.13,2.13,0,0,0-1,.2,1.53,1.53,0,0,0-.64.65,3.62,3.62,0,0,0-.36,1.17,11.6,11.6,0,0,0-.11,1.78V42.25H188Z"/><path class="cls-1" d="M220.76,33.3q0,9.23-5.71,9.23t-5.71-9.37q0-9.4,5.7-9.4a5.47,5.47,0,0,1,2.56.56,4.49,4.49,0,0,1,1.78,1.74,9.13,9.13,0,0,1,1,3A23.07,23.07,0,0,1,220.76,33.3Zm-3.48-.09a17.79,17.79,0,0,0-.47-5,1.75,1.75,0,0,0-1.69-1.42,1.79,1.79,0,0,0-1.71,1.41,17.34,17.34,0,0,0-.47,4.9,17.13,17.13,0,0,0,.47,4.89,1.79,1.79,0,0,0,1.71,1.41A1.73,1.73,0,0,0,216.79,38,15.6,15.6,0,0,0,217.28,33.21Z"/><path class="cls-1" d="M222.6,24.06h1.69V17.71a7.86,7.86,0,0,1,.91-4.39A3.64,3.64,0,0,1,228.39,12a6.8,6.8,0,0,1,2.29.47v3.55a3.07,3.07,0,0,0-1.42-.44,1.39,1.39,0,0,0-1.22.51,3.09,3.09,0,0,0-.36,1.72l0,1.37v4.83h2.85v2.67h-2.85V42.25h-3.36V26.73H222.6Z"/><path class="cls-1" d="M240.57,19h3.36v5.1h1.83v2.67h-1.83V42.25h-3.36V26.73h-1.85V24.06h1.85Z"/><path class="cls-1" d="M248.16,12.38h3.36V26.15a4.27,4.27,0,0,1,3.73-2.39,3.32,3.32,0,0,1,3.16,1.74,9.17,9.17,0,0,1,.53,3.81V42.25h-3.36l0-12.16a5.66,5.66,0,0,0-.44-2.62,1.59,1.59,0,0,0-1.51-.77,2.13,2.13,0,0,0-1,.2,1.53,1.53,0,0,0-.64.65,3.62,3.62,0,0,0-.36,1.17,11.6,11.6,0,0,0-.11,1.78V42.25h-3.36Z"/><path class="cls-1" d="M269.77,36.11h3.13q-.37,6.42-5.27,6.42a5.36,5.36,0,0,1-2.5-.54,4.38,4.38,0,0,1-1.73-1.69,8.71,8.71,0,0,1-1-2.9,23.33,23.33,0,0,1-.33-4.18q0-4.82,1.34-7.14a4.48,4.48,0,0,1,4.16-2.32q5.47,0,5.47,9.63v.42h-7.68q0,5.84,2.32,5.84Q269.77,39.65,269.77,36.11Zm-.18-4.73a12.27,12.27,0,0,0-.65-3.76,1.53,1.53,0,0,0-1.48-1,1.51,1.51,0,0,0-1.48,1,12.27,12.27,0,0,0-.65,3.76Z"/><path class="cls-1" d="M287.52,15.11h2.85l5.82,27.14h-3.62l-1-5.29h-5.38l-1,5.29h-3.52Zm3.5,19-.81-4.32q-.81-4.41-1.32-9.42-.25,2.44-.63,4.95t-.91,5.32l-.67,3.48Z"/><path class="cls-1" d="M298.14,24.06h3.36v2.25a4.15,4.15,0,0,1,3.69-2.55,3.39,3.39,0,0,1,3.41,2.55,4.15,4.15,0,0,1,3.8-2.55,4,4,0,0,1,2.93,1,4,4,0,0,1,1,3v14.5H313v-12a6.52,6.52,0,0,0-.39-2.76,1.46,1.46,0,0,0-1.44-.72,1.76,1.76,0,0,0-1.65.74,6,6,0,0,0-.42,2.74v12h-3.48v-12a11.67,11.67,0,0,0-.1-1.63,3.09,3.09,0,0,0-.33-1.07,1.41,1.41,0,0,0-.6-.59,2,2,0,0,0-.91-.18,1.79,1.79,0,0,0-1.65.79,5.38,5.38,0,0,0-.49,2.69v12h-3.36Z"/><path class="cls-1" d="M327.16,36.11h3.13q-.37,6.42-5.27,6.42a5.36,5.36,0,0,1-2.5-.54,4.38,4.38,0,0,1-1.73-1.69,8.71,8.71,0,0,1-1-2.9,23.33,23.33,0,0,1-.33-4.18q0-4.82,1.34-7.14a4.48,4.48,0,0,1,4.16-2.32q5.47,0,5.47,9.63v.42h-7.68q0,5.84,2.32,5.84Q327.16,39.65,327.16,36.11ZM327,31.39a12.27,12.27,0,0,0-.65-3.76,1.53,1.53,0,0,0-1.48-1,1.51,1.51,0,0,0-1.48,1,12.27,12.27,0,0,0-.65,3.76Z"/><path class="cls-1" d="M333.4,24.06h3.36v2.09a4.27,4.27,0,0,1,3.73-2.39,3.32,3.32,0,0,1,3.16,1.74,9.17,9.17,0,0,1,.53,3.81V42.25h-3.36l0-12.16a5.66,5.66,0,0,0-.44-2.62,1.59,1.59,0,0,0-1.51-.77,2.13,2.13,0,0,0-1,.2,1.53,1.53,0,0,0-.64.65,3.62,3.62,0,0,0-.36,1.17,11.6,11.6,0,0,0-.11,1.78V42.25H333.4Z"/><path class="cls-1" d="M355.62,15.11h5q5.82,0,5.82,7.22a8.59,8.59,0,0,1-.76,4.1,4.73,4.73,0,0,1-2.67,2,5.84,5.84,0,0,1,3,2.25,8,8,0,0,1,.83,4.08q0,7.47-6.4,7.47h-4.78Zm3.45,12a3.7,3.7,0,0,0,3-1,6,6,0,0,0,.83-3.64q0-4.39-3.16-4.39h-.44l-.18,0Zm0,12.06a4,4,0,0,0,3.11-1,5.34,5.34,0,0,0,.86-3.5,5.64,5.64,0,0,0-.9-3.64A3.82,3.82,0,0,0,359.06,30Z"/><path class="cls-1" d="M370.24,24.06h3.36v2.27a6.42,6.42,0,0,1,1.71-2,4.38,4.38,0,0,1,2.23-.67v3.52a4.13,4.13,0,0,0-.6-.05,3.19,3.19,0,0,0-2.58.93,5.12,5.12,0,0,0-.76,3.2v11h-3.36Z"/><path class="cls-1" d="M387,36.11h3.13q-.37,6.42-5.27,6.42a5.36,5.36,0,0,1-2.5-.54,4.38,4.38,0,0,1-1.73-1.69,8.71,8.71,0,0,1-1-2.9,23.33,23.33,0,0,1-.33-4.18q0-4.82,1.34-7.14a4.48,4.48,0,0,1,4.16-2.32q5.47,0,5.47,9.63v.42h-7.68q0,5.84,2.32,5.84Q387,39.65,387,36.11Zm-.18-4.73a12.27,12.27,0,0,0-.65-3.76,1.53,1.53,0,0,0-1.48-1,1.51,1.51,0,0,0-1.48,1,12.27,12.27,0,0,0-.65,3.76Z"/><path class="cls-1" d="M403.62,24.06V42.25h-3.36V39.91A5.83,5.83,0,0,1,398.82,42a3,3,0,0,1-1.9.56,3.48,3.48,0,0,1-3.32-2.32,18.67,18.67,0,0,1-1.05-7.28,17.14,17.14,0,0,1,1.05-7,3.48,3.48,0,0,1,3.32-2.22,3.77,3.77,0,0,1,3.34,2.36V24.06Zm-7.59,9a18,18,0,0,0,.47,5,1.78,1.78,0,0,0,1.72,1.42q1.13,0,1.63-1.48a17.1,17.1,0,0,0,.51-4.87,17.19,17.19,0,0,0-.51-4.89q-.51-1.48-1.63-1.48a1.79,1.79,0,0,0-1.71,1.41A15.94,15.94,0,0,0,396,33.07Z"/><path class="cls-1" d="M407.44,12.38h3.36V32.16l4.27-8.1h3.8l-4.64,8.1,5.26,10.09h-3.94l-4.75-9.67v9.67h-3.36Z"/><path class="cls-1" d="M423.66,14.25l2.92.86-3.48,9.56-1.85-.53Z"/><path class="cls-1" d="M436.21,24.42v3.15a4.27,4.27,0,0,0-2.58-.91,2.19,2.19,0,0,0-1.52.59,2,2,0,0,0-.46.65,2,2,0,0,0-.17.8q0,1.3,2.36,3.09a17.11,17.11,0,0,1,1.58,1.37,6.27,6.27,0,0,1,1,1.2,5.23,5.23,0,0,1,.69,2.79,5.41,5.41,0,0,1-1.42,3.92,5,5,0,0,1-3.78,1.46,5.88,5.88,0,0,1-3-.86V38.42a4.69,4.69,0,0,0,2.76,1.09,2,2,0,0,0,2.3-2.27,2.52,2.52,0,0,0-.42-1.46,4,4,0,0,0-.62-.69q-.42-.4-1-.89A13.69,13.69,0,0,1,429,31.42a5.1,5.1,0,0,1-.74-2.79,5,5,0,0,1,1.35-3.6,4.79,4.79,0,0,1,3.57-1.39A6.23,6.23,0,0,1,436.21,24.42Z"/><path class="cls-1" d="M447.22,24.06h3.36V36.22a4.82,4.82,0,0,0,.5,2.41,1.71,1.71,0,0,0,1.56.72,1.84,1.84,0,0,0,1.6-.63,4.31,4.31,0,0,0,.46-2.32V24.06H458V34.94a14.93,14.93,0,0,1-.56,5.1q-1.18,2.5-4.89,2.5-2.92,0-4.15-1.48t-1.23-5Z"/><path class="cls-1" d="M468.87,24.42v3.15a4.27,4.27,0,0,0-2.58-.91,2.19,2.19,0,0,0-1.52.59,2,2,0,0,0-.46.65,2,2,0,0,0-.17.8q0,1.3,2.36,3.09a17.11,17.11,0,0,1,1.58,1.37,6.27,6.27,0,0,1,1,1.2,5.23,5.23,0,0,1,.69,2.79,5.41,5.41,0,0,1-1.42,3.92,5,5,0,0,1-3.78,1.46,5.88,5.88,0,0,1-3-.86V38.42a4.69,4.69,0,0,0,2.76,1.09,2,2,0,0,0,2.3-2.27,2.52,2.52,0,0,0-.42-1.46,4,4,0,0,0-.62-.69q-.42-.4-1-.89a13.69,13.69,0,0,1-2.88-2.78,5.1,5.1,0,0,1-.74-2.79A5,5,0,0,1,462.3,25a4.79,4.79,0,0,1,3.57-1.39A6.23,6.23,0,0,1,468.87,24.42Z"/><path class="cls-1" d="M479.46,36.11h3.13q-.37,6.42-5.27,6.42a5.36,5.36,0,0,1-2.5-.54,4.38,4.38,0,0,1-1.73-1.69,8.71,8.71,0,0,1-1-2.9,23.33,23.33,0,0,1-.33-4.18q0-4.82,1.34-7.14a4.48,4.48,0,0,1,4.16-2.32q5.47,0,5.47,9.63v.42H475q0,5.84,2.32,5.84Q479.46,39.65,479.46,36.11Zm-.18-4.73a12.27,12.27,0,0,0-.65-3.76,1.53,1.53,0,0,0-1.48-1,1.51,1.51,0,0,0-1.48,1,12.27,12.27,0,0,0-.65,3.76Z"/></svg>