<svg id="Layer_2" data-name="Layer 2" xmlns="http://www.w3.org/2000/svg" xmlns:xlink="http://www.w3.org/1999/xlink" viewBox="0 0 1850.97 711.82"><defs><style>.cls-1,.cls-21{fill:#ed017f;}.cls-11,.cls-12,.cls-13,.cls-14,.cls-16,.cls-17,.cls-19,.cls-2,.cls-3,.cls-5{fill:none;}.cls-14,.cls-16,.cls-2{stroke:#ed017f;}.cls-11,.cls-12,.cls-13,.cls-14,.cls-16,.cls-17,.cls-19,.cls-2,.cls-5{stroke-miterlimit:10;}.cls-4,.cls-53{fill:#00aeef;}.cls-11,.cls-5{stroke:#00aeef;}.cls-11,.cls-14,.cls-15,.cls-21,.cls-53,.cls-6{opacity:0.4;}.cls-6{font-size:33.23px;}.cls-129,.cls-22,.cls-6,.cls-63,.cls-65{fill:#231f20;}.cls-129,.cls-22,.cls-6,.cls-63{font-family:Futura-CondensedMedium, Futura;}.cls-7{letter-spacing:0em;}.cls-8{letter-spacing:0em;}.cls-9{letter-spacing:0.02em;}.cls-10{letter-spacing:0em;}.cls-12,.cls-13,.cls-17,.cls-19{stroke:#d3d2d2;}.cls-13{stroke-dasharray:5.04 5.04;}.cls-16{stroke-dasharray:1 5.01;}.cls-17{stroke-dasharray:4.97 4.97;}.cls-18{fill:#fff;}.cls-19{stroke-dasharray:5.05 5.05;}.cls-20{clip-path:url(#clip-path);}.cls-22{font-size:17px;}.cls-23{letter-spacing:-0.05em;}.cls-24{clip-path:url(#clip-path-2);}.cls-25{clip-path:url(#clip-path-3);}.cls-26{clip-path:url(#clip-path-4);}.cls-27{clip-path:url(#clip-path-5);}.cls-28{clip-path:url(#clip-path-6);}.cls-29{clip-path:url(#clip-path-7);}.cls-30{clip-path:url(#clip-path-8);}.cls-31{clip-path:url(#clip-path-9);}.cls-32{clip-path:url(#clip-path-10);}.cls-33{clip-path:url(#clip-path-11);}.cls-34{clip-path:url(#clip-path-12);}.cls-35{clip-path:url(#clip-path-13);}.cls-36{clip-path:url(#clip-path-14);}.cls-37{clip-path:url(#clip-path-15);}.cls-38{clip-path:url(#clip-path-16);}.cls-39{clip-path:url(#clip-path-17);}.cls-40{clip-path:url(#clip-path-18);}.cls-41{clip-path:url(#clip-path-19);}.cls-42{clip-path:url(#clip-path-20);}.cls-43{clip-path:url(#clip-path-21);}.cls-44{clip-path:url(#clip-path-22);}.cls-45{clip-path:url(#clip-path-23);}.cls-46{clip-path:url(#clip-path-24);}.cls-47{clip-path:url(#clip-path-25);}.cls-48{clip-path:url(#clip-path-26);}.cls-49{clip-path:url(#clip-path-27);}.cls-50{clip-path:url(#clip-path-28);}.cls-51{clip-path:url(#clip-path-29);}.cls-52{clip-path:url(#clip-path-30);}.cls-54{clip-path:url(#clip-path-31);}.cls-55{clip-path:url(#clip-path-32);}.cls-56{clip-path:url(#clip-path-33);}.cls-57{clip-path:url(#clip-path-34);}.cls-58{clip-path:url(#clip-path-35);}.cls-59{clip-path:url(#clip-path-36);}.cls-60{clip-path:url(#clip-path-37);}.cls-61{clip-path:url(#clip-path-38);}.cls-62{clip-path:url(#clip-path-39);}.cls-63{font-size:18px;}.cls-64{letter-spacing:0em;}.cls-65{font-size:13px;font-family:Futura-Bold, Futura;}.cls-66{font-weight:700;}.cls-67{letter-spacing:0em;}.cls-68{letter-spacing:-0.03em;}.cls-69{letter-spacing:0.02em;}.cls-70{letter-spacing:0.02em;}.cls-71{letter-spacing:0.05em;}.cls-72{font-family:Futura-Medium, Futura;}.cls-73{letter-spacing:-0.01em;}.cls-74{letter-spacing:0.03em;}.cls-75{clip-path:url(#clip-path-40);}.cls-76{clip-path:url(#clip-path-41);}.cls-77{clip-path:url(#clip-path-42);}.cls-78{clip-path:url(#clip-path-43);}.cls-79{clip-path:url(#clip-path-44);}.cls-80{clip-path:url(#clip-path-45);}.cls-81{clip-path:url(#clip-path-46);}.cls-82{letter-spacing:-0.03em;}.cls-83{letter-spacing:0.02em;}.cls-84{letter-spacing:0.03em;}.cls-85{letter-spacing:-0.06em;}.cls-86{letter-spacing:0.01em;}.cls-87{letter-spacing:0.01em;}.cls-88{letter-spacing:0.01em;}.cls-89{letter-spacing:0em;}.cls-90{letter-spacing:-0.02em;}.cls-91{letter-spacing:-0.03em;}.cls-92{letter-spacing:0.01em;}.cls-93{letter-spacing:-0.08em;}.cls-94{letter-spacing:0.03em;}.cls-95{letter-spacing:0.02em;}.cls-96{letter-spacing:0.01em;}.cls-97{letter-spacing:-0.08em;}.cls-98{letter-spacing:-0.08em;}.cls-99{letter-spacing:0.01em;}.cls-100{letter-spacing:-0.15em;}.cls-101{letter-spacing:0em;}.cls-102{letter-spacing:-0.06em;}.cls-103{letter-spacing:-0.04em;}.cls-104{letter-spacing:0.02em;}.cls-105{letter-spacing:0.01em;}.cls-106{letter-spacing:0.01em;}.cls-107{letter-spacing:0.01em;}.cls-108{letter-spacing:0.01em;}.cls-109{letter-spacing:0.01em;}.cls-110{letter-spacing:-0.05em;}.cls-111{letter-spacing:0.02em;}.cls-112{letter-spacing:0.01em;}.cls-113{letter-spacing:0em;}.cls-114{letter-spacing:-0.03em;}.cls-115{letter-spacing:0.01em;}.cls-116{letter-spacing:-0.03em;}.cls-117{letter-spacing:0.01em;}.cls-118{letter-spacing:0.01em;}.cls-119{letter-spacing:0.02em;}.cls-120{letter-spacing:-0.01em;}.cls-121{letter-spacing:0.01em;}.cls-122{letter-spacing:0em;}.cls-123{letter-spacing:-0.01em;}.cls-124{letter-spacing:-0.02em;}.cls-125{letter-spacing:-0.02em;}.cls-126{letter-spacing:-0.04em;}.cls-127{letter-spacing:-0.06em;}.cls-128{letter-spacing:0.02em;}.cls-129{font-size:56.58px;}.cls-130{letter-spacing:0em;}.cls-131{letter-spacing:0em;}.cls-132{letter-spacing:0.01em;}.cls-133{letter-spacing:0em;}.cls-134{letter-spacing:0.01em;}.cls-135{letter-spacing:0em;}.cls-136{letter-spacing:0.02em;}.cls-137{letter-spacing:0em;}</style><clipPath id="clip-path"><circle class="cls-1" cx="1537.94" cy="399.99" r="21.26"/></clipPath><clipPath id="clip-path-2"><circle class="cls-2" cx="562.77" cy="409.31" r="21.26"/></clipPath><clipPath id="clip-path-3"><circle class="cls-2" cx="562.77" cy="366.31" r="21.26"/></clipPath><clipPath id="clip-path-4"><circle class="cls-2" cx="562.77" cy="582.41" r="21.26"/></clipPath><clipPath id="clip-path-5"><circle class="cls-2" cx="562.77" cy="452.54" r="21.26"/></clipPath><clipPath id="clip-path-6"><circle class="cls-2" cx="562.77" cy="322.8" r="21.26"/></clipPath><clipPath id="clip-path-7"><circle class="cls-2" cx="562.77" cy="279.71" r="21.26"/></clipPath><clipPath id="clip-path-8"><circle class="cls-2" cx="562.77" cy="496.06" r="21.26"/></clipPath><clipPath id="clip-path-9"><circle class="cls-2" cx="562.77" cy="539.58" r="21.26"/></clipPath><clipPath id="clip-path-10"><circle class="cls-3" cx="562.77" cy="236.37" r="21.26"/></clipPath><clipPath id="clip-path-11"><circle class="cls-2" cx="605.84" cy="322.76" r="21.26"/></clipPath><clipPath id="clip-path-12"><circle class="cls-3" cx="605.84" cy="365.28" r="21.26"/></clipPath><clipPath id="clip-path-13"><circle class="cls-2" cx="605.84" cy="407.8" r="21.26" transform="translate(-2.82 4.22) rotate(-0.4)"/></clipPath><clipPath id="clip-path-14"><circle class="cls-2" cx="605.84" cy="450.32" r="21.26"/></clipPath><clipPath id="clip-path-15"><circle class="cls-2" cx="605.84" cy="492.84" r="21.26"/></clipPath><clipPath id="clip-path-16"><circle class="cls-2" cx="643.59" cy="386.51" r="21.26"/></clipPath><clipPath id="clip-path-17"><circle class="cls-2" cx="643.59" cy="429.57" r="21.26"/></clipPath><clipPath id="clip-path-18"><circle class="cls-2" cx="700.11" cy="386.51" r="21.26"/></clipPath><clipPath id="clip-path-19"><circle class="cls-3" cx="700.11" cy="429.57" r="21.26"/></clipPath><clipPath id="clip-path-20"><circle class="cls-2" cx="757.35" cy="409.02" r="21.26"/></clipPath><clipPath id="clip-path-21"><circle class="cls-1" cx="821.36" cy="407.77" r="21.26"/></clipPath><clipPath id="clip-path-22"><circle class="cls-2" cx="869.74" cy="430.28" r="21.26"/></clipPath><clipPath id="clip-path-23"><circle class="cls-2" cx="869.74" cy="386.51" r="21.26"/></clipPath><clipPath id="clip-path-24"><circle class="cls-3" cx="906.98" cy="409.02" r="21.26"/></clipPath><clipPath id="clip-path-25"><circle class="cls-3" cx="957.14" cy="409.02" r="21.26"/></clipPath><clipPath id="clip-path-26"><circle class="cls-3" cx="1001.02" cy="409.02" r="21.26"/></clipPath><clipPath id="clip-path-27"><circle class="cls-3" cx="1084.09" cy="409.02" r="21.26"/></clipPath><clipPath id="clip-path-28"><circle class="cls-1" cx="1153.06" cy="410.31" r="21.26"/></clipPath><clipPath id="clip-path-29"><circle class="cls-1" cx="1688.51" cy="399.99" r="21.26"/></clipPath><clipPath id="clip-path-30"><circle class="cls-3" cx="315.66" cy="258.45" r="21.26"/></clipPath><clipPath id="clip-path-31"><circle class="cls-4" cx="278.08" cy="582.41" r="21.26"/></clipPath><clipPath id="clip-path-32"><circle class="cls-3" cx="278.08" cy="496.06" r="21.26"/></clipPath><clipPath id="clip-path-33"><circle class="cls-3" cx="278.08" cy="539.58" r="21.26"/></clipPath><clipPath id="clip-path-34"><circle class="cls-3" cx="278.08" cy="322.8" r="21.26"/></clipPath><clipPath id="clip-path-35"><circle class="cls-3" cx="278.08" cy="236.37" r="21.26"/></clipPath><clipPath id="clip-path-36"><circle class="cls-4" cx="278.08" cy="409.31" r="21.26" transform="translate(-5.49 3.79) rotate(-0.77)"/></clipPath><clipPath id="clip-path-37"><circle class="cls-3" cx="278.08" cy="366.31" r="21.26"/></clipPath><clipPath id="clip-path-38"><circle class="cls-3" cx="278.08" cy="452.54" r="21.26"/></clipPath><clipPath id="clip-path-39"><circle class="cls-3" cx="278.08" cy="279.71" r="21.26"/></clipPath><clipPath id="clip-path-40"><circle class="cls-5" cx="315.66" cy="517.1" r="21.26"/></clipPath><clipPath id="clip-path-41"><circle class="cls-5" cx="315.66" cy="344.64" r="21.26"/></clipPath><clipPath id="clip-path-42"><circle class="cls-5" cx="315.66" cy="559.84" r="21.26"/></clipPath><clipPath id="clip-path-43"><circle class="cls-5" cx="315.66" cy="430.57" r="21.26"/></clipPath><clipPath id="clip-path-44"><circle class="cls-5" cx="315.66" cy="473.58" r="21.26"/></clipPath><clipPath id="clip-path-45"><circle class="cls-5" cx="315.66" cy="388.05" r="21.26"/></clipPath><clipPath id="clip-path-46"><circle class="cls-3" cx="315.66" cy="301.12" r="21.26"/></clipPath></defs><title>who_sampled_graph_ZOOM</title><text class="cls-6" transform="translate(409.17 393.19)">Other<tspan x="-24.09" y="39.88">Elect</tspan><tspan class="cls-7" x="23.73" y="39.88">r</tspan><tspan class="cls-8" x="32.7" y="39.88">onic </tspan><tspan x="-35.77" y="79.75">Music A</tspan><tspan class="cls-9" x="42.97" y="79.75">r</tspan><tspan x="52.55" y="79.75">ti</tspan><tspan class="cls-10" x="66.53" y="79.75">s</tspan><tspan x="76.46" y="79.75">ts</tspan></text><line class="cls-11" x1="334.05" y1="301.12" x2="383.37" y2="301.12"/><line class="cls-11" x1="331.92" y1="258.45" x2="381.24" y2="258.45"/><line class="cls-12" x1="254.47" y1="616.38" x2="254.47" y2="613.88"/><line class="cls-13" x1="254.47" y1="608.84" x2="254.47" y2="198.42"/><line class="cls-12" x1="254.47" y1="195.9" x2="254.47" y2="193.4"/><line class="cls-11" x1="212.16" y1="279.71" x2="261.48" y2="279.71"/><line class="cls-11" x1="208.74" y1="322.8" x2="258.06" y2="322.8"/><line class="cls-11" x1="208.74" y1="366.31" x2="258.06" y2="366.31"/><line class="cls-11" x1="208.74" y1="409.31" x2="258.06" y2="409.31"/><line class="cls-11" x1="208.74" y1="452.54" x2="258.06" y2="452.54"/><line class="cls-11" x1="210.44" y1="496.06" x2="259.76" y2="496.06"/><line class="cls-11" x1="208.74" y1="539.58" x2="258.06" y2="539.58"/><line class="cls-11" x1="208.2" y1="582.41" x2="257.53" y2="582.41"/><line class="cls-14" x1="1688.51" y1="458.53" x2="1688.51" y2="421.36"/><line class="cls-14" x1="1537.94" y1="421.25" x2="1537.94" y2="458.42"/><line class="cls-14" x1="1153.06" y1="351.88" x2="1153.06" y2="389.05"/><line class="cls-14" x1="1084.09" y1="430.28" x2="1084.09" y2="467.45"/><line class="cls-14" x1="1000.13" y1="350.88" x2="1000.13" y2="388.05"/><line class="cls-14" x1="957.14" y1="294.86" x2="957.14" y2="388.49"/><line class="cls-14" x1="908.8" y1="430.28" x2="908.8" y2="517.32"/><line class="cls-14" x1="821.36" y1="349.03" x2="821.36" y2="386.2"/><line class="cls-14" x1="700.11" y1="450.54" x2="700.11" y2="537.58"/><line class="cls-14" x1="667.45" y1="315.28" x2="623.89" y2="354.45"/><line class="cls-14" x1="620.41" y1="236.37" x2="583.24" y2="236.37"/><g class="cls-15"><circle class="cls-16" cx="438.09" cy="423.25" r="91.86"/></g><line class="cls-12" x1="869.74" y1="616.38" x2="869.74" y2="613.88"/><line class="cls-17" x1="869.74" y1="608.91" x2="869.74" y2="204.15"/><line class="cls-12" x1="869.74" y1="201.67" x2="869.74" y2="199.17"/><line class="cls-12" x1="1177.74" y1="616.38" x2="1177.74" y2="613.88"/><line class="cls-17" x1="1177.74" y1="608.91" x2="1177.74" y2="204.15"/><line class="cls-12" x1="1177.74" y1="201.67" x2="1177.74" y2="199.17"/><rect class="cls-18" x="1141.8" y="311.21" width="145.47" height="40.67"/><line class="cls-12" x1="1513.38" y1="616.38" x2="1513.38" y2="613.88"/><line class="cls-19" x1="1513.38" y1="608.83" x2="1513.38" y2="217.14"/><line class="cls-12" x1="1513.38" y1="214.61" x2="1513.38" y2="212.11"/><rect class="cls-18" x="1479.54" y="458.42" width="116.8" height="41.52"/><circle class="cls-1" cx="1537.94" cy="399.99" r="21.26"/><g class="cls-20"><image width="200" height="200" transform="translate(1503.35 378.51) scale(0.42)" xlink:href="../../../images_who_sampled/Amen_Andrews.jpg"/><rect class="cls-21" x="1514.5" y="370.27" width="57.98" height="60.23"/></g><text class="cls-22" transform="translate(556.17 660.11)"><tspan class="cls-23">1</tspan><tspan x="6.18" y="0">0</tspan></text><text class="cls-22" transform="translate(862.71 654.65)">20</text><text class="cls-22" transform="translate(250.95 654.65)">0</text><text class="cls-22" transform="translate(1170.71 654.65)">30</text><text class="cls-22" transform="translate(1506.34 654.65)">40</text><line class="cls-12" x1="562.77" y1="616.38" x2="562.77" y2="613.88"/><line class="cls-17" x1="562.77" y1="608.91" x2="562.77" y2="204.15"/><line class="cls-12" x1="562.77" y1="201.67" x2="562.77" y2="199.17"/><g class="cls-24"><image width="200" height="200" transform="translate(540.38 388.05) scale(0.24)" xlink:href="../../../images_who_sampled/FFF.jpg"/></g><circle class="cls-2" cx="562.77" cy="409.31" r="21.26"/><g class="cls-25"><image width="200" height="200" transform="translate(533.46 345.05) scale(0.25)" xlink:href="../../../images_who_sampled/naughty_naughty.jpg"/></g><circle class="cls-2" cx="562.77" cy="366.31" r="21.26"/><g class="cls-26"><image width="200" height="200" transform="translate(536.85 560.41) scale(0.25)" xlink:href="../../../images_who_sampled/seba.jpg"/></g><circle class="cls-2" cx="562.77" cy="582.41" r="21.26"/><g class="cls-27"><image width="200" height="200" transform="translate(530 431.28) scale(0.35)" xlink:href="../../../images_who_sampled/dj_seduction.jpg"/></g><circle class="cls-2" cx="562.77" cy="452.54" r="21.26"/><g class="cls-28"><image width="200" height="200" transform="translate(521.97 300.2) scale(0.31)" xlink:href="../../../images_who_sampled/dub_one.jpg"/></g><circle class="cls-2" cx="562.77" cy="322.8" r="21.26"/><g class="cls-29"><image width="200" height="200" transform="translate(541.51 258.45) scale(0.29)" xlink:href="../../../images_who_sampled/dj_ink.jpg"/></g><circle class="cls-2" cx="562.77" cy="279.71" r="21.26"/><g class="cls-30"><image width="200" height="200" transform="translate(541.51 474.8) scale(0.24)" xlink:href="../../../images_who_sampled/shitmat.jpg"/></g><circle class="cls-2" cx="562.77" cy="496.06" r="21.26"/><g class="cls-31"><image width="200" height="200" transform="translate(538.9 518.32) scale(0.28)" xlink:href="../../../images_who_sampled/loxy.jpg"/></g><circle class="cls-2" cx="562.77" cy="539.58" r="21.26"/><g class="cls-32"><image width="200" height="200" transform="translate(541.51 215.11) scale(0.21)" xlink:href="../../../images_who_sampled/ed_rush.jpg"/><rect class="cls-21" x="514" y="192.34" width="77.34" height="68.34"/></g><g class="cls-33"><image width="200" height="200" transform="translate(573.44 301.5) scale(0.29)" xlink:href="../../../images_who_sampled/bizzy_b.jpg"/></g><circle class="cls-2" cx="605.84" cy="322.76" r="21.26"/><g class="cls-34"><image width="200" height="200" transform="translate(584.58 344.02) scale(0.21)" xlink:href="../../../images_who_sampled/digital.jpg"/><rect class="cls-21" x="572.02" y="334.86" width="64.76" height="64.76"/></g><g class="cls-35"><image width="200" height="200" transform="translate(580.96 386.71) rotate(-0.4) scale(0.26)" xlink:href="../../../images_who_sampled/renard.jpg"/></g><circle class="cls-2" cx="605.84" cy="407.8" r="21.26" transform="translate(-2.82 4.22) rotate(-0.4)"/><g class="cls-36"><image width="200" height="200" transform="translate(584.58 427.82) scale(0.22)" xlink:href="../../../images_who_sampled/resonant_evil.jpg"/></g><circle class="cls-2" cx="605.84" cy="450.32" r="21.26"/><g class="cls-37"><image width="200" height="200" transform="translate(584.58 471.58) scale(0.21)" xlink:href="../../../images_who_sampled/Sky_Joose.jpg"/></g><circle class="cls-2" cx="605.84" cy="492.84" r="21.26"/><g class="cls-38"><image width="200" height="200" transform="translate(622.33 365.25) scale(0.21)" xlink:href="../../../images_who_sampled/dylan.jpg"/></g><circle class="cls-2" cx="643.59" cy="386.51" r="21.26"/><g class="cls-39"><image width="200" height="200" transform="translate(615 408.31) scale(0.31)" xlink:href="../../../images_who_sampled/breakage.jpg"/></g><circle class="cls-2" cx="643.59" cy="429.57" r="21.26"/><g class="cls-40"><image width="200" height="200" transform="translate(661.37 365.25) scale(0.36)" xlink:href="../../../images_who_sampled/remarc.jpg"/></g><circle class="cls-2" cx="700.11" cy="386.51" r="21.26"/><g class="cls-41"><image width="200" height="200" transform="translate(678.85 408.31) scale(0.21)" xlink:href="../../../images_who_sampled/Enduser.jpg"/><rect class="cls-21" x="664.85" y="396.45" width="63.84" height="71"/></g><g class="cls-42"><image width="200" height="200" transform="translate(712.97 376.76) scale(0.33)" xlink:href="../../../images_who_sampled/Equinox.jpg"/></g><circle class="cls-2" cx="757.35" cy="409.02" r="21.26"/><circle class="cls-1" cx="821.36" cy="407.77" r="21.26"/><g class="cls-43"><image width="200" height="200" transform="translate(800.1 386.51) scale(0.21)" xlink:href="../../../images_who_sampled/nebula.jpg"/><rect class="cls-21" x="796.04" y="379.79" width="51.17" height="69"/></g><g class="cls-44"><image width="200" height="200" transform="translate(825.44 409.02) scale(0.33)" xlink:href="../../../images_who_sampled/dom_roland.jpg"/></g><circle class="cls-2" cx="869.74" cy="430.28" r="21.26"/><g class="cls-45"><image width="200" height="200" transform="translate(848.48 365.25) scale(0.28)" xlink:href="../../../images_who_sampled/Kryptic_Minds_Leon_Switch.jpg"/></g><circle class="cls-2" cx="869.74" cy="386.51" r="21.26"/><g class="cls-46"><image width="200" height="200" transform="translate(877.38 387.76) scale(0.25)" xlink:href="../../../images_who_sampled/Squarepusher.jpg"/><rect class="cls-21" x="872.77" y="370.46" width="60.43" height="78.4"/></g><g class="cls-47"><image width="200" height="200" transform="translate(935.88 380.76) scale(0.3)" xlink:href="../../../images_who_sampled/spl.jpg"/><rect class="cls-21" x="935.88" y="376.93" width="56.99" height="74.61"/></g><g class="cls-48"><image width="200" height="200" transform="translate(979.76 387.76) scale(0.21)" xlink:href="../../../images_who_sampled/Kid_Lib.jpg"/><rect class="cls-21" x="970.4" y="370.46" width="71.14" height="84.05"/></g><g class="cls-49"><image width="200" height="200" transform="translate(1062.83 387.76) scale(0.21)" xlink:href="../../../images_who_sampled/Limewax.jpg"/><ellipse class="cls-21" cx="1085.46" cy="412.42" rx="28.6" ry="33.69"/></g><circle class="cls-1" cx="1153.06" cy="410.31" r="21.26"/><g class="cls-50"><image width="200" height="200" transform="translate(1117.08 389.05) scale(0.37)" xlink:href="../../../images_who_sampled/Venetian_Snares.jpg"/><rect class="cls-21" x="1122.54" y="374.42" width="81.14" height="93.03"/></g><circle class="cls-1" cx="1688.51" cy="399.99" r="21.26"/><g class="cls-51"><image width="200" height="200" transform="translate(1657.12 373.27) scale(0.41)" xlink:href="../../../images_who_sampled/Technical_Itch.jpg"/><rect class="cls-21" x="1664.18" y="373.36" width="51.58" height="54.76"/></g><g class="cls-52"><image width="200" height="200" transform="translate(267.01 226.83) scale(0.47)" xlink:href="../../../hiphop/2/3rd_Bass.jpg"/><rect class="cls-53" x="266.17" y="227.94" width="94.03" height="65.43"/></g><circle class="cls-4" cx="278.08" cy="582.41" r="21.26"/><g class="cls-54"><image width="200" height="200" transform="translate(233.55 529.66) scale(0.49)" xlink:href="../../../hiphop/brand_nubian.jpg"/><rect class="cls-53" x="237.21" y="549.12" width="96.32" height="75.33"/></g><g class="cls-55"><image width="200" height="200" transform="translate(237.34 474.8) scale(0.38)" xlink:href="../../../hiphop/dj_shadow.jpg"/><rect class="cls-53" x="242.97" y="465.97" width="93.95" height="87.26"/></g><g class="cls-56"><image width="200" height="200" transform="translate(207.08 503.8) scale(0.47)" xlink:href="../../../hiphop/ericb_rakim.jpg"/><rect class="cls-53" x="234.74" y="506.11" width="130.53" height="82.52"/></g><g class="cls-57"><image width="200" height="200" transform="translate(213.81 279.98) scale(0.43)" xlink:href="../../../hiphop/Mantronix.jpg"/><rect class="cls-53" x="241.57" y="292.76" width="98.04" height="65.98"/></g><g class="cls-58"><image width="200" height="200" transform="translate(224.09 191.45) scale(0.59)" xlink:href="../../../hiphop/NWA.jpg"/><rect class="cls-53" x="256.82" y="203.08" width="51.74" height="58.93"/></g><circle class="cls-4" cx="278.08" cy="409.31" r="21.26" transform="translate(-5.49 3.79) rotate(-0.77)"/><g class="cls-59"><image width="200" height="200" transform="translate(255.77 385.2) rotate(-0.77) scale(0.39)" xlink:href="../../../hiphop/salt_n_pepa.jpg"/><rect class="cls-53" x="247.39" y="387.48" width="67.72" height="43.08"/></g><g class="cls-60"><image width="200" height="200" transform="translate(257 344.3) scale(0.22)" xlink:href="../../../hiphop/snow.jpg"/><rect class="cls-53" x="233.63" y="328.25" width="74.02" height="64.91"/></g><g class="cls-61"><image width="200" height="200" transform="translate(205.29 407.49) scale(0.5)" xlink:href="../../../hiphop/Stetsasonic.jpg"/><rect class="cls-53" x="236.59" y="424.63" width="123.86" height="85.89"/></g><g class="cls-62"><image width="200" height="200" transform="translate(231.38 249.44) scale(0.34)" xlink:href="../../../hiphop/tyler_the_creator.jpg"/><rect class="cls-53" x="245.77" y="255.12" width="65.91" height="49.98"/></g><circle class="cls-1" cx="1703.11" cy="249.74" r="7.46"/><circle class="cls-4" cx="1703.11" cy="222.57" r="7.46"/><text class="cls-63" transform="translate(1719.45 227.94)">Hip-Hop</text><text class="cls-63" transform="translate(1719.45 255.12)">Elect<tspan class="cls-64" x="25.9" y="0">r</tspan><tspan x="30.76" y="0">onic</tspan></text><text class="cls-65" transform="translate(1462.9 475.07)"><tspan class="cls-66"><tspan class="cls-67">L</tspan><tspan x="6.93" y="0">u</tspan><tspan class="cls-68" x="15.63" y="0">k</tspan><tspan x="24.3" y="0">e </tspan><tspan class="cls-69" x="37.13" y="0">V</tspan><tspan x="47.63" y="0">ibe</tspan><tspan class="cls-70" x="69.12" y="0">r</tspan><tspan class="cls-71" x="75.42" y="0">t</tspan><tspan x="80.87" y="0">:</tspan></tspan><tspan class="cls-72"><tspan x="0" y="15.6">41 t</tspan><tspan class="cls-73" x="23.61" y="15.6">r</tspan><tspan x="28.39" y="15.6">a</tspan><tspan class="cls-74" x="36.18" y="15.6">c</tspan><tspan x="42.71" y="15.6">ks</tspan></tspan></text><g class="cls-75"><image width="200" height="200" transform="translate(267.94 485.81) scale(0.48 0.48)" xlink:href="../../../hiphop/2/boora.jpg"/></g><circle class="cls-5" cx="315.66" cy="517.1" r="21.26"/><g class="cls-76"><image width="200" height="200" transform="translate(294.4 323.38) scale(0.21 0.21)" xlink:href="../../../hiphop/2/dolphin.jpg"/></g><circle class="cls-5" cx="315.66" cy="344.64" r="21.26"/><g class="cls-77"><image width="600" height="449" transform="translate(294.4 535.05) scale(0.17)" xlink:href="../../../hiphop/2/dominant_force.jpg"/></g><circle class="cls-5" cx="315.66" cy="559.84" r="21.26"/><g class="cls-78"><image width="200" height="200" transform="translate(294.63 406.52) scale(0.24)" xlink:href="../../../hiphop/2/godfather_don.jpg"/></g><circle class="cls-5" cx="315.66" cy="430.57" r="21.26"/><g class="cls-79"><image width="200" height="200" transform="translate(293.3 450.59) scale(0.23 0.23)" xlink:href="../../../hiphop/2/jack_frost.jpg"/></g><circle class="cls-5" cx="315.66" cy="473.58" r="21.26"/><g class="cls-80"><image width="200" height="200" transform="translate(272.07 366.62) scale(0.32)" xlink:href="../../../hiphop/2/Supreme_NTM.jpg"/></g><circle class="cls-5" cx="315.66" cy="388.05" r="21.26"/><g class="cls-81"><image width="200" height="200" transform="translate(262.14 267.16) scale(0.43)" xlink:href="../../../hiphop/2/Ultramagnetic_MC&apos;s.jpg"/><rect class="cls-53" x="273.93" y="269.16" width="90" height="78.22"/></g><text class="cls-65" transform="translate(1677.25 473.07)"><tspan class="cls-66"><tspan class="cls-82">T</tspan><tspan x="6.5" y="0">e</tspan><tspan class="cls-83" x="14.91" y="0">c</tspan><tspan x="21.61" y="0">hnical It</tspan><tspan class="cls-84" x="76.15" y="0">c</tspan><tspan x="82.85" y="0">h:</tspan></tspan><tspan class="cls-72"><tspan x="0" y="15.6">45 t</tspan><tspan class="cls-73" x="23.61" y="15.6">r</tspan><tspan x="28.39" y="15.6">a</tspan><tspan class="cls-74" x="36.18" y="15.6">c</tspan><tspan x="42.71" y="15.6">ks</tspan></tspan></text><text class="cls-65" transform="translate(1147.93 330.25)"><tspan class="cls-66"><tspan class="cls-85">V</tspan><tspan x="9.5" y="0">en</tspan><tspan class="cls-86" x="26.55" y="0">e</tspan><tspan class="cls-87" x="35.05" y="0">t</tspan><tspan x="40.08" y="0">ian Sna</tspan><tspan class="cls-88" x="92.35" y="0">r</tspan><tspan class="cls-89" x="98.49" y="0">es:</tspan></tspan><tspan class="cls-72"><tspan x="0" y="15.6">29 t</tspan><tspan class="cls-73" x="23.61" y="15.6">r</tspan><tspan x="28.39" y="15.6">a</tspan><tspan class="cls-74" x="36.18" y="15.6">c</tspan><tspan x="42.71" y="15.6">ks</tspan></tspan></text><text class="cls-65" transform="translate(1076.64 483.18)"><tspan class="cls-66">Lim<tspan class="cls-90" x="23.78" y="0">e</tspan><tspan class="cls-91" x="31.88" y="0">w</tspan><tspan class="cls-89" x="44.88" y="0">ax:</tspan></tspan><tspan class="cls-72"><tspan x="0" y="15.6">26 t</tspan><tspan class="cls-73" x="23.61" y="15.6">r</tspan><tspan x="28.39" y="15.6">a</tspan><tspan class="cls-74" x="36.18" y="15.6">c</tspan><tspan x="42.71" y="15.6">ks</tspan></tspan></text><text class="cls-65" transform="translate(809.44 328.25)"><tspan class="cls-66"><tspan class="cls-92">N</tspan><tspan x="12" y="0">ebula:</tspan></tspan><tspan class="cls-72"><tspan class="cls-93" x="0" y="15.6">1</tspan><tspan x="7.05" y="15.6">8 t</tspan><tspan class="cls-73" x="22.64" y="15.6">r</tspan><tspan x="27.41" y="15.6">a</tspan><tspan class="cls-94" x="35.2" y="15.6">c</tspan><tspan x="41.74" y="15.6">ks</tspan></tspan></text><text class="cls-65" transform="translate(992.86 330.25)"><tspan class="cls-66">Kid Lib:</tspan><tspan class="cls-72"><tspan class="cls-73" x="0" y="15.6">2</tspan><tspan x="7.93" y="15.6">4 t</tspan><tspan class="cls-73" x="23.52" y="15.6">r</tspan><tspan x="28.3" y="15.6">a</tspan><tspan class="cls-94" x="36.09" y="15.6">c</tspan><tspan x="42.63" y="15.6">ks</tspan></tspan></text><text class="cls-65" transform="translate(898.27 531.23)"><tspan class="cls-66">S<tspan class="cls-95" x="8.4" y="0">q</tspan><tspan x="17.73" y="0">ua</tspan><tspan class="cls-96" x="35.54" y="0">r</tspan><tspan class="cls-89" x="41.68" y="0">epushe</tspan><tspan class="cls-70" x="91.56" y="0">r</tspan><tspan x="97.86" y="0">:</tspan></tspan><tspan class="cls-72"><tspan class="cls-97" x="0" y="15.6">2</tspan><tspan x="6.93" y="15.6">1 t</tspan><tspan class="cls-73" x="22.52" y="15.6">r</tspan><tspan x="27.29" y="15.6">a</tspan><tspan class="cls-74" x="35.09" y="15.6">c</tspan><tspan x="41.62" y="15.6">ks</tspan></tspan></text><text class="cls-65" transform="translate(691.12 551.51)"><tspan class="cls-66">Enduse<tspan class="cls-70" x="48.88" y="0">r</tspan><tspan x="55.18" y="0">:</tspan></tspan><tspan class="cls-72"><tspan class="cls-98" x="0" y="15.6">1</tspan><tspan x="7" y="15.6">4 t</tspan><tspan class="cls-73" x="22.58" y="15.6">r</tspan><tspan x="27.36" y="15.6">a</tspan><tspan class="cls-94" x="35.15" y="15.6">c</tspan><tspan x="41.69" y="15.6">ks</tspan></tspan></text><text class="cls-65" transform="translate(669.32 313.59)"><tspan class="cls-66">Digi<tspan class="cls-99" x="27.21" y="0">t</tspan><tspan class="cls-89" x="32.19" y="0">al:</tspan></tspan><tspan class="cls-72"><tspan class="cls-100" x="0" y="15.6">1</tspan><tspan x="6.13" y="15.6">1 t</tspan><tspan class="cls-73" x="21.71" y="15.6">r</tspan><tspan x="26.49" y="15.6">a</tspan><tspan class="cls-94" x="34.28" y="15.6">c</tspan><tspan x="40.82" y="15.6">ks</tspan></tspan></text><text class="cls-65" transform="translate(951.23 274.35)"><tspan class="cls-66">SPL:</tspan><tspan class="cls-72"><tspan x="0" y="15.6">23 t</tspan><tspan class="cls-73" x="23.61" y="15.6">r</tspan><tspan x="28.39" y="15.6">a</tspan><tspan class="cls-74" x="36.18" y="15.6">c</tspan><tspan x="42.71" y="15.6">ks</tspan></tspan></text><text class="cls-65" transform="translate(624.33 242.67)"><tspan class="cls-66">Ed <tspan class="cls-101" x="20.94" y="0">R</tspan><tspan x="30.09" y="0">ush:</tspan></tspan><tspan class="cls-72"><tspan class="cls-102" x="0" y="15.6">1</tspan><tspan x="7.24" y="15.6">0 t</tspan><tspan class="cls-73" x="22.83" y="15.6">r</tspan><tspan x="27.61" y="15.6">a</tspan><tspan class="cls-94" x="35.4" y="15.6">c</tspan><tspan x="41.93" y="15.6">ks</tspan></tspan></text><line class="cls-11" x1="278.08" y1="181.4" x2="278.08" y2="215.08"/><text class="cls-65" transform="translate(269.82 158.33)"><tspan class="cls-66"><tspan class="cls-84">N</tspan><tspan x="12.17" y="0">.</tspan><tspan class="cls-103" x="16.59" y="0">W</tspan><tspan x="31.02" y="0">.A:</tspan></tspan><tspan class="cls-72"><tspan class="cls-104" x="0" y="15.6">S</tspan><tspan x="7.8" y="15.6">t</tspan><tspan class="cls-73" x="11.36" y="15.6">r</tspan><tspan x="16.13" y="15.6">aight Out</tspan><tspan class="cls-105" x="71.89" y="15.6">t</tspan><tspan x="75.56" y="15.6">a Co</tspan><tspan class="cls-106" x="104.29" y="15.6">m</tspan><tspan class="cls-107" x="114.73" y="15.6">p</tspan><tspan class="cls-86" x="122.64" y="15.6">t</tspan><tspan class="cls-89" x="126.29" y="15.6">on</tspan></tspan></text><text class="cls-65" transform="translate(391.43 301.54)"><tspan class="cls-66">Ult<tspan class="cls-96" x="19.41" y="0">r</tspan><tspan x="25.54" y="0">amagn</tspan><tspan class="cls-96" x="74.36" y="0">e</tspan><tspan class="cls-108" x="82.86" y="0">t</tspan><tspan x="87.89" y="0">ic MCs:</tspan></tspan><tspan class="cls-72"><tspan x="0" y="15.6">2 t</tspan><tspan class="cls-73" x="15.59" y="15.6">r</tspan><tspan x="20.36" y="15.6">a</tspan><tspan class="cls-74" x="28.16" y="15.6">c</tspan><tspan x="34.69" y="15.6">ks</tspan></tspan></text><text class="cls-65" transform="translate(391.43 255.12)"><tspan class="cls-66">3<tspan class="cls-96" x="8.84" y="0">r</tspan><tspan x="14.98" y="0">d Bass:</tspan></tspan><tspan class="cls-72"><tspan x="0" y="15.6">2 t</tspan><tspan class="cls-73" x="15.59" y="15.6">r</tspan><tspan x="20.36" y="15.6">a</tspan><tspan class="cls-74" x="28.16" y="15.6">c</tspan><tspan x="34.69" y="15.6">ks</tspan></tspan></text><text class="cls-65" transform="translate(77.82 275.74)"><tspan class="cls-66"><tspan class="cls-109">T</tspan><tspan class="cls-99" x="7.05" y="0">y</tspan><tspan x="16.12" y="0">le</tspan><tspan class="cls-110" x="28.5" y="0">r</tspan><tspan x="33.9" y="0">, </tspan><tspan class="cls-111" x="42.74" y="0">t</tspan><tspan x="47.89" y="0">he C</tspan><tspan class="cls-96" x="78.02" y="0">r</tspan><tspan x="84.16" y="0">ea</tspan><tspan class="cls-112" x="101.68" y="0">t</tspan><tspan class="cls-113" x="106.65" y="0">o</tspan><tspan class="cls-70" x="115.75" y="0">r</tspan><tspan x="122.05" y="0">:</tspan></tspan><tspan class="cls-72"><tspan x="103.16" y="15.6">Pigs</tspan></tspan></text><text class="cls-65" transform="translate(126.73 318.82)"><tspan class="cls-66"><tspan class="cls-114">M</tspan><tspan x="13.1" y="0">ant</tspan><tspan class="cls-115" x="35.7" y="0">r</tspan><tspan x="41.81" y="0">onix:</tspan></tspan><tspan class="cls-72"><tspan x="-22.54" y="15.6">King of </tspan><tspan class="cls-70" x="23.92" y="15.6">t</tspan><tspan x="27.73" y="15.6">he Beats</tspan></tspan></text><text class="cls-65" transform="translate(160.48 362.34)"><tspan class="cls-66">Sn<tspan class="cls-116" x="17.03" y="0">o</tspan><tspan class="cls-117" x="25.79" y="0">w</tspan><tspan x="39.31" y="0">:</tspan></tspan><tspan class="cls-72"><tspan x="-6.46" y="15.6">In</tspan><tspan class="cls-118" x="4.5" y="15.6">f</tspan><tspan x="8.52" y="15.6">o</tspan><tspan class="cls-119" x="16.33" y="15.6">r</tspan><tspan x="21.39" y="15.6">mer</tspan></tspan></text><text class="cls-65" transform="translate(118.95 405.33)"><tspan class="cls-66">Salt-N-<tspan class="cls-120" x="45.63" y="0">P</tspan><tspan x="54.29" y="0">epa:</tspan></tspan><tspan class="cls-72"><tspan x="40.39" y="15.6">I Desi</tspan><tspan class="cls-73" x="73.38" y="15.6">r</tspan><tspan x="78.15" y="15.6">e</tspan></tspan></text><text class="cls-65" transform="translate(122.54 448.57)"><tspan class="cls-66"><tspan class="cls-121">St</tspan><tspan class="cls-96" x="13.51" y="0">e</tspan><tspan class="cls-122" x="22.01" y="0">t</tspan><tspan x="26.92" y="0">sasonic:</tspan></tspan><tspan class="cls-72"><tspan x="-19.19" y="15.6">Bust That G</tspan><tspan class="cls-123" x="48.14" y="15.6">r</tspan><tspan class="cls-113" x="52.89" y="15.6">o</tspan><tspan class="cls-124" x="60.7" y="15.6">o</tspan><tspan class="cls-125" x="68.25" y="15.6">v</tspan><tspan x="74.56" y="15.6">e</tspan></tspan></text><text class="cls-65" transform="translate(121.36 492.09)"><tspan class="cls-66"><tspan class="cls-126">D</tspan><tspan class="cls-113" x="9.67" y="0">J Shad</tspan><tspan class="cls-116" x="56.24" y="0">o</tspan><tspan class="cls-117" x="65" y="0">w</tspan><tspan x="78.52" y="0">:</tspan></tspan><tspan class="cls-72"><tspan x="32.46" y="15.6">Lesson 4</tspan></tspan></text><text class="cls-65" transform="translate(94.09 535.61)"><tspan class="cls-66">E<tspan class="cls-67" x="7.41" y="0">r</tspan><tspan x="13.47" y="0">ic B. &amp; </tspan><tspan class="cls-120" x="61.59" y="0">R</tspan><tspan class="cls-89" x="70.65" y="0">akim:</tspan></tspan><tspan class="cls-72"><tspan x="5.2" y="15.6">Casualties of </tspan><tspan class="cls-127" x="84.45" y="15.6">W</tspan><tspan x="97.46" y="15.6">ar</tspan></tspan></text><text class="cls-65" transform="translate(101.9 578.44)"><tspan class="cls-66">B<tspan class="cls-96" x="9" y="0">r</tspan><tspan class="cls-89" x="15.13" y="0">and </tspan><tspan class="cls-128" x="46.41" y="0">N</tspan><tspan x="58.46" y="0">ubian:</tspan></tspan><tspan class="cls-72"><tspan x="32.14" y="15.6">The Godz...</tspan></tspan></text><text class="cls-129" transform="translate(407.7 96.67)">Who sa<tspan class="cls-130" x="128.9" y="0">m</tspan><tspan x="163.35" y="0">pled the mo</tspan><tspan class="cls-131" x="376.24" y="0">s</tspan><tspan class="cls-132" x="393.15" y="0">t</tspan><tspan class="cls-133" x="406.21" y="0">: Hip-hop </tspan><tspan class="cls-134" x="578.49" y="0">V</tspan><tspan x="600.09" y="0">S elect</tspan><tspan class="cls-135" x="714.63" y="0">r</tspan><tspan x="729.91" y="0">onic music a</tspan><tspan class="cls-136" x="949.34" y="0">r</tspan><tspan class="cls-137" x="965.64" y="0">ti</tspan><tspan class="cls-131" x="989.46" y="0">s</tspan><tspan x="1006.36" y="0">ts</tspan></text></svg>