<svg id="Layer_2" data-name="Layer 2" xmlns="http://www.w3.org/2000/svg" viewBox="0 0 591.42 365.01"><defs><style>.cls-1{fill:#00aeef;}.cls-2{font-size:10px;}.cls-18,.cls-2{font-family:Futura-CondensedMedium, Futura;}.cls-3{letter-spacing:-0.06em;}.cls-4{letter-spacing:-0.02em;}.cls-5{letter-spacing:-0.04em;}.cls-6{letter-spacing:-0.02em;}.cls-7{letter-spacing:-0.04em;}.cls-8{letter-spacing:0em;}.cls-9{letter-spacing:-0.02em;}.cls-10{letter-spacing:-0.05em;}.cls-11{letter-spacing:-0.09em;}.cls-12{letter-spacing:-0.06em;}.cls-13{letter-spacing:-0.06em;}.cls-14{letter-spacing:-0.06em;}.cls-15{letter-spacing:-0.06em;}.cls-16{letter-spacing:-0.07em;}.cls-17{fill:none;stroke:#000;stroke-miterlimit:10;opacity:0.2;}.cls-18{font-size:28.92px;fill:#231f20;}.cls-19{letter-spacing:-0.03em;}.cls-20{letter-spacing:0em;}.cls-21{letter-spacing:0em;}.cls-22{letter-spacing:-0.01em;}.cls-23{letter-spacing:0em;}.cls-24{letter-spacing:-0.02em;}</style></defs><title>who_sampled_years</title><rect class="cls-1" x="27.71" y="341.77" width="10.2" height="1"/><rect class="cls-1" x="45.71" y="341.77" width="10.2" height="1"/><rect class="cls-1" x="63.71" y="332.77" width="10.2" height="10"/><rect class="cls-1" x="81.71" y="332.77" width="10.2" height="10"/><rect class="cls-1" x="99.21" y="324.77" width="10.2" height="18"/><rect class="cls-1" x="116.71" y="296.77" width="10.2" height="46"/><rect class="cls-1" x="135.21" y="267.77" width="10.2" height="75"/><rect class="cls-1" x="152.71" y="211.77" width="10.2" height="131"/><rect class="cls-1" x="170.71" y="136.77" width="10.2" height="206"/><rect class="cls-1" x="188.21" y="68.77" width="10.2" height="274"/><rect class="cls-1" x="206.21" y="187.77" width="10.2" height="155"/><rect class="cls-1" x="224.71" y="232.77" width="10.2" height="110"/><rect class="cls-1" x="241.71" y="266.77" width="10.2" height="76"/><rect class="cls-1" x="260.21" y="286.77" width="10.2" height="56"/><rect class="cls-1" x="278.21" y="296.77" width="10.2" height="46"/><rect class="cls-1" x="295.71" y="307.77" width="10.2" height="35"/><rect class="cls-1" x="313.21" y="296.77" width="10.2" height="46"/><rect class="cls-1" x="331.21" y="259.77" width="10.2" height="83"/><rect class="cls-1" x="349.21" y="260.77" width="10.2" height="82"/><rect class="cls-1" x="367.21" y="263.77" width="10.2" height="79"/><rect class="cls-1" x="385.21" y="255.77" width="10.2" height="87"/><rect class="cls-1" x="402.71" y="293.77" width="10.2" height="49"/><rect class="cls-1" x="420.71" y="289.77" width="10.2" height="53"/><rect class="cls-1" x="438.71" y="267.77" width="10.2" height="75"/><rect class="cls-1" x="456.21" y="276.77" width="10.2" height="66"/><rect class="cls-1" x="474.21" y="230.77" width="10.2" height="112"/><rect class="cls-1" x="492.71" y="256.77" width="10.2" height="86"/><rect class="cls-1" x="509.71" y="212.77" width="10.2" height="130"/><rect class="cls-1" x="527.71" y="273.77" width="10.2" height="69"/><rect class="cls-1" x="545.21" y="246.77" width="10.2" height="96"/><rect class="cls-1" x="563.71" y="269.77" width="10.2" height="73"/><rect class="cls-1" x="581.21" y="314.77" width="10.2" height="28"/><text class="cls-2" transform="translate(35.8 365.01) rotate(-90)"><tspan class="cls-3">1</tspan><tspan x="3.51" y="0">986</tspan></text><text class="cls-2" transform="translate(64.68 357.87)">88</text><text class="cls-2" transform="translate(46.77 357.87)"><tspan class="cls-4">8</tspan><tspan x="3.96" y="0">7</tspan></text><text class="cls-2" transform="translate(82.68 357.87)">89</text><text class="cls-2" transform="translate(100.18 357.87)">90</text><text class="cls-2" transform="translate(117.88 357.87)"><tspan class="cls-5">9</tspan><tspan x="3.74" y="0">1</tspan></text><text class="cls-2" transform="translate(136.18 357.87)">92</text><text class="cls-2" transform="translate(153.68 357.87)">93</text><text class="cls-2" transform="translate(171.75 357.87)"><tspan class="cls-6">9</tspan><tspan x="3.99" y="0">4</tspan></text><text class="cls-2" transform="translate(189.18 357.87)">95</text><text class="cls-2" transform="translate(207.18 357.87)">96</text><text class="cls-2" transform="translate(225.77 357.87)"><tspan class="cls-4">9</tspan><tspan x="3.96" y="0">7</tspan></text><text class="cls-2" transform="translate(242.68 357.87)">98</text><text class="cls-2" transform="translate(261.18 357.87)">99</text><text class="cls-2" transform="translate(279.18 357.87)">00</text><text class="cls-2" transform="translate(296.89 357.87)"><tspan class="cls-7">0</tspan><tspan x="3.72" y="0">1</tspan></text><text class="cls-2" transform="translate(314.18 357.87)">02</text><text class="cls-2" transform="translate(332.18 357.87)">03</text><text class="cls-2" transform="translate(350.17 357.87)"><tspan class="cls-8">0</tspan><tspan x="4.15" y="0">4</tspan></text><text class="cls-2" transform="translate(368.18 357.87)">05</text><text class="cls-2" transform="translate(386.18 357.87)">06</text><text class="cls-2" transform="translate(403.78 357.87)"><tspan class="cls-9">0</tspan><tspan x="3.93" y="0">7</tspan></text><text class="cls-2" transform="translate(421.68 357.87)">08</text><text class="cls-2" transform="translate(439.68 357.87)">09</text><text class="cls-2" transform="translate(457.43 357.87)"><tspan class="cls-10">1</tspan><tspan x="3.63" y="0">0</tspan></text><text class="cls-2" transform="translate(475.61 357.87)"><tspan class="cls-11">1</tspan><tspan x="3.28" y="0">1</tspan></text><text class="cls-2" transform="translate(493.98 357.87)"><tspan class="cls-12">1</tspan><tspan x="3.54" y="0">2</tspan></text><text class="cls-2" transform="translate(510.98 357.87)"><tspan class="cls-13">1</tspan><tspan x="3.53" y="0">3</tspan></text><text class="cls-2" transform="translate(528.95 357.87)"><tspan class="cls-14">1</tspan><tspan x="3.59" y="0">4</tspan></text><text class="cls-2" transform="translate(546.49 357.87)"><tspan class="cls-15">1</tspan><tspan x="3.52" y="0">5</tspan></text><text class="cls-2" transform="translate(564.99 357.87)"><tspan class="cls-15">1</tspan><tspan x="3.52" y="0">6</tspan></text><text class="cls-2" transform="translate(582.51 357.87)"><tspan class="cls-16">1</tspan><tspan x="3.48" y="0">7</tspan></text><text class="cls-2" transform="translate(8.28 346.25)">0</text><text class="cls-2" transform="translate(4.14 300.25)">50</text><text class="cls-2" transform="translate(0.51 252.25)"><tspan class="cls-10">1</tspan><tspan x="3.63" y="0">00</tspan></text><text class="cls-2" transform="translate(0.62 206.25)"><tspan class="cls-15">1</tspan><tspan x="3.52" y="0">50</tspan></text><text class="cls-2" transform="translate(0 160.25)">200</text><text class="cls-2" transform="translate(0 112.25)">250</text><text class="cls-2" transform="translate(0 65.25)">300</text><line class="cls-17" x1="23.82" y1="57.27" x2="23.82" y2="343.27"/><text class="cls-18" transform="translate(108.37 25.43)"><tspan class="cls-19">Y</tspan><tspan x="10.21" y="0">ear b</tspan><tspan class="cls-20" x="57.4" y="0">r</tspan><tspan class="cls-21" x="65.2" y="0">eakd</tspan><tspan class="cls-22" x="109.99" y="0">o</tspan><tspan class="cls-23" x="120.93" y="0">wn of the Amen B</tspan><tspan class="cls-20" x="282" y="0">r</tspan><tspan x="289.8" y="0">eak</tspan><tspan class="cls-24" x="323.18" y="0">’</tspan><tspan x="329.34" y="0">s use</tspan></text></svg>