<svg id="Layer_2" data-name="Layer 2" xmlns="http://www.w3.org/2000/svg" viewBox="0 0 711.1 85.75"><defs><style>.cls-1{fill:#231f20;}</style></defs><title>who_sampled_graph_ZOOM_TITLE</title><path class="cls-1" d="M26.15,25.49h3.53l1.85,12.6.3,1.86q.21,1.51.32,2.76l.19,2.3a3.11,3.11,0,0,1,0,.32q0,.23.05.58l.09-.88q.21-2.3.45-4.24t.52-3.57l2-11.74h2.81l1.83,11.41q.4,2.53.68,4.69t.45,4.13q.18-2.07.4-4t.47-3.8l.26-1.81,1.56-10.62h3.5l-4.8,27.14H39.73L37.82,40.9s0-.24-.09-.58-.12-.83-.21-1.46l-.37-2.71q0-.32-.11-.95t-.17-1.6l-.09-1.12q0,.4-.07.7t-.05.49q-.09,1.16-.15,1.8t-.08.78l-.37,2.6-.19,1.41q-.07.51-.11.63l-2,11.72H30.84Z"/><path class="cls-1" d="M49.33,22.76h3.36V36.52a4.27,4.27,0,0,1,3.73-2.39,3.32,3.32,0,0,1,3.16,1.74,9.17,9.17,0,0,1,.53,3.81V52.63H56.75l0-12.16a5.66,5.66,0,0,0-.44-2.62,1.59,1.59,0,0,0-1.51-.77,2.13,2.13,0,0,0-1,.2,1.53,1.53,0,0,0-.64.65,3.62,3.62,0,0,0-.36,1.17,11.6,11.6,0,0,0-.11,1.78V52.63H49.33Z"/><path class="cls-1" d="M74.64,43.68q0,9.23-5.71,9.23t-5.71-9.37q0-9.4,5.7-9.4a5.47,5.47,0,0,1,2.56.56,4.49,4.49,0,0,1,1.78,1.74,9.13,9.13,0,0,1,1,3A23.07,23.07,0,0,1,74.64,43.68Zm-3.48-.09a17.79,17.79,0,0,0-.47-5A1.75,1.75,0,0,0,69,37.17a1.79,1.79,0,0,0-1.71,1.41,17.34,17.34,0,0,0-.47,4.9,17.13,17.13,0,0,0,.47,4.89A1.79,1.79,0,0,0,69,49.78a1.73,1.73,0,0,0,1.67-1.39A15.6,15.6,0,0,0,71.16,43.59Z"/><path class="cls-1" d="M92.26,34.8v3.15A4.27,4.27,0,0,0,89.67,37a2.19,2.19,0,0,0-1.52.59,2,2,0,0,0-.46.65,2,2,0,0,0-.17.8q0,1.3,2.36,3.09a17.11,17.11,0,0,1,1.58,1.37,6.27,6.27,0,0,1,1,1.2,5.23,5.23,0,0,1,.69,2.79,5.41,5.41,0,0,1-1.42,3.92,5,5,0,0,1-3.78,1.46A5.88,5.88,0,0,1,85,52V48.79a4.69,4.69,0,0,0,2.76,1.09A2,2,0,0,0,90,47.62a2.52,2.52,0,0,0-.42-1.46,4,4,0,0,0-.62-.69q-.42-.4-1-.89a13.69,13.69,0,0,1-2.88-2.78A5.1,5.1,0,0,1,84.33,39a5,5,0,0,1,1.35-3.6A4.79,4.79,0,0,1,89.25,34,6.23,6.23,0,0,1,92.26,34.8Z"/><path class="cls-1" d="M106.2,34.43V52.63h-3.36V50.29a5.83,5.83,0,0,1-1.44,2.06,3,3,0,0,1-1.9.56,3.48,3.48,0,0,1-3.32-2.32,18.67,18.67,0,0,1-1.05-7.28,17.14,17.14,0,0,1,1.05-7,3.48,3.48,0,0,1,3.32-2.22,3.77,3.77,0,0,1,3.34,2.36V34.43Zm-7.59,9a18,18,0,0,0,.47,5,1.78,1.78,0,0,0,1.72,1.42q1.13,0,1.63-1.48a17.1,17.1,0,0,0,.51-4.87,17.19,17.19,0,0,0-.51-4.89q-.51-1.48-1.63-1.48a1.79,1.79,0,0,0-1.71,1.41A15.94,15.94,0,0,0,98.6,43.45Z"/><path class="cls-1" d="M110,34.43h3.36v2.25a4.15,4.15,0,0,1,3.69-2.55,3.39,3.39,0,0,1,3.41,2.55,4.15,4.15,0,0,1,3.8-2.55,4,4,0,0,1,2.93,1,4,4,0,0,1,1,3v14.5h-3.37v-12a6.52,6.52,0,0,0-.39-2.76,1.46,1.46,0,0,0-1.44-.72,1.76,1.76,0,0,0-1.65.74,6,6,0,0,0-.42,2.74v12h-3.48v-12a11.67,11.67,0,0,0-.1-1.63,3.09,3.09,0,0,0-.33-1.07,1.41,1.41,0,0,0-.6-.59,2,2,0,0,0-.91-.18,1.79,1.79,0,0,0-1.65.79,5.38,5.38,0,0,0-.49,2.69v12H110Z"/><path class="cls-1" d="M131.93,60.08V34.43h3.36v2.36a5.75,5.75,0,0,1,1.44-2.07,3,3,0,0,1,1.93-.58,3.46,3.46,0,0,1,3.3,2.33,18.88,18.88,0,0,1,1,7.29q0,4.85-1.07,7a3.53,3.53,0,0,1-3.39,2.18,3.12,3.12,0,0,1-1.85-.51,3.31,3.31,0,0,1-.7-.7,8.28,8.28,0,0,1-.7-1.11v9.49Zm7.59-16.45a16.81,16.81,0,0,0-.49-5,1.75,1.75,0,0,0-1.71-1.42q-1.16,0-1.65,1.48a16.44,16.44,0,0,0-.49,4.89,16.44,16.44,0,0,0,.49,4.89q.51,1.46,1.65,1.46A1.79,1.79,0,0,0,139,48.48,15.85,15.85,0,0,0,139.53,43.63Z"/><path class="cls-1" d="M146.14,22.76h3.36V52.63h-3.36Z"/><path class="cls-1" d="M160.34,46.49h3.13q-.37,6.42-5.27,6.42a5.36,5.36,0,0,1-2.5-.54A4.38,4.38,0,0,1,154,50.67a8.71,8.71,0,0,1-1-2.9,23.33,23.33,0,0,1-.33-4.18q0-4.82,1.34-7.14a4.48,4.48,0,0,1,4.16-2.32q5.47,0,5.47,9.63v.42h-7.68q0,5.84,2.32,5.84Q160.34,50,160.34,46.49Zm-.18-4.73a12.27,12.27,0,0,0-.65-3.76A1.53,1.53,0,0,0,158,37a1.51,1.51,0,0,0-1.48,1,12.27,12.27,0,0,0-.65,3.76Z"/><path class="cls-1" d="M177,22.76V52.63h-3.36V50.29a5.83,5.83,0,0,1-1.44,2.06,3,3,0,0,1-1.92.56,3.47,3.47,0,0,1-3.3-2.31,18.6,18.6,0,0,1-1.05-7.27,28,28,0,0,1,.26-4.13,10.32,10.32,0,0,1,.8-2.87,3.87,3.87,0,0,1,1.38-1.66,3.66,3.66,0,0,1,2-.54,3,3,0,0,1,1.83.53,3.65,3.65,0,0,1,.72.7,6.93,6.93,0,0,1,.72,1.13V22.76Zm-7.59,20.69a18,18,0,0,0,.47,5,1.78,1.78,0,0,0,1.72,1.42q1.13,0,1.63-1.48a17.1,17.1,0,0,0,.51-4.87,17.19,17.19,0,0,0-.51-4.89q-.51-1.48-1.63-1.48a1.79,1.79,0,0,0-1.71,1.41A15.94,15.94,0,0,0,169.37,43.45Z"/><path class="cls-1" d="M188.64,29.34H192v5.1h1.83V37.1H192V52.63h-3.36V37.1h-1.85V34.43h1.85Z"/><path class="cls-1" d="M196.23,22.76h3.36V36.52a4.27,4.27,0,0,1,3.73-2.39,3.32,3.32,0,0,1,3.16,1.74,9.17,9.17,0,0,1,.53,3.81V52.63h-3.36l0-12.16a5.66,5.66,0,0,0-.44-2.62,1.59,1.59,0,0,0-1.51-.77,2.13,2.13,0,0,0-1,.2,1.53,1.53,0,0,0-.64.65,3.62,3.62,0,0,0-.36,1.17,11.6,11.6,0,0,0-.11,1.78V52.63h-3.36Z"/><path class="cls-1" d="M217.84,46.49H221q-.37,6.42-5.27,6.42a5.36,5.36,0,0,1-2.5-.54,4.38,4.38,0,0,1-1.73-1.69,8.71,8.71,0,0,1-1-2.9,23.33,23.33,0,0,1-.33-4.18q0-4.82,1.34-7.14a4.48,4.48,0,0,1,4.16-2.32q5.47,0,5.47,9.63v.42h-7.68q0,5.84,2.32,5.84Q217.84,50,217.84,46.49Zm-.18-4.73A12.27,12.27,0,0,0,217,38a1.53,1.53,0,0,0-1.48-1,1.51,1.51,0,0,0-1.48,1,12.27,12.27,0,0,0-.65,3.76Z"/><path class="cls-1" d="M231.53,34.43h3.36v2.25a4.15,4.15,0,0,1,3.69-2.55A3.39,3.39,0,0,1,242,36.68a4.15,4.15,0,0,1,3.8-2.55,4,4,0,0,1,2.93,1,4,4,0,0,1,1,3v14.5h-3.37v-12A6.52,6.52,0,0,0,246,37.9a1.46,1.46,0,0,0-1.44-.72,1.76,1.76,0,0,0-1.65.74,6,6,0,0,0-.42,2.74v12H239v-12a11.67,11.67,0,0,0-.1-1.63,3.09,3.09,0,0,0-.33-1.07,1.41,1.41,0,0,0-.6-.59,2,2,0,0,0-.91-.18,1.79,1.79,0,0,0-1.65.79,5.38,5.38,0,0,0-.49,2.69v12h-3.36Z"/><path class="cls-1" d="M264.26,43.68q0,9.23-5.71,9.23t-5.71-9.37q0-9.4,5.7-9.4a5.47,5.47,0,0,1,2.56.56,4.49,4.49,0,0,1,1.78,1.74,9.13,9.13,0,0,1,1,3A23.07,23.07,0,0,1,264.26,43.68Zm-3.48-.09a17.79,17.79,0,0,0-.47-5,1.75,1.75,0,0,0-1.69-1.42,1.79,1.79,0,0,0-1.71,1.41,17.34,17.34,0,0,0-.47,4.9,17.13,17.13,0,0,0,.47,4.89,1.79,1.79,0,0,0,1.71,1.41,1.73,1.73,0,0,0,1.67-1.39A15.6,15.6,0,0,0,260.78,43.59Z"/><path class="cls-1" d="M274.42,34.8v3.15a4.27,4.27,0,0,0-2.58-.91,2.19,2.19,0,0,0-1.52.59,2,2,0,0,0-.46.65,2,2,0,0,0-.17.8q0,1.3,2.36,3.09a17.11,17.11,0,0,1,1.58,1.37,6.27,6.27,0,0,1,1,1.2,5.23,5.23,0,0,1,.69,2.79,5.41,5.41,0,0,1-1.42,3.92,5,5,0,0,1-3.78,1.46,5.88,5.88,0,0,1-3-.86V48.79a4.69,4.69,0,0,0,2.76,1.09,2,2,0,0,0,2.3-2.27,2.52,2.52,0,0,0-.42-1.46,4,4,0,0,0-.62-.69q-.42-.4-1-.89a13.69,13.69,0,0,1-2.88-2.78,5.1,5.1,0,0,1-.74-2.79,5,5,0,0,1,1.35-3.6A4.79,4.79,0,0,1,271.41,34,6.23,6.23,0,0,1,274.42,34.8Z"/><path class="cls-1" d="M278.55,29.34h3.36v5.1h1.83V37.1h-1.83V52.63h-3.36V37.1h-1.85V34.43h1.85Z"/><path class="cls-1" d="M288.34,34.17a2,2,0,0,1,1.49.65,2.06,2.06,0,0,1,.63,1.51,2.18,2.18,0,0,1-3.71,1.55,2.14,2.14,0,0,1-.63-1.55,2,2,0,0,1,.63-1.53A2.18,2.18,0,0,1,288.34,34.17Zm0,14.38a2,2,0,0,1,1.49.65,2.16,2.16,0,0,1,0,3.06,2.19,2.19,0,0,1-1.53.62,2.17,2.17,0,0,1-.85-.17,2.23,2.23,0,0,1-.69-.46,2.06,2.06,0,0,1-.47-.69,2.17,2.17,0,0,1-.17-.85,2.08,2.08,0,0,1,.63-1.53A2.18,2.18,0,0,1,288.34,48.55Z"/><path class="cls-1" d="M301.56,25.49h3.66V36.1h5.36V25.49h3.66V52.63h-3.66V39.2h-5.36V52.63h-3.66Z"/><path class="cls-1" d="M319.81,26.7A2.28,2.28,0,0,1,322.06,29a2.28,2.28,0,1,1-4.55,0,2.16,2.16,0,0,1,.67-1.58A2.34,2.34,0,0,1,319.81,26.7Zm-1.58,7.73h3.38V52.63h-3.37Z"/><path class="cls-1" d="M325.38,60.08V34.43h3.36v2.36a5.75,5.75,0,0,1,1.44-2.07,3,3,0,0,1,1.93-.58,3.46,3.46,0,0,1,3.3,2.33,18.88,18.88,0,0,1,1,7.29q0,4.85-1.07,7A3.53,3.53,0,0,1,332,52.91a3.12,3.12,0,0,1-1.85-.51,3.31,3.31,0,0,1-.7-.7,8.28,8.28,0,0,1-.7-1.11v9.49ZM333,43.63a16.81,16.81,0,0,0-.49-5,1.75,1.75,0,0,0-1.71-1.42q-1.16,0-1.65,1.48a16.44,16.44,0,0,0-.49,4.89,16.44,16.44,0,0,0,.49,4.89q.51,1.46,1.65,1.46a1.79,1.79,0,0,0,1.71-1.41A15.85,15.85,0,0,0,333,43.63Z"/><path class="cls-1" d="M337.68,41.94h6.4v2.74h-6.4Z"/><path class="cls-1" d="M346,22.76h3.36V36.52a4.27,4.27,0,0,1,3.73-2.39,3.32,3.32,0,0,1,3.16,1.74,9.17,9.17,0,0,1,.53,3.81V52.63H353.4l0-12.16a5.66,5.66,0,0,0-.44-2.62,1.59,1.59,0,0,0-1.51-.77,2.13,2.13,0,0,0-1,.2,1.53,1.53,0,0,0-.64.65,3.62,3.62,0,0,0-.36,1.17,11.6,11.6,0,0,0-.11,1.78V52.63H346Z"/><path class="cls-1" d="M371.29,43.68q0,9.23-5.71,9.23t-5.71-9.37q0-9.4,5.7-9.4a5.47,5.47,0,0,1,2.56.56,4.49,4.49,0,0,1,1.78,1.74,9.13,9.13,0,0,1,1,3A23.07,23.07,0,0,1,371.29,43.68Zm-3.48-.09a17.79,17.79,0,0,0-.47-5,1.75,1.75,0,0,0-1.69-1.42,1.79,1.79,0,0,0-1.71,1.41,17.34,17.34,0,0,0-.47,4.9,17.13,17.13,0,0,0,.47,4.89,1.79,1.79,0,0,0,1.71,1.41,1.73,1.73,0,0,0,1.67-1.39A15.6,15.6,0,0,0,367.81,43.59Z"/><path class="cls-1" d="M374.42,60.08V34.43h3.36v2.36a5.75,5.75,0,0,1,1.44-2.07,3,3,0,0,1,1.93-.58,3.46,3.46,0,0,1,3.3,2.33,18.88,18.88,0,0,1,1,7.29q0,4.85-1.07,7A3.53,3.53,0,0,1,381,52.91a3.12,3.12,0,0,1-1.85-.51,3.31,3.31,0,0,1-.7-.7,8.28,8.28,0,0,1-.7-1.11v9.49ZM382,43.63a16.81,16.81,0,0,0-.49-5,1.75,1.75,0,0,0-1.71-1.42q-1.16,0-1.65,1.48a16.44,16.44,0,0,0-.49,4.89,16.44,16.44,0,0,0,.49,4.89q.51,1.46,1.65,1.46a1.79,1.79,0,0,0,1.71-1.41A15.85,15.85,0,0,0,382,43.63Z"/><path class="cls-1" d="M394.11,25.49h3.6l1.63,10,.28,1.81.58,3.94.25,1.83q.11.83.2,1.49l.18,1.34q.05-.4.09-.72t.07-.53l.47-3.15.62-4.13q.09-.56.17-1t.15-.84l1.76-10h3.41l-5.33,27.14h-2.9Z"/><path class="cls-1" d="M419.07,26v3.57a5.35,5.35,0,0,0-3-1.2,3,3,0,0,0-2.36,1A3.61,3.61,0,0,0,412.8,32a4.45,4.45,0,0,0,.65,2.44,10.8,10.8,0,0,0,1.1,1.41q.76.86,2,2.07a16.24,16.24,0,0,1,3,3.92,8.62,8.62,0,0,1,.81,3.92A7.61,7.61,0,0,1,418.6,51,5.83,5.83,0,0,1,414,53a6.31,6.31,0,0,1-4-1.28V48.06a6.22,6.22,0,0,0,3.55,1.42,2.9,2.9,0,0,0,2.34-1,4,4,0,0,0,.84-2.7,5.4,5.4,0,0,0-.65-2.65,10.84,10.84,0,0,0-.93-1.29q-.6-.73-1.49-1.63-1.39-1.37-2.3-2.43a11.44,11.44,0,0,1-1.35-1.85,8.08,8.08,0,0,1-.84-3.9,7.33,7.33,0,0,1,1.65-5,5.7,5.7,0,0,1,4.48-1.88A7.91,7.91,0,0,1,419.07,26Z"/><path class="cls-1" d="M437.74,46.49h3.13q-.37,6.42-5.27,6.42a5.36,5.36,0,0,1-2.5-.54,4.38,4.38,0,0,1-1.73-1.69,8.71,8.71,0,0,1-1-2.9,23.33,23.33,0,0,1-.33-4.18q0-4.82,1.34-7.14a4.48,4.48,0,0,1,4.16-2.32q5.47,0,5.47,9.63v.42h-7.68q0,5.84,2.32,5.84Q437.74,50,437.74,46.49Zm-.18-4.73a12.27,12.27,0,0,0-.65-3.76,1.53,1.53,0,0,0-1.48-1A1.51,1.51,0,0,0,434,38a12.27,12.27,0,0,0-.65,3.76Z"/><path class="cls-1" d="M444,22.76h3.36V52.63H444Z"/><path class="cls-1" d="M458.18,46.49h3.13q-.37,6.42-5.27,6.42a5.36,5.36,0,0,1-2.5-.54,4.38,4.38,0,0,1-1.73-1.69,8.71,8.71,0,0,1-1-2.9,23.33,23.33,0,0,1-.33-4.18q0-4.82,1.34-7.14A4.48,4.48,0,0,1,456,34.13q5.47,0,5.47,9.63v.42h-7.68q0,5.84,2.32,5.84Q458.18,50,458.18,46.49ZM458,41.76a12.27,12.27,0,0,0-.65-3.76,1.53,1.53,0,0,0-1.48-1,1.51,1.51,0,0,0-1.48,1,12.27,12.27,0,0,0-.65,3.76Z"/><path class="cls-1" d="M471.86,34.78v3.43a2.11,2.11,0,0,0-1.69-.86q-2.78,0-2.78,6,0,6.38,2.76,6.38a3,3,0,0,0,1.71-.69V52.2a5.76,5.76,0,0,1-2.71.7q-5.41,0-5.41-9.21,0-4.9,1.34-7.23a4.45,4.45,0,0,1,4.15-2.33A5.77,5.77,0,0,1,471.86,34.78Z"/><path class="cls-1" d="M475.11,29.34h3.36v5.1h1.83V37.1h-1.83V52.63h-3.36V37.1h-1.85V34.43h1.85Z"/><path class="cls-1" d="M482.7,34.43h3.36V36.7a6.42,6.42,0,0,1,1.71-2A4.38,4.38,0,0,1,490,34v3.52a4.13,4.13,0,0,0-.6-.05,3.19,3.19,0,0,0-2.58.93,5.12,5.12,0,0,0-.76,3.2v11H482.7Z"/><path class="cls-1" d="M503.16,43.68q0,9.23-5.71,9.23t-5.71-9.37q0-9.4,5.7-9.4a5.47,5.47,0,0,1,2.56.56,4.49,4.49,0,0,1,1.78,1.74,9.13,9.13,0,0,1,1,3A23.07,23.07,0,0,1,503.16,43.68Zm-3.48-.09a17.79,17.79,0,0,0-.47-5,1.75,1.75,0,0,0-1.69-1.42,1.79,1.79,0,0,0-1.71,1.41,17.34,17.34,0,0,0-.47,4.9,17.13,17.13,0,0,0,.47,4.89,1.79,1.79,0,0,0,1.71,1.41,1.73,1.73,0,0,0,1.67-1.39A15.6,15.6,0,0,0,499.68,43.59Z"/><path class="cls-1" d="M506.29,34.43h3.36v2.09a4.27,4.27,0,0,1,3.73-2.39,3.32,3.32,0,0,1,3.16,1.74,9.17,9.17,0,0,1,.53,3.81V52.63h-3.36l0-12.16a5.66,5.66,0,0,0-.44-2.62,1.59,1.59,0,0,0-1.51-.77,2.13,2.13,0,0,0-1,.2,1.53,1.53,0,0,0-.64.65,3.62,3.62,0,0,0-.36,1.17,11.6,11.6,0,0,0-.11,1.78V52.63h-3.36Z"/><path class="cls-1" d="M522.45,26.7A2.28,2.28,0,0,1,524.7,29a2.28,2.28,0,1,1-4.55,0,2.16,2.16,0,0,1,.67-1.58A2.34,2.34,0,0,1,522.45,26.7Zm-1.58,7.73h3.38V52.63h-3.37Z"/><path class="cls-1" d="M535.46,34.78v3.43a2.11,2.11,0,0,0-1.69-.86q-2.78,0-2.78,6,0,6.38,2.76,6.38a3,3,0,0,0,1.71-.69V52.2a5.76,5.76,0,0,1-2.71.7q-5.41,0-5.41-9.21,0-4.9,1.34-7.23a4.45,4.45,0,0,1,4.15-2.33A5.77,5.77,0,0,1,535.46,34.78Z"/><path class="cls-1" d="M545.76,34.43h3.36v2.25a4.15,4.15,0,0,1,3.69-2.55,3.39,3.39,0,0,1,3.41,2.55,4.15,4.15,0,0,1,3.8-2.55,4,4,0,0,1,2.93,1,4,4,0,0,1,1,3v14.5h-3.37v-12a6.52,6.52,0,0,0-.39-2.76,1.46,1.46,0,0,0-1.44-.72,1.76,1.76,0,0,0-1.65.74,6,6,0,0,0-.42,2.74v12h-3.48v-12a11.67,11.67,0,0,0-.1-1.63,3.09,3.09,0,0,0-.33-1.07,1.41,1.41,0,0,0-.6-.59,2,2,0,0,0-.91-.18,1.79,1.79,0,0,0-1.65.79,5.38,5.38,0,0,0-.49,2.69v12h-3.36Z"/><path class="cls-1" d="M567.75,34.43h3.36V46.6a4.82,4.82,0,0,0,.5,2.41,1.71,1.71,0,0,0,1.56.72,1.84,1.84,0,0,0,1.6-.63,4.31,4.31,0,0,0,.46-2.32V34.43h3.36V45.31a14.93,14.93,0,0,1-.56,5.1q-1.18,2.5-4.89,2.5-2.92,0-4.15-1.48t-1.23-5Z"/><path class="cls-1" d="M589.4,34.8v3.15a4.27,4.27,0,0,0-2.58-.91,2.19,2.19,0,0,0-1.52.59,2,2,0,0,0-.46.65,2,2,0,0,0-.17.8q0,1.3,2.36,3.09a17.11,17.11,0,0,1,1.58,1.37,6.27,6.27,0,0,1,1,1.2,5.23,5.23,0,0,1,.69,2.79,5.41,5.41,0,0,1-1.42,3.92,5,5,0,0,1-3.78,1.46,5.88,5.88,0,0,1-3-.86V48.79a4.69,4.69,0,0,0,2.76,1.09,2,2,0,0,0,2.3-2.27,2.52,2.52,0,0,0-.42-1.46,4,4,0,0,0-.62-.69q-.42-.4-1-.89a13.69,13.69,0,0,1-2.88-2.78,5.1,5.1,0,0,1-.74-2.79,5,5,0,0,1,1.35-3.6A4.79,4.79,0,0,1,586.4,34,6.23,6.23,0,0,1,589.4,34.8Z"/><path class="cls-1" d="M594.54,26.7A2.28,2.28,0,0,1,596.79,29a2.28,2.28,0,1,1-4.55,0,2.16,2.16,0,0,1,.67-1.58A2.34,2.34,0,0,1,594.54,26.7ZM593,34.43h3.38V52.63H593Z"/><path class="cls-1" d="M607.54,34.78v3.43a2.11,2.11,0,0,0-1.69-.86q-2.78,0-2.78,6,0,6.38,2.76,6.38a3,3,0,0,0,1.71-.69V52.2a5.76,5.76,0,0,1-2.71.7q-5.41,0-5.41-9.21,0-4.9,1.34-7.23a4.45,4.45,0,0,1,4.15-2.33A5.77,5.77,0,0,1,607.54,34.78Z"/><path class="cls-1" d="M628.23,34.43V52.63h-3.36V50.29a5.83,5.83,0,0,1-1.44,2.06,3,3,0,0,1-1.9.56,3.48,3.48,0,0,1-3.32-2.32,18.67,18.67,0,0,1-1.05-7.28,17.14,17.14,0,0,1,1.05-7,3.48,3.48,0,0,1,3.32-2.22,3.77,3.77,0,0,1,3.34,2.36V34.43Zm-7.59,9a18,18,0,0,0,.47,5,1.78,1.78,0,0,0,1.72,1.42q1.13,0,1.63-1.48a17.1,17.1,0,0,0,.51-4.87,17.19,17.19,0,0,0-.51-4.89q-.51-1.48-1.63-1.48a1.79,1.79,0,0,0-1.71,1.41A15.94,15.94,0,0,0,620.64,43.45Z"/><path class="cls-1" d="M632,34.43h3.36V36.7a6.42,6.42,0,0,1,1.71-2,4.38,4.38,0,0,1,2.23-.67v3.52a4.13,4.13,0,0,0-.6-.05,3.19,3.19,0,0,0-2.58.93,5.12,5.12,0,0,0-.76,3.2v11H632Z"/><path class="cls-1" d="M642.82,29.34h3.36v5.1H648V37.1h-1.83V52.63h-3.36V37.1H641V34.43h1.85Z"/><path class="cls-1" d="M652,26.7A2.28,2.28,0,0,1,654.25,29a2.28,2.28,0,1,1-4.55,0,2.16,2.16,0,0,1,.67-1.58A2.34,2.34,0,0,1,652,26.7Zm-1.58,7.73h3.38V52.63h-3.37Z"/><path class="cls-1" d="M664.6,34.8v3.15A4.27,4.27,0,0,0,662,37a2.19,2.19,0,0,0-1.52.59,2,2,0,0,0-.46.65,2,2,0,0,0-.17.8q0,1.3,2.36,3.09a17.11,17.11,0,0,1,1.58,1.37,6.27,6.27,0,0,1,1,1.2,5.23,5.23,0,0,1,.69,2.79A5.41,5.41,0,0,1,664,51.45a5,5,0,0,1-3.78,1.46,5.88,5.88,0,0,1-3-.86V48.79a4.69,4.69,0,0,0,2.76,1.09,2,2,0,0,0,2.3-2.27,2.52,2.52,0,0,0-.42-1.46,4,4,0,0,0-.62-.69q-.42-.4-1-.89a13.69,13.69,0,0,1-2.88-2.78,5.1,5.1,0,0,1-.74-2.79A5,5,0,0,1,658,35.4,4.79,4.79,0,0,1,661.6,34,6.23,6.23,0,0,1,664.6,34.8Z"/><path class="cls-1" d="M668.73,29.34h3.36v5.1h1.83V37.1h-1.83V52.63h-3.36V37.1h-1.85V34.43h1.85Z"/><path class="cls-1" d="M683.36,34.8v3.15a4.27,4.27,0,0,0-2.58-.91,2.19,2.19,0,0,0-1.52.59,2,2,0,0,0-.46.65,2,2,0,0,0-.17.8q0,1.3,2.36,3.09a17.11,17.11,0,0,1,1.58,1.37,6.27,6.27,0,0,1,1,1.2,5.23,5.23,0,0,1,.69,2.79,5.41,5.41,0,0,1-1.42,3.92A5,5,0,0,1,679,52.91a5.88,5.88,0,0,1-3-.86V48.79a4.69,4.69,0,0,0,2.76,1.09,2,2,0,0,0,2.3-2.27,2.52,2.52,0,0,0-.42-1.46,4,4,0,0,0-.62-.69q-.42-.4-1-.89a13.69,13.69,0,0,1-2.88-2.78,5.1,5.1,0,0,1-.74-2.79,5,5,0,0,1,1.35-3.6A4.79,4.79,0,0,1,680.35,34,6.23,6.23,0,0,1,683.36,34.8Z"/></svg>